<svg id="healthlife" xmlns="http://www.w3.org/2000/svg" width="175.969" height="52" viewBox="0 0 175.969 52">
  <defs>
    <style>
      .cls-1 {
        fill: #ffffff;
      }
      .cls-1, .cls-2, .cls-3, .cls-4, .cls-5, .cls-6, .cls-7, .cls-8, .cls-9 {
        fill-rule: evenodd;
      }

      .cls-2 {
        fill: #ffffff;
      }

      .cls-3 {
        fill: #ffffff;
      }

      .cls-4 {
        fill: #ffffff;
      }

      .cls-5 {
        fill: #ffffff;
      }

      .cls-6 {
        fill: #ffffff;
      }

      .cls-7 {
        fill: #ffffff;
      }

      .cls-8 {
        fill: #ffffff;
      }

      .cls-9 {
        fill: #ffffff;
      }
    </style>
  </defs>
  <path class="cls-1" d="M78.245,33.558H76.419V26.149H68.148v7.409H66.322V17.814h1.826v6.7h8.271v-6.7h1.826V33.558Zm9.012,0.215a5.4,5.4,0,0,1-4.119-1.594,6.179,6.179,0,0,1-1.509-4.426,6.855,6.855,0,0,1,1.4-4.534,4.651,4.651,0,0,1,3.765-1.68A4.434,4.434,0,0,1,90.3,23a5.6,5.6,0,0,1,1.289,3.85V27.98H83.476a4.686,4.686,0,0,0,1.047,3.155,3.617,3.617,0,0,0,2.8,1.077,9.459,9.459,0,0,0,3.759-.8v1.594a9.409,9.409,0,0,1-1.788.587A10.006,10.006,0,0,1,87.257,33.773ZM86.773,23.037a2.909,2.909,0,0,0-2.261.926,4.276,4.276,0,0,0-.993,2.563h6.154a3.938,3.938,0,0,0-.752-2.59A2.644,2.644,0,0,0,86.773,23.037Zm15.091,10.521-0.354-1.68h-0.086a4.955,4.955,0,0,1-1.756,1.5,5.339,5.339,0,0,1-2.186.393,3.925,3.925,0,0,1-2.744-.9,3.3,3.3,0,0,1-.993-2.574q0-3.575,5.7-3.748l2-.065V25.751a3,3,0,0,0-.6-2.052,2.447,2.447,0,0,0-1.906-.662,7.752,7.752,0,0,0-3.33.9l-0.548-1.368a8.369,8.369,0,0,1,1.906-.743,8.246,8.246,0,0,1,2.079-.269,4.474,4.474,0,0,1,3.12.937,3.915,3.915,0,0,1,1.015,3v8.055h-1.321ZM97.836,32.3a3.615,3.615,0,0,0,2.616-.915,3.39,3.39,0,0,0,.95-2.563V27.754l-1.783.075a6.475,6.475,0,0,0-3.067.662,2,2,0,0,0-.94,1.825,1.843,1.843,0,0,0,.585,1.475A2.424,2.424,0,0,0,97.836,32.3Zm10.806,1.26h-1.783V16.8h1.783V33.558Zm7.583-1.26a5.774,5.774,0,0,0,.913-0.07,5.841,5.841,0,0,0,.7-0.145V33.45a3.245,3.245,0,0,1-.854.232,6.408,6.408,0,0,1-1.015.091q-3.415,0-3.415-3.607V23.145h-1.687V22.283l1.687-.743,0.751-2.52h1.031v2.735h3.416v1.389h-3.416V30.09a2.4,2.4,0,0,0,.5,1.637A1.756,1.756,0,0,0,116.225,32.3Zm12.019,1.26V25.923a3.085,3.085,0,0,0-.655-2.154,2.667,2.667,0,0,0-2.052-.711,3.357,3.357,0,0,0-2.712,1.012,5.138,5.138,0,0,0-.854,3.317v6.17h-1.783V16.8h1.783v5.072a10.966,10.966,0,0,1-.086,1.518h0.108a3.641,3.641,0,0,1,1.5-1.341,4.86,4.86,0,0,1,2.218-.49,4.536,4.536,0,0,1,3.239,1.028,4.341,4.341,0,0,1,1.079,3.268v7.7h-1.783Zm3.577-11.8h1.912l2.578,6.73a25.731,25.731,0,0,1,1.052,3.328h0.086q0.139-.549.586-1.879t2.916-8.179h1.911L137.8,35.195a6.719,6.719,0,0,1-1.756,2.827,3.732,3.732,0,0,1-2.466.835,7.165,7.165,0,0,1-1.611-.183V37.241a6.212,6.212,0,0,0,1.322.129,2.724,2.724,0,0,0,2.62-2.068l0.655-1.68Zm12.76,11.8V17.814h4.243V30.123h6.047v3.435h-10.29Zm12.471-15.237a1.781,1.781,0,0,1,.526-1.411,3.328,3.328,0,0,1,3.405.011,1.769,1.769,0,0,1,.537,1.4q0,1.852-2.245,1.852Q157.052,20.173,157.052,18.321Zm4.307,15.237h-4.2v-12.2h4.2v12.2Zm10.365-9.046h-2.589v9.046h-4.2V24.512h-1.611V22.445l1.7-1.034v-0.2A5.007,5.007,0,0,1,166,17.739a4.132,4.132,0,0,1,3.153-1.055,9.274,9.274,0,0,1,1.584.129,12.621,12.621,0,0,1,1.734.452l-0.9,2.724a5.623,5.623,0,0,0-1.514-.215,0.819,0.819,0,0,0-.7.3,1.647,1.647,0,0,0-.22.964v0.323h2.589v3.155Zm7.529,9.261a6.524,6.524,0,0,1-4.721-1.621,6.113,6.113,0,0,1-1.681-4.614,6.66,6.66,0,0,1,1.558-4.743,5.814,5.814,0,0,1,4.447-1.653A5.891,5.891,0,0,1,183.1,22.58a5.471,5.471,0,0,1,1.5,4.14v1.874h-7.508a2.092,2.092,0,0,0,.747,1.6,2.919,2.919,0,0,0,1.917.581,9.219,9.219,0,0,0,2.035-.21,10.037,10.037,0,0,0,2.014-.716v3.026a7.391,7.391,0,0,1-2.04.7A14.087,14.087,0,0,1,179.253,33.773Zm-0.247-9.767a1.747,1.747,0,0,0-1.241.468,2.2,2.2,0,0,0-.585,1.47h3.609a2.1,2.1,0,0,0-.5-1.411A1.648,1.648,0,0,0,179.006,24.006Z" transform="translate(-8.625 -0.344)"/>
  <g>
    <path class="cls-2" d="M35.434,0.344l0.008,0.037A22.989,22.989,0,0,1,48.817,40.864a25.363,25.363,0,0,1-5.281,9.928A26.013,26.013,0,0,0,35.434.344Z" transform="translate(-8.625 -0.344)"/>
    <path class="cls-3" d="M35.759,51.3a10.565,10.565,0,0,0-2.488-3.611c-0.3-.31-0.737-0.792-1.259-1.43a23.041,23.041,0,0,1-8.39-43.535A26.059,26.059,0,0,0,34.588,52.376c0.37,0,.738-0.01,1.1-0.025C35.692,52.351,35.962,52.376,35.759,51.3Z" transform="translate(-8.625 -0.344)"/>
    <path class="cls-4" d="M26.163,34.628c-7.982-4.2-9.617-9.721-9.617-9.721a28.514,28.514,0,0,0,.563,4.87c1.1,4.353,4.254,10.558,13.17,14.014A28.863,28.863,0,0,1,26.163,34.628Z" transform="translate(-8.625 -0.344)"/>
    <path class="cls-5" d="M25.659,24.972a2.84,2.84,0,1,1-2.84-2.84A2.84,2.84,0,0,1,25.659,24.972Z" transform="translate(-8.625 -0.344)"/>
    <path class="cls-6" d="M38.24,51.319s0.28,0,.954-2.446c1.257-4.559-2-12.992-4.711-19.261l-0.427-.987q-0.284-.613-0.524-1.222c-0.313-.736-0.609-1.447-0.882-2.129a22.518,22.518,0,0,1-1.479-8.157c-8.02,14.128.6,25.528,3.9,28.955C36.949,48.021,38.3,50.333,38.24,51.319Z" transform="translate(-8.625 -0.344)"/>
    <path class="cls-7" d="M34.807,8s-2.939,8.837,0,16.237,9.033,18.9,6.524,25.361c0,0,8.1-8.334,4.947-18.033S37.6,20.146,34.807,8Z" transform="translate(-8.625 -0.344)"/>
    <path class="cls-8" d="M47.574,17.113a3.036,3.036,0,1,1-3.036-3.036A3.036,3.036,0,0,1,47.574,17.113Z" transform="translate(-8.625 -0.344)"/>
    <path class="cls-9" d="M51.936,13.154C51.807,19.44,48.57,22.3,45.866,24.83a32.242,32.242,0,0,1,2.719,6.123,17.266,17.266,0,0,1,.7,3.067C51.289,31.919,56.959,23.036,51.936,13.154Z" transform="translate(-8.625 -0.344)"/>
  </g>
</svg>
