<svg id="organic-food" xmlns="http://www.w3.org/2000/svg" xmlns:xlink="http://www.w3.org/1999/xlink" width="81" height="52" viewBox="0 0 81 52">
  <defs>
    <style>
      .cls-1 {
        fill: #ffffff;
      }

      .cls-1, .cls-2 {
        fill-rule: evenodd;
      }

      .cls-2 {
        fill: #ffffff;
      }
    </style>
    <filter id="filter" filterUnits="userSpaceOnUse">
      <feFlood result="flood" flood-color="#2fba00"/>
      <feComposite result="composite" operator="in" in2="SourceGraphic"/>
      <feBlend result="blend" in2="SourceGraphic"/>
    </filter>
  </defs>
  <g class="cls-1">
    <path class="cls-2" d="M113.921,51.986A26.007,26.007,0,1,1,139.928,25.98,26.036,26.036,0,0,1,113.921,51.986Zm0-50.406a24.4,24.4,0,1,0,24.4,24.4A24.427,24.427,0,0,0,113.921,1.58ZM95.028,29.41a1.932,1.932,0,0,1-1.8-.419,2.812,2.812,0,0,1-.545-1.921V24.063a4.775,4.775,0,0,1,.123-1.144,2.634,2.634,0,0,1,.4-0.884,2.041,2.041,0,0,1,.73-0.63,3.4,3.4,0,0,1,1.1-.336,1.949,1.949,0,0,1,1.8.41,2.736,2.736,0,0,1,.549,1.9v3.008a4.73,4.73,0,0,1-.125,1.142,2.725,2.725,0,0,1-.4.9,2.066,2.066,0,0,1-.73.645A3.269,3.269,0,0,1,95.028,29.41ZM94.656,28.3a0.925,0.925,0,0,0,.371.009,1.054,1.054,0,0,0,.368-0.118,0.806,0.806,0,0,0,.244-0.2,0.864,0.864,0,0,0,.142-0.291,1.829,1.829,0,0,0,.069-0.344,3.941,3.941,0,0,0,.017-0.4v-3.7a3.249,3.249,0,0,0-.03-0.487,1.1,1.1,0,0,0-.115-0.354,0.454,0.454,0,0,0-.258-0.223,0.93,0.93,0,0,0-.438-0.022,1.106,1.106,0,0,0-.44.151,0.675,0.675,0,0,0-.258.3,1.457,1.457,0,0,0-.113.388,3.445,3.445,0,0,0-.029.5v3.7a3.825,3.825,0,0,0,.017.4,1.557,1.557,0,0,0,.069.324,0.626,0.626,0,0,0,.14.25A0.519,0.519,0,0,0,94.656,28.3Zm3.606,0.538v-8.15l1.868-.274a4.973,4.973,0,0,1,1.106-.057,1.88,1.88,0,0,1,.8.236,1.214,1.214,0,0,1,.512.6,2.622,2.622,0,0,1,.169,1.015,3.19,3.19,0,0,1-.229,1.287,1.718,1.718,0,0,1-.753.818l1.13,3.85-1.489.218L100.405,24.8l-0.659.1V28.62Zm1.484-4.887,0.359-.053a1.48,1.48,0,0,0,.936-0.418,1.5,1.5,0,0,0,.278-1,1.291,1.291,0,0,0-.241-0.9,1.012,1.012,0,0,0-.884-0.153l-0.448.066V23.95Zm5.938,3.907a1.657,1.657,0,0,1-1.663-.478,3.276,3.276,0,0,1-.509-2.03V22.7a6.066,6.066,0,0,1,.11-1.228,2.938,2.938,0,0,1,.372-0.947,1.956,1.956,0,0,1,.718-0.68,3.187,3.187,0,0,1,1.12-.356,1.989,1.989,0,0,1,1.735.338,2.339,2.339,0,0,1,.526,1.72v0.4l-1.421.208V21.726c0-.18,0-0.327-0.012-0.441a1.707,1.707,0,0,0-.059-0.337,0.513,0.513,0,0,0-.135-0.248,0.537,0.537,0,0,0-.241-0.117,1,1,0,0,0-.374,0,1.072,1.072,0,0,0-.3.085,1.02,1.02,0,0,0-.219.135,0.616,0.616,0,0,0-.15.2,1.428,1.428,0,0,0-.093.232,1.705,1.705,0,0,0-.049.28c-0.011.113-.019,0.212-0.022,0.3s0,0.2,0,.33v3.288a2.223,2.223,0,0,0,.182,1.053,0.618,0.618,0,0,0,.693.24,1.016,1.016,0,0,0,.445-0.166,0.85,0.85,0,0,0,.28-0.346,1.845,1.845,0,0,0,.143-0.488,4.38,4.38,0,0,0,.041-0.643V24.405l-0.879.129V23.576l2.216-.325V27.39l-0.963.141-0.108-.81A1.644,1.644,0,0,1,105.684,27.857Zm2.95-.541,1.657-8.392,1.548-.227,1.652,7.907-1.381.2-0.33-1.844-1.41.207-0.335,1.941Zm1.893-3.138,1.091-.16-0.545-3.268Zm3.564,2.338v-8.15l1.022-.15,2,4.323V17.924l1.23-.18v8.15l-0.974.143-2.015-4.556v4.851Zm5.308-.778v-8.15l1.465-.215v8.15Zm4.7-.592a2.869,2.869,0,0,1-.929,0,1.563,1.563,0,0,1-.667-0.271,1.462,1.462,0,0,1-.427-0.522,2.483,2.483,0,0,1-.231-0.716,5.279,5.279,0,0,1-.067-0.892V19.908a5.918,5.918,0,0,1,.069-0.951,3.384,3.384,0,0,1,.231-0.8,2.059,2.059,0,0,1,.425-0.64,2.307,2.307,0,0,1,.664-0.451,3.363,3.363,0,0,1,.932-0.264,2.869,2.869,0,0,1,1.041.009,1.268,1.268,0,0,1,.683.377,1.67,1.67,0,0,1,.365.681,3.621,3.621,0,0,1,.113.964v0.7l-1.431.21V19.052a3.243,3.243,0,0,0-.064-0.811,0.524,0.524,0,0,0-.624-0.351l-0.079.011a1.184,1.184,0,0,0-.326.092,0.623,0.623,0,0,0-.229.174,1.038,1.038,0,0,0-.142.225,1.059,1.059,0,0,0-.082.294c-0.018.119-.029,0.228-0.034,0.327s-0.007.224-.007,0.375v3.451a1.966,1.966,0,0,0,.179,1,0.592,0.592,0,0,0,.641.211,1.037,1.037,0,0,0,.278-0.078,0.869,0.869,0,0,0,.2-0.123,0.553,0.553,0,0,0,.138-0.183,1.328,1.328,0,0,0,.086-0.209,1.294,1.294,0,0,0,.045-0.26c0.009-.11.015-0.2,0.017-0.277s0-.179,0-0.31V21.878l1.431-.21v0.669a5.007,5.007,0,0,1-.064.83,2.956,2.956,0,0,1-.219.715,2,2,0,0,1-.4.589,2.145,2.145,0,0,1-.63.424A3.241,3.241,0,0,1,124.1,25.147Zm-9.454,10.7V27.7L118,27.209v1.027l-1.863.273v2.369l1.49-.219v1.047l-1.49.219v3.706Zm6.144-.8a1.929,1.929,0,0,1-1.8-.419,2.81,2.81,0,0,1-.546-1.921V29.7a4.768,4.768,0,0,1,.123-1.144,2.605,2.605,0,0,1,.4-0.884,2.032,2.032,0,0,1,.729-0.631,3.412,3.412,0,0,1,1.1-.336,1.95,1.95,0,0,1,1.8.409,2.738,2.738,0,0,1,.548,1.9v3.008a4.766,4.766,0,0,1-.125,1.142,2.743,2.743,0,0,1-.4.9,2.084,2.084,0,0,1-.73.645A3.28,3.28,0,0,1,120.794,35.047Zm-0.37-1.11a0.92,0.92,0,0,0,.37.009,1.051,1.051,0,0,0,.369-0.118,0.8,0.8,0,0,0,.243-0.2,0.854,0.854,0,0,0,.143-0.291,1.968,1.968,0,0,0,.069-0.344c0.011-.113.017-0.247,0.017-0.4v-3.7a3.41,3.41,0,0,0-.029-0.487,1.1,1.1,0,0,0-.116-0.354,0.452,0.452,0,0,0-.258-0.223,0.927,0.927,0,0,0-.438-0.022,1.1,1.1,0,0,0-.439.151,0.672,0.672,0,0,0-.259.3,1.509,1.509,0,0,0-.113.388,3.449,3.449,0,0,0-.029.5v3.7c0,0.154.006,0.286,0.017,0.4a1.652,1.652,0,0,0,.069.324,0.618,0.618,0,0,0,.14.25A0.516,0.516,0,0,0,120.424,33.937Zm5.822,0.311a1.932,1.932,0,0,1-1.8-.419,2.811,2.811,0,0,1-.546-1.921V28.9a4.772,4.772,0,0,1,.123-1.144,2.629,2.629,0,0,1,.4-0.884,2.035,2.035,0,0,1,.73-0.631,3.413,3.413,0,0,1,1.1-.336,1.948,1.948,0,0,1,1.8.409,2.738,2.738,0,0,1,.548,1.9v3.008a4.711,4.711,0,0,1-.125,1.142,2.748,2.748,0,0,1-.4.9,2.07,2.07,0,0,1-.73.645A3.279,3.279,0,0,1,126.246,34.248Zm-0.371-1.111a0.929,0.929,0,0,0,.371.01,1.058,1.058,0,0,0,.369-0.118,0.819,0.819,0,0,0,.243-0.2A0.894,0.894,0,0,0,127,32.535a1.874,1.874,0,0,0,.068-0.344,3.853,3.853,0,0,0,.018-0.4v-3.7a3.4,3.4,0,0,0-.03-0.487,1.1,1.1,0,0,0-.116-0.354,0.452,0.452,0,0,0-.258-0.223A0.916,0.916,0,0,0,126.246,27a1.106,1.106,0,0,0-.44.15,0.679,0.679,0,0,0-.258.3,1.434,1.434,0,0,0-.113.388,3.431,3.431,0,0,0-.03.5v3.7c0,0.154.006,0.286,0.017,0.4a1.654,1.654,0,0,0,.069.324,0.624,0.624,0,0,0,.14.25A0.519,0.519,0,0,0,125.875,33.137Zm3.606,0.538V25.526l1.9-.278a4.306,4.306,0,0,1,1.234-.034,1.467,1.467,0,0,1,.8.35,1.5,1.5,0,0,1,.425.722,4.223,4.223,0,0,1,.125,1.125v2.939a4.975,4.975,0,0,1-.127,1.2,2.443,2.443,0,0,1-.42.887,2.087,2.087,0,0,1-.779.613,4.233,4.233,0,0,1-1.195.335Zm1.484-1.259,0.423-.062a1.859,1.859,0,0,0,.388-0.1,1.644,1.644,0,0,0,.281-0.135,0.575,0.575,0,0,0,.189-0.2,1.654,1.654,0,0,0,.115-0.243,1.382,1.382,0,0,0,.059-0.321c0.013-.141.021-0.261,0.025-0.36s0-.244,0-0.438V27.577c0-.193,0-0.348-0.01-0.465a2.3,2.3,0,0,0-.047-0.349,0.606,0.606,0,0,0-.108-0.262,0.625,0.625,0,0,0-.19-0.152,0.658,0.658,0,0,0-.294-0.07,2.437,2.437,0,0,0-.428.031l-0.408.06v6.046Zm-27.633,4.077h0.032c0.133-.091.231-0.147,0.231-0.147,0.162-.208.334-0.41,0.515-0.609l0.07-.075a13.973,13.973,0,0,1,1.277-1.212,21.291,21.291,0,0,1,6.785-4.609c-1.084-.477-3.178-1.195-4.8-0.512C104.653,30.5,104.271,34.644,103.332,36.492Zm0.032,0c2.079-.094,5.915,1.1,8.189-0.834,1.781-1.517,1.657-3.935,1.505-4.969a24.549,24.549,0,0,0-7.617,3.784l-0.02.015h0c-0.524.451-.927,0.851-1.239,1.172l-0.07.075A8.861,8.861,0,0,1,103.364,36.492Zm-8.114.219h0.024c0.1-.068.171-0.108,0.171-0.108,0.119-.153.246-0.3,0.379-0.449l0.052-.055a10.236,10.236,0,0,1,.943-0.894,15.7,15.7,0,0,1,5.005-3.4,4.891,4.891,0,0,0-3.543-.378C96.225,32.291,95.944,35.347,95.251,36.711Zm0.024,0c1.534-.069,4.364.815,6.041-0.615a4.034,4.034,0,0,0,1.11-3.665,18.1,18.1,0,0,0-5.618,2.792l-0.015.011h0c-0.387.333-.684,0.628-0.914,0.864l-0.052.055A6.433,6.433,0,0,1,95.274,36.711Z" transform="translate(-74.469)"/>
    <path class="cls-2" d="M102.3,16.607a0.8,0.8,0,0,1-.117-1.594l52.375-7.722a0.8,0.8,0,1,1,.234,1.585L102.413,16.6A0.8,0.8,0,0,1,102.3,16.607Z" transform="translate(-74.469)"/>
    <path class="cls-2" d="M75.255,46.766a0.8,0.8,0,0,1-.117-1.593l52.375-7.721a0.8,0.8,0,1,1,.234,1.585L75.373,46.757A0.819,0.819,0,0,1,75.255,46.766Z" transform="translate(-74.469)"/>
    <path class="cls-2" d="M136.581,22.526l-0.029,0c-0.127-.065-0.22-0.1-0.22-0.1-0.162-.158-0.335-0.311-0.513-0.46l-0.07-.056a12.4,12.4,0,0,0-1.25-.9,19.823,19.823,0,0,0-6.483-3.258,6.423,6.423,0,0,1,4.266-.8C134.884,17.7,135.58,21.079,136.581,22.526Zm-0.029,0c-1.874.085-5.214,1.371-7.42-.045a4.326,4.326,0,0,1-1.775-3.967,23.3,23.3,0,0,1,7.159,2.516l0.019,0.011h0c0.509,0.33.905,0.627,1.212,0.867l0.07,0.056A7.755,7.755,0,0,0,136.552,22.528Z" transform="translate(-74.469)"/>
  </g>
</svg>
