<?xml version="1.0" encoding="utf-8"?>
<!-- Generator: Adobe Illustrator 23.0.0, SVG Export Plug-In . SVG Version: 6.00 Build 0)  -->
<svg version="1.1" xmlns="http://www.w3.org/2000/svg" xmlns:xlink="http://www.w3.org/1999/xlink" x="0px" y="0px"
	 viewBox="0 0 750 500" style="enable-background:new 0 0 750 500;" xml:space="preserve">
<style type="text/css">
	.st0{fill:#FFC107;}
	.st1{fill:#0D6EFD;}
	.st2{fill:#F15330;}
	.st3{opacity:0.37;fill:url(#SVGID_1_);}
	.st4{opacity:0.37;fill:url(#SVGID_2_);}
	.st5{fill:url(#SVGID_3_);}
	.st6{fill:url(#SVGID_4_);}
	.st7{fill:url(#SVGID_5_);}
	.st8{fill:url(#SVGID_6_);}
	.st9{fill:url(#SVGID_7_);}
	.st10{fill:url(#SVGID_8_);}
	.st11{fill:url(#SVGID_9_);}
	.st12{fill:#111023;}
	.st13{fill:url(#SVGID_10_);}
	.st14{fill:url(#SVGID_11_);}
	.st15{fill:url(#SVGID_12_);}
	.st16{fill:url(#SVGID_13_);}
	.st17{fill:url(#SVGID_14_);}
	.st18{fill:url(#SVGID_15_);}
	.st19{fill:url(#SVGID_16_);}
	.st20{fill:#5B2B89;}
	.st21{fill:url(#SVGID_17_);}
	.st22{fill:#3B90F4;}
	.st23{fill:url(#SVGID_18_);}
	.st24{opacity:0.38;fill:url(#SVGID_19_);}
	.st25{fill:url(#SVGID_20_);}
	.st26{fill:#F79244;}
	.st27{fill:#FFFFFF;}
	.st28{opacity:0.5;fill:url(#SVGID_21_);}
	.st29{fill:url(#SVGID_22_);}
	.st30{fill:url(#SVGID_23_);}
	.st31{fill:#E9FDFF;}
	.st32{fill:url(#SVGID_24_);}
	.st33{fill:url(#SVGID_25_);}
	.st34{fill:#2A2A2A;}
	.st35{fill:url(#SVGID_26_);}
</style>
<g id="BACKGROUND">
	<rect x="-166.6" y="146.6" class="st0" width="42.7" height="42.7"/>
	<rect x="-166.6" y="206.4" class="st1" width="42.7" height="42.7"/>
	<rect x="-166.6" y="265.9" class="st2" width="42.7" height="42.7"/>
</g>
<g id="OBJECTS">
	<g>
		<linearGradient id="SVGID_1_" gradientUnits="userSpaceOnUse" x1="387.9164" y1="387.4633" x2="404.0962" y2="143.1487">
			<stop  offset="0" style="stop-color:#31D1D6"/>
			<stop  offset="0.3733" style="stop-color:#32CED8"/>
			<stop  offset="0.6175" style="stop-color:#36C6DF"/>
			<stop  offset="0.824" style="stop-color:#3CB7EB"/>
			<stop  offset="1" style="stop-color:#45A3FA"/>
		</linearGradient>
		<path class="st3" d="M204.2,373.5h-51.5c-13.8-14.3-17.5-37.1-9.2-55.2c7.8-17.2,24.7-28.6,34.9-44.6
			c21.8-34,11.3-84.8,40.8-112.3c14.8-13.8,36.1-17.7,56.2-19.3c20.1-1.6,40.9-1.6,59.6-9.4c23-9.7,40.3-30.4,63.9-38.2
			c26.6-8.8,58.3,2.2,73.9,25.4c9.7,14.6,13.4,32.9,24.9,46.1c18.6,21.4,51.3,23,74.4,39.3c15.9,11.2,26.6,29.4,28.7,48.7
			c2.5,23.3-6.4,49.8,7.6,68.6c6.8,9.2,17.9,14.3,25.2,23.1c7.3,8.7,9.4,16.7,7.1,27.8H204.2z"/>
		<linearGradient id="SVGID_2_" gradientUnits="userSpaceOnUse" x1="401.0737" y1="387.4633" x2="417.2535" y2="143.1487">
			<stop  offset="0" style="stop-color:#31D1D6"/>
			<stop  offset="0.3733" style="stop-color:#32CED8"/>
			<stop  offset="0.6175" style="stop-color:#36C6DF"/>
			<stop  offset="0.824" style="stop-color:#3CB7EB"/>
			<stop  offset="1" style="stop-color:#45A3FA"/>
		</linearGradient>
		<path class="st4" d="M217.3,373.5h-51.5c-13.8-14.3-17.5-37.1-9.2-55.2c7.8-17.2,24.7-28.6,34.9-44.6
			c21.8-34,11.3-84.8,40.8-112.3c14.8-13.8,36.1-17.7,56.2-19.3s40.9-1.6,59.6-9.4c23-9.7,40.3-30.4,63.9-38.2
			c26.6-8.8,58.3,2.2,73.9,25.4c9.7,14.6,13.4,32.9,24.9,46.1c18.6,21.4,51.3,23,74.4,39.3c15.9,11.2,26.6,29.4,28.7,48.7
			c2.5,23.3-6.4,49.8,7.6,68.6c6.8,9.2,17.9,14.3,25.2,23.1c7.3,8.7,9.4,16.7,7.1,27.8H217.3z"/>
	</g>
	<linearGradient id="SVGID_3_" gradientUnits="userSpaceOnUse" x1="238.6703" y1="197.9663" x2="238.6703" y2="155.3596">
		<stop  offset="0" style="stop-color:#F9E6D9"/>
		<stop  offset="0.121" style="stop-color:#FCF1EA"/>
		<stop  offset="0.2698" style="stop-color:#FEF9F6"/>
		<stop  offset="0.4751" style="stop-color:#FFFEFD"/>
		<stop  offset="1" style="stop-color:#FFFFFF"/>
	</linearGradient>
	<path class="st5" d="M335.8,197.2l-2.1,0.1H142.2l-0.5,0.1c-1.9-12.7,8-25.6,20.6-29c10.9-3,23.7-0.3,32.9-7
		c8.2-6,10.3-17.2,15.6-25.8c3.3-5.4,8.1-9.9,13.7-12.8c7-3.8,15.7-5.1,22.8-1.7c12.7,6,15.1,22.8,23.6,34c1.9,2.5,4.3,4.8,7.3,5.7
		c2.8,0.8,5.8,0.2,8.6-0.3c9.4-1.7,20.6-1.5,26.4,6c2.7,3.5,3.7,8.1,5.2,12.3c1.5,4.2,4,8.5,8.2,10c2,0.7,4.3,0.7,6.1,1.9
		C335,191.9,335.7,194.5,335.8,197.2z"/>
	<linearGradient id="SVGID_4_" gradientUnits="userSpaceOnUse" x1="530.7737" y1="227.8753" x2="533.4703" y2="186.3472">
		<stop  offset="0" style="stop-color:#F9E6D9"/>
		<stop  offset="0.121" style="stop-color:#FCF1EA"/>
		<stop  offset="0.2698" style="stop-color:#FEF9F6"/>
		<stop  offset="0.4751" style="stop-color:#FFFEFD"/>
		<stop  offset="1" style="stop-color:#FFFFFF"/>
	</linearGradient>
	<path class="st6" d="M643.8,221.3H420.5c-1.8-2.3-2-6-0.7-8.7c1.6-3.7,5.1-6.1,8.5-8.2c3.4-2.1,7.1-4,9.7-7
		c4.9-5.9,4.6-14.3,5.7-21.9c1.3-9,5.1-17.9,11.9-24c2.7-2.4,5.8-4.3,9.1-5.8c9.4-4.4,20.9-5.4,29.7,0c8.4,5.2,12.5,15.2,19.8,21.9
		c1.7,1.6,3.7,3,6,3.5c6.5,1.5,12.1-4.4,17-9c7-6.5,16.3-11.3,25.7-10.1c11.1,1.4,19.7,11,23.9,21.3c1.8,4.3,3.1,9.1,6.6,12.2
		c9,7.9,24.1-1,34.6,4.8c3.9,2.2,6.6,6.1,8.7,10C640,206.8,642.5,214,643.8,221.3z"/>
	<g>
		<linearGradient id="SVGID_5_" gradientUnits="userSpaceOnUse" x1="218.2585" y1="300.5156" x2="331.3926" y2="300.5156">
			<stop  offset="0" style="stop-color:#31D1D6"/>
			<stop  offset="0.3733" style="stop-color:#32CED8"/>
			<stop  offset="0.6175" style="stop-color:#36C6DF"/>
			<stop  offset="0.824" style="stop-color:#3CB7EB"/>
			<stop  offset="1" style="stop-color:#45A3FA"/>
		</linearGradient>
		<path class="st7" d="M331.4,345.2h-16.1v28.2h-38.9v-28.2h-58.2v-28.9l60.7-88.7h36.4v88.2h16.1V345.2z M276.4,315.8v-17
			c0-3.2,0.1-7.5,0.3-12.9c0.2-5.4,0.4-8.3,0.5-8.5h-1.1c-2.3,5.1-4.8,9.9-7.7,14.4l-16.2,24H276.4z"/>
		<linearGradient id="SVGID_6_" gradientUnits="userSpaceOnUse" x1="265.2303" y1="383.0508" x2="264.1516" y2="328.0396">
			<stop  offset="0" style="stop-color:#F9E6D9"/>
			<stop  offset="0.121" style="stop-color:#FCF1EA"/>
			<stop  offset="0.2698" style="stop-color:#FEF9F6"/>
			<stop  offset="0.4751" style="stop-color:#FFFEFD"/>
			<stop  offset="1" style="stop-color:#FFFFFF"/>
		</linearGradient>
		<path class="st8" d="M320.8,345.2h-16.1v28.2h-38.9v-28.2h-58.2v-28.9l60.7-88.7h36.4v88.2h16.1V345.2z M265.8,315.8v-17
			c0-3.2,0.1-7.5,0.3-12.9c0.2-5.4,0.4-8.3,0.5-8.5h-1.1c-2.3,5.1-4.8,9.9-7.7,14.4l-16.2,24H265.8z"/>
	</g>
	<g>
		
			<linearGradient id="SVGID_7_" gradientUnits="userSpaceOnUse" x1="462.0378" y1="311.1027" x2="575.1755" y2="311.1027" gradientTransform="matrix(0.9818 -0.1899 0.1899 0.9818 -47.317 104.3219)">
			<stop  offset="0" style="stop-color:#31D1D6"/>
			<stop  offset="0.3733" style="stop-color:#32CED8"/>
			<stop  offset="0.6175" style="stop-color:#36C6DF"/>
			<stop  offset="0.824" style="stop-color:#3CB7EB"/>
			<stop  offset="1" style="stop-color:#45A3FA"/>
		</linearGradient>
		<path class="st9" d="M585.3,346.2l-5.6-28.9l-10.4,2l-5.3,1l-16.7-86.6l-35.8,6.9l-42.7,98.6l5.5,28.4l57.1-11l3.3,16.8h39.6
			l-4.7-24.2l5.3-1L585.3,346.2z M515.3,329.7l-13.2,2.5l9.4-22.2l1.9-4.5c2-4.9,3.6-10.1,4.8-15.6l1.1-0.2
			c-0.1,0.3,0.3,3.1,1.1,8.5c0.8,5.4,1.5,9.6,2.1,12.8l3.2,16.7L515.3,329.7z"/>
		<linearGradient id="SVGID_8_" gradientUnits="userSpaceOnUse" x1="517.233" y1="378.1096" x2="516.1544" y2="323.0983">
			<stop  offset="0" style="stop-color:#F9E6D9"/>
			<stop  offset="0.121" style="stop-color:#FCF1EA"/>
			<stop  offset="0.2698" style="stop-color:#FEF9F6"/>
			<stop  offset="0.4751" style="stop-color:#FFFEFD"/>
			<stop  offset="1" style="stop-color:#FFFFFF"/>
		</linearGradient>
		<path class="st10" d="M574.9,348.2l-5.6-28.9l-15.8,3l-16.8-86.6l-25.3,4.9l-10.4,2l-42.7,98.6l5.5,28.4l10.4-2l46.7-9l2.9,14.8
			h39.6l-4.3-22.2l10.4-2L574.9,348.2z M511.5,310.1c0.2,1.1,0.4,2.1,0.6,3l3.2,16.7l-23.6,4.6l11.3-26.7c2-4.9,3.6-10.1,4.8-15.6
			l1.1-0.2c-0.1,0.3,0.3,3.1,1.1,8.5C510.5,304.2,511.1,307.4,511.5,310.1z"/>
	</g>
	<g id="XMLID_2_">
		<g>
			<linearGradient id="SVGID_9_" gradientUnits="userSpaceOnUse" x1="290.2558" y1="231.047" x2="322.2558" y2="222.7774">
				<stop  offset="0" style="stop-color:#31D1D6"/>
				<stop  offset="0.3733" style="stop-color:#32CED8"/>
				<stop  offset="0.6175" style="stop-color:#36C6DF"/>
				<stop  offset="0.824" style="stop-color:#3CB7EB"/>
				<stop  offset="1" style="stop-color:#45A3FA"/>
			</linearGradient>
			<path class="st11" d="M336.8,299.5l-23.8,0L298,189c0,0-21.8-23.8-46.8-28.3l23.8-2.6l53.7,1.5L336.8,299.5z"/>
			<path class="st12" d="M243.1,238.7c0,0-13.5,19.8-7.5,36.7l25.1-36.7l-3.3-4.4L243.1,238.7z"/>
			<path class="st12" d="M313.1,299.5l-0.8,5.1c0,0-7.2,1-7.6,11.2h18.6l10.1-9.9l0.9-6.4H313.1z"/>
			<linearGradient id="SVGID_10_" gradientUnits="userSpaceOnUse" x1="226.7384" y1="200.6536" x2="297.9775" y2="200.6536">
				<stop  offset="0" style="stop-color:#31D1D6"/>
				<stop  offset="0.3733" style="stop-color:#32CED8"/>
				<stop  offset="0.6175" style="stop-color:#36C6DF"/>
				<stop  offset="0.824" style="stop-color:#3CB7EB"/>
				<stop  offset="1" style="stop-color:#45A3FA"/>
			</linearGradient>
			<path class="st13" d="M284.3,188.9l-29.8-1.1l4.8,45.6l-20.2,7.2l-11.6-56.3c-3.4-10.5,3.7-21.5,14.7-22.7l8.9-1h0
				c25,4.5,46.8,28.3,46.8,28.3L284.3,188.9z"/>
		</g>
		<g>
			<linearGradient id="SVGID_11_" gradientUnits="userSpaceOnUse" x1="177.1385" y1="58.9747" x2="229.5139" y2="58.9747">
				<stop  offset="0" style="stop-color:#51ADC6"/>
				<stop  offset="6.081700e-03" style="stop-color:#55AFC4"/>
				<stop  offset="6.631500e-02" style="stop-color:#74BFB5"/>
				<stop  offset="0.1333" style="stop-color:#8FCDA7"/>
				<stop  offset="0.2102" style="stop-color:#A5D89D"/>
				<stop  offset="0.3001" style="stop-color:#B6E094"/>
				<stop  offset="0.4112" style="stop-color:#C1E78E"/>
				<stop  offset="0.5672" style="stop-color:#C8EA8B"/>
				<stop  offset="1" style="stop-color:#CAEB8A"/>
			</linearGradient>
			<path class="st14" d="M229.5,61.7V63l-1.6,0.2c-0.4-0.9-0.9-1.6-1.3-2c-2.2-1.9-3.7-3.3-5.2-2.4c-1.2,0.7-1.1,3.9-1,5.4l-4.4,0.6
				l-38.9,4.9l0-0.1c2.5-0.6,4.5-5.1,4.5-10.6c0-5.4-1.9-9.9-4.4-10.6l52.3,5.9v1.1V61.7z"/>
			<linearGradient id="SVGID_12_" gradientUnits="userSpaceOnUse" x1="180.0508" y1="52.9203" x2="171.5755" y2="52.9203">
				<stop  offset="0" style="stop-color:#8AEBD6"/>
				<stop  offset="0.4615" style="stop-color:#89E9D7"/>
				<stop  offset="0.6276" style="stop-color:#84E2DA"/>
				<stop  offset="0.7461" style="stop-color:#7DD7DE"/>
				<stop  offset="0.8419" style="stop-color:#72C6E5"/>
				<stop  offset="0.9229" style="stop-color:#64B0EE"/>
				<stop  offset="0.9944" style="stop-color:#5395F9"/>
				<stop  offset="1" style="stop-color:#5193FA"/>
			</linearGradient>
			<path class="st15" d="M180.1,51.2c-0.1,0.2-0.2,0.3-0.3,0.5c-0.6,1.1-0.8,2.3-1.5,3.3c-0.5,0.7-1.2,1.3-2.1,1.6
				c-0.9,0.3-1.8,0.4-2.8,0.5c-0.6,0.1-1.3,0.2-1.8,0.5c0.3-5.2,2.3-9.2,4.9-9.4l0.8,0.1C178.3,48.6,179.3,49.7,180.1,51.2z"/>
			<linearGradient id="SVGID_13_" gradientUnits="userSpaceOnUse" x1="181.6015" y1="57.9919" x2="171.5304" y2="57.9919">
				<stop  offset="0" style="stop-color:#31D1D6"/>
				<stop  offset="0.3733" style="stop-color:#32CED8"/>
				<stop  offset="0.6175" style="stop-color:#36C6DF"/>
				<stop  offset="0.824" style="stop-color:#3CB7EB"/>
				<stop  offset="1" style="stop-color:#45A3FA"/>
			</linearGradient>
			<path class="st16" d="M181.6,58.1C181.6,58.1,181.6,58.1,181.6,58.1c-0.7,0.9-1,2-1.6,2.9c-0.7,1-1.8,1.8-3,2.1
				c-1.1,0.3-2.3,0.1-3.4,0.6c-0.5,0.3-0.9,0.7-1.3,1.2c-0.5-1.7-0.8-3.7-0.8-5.9c0-0.5,0-0.9,0-1.3c0.6-0.3,1.2-0.4,1.8-0.5
				c0.9-0.1,1.9-0.2,2.8-0.5c0.8-0.3,1.6-0.9,2.1-1.6c0.7-1,1-2.2,1.5-3.3c0.1-0.2,0.2-0.3,0.3-0.5
				C180.9,52.9,181.5,55.4,181.6,58.1z"/>
			<linearGradient id="SVGID_14_" gradientUnits="userSpaceOnUse" x1="181.6196" y1="63.8389" x2="172.3599" y2="63.8389">
				<stop  offset="0" style="stop-color:#8AEBD6"/>
				<stop  offset="0.4615" style="stop-color:#89E9D7"/>
				<stop  offset="0.6276" style="stop-color:#84E2DA"/>
				<stop  offset="0.7461" style="stop-color:#7DD7DE"/>
				<stop  offset="0.8419" style="stop-color:#72C6E5"/>
				<stop  offset="0.9229" style="stop-color:#64B0EE"/>
				<stop  offset="0.9944" style="stop-color:#5395F9"/>
				<stop  offset="1" style="stop-color:#5193FA"/>
			</linearGradient>
			<path class="st17" d="M181.6,58.9c0,5.5-2,10-4.5,10.6c-0.2,0-0.4,0.1-0.6,0.1c-1.8,0-3.3-1.9-4.2-4.8c0.3-0.5,0.7-0.9,1.3-1.2
				c1-0.5,2.2-0.4,3.4-0.6c1.2-0.3,2.3-1,3-2.1c0.6-0.9,0.9-2,1.5-2.8c0,0,0,0,0-0.1C181.6,58.3,181.6,58.6,181.6,58.9z"/>
			<path class="st12" d="M260.3,56.3H276c-1.6,0.7-3,1.4-3.7,2c-0.5,0.5-0.3,1.3,0.3,2.4h-12.4V56.3z"/>
			<path class="st12" d="M295.2,58.9v1.7h-8.5c-0.8-1.9-1.4-3.5-1.6-4.4h10.2V58.9z"/>
			<linearGradient id="SVGID_15_" gradientUnits="userSpaceOnUse" x1="229.5139" y1="58.4653" x2="260.3134" y2="58.4653">
				<stop  offset="0" style="stop-color:#31D1D6"/>
				<stop  offset="0.3733" style="stop-color:#32CED8"/>
				<stop  offset="0.6175" style="stop-color:#36C6DF"/>
				<stop  offset="0.824" style="stop-color:#3CB7EB"/>
				<stop  offset="1" style="stop-color:#45A3FA"/>
			</linearGradient>
			<polygon class="st18" points="260.3,60.7 260.3,61.7 229.5,61.7 229.5,55.3 260.3,55.3 260.3,56.3 			"/>
			<linearGradient id="SVGID_16_" gradientUnits="userSpaceOnUse" x1="216.0428" y1="68.0998" x2="230.7311" y2="68.0998">
				<stop  offset="0" style="stop-color:#F7BE86"/>
				<stop  offset="0.3293" style="stop-color:#F7BC83"/>
				<stop  offset="0.5448" style="stop-color:#F7B67B"/>
				<stop  offset="0.7276" style="stop-color:#F7AC6C"/>
				<stop  offset="0.8912" style="stop-color:#F79E57"/>
				<stop  offset="1" style="stop-color:#F79244"/>
			</linearGradient>
			<path class="st19" d="M230.7,72.5l-6.8,5.2c0,0-8.2-8.6-7.9-13l4.4-0.6c-0.1-1.5-0.2-4.7,1-5.4c1.5-0.9,3,0.6,5.2,2.4
				c0.4,0.4,0.9,1.1,1.3,2C229.5,66.6,230.7,72.5,230.7,72.5z"/>
			<path class="st20" d="M185.1,48.4c-0.5-1-1.9-0.1-1.5,0.8c2.8,6.1,2.4,12.8-0.9,18.6c-0.5,0.9,0.9,1.8,1.5,0.8
				C187.8,62.3,188.1,55,185.1,48.4z"/>
		</g>
		<g>
			<linearGradient id="SVGID_17_" gradientUnits="userSpaceOnUse" x1="302.7981" y1="79.3268" x2="302.3118" y2="96.9946">
				<stop  offset="0" style="stop-color:#7B6ED6"/>
				<stop  offset="0.4804" style="stop-color:#796DD5"/>
				<stop  offset="0.6535" style="stop-color:#7268D0"/>
				<stop  offset="0.7768" style="stop-color:#6760C9"/>
				<stop  offset="0.8765" style="stop-color:#5655BE"/>
				<stop  offset="0.961" style="stop-color:#4047B0"/>
				<stop  offset="1" style="stop-color:#333EA8"/>
			</linearGradient>
			<polygon class="st21" points="305.9,79.4 305.9,84.6 299.6,78.7 			"/>
			<path class="st22" d="M305.9,84.6l6.3,6l6,5.7c0,0,13.8-9.6,19.1-9.7c0.4,0,0.7,0,1.1,0.1c4.7,0.7,7.6,6.1,6.8,11.4
				c-0.9,5.6-0.7,11.9-6.2,12.9c-5.4,1-29.3,6.8-29.3,6.8l-26.2-35.5l3.1-2.2l6.9-4.8l1.4-1l3,2.8l1.7,1.6L305.9,84.6z"/>
			<path class="st22" d="M322.8,80.4l15.6,6.1c-0.4-0.1-0.7-0.1-1.1-0.1c-5.3,0.1-19.1,9.7-19.1,9.7l-6-5.7L322.8,80.4z"/>
			<path class="st1" d="M339,110.8l-9.1,24.7l-1.2,24.1c0,0-1.1,0.2-2.9,0.5c-8.7,1.2-34.6,4.2-50.8-1.9l6.3-29.9l-2.9-23.6
				l-35.3,3.9L221,79.9l2.9-2.2l6.8-5.2L251.6,93l32.7-14.3c1.2,0.9,2.2,1.3,2.2,1.3l-3.1,2.2l26.2,35.5
				C309.7,117.6,333.6,111.8,339,110.8z"/>
			<linearGradient id="SVGID_18_" gradientUnits="userSpaceOnUse" x1="272.0941" y1="67.3776" x2="293.4481" y2="67.3776">
				<stop  offset="0" style="stop-color:#F7BE86"/>
				<stop  offset="0.3293" style="stop-color:#F7BC83"/>
				<stop  offset="0.5448" style="stop-color:#F7B67B"/>
				<stop  offset="0.7276" style="stop-color:#F7AC6C"/>
				<stop  offset="0.8912" style="stop-color:#F79E57"/>
				<stop  offset="1" style="stop-color:#F79244"/>
			</linearGradient>
			<path class="st23" d="M293.4,75.1l-6.9,4.8c0,0-1-0.4-2.2-1.3c-1.6-1.1-3.4-2.9-3.6-5.5c-0.3-3.5-6.1-9.1-8.1-12.5
				c-0.6-1.1-0.8-1.9-0.3-2.4c0.6-0.6,2-1.3,3.7-2c3.6-1.4,8.5-2.4,8.9-0.2c0,0.1,0,0.1,0,0.2c0.2,0.9,0.8,2.5,1.6,4.4
				C289.1,66.5,293.4,75.1,293.4,75.1z"/>
			<linearGradient id="SVGID_19_" gradientUnits="userSpaceOnUse" x1="283.4942" y1="108.8075" x2="339.0072" y2="108.8075">
				<stop  offset="0" style="stop-color:#3C0887"/>
				<stop  offset="0.3227" style="stop-color:#3F0987"/>
				<stop  offset="0.5338" style="stop-color:#470E87"/>
				<stop  offset="0.7129" style="stop-color:#561588"/>
				<stop  offset="0.8732" style="stop-color:#6B1F89"/>
				<stop  offset="1" style="stop-color:#822A8A"/>
			</linearGradient>
			<path class="st24" d="M329.9,135.5c-40-8.5-46.4-53.4-46.4-53.4l26.2,35.5l29.3-6.8L329.9,135.5z"/>
		</g>
		<g>
			<linearGradient id="SVGID_20_" gradientUnits="userSpaceOnUse" x1="296.6399" y1="71.931" x2="324.6991" y2="71.931">
				<stop  offset="0" style="stop-color:#F7BE86"/>
				<stop  offset="0.3293" style="stop-color:#F7BC83"/>
				<stop  offset="0.5448" style="stop-color:#F7B67B"/>
				<stop  offset="0.7276" style="stop-color:#F7AC6C"/>
				<stop  offset="0.8912" style="stop-color:#F79E57"/>
				<stop  offset="1" style="stop-color:#F79244"/>
			</linearGradient>
			<path class="st25" d="M322.5,58.6c0.8-0.2,1.7-0.1,2,1.3c0.8,3.1-2.7,6.8-2.7,6.8l0.9,13.7l-10.6,10.1l4.1-11.9l-10.4,0.7
				l-6.3-0.7l-1.7-1.6c0,0-1.2-11.4-1.2-18.1c0-1.5,0.1-2.8,0.2-3.7l0.1-0.3c7.3,1.2,17.5-1.6,17.5-1.6s1.4,13.9,3.4,14.1
				c1.9,0.2,2.6-7.5,2.6-7.5S321.4,58.9,322.5,58.6z"/>
			<path class="st12" d="M322.6,48.5l-0.1,10.1c-1.1,0.3-2.2,1.3-2.2,1.3s-0.6,7.8-2.6,7.5c-1.9-0.2-3.4-14.1-3.4-14.1
				s-10.2,2.9-17.5,1.6v0c-2.3-0.4-4.3-1.2-5.6-2.6c-5.6-5.9-3.7-9.2,4.4-7.4C303.7,46.8,320.3,37.1,322.6,48.5z"/>
			<polygon class="st26" points="316.3,78.7 312.2,90.5 305.9,84.6 305.9,79.4 			"/>
			<path class="st12" d="M296.2,56.8c1.6-0.8,3.3-0.9,5-0.3c1,0.4,0.3,1.9-0.8,1.5c-1.1-0.4-2.3-0.3-3.3,0.2
				C296.2,58.7,295.2,57.3,296.2,56.8z"/>
			
				<ellipse transform="matrix(0.9986 -5.221754e-02 5.221754e-02 0.9986 -2.7514 16.3631)" class="st12" cx="311.8" cy="60.8" rx="1.2" ry="1.8"/>
			<path class="st12" d="M313.9,56.4c-1.7-0.6-3.4-0.6-5,0.2c-1,0.5-0.1,1.9,0.9,1.4c1-0.5,2.2-0.5,3.3-0.1
				C314.2,58.3,314.9,56.8,313.9,56.4z"/>
			<path class="st26" d="M302.1,66.5c0.5-2.6,1.9-5.2,2.8-7.7c0.2-0.5,0.9-0.1,0.8,0.4c-0.6,1.6-1.1,3.1-1.7,4.7
				c-0.2,0.5-0.7,1.4-0.7,2c-0.2,2,0.7,1.8,1.7,2.3c0.5,0.2,0.1,1-0.4,0.8C303.3,68.3,301.7,68.3,302.1,66.5z"/>
			<path class="st12" d="M301.1,61.1c-0.8-0.6-1.7-1.1-2.7-1.2c-0.6-0.1-0.9,0.9-0.3,1c0.5,0.1,1,0.2,1.5,0.4
				c-0.5,0.2-1.1,0.3-1.6,0.5c-0.6,0.2-0.4,1.2,0.3,1c0.9-0.3,1.8-0.6,2.6-0.9C301.2,61.8,301.4,61.3,301.1,61.1z"/>
			<ellipse class="st27" cx="305.2" cy="74.1" rx="2.2" ry="3.2"/>
		</g>
	</g>
	<g>
		<linearGradient id="SVGID_21_" gradientUnits="userSpaceOnUse" x1="406.5014" y1="451.8889" x2="407.58" y2="377.4619">
			<stop  offset="0" style="stop-color:#8AEBD6"/>
			<stop  offset="0.4615" style="stop-color:#89E9D7"/>
			<stop  offset="0.6276" style="stop-color:#84E2DA"/>
			<stop  offset="0.7461" style="stop-color:#7DD7DE"/>
			<stop  offset="0.8419" style="stop-color:#72C6E5"/>
			<stop  offset="0.9229" style="stop-color:#64B0EE"/>
			<stop  offset="0.9944" style="stop-color:#5395F9"/>
			<stop  offset="1" style="stop-color:#5193FA"/>
		</linearGradient>
		<path class="st28" d="M611.8,373.5H210.5c0,0-21.6,14.3,10.5,16.8c32.1,2.4,82.2,4.7,80.9,15.6c-1.2,10.9-30.2,8.8-30.2,28
			c0,19.3,133.7,14.8,133.7,14.8s75.5,1,86.3-11.8c10.8-12.8-30.4-24.4-23-29.5c7.5-5,61.8,10.1,69.9-2.2c8.1-12.2-1.6-20,13.3-21.6
			S609.2,388,611.8,373.5z"/>
		<linearGradient id="SVGID_22_" gradientUnits="userSpaceOnUse" x1="581.4157" y1="447.1124" x2="581.4157" y2="381.5843">
			<stop  offset="0" style="stop-color:#8AEBD6"/>
			<stop  offset="0.4615" style="stop-color:#89E9D7"/>
			<stop  offset="0.6276" style="stop-color:#84E2DA"/>
			<stop  offset="0.7461" style="stop-color:#7DD7DE"/>
			<stop  offset="0.8419" style="stop-color:#72C6E5"/>
			<stop  offset="0.9229" style="stop-color:#64B0EE"/>
			<stop  offset="0.9944" style="stop-color:#5395F9"/>
			<stop  offset="1" style="stop-color:#5193FA"/>
		</linearGradient>
		<ellipse class="st29" cx="581.4" cy="398.8" rx="30.3" ry="8.6"/>
		<linearGradient id="SVGID_23_" gradientUnits="userSpaceOnUse" x1="258.4045" y1="447.1124" x2="258.4045" y2="381.5843">
			<stop  offset="0" style="stop-color:#8AEBD6"/>
			<stop  offset="0.4615" style="stop-color:#89E9D7"/>
			<stop  offset="0.6276" style="stop-color:#84E2DA"/>
			<stop  offset="0.7461" style="stop-color:#7DD7DE"/>
			<stop  offset="0.8419" style="stop-color:#72C6E5"/>
			<stop  offset="0.9229" style="stop-color:#64B0EE"/>
			<stop  offset="0.9944" style="stop-color:#5395F9"/>
			<stop  offset="1" style="stop-color:#5193FA"/>
		</linearGradient>
		<ellipse class="st30" cx="258.4" cy="406.3" rx="26.5" ry="6.6"/>
		<ellipse class="st31" cx="410.4" cy="431.9" rx="30.1" ry="5.8"/>
	</g>
	<g>
		<g>
			
				<linearGradient id="SVGID_24_" gradientUnits="userSpaceOnUse" x1="360.8077" y1="325.3714" x2="466.1603" y2="325.3714" gradientTransform="matrix(0.9797 0.2002 -0.2002 0.9797 63.9508 -75.1856)">
				<stop  offset="0" style="stop-color:#31D1D6"/>
				<stop  offset="0.3733" style="stop-color:#32CED8"/>
				<stop  offset="0.6175" style="stop-color:#36C6DF"/>
				<stop  offset="0.824" style="stop-color:#3CB7EB"/>
				<stop  offset="1" style="stop-color:#45A3FA"/>
			</linearGradient>
			<path class="st32" d="M450.2,296.3c-6.2-14.1-17.8-22.9-34.8-26.4c-1.9-0.4-3.7-0.7-5.4-0.9c-15-1.9-27.4,1.7-37.1,10.7
				C362,289.8,354,307.6,348.8,333c-3.2,15.6-4.1,29-2.7,40.4h37.2c-0.5-6.6,0.8-17.5,3.9-32.6c3.3-16.3,6.6-27.3,9.9-33
				c1.9-3.3,4.1-5.5,6.5-6.6c1.7-0.8,3.6-1,5.6-0.5c4.8,1,7.5,4.9,8.2,11.6c0.7,6.8-0.5,18.1-3.8,33.9c-2.4,11.9-4.9,20.9-7.3,27.2
				H447c1.9-5.8,3.5-12.3,5-19.3c1-4.7,1.7-9.1,2.2-13.4C456.6,322.5,455.2,307.7,450.2,296.3z"/>
			<linearGradient id="SVGID_25_" gradientUnits="userSpaceOnUse" x1="390.7731" y1="380.5892" x2="389.6944" y2="325.5779">
				<stop  offset="0" style="stop-color:#F9E6D9"/>
				<stop  offset="0.121" style="stop-color:#FCF1EA"/>
				<stop  offset="0.2698" style="stop-color:#FEF9F6"/>
				<stop  offset="0.4751" style="stop-color:#FFFEFD"/>
				<stop  offset="1" style="stop-color:#FFFFFF"/>
			</linearGradient>
			<path class="st33" d="M439.8,294.2c-5.5-12.7-15.5-21.1-29.8-25.2c-1.6-0.5-3.3-0.9-5-1.2c-17.5-3.6-31.6-0.3-42.5,9.8
				c-10.9,10.1-18.9,27.9-24.1,53.3c-1.1,5.2-1.9,10.1-2.4,14.8c-1.2,10.3-1.2,19.6,0,27.7h37.1c0-0.2-0.1-0.5-0.1-0.7
				c-0.8-6.5,0.5-17.8,3.8-34c3.3-16.3,6.6-27.3,9.9-33c3.3-5.7,7.3-8.1,12-7.1c2,0.4,3.6,1.3,4.8,2.7c1.9,2,3,5,3.4,8.9
				c0.7,6.8-0.5,18.1-3.8,33.9c-2.7,13.3-5.5,23-8.2,29.3h40.9c2.2-6.4,4.1-13.5,5.7-21.4C446.6,327.6,446,308.3,439.8,294.2z"/>
		</g>
		<g>
			<polygon class="st34" points="468.2,198.9 467.9,199.1 441.8,219.4 425.5,232.1 411.9,269.7 408.2,268.3 422.1,229.6 
				465.7,195.7 			"/>
		</g>
		<linearGradient id="SVGID_26_" gradientUnits="userSpaceOnUse" x1="441.81" y1="245.285" x2="484.5118" y2="245.285">
			<stop  offset="0" style="stop-color:#00A1D2"/>
			<stop  offset="0.5149" style="stop-color:#009FD4"/>
			<stop  offset="0.7003" style="stop-color:#0298D9"/>
			<stop  offset="0.8325" style="stop-color:#058DE3"/>
			<stop  offset="0.9387" style="stop-color:#097CF1"/>
			<stop  offset="1" style="stop-color:#0D6EFD"/>
		</linearGradient>
		<path class="st35" d="M480.7,283.2c-3,3.5-7,6-11,8.3l-0.3-0.5c1.6-2,3.2-4.4,2.8-6.9c-0.3-1.7-1.6-3.1-2.9-4.2
			c-2.2-1.9-4.6-3.6-6.7-5.6c-2.1-2-3.9-4.6-4.2-7.5c-0.4-3.8,1.6-7.4,2.4-11.1c0.3-1.5,0.4-3.1-0.2-4.5c-1.3-3.2-5.4-3.9-8.6-5.2
			c-2.9-1.2-5.6-3.3-6.4-6.3c-1.2-4.3,1.9-8.8,1.5-13.3c-0.3-3.1-2.5-5.9-5.4-7.1l26.1-20.3c4.4,3.8,8.3,8.9,8.3,14.7
			c0,3.7-1.5,7.2-2.5,10.7c-0.4,1.4-0.8,2.9-0.5,4.3c0.4,2.2,2.2,3.9,3.8,5.5c3.4,3.2,6.8,7.2,6.7,11.8c-0.1,5.2-4.5,9.9-3.8,15.1
			c0.5,3.3,3,6,4.1,9.1C485.4,274.8,483.7,279.7,480.7,283.2z"/>
	</g>
</g>
<g id="DESIGNED_BY_FREEPIK">
</g>
</svg>
