<?xml version="1.0" encoding="utf-8"?>
<!-- Generator: Adobe Illustrator 23.0.0, SVG Export Plug-In . SVG Version: 6.00 Build 0)  -->
<svg version="1.1" id="Layer_1" xmlns="http://www.w3.org/2000/svg" xmlns:xlink="http://www.w3.org/1999/xlink" x="0px" y="0px"
	 viewBox="0 0 1042.6 1293.6" style="enable-background:new 0 0 1042.6 1293.6;" xml:space="preserve">
<style type="text/css">
	.st0{fill:#017EFE;}
	.st1{fill:#B3DFFF;}
	.st2{opacity:0.47;fill:#81B9F7;enable-background:new    ;}
	.st3{fill:url(#SVGID_1_);}
	.st4{fill:url(#SVGID_2_);}
	.st5{fill:url(#SVGID_3_);}
	.st6{fill:#FFFFFF;}
	.st7{fill:url(#SVGID_4_);}
	.st8{fill:url(#SVGID_5_);}
	.st9{opacity:0.4;fill:#FFFFFF;enable-background:new    ;}
	.st10{opacity:0.25;}
	.st11{fill:#CC172D;}
	.st12{fill:url(#SVGID_6_);}
	.st13{fill:url(#SVGID_7_);}
	.st14{fill:url(#SVGID_8_);}
	.st15{fill:url(#SVGID_9_);}
	.st16{fill:url(#SVGID_10_);}
	.st17{fill:url(#SVGID_11_);}
	.st18{fill:url(#SVGID_12_);}
	.st19{fill:url(#SVGID_13_);}
	.st20{fill:url(#SVGID_14_);}
	.st21{fill:url(#SVGID_15_);}
	.st22{fill:url(#SVGID_16_);}
	.st23{fill:url(#SVGID_17_);}
	.st24{fill:url(#SVGID_18_);}
	.st25{fill:#083D6D;}
	.st26{fill:url(#SVGID_19_);}
	.st27{fill:url(#SVGID_20_);}
	.st28{fill:#20496B;}
	.st29{fill:url(#SVGID_21_);}
	.st30{fill:url(#SVGID_22_);}
	.st31{fill:url(#SVGID_23_);}
	.st32{opacity:0.36;fill:#EF9E67;enable-background:new    ;}
	.st33{fill:url(#SVGID_24_);}
	.st34{fill:#FEFEFE;}
	.st35{fill:url(#SVGID_25_);}
	.st36{fill:url(#SVGID_26_);}
	.st37{fill:url(#SVGID_27_);}
	.st38{opacity:0.5;fill:#0590D6;enable-background:new    ;}
	.st39{fill:url(#SVGID_28_);}
	.st40{fill:#114C82;}
	.st41{fill:url(#SVGID_29_);}
	.st42{fill:#013256;}
	.st43{fill:url(#SVGID_30_);}
	.st44{fill:url(#SVGID_31_);}
	.st45{fill:#0590D6;}
	.st46{fill:url(#SVGID_32_);}
	.st47{fill:url(#SVGID_33_);}
	.st48{fill:url(#SVGID_34_);}
	.st49{fill:url(#SVGID_35_);}
	.st50{fill:url(#SVGID_36_);}
	.st51{fill:url(#SVGID_37_);}
	.st52{fill:url(#SVGID_38_);}
	.st53{fill:#86ADA8;}
	.st54{fill:#BCDDCB;}
	.st55{fill:#8EBCA1;}
	.st56{fill:#D6E8DD;}
	.st57{fill:none;stroke:#8EBCA1;stroke-width:0.5;stroke-miterlimit:10;}
	.st58{fill:#F2F5F9;}
	.st59{fill:#3F6D54;}
</style>
<ellipse class="st0" cx="531.4" cy="1209.6" rx="473.8" ry="70.6"/>
<path class="st1" d="M480.5,686.4c-34,18.5-76.6,5.6-94.4-28.7"/>
<path class="st2" d="M462.1,391.5c-10.2,0-18.4,8.2-18.4,18.4c0,10.2,8.2,18.4,18.4,18.4s18.4-8.3,18.4-18.4
	C480.5,399.7,472.2,391.5,462.1,391.5z M462.1,419.6c-5.4,0-9.7-4.4-9.7-9.7c0-5.4,4.4-9.7,9.7-9.7c5.4,0,9.7,4.4,9.7,9.7
	S467.5,419.6,462.1,419.6z"/>
<path class="st2" d="M776.1,208.1c-10.2,0-18.4,8.2-18.4,18.4s8.2,18.4,18.4,18.4s18.4-8.2,18.4-18.4S786.2,208.1,776.1,208.1z
	 M776.1,236.2c-5.4,0-9.7-4.4-9.7-9.7c0-5.4,4.4-9.7,9.7-9.7c5.4,0,9.7,4.4,9.7,9.7C785.8,231.9,781.4,236.2,776.1,236.2z"/>
<path class="st2" d="M339.7,111c-8.3,0-15.1,6.8-15.1,15.1s6.8,15.1,15.1,15.1c8.3,0,15.1-6.8,15.1-15.1
	C354.8,117.7,348,111,339.7,111z M339.7,134c-4.4,0-8-3.6-8-8c0-4.4,3.6-8,8-8s8,3.6,8,8C347.7,130.5,344.1,134,339.7,134z"/>
<path class="st2" d="M858.1,800c-7.3,0-13.2,5.9-13.2,13.2s5.9,13.2,13.2,13.2s13.2-5.9,13.2-13.2S865.4,800,858.1,800z
	 M858.1,820.2c-3.8,0-7-3.1-7-7s3.1-7,7-7c3.8,0,7,3.1,7,7S862,820.2,858.1,820.2z"/>
<path class="st2" d="M152.9,260.8c-16.4,0-29.6,13.3-29.6,29.6c0,16.4,13.3,29.6,29.6,29.6s29.6-13.3,29.6-29.6
	C182.6,274.1,169.3,260.8,152.9,260.8z M152.9,306.1c-8.7,0-15.7-7-15.7-15.7s7-15.7,15.7-15.7s15.7,7,15.7,15.7
	C168.6,299.1,161.6,306.1,152.9,306.1z"/>
<path class="st2" d="M841.7,1133.3c-16.4,0-29.6,13.3-29.6,29.6c0,16.4,13.3,29.6,29.6,29.6c16.4,0,29.6-13.3,29.6-29.6
	C871.3,1146.6,858.1,1133.3,841.7,1133.3z M841.7,1178.6c-8.7,0-15.7-7-15.7-15.7s7-15.7,15.7-15.7s15.7,7,15.7,15.7
	S850.4,1178.6,841.7,1178.6z"/>
<path class="st2" d="M168.6,702.2c-12.3,0-22.2,10-22.2,22.2c0,12.3,10,22.2,22.2,22.2c12.3,0,22.2-10,22.2-22.2
	C190.8,712.1,180.8,702.2,168.6,702.2z M168.6,736.2c-6.5,0-11.8-5.3-11.8-11.8s5.3-11.8,11.8-11.8s11.8,5.3,11.8,11.8
	C180.3,730.9,175.1,736.2,168.6,736.2z"/>
<linearGradient id="SVGID_1_" gradientUnits="userSpaceOnUse" x1="480.48" y1="701.4965" x2="891.28" y2="701.4965" gradientTransform="matrix(1 0 0 -1 0 1292.3464)">
	<stop  offset="0" style="stop-color:#FF3C4A"/>
	<stop  offset="1" style="stop-color:#FF9400"/>
</linearGradient>
<polygon class="st3" points="504.8,726.1 829.2,549.3 858,602.1 891.3,488.9 778.1,455.6 806.9,508.5 480.5,686.4 "/>
<linearGradient id="SVGID_2_" gradientUnits="userSpaceOnUse" x1="590.28" y1="1088.5465" x2="713.48" y2="1088.5465" gradientTransform="matrix(1 0 0 -1 0 1292.3464)">
	<stop  offset="0" style="stop-color:#15559B"/>
	<stop  offset="1" style="stop-color:#0F67B7"/>
</linearGradient>
<circle class="st4" cx="651.9" cy="203.8" r="61.6"/>
<linearGradient id="SVGID_3_" gradientUnits="userSpaceOnUse" x1="791.1471" y1="981.0877" x2="623.5699" y2="1148.6647" gradientTransform="matrix(1 0 0 -1 0 1292.3464)">
	<stop  offset="0" style="stop-color:#FF3C4A"/>
	<stop  offset="1" style="stop-color:#FF9400"/>
</linearGradient>
<path class="st5" d="M697.5,161c0-26.2-22-47.2-48.6-45.5c-22.5,1.4-40.8,19.5-42.5,42c-1.3,17.2,7,32.6,20,41.4
	c4.2,2.8,6.8,7.5,6.8,12.6v17.3h37.3v-17.3c0-5,2.5-9.7,6.7-12.5C689.4,190.7,697.5,176.8,697.5,161z"/>
<rect x="625.8" y="222.6" class="st6" width="52.2" height="7.2"/>
<path class="st6" d="M655.5,240.3h-7.3c-6,0-10.9-4.9-10.9-10.9l0,0h29l0,0C666.4,235.4,661.5,240.3,655.5,240.3z"/>
<path class="st6" d="M668.2,149c-5.6,0-10.1,4.5-10.1,10.1v6.4h-12.5v-6.4c0-5.6-4.6-10.1-10.1-10.1s-10.1,4.5-10.1,10.1
	s4.6,10.1,10.1,10.1h6.4v53.5h3.8v-53.5h12.5v53.5h3.7v-53.5h6.4c5.6,0,10.1-4.5,10.1-10.1C678.4,153.5,673.8,149,668.2,149z
	 M641.9,165.5h-6.4c-3.5,0-6.4-2.9-6.4-6.4s2.9-6.4,6.4-6.4s6.4,2.9,6.4,6.4V165.5z M668.2,165.5h-6.4v-6.4c0-3.5,2.9-6.4,6.4-6.4
	s6.4,2.9,6.4,6.4C674.6,162.6,671.8,165.5,668.2,165.5z"/>
<linearGradient id="SVGID_4_" gradientUnits="userSpaceOnUse" x1="281.48" y1="938.8464" x2="404.68" y2="938.8464" gradientTransform="matrix(1 0 0 -1 0 1292.3464)">
	<stop  offset="0" style="stop-color:#15559B"/>
	<stop  offset="1" style="stop-color:#0F67B7"/>
</linearGradient>
<circle class="st7" cx="343.1" cy="353.5" r="61.6"/>
<linearGradient id="SVGID_5_" gradientUnits="userSpaceOnUse" x1="399.0675" y1="933.4465" x2="282.5095" y2="933.4465" gradientTransform="matrix(1 0 0 -1 0 1292.3464)">
	<stop  offset="0" style="stop-color:#FF3C4A"/>
	<stop  offset="1" style="stop-color:#FF9400"/>
</linearGradient>
<path class="st8" d="M393.3,347.8h-95.6c-1.2,0-2.2,1-2.2,2.2v17.8c0,1.2,1,2.2,2.2,2.2h95.6c1.2,0,2.2-1,2.2-2.2V350
	C395.5,348.8,394.5,347.8,393.3,347.8z"/>
<path class="st9" d="M303.2,364.6v-11.3c0-3,2.4-5.4,5.4-5.4H301c-3,0-5.4,2.4-5.4,5.4v11.3c0,3,2.4,5.4,5.4,5.4h7.6
	C305.6,370,303.2,367.6,303.2,364.6z"/>
<g class="st10">
	<path class="st11" d="M302.9,351.7L302.9,351.7c-1.1,0-2.1,0.9-2.1,2.1v11.6c0,1.1,0.9,2.1,2.1,2.1l0,0c1.1,0,2.1-0.9,2.1-2.1
		v-11.6C305,352.7,304.1,351.7,302.9,351.7z"/>
	<path class="st11" d="M314.5,351.7L314.5,351.7c-1.1,0-2.1,0.9-2.1,2.1v11.6c0,1.1,0.9,2.1,2.1,2.1l0,0c1.1,0,2.1-0.9,2.1-2.1
		v-11.6C316.6,352.7,315.6,351.7,314.5,351.7z"/>
	<path class="st11" d="M326.1,351.7L326.1,351.7c-1.1,0-2.1,0.9-2.1,2.1v11.6c0,1.1,0.9,2.1,2.1,2.1l0,0c1.1,0,2.1-0.9,2.1-2.1
		v-11.6C328.1,352.7,327.2,351.7,326.1,351.7z"/>
	<path class="st11" d="M337.7,351.7L337.7,351.7c-1.1,0-2.1,0.9-2.1,2.1v11.6c0,1.1,0.9,2.1,2.1,2.1l0,0c1.1,0,2.1-0.9,2.1-2.1
		v-11.6C339.7,352.7,338.8,351.7,337.7,351.7z"/>
	<path class="st11" d="M349.2,351.7L349.2,351.7c-1.1,0-2.1,0.9-2.1,2.1v11.6c0,1.1,0.9,2.1,2.1,2.1l0,0c1.1,0,2.1-0.9,2.1-2.1
		v-11.6C351.3,352.7,350.4,351.7,349.2,351.7z"/>
	<path class="st11" d="M360.8,351.7L360.8,351.7c-1.1,0-2.1,0.9-2.1,2.1v11.6c0,1.1,0.9,2.1,2.1,2.1l0,0c1.1,0,2.1-0.9,2.1-2.1
		v-11.6C362.9,352.7,361.9,351.7,360.8,351.7z"/>
	<path class="st11" d="M372.4,351.7L372.4,351.7c-1.1,0-2.1,0.9-2.1,2.1v11.6c0,1.1,0.9,2.1,2.1,2.1l0,0c1.1,0,2.1-0.9,2.1-2.1
		v-11.6C374.4,352.7,373.5,351.7,372.4,351.7z"/>
	<path class="st11" d="M384,351.7L384,351.7c-1.1,0-2.1,0.9-2.1,2.1v11.6c0,1.1,0.9,2.1,2.1,2.1l0,0c1.1,0,2.1-0.9,2.1-2.1v-11.6
		C386,352.7,385.1,351.7,384,351.7z"/>
</g>
<linearGradient id="SVGID_6_" gradientUnits="userSpaceOnUse" x1="398.3403" y1="942.2862" x2="329.5816" y2="1011.0449" gradientTransform="matrix(1 0 0 -1 0 1292.3464)">
	<stop  offset="0" style="stop-color:#FF3C4A"/>
	<stop  offset="1" style="stop-color:#FF9400"/>
</linearGradient>
<circle class="st12" cx="344.7" cy="296.4" r="44.5"/>
<linearGradient id="SVGID_7_" gradientUnits="userSpaceOnUse" x1="314.2634" y1="1026.363" x2="371.3542" y2="969.2723" gradientTransform="matrix(1 0 0 -1 0 1292.3464)">
	<stop  offset="0" style="stop-color:#FF3C4A"/>
	<stop  offset="1" style="stop-color:#FF9400"/>
</linearGradient>
<circle class="st13" cx="344.7" cy="296.4" r="33.9"/>
<g>
	<path class="st6" d="M342.8,279.3v-2.7h4.7v2.7c4.1,0.8,6.1,4,6.1,8.9v1.1h-5.4v-1.5c0-2.6-1-3.6-2.9-3.6c-1.8,0-2.9,1-2.9,3.6
		c0,7.5,11.2,7.9,11.2,18.3c0,4.9-2.1,8.1-6.2,9v2.7h-4.7v-2.7c-4.1-0.8-6.2-4-6.2-9v-2.5h5.4v2.9c0,2.6,1.1,3.5,3,3.5
		c1.8,0,3-0.9,3-3.5c0-7.5-11.2-7.9-11.2-18.3C336.7,283.3,338.7,280.2,342.8,279.3z"/>
</g>
<linearGradient id="SVGID_8_" gradientUnits="userSpaceOnUse" x1="417.4099" y1="566.3165" x2="126.7538" y2="856.9726" gradientTransform="matrix(1 0 0 -1 0 1292.3464)">
	<stop  offset="0" style="stop-color:#FF3C4A"/>
	<stop  offset="1" style="stop-color:#FF9400"/>
</linearGradient>
<path class="st14" d="M328.2,576.3v-18.9l-24.8-7.1c-0.5-1.2-0.9-2.4-1.5-3.6l12.5-22.6L301,510.7l-22.6,12.5
	c-1.2-0.5-2.4-1-3.6-1.5l-7.1-24.8h-18.9l-7.1,24.8c-1.2,0.5-2.4,0.9-3.6,1.5l-22.6-12.5l-13.4,13.4l12.5,22.6
	c-0.5,1.2-1,2.4-1.5,3.6l-24.8,7.1v18.9l24.8,7.1c0.5,1.2,0.9,2.4,1.5,3.6l-12.5,22.6l13.4,13.4l22.6-12.5c1.2,0.5,2.4,1,3.6,1.5
	l7.1,24.8h18.9l7.1-24.8c1.2-0.5,2.4-0.9,3.6-1.5L301,623l13.4-13.4L301.9,587c0.5-1.2,1-2.4,1.5-3.6L328.2,576.3z M286.7,566.9
	c0,15.7-12.8,28.5-28.5,28.5s-28.5-12.8-28.5-28.5s12.8-28.5,28.5-28.5C273.9,538.4,286.7,551.1,286.7,566.9z M272.4,566.9
	c0,7.8-6.4,14.2-14.2,14.2c-7.8,0-14.2-6.4-14.2-14.2s6.4-14.2,14.2-14.2C266,552.7,272.4,559,272.4,566.9z"/>
<linearGradient id="SVGID_9_" gradientUnits="userSpaceOnUse" x1="373.5196" y1="560.7068" x2="82.863" y2="851.3633" gradientTransform="matrix(1 0 0 -1 0 1292.3464)">
	<stop  offset="0" style="stop-color:#FF3C4A"/>
	<stop  offset="1" style="stop-color:#FF9400"/>
</linearGradient>
<path class="st15" d="M377.8,692.9v-13.5l-17.6-5.1c-0.3-0.9-0.7-1.7-1.1-2.6l8.9-16l-9.5-9.5l-16,8.9c-0.8-0.4-1.7-0.7-2.6-1.1
	l-5.1-17.6h-13.5l-5.1,17.6c-0.9,0.3-1.7,0.7-2.6,1.1l-16-8.9l-9.5,9.5l8.9,16c-0.4,0.8-0.7,1.7-1.1,2.6l-17.6,5.1v13.5l17.6,5.1
	c0.3,0.9,0.7,1.7,1.1,2.6l-8.9,16l9.5,9.5l16-8.9c0.8,0.4,1.7,0.7,2.6,1.1l5.1,17.6h13.5l5.1-17.6c0.9-0.3,1.7-0.7,2.6-1.1l16,8.9
	l9.5-9.5l-8.9-16c0.4-0.8,0.7-1.7,1.1-2.6L377.8,692.9z M338.5,686.2c0,5.7-4.7,10.4-10.4,10.4s-10.4-4.7-10.4-10.4
	s4.7-10.4,10.4-10.4S338.5,680.4,338.5,686.2z"/>
<linearGradient id="SVGID_10_" gradientUnits="userSpaceOnUse" x1="143.8136" y1="275.7801" x2="351.1506" y2="483.117" gradientTransform="matrix(1 0 0 -1 0 1292.3464)">
	<stop  offset="0" style="stop-color:#15559B"/>
	<stop  offset="1" style="stop-color:#0F67B7"/>
</linearGradient>
<polygon class="st16" points="287.2,812.2 311.7,812.2 311.7,909.7 287.2,909.7 "/>
<linearGradient id="SVGID_11_" gradientUnits="userSpaceOnUse" x1="3058.6021" y1="306.5735" x2="2812.2952" y2="552.8805" gradientTransform="matrix(-0.4875 0 0 -1 1780.1479 1292.3464)">
	<stop  offset="0" style="stop-color:#FF3C4A"/>
	<stop  offset="1" style="stop-color:#FF9400"/>
</linearGradient>
<polygon class="st17" points="342.6,792.1 367.1,792.1 367.1,909.7 342.6,909.7 "/>
<linearGradient id="SVGID_12_" gradientUnits="userSpaceOnUse" x1="201.0637" y1="218.5302" x2="408.4009" y2="425.8674" gradientTransform="matrix(1 0 0 -1 0 1292.3464)">
	<stop  offset="0" style="stop-color:#15559B"/>
	<stop  offset="1" style="stop-color:#0F67B7"/>
</linearGradient>
<polygon class="st18" points="392,831.6 416.5,831.6 416.5,909.7 392,909.7 "/>
<linearGradient id="SVGID_13_" gradientUnits="userSpaceOnUse" x1="128.5382" y1="291.0547" x2="335.8761" y2="498.3925" gradientTransform="matrix(1 0 0 -1 0 1292.3464)">
	<stop  offset="0" style="stop-color:#15559B"/>
	<stop  offset="1" style="stop-color:#0F67B7"/>
</linearGradient>
<polygon class="st19" points="239.8,846 264.2,846 264.2,909.7 239.8,909.7 "/>
<linearGradient id="SVGID_14_" gradientUnits="userSpaceOnUse" x1="112.2883" y1="307.3047" x2="319.6258" y2="514.6423" gradientTransform="matrix(1 0 0 -1 0 1292.3464)">
	<stop  offset="0" style="stop-color:#15559B"/>
	<stop  offset="1" style="stop-color:#0F67B7"/>
</linearGradient>
<polygon class="st20" points="192.7,875.1 217.2,875.1 217.2,909.7 192.7,909.7 "/>
<linearGradient id="SVGID_15_" gradientUnits="userSpaceOnUse" x1="700.58" y1="921.7465" x2="823.78" y2="921.7465" gradientTransform="matrix(1 0 0 -1 0 1292.3464)">
	<stop  offset="0" style="stop-color:#15559B"/>
	<stop  offset="1" style="stop-color:#0F67B7"/>
</linearGradient>
<circle class="st21" cx="762.2" cy="370.6" r="61.6"/>
<ellipse transform="matrix(0.9727 -0.232 0.232 0.9727 -58.0677 186.1008)" class="st6" cx="762.2" cy="339.9" rx="57.1" ry="57.1"/>
<linearGradient id="SVGID_16_" gradientUnits="userSpaceOnUse" x1="817.4634" y1="897.163" x2="699.1105" y2="1015.516" gradientTransform="matrix(1 0 0 -1 0 1292.3464)">
	<stop  offset="0" style="stop-color:#FF3C4A"/>
	<stop  offset="1" style="stop-color:#FF9400"/>
</linearGradient>
<path class="st22" d="M762.2,282.8c-31.5,0-57.1,25.6-57.1,57.1s25.6,57.1,57.1,57.1s57.1-25.6,57.1-57.1S793.7,282.8,762.2,282.8z
	 M762.2,385.4c-25.1,0-45.5-20.4-45.5-45.5s20.4-45.5,45.5-45.5s45.5,20.4,45.5,45.5S787.3,385.4,762.2,385.4z"/>
<linearGradient id="SVGID_17_" gradientUnits="userSpaceOnUse" x1="817.473" y1="897.1723" x2="699.1198" y2="1015.5253" gradientTransform="matrix(1 0 0 -1 0 1292.3464)">
	<stop  offset="0" style="stop-color:#FF3C4A"/>
	<stop  offset="1" style="stop-color:#FF9400"/>
</linearGradient>
<path class="st23" d="M762.2,304c-19.8,0-35.9,16.1-35.9,35.9s16.1,35.9,35.9,35.9s35.9-16.1,35.9-35.9C798.1,320,782,304,762.2,304
	z M762.2,362.8c-12.7,0-22.9-10.3-22.9-22.9c0-12.7,10.3-22.9,22.9-22.9c12.7,0,22.9,10.3,22.9,22.9
	C785.1,352.5,774.8,362.8,762.2,362.8z"/>
<linearGradient id="SVGID_18_" gradientUnits="userSpaceOnUse" x1="817.4635" y1="897.163" x2="699.1102" y2="1015.5162" gradientTransform="matrix(1 0 0 -1 0 1292.3464)">
	<stop  offset="0" style="stop-color:#FF3C4A"/>
	<stop  offset="1" style="stop-color:#FF9400"/>
</linearGradient>
<circle class="st24" cx="762.2" cy="339.9" r="13.4"/>
<path class="st25" d="M483.5,1219.7c4.8-4.4,9.9-9,9.9-9l7.7,13.3h31.4v-50.2c0,0-48.6-16.7-51-8.5c-2.5,8.2-28.3,32.4-42.8,33.2
	c-9.2,0.5-17.8,9.7-21.5,17.7c-1.7,3.7,1,7.8,5,7.8h50.2C476.4,1224,480.4,1222.4,483.5,1219.7z"/>
<path class="st25" d="M641.6,1219.7c-4.8-4.4-9.9-9-9.9-9L624,1224h-31.5v-50.2c0,0,48.6-16.7,51-8.5c2.5,8.2,28.3,32.4,42.8,33.2
	c9.2,0.5,17.8,9.7,21.5,17.7c1.7,3.7-1,7.8-5,7.8h-50.2C648.6,1224,644.6,1222.4,641.6,1219.7z"/>
<linearGradient id="SVGID_19_" gradientUnits="userSpaceOnUse" x1="683.1389" y1="219.3875" x2="340.234" y2="562.2925" gradientTransform="matrix(1 0 0 -1 0 1292.3464)">
	<stop  offset="0" style="stop-color:#083D6C"/>
	<stop  offset="0.1536" style="stop-color:#083D6D"/>
	<stop  offset="1" style="stop-color:#053456"/>
</linearGradient>
<path class="st26" d="M479.4,725.5l-9.5,452.5h61.3l33.7-398.9c0.3-2,3.2-2,3.5,0l23.5,398.9h61.3l0.8-452.5H479.4z"/>
<linearGradient id="SVGID_20_" gradientUnits="userSpaceOnUse" x1="645.0486" y1="614.5779" x2="488.059" y2="771.5676" gradientTransform="matrix(1 0 0 -1 0 1292.3464)">
	<stop  offset="0" style="stop-color:#15559B"/>
	<stop  offset="1" style="stop-color:#0F67B7"/>
</linearGradient>
<polygon class="st27" points="523.2,726 611.9,726 611.9,474.5 588.1,450.9 565.5,472 542.7,450.9 522.2,490.1 "/>
<path class="st28" d="M607.9,397.5c0,0,25.7-53.1-5.3-63.8c0,0-0.3-21.1-24.1-18.8c-17.2,1.6-50.7-11.3-66.5,7.5
	c-15.7,18.8-8.6,37,3.3,42.8c0,0-0.7,15.7,7.1,26.2L607.9,397.5z"/>
<linearGradient id="SVGID_21_" gradientUnits="userSpaceOnUse" x1="551.0498" y1="865.3266" x2="598.0254" y2="818.3511" gradientTransform="matrix(1 0 0 -1 0 1292.3464)">
	<stop  offset="0" style="stop-color:#F7C097"/>
	<stop  offset="1" style="stop-color:#F9D9C2"/>
</linearGradient>
<path class="st29" d="M588.2,431.6v19.7L565.5,472l-22.8-20.8v-19.7c5.3,4.9,12.6,8.4,22.8,8.3C575.6,439.9,583,436.5,588.2,431.6z"
	/>
<linearGradient id="SVGID_22_" gradientUnits="userSpaceOnUse" x1="586.106" y1="901.2465" x2="611.7059" y2="901.2465" gradientTransform="matrix(1 0 0 -1 0 1292.3464)">
	<stop  offset="0" style="stop-color:#F7C097"/>
	<stop  offset="1" style="stop-color:#F9D9C2"/>
</linearGradient>
<path class="st30" d="M611.7,391.1c0-6.8-5.7-12.2-12.8-12.2s-12.8,5.5-12.8,12.2c0,6.8,5.7,12.2,12.8,12.2
	C606,403.3,611.7,397.8,611.7,391.1z"/>
<linearGradient id="SVGID_23_" gradientUnits="userSpaceOnUse" x1="519.18" y1="901.2465" x2="544.78" y2="901.2465" gradientTransform="matrix(1 0 0 -1 0 1292.3464)">
	<stop  offset="0" style="stop-color:#F7C097"/>
	<stop  offset="1" style="stop-color:#F9D9C2"/>
</linearGradient>
<path class="st31" d="M544.8,391.1c0-6.8-5.7-12.2-12.8-12.2s-12.8,5.5-12.8,12.2c0,6.8,5.7,12.2,12.8,12.2
	C539.1,403.3,544.8,397.8,544.8,391.1z"/>
<path class="st32" d="M542.7,431.6v5.5c5.8,3.9,13.2,8.9,22.8,8.9c9.5,0.1,17-4.9,22.8-8.9v-5.5c-5.3,4.9-12.6,8.4-22.8,8.3
	C555.3,439.9,548,436.5,542.7,431.6z"/>
<linearGradient id="SVGID_24_" gradientUnits="userSpaceOnUse" x1="609.0222" y1="852.9358" x2="525.4017" y2="936.5562" gradientTransform="matrix(1 0 0 -1 0 1292.3464)">
	<stop  offset="0" style="stop-color:#F7C097"/>
	<stop  offset="1" style="stop-color:#F9D9C2"/>
</linearGradient>
<path class="st33" d="M601.7,375.7v23.9c0,0-1.7,40.6-36.3,40.3c-34.6,0.3-36.3-40.3-36.3-40.3v-32.1c0,0,37.1,4.7,55.2-11.5
	C584.4,356,592.2,372.7,601.7,375.7z"/>
<rect x="339.2" y="455.3" transform="matrix(0.9647 -0.2632 0.2632 0.9647 -108.8679 110.2451)" class="st34" width="35.7" height="12.4"/>
<linearGradient id="SVGID_25_" gradientUnits="userSpaceOnUse" x1="575.6197" y1="452.6204" x2="450.4534" y2="799.6732" gradientTransform="matrix(1 0 0 -1 0 1292.3464)">
	<stop  offset="0" style="stop-color:#009EFF"/>
	<stop  offset="0.9994" style="stop-color:#58C0F4"/>
</linearGradient>
<path class="st35" d="M542.7,742.5V450.9l-73.1,15.6c-8.6,1.8-15.6,8.1-18.3,16.5l-28.1,74L376,462.2l-36.5,10.4
	c0,0,45.3,167.6,76.6,165.1c32.3-2.6,57.6-54.3,57.6-54.3l-12.3,159L542.7,742.5L542.7,742.5z"/>
<linearGradient id="SVGID_26_" gradientUnits="userSpaceOnUse" x1="709.0038" y1="501.2571" x2="584.4468" y2="846.6203" gradientTransform="matrix(1 0 0 -1 0 1292.3464)">
	<stop  offset="0" style="stop-color:#009EFF"/>
	<stop  offset="0.9994" style="stop-color:#58C0F4"/>
</linearGradient>
<path class="st36" d="M669.6,674.9l2.8,66.9l-84.4,0.7V450.9l73.1,15.6c0,0,40.8,9.8,57.8,65.5l19.3,103.3
	c1.1,7.3-4.6,13.8-11.9,13.8l-58.4-2L669.6,674.9z"/>
<linearGradient id="SVGID_27_" gradientUnits="userSpaceOnUse" x1="376.8018" y1="843.2072" x2="329.2909" y2="890.718" gradientTransform="matrix(1 0 0 -1 0 1292.3464)">
	<stop  offset="0" style="stop-color:#F7C097"/>
	<stop  offset="1" style="stop-color:#F9D9C2"/>
</linearGradient>
<path class="st37" d="M371.5,451.1c0,0,7.4-32.5,1.3-30.1s-7.7,4.9-7.7,4.9l-6.7-41.4c-0.4-2.4-2.5-4.1-4.9-3.9l0,0
	c-2.6,0.1-4.5,2.3-4.5,4.8l2.2,34.8c0.1,2.1-1.3,4-3.4,4.4l-4,0.8c-6.3,1.3-10.2,7.5-8.8,13.8l4.6,20.2L371.5,451.1z"/>
<polygon class="st38" points="611.8,456 640.9,529.4 620.2,531.7 629.4,539.8 588.1,742.5 "/>
<linearGradient id="SVGID_28_" gradientUnits="userSpaceOnUse" x1="3247.5173" y1="869.1046" x2="3264.5022" y2="531.921" gradientTransform="matrix(-1 0 0 -1 3860.2195 1292.3464)">
	<stop  offset="0" style="stop-color:#CAEBFC"/>
	<stop  offset="1" style="stop-color:#6DC8F5"/>
</linearGradient>
<polygon class="st39" points="611.8,456 630.8,525.5 609.1,529.2 620.4,540.1 588.1,742.5 588.1,450.9 "/>
<polygon class="st40" points="565.5,472.1 542.7,489.3 542.7,450.9 "/>
<polygon class="st40" points="588.1,450.9 588.1,490 565.5,472.1 "/>
<path class="st38" d="M605.3,631.6c0,0,43.4,25.9,44.8,33.5c0.7,3.8-1.1,40.8-3,76.9l25.3-0.2l-2.8-66.9l-1.6-27.7L619.4,634
	L605.3,631.6z"/>
<polygon class="st38" points="519.1,456 492.7,531.3 513.6,531.3 498.3,546.2 542.7,742.5 529.8,493.9 "/>
<linearGradient id="SVGID_29_" gradientUnits="userSpaceOnUse" x1="518.1079" y1="869.1035" x2="535.0928" y2="531.9199" gradientTransform="matrix(1 0 0 -1 0 1292.3464)">
	<stop  offset="0" style="stop-color:#CAEBFC"/>
	<stop  offset="1" style="stop-color:#6DC8F5"/>
</linearGradient>
<polygon class="st41" points="519.1,456 500.1,525.5 521.8,529.2 510.5,540.1 542.7,742.5 542.7,450.9 "/>
<polygon class="st42" points="653.8,741.9 653.1,1178 639.1,1178 633.5,742.1 "/>
<linearGradient id="SVGID_30_" gradientUnits="userSpaceOnUse" x1="787.657" y1="496.6694" x2="496.4821" y2="787.8444" gradientTransform="matrix(1 0 0 -1 0 1292.3464)">
	<stop  offset="0" style="stop-color:#FF3C4A"/>
	<stop  offset="1" style="stop-color:#FF9400"/>
</linearGradient>
<polygon class="st43" points="584.4,656.2 571.9,499.8 582.9,485.7 565.6,472.1 565.5,472.1 547.8,485.3 558.9,499.9 545.9,656.2 
	565.5,678.7 "/>
<linearGradient id="SVGID_31_" gradientUnits="userSpaceOnUse" x1="573.2971" y1="677.2465" x2="619.4222" y2="677.2465" gradientTransform="matrix(1 0 0 -1 0 1292.3464)">
	<stop  offset="0" style="stop-color:#F7C097"/>
	<stop  offset="1" style="stop-color:#F9D9C2"/>
</linearGradient>
<path class="st44" d="M575.6,596.2c0,0-6.1,19.3,1.9,25.5c8,6.1,42,12.3,42,12.3v-23.1L575.6,596.2z"/>
<path class="st45" d="M473.6,583.5l-22.7,33.3C464.8,601.5,473.6,583.5,473.6,583.5z"/>
<path class="st42" d="M555,792.1c0,11.7-31.8,305-40.6,385.9h16.7l33.7-398.9C564.9,779.1,555,778.5,555,792.1z"/>
<g>
	
		<linearGradient id="SVGID_32_" gradientUnits="userSpaceOnUse" x1="564.879" y1="703.0464" x2="594.6334" y2="703.0464" gradientTransform="matrix(1 0 0 -1 0 1292.3464)">
		<stop  offset="0" style="stop-color:#FFFFFF"/>
		<stop  offset="0.1689" style="stop-color:#F7F8FA"/>
		<stop  offset="0.5207" style="stop-color:#EEF0F4"/>
		<stop  offset="1" style="stop-color:#EBEDF2"/>
	</linearGradient>
	<polygon class="st46" points="593.7,603.7 551.3,574.9 630.2,574.9 	"/>
	
		<linearGradient id="SVGID_33_" gradientUnits="userSpaceOnUse" x1="584.8708" y1="695.1888" x2="603.6823" y2="716.5824" gradientTransform="matrix(1 0 0 -1 0 1292.3464)">
		<stop  offset="0" style="stop-color:#FFFFFF"/>
		<stop  offset="1" style="stop-color:#C6CCDB"/>
	</linearGradient>
	<path class="st47" d="M593.7,574.9v28.8l-12.2-8.3c5.3-6.6,7.6-16.5,8.4-20.5H593.7z"/>
	
		<linearGradient id="SVGID_34_" gradientUnits="userSpaceOnUse" x1="564.663" y1="688.8121" x2="575.5444" y2="704.8576" gradientTransform="matrix(1 0 0 -1 0 1292.3464)">
		<stop  offset="0" style="stop-color:#FFFFFF"/>
		<stop  offset="1" style="stop-color:#C6CCDB"/>
	</linearGradient>
	<polygon class="st48" points="551.3,574.9 551.3,580.3 593.1,610 593.7,603.7 	"/>
	
		<linearGradient id="SVGID_35_" gradientUnits="userSpaceOnUse" x1="604.6496" y1="778.9537" x2="733.3815" y2="685.4372" gradientTransform="matrix(1 0 0 -1 0 1292.3464)">
		<stop  offset="0" style="stop-color:#FFFFFF"/>
		<stop  offset="1" style="stop-color:#C6CCDB"/>
	</linearGradient>
	<path class="st49" d="M738.8,507.1H598.7c-2.8,0-5,2.3-5,5v91.6l0,0l0,0l-0.5,6.3l150.7,0.2v-6.5v-12.3v-79.3
		C743.8,509.3,741.6,507.1,738.8,507.1z"/>
</g>
<path class="st6" d="M684.2,555.2c0-7.9-6.4-14.3-14.3-14.3s-14.3,6.4-14.3,14.3s6.4,14.3,14.3,14.3S684.2,563.1,684.2,555.2z"/>
<linearGradient id="SVGID_36_" gradientUnits="userSpaceOnUse" x1="401.48" y1="1088.5465" x2="524.6799" y2="1088.5465" gradientTransform="matrix(1 0 0 -1 0 1292.3464)">
	<stop  offset="0" style="stop-color:#15559B"/>
	<stop  offset="1" style="stop-color:#0F67B7"/>
</linearGradient>
<circle class="st50" cx="463.1" cy="203.8" r="61.6"/>
<linearGradient id="SVGID_37_" gradientUnits="userSpaceOnUse" x1="508.2376" y1="1066.0009" x2="396.2549" y2="1177.9835" gradientTransform="matrix(1 0 0 -1 0 1292.3464)">
	<stop  offset="0" style="stop-color:#FF3C4A"/>
	<stop  offset="1" style="stop-color:#FF9400"/>
</linearGradient>
<path class="st51" d="M515.8,181.2c0,29.1-23.6,52.7-52.7,52.7c-29.1,0-52.7-23.6-52.7-52.7s23.6-52.7,52.7-52.7
	c15.8,0,30,7,39.7,18C510.9,155.8,515.8,167.9,515.8,181.2z"/>
<linearGradient id="SVGID_38_" gradientUnits="userSpaceOnUse" x1="388.7237" y1="1003.6205" x2="462.8891" y2="1122.6755" gradientTransform="matrix(1 0 0 -1 0 1292.3464)">
	<stop  offset="0" style="stop-color:#FF3C4A"/>
	<stop  offset="1" style="stop-color:#FF9400"/>
</linearGradient>
<path class="st52" d="M502.8,146.5l-39.7,39.7v-57.7C478.9,128.5,493.1,135.5,502.8,146.5z"/>
<path class="st6" d="M515.8,181.2c0,29.1-23.6,52.7-52.7,52.7v-47.7l39.7-39.7C510.9,155.8,515.8,167.9,515.8,181.2z"/>
<g>
	<g>
		<g id="XMLID_31_">
			<path class="st53" d="M734.4,936.3c-6-2-13-2.6-18.8-0.1c-3.2,1.3-5.9,3.5-8.7,5.5c-5.1,3.5-11.8,6.4-17.8,4.3
				c-5.5-2-8.2-8.1-6.7-13.1c1.4-5.1,6.3-9,11.9-10.9c5.5-1.8,11.7-1.8,17.5-1.1"/>
		</g>
		<g id="XMLID_29_">
			<path class="st54" d="M765.6,989.4c-30.6,0.4-31.5-41-44.1-57.2c-5.8-7.4-13.5-12-23.4-11.4c4.3-2.9,40.5-5.9,48.2-1.8
				c8.7,4.5,13.2,10,17.3,18.1C768.1,946.2,785.1,980.2,765.6,989.4"/>
		</g>
		<g id="XMLID_28_">
			<g>
				<path class="st55" d="M707,919.4c9.3-0.5,18.4,1.4,26.3,6.4c7.4,4.7,13.2,11.5,17.6,19.1c10.6,18.3,14.1,40.3,17.2,60.9
					c2,12.7,3.5,25.5,5.9,38.2c0,0.2,0.4,0.1,0.3-0.1c-4-23.8-6.2-48.1-12.4-71.5c-4.5-17-11.7-35.2-26.7-45.7
					c-8.3-5.8-18.3-8.1-28.3-7.5C706.9,919.2,706.9,919.4,707,919.4L707,919.4z"/>
			</g>
		</g>
		<g>
			<path class="st56" d="M779.4,957.1c-11.4-4.3-17.7-16.7-19.9-28.6c-3.8-21.6-6.7-43.6-12.5-64.8c-6.3-22.7-17.3-42.1-29.3-62.3
				c-5.3-8.9-10.6-21-3.5-28.5c2.8-3,7-4.2,11.1-4.6c14.3-1.2,27.8,8.1,35.7,19.9c8,11.9,11.4,26.2,14.7,40.1
				c2.3,9.4,4.5,18.9,6.8,28.3C790.4,889.6,798.8,936.7,779.4,957.1"/>
		</g>
		<g>
			<path class="st53" d="M848.9,888c7.4-4.6,16.6-5.7,25.2-4.6c8.7,1.1,16.9,4.4,24.8,7.9c3.4,1.5,6.9,3.1,10.6,3.5
				c3.7,0.4,7.8-0.7,10.1-3.7c2.6-3.5,1.9-8.7-0.6-12.2c-2.6-3.5-6.6-5.7-10.7-7.2c-10.3-3.9-21.5-4.6-32.4-4.8"/>
		</g>
		<g>
			<g>
				<path class="st55" d="M879.4,873.2c13.3-1.8,25.8,6,30.2,18.7c0.1,0.1,0.3,0.1,0.2-0.1c-4.1-13-17.1-20.8-30.5-18.8
					C879.2,873,879.3,873.3,879.4,873.2L879.4,873.2z"/>
			</g>
		</g>
		<path class="st57" d="M716.8,770.8c18.2,11.1,33.1,40.1,42.4,65c7.4,20,12.6,40.7,15.8,61.9c6.7,45.2,9.8,111.1,8.1,156.8"/>
		<g>
			<path class="st56" d="M814.9,946.7c17.1-6.7,17.8-31.9,32.3-50.7c12-15.5,28.2-24.5,56.8-26.2c-12.4-4.3-25.4-7.5-38.5-7.7
				c-13.1-0.2-26.6,2.9-37.4,10.4C812.6,883.3,788.3,933,814.9,946.7"/>
		</g>
		<path class="st57" d="M888.4,865.1c-19.4-1.5-38.7,6.6-52.5,20.2c-21.2,20.9-20.9,53.1-22.9,80.6c-2.6,35.8-4.8,71.7-6.8,107.5"/>
		<g id="XMLID_30_">
			<path class="st54" d="M806.9,907.5c-15.2-7.4-13.7-28.4-12.9-41.5c1.8-31.7,8.9-69.6,27.7-96.6c14.5-20.8,36.1-32.5,61.5-24.4
				c8.4,2.7,22.1,12.9,16.7,23.3c-3.6,6.9-18.9,11.5-25.2,17.1c-8.1,7.2-14.5,16.1-19.7,25.5c-10.7,19.2-16.5,40.7-22.2,61.8
				C828.4,888.7,824.4,905,806.9,907.5"/>
		</g>
		<g id="XMLID_27_">
			<path class="st53" d="M881.6,944.3c5.6-1.6,15.5-2.3,21.3-1.1c2.6,1.4,7.4,4.3,10.8,9.7c3.8,6.2,4.3,23.9-7.5,20.9
				c-4.9-1.3-7.2-6.8-10.2-10.9c-3.7-5.2-9.4-8.9-15.7-10.1c-6.3-1.2-13,0.1-18.3,3.5"/>
		</g>
		<g id="XMLID_26_">
			<g>
				<path class="st55" d="M908.2,966.2c-0.4-9.9-6.8-16.6-14.2-22.3c-3.9-3-7.2-5.2-12.2-5.6c-5.1-0.4-10.3,0.3-15.3,1.1
					c-0.1,0-0.1,0.2,0,0.2c4.4-0.2,8.7-1,13-0.9c2.3,0,4.7,0.2,6.9,1c2.4,0.8,4.4,2.4,6.4,3.9c7.6,5.8,14.6,12.5,15.1,22.7
					C907.9,966.4,908.2,966.4,908.2,966.2L908.2,966.2z"/>
			</g>
		</g>
		<g id="XMLID_25_">
			<path class="st54" d="M906.8,945.5c-13.9-2.6-32,4.4-41.9,14.8c-4.6,4.9-9.1,11.2-15.7,11.8c-6.8,0.6-15.5,1.2-15.7-13.1
				c-0.2-10.9,6.4-13.7,12.2-17.5c5.8-3.8,12.8-5.2,19.6-5.7C873.3,935.2,894.5,932.4,906.8,945.5"/>
		</g>
		<g id="XMLID_24_">
			<g>
				<path class="st55" d="M887.3,937.4c-22.5,0.1-41.2,15.3-50.6,35c-8,16.7-10.6,35.8-12.6,53.9c-2,18.6-3.1,37.4-3.2,56
					c0,0.2,0.3,0.2,0.3,0c1.1-28,1.7-56.4,7.6-83.9c3.2-14.9,8.1-29.4,18.2-41.2c10.3-12,24.4-19.5,40.3-19.7
					C887.4,937.6,887.4,937.4,887.3,937.4L887.3,937.4z"/>
			</g>
		</g>
		<g id="XMLID_8_">
			<g>
				<path class="st55" d="M865.3,757.1c-15.3,8.2-25.7,24.8-33.4,39.9c-8.2,16.1-13.6,33.5-17.5,51.1c-4.2,19-6.8,38.5-9,57.8
					c-2.4,20.9-4,41.9-4.8,63c-0.9,23.9-1,47.8,0.4,71.7c0,0.1,0.2,0.1,0.2,0c-1.6-41.2-0.8-82.4,3.4-123.5
					c2-20.1,4.6-40.3,8.4-60.2c3.4-17.7,8.2-35.2,15.4-51.7c4.1-9.2,8.9-18,14.7-26.3C849,770.4,856,762.2,865.3,757.1
					C865.4,757.1,865.3,757.1,865.3,757.1L865.3,757.1z"/>
			</g>
		</g>
		<path id="XMLID_2_" class="st58" d="M865.5,1035.4v32.2c0,71.3-26.6,117.1-26.6,117.1h-82.4c0,0-26.6-45.9-26.6-117.1v-32.2H865.5
			z"/>
	</g>
	<g>
		<g id="XMLID_588_">
			<path class="st53" d="M120.3,1096.1c-2.6,2.3-5.3,4.7-6.9,7.8c-1.7,3.1-2.1,7.1-0.2,10c0.7,1,1.6,1.9,2.6,2.6
				c3.1,2.4,7.1,3.7,11,3.1c3.9-0.5,7.6-3,9.1-6.6c0.9-2.1,1.1-4.5,1.7-6.7c1.8-6.6,8.2-12.1,15.1-11.9"/>
		</g>
		<g id="XMLID_481_">
			<path class="st54" d="M177.2,1118.9c-5.6,4.8-15.5,4.5-21.6,0.7c-8.4-5.2-12.9-14.8-22.2-19.1c-3.5-1.6-7.4-2.4-11.1-1.3
				c-3.7,1.1-6.7,3.9-10.2,5.8c7-15.9,25.9-22.5,33.3-22.5c13.8,0.1,27.2,9.3,32.8,22.6C180.1,1109.7,180.8,1115.8,177.2,1118.9z"/>
		</g>
		<g id="XMLID_9_">
			<path class="st53" d="M242.5,1063.6c5.2-1.9,11-2.5,16-0.1c2.8,1.3,5,3.4,7.4,5.3c4.3,3.4,10.1,6.2,15.2,4.1
				c4.7-1.9,7-7.8,5.7-12.7c-1.2-4.9-5.4-8.7-10.1-10.5c-4.7-1.8-10-1.8-14.9-1"/>
		</g>
		<g id="XMLID_777_">
			<path class="st54" d="M203.1,1078.3c-10.8-5.3-9.7-20.2-9.2-29.5c0.9-14.8,1.4-29.9,4.9-44.4c4.7-19.6,17.5-38.5,39.3-42.1
				c6.4-1,13.1-1.5,19.3,0.5c6.2,2,11.7,6.8,12.6,12.8c0.2,1.4,0.1,2.9-0.7,4.1c-0.9,1.4-2.7,2.2-4.3,2.9
				c-15.8,7.2-27.9,20.9-32.5,36.7c-3.2,11.2-2.7,23.2-5.7,34.5C223.7,1065.2,215.6,1076.5,203.1,1078.3"/>
		</g>
		<g id="XMLID_708_">
			<path class="st56" d="M215.9,1114.7c17.9,0.3,17.7-16,22.1-21.6c7.7-9.8,8.5-23.3,15.5-33.5c5-7.2,11.5-11.6,20-11
				c-3.7-2.8-34.5-5.6-41.1-1.8c-7.4,4.4-11.3,9.7-14.8,17.4C213.7,1073.1,199.3,1105.8,215.9,1114.7"/>
		</g>
		<g id="XMLID_707_">
			<g>
				<path class="st54" d="M265.9,1047c-41.1-2.8-48.3,53.1-52.4,82.5c-1.7,12.5-3.2,25.1-5,37.7c0,0.2,0.3,0.3,0.3,0.1
					c3.5-21.1,5.1-42.5,9.4-63.4c3.5-17,8.7-36,22.1-47.9c7.1-6.3,16.1-9.2,25.5-8.6C266,1047.3,266,1047,265.9,1047L265.9,1047z"/>
			</g>
		</g>
		<g id="XMLID_710_">
			<path class="st56" d="M179.2,1072.5c-6.8-0.6-12.3-6.3-15.1-12.5c-6.5-14.5-5.3-31.1-14.5-44.6c-4.8-7-11.3-12.6-16.5-19.3
				c-7.3-9.5-10.9-23-5.3-34.1c8.4-16.8,26.3-9.1,37.1,0.6c15,13.5,27.4,33.2,30.8,52.4C198.1,1027.7,201.6,1059.3,179.2,1072.5"/>
		</g>
		<g id="XMLID_300_">
			<g>
				<path class="st54" d="M139.4,967.5c4.9,0.2,9.1,3.6,12.4,6.8c3.7,3.7,6.9,8,9.5,12.6c6.2,10.7,9.1,23.7,11.6,35.7
					c5.6,27.2,7,55.3,8.3,83c0.8,16.2,1.2,32.3,1.4,48.5c0,0.2,0.4,0.2,0.4,0c-0.1-30-1.5-60.1-4.1-90c-1.2-13.6-2.7-27.3-5.4-40.7
					c-1.4-7-3.1-13.9-5.3-20.7c-1.7-5.5-3.7-10.9-6.5-15.9c-2.9-5-6.4-9.7-10.6-13.6c-3.2-3-7.2-5.8-11.7-5.9
					C139.3,967.2,139.3,967.5,139.4,967.5L139.4,967.5z"/>
			</g>
		</g>
		<g id="XMLID_586_">
			<path class="st53" d="M118.7,1036.9c-6.6-0.4-17.9,1-24.1,3.5c-2.6,2-7.3,6.1-9.7,12.4c-2.4,6.3-1.2,14.3,3.7,18.8
				c3.9,3.5,9.3,4.5,14.4,4.2c2.5-0.2,5-0.6,7.2-1.9c5.5-3.3,6.8-10.7,9.9-16.5c4.2-7.8,12.8-13,21.5-12.9"/>
		</g>
		<g id="XMLID_585_">
			<g>
				<path class="st59" d="M98.4,1063c0.2-7.1,1.1-14.3,5.9-19.9c5.7-6.6,14-9.3,22.6-9.2c0.1,0,0.1-0.1,0-0.2
					c-8.3-1.1-17.1,2.6-22.6,8.8c-5,5.7-6,13.1-6.2,20.4C98.1,1063.2,98.4,1063.2,98.4,1063L98.4,1063z"/>
			</g>
		</g>
		<g id="XMLID_584_">
			<path class="st54" d="M94.6,1040.4c12.1-2.3,25,2.7,33.7,11.7c4.1,4.3,8,9.7,13.7,10.3c6,0.5,13.5,1.1,13.7-11.4
				c0.2-9.5-5.6-12-10.6-15.3c-5-3.3-11.1-4.5-17.1-5C121,1030.2,103.9,1030.7,94.6,1040.4"/>
		</g>
		<g id="XMLID_572_">
			<g>
				<path class="st55" d="M108.7,1032.3c19.9,0.2,36.2,13.8,44.2,31.3c6.8,14.8,9.1,31.7,10.7,47.8c1.6,15.7,2.1,31.5,2.7,47.3
					c0,0.2,0.3,0.2,0.3,0c-0.1-14.8-0.9-29.8-2.3-44.6c-1-10.1-2.3-20.2-4.5-30.1c-2.9-13.2-7.6-25.9-16.9-36.1
					c-8.9-9.8-21-15.8-34.3-15.9C108.6,1032.1,108.6,1032.3,108.7,1032.3L108.7,1032.3z"/>
			</g>
		</g>
		<g id="XMLID_660_">
			<g>
				<path class="st55" d="M135.5,1088.6c8.7-1.1,17.5,0,24.5,5.6c5.6,4.5,9.5,10.9,11.9,17.6c5.1,14.5,6.6,30.4,4.2,45.6
					c0,0.2,0.2,0.2,0.2,0.1c1.7-8.7,1.6-17.8,0.4-26.5c-1-7.3-2.6-14.8-5.4-21.6c-2.7-6.4-6.8-12.4-12.6-16.4
					c-6.9-4.8-15.2-5.5-23.2-4.4C135.4,1088.5,135.4,1088.6,135.5,1088.6L135.5,1088.6z"/>
			</g>
		</g>
		<g id="XMLID_466_">
			<g>
				<path class="st55" d="M244.6,971.4c-10.7,5.8-18,17.2-23.5,27.8c-5.8,11.4-9.8,23.7-12.6,36.1c-3,13.6-4.9,27.4-6.5,41.2
					c-1.7,14.9-2.9,29.9-3.5,44.9c-0.7,17.1-0.7,34.4,0.2,51.5c0,0.1,0.2,0.1,0.2,0c-1-29.3-0.5-58.5,2.4-87.7
					c2.7-26.9,6-54.9,17-79.8C224,992.8,232.1,978.4,244.6,971.4C244.7,971.4,244.6,971.4,244.6,971.4L244.6,971.4z"/>
			</g>
		</g>
		<path id="XMLID_7_" class="st58" d="M146.7,1150.7v14.4c0,57.1,20,73.4,20,73.4h44.1c0,0,20-16.3,20-73.4v-14.4H146.7z"/>
	</g>
</g>
</svg>
