<?xml version="1.0" encoding="utf-8"?>
<!-- Generator: Adobe Illustrator 23.0.0, SVG Export Plug-In . SVG Version: 6.00 Build 0)  -->
<svg version="1.1" id="Layer_1" xmlns="http://www.w3.org/2000/svg" xmlns:xlink="http://www.w3.org/1999/xlink" x="0px" y="0px"
	 viewBox="0 0 767 926.6" style="enable-background:new 0 0 767 926.6;" xml:space="preserve">
<style type="text/css">
	.st0{fill:#00B8AD;}
	.st1{fill:#003359;}
	.st2{fill:#FFB412;}
	.st3{fill:#0087EB;}
	.st4{fill:#ECECEC;}
	.st5{fill:#F0F0F0;}
	.st6{fill:#E7E7E7;}
	.st7{fill:#FAFAFA;}
	.st8{fill:#F5F5F5;}
	.st9{fill:#E1E1E1;}
	.st10{fill:#007CFF;}
	.st11{fill:#FFFFFF;}
	.st12{opacity:0.2;clip-path:url(#XMLID_2_);fill:#FFFFFF;}
	.st13{opacity:0.2;}
	.st14{opacity:0.8;fill:#FFFFFF;}
	.st15{fill:#1A2E35;}
	.st16{opacity:0.1;}
	.st17{fill:#FCB373;}
	.st18{opacity:0.3;enable-background:new    ;}
	.st19{opacity:0.4;}
	.st20{opacity:0.2;enable-background:new    ;}
	.st21{fill:#D54C38;}
	.st22{opacity:0.5;fill:#FFFFFF;}
	.st23{opacity:0.1;fill:#FFFFFF;}
	.st24{fill:#903C38;}
	.st25{fill:#263237;}
	.st26{fill:#FD5652;}
	.st27{fill:#E27B62;}
	.st28{opacity:0.9;fill:#FFFFFF;}
	.st29{opacity:0.1;fill:#FFFFFF;enable-background:new    ;}
	.st30{opacity:0.2;fill:#FFFFFF;}
	.st31{fill:#BA221F;}
	.st32{fill:#FF8B7B;}
	.st33{opacity:0.1;enable-background:new    ;}
	.st34{fill:#FF5551;}
</style>
<g>
	<g>
		<g>
			<path class="st0" d="M467.7,390.6h-1.1l-0.2-1c-0.5-3.5-0.9-6.5-1.3-9.2c-1.8-12.2-2.6-17.3,1.2-23.2c3.9-6.1,9.2-9.9,14.4-13.6
				c5.5-3.9,11.1-7.9,15-14.7c3.7-6.4,3.5-13.6-0.5-18.6c-4.8-6-13.8-7.7-24.1-4.5c-6.1,1.9-10.1,3.9-13,5.4
				c-8.6,4.4-9.2,3.4-19.6-12.8c-1.1-1.7-2.3-3.5-3.6-5.6l-0.6-0.9l0.8-0.7c21.5-18,47.9-23.6,70.5-14.9
				c16.5,6.4,27.7,19.2,29.8,34.3c2.4,17.2-7.2,34.9-27,49.9c-12.9,9.7-12.3,16.3-12,20.7c0.2,2.1,0.4,4.2-1.1,5.8
				C492.9,389.7,486.2,390.6,467.7,390.6z M480.9,301.7c6.8,0,12.6,2.4,16.2,7c4.7,5.8,4.9,14,0.7,21.4c-4.1,7.2-10,11.4-15.7,15.4
				c-5.2,3.7-10.1,7.2-13.8,12.9c-3.3,5.1-2.6,9.6-0.8,21.6c0.4,2.4,0.8,5.1,1.2,8.2c16,0,23-0.8,24.8-2.7c0.7-0.8,0.7-1.9,0.5-3.9
				c-0.4-4.9-1-12.3,12.9-22.9c19.1-14.4,28.4-31.3,26-47.6c-2-14.2-12.6-26.4-28.3-32.4c-21.5-8.3-46.6-3.1-67.2,13.8
				c1.1,1.7,2.1,3.2,3,4.7c5,7.7,7.7,12,9.8,13.4c1.6,1.1,2.9,0.5,6.7-1.4c3-1.5,7.1-3.6,13.4-5.6
				C474.1,302.3,477.6,301.7,480.9,301.7z"/>
		</g>
		<g>
			<path class="st0" d="M479.3,440.5c-9.5,0-19.6-6-19.6-19.1c0-13.1,10.2-19,19.6-19c9.8,0,19.8,6.6,19.8,19
				c0,5.9-2.1,10.9-6.2,14.4C489.2,438.8,484.4,440.5,479.3,440.5z M479.3,404.7c-8.3,0-17.2,5.2-17.2,16.6
				c0,11.5,8.9,16.7,17.2,16.7c8.4,0,17.3-5.2,17.3-16.7C496.6,410,487.6,404.7,479.3,404.7z"/>
		</g>
		<g>
			<g>
				<path class="st0" d="M467.7,395.8h-5.6l-0.8-5.6c-0.4-3.3-0.9-6.2-1.3-8.8l0-0.4c-1.9-12.8-2.9-19.2,1.9-26.8
					c0.4-0.6,0.7-1.1,1.1-1.6l2,1.4c-0.4,0.5-0.7,1-1,1.5c-4.3,6.8-3.4,12.9-1.6,25.1l0,0.4c0.4,2.6,0.8,5.5,1.3,8.8l0.5,3.5h3.5
					c19.9,0,26.5-1,29.7-4.5c1.2-1.3,1.8-2.9,1.9-4.9l2.4,0.1c-0.2,2.6-1,4.7-2.6,6.4C495.4,394.7,488.9,395.8,467.7,395.8z"/>
			</g>
			<g>
				<path class="st0" d="M495.5,320.9l-2.4-0.3c0-0.4,0.1-0.8,0.1-1.2c0-1.7-0.4-3.4-1.3-4.8c-2.1-3.7-6.8-5.6-12.6-5.2l-0.2-2.4
					c6.7-0.5,12.2,1.9,14.8,6.4c1.1,1.8,1.6,3.9,1.6,6C495.6,319.9,495.6,320.4,495.5,320.9z"/>
			</g>
			<g>
				<path class="st0" d="M451.9,318.6c-6.6,0-9.6-4.7-17.8-17.4l-0.1-0.1c-1.1-1.6-2.2-3.5-3.5-5.4l-3.1-4.8l4.4-3.7
					c10.4-8.7,21.7-14.7,33.6-17.8l0.6,2.3c-11.5,3-22.5,8.8-32.6,17.3l-2.7,2.3l1.9,3c1.3,2,2.5,3.8,3.5,5.4l-1,0.8l1-0.7
					c7.9,12.2,10.5,16.3,15.8,16.3c1.9,0,3.6-0.6,5.5-1.6l1,2.2C456.2,317.9,454.2,318.6,451.9,318.6z"/>
			</g>
			<g>
				<path class="st0" d="M527.3,350l-1.9-1.6c8.7-10.3,13.2-21.6,13.2-32.5c0-2.9-0.3-5.8-0.9-8.5l2.3-0.5c0.6,3,1,6,1,9.1
					C541.1,327.4,536.3,339.2,527.3,350z"/>
			</g>
		</g>
		<g>
			<g>
				<path class="st0" d="M479.4,445.7h-0.1c-12.4,0-24.9-8.4-24.9-24.3c0-2.9,0.4-5.7,1.3-8.3l2.3,0.8c-0.8,2.3-1.2,4.9-1.2,7.5
					c0,14.4,11.3,21.9,22.5,21.9L479.4,445.7z M501.7,432.8l-2.1-1.1c1.6-3.1,2.3-6.5,2.3-10.3c0-5-1.3-9.3-3.9-12.9l1.9-1.4
					c2.9,4,4.4,8.9,4.4,14.4C504.2,425.6,503.4,429.4,501.7,432.8z"/>
			</g>
		</g>
	</g>
	<g>
		<g>
			<g>
				<path class="st1" d="M569.8,306.8h-1.1l-0.2-1c-0.3-2.1-0.6-3.9-0.8-5.4c-1.1-7.4-1.6-10.5,0.8-14.1c2.3-3.7,5.6-6,8.7-8.2
					c3.3-2.4,6.5-4.7,8.7-8.5c2.1-3.7,2-7.7-0.2-10.5c-2.7-3.4-7.9-4.3-13.8-2.5c-3.6,1.1-6,2.3-7.7,3.2c-5.5,2.8-6.1,1.8-12.3-7.8
					c-0.6-1-1.4-2.1-2.1-3.3l-0.6-0.9l0.8-0.7c12.9-10.8,28.8-14.2,42.4-8.9c10,3.9,16.7,11.6,18,20.8c1.5,10.4-4.3,21.1-16.2,30.1
					c-7.4,5.6-7.1,9.2-6.9,11.9c0.1,1.3,0.2,2.7-0.8,3.8C585,306.3,581.1,306.8,569.8,306.8z M577.6,253.1c4.2,0,7.8,1.5,10,4.3
					c2.9,3.6,3.1,8.7,0.5,13.2c-2.5,4.4-6,6.9-9.5,9.3c-3.1,2.2-6,4.3-8,7.5c-1.8,2.9-1.4,5.5-0.4,12.5c0.2,1.3,0.4,2.8,0.6,4.4
					c6.4,0,12.8-0.2,14-1.5c0.3-0.3,0.2-0.9,0.2-1.9c-0.2-2.8-0.6-7.6,7.9-14c11.2-8.4,16.6-18.3,15.3-27.8
					c-1.2-8.3-7.3-15.4-16.5-18.8c-12.5-4.8-27-1.9-39.1,7.8c0.6,0.9,1.1,1.7,1.6,2.4c2.9,4.5,4.5,7,5.7,7.8
					c0.7,0.5,1.2,0.3,3.5-0.9c1.8-0.9,4.3-2.1,8-3.3C573.5,253.4,575.6,253.1,577.6,253.1z"/>
			</g>
		</g>
		<g>
			<g>
				<path class="st1" d="M576.7,336.5c-6,0-12.2-4.1-12.2-11.9c0-7.8,6.1-11.8,12.2-11.8c6.1,0,12.2,4.1,12.2,11.8
					S582.7,336.5,576.7,336.5z M576.7,315.3c-4.7,0-9.7,2.9-9.7,9.4c0,6.5,5.1,9.4,9.7,9.4c4.7,0,9.8-2.9,9.8-9.4
					C586.4,318.2,581.4,315.3,576.7,315.3z"/>
			</g>
		</g>
		<g>
			<g>
				<path class="st1" d="M569.8,312.1h-5.6l-0.8-5.6c-0.3-2-0.5-3.7-0.8-5.3c-1.2-7.8-1.9-12.5,1.5-17.8c2.9-4.5,6.7-7.2,10.1-9.7
					l1.2-0.8l1.4,1.9l-1.2,0.8c-3.2,2.3-6.8,4.9-9.4,9c-2.9,4.5-2.3,8.4-1.2,16.1c0.2,1.6,0.5,3.4,0.8,5.4l0.5,3.5h3.5
					c11.3,0,16.3-0.4,18.8-3.2c1.9-2,1.7-4.4,1.5-5.9c-0.2-2.5,0-5,5.4-9.1l1.5,1.9c-4.8,3.7-4.7,5.4-4.5,7c0.2,1.7,0.4,5-2.1,7.8
					C587.4,311.5,582.4,312.1,569.8,312.1z"/>
			</g>
			<g>
				<path class="st1" d="M584.5,266l-2.3-0.6c0.1-0.4,0.2-0.8,0.2-1.2c0-0.6-0.1-1.1-0.4-1.6c-0.2-0.4-0.5-0.7-0.8-0.9l1.4-2
					c0.6,0.4,1.2,1,1.6,1.7c0.5,0.8,0.7,1.7,0.7,2.8C584.7,264.7,584.7,265.3,584.5,266z"/>
			</g>
			<g>
				<path class="st1" d="M560.4,266.2c-5.3,0-7.7-3.6-12.8-11.5l-5.2-8.1l4.4-3.7c10.7-8.9,23.1-13.3,35.6-12.4l-0.2,2.4
					c-11.9-0.8-23.7,3.3-33.9,11.9l-2.7,2.3l4.1,6.3c4.9,7.6,6.7,10.5,10.7,10.5c1.9,0,3.4-0.8,5.2-1.7c1.7-0.9,3.9-1.9,7.2-3
					c1.2-0.4,2.3-0.6,3.5-0.7l0.2,2.4c-0.9,0.1-1.9,0.3-3,0.6c-3.2,1-5.2,2-6.8,2.9C564.8,265.2,562.8,266.2,560.4,266.2z"/>
			</g>
			<g>
				<path class="st1" d="M611.8,277.3l-2.1-1.2c2.6-4.6,3.9-9.3,3.9-14c0-1.9-0.2-3.9-0.7-5.7l2.3-0.6c0.5,2.1,0.7,4.2,0.7,6.3
					C616,267.2,614.6,272.3,611.8,277.3z"/>
			</g>
		</g>
		<g>
			<g>
				<path class="st1" d="M576.7,341.7c-8.6,0-17.4-5.9-17.4-17.1c0-11.2,8.7-17.1,17.4-17.1c8.5,0,17.5,6,17.5,17.1
					c0,3.3-0.8,6.3-2.4,8.9l-2.1-1.3c1.4-2.2,2.1-4.8,2.1-7.7c0-9.5-7.8-14.6-15-14.6c-7.4,0-15,5-15,14.6c0,9.6,7.5,14.7,15,14.7
					V341.7L576.7,341.7z"/>
			</g>
		</g>
	</g>
	<g>
		<g>
			<path class="st2" d="M503.4,243.1h-1.1l-0.2-1c-0.5-3.5-1-6.6-1.4-9.4c-1.9-12.5-2.7-17.7,1.2-23.7c3.9-6.2,9.4-10.1,14.7-13.8
				c5.6-4,11.4-8.1,15.3-15c3.8-6.6,3.6-13.9-0.5-19c-4.9-6.1-14.1-7.9-24.6-4.6c-6.2,1.9-10.3,4-13.3,5.5c-8.7,4.5-9.4,3.5-20-13
				c-1.1-1.7-2.3-3.6-3.7-5.6l-0.6-0.9l0.8-0.7c22-18.4,48.9-24.1,72-15.2c16.9,6.5,28.3,19.6,30.4,35c2.5,17.6-7.3,35.6-27.6,50.9
				c-13.2,9.9-12.6,16.7-12.2,21.2c0.2,2.2,0.4,4.3-1.1,5.9C529.1,242.2,522.3,243.1,503.4,243.1z M516.9,152.4
				c7,0,12.8,2.5,16.5,7.2c4.7,5.9,5,14.3,0.7,21.8c-4.2,7.3-10.2,11.6-16,15.7c-5.3,3.8-10.4,7.4-14,13.2c-3.3,5.2-2.7,9.8-0.8,22
				c0.4,2.5,0.8,5.2,1.2,8.4c16.4,0,23.5-0.8,25.4-2.8c0.8-0.8,0.7-1.9,0.5-4c-0.4-5-1.1-12.6,13.2-23.3
				c19.5-14.7,29-31.9,26.6-48.6c-2-14.6-12.8-26.9-28.9-33.1c-22-8.4-47.6-3.2-68.7,14.1c1.1,1.7,2.1,3.3,3.1,4.8
				c5.1,7.9,7.9,12.2,10,13.7c1.6,1.1,2.9,0.6,6.9-1.5c3.1-1.6,7.2-3.7,13.7-5.7C509.9,153,513.5,152.4,516.9,152.4z"/>
		</g>
		<g>
			<path class="st2" d="M515.2,294.1c-9.7,0-20-6.1-20-19.5c0-13.4,10.4-19.4,20-19.4c10,0,20.2,6.7,20.2,19.4
				C535.3,287.4,525.2,294.1,515.2,294.1z M515.2,257.6c-8.5,0-17.6,5.3-17.6,17c0,11.7,9.1,17.1,17.6,17.1
				c8.5,0,17.7-5.3,17.7-17.1C532.9,262.9,523.7,257.6,515.2,257.6z"/>
		</g>
		<g>
			<g>
				<path class="st2" d="M503.4,248.7h-6l-0.8-5.9c-0.5-3.5-1-6.6-1.4-9.3c-2-13.2-3-19.8,2-27.5c0.1-0.2,0.2-0.4,0.4-0.6l2,1.4
					l-0.4,0.5c-4.5,7-3.5,13.3-1.6,25.9c0.4,2.7,0.9,5.8,1.4,9.3l0.5,3.8h3.8c20.4,0,27.2-1,30.5-4.7c1-1.1,1.6-2.3,1.9-3.9l2.4,0.4
					c-0.4,1.9-1.2,3.6-2.5,5.1C531.8,247.5,524.9,248.7,503.4,248.7z"/>
			</g>
			<g>
				<path class="st2" d="M531.5,172.1l-2.4-0.3c0-0.4,0.1-0.9,0.1-1.3c0-1.7-0.4-3.4-1.3-4.8c-2.2-3.8-7.2-5.8-13.4-5.1l-0.2-2.4
					c7.2-0.8,13,1.6,15.7,6.3c1,1.8,1.6,3.9,1.6,6C531.6,171,531.6,171.6,531.5,172.1z"/>
			</g>
			<g>
				<path class="st2" d="M487.3,169.9c-6.8,0-10-4.9-18.4-17.9c-1.1-1.7-2.3-3.6-3.7-5.6l-3.3-5.1l4.6-3.9
					c10.3-8.6,21.4-14.6,33.2-17.9l0.6,2.3c-11.4,3.1-22.3,9-32.3,17.4l-3,2.5l2.1,3.3c1.4,2.1,2.5,3.9,3.7,5.6
					c8.1,12.6,10.8,16.8,16.3,16.8c1.4,0,2.7-0.3,4.5-1l1,2.2C490.6,169.5,489,169.9,487.3,169.9z"/>
			</g>
			<g>
				<path class="st2" d="M564.1,202.3l-1.8-1.6c9.1-10.7,13.9-22.4,13.9-33.8c0-2.9-0.3-5.9-1-8.8l2.3-0.5c0.7,3.1,1,6.2,1,9.3
					C578.5,178.9,573.5,191.1,564.1,202.3z"/>
			</g>
		</g>
		<g>
			<g>
				<path class="st2" d="M515.3,299.7h-0.1c-12.7,0-25.6-8.6-25.6-25.1c0-3,0.4-5.9,1.3-8.5l2.3,0.8c-0.8,2.4-1.2,5-1.2,7.8
					c0,14.9,11.7,22.7,23.2,22.7L515.3,299.7z M538.3,286.3l-2.1-1.1c1.6-3.1,2.4-6.7,2.4-10.7c0-5.1-1.4-9.6-4.1-13.4l1.9-1.4
					c3,4.1,4.5,9.1,4.5,14.8C540.9,278.9,540,282.9,538.3,286.3z"/>
			</g>
		</g>
	</g>
	<g>
		<g>
			<path class="st3" d="M441.1,227.7H440l-0.2-1c-0.3-1.9-0.5-3.6-0.7-5.1c-1-6.7-1.5-9.7,0.7-13.1c2.2-3.4,5.2-5.6,8.1-7.6
				c3.1-2.2,6-4.3,8.1-7.9c1.9-3.3,1.8-7-0.2-9.6c-2.5-3.1-7.2-4-12.6-2.3c-3.3,1-5.5,2.1-7.1,2.9c-5.2,2.6-5.8,1.7-11.5-7.2
				c-0.6-0.9-1.2-1.9-2-3.1l-0.6-0.9l0.8-0.7c12-10,26.6-13.1,39.3-8.3c9.3,3.6,15.5,10.8,16.7,19.3c1.4,9.7-4,19.6-15.1,27.9
				c-6.8,5.2-6.6,8.5-6.4,10.9c0.1,1.2,0.2,2.5-0.8,3.6C455.2,227.2,451.5,227.7,441.1,227.7z M448.3,177.8c3.9,0,7.2,1.4,9.3,4.1
				c2.7,3.4,2.9,8.1,0.4,12.3c-2.3,4.1-5.6,6.4-8.8,8.6c-2.8,2-5.5,3.9-7.4,6.9c-1.7,2.7-1.3,5.1-0.4,11.5c0.2,1.2,0.4,2.5,0.6,4
				c5.9,0,11.7-0.2,12.8-1.4c0.2-0.3,0.2-0.8,0.1-1.7c-0.2-2.7-0.6-7.1,7.3-13c10.3-7.8,15.4-16.9,14.1-25.6
				c-1.1-7.6-6.8-14.1-15.2-17.4c-11.5-4.4-24.9-1.7-36,7.2c0.5,0.8,1,1.5,1.4,2.1c2.7,4.2,4.2,6.5,5.2,7.2c0.6,0.4,1,0.3,3.1-0.8
				c1.7-0.8,3.9-2,7.5-3.1C444.5,178.1,446.5,177.8,448.3,177.8z"/>
		</g>
		<g>
			<g>
				<path class="st3" d="M441.1,232.8h-5.4l-0.8-5.4c-0.2-1.9-0.5-3.5-0.7-4.9c-1.1-7.3-1.7-11.7,1.4-16.7c2.7-4.3,6.2-6.8,9.4-9
					c1.2-0.8,2.2-1.6,3.2-2.4l1.6,1.9c-1,0.9-2.2,1.7-3.4,2.5c-2.9,2.1-6.3,4.5-8.7,8.4c-2.7,4.3-2.1,7.8-1.1,14.9
					c0.2,1.5,0.5,3.1,0.7,5l0.4,3.3h3.3c10.4,0,15.2-0.4,17.5-3c1.7-1.9,1.6-4.2,1.4-5.6c-0.2-2.4,0-4.6,5.3-8.6
					c0.6-0.5,1.3-1,1.9-1.5l1.6,1.9c-0.6,0.5-1.3,1-2,1.6c-4.6,3.5-4.5,4.9-4.4,6.4c0.1,1.6,0.4,4.7-2.1,7.4
					C457.4,232.2,452.8,232.8,441.1,232.8z"/>
			</g>
			<g>
				<path class="st3" d="M454.5,189.9l-2.3-0.7c0.1-0.4,0.2-0.8,0.2-1.1c0-0.5-0.1-0.9-0.3-1.3l2-1.4c0,0.1,0.1,0.2,0.1,0.2
					c0.4,0.8,0.6,1.6,0.6,2.5C454.8,188.7,454.7,189.3,454.5,189.9z"/>
			</g>
			<g>
				<path class="st3" d="M432.4,190.4c-5.1,0-7.3-3.4-12-10.8l-0.2-0.2c-0.6-0.9-1.2-1.8-1.8-2.8l-3-4.7l4.3-3.5
					c9.1-7.6,19.6-11.7,30.3-11.7c1.9,0,3.9,0.2,5.8,0.4l-0.4,2.4c-1.8-0.3-3.7-0.4-5.5-0.4c-10.1,0-20,3.9-28.7,11.1l-2.6,2.2
					l1.8,2.8c0.7,1,1.3,1.9,1.8,2.8l0.1,0.2c4.9,7.5,6.4,9.7,10,9.7c1.7,0,3.2-0.7,4.9-1.6c1.6-0.8,3.5-1.8,6.7-2.8
					c2.3-0.7,4.5-0.9,6.3-0.6l-0.5,2.4c-1.4-0.3-3.2-0.1-5.1,0.5c-2.9,0.9-4.8,1.9-6.3,2.6C436.5,189.4,434.7,190.4,432.4,190.4z"/>
			</g>
			<g>
				<path class="st3" d="M480.9,199.1l-2.1-1.1c1.9-3.9,2.9-7.8,2.9-11.8c0-1.8-0.2-3.6-0.6-5.4l2.3-0.6c0.4,1.9,0.7,3.9,0.7,5.9
					C484.1,190.5,483,194.9,480.9,199.1z"/>
			</g>
		</g>
		<g>
			<g>
				<path class="st3" d="M447.4,268c-8.2,0-16.4-5.5-16.4-16.1c0-10.5,8.2-16.1,16.4-16.1c8,0,16.4,5.6,16.4,16.1
					c0,5.2-2.2,9.7-6.1,12.7l-1.5-1.9c2.3-1.8,5.2-5.1,5.2-10.7c0-8.9-7.2-13.6-14-13.6c-6.9,0-14,4.7-14,13.6c0,9,7,13.7,14,13.7
					V268L447.4,268z"/>
			</g>
		</g>
		<g>
			<path class="st3" d="M447.4,263c-5.6,0-11.3-3.8-11.3-11.1c0-7.2,5.7-11,11.3-11s11.4,3.8,11.4,11
				C458.8,259.2,453.1,263,447.4,263z M447.4,243.3c-4.3,0-8.9,2.7-8.9,8.6c0,5.9,4.6,8.6,8.9,8.6c4.3,0,9-2.7,9-8.6
				c0-2.7-1-4.9-2.7-6.4C452,244.1,449.8,243.3,447.4,243.3z"/>
		</g>
	</g>
</g>
<g>
	<rect x="633.5" y="837.1" class="st4" width="49.8" height="0.4"/>
	<rect x="492" y="841.1" class="st4" width="13.1" height="0.4"/>
	<rect x="603.2" y="823.1" class="st4" width="28.8" height="0.4"/>
	<rect x="86.2" y="825.6" class="st4" width="64.9" height="0.4"/>
	<rect x="164.5" y="825.6" class="st4" width="9.5" height="0.4"/>
	<rect x="204.9" y="832" class="st4" width="140.7" height="0.4"/>
	<g>
		<path class="st4" d="M365.6,745.9H75.5c-4.7,0-8.6-3.8-8.6-8.6V329.6c0-4.7,3.8-8.6,8.6-8.6h290.1c4.7,0,8.6,3.8,8.6,8.6v407.8
			C374.1,742,370.3,745.9,365.6,745.9z M75.5,321.4c-4.5,0-8.2,3.7-8.2,8.2v407.8c0,4.5,3.7,8.2,8.2,8.2h290.1
			c4.5,0,8.2-3.7,8.2-8.2V329.6c0-4.5-3.7-8.2-8.2-8.2H75.5z"/>
		<g>
			<path class="st4" d="M690.5,745.9H400.4c-4.7,0-8.6-3.8-8.6-8.6V329.6c0-4.7,3.8-8.6,8.6-8.6h290.1c4.7,0,8.6,3.8,8.6,8.6v407.8
				C699.1,742,695.2,745.9,690.5,745.9z M400.4,321.4c-4.5,0-8.2,3.7-8.2,8.2v407.8c0,4.5,3.7,8.2,8.2,8.2h290.1
				c4.5,0,8.2-3.7,8.2-8.2V329.6c0-4.5-3.7-8.2-8.2-8.2H400.4z"/>
		</g>
	</g>
	<rect x="7.4" y="812.9" class="st4" width="751.1" height="0.4"/>
	<g>
		<g>
			<polygon class="st5" points="638.9,577.8 638.9,812.9 590.7,812.9 590.7,608.6 			"/>
			<g>
				<g>
					<polygon class="st6" points="598,650.1 598.4,812.6 610.2,812.6 678.7,812.6 690.5,812.6 691,650.1 					"/>
					<polygon class="st6" points="616,629.4 616,665.7 623.3,665.7 665.8,665.7 673.1,665.7 673.1,629.4 					"/>
					<polygon class="st7" points="615.9,665.7 603.9,665.7 603.9,654.8 615.9,654.8 					"/>
					<polygon class="st7" points="639,665.7 627,665.7 627,654.8 639,654.8 					"/>
					<polygon class="st7" points="662.1,665.7 650.1,665.7 650.1,654.8 662.2,654.8 					"/>
					<polygon class="st5" points="685.3,665.7 673.2,665.7 673.2,654.8 685.3,654.8 					"/>
					<polygon class="st5" points="615.8,685.5 604,685.5 604,674.9 615.8,674.9 					"/>
					<rect x="627.1" y="674.9" class="st5" width="11.8" height="10.6"/>
					<rect x="650.2" y="674.9" class="st7" width="11.8" height="10.6"/>
					<polygon class="st7" points="685,685.5 673.2,685.5 673.3,674.9 685,674.9 					"/>
					<polygon class="st5" points="615.7,704.8 604.2,704.8 604.2,694.4 615.7,694.4 					"/>
					<rect x="627.2" y="694.4" class="st7" width="11.5" height="10.3"/>
					<rect x="650.3" y="694.4" class="st7" width="11.5" height="10.3"/>
					<polygon class="st7" points="639,650.1 626.7,650.1 626.7,639.1 639,639.1 					"/>
					<polygon class="st5" points="662.1,650.1 649.8,650.1 649.8,639.1 662.1,639.1 					"/>
					<polygon class="st5" points="684.8,704.8 673.3,704.8 673.3,694.4 684.8,694.4 					"/>
					<polygon class="st7" points="615.6,723.6 604.4,723.6 604.4,713.5 615.6,713.5 					"/>
					<rect x="627.4" y="713.5" class="st5" width="11.2" height="10.1"/>
					<rect x="650.5" y="713.5" class="st5" width="11.2" height="10.1"/>
					<polygon class="st7" points="684.7,723.6 673.5,723.6 673.5,713.5 684.7,713.5 					"/>
					<polygon class="st5" points="616.1,744.8 603.6,744.8 603.6,733.5 616.1,733.5 					"/>
					<polygon class="st7" points="639.1,744.8 626.6,744.8 626.6,733.5 639.1,733.5 					"/>
					<polygon class="st7" points="662.1,744.8 649.6,744.8 649.6,733.5 662.1,733.5 					"/>
					<polygon class="st5" points="685.1,744.8 672.6,744.8 672.6,733.5 685.1,733.5 					"/>
					<polygon class="st5" points="616.2,762.6 604,762.6 604,751.7 616.2,751.7 					"/>
					<polygon class="st7" points="639.2,762.6 627,762.6 626.9,751.7 639.2,751.7 					"/>
					<polygon class="st5" points="662.2,762.6 649.9,762.6 649.9,751.7 662.2,751.7 					"/>
					<polygon class="st7" points="685.1,762.6 672.9,762.6 672.9,751.7 685.2,751.7 					"/>
					<polygon class="st7" points="616,782.8 604,782.8 604,772.1 615.9,772.1 					"/>
					<polygon class="st7" points="638.9,782.8 627,782.8 626.9,772.1 638.9,772.1 					"/>
					<polygon class="st5" points="661.8,782.8 649.9,782.8 649.9,772.1 661.8,772.1 					"/>
					<polygon class="st5" points="684.7,782.8 672.8,782.8 672.8,772.1 684.8,772.1 					"/>
					<polygon class="st5" points="616,801.1 604.3,801.1 604.3,790.7 615.9,790.7 					"/>
					<polygon class="st7" points="684.7,801.1 673.1,801.1 673.1,790.7 684.7,790.7 					"/>
					<polygon class="st8" points="661.9,790.7 627.1,790.7 627.2,793.3 628.1,793.3 628.2,812.6 631.6,812.6 631.6,793.3 
						657.4,793.3 657.4,812.6 660.9,812.6 660.9,793.3 662,793.3 					"/>
					<polygon class="st6" points="644.7,812.6 631.8,812.6 631.8,793.3 644.7,793.3 					"/>
					<polygon class="st4" points="657.2,812.6 644.4,812.6 644.4,793.3 657.3,793.3 					"/>
				</g>
				<g>
					<g>
						<polygon class="st8" points="416.8,650.1 419.4,812.6 431.2,812.6 499.7,812.6 511.5,812.6 509.8,650.1 						"/>
						<polygon class="st6" points="422.6,654.8 422.9,674.6 423,680 423.1,685.5 435.1,685.5 435,680 435,674.6 434.7,654.8 						
							"/>
						<polygon class="st6" points="445.7,654.8 446,674.6 446.1,680 446.1,685.5 458.2,685.5 458.1,680 458.1,674.6 457.8,654.8 
													"/>
						<polygon class="st6" points="468.8,654.8 469.1,674.6 469.1,680 469.2,685.5 481.3,685.5 481.2,680 481.1,674.6 480.9,654.8 
													"/>
						<polygon class="st6" points="491.9,654.8 492.2,674.6 492.3,683 492.3,685.5 504.4,685.5 504.3,683 504.2,674.6 504,654.8 
													"/>
						<polygon class="st6" points="423.3,694.4 423.6,714.2 423.7,719.6 423.8,725 435.9,725 435.8,719.6 435.7,714.2 435.4,694.4 
													"/>
						<polygon class="st6" points="446.4,694.4 446.6,714.2 446.8,721.8 446.8,725 458.9,725 458.8,721.8 458.7,714.2 458.5,694.4 
													"/>
						<polygon class="st6" points="469.4,694.4 469.7,714.2 469.7,719.6 469.8,725 481.9,725 481.8,719.6 481.8,714.2 481.5,694.4 
													"/>
						<polygon class="st6" points="492.5,694.4 492.7,714.2 492.8,719.6 492.8,725 504.9,725 504.9,719.6 504.8,714.2 504.6,694.4 
													"/>
						<polygon class="st6" points="424,733.5 424.3,753.2 424.4,758.6 424.5,764 436.5,764 436.5,758.6 436.4,753.2 436.1,733.5 
													"/>
						<polygon class="st6" points="447,733.5 447.3,753.2 447.3,758.6 447.4,764 459.5,764 459.4,758.6 459.3,753.2 459.1,733.5 
													"/>
						<polygon class="st6" points="470,733.5 470.2,753.2 470.3,758.6 470.4,764 482.4,764 482.4,758.6 482.3,753.2 482.1,733.5 
													"/>
						<polygon class="st6" points="493,733.5 493.2,753.2 493.3,760.7 493.3,764 505.4,764 505.4,760.7 505.3,753.2 505.1,733.5 
													"/>
						<polygon class="st6" points="499.7,772.1 493.7,772.1 482.5,772.1 470.6,772.1 459.4,772.1 447.5,772.1 424.4,772.1 
							424.5,782.8 447.6,782.8 459.6,782.8 470.7,782.8 482.7,782.8 493.8,782.8 499.8,782.8 505.8,782.8 505.6,772.1 						"/>
						<polygon class="st7" points="482.5,790.7 447.8,790.7 447.7,793.3 448.8,793.3 449.1,812.6 452.5,812.6 452.2,793.3 
							478.1,793.3 478.3,812.6 481.8,812.6 481.5,793.3 482.5,793.3 						"/>
						<polygon class="st6" points="465.6,812.6 452.7,812.6 452.4,793.3 465.3,793.3 						"/>
						<polygon class="st6" points="478.1,812.6 465.3,812.6 465,793.3 477.9,793.3 						"/>
					</g>
				</g>
				<g>
					<polygon class="st6" points="597.5,659.5 598.5,812.6 587.4,812.6 522.9,812.6 511.8,812.6 509.8,659.5 					"/>
					<polygon class="st5" points="566.5,774.8 571.3,774.8 592.5,774.8 592.6,779.7 592.6,784.6 592.7,802.4 581.7,802.4 
						581.6,784.1 570.8,784.1 566.6,784.1 560.4,784.1 560.4,774.8 					"/>
					<polygon class="st5" points="524.6,774.8 528.9,774.8 549,774.8 549.1,784.1 528.3,784.1 528.5,802.4 517.5,802.4 517.3,784.6 
						517.2,777.5 517.1,774.8 					"/>
					<polygon class="st8" points="540,792 569.9,792 569.9,794.6 570.3,794.6 570.4,812.6 567.2,812.6 567,794.6 543,794.6 
						543.1,812.6 539.9,812.6 539.7,794.6 540,794.6 					"/>
					<polygon class="st4" points="555,812.6 567,812.6 566.9,794.6 554.9,794.6 					"/>
					<polygon class="st9" points="543.3,812.6 555.3,812.6 555.1,794.6 543.1,794.6 					"/>
					<polygon class="st5" points="558.8,665.7 592.1,665.7 592.3,694.4 559,694.4 					"/>
					<polygon class="st5" points="515.5,665.7 548.9,665.7 549.2,694.4 515.9,694.4 					"/>
					<polygon class="st5" points="559.7,701.8 591.6,701.8 591.8,729.3 560,729.3 					"/>
					<polygon class="st5" points="516.5,701.8 548.5,701.8 548.7,729.3 516.9,729.3 					"/>
					<polygon class="st5" points="560,739.2 592.1,739.2 592.3,766.7 560.3,766.7 					"/>
					<polygon class="st5" points="517,739.2 549.1,739.2 549.4,766.7 517.3,766.7 					"/>
				</g>
			</g>
		</g>
		<polygon class="st6" points="375.2,590.9 375.2,576.6 390.4,576.6 390.4,536.9 395.3,536.9 395.3,576.6 410.5,576.6 410.5,590.9 
			417.7,590.9 417.7,813.3 368,813.3 368,590.9 		"/>
		<g>
			<path class="st5" d="M75,639.5v174h59.6V652.7l-10.8-13.2H75z M119.5,764.2h10.1v10.1h-10.1V764.2z M119.5,743.9h10.1v10.1h-10.1
				V743.9z M119.5,703.4h10.1v10.1h-10.1V703.4z M119.5,683.1h10.1v10.1h-10.1V683.1z M119.5,662.8h10.1V673h-10.1V662.8z
				 M99.2,743.9h10.1v10.1H99.2V743.9z M99.2,723.7h10.1v10.1H99.2V723.7z M99.2,703.4h10.1v10.1H99.2V703.4z M78.9,764.2h10.1v10.1
				H78.9V764.2z M78.9,723.7h10.1v10.1H78.9V723.7z M78.9,703.4h10.1v10.1H78.9V703.4z M78.9,662.8h10.1V673H78.9V662.8z"/>
		</g>
		<g>
			<rect x="194.1" y="697.5" class="st6" width="6.4" height="38.4"/>
			<polygon class="st5" points="247.5,735.9 222.5,735.9 200.5,735.9 200.5,697.5 201.4,697.5 205.6,697.5 211,697.5 244.6,697.5 
				254.2,697.5 254.2,735.9 			"/>
			<rect x="292.4" y="697.5" class="st5" width="10.1" height="1.8"/>
			<rect x="270.3" y="697.5" class="st5" width="9.9" height="1.8"/>
			<path class="st5" d="M328.2,711.8c-0.8,0-1.7,0-2.5,0c-1,0-1,1.6,0,1.6c0.8,0,1.7,0,2.5,0v7.6c-0.8,0-1.7,0-2.5,0
				c-1,0-1,1.6,0,1.6c0.8,0,1.7,0,2.5,0v13.3h-9.5v-38.4h14.5v3.3C330.3,703.6,328.4,707.5,328.2,711.8z"/>
			<rect x="134.4" y="736.3" class="st6" width="17.3" height="78.1"/>
			<rect x="198.4" y="813.3" class="st5" width="9" height="0.7"/>
			<rect x="283.6" y="813.3" class="st5" width="9" height="0.7"/>
			<rect x="232.5" y="813.3" class="st5" width="9" height="0.7"/>
			<rect x="266.6" y="813.3" class="st5" width="9" height="0.7"/>
			<rect x="249.5" y="813.3" class="st5" width="9" height="0.7"/>
			<rect x="215.4" y="813.3" class="st5" width="9" height="0.7"/>
			<rect x="334.8" y="813.3" class="st5" width="9" height="0.7"/>
			<rect x="317.7" y="813.3" class="st5" width="9" height="0.7"/>
			<rect x="300.7" y="813.3" class="st5" width="9" height="0.7"/>
			<rect x="351.8" y="813.3" class="st5" width="9" height="0.7"/>
			<path class="st4" d="M151.7,735.9V814h38.6v-0.7h-18.2v-58.9h-6.4c-2.1,0-2.1-3.2,0-3.2h6.4v-9.8h192.6v-5.5h-3.1v0.3h-33.3v-0.3
				h-9.5v1.7h-64.5v-1.7H151.7z"/>
			<path class="st6" d="M172.1,751.2v-9.8h9.5v9.8C178.4,751.2,175.2,751.2,172.1,751.2z"/>
			<path class="st6" d="M181.6,813.3h-9.5v-58.9c3.2,0,6.3,0,9.5,0V813.3z"/>
			<path class="st5" d="M181.6,754.4v58.9h8.7v-12.6c0-2.2,1.8-4,4-4c2.2,0,4,1.8,4,4v12.6h9v-12.6c0-2.2,1.8-4,4-4c2.2,0,4,1.8,4,4
				v12.6h9v-12.6c0-2.2,1.8-4,4-4c2.2,0,4,1.8,4,4v12.6h9v-12.6c0-2.2,1.8-4,4-4c2.2,0,4,1.8,4,4v12.6h9v-12.6c0-2.2,1.8-4,4-4
				c2.2,0,4,1.8,4,4v12.6h9v-12.6c0-2.2,1.8-4,4-4c2.2,0,4,1.8,4,4v12.6h9v-12.6c0-2.2,1.8-4,4-4c2.2,0,4,1.8,4,4v12.6h9v-12.6
				c0-2.2,1.8-4,4-4c2.2,0,4,1.8,4,4v12.6h9v-12.6c0-2.2,1.8-4,4-4c2.2,0,4,1.8,4,4v12.6h9v-12.6c0-2.2,1.8-4,4-4c2.2,0,4,1.8,4,4
				v12.6h9v-12.6c0-2.2,1.8-4,4-4c2.2,0,4,1.8,4,4v12.6h8.7v-58.9H181.6z M360.8,783.6c0-2.2,1.8-4,4-4c2.2,0,4,1.8,4,4v5.7h-8.1
				V783.6z M343.7,783.6c0-2.2,1.8-4,4-4c2.2,0,4,1.8,4,4v5.7h-8.1V783.6z M326.7,783.6c0-2.2,1.8-4,4-4c2.2,0,4,1.8,4,4v5.7h-8.1
				V783.6z M309.7,783.6c0-2.2,1.8-4,4-4c2.2,0,4,1.8,4,4v5.7h-8.1V783.6z M292.6,783.6c0-2.2,1.8-4,4-4c2.2,0,4,1.8,4,4v5.7h-8.1
				V783.6z M275.6,783.6c0-2.2,1.8-4,4-4c2.2,0,4,1.8,4,4v5.7h-8.1V783.6z M258.5,783.6c0-2.2,1.8-4,4-4c2.2,0,4,1.8,4,4v5.7h-8.1
				V783.6z M241.5,783.6c0-2.2,1.8-4,4-4c2.2,0,4,1.8,4,4v5.7h-8.1V783.6z M224.4,783.6c0-2.2,1.8-4,4-4c2.2,0,4,1.8,4,4v5.7h-8.1
				V783.6z M207.4,783.6c0-2.2,1.8-4,4-4c2.2,0,4,1.8,4,4v5.7h-8.1V783.6z M190.3,783.6c0-2.2,1.8-4,4-4c2.2,0,4,1.8,4,4v5.7h-8.1
				V783.6z"/>
			<path class="st5" d="M355.5,751.2c-58,0-116,0-174,0v-9.8h1.4h6.1h8h49.8h23h94.9h13v9.8C370.3,751.2,362.9,751.2,355.5,751.2z"
				/>
			<path class="st9" d="M192.7,754.4c-3.7,0-7.4,0-11.1,0c-3.2,0-6.3,0-9.5,0c-2.1,0-4.3,0-6.4,0c-2.1,0-2.1-3.2,0-3.2
				c2.1,0,4.3,0,6.4,0c3.2,0,6.3,0,9.5,0c58,0,116,0,174,0c7.4,0,14.7,0,22.1,0c1.6,0,3.2,0,4.9,0c2.1,0,2.1,3.2,0,3.2
				c-1.6,0-3.2,0-4.9,0C316,754.4,254.3,754.4,192.7,754.4z"/>
			<path class="st5" d="M236.8,607.5c0-1.9,0-3.8,0-5.7c0-1.7,2.6-1.7,2.6,0c0,1.9,0,3.8,0,5.7c-0.4-0.1-0.9-0.1-1.3-0.1
				C237.6,607.4,237.2,607.4,236.8,607.5z"/>
			<path class="st5" d="M227,620.1v14.6c3.4-1.5,7.1-2.4,11.1-2.4c4,0,7.7,0.9,11.1,2.4v-14.6H227z M234.6,624.8
				c0-1.9,1.6-3.5,3.5-3.5c1.9,0,3.5,1.6,3.5,3.5v4.9h-7V624.8z"/>
			<path class="st5" d="M236.8,607.5c0.4-0.1,0.9-0.1,1.3-0.1c0.4,0,0.9,0,1.3,0.1c5.2,0.6,9.3,4.8,9.8,10c-7.4,0-14.8,0-22.1,0
				C227.5,612.2,231.6,608.1,236.8,607.5z"/>
			<path class="st5" d="M211.2,657.9c0.5-10.4,6.8-19.2,15.8-23.2c3.4-1.5,7.2-2.4,11.1-2.4c4,0,7.7,0.9,11.1,2.4
				c3.7,1.7,7,4.2,9.6,7.3l-4.6,15.9C239.9,657.9,225.5,657.9,211.2,657.9z"/>
			<path class="st9" d="M223.3,620.1c-1.7,0-1.7-2.6,0-2.6c1.3,0,2.5,0,3.8,0c7.4,0,14.8,0,22.1,0c1.3,0,2.5,0,3.8,0
				c1.7,0,1.7,2.6,0,2.6c-1.2,0-2.5,0-3.7,0c-7.4,0-14.8,0-22.2,0C225.7,620.1,224.5,620.1,223.3,620.1z"/>
			<path class="st5" d="M211.1,660.5v12.2h43.1v-1.9h-1.9v-4.9c0-1.4,0.8-2.5,1.9-3.1v-2.3H211.1z M240.5,665.9
				c0-1.9,1.6-3.5,3.5-3.5c1.9,0,3.5,1.6,3.5,3.5v4.9h-7V665.9z M228.7,665.9c0-1.9,1.6-3.5,3.5-3.5c1.9,0,3.5,1.6,3.5,3.5v4.9h-7
				V665.9z M216.9,665.9c0-1.9,1.6-3.5,3.5-3.5c1.9,0,3.5,1.6,3.5,3.5v4.9h-7V665.9z"/>
			<path class="st5" d="M211.1,675.3v21.9h5.8v-15.5c0-1.9,1.6-3.5,3.5-3.5c1.9,0,3.5,1.6,3.5,3.5v15.5h4.8v-15.5
				c0-1.9,1.6-3.5,3.5-3.5c1.9,0,3.5,1.6,3.5,3.5v15.5h4.8v-15.5c0-1.9,1.6-3.5,3.5-3.5c1.9,0,3.5,1.6,3.5,3.5v15.5h4.8V684h-0.2
				c-2.1,0-2.1-3.2,0-3.2h0.4c0.3-1,0.9-1.7,1.8-2.2v-3.3H211.1z"/>
			<path class="st5" d="M270.3,659.3v-0.1C270.3,659.2,270.3,659.2,270.3,659.3z"/>
			<path class="st9" d="M254.2,657.9v2.6c-14.4,0-28.7,0-43.1,0c-1.3,0-2.7,0-4,0c-1.7,0-1.7-2.6,0-2.6c1.4,0,2.7,0,4.1,0
				C225.5,657.9,239.9,657.9,254.2,657.9L254.2,657.9z"/>
			<path class="st5" d="M270.3,674.1v-0.1C270.3,674,270.3,674,270.3,674.1z"/>
			<path class="st9" d="M254.2,675.3c-14.4,0-28.7,0-43.1,0c-1.3,0-2.7,0-4,0c-1.7,0-1.7-2.6,0-2.6c1.3,0,2.7,0,4,0
				c14.4,0,28.7,0,43.1,0V675.3z"/>
			<path class="st5" d="M270.3,699.3v38.3h32.2v-38.3h-10.1v-4.6c0-3.4-2.7-6.1-6.1-6.1c-3.4,0-6.1,2.7-6.1,6.1v4.6H270.3z
				 M283.1,695.9c0-1.8,1.4-3.2,3.2-3.2c1.8,0,3.2,1.4,3.2,3.2v10.6h-6.4V695.9z"/>
			<path class="st5" d="M302.6,657.9v22.8h16.1v-22.8l-8.1-27.9L302.6,657.9z M307.2,669.4c0-1.9,1.5-3.4,3.4-3.4
				c1.9,0,3.4,1.5,3.4,3.4v11.3h-6.8V669.4z"/>
			<path class="st5" d="M302.6,684v53.6h16.1V684H302.6z M307.2,721.9c0-1.9,1.5-3.4,3.4-3.4c1.9,0,3.4,1.5,3.4,3.4v11.3h-6.8V721.9
				z M307.2,699.3c0-1.9,1.5-3.4,3.4-3.4c1.9,0,3.4,1.5,3.4,3.4v11.3h-6.8V699.3z"/>
			<path class="st9" d="M300.4,684c-2.1,0-2.1-3.2,0-3.2c0.7,0,1.4,0,2.1,0c5.4,0,10.7,0,16.1,0c0.7,0,1.4,0,2.1,0
				c2.1,0,2.1,3.2,0,3.2c-0.7,0-1.4,0-2.1,0c-5.4,0-10.7,0-16.1,0C301.8,684,301.1,684,300.4,684z"/>
			<path class="st5" d="M254.2,657.9v22.8h16.1v-22.8l-8.1-27.9l-3.5,12L254.2,657.9L254.2,657.9z M258.8,669.4
				c0-1.9,1.5-3.4,3.4-3.4c1.9,0,3.4,1.5,3.4,3.4v11.3h-6.8V669.4z"/>
			<path class="st5" d="M254.2,684v53.6h16.1V684H254.2z M258.8,721.9c0-1.9,1.5-3.4,3.4-3.4c1.9,0,3.4,1.5,3.4,3.4v11.3h-6.8V721.9
				z M258.8,699.3c0-1.9,1.5-3.4,3.4-3.4c1.9,0,3.4,1.5,3.4,3.4v11.3h-6.8V699.3z"/>
			<path class="st9" d="M252.1,684h20.4c2.1,0,2.1-3.2,0-3.2h-20.4C250,680.8,250,684,252.1,684z"/>
			<path class="st5" d="M344.1,680.6c0,0.1,0,0.2,0,0.3c0,1,1.6,1,1.6,0c0-0.1,0-0.2,0-0.3c3.2,0.4,5.7,3,6,6.2c-4.6,0-9.1,0-13.7,0
				C338.3,683.6,340.8,681,344.1,680.6z"/>
			<path class="st5" d="M338,688.4v9c2.1-0.9,4.4-1.5,6.9-1.5c2.5,0,4.8,0.5,6.9,1.5v-9H338z M342.7,691.4c0-1.2,1-2.2,2.2-2.2
				c1.2,0,2.2,1,2.2,2.2v3.1h-4.3V691.4z"/>
			<path class="st5" d="M328.2,711.8c0.2-4.3,2.1-8.3,5-11.1c1.4-1.4,3-2.5,4.8-3.3c2.1-1,4.4-1.5,6.9-1.5c2.5,0,4.8,0.5,6.9,1.5
				c5.5,2.5,9.4,8,9.8,14.4C350.4,711.8,339.3,711.8,328.2,711.8z"/>
			<path class="st9" d="M335.7,688.4c-1,0-1-1.6,0-1.6c0.8,0,1.5,0,2.3,0c4.6,0,9.1,0,13.7,0c0.8,0,1.5,0,2.3,0c1,0,1,1.6,0,1.6
				c-0.8,0-1.5,0-2.3,0c-4.6,0-9.2,0-13.8,0C337.2,688.4,336.5,688.4,335.7,688.4z"/>
			<path class="st5" d="M328.2,713.5v7.6h33.3v-7.6H328.2z M353.6,716.8c0-1.2,1-2.2,2.2-2.2c1.2,0,2.2,1,2.2,2.2v3h-4.3V716.8z
				 M346.3,716.8c0-1.2,1-2.2,2.2-2.2c1.2,0,2.2,1,2.2,2.2v3h-4.3V716.8z M339.1,716.8c0-1.2,1-2.2,2.2-2.2c1.2,0,2.2,1,2.2,2.2v3
				h-4.3V716.8z M331.8,716.8c0-1.2,1-2.2,2.2-2.2c1.2,0,2.2,1,2.2,2.2v3h-4.3V716.8z"/>
			<path class="st5" d="M328.2,736.2v-0.3v-13.3c11.1,0,22.2,0,33.3,0v13.3v0.3H328.2z"/>
			<path class="st5" d="M344.1,681c0-0.1,0-0.2,0-0.3c0-1.8,0-3.7,0-5.5c0-1,1.6-1,1.6,0c0,1.8,0,3.7,0,5.5c0,0.1,0,0.2,0,0.3
				C345.7,682,344.1,682,344.1,681z"/>
			<path class="st9" d="M328.2,713.5c-0.8,0-1.7,0-2.5,0c-1,0-1-1.6,0-1.6c0.8,0,1.7,0,2.5,0c11.1,0,22.2,0,33.3,0
				c0.8,0,1.7,0,2.5,0c1,0,1,1.6,0,1.6c-0.8,0-1.7,0-2.5,0C350.4,713.5,339.3,713.5,328.2,713.5z"/>
			<path class="st9" d="M328.2,722.6c-0.8,0-1.7,0-2.5,0c-1,0-1-1.6,0-1.6c0.8,0,1.7,0,2.5,0c11.1,0,22.2,0,33.3,0
				c0.8,0,1.7,0,2.5,0c1,0,1,1.6,0,1.6c-0.8,0-1.7,0-2.5,0C350.4,722.6,339.3,722.6,328.2,722.6z"/>
		</g>
		<g>
			<path class="st4" d="M148.1,812.8l18.3-0.2l-1.3-65.5l-0.3-15.2l0-0.9l-0.2-13.5l0-0.9l-0.2-12.8l0-0.8l-0.2-12.3l0-0.8
				l-0.2-11.7l0-0.8l-0.2-11.2l0-0.7l-0.2-10.7l0-0.7l-0.2-9.3c-0.4,0.3-0.9,0.6-1.5,0.9l0.1,6.7l-6.3-5.7c-0.8,0-1.6-0.1-2.4-0.3
				l7.6,7l-9.5,0l0.1-7.5c-0.5-0.2-1-0.4-1.5-0.7l-0.1,8.8l0,0.7l-0.1,10.7l0,0.7l-0.1,11.2l0,0.7l-0.1,11.7l0,0.8l-0.1,12.3l0,0.8
				l-0.1,12.9l0,0.9l-0.1,13.5l0,0.9l-0.1,15.2L148.1,812.8z M150.9,732.3h10.9l-11,11.9L150.9,732.3z M151.1,719.6l10.8,11.4
				l-10.9,0L151.1,719.6z M151,703.5l10.4,0l-10.5,10.7L151,703.5z M151.1,691.7l10.3,10.3l-10.4,0L151.1,691.7z M151.2,678.1l9.9,0
				l-10,9.7L151.2,678.1z M151.3,667.2l9.8,9.4l-9.9,0L151.3,667.2z M160.9,654.9l-9.5,8.9l0.1-8.9L160.9,654.9z M162.3,665.9
				l-9.7,0l9.5-8.9L162.3,665.9z M162.4,676.7l-9.8-9.4l9.7,0L162.4,676.7z M162.6,690.2l-10.1,0l10-9.8L162.6,690.2z M162.8,701.9
				l-10.3-10.3l10.1,0L162.8,701.9z M163,716.6l-10.6,0l10.5-10.8L163,716.6z M163.1,729.4L152.3,718l10.7,0L163.1,729.4z
				 M163.2,745H152l11-11.9L163.2,745z"/>
			<g>
				<g>
					<path class="st4" d="M150,645.7c0.4,0.3,0.9,0.5,1.5,0.7l0-1.1l1.8,1.6c0.7,0.1,1.5,0.3,2.4,0.3l-4.4-4l-0.5,0.5l-0.7,0
						L150,645.7z M161.8,643.8l0,2.5c0.6-0.2,1.1-0.5,1.5-0.9l0-1.6H161.8z"/>
				</g>
				<path class="st4" d="M147.9,642.5c-0.1,0.8,0.2,1.5,0.8,2.2l0.5,0.5c0.2,0.2,0.5,0.4,0.9,0.6c0.4,0.3,0.9,0.5,1.5,0.7
					c0.6,0.2,1.1,0.4,1.8,0.5c0.7,0.1,1.5,0.3,2.4,0.3c0.1,0,0.2,0,0.3,0l0.8,0c2,0,3.7-0.4,5.1-1c0.6-0.2,1.1-0.5,1.5-0.9
					c0,0,0.1-0.1,0.1-0.1l0.5-0.5c0.6-0.6,0.8-1.4,0.7-2.1l-1.1-6.1l2.9,0l-10-5.1l-10.4,4.7l2.9,0L147.9,642.5z"/>
			</g>
		</g>
	</g>
	<g>
		<g>
			<path class="st9" d="M552.9,403.8c0.2-2.8-2.2-4.4-5.7-4.4c-3.7,0-7,1.9-9.1,5l-9.8-5.5c4.2-6.2,11.3-10.2,21.4-10.2
				c10.7,0,17.9,4.6,17.1,13c-0.9,10.8-12.4,12.4-13,18.8h-12.3C542.4,411.3,552.5,409,552.9,403.8z M538.9,431.4
				c0.4-4.1,3.8-7.1,8.4-7.1c4.6,0,7.6,3,7.3,7.1c-0.4,4-3.9,7.3-8.5,7.3C541.5,438.7,538.6,435.4,538.9,431.4z"/>
		</g>
		<g>
			<path class="st9" d="M241.3,368.4c0.2-2-1.5-3.1-4.1-3.1c-2.7,0-5,1.3-6.5,3.5l-7-3.9c3-4.4,8-7.3,15.2-7.3
				c7.6,0,12.7,3.2,12.2,9.2c-0.7,7.7-8.8,8.8-9.2,13.3h-8.8C233.8,373.7,241,372.1,241.3,368.4z M231.4,388c0.3-2.9,2.7-5.1,6-5.1
				c3.3,0,5.4,2.2,5.2,5.1c-0.2,2.9-2.8,5.2-6.1,5.2S231.1,390.8,231.4,388z"/>
		</g>
		<g>
			<g>
				<g id="freepik--speech-bubbles--inject-120_2_">
					<path class="st6" d="M354.6,377.5l61.9-0.4c1.8-0.1,3.3,1.3,3.4,3.1c0,0.2,0,0.4,0,0.5l-3,28.4c-0.3,2.1-2,3.7-4.1,3.7
						l-35.4,0.3c-6.6,8.2-16.3,9.5-16.3,9.5s5.9-5.4,7.3-9.5l-17.5,0c-1.8,0.1-3.3-1.3-3.4-3.1c0-0.2,0-0.4,0-0.5l3-28.4
						C350.7,379.1,352.5,377.6,354.6,377.5z"/>
				</g>
			</g>
			<path class="st7" d="M372.7,396c0,1.7-1.4,3-3,3c-1.7,0-3-1.4-3-3c0-1.7,1.4-3,3-3C371.4,393,372.7,394.4,372.7,396z"/>
			<path class="st7" d="M386.7,396c0,1.7-1.4,3-3,3c-1.7,0-3-1.4-3-3c0-1.7,1.4-3,3-3C385.3,393,386.7,394.4,386.7,396z"/>
			<path class="st7" d="M400.6,396c0,1.7-1.4,3-3,3c-1.7,0-3-1.4-3-3c0-1.7,1.4-3,3-3C399.2,393,400.6,394.4,400.6,396z"/>
		</g>
	</g>
	<ellipse id="_x3C_Path_x3E__359_" class="st10" cx="383" cy="862.9" rx="375.6" ry="21.9"/>
	<g>
		<g>
			<path class="st10" d="M150.8,558.9v51.4h90v51.1h-90v80.2H93.2V507.8h159.9v51.1H150.8z"/>
			<path class="st10" d="M383.3,697.2h-86.2l-16,45.4h-58.8l90-233.8h56.8l90.3,233.8h-60L383.3,697.2z M366.4,648.4l-26.2-74.8
				L314,648.4H366.4z"/>
			<path class="st10" d="M672.4,766.6c-13.7,19-33.8,29.4-57.1,29.4c-33.2,0-55.1-13-89.1-53.8c-53.6-10.4-90.9-57.8-90.9-119.6
				c0-70.1,48.1-121.6,113.3-121.6s113.3,51.4,113.3,121.6c0,53.1-27.7,95.5-69.3,112.9c8.2,10,15.1,13.4,23.9,13.4
				c11.1,0,21.8-5.7,30.9-16.4L672.4,766.6z M548.6,689.5c30.9,0,55-26.4,55-66.8c0-40.4-24.2-66.8-55-66.8c-30.9,0-55,26.4-55,66.8
				C493.6,663.1,517.7,689.5,548.6,689.5z"/>
		</g>
		<path class="st11" d="M536.5,509.1c-0.4,0-0.7-0.3-0.7-0.7c-0.1-0.4,0.2-0.8,0.6-0.8c6.4-0.9,12.8-1.1,18.9-0.7
			c0.4,0,0.7,0.4,0.7,0.8s-0.4,0.7-0.8,0.7c-6-0.4-12.3-0.2-18.6,0.7C536.5,509.1,536.5,509.1,536.5,509.1z"/>
		<path class="st11" d="M464.9,552.4c-0.2,0-0.3,0-0.5-0.2c-0.3-0.3-0.4-0.7-0.1-1.1c14.3-18.9,33-32.5,54-39.4
			c0.4-0.1,0.8,0.1,0.9,0.5c0.1,0.4-0.1,0.8-0.5,0.9c-20.7,6.8-39.1,20.2-53.3,38.9C465.4,552.2,465.1,552.4,464.9,552.4z"/>
		<g>
			<path class="st11" d="M148.4,516H137c-0.4,0-0.8-0.3-0.8-0.8s0.3-0.8,0.8-0.8h11.3c0.4,0,0.8,0.3,0.8,0.8S148.8,516,148.4,516z"
				/>
			<path class="st11" d="M100.8,552.4c-0.4,0-0.8-0.3-0.8-0.8v-36.4c0-0.4,0.3-0.8,0.8-0.8h26.4c0.4,0,0.8,0.3,0.8,0.8
				s-0.3,0.8-0.8,0.8h-25.6v35.6C101.6,552,101.3,552.4,100.8,552.4z"/>
		</g>
		<g>
			<path class="st11" d="M364,516h-13.2c-0.4,0-0.8-0.3-0.8-0.8s0.3-0.8,0.8-0.8H364c0.4,0,0.8,0.3,0.8,0.8S364.4,516,364,516z"/>
			<path class="st11" d="M301.3,556.6c-0.1,0-0.2,0-0.3,0c-0.4-0.1-0.6-0.6-0.4-1l15.2-40.7c0.1-0.3,0.4-0.5,0.7-0.5h21.2
				c0.4,0,0.8,0.3,0.8,0.8s-0.3,0.8-0.8,0.8H317l-15,40.2C301.8,556.4,301.6,556.6,301.3,556.6z"/>
		</g>
	</g>
	<g>
		<g>
			<g>
				<g>
					<defs>
						<path id="XMLID_10_" d="M348.1,831.8c0,0,1.8-8.9,8.6-10.8c6.9-1.9,9.5-4,9.5-4S364.2,830.7,348.1,831.8z"/>
					</defs>
					<use xlink:href="#XMLID_10_"  style="overflow:visible;fill:#007CFF;"/>
					<clipPath id="XMLID_2_">
						<use xlink:href="#XMLID_10_"  style="overflow:visible;"/>
					</clipPath>
					<path class="st12" d="M348.1,831.8c0,0,1.8-8.9,8.6-10.8c6.9-1.9,9.5-4,9.5-4S364.2,830.7,348.1,831.8z"/>
				</g>
				<g>
					<path class="st10" d="M348.3,831.8c-0.1,0-0.2,0-0.3-0.1c-0.2-0.2-0.2-0.5,0-0.7c3.3-3.7,7.5-6.6,12.7-8.8
						c0.2-0.1,0.5,0,0.6,0.3c0.1,0.3,0,0.5-0.3,0.6c-5.1,2.1-9.2,5-12.4,8.6C348.6,831.7,348.5,831.8,348.3,831.8z"/>
				</g>
			</g>
			<g>
				<g>
					<g>
						<g>
							<defs>
								<path id="XMLID_9_" d="M348.7,838.3c0,0,0.5-14.1-9.2-19.5c-9.8-5.4-13.1-9.5-13.1-9.5S324.7,830.8,348.7,838.3z"/>
							</defs>
							<use xlink:href="#XMLID_9_"  style="overflow:visible;fill:#007CFF;"/>
							<clipPath id="XMLID_4_">
								<use xlink:href="#XMLID_9_"  style="overflow:visible;"/>
							</clipPath>
						</g>
						<g class="st13">
							<defs>
								<path id="XMLID_3_" class="st13" d="M348.7,838.3c0,0,0.5-14.1-9.2-19.5c-9.8-5.4-13.1-9.5-13.1-9.5
									S324.7,830.8,348.7,838.3z"/>
							</defs>
							<use xlink:href="#XMLID_3_"  style="overflow:visible;fill:#FFFFFF;"/>
							<clipPath id="XMLID_5_">
								<use xlink:href="#XMLID_3_"  style="overflow:visible;"/>
							</clipPath>
						</g>
					</g>
					<path class="st10" d="M347.9,837.9c-0.2,0-0.3-0.1-0.4-0.3c-1.9-3.4-7.4-12.1-18.2-19.7c-0.2-0.2-0.3-0.5-0.1-0.7
						c0.2-0.2,0.5-0.3,0.7-0.1c10.9,7.7,16.5,16.6,18.4,20.1c0.1,0.2,0,0.5-0.2,0.7C348.1,837.8,348,837.9,347.9,837.9z"/>
				</g>
			</g>
			<g>
				<path class="st10" d="M348,843.5l-1.5-0.3c2.2-11.6,2.2-23.8-0.1-35.3l1.5-0.3C350.2,819.3,350.2,831.7,348,843.5z"/>
			</g>
			<g>
				<path class="st10" d="M343.1,796.7c0.3,1.7,2.8,7.6,4.5,7.3c1.7-0.3,2-6.7,1.7-8.4c-0.3-1.7-1.9-2.9-3.7-2.6
					C343.9,793.3,342.8,794.9,343.1,796.7z"/>
				<path class="st10" d="M352.8,815.1c-0.3-1.7-2.8-7.6-4.5-7.3c-1.7,0.3-2.1,6.7-1.7,8.4c0.3,1.7,1.9,2.9,3.7,2.6
					C351.9,818.5,353.1,816.8,352.8,815.1z"/>
				<path class="st10" d="M338.7,810.7c1.7-0.3,7.6-2.8,7.3-4.5c-0.3-1.7-6.7-2-8.4-1.7c-1.7,0.3-2.9,1.9-2.6,3.7
					C335.3,809.9,337,811,338.7,810.7z"/>
				<path class="st10" d="M357.1,801.1c-1.7,0.3-7.6,2.8-7.3,4.5c0.3,1.7,6.7,2,8.4,1.7c1.7-0.3,2.9-1.9,2.6-3.7
					C360.5,801.9,358.9,800.7,357.1,801.1z"/>
				<path class="st10" d="M338,802.8c1.4,1,7.3,3.4,8.3,2c1-1.4-3.3-6.2-4.7-7.2c-1.4-1-3.4-0.7-4.4,0.8
					C336.2,799.8,336.5,801.8,338,802.8z"/>
				<path class="st10" d="M357.9,809c-1.4-1-7.3-3.4-8.3-2c-1,1.4,3.3,6.2,4.7,7.2c1.4,1,3.4,0.7,4.4-0.8
					C359.6,812,359.3,810,357.9,809z"/>
				<path class="st10" d="M344.8,815.8c1-1.4,3.4-7.3,2-8.3c-1.4-1-6.2,3.3-7.2,4.7c-1,1.4-0.7,3.4,0.8,4.4
					C341.8,817.6,343.8,817.3,344.8,815.8z"/>
				<path class="st10" d="M351,795.9c-1,1.4-3.4,7.3-2,8.3c1.4,1,6.2-3.3,7.2-4.7c1-1.4,0.7-3.4-0.8-4.4
					C354,794.2,352,794.5,351,795.9z"/>
				<path class="st10" d="M344.2,806.5c0.4,2,2.3,3.4,4.3,3.1c2-0.4,3.4-2.3,3.1-4.3c-0.4-2-2.3-3.4-4.3-3.1
					C345.2,802.5,343.9,804.5,344.2,806.5z"/>
				<path class="st14" d="M344.2,806.5c0.4,2,2.3,3.4,4.3,3.1c2-0.4,3.4-2.3,3.1-4.3c-0.4-2-2.3-3.4-4.3-3.1
					C345.2,802.5,343.9,804.5,344.2,806.5z"/>
			</g>
		</g>
		<g>
			<polygon class="st15" points="356.5,861.8 335.8,861.8 330.9,842 361.4,842 			"/>
			<polygon class="st15" points="357.2,858.6 357.2,864.1 353.1,864.1 353.1,863 349.3,863 349.3,864.1 342.4,864.1 342.4,863 
				338.6,863 338.6,864.1 335,864.1 335,858.6 			"/>
		</g>
	</g>
	<g>
		<g>
			<g>
				<path class="st15" d="M564.5,675.5h7.6c1.2-12,1.8-20.4,1.1-32.4c-1-17,1.8-18.1-4.4-28.4c-0.8-1.3-1.6-2.5-2.9-3.3
					c-1.2-0.8-3-1-4.2-0.2C560.5,612,564.6,652.6,564.5,675.5z"/>
			</g>
			<g class="st16">
				<path d="M564.5,675.5h7.6c1.2-12,1.8-20.4,1.1-32.4c-1-17,1.8-18.1-4.4-28.4c-0.8-1.3-1.6-2.5-2.9-3.3c-1.2-0.8-3-1-4.2-0.2
					C560.5,612,564.6,652.6,564.5,675.5z"/>
			</g>
		</g>
		<g>
			<g>
				<g>
					<polygon class="st17" points="616.7,756.6 620.2,774.4 628.8,774.2 627.2,755.3 					"/>
					<g>
						<path class="st10" d="M629.6,774.2c-0.1,0-0.1-0.1-0.1-0.2c0-0.1,0-0.2,0.1-0.2c0.1-0.1,3.2-1.5,4.6-1
							c0.3,0.1,0.5,0.3,0.6,0.5c0.2,0.3,0.1,0.6-0.1,0.9c-0.4,0.4-1.5,0.5-2.5,0.4C631.3,774.6,630.4,774.4,629.6,774.2z M630.3,774
							c1.6,0.3,3.7,0.5,4.1,0c0.1-0.1,0.1-0.2,0-0.4c-0.1-0.2-0.2-0.3-0.4-0.3c-0.1,0-0.2-0.1-0.4-0.1
							C632.5,773.2,631.3,773.5,630.3,774z"/>
						<path class="st10" d="M629.5,774.2c-0.1,0-0.1-0.1-0.1-0.2c0-0.1,0.4-2.4,1.6-3.1c0.3-0.2,0.7-0.3,1.1-0.2
							c0.5,0.1,0.7,0.4,0.7,0.6c0.1,1-2.1,2.6-3.1,3c0,0-0.1,0-0.1,0C629.6,774.2,629.5,774.2,629.5,774.2z M632,770.9
							c-0.3,0-0.5,0-0.7,0.2c-0.7,0.7-1.2,1.5-1.3,2.5c1.1-0.5,2.6-1.8,2.6-2.4c0-0.1,0-0.2-0.4-0.3L632,770.9L632,770.9z"/>
						<path class="st15" d="M628.8,772.9l-9.2-0.8c-0.3,0-0.7,0.2-0.8,0.5l-2.3,7.3c-0.2,0.7,0.1,1.3,0.8,1.6c0.1,0,0.2,0,0.3,0.1
							c3.3,0.2,6.3,0.3,10.4,0.7c4.9,0.4,3.6,0.9,9.3,1.5c3.5,0.4,4.4-3.5,3-3.8c-6.6-1.4-7.1-3.5-9.5-6.2
							C630.2,773.3,629.6,773,628.8,772.9z"/>
					</g>
					<polygon class="st16" points="619,768 628.2,766.7 627.2,755.3 616.7,756.6 					"/>
					<path class="st10" d="M566.5,665.1c0,0,54.4,0.1,57,15c2.6,14.9,6.4,82.7,6.4,82.7l-12.6,1.9c0,0-8.9-37.5-14.5-75.8
						c0,0-57.7,5.1-60.7-2.9c-3-8-0.6-20.1-0.6-20.1L566.5,665.1z"/>
					<path class="st18" d="M566.5,665.1c0,0,54.4,0.1,57,15c2.6,14.9,6.4,82.7,6.4,82.7l-12.6,1.9c0,0-8.9-37.5-14.5-75.8
						c0,0-57.7,5.1-60.7-2.9c-3-8-0.6-20.1-0.6-20.1L566.5,665.1z"/>
					<g>
						<polygon class="st10" points="616,766.3 631.4,764.1 631.2,758.5 614.7,760.5 						"/>
					</g>
					<path class="st19" d="M590.4,685.1c0,0.1,0,0.3,0.1,0.4c0-2.2-0.2-4.1-0.4-5.5c-1.7-10-27.8-13.7-38.5-14.8l-13,0.4
						c0,0-2,10.2,0.5,17C541.7,689.4,590.4,685.1,590.4,685.1z"/>
				</g>
				<path class="st15" d="M568.4,632.6l-3,24.5c1.1,2.3,3.7,8.1,2,8c-2.1-0.1-15.3,8.9-15.3,8.9l-23.8-9.5l1.6-6.7
					c-0.5-2.1-2.6-14.6-4.5-25.6l-0.2-1l-1.9-11.8l-0.7-4.2c0,0,0,0,0,0v0c-0.2-1.8-0.7-3.3-0.8-4.3c0-0.2,0-0.5,0-0.7
					c0.1-0.5,0.3-1,0.8-1.3c0,0,0.1,0,0.1-0.1c0.2-0.1,0.3-0.2,0.5-0.4c8.7-6.3,31.1-0.5,37.7,1.2c0.9,0.2,2.7,1.4,2.7,2.3l1.2,3.4
					l2.4,7.2c0.2,0.7,0.4,1.4,0.6,2.2C568.6,627.2,568.7,629.9,568.4,632.6z"/>
				<g>
					<g>
						<g>
							<g>
								<polygon class="st17" points="586.4,757.9 587,775.7 595.7,775.5 596.9,756.6 								"/>
								<g>
									<path class="st10" d="M596.2,775.7c-0.1,0-0.1-0.1-0.1-0.2c0-0.1,0.1-0.2,0.2-0.2c0.1,0,3.5-0.7,4.7,0.1
										c0.2,0.1,0.4,0.4,0.5,0.6c0.1,0.3,0,0.6-0.3,0.8c-0.5,0.3-1.6,0.2-2.6-0.1C597.8,776.5,597,776.1,596.2,775.7z
										 M596.9,775.7c1.4,0.7,3.5,1.3,4,0.9c0.1,0,0.2-0.1,0.1-0.4c0-0.2-0.1-0.3-0.3-0.4c-0.1-0.1-0.2-0.1-0.3-0.2
										C599.2,775.4,598,775.4,596.9,775.7z"/>
									<path class="st10" d="M596.1,775.7c0-0.1-0.1-0.1,0-0.2c0-0.1,1-2.2,2.3-2.7c0.4-0.2,0.8-0.1,1.2,0
										c0.5,0.2,0.6,0.5,0.5,0.8c-0.1,1-2.6,2.1-3.7,2.2c0,0-0.1,0-0.1,0C596.2,775.7,596.1,775.7,596.1,775.7z M599.2,773.1
										c-0.2-0.1-0.5-0.1-0.7,0c-0.8,0.5-1.5,1.2-1.9,2.1c1.2-0.3,2.9-1.2,3-1.8c0-0.1,0-0.2-0.3-0.3L599.2,773.1L599.2,773.1z"/>
									<path class="st15" d="M595.7,774.3l-8.8-2.8c-0.3-0.1-0.7,0-0.9,0.3l-3.9,6.7c-0.3,0.6-0.2,1.3,0.4,1.7
										c0.1,0,0.2,0.1,0.2,0.1c3.2,1,6.1,1.7,10,3c4.7,1.5,3.3,1.7,8.8,3.5c3.3,1.1,5.1-2.5,3.8-3.1c-6.1-2.9-6.2-5-7.9-8.1
										C597,775,596.4,774.5,595.7,774.3z"/>
								</g>
								<path class="st15" d="M552.3,666.5c0,0,48.3,3.1,50.9,18c2.6,14.9-5.7,80.5-5.7,80.5l-12.6,0.9c0,0-2.7-44.3-2.4-72.6
									c0,0-51.6,3.2-54.6-4.9c-3-8-0.6-21.1-0.6-21.1L552.3,666.5z"/>
								<path class="st10" d="M552.3,666.5c0,0,48.3,3.1,50.9,18c2.6,14.9-5.7,80.5-5.7,80.5l-12.6,0.9c0,0-2.7-44.3-2.4-72.6
									c0,0-44.5,4.8-55-2.6c-11.6-8,0.5-26.2,0.5-26.2L552.3,666.5z"/>
								<path class="st20" d="M552.3,666.5c0,0,48.3,3.1,50.9,18c2.6,14.9-5.7,80.5-5.7,80.5l-12.6,0.9c0,0-2.7-44.3-2.4-72.6
									c0,0-44.5,4.8-55-2.6c-11.6-8,0.5-26.2,0.5-26.2L552.3,666.5z"/>
								<g>
									<polygon class="st10" points="583.5,767.5 599,766.5 599.5,760.5 582.5,761.7 									"/>
								</g>
							</g>
							<g>
								<path class="st17" d="M540.8,590.6c0.6,4.9,1.1,12-2.6,15c4.4,2.9,3.3,7.1,6.5,11.4c0.5,0.6,6.3,0.3,6.9-0.2
									c0.1-0.1,1.1,0.2,1.2,0c4.2-6.5,0.5-10.1,0.5-10.1c-2.8,1.4-2.7-3.5-1.6-7.2L540.8,590.6z"/>
								<path class="st20" d="M551,604.6c-0.1-1.5,0.2-3.4,0.8-5.1l-2-1.6l-6-3.4C542.3,597.7,546.9,603.2,551,604.6z"/>
								<path class="st15" d="M557.1,569.8c8.8,7.3,9.2,13.5,9.3,17.8c0.1,4.3-1,8.5-2.1,12.7c-4.9-3.4-8.9-8.2-10-14.1
									C553.1,580.4,553.8,574.8,557.1,569.8z"/>
								<path class="st17" d="M541.1,579.1c-1.4,8-2.1,11.4,0.9,16.3c4.6,7.5,14.7,7.5,18.5,0c3.3-6.7,5.1-18.7-1.9-23.7
									c-5-3.6-11.9-2.4-15.5,2.5C542,575.8,541.3,577.4,541.1,579.1z"/>
								<path class="st21" d="M557.9,586.5c0.2,1.6,0.7,3.2,1.3,4.6c-0.8,0.3-1.7,0.3-2.4-0.1L557.9,586.5z"/>
								<path class="st15" d="M556,594c0.3,0.1,0.6,0.1,1,0.1c0.1,0,0.2-0.1,0.2-0.2c0-0.1-0.1-0.1-0.2-0.2
									c-1.7-0.1-3.2-0.9-4.1-2.3c-0.1-0.1-0.2-0.1-0.3-0.1c-0.1,0.1-0.1,0.2-0.1,0.3C553.2,592.8,554.5,593.7,556,594z"/>
								<path class="st15" d="M552.3,579.7c0.1,0.1,0.3,0.1,0.5,0c1.5-1,3.7-0.2,3.7-0.2c0.2,0.1,0.4,0,0.5-0.2
									c0.1-0.2,0-0.4-0.2-0.5c-0.1,0-2.6-1-4.4,0.3c-0.2,0.1-0.2,0.4-0.1,0.5C552.2,579.6,552.3,579.7,552.3,579.7z"/>
								<path class="st15" d="M563.2,582.7c0.1,0.1,0.2,0.1,0.4,0.1c0.2-0.1,0.3-0.3,0.2-0.5c-0.4-1.2-1.3-2.2-2.5-2.6
									c-0.2-0.1-0.4,0.1-0.5,0.3c-0.1,0.2,0.1,0.4,0.3,0.5c0.9,0.3,1.6,1.1,1.9,2C563.1,582.6,563.2,582.6,563.2,582.7z"/>
								<path class="st15" d="M540.9,609.8c0,0,9.1,6.4,12.8,0.1l-0.1,6l-0.1,7.3l-1.2,1.7l-2.3-0.8l-2.7-5l-1.1-1.8L540.9,609.8z"
									/>
								<g>
									<path class="st10" d="M538.7,605c0,0,10.1,14,12.7,18.3c2.6,4.4,0.8-16.5,0.8-16.5s1.5-1.6,4.1,0.8c0,0,2.9,9.3,2.6,10
										c-0.3,0.7-3.8,1.1-3.8,1.1s2,2.3,1.6,3.6c-0.4,1.3-2.9,3.6-4.1,3.7c-1.2,0.2-9.2-3.8-9.7-4.9c-0.4-1.1,2.1-2.7,2.1-2.7
										s-5.8,0.2-6.6-1.9c-0.8-2.1-3.8-11.6-3.8-11.6S536.6,602.8,538.7,605z"/>
									<path class="st22" d="M538.7,605c0,0,10.1,14,12.7,18.3c2.6,4.4,0.8-16.5,0.8-16.5s1.5-1.6,4.1,0.8c0,0,2.9,9.3,2.6,10
										c-0.3,0.7-3.8,1.1-3.8,1.1s2,2.3,1.6,3.6c-0.4,1.3-2.9,3.6-4.1,3.7c-1.2,0.2-9.2-3.8-9.7-4.9c-0.4-1.1,2.1-2.7,2.1-2.7
										s-5.8,0.2-6.6-1.9c-0.8-2.1-3.8-11.6-3.8-11.6S536.6,602.8,538.7,605z"/>
								</g>
								<path class="st17" d="M537.5,584.9c0.2,1.6,1.1,3,2.3,3.9c1.7,1.2,3.3-0.1,3.4-2.1c0.1-1.8-0.6-4.5-2.6-5
									c-1.4-0.3-2.9,0.6-3.2,2.1C537.4,584.2,537.4,584.5,537.5,584.9z"/>
							</g>
						</g>
					</g>
					<path class="st15" d="M590.7,613.4l-7.3-1.1c-0.9-0.1-1.6-1-1.4-2l3.3-21.7c0.1-0.9,1-1.6,2-1.4l7.3,1.1c0.9,0.1,1.6,1,1.4,2
						l-3.3,21.7C592.5,612.9,591.7,613.5,590.7,613.4z"/>
					<g>
						<g>
							<g>
								<g>
									<path class="st17" d="M576.4,611.6l4-2.4c0,0,1.6-5.1,3.2-5.6c0,0,2.8-1.9,3.9-2.5c2.1-1,3.1,0.5,3.1,3.6
										c0,3.2,1.2,5-2,6.5c-3.1,1.5-4.6,2.1-4.6,2.1l-5.2,3.9L576.4,611.6z"/>
								</g>
							</g>
						</g>
						<path class="st13" d="M542.3,621.7c0,0-3.2,2.6-7.3,5.1c-3.1,1.9-6.7,3.8-9.6,4.3l-1.9-11.8c-0.2-0.3-0.5-0.6-0.6-1l0-3.3V614
							L542.3,621.7z"/>
						<g>
							<path class="st15" d="M579.8,617.5c-0.6,0.4-1.2,0.8-1.8,1.2c-3.6,2.3-6.8,4.2-10,5.9c-4.9,2.7-9.8,4.9-16.3,7.3
								c-5.6-1.7-11.3-2.7-16.7-5c-0.3-0.1-0.6-0.3-0.9-0.4c-2.5-1.1-5-2.3-7.3-3.9c-1.2-0.9-2.4-2-3.3-3.2c-0.2-0.3-0.5-0.6-0.6-1
								c-0.4-0.7-0.8-1.4-1.1-2.2c-0.7-2-0.6-4.2,0.2-6.1c0.2-0.5,0.5-1,0.8-1.4c0.1-0.1,0.1-0.2,0.2-0.2c0.1,0,0.2-0.1,0.3-0.1
								c6.6-3,10.7-0.8,14.2,4.1c4.6,1.4,9.1,4.7,15.9,4.7c3.8,0,7-0.4,11.4-1.8c2.4-0.8,5.2-1.9,8.7-3.4c0.8-0.3,1.7-0.7,2.5-1.1
								c0.2,0.2,0.4,0.4,0.6,0.7c1,1.4,2.4,3.8,2.9,5.3C579.7,617,579.8,617.3,579.8,617.5z"/>
							<path class="st23" d="M579.8,617.5c-0.6,0.4-1.2,0.8-1.8,1.2c-3.6,2.3-6.8,4.2-10,5.9c-4.9,2.7-9.8,4.9-16.3,7.3
								c-5.6-1.7-11.3-2.7-16.7-5c-0.3-0.1-0.6-0.3-0.9-0.4c-2.5-1.1-5-2.3-7.3-3.9c-1.2-0.9-2.4-2-3.3-3.2c-0.2-0.3-0.5-0.6-0.6-1
								c-0.4-0.7-0.8-1.4-1.1-2.2c-0.7-2-0.6-4.2,0.2-6.1c0.2-0.5,0.5-1,0.8-1.4c0.1-0.1,0.1-0.2,0.2-0.2c0.1,0,0.2-0.1,0.3-0.1
								c6.6-3,10.7-0.8,14.2,4.1c4.6,1.4,9.1,4.7,15.9,4.7c3.8,0,7-0.4,11.4-1.8c2.4-0.8,5.2-1.9,8.7-3.4c0.8-0.3,1.7-0.7,2.5-1.1
								c0.2,0.2,0.4,0.4,0.6,0.7c1,1.4,2.4,3.8,2.9,5.3C579.7,617,579.8,617.3,579.8,617.5z"/>
							<g>
								<polygon class="st10" points="581.4,617.7 579.1,620.5 573.3,611.4 576.2,609.3 								"/>
								<polygon class="st22" points="581.4,617.7 579.1,620.5 573.3,611.4 576.2,609.3 								"/>
							</g>
						</g>
					</g>
				</g>
				<path class="st15" d="M553.4,567.9c-5.4-4.2-14.3,0.1-18.1,5.7c-3.9,5.6-3.4,13.9,1.1,19c2.6,2.9,6.4,4.1,9.9,5.7
					c-0.8-4.8-0.2-9.9,2.1-14.2c2.3-4.3,6-7.9,10.4-10C558.7,574.1,555.8,569.8,553.4,567.9z"/>
				<path class="st15" d="M553.4,567.9c3.5,3.7,5.5,5,6.4,6.7c3,2.1,5.4,9.2,6.5,12.7C567.4,580.6,561.6,568.6,553.4,567.9z"/>
				<g>
					<path class="st15" d="M560.4,585.9c-0.2,0.6,0.1,1.3,0.5,1.3c0.4,0.1,0.9-0.3,1-1c0.2-0.6-0.1-1.2-0.5-1.3
						C561.1,584.8,560.6,585.2,560.4,585.9z"/>
					<path class="st15" d="M562.7,585.2c-0.5-0.1-1-0.2-1.4-0.3c0.1,0,0,0,0,0c0,0.2,0,0.5,0,0.7
						C561.9,585.8,562.4,585.5,562.7,585.2z"/>
				</g>
				<path class="st15" d="M553.2,584.2c-0.1,0.6,0.1,1.2,0.5,1.3c0.4,0.1,0.9-0.3,1-1c0.1-0.6-0.1-1.2-0.5-1.3
					C553.8,583.1,553.3,583.5,553.2,584.2z"/>
				<path class="st15" d="M555.5,583.4c-0.5-0.1-1-0.2-1.4-0.3c0.1,0,0,0,0,0c0,0.2,0,0.5,0,0.7
					C554.7,584.1,555.2,583.8,555.5,583.4z"/>
			</g>
		</g>
	</g>
	<g>
		<g>
			<path class="st24" d="M470.7,759c-16.5,20.1-55.7,56.5-55.7,56.5l-7.5-4.9c0,0,28.6-48.4,42.5-57.6
				c-11.7-18.6-49.7-84.5-49.7-84.5l27.1-9.8c0,0,30.6,58.7,44.8,86.4C474.5,749.5,474,755,470.7,759z"/>
		</g>
		<path class="st24" d="M386.2,673.6c0,0,24.1,66.3,33.2,94c8,24.6,32.3,84.8,32.3,84.8l8.7-3c0,0-15.3-67.8-22.3-93.2
			c-6.4-23.2-22.2-93.4-22.2-93.4L386.2,673.6z"/>
		<g>
			<path class="st15" d="M416.6,818c1.3,7,2.3,8,5.8,14.2c0.8,1.3-2.7,3.1-5.1,0.3c-4.1-4.5-4.1-4.7-7.6-8.5c-3-3.3-6.6-6.9-9-9.5
				c-0.1-0.1-0.1-0.2-0.2-0.3c-0.4-0.6-0.1-1.4,0.5-1.8l7.1-4.1c0.3-0.2,0.7-0.1,1,0.2l6.6,7.3C416.1,816.4,416.5,817.2,416.6,818z"
				/>
			<path class="st10" d="M415.3,817.3L415.3,817.3c0.8,1.3,2.2,3.4,3.5,3.6c0.4,0.1,0.8-0.1,1.1-0.4c0.2-0.2,0.2-0.4,0.2-0.6
				c-0.3-1.2-4.1-2.7-4.5-2.8c-0.1,0-0.2,0-0.2,0.1C415.2,817.1,415.2,817.2,415.3,817.3z M419.6,819.9L419.6,819.9
				c0,0.1,0,0.2-0.1,0.3c-0.2,0.2-0.4,0.3-0.7,0.3c-0.7-0.1-1.8-1.1-2.9-2.8C417.5,818.3,419.3,819.2,419.6,819.9L419.6,819.9z"/>
			<path class="st10" d="M415.3,817.3c0,0.1,0.1,0.1,0.1,0.1c1.1,0.5,4,0.8,4.6,0c0.1-0.2,0.2-0.5-0.1-1c-0.3-0.3-0.6-0.6-1.1-0.6
				c-1.5-0.2-3.4,1.2-3.5,1.3C415.3,817.1,415.2,817.2,415.3,817.3L415.3,817.3z M419.7,816.9c0,0.1,0,0.2,0,0.2
				c-0.4,0.5-2.5,0.4-3.7,0c0.8-0.6,1.8-1,2.8-1c0.3,0,0.6,0.2,0.8,0.5C419.6,816.7,419.6,816.8,419.7,816.9z"/>
		</g>
		<g>
			<g>
				<g>
					<g>
						<path class="st24" d="M438.4,614.4c-2.9-4.7-19.9-13.1-21.2-13.8l-4.7,10.9c6.8,3.9,16.8,9.4,16.2,13.2L438.4,614.4z"/>
					</g>
					<g>
						<g>
							<g>
								<path class="st10" d="M425.1,601.6c-5.9-3.3-20-13.5-26.7-6.9c0,0-4,8.9,6,14.9c4.1,2.4,10.8,6.8,13.6,8.4L425.1,601.6z"/>
							</g>
						</g>
					</g>
					<g class="st20">
						<g>
							<g>
								<path d="M425.1,601.6c-5.9-3.3-20-13.5-26.7-6.9c0,0-4,8.9,6,14.9c4.1,2.4,10.8,6.8,13.6,8.4L425.1,601.6z"/>
							</g>
						</g>
					</g>
					<g id="freepik--Character--inject-452_1_">
						<path class="st15" d="M461.2,848.6c2.5,1.1,7.5,1.6,14,1c1.4-0.1,2,3.3-1.3,4.3c-3.3,1-10.5,3-12.9,3.7
							c-3.9,1.2-6.1,2.1-9.1,3.1c-0.1,0-0.2,0-0.3,0.1c-0.7,0.1-1.2-0.4-1.3-1.1l-0.6-7.4c0-0.3,0.2-0.6,0.5-0.7l9.6-2.9
							C460.3,848.4,460.8,848.4,461.2,848.6z"/>
						<path class="st10" d="M369.5,602.2c1.1-0.5,2.2-1,3.2-1.4c5.7-2.4,11.6-4.6,17.5-6.3c0.8-0.2,1.5-0.4,2.2-0.5
							c2.5-0.6,5.1-1,7.6-1.3c1.9-0.2,3.7,0.6,4.7,2.2c3.1,5.1,10.2,20.3,22.7,63.9l-41.2,14.9c-1.3-3.1-3.7-12.6-7.9-24.8
							c-1.8-5.2-3.9-10.9-6.4-16.8c-3.5-8.5-7.7-16.7-12.4-24.5C359.5,607.5,364.1,604.7,369.5,602.2z"/>
						<path class="st20" d="M369.5,602.2c1.1-0.5,2.2-1,3.2-1.4c5.7-2.4,11.6-4.6,17.5-6.3c0.8-0.2,1.5-0.4,2.2-0.5
							c2.5-0.6,5.1-1,7.6-1.3c1.9-0.2,3.7,0.6,4.7,2.2c3.1,5.1,10.2,20.3,22.7,63.9l-41.2,14.9c-1.3-3.1-3.7-12.6-7.9-24.8
							c-1.8-5.2-3.9-10.9-6.4-16.8c-3.5-8.5-7.7-16.7-12.4-24.5C359.5,607.5,364.1,604.7,369.5,602.2z"/>
						<path class="st20" d="M365.7,618.5c2.3,4.5,4.4,9.1,6.3,13.5c0.5,1.2,1,2.4,1.4,3.5c1.9-6.4,1.9-13.3,0-19.7L365.7,618.5z"/>
						<g>
							<path class="st10" d="M412.5,663.9c0,0,0.6,0.3,12.8,47l17.5,35.8l28-11.1l-43.4-77.8L412.5,663.9z"/>
						</g>
						<g class="st16">
							<path class="st11" d="M412.5,663.9c0,0,0.6,0.3,12.8,47l17.5,35.8l28-11.1l-43.4-77.8L412.5,663.9z"/>
						</g>
						<path class="st20" d="M438.5,738c-7.2-14-15.4-30.4-22.5-41.6l2.8-4.7C427.1,697.3,435.2,723.6,438.5,738z"/>
						<g>
							<g>
								<path class="st10" d="M386.2,673.6c0,0,0,0,12.7,48.4c5.8,26.7,9.7,34.9,9.7,34.9l29-8.5L426,701.6
									c-6.4-23.2-9.9-38.9-9.9-38.9L386.2,673.6z"/>
							</g>
						</g>
						<g class="st16">
							<path class="st11" d="M386.2,673.6c0,0,0,0,12.7,48.4c5.8,26.7,9.7,34.9,9.7,34.9l29-8.5L426,701.6
								c-6.4-23.2-9.9-38.9-9.9-38.9L386.2,673.6z"/>
						</g>
						<path class="st10" d="M462.8,849.1c0.5-0.1,1-0.4,1.4-0.9c0.2-0.3,0.2-0.8,0.1-1.1c-0.1-0.2-0.3-0.4-0.5-0.4
							c-1-0.2-3.1,2.1-3.3,2.4c-0.1,0.1-0.1,0.1,0,0.2c0,0.1,0.1,0.1,0.2,0.1C461.4,849.4,462.1,849.3,462.8,849.1z M463.5,847.1
							c0.1,0,0.2-0.1,0.2-0.1c0.1,0,0.2,0.1,0.2,0.2c0.1,0.2,0.1,0.5,0,0.7c-0.7,0.7-1.7,1-2.7,1
							C461.8,848.2,462.6,847.6,463.5,847.1L463.5,847.1z"/>
						<path class="st10" d="M460.7,849.5C460.8,849.5,460.8,849.5,460.7,849.5c0.8-0.7,1.8-2.9,1.4-3.7c-0.1-0.3-0.5-0.4-0.7-0.3
							c-0.3,0-0.6,0.2-0.7,0.5c-0.7,1-0.2,3.4-0.2,3.4c0,0.1,0.1,0.1,0.1,0.1C460.7,849.5,460.7,849.5,460.7,849.5z M461.3,845.8
							L461.3,845.8c0.3-0.1,0.4,0,0.4,0.1c0.3,0.5-0.3,2.1-1,2.9c-0.2-0.9-0.2-1.9,0.2-2.7C461,846,461.2,845.9,461.3,845.8z"/>
						<path class="st24" d="M359.7,612.1c-0.6,1.5-1.1,2.9-1.6,4.3c-0.5,1.4-1,2.8-1.4,4.3c-0.9,2.9-1.6,5.7-2.3,8.7
							c-1.4,6-2.1,12.1-2.2,18.3c0,0.2,0,0.3,0,0.5l0,0.6c0,0.4,0.1,0.7,0.1,1.1c0.1,0.6,0.3,1.3,0.5,1.9l0.3,0.8
							c0.1,0.3,0.3,0.5,0.4,0.7l0.4,0.7l0.4,0.6c1,1.5,2.1,2.9,3.4,4.2c2.2,2.2,4.7,4.2,7.3,6c4.9,3.4,10.2,6.4,15.7,8.8l3.1-5.3
							c-2.1-1.7-4.4-3.5-6.6-5.3c-2.2-1.8-4.3-3.6-6.3-5.4c-1.9-1.8-3.7-3.6-5.4-5.7c-0.7-0.8-1.3-1.7-1.8-2.7l-0.1-0.3l-0.1-0.3
							c0-0.1-0.1-0.2-0.1-0.2c0-0.1,0-0.1-0.1-0.2c-0.1-0.2,0-0.1-0.1-0.2c0-0.1,0,0,0,0l0,0l0,0c0,0,0-0.1,0-0.1
							c0.2-2.6,0.6-5.2,1.1-7.8c0.5-2.6,1.1-5.3,1.8-7.9c0.7-2.6,1.5-5.3,2.3-7.9c0.4-1.3,0.8-2.6,1.3-3.9l1.3-3.8L359.7,612.1z"/>
						<path class="st10" d="M374.2,618.5c-1.5,10-4,20.6-4,20.6l-19-8.2c0,0,1.4-19.9,8.3-23.5C368,603.1,375.9,607.6,374.2,618.5z"
							/>
						<path class="st20" d="M374.2,618.5c-1.5,10-4,20.6-4,20.6l-19-8.2c0,0,1.4-19.9,8.3-23.5C368,603.1,375.9,607.6,374.2,618.5z"
							/>
						<path class="st24" d="M379.6,672.9c1.2,3.7,8.3,2.2,8.3,2.2l0.1-10.5l-7.6,3.4L379.6,672.9z"/>
						<polygon class="st24" points="388,664.7 387.9,675.2 394.2,674.9 394.7,666.3 						"/>
					</g>
				</g>
				<g>
					<g>
						<path class="st24" d="M373.6,601c0.3,0.2,0.6,0.4,0.9,0.6c1.1,0.7,2.2,1.5,3.4,2.1c0,0,0,0,0,0c3,0.9,7,1.8,11.3,2
							c1.6-1.3,2.6-2.3,3.2-3.3c0.2-0.8,0.1-1.7-0.2-2.5c-0.1-0.4-0.3-0.7-0.6-1c-1.9-0.4-3.1-1.1-4-2.2c-0.2-0.2-0.3-0.4-0.5-0.7
							c-1.1-1.9-1.2-4.4-1-6.9l-12.5-7.6C375.5,586.7,378.1,596.9,373.6,601z"/>
						<path class="st20" d="M379.1,587.7c0.7,2.5,5.2,6.9,7,4.6c-0.1-1.1-0.1-2.2,0-3.2l-7.4-4.5
							C378.6,585.7,378.8,586.7,379.1,587.7z"/>
					</g>
					<path class="st15" d="M388.7,573.7l1.3,3.4c0,0,4.9-0.1,5.8-0.6c-0.4-0.7-1.5-2-1.4-3.2c0.1-1.4,2.2-1.8,2.5-3.3
						c0.3-1.4-0.4-6.1-1.7-6.1c-1.3-0.1-8.9,0.1-8.9,0.1C381,566.8,388.7,573.7,388.7,573.7z"/>
					<path class="st24" d="M375.4,565.8c2.9-5.2,9.5-7.1,14.7-4.2c7.3,4,7,15.8,4.5,22.7c-2.8,7.6-12.9,10.1-18.2,3.3
						c-3.5-4.5-2.8-9.1-2.4-17C374.1,568.9,374.6,567.3,375.4,565.8z"/>
					<path class="st15" d="M374.5,584.9l-0.8-4.7l5.3,2.1c0,0-2.6-6-2.1-8.8c0.1-1.4,1.6-1.8,2-3.3c0.4-1.4-0.4-6.1-1.7-6.2
						c-1.3-0.1-7.7,0-7.7,0C364.1,566.8,374.5,584.9,374.5,584.9z"/>
					<path class="st15" d="M386.7,573.7c0.4,0,0.7,0.6,0.6,1.2c-0.1,0.6-0.5,1.1-0.9,1.1c-0.4-0.1-0.7-0.6-0.6-1.2
						C385.9,574.1,386.3,573.7,386.7,573.7z"/>
					<path class="st15" d="M393.4,574.2c0.4,0,0.8,0.5,0.8,1.1c0,0.6-0.3,1.2-0.7,1.2c-0.4,0-0.8-0.5-0.8-1.1
						C392.7,574.8,393,574.2,393.4,574.2z"/>
					<path class="st21" d="M389.9,581.2c1,0.4,2.2,0.3,3.1-0.2c-1.1-1.8-1.9-3.8-2.4-5.8L389.9,581.2z"/>
					<path class="st15" d="M384.1,571.1C384.1,571.1,384.1,571.1,384.1,571.1c-0.1-0.2-0.1-0.4,0-0.5c0.9-0.8,2.1-1.2,3.3-1
						c0,0,0,0,0,0c0.2,0.1,0.3,0.3,0.3,0.5c-0.1,0.2-0.3,0.3-0.5,0.3c-0.9-0.2-1.9,0.1-2.6,0.8c-0.1,0.1-0.2,0.1-0.3,0.1
						C384.2,571.2,384.1,571.2,384.1,571.1z"/>
					<path class="st15" d="M395.4,571.9c-0.5-0.8-1.4-1.3-2.3-1.4l0,0c-0.2,0-0.3-0.2-0.3-0.3c0-0.2,0.1-0.4,0.3-0.4
						c1.2,0.1,2.3,0.7,3,1.8c0,0,0,0,0,0c0.1,0.2,0,0.4-0.1,0.5c-0.1,0-0.1,0-0.2,0C395.6,572.1,395.5,572,395.4,571.9z"/>
					<path class="st24" d="M372.7,573c2.3,0.4,3.5,3.8,3.6,6c0.1,2.5-1.5,4.3-3.6,2.9c-1.6-1.1-2.8-2.8-3.2-4.7
						C368.9,574.9,370.3,572.6,372.7,573z"/>
					<g>
						<path class="st25" d="M390.3,583.9c-0.4,1-0.9,2.9-0.9,2.9c-0.2,0-0.4,0-0.5,0c-2.4-0.2-3.4-1-3.9-1.9c-0.2-0.5-0.3-1-0.3-1.4
							c0-0.5,0.1-0.8,0.1-0.8c1.2,0.8,3.4,1.2,4.6,1.3C390,583.9,390.3,583.9,390.3,583.9z"/>
						<path class="st11" d="M389.5,583.9l-0.3,0.8c-2.2-0.2-3.8-0.6-4.5-1.3c0-0.5,0.1-0.8,0.1-0.8
							C386.1,583.4,388.3,583.8,389.5,583.9z"/>
						<path class="st26" d="M388.9,586.8c-2.4-0.2-3.4-1-3.9-1.9c0.8,0.1,1.8,0.3,2.6,0.7C388.3,585.9,388.7,586.3,388.9,586.8z"/>
					</g>
					<path class="st15" d="M396.5,567.4c-8.8-2-18.4-1.5-27.3,1.2c-3.3-0.9-5.2-3.7-4.9-6.5c0.3-2.8,2.6-5.4,5.6-7.1
						c3-1.7,6.5-2.7,10.1-3.2c3.8-0.5,7.5,0.6,10.9,1.6c3.4,1.1,6.5,2.9,7.9,5.6C400.1,561.6,399.3,565.3,396.5,567.4z"/>
				</g>
			</g>
			<g>
				<g>
					<g>
						<g>
							<g>
								<g>
									<path class="st24" d="M435.2,611.9l-27.9,14.3l0.1,5.9c0,0,29-5.7,32.3-10.2h0c1.1-3.1,0.1-6.6-2.6-8.5L435.2,611.9z"/>
								</g>
							</g>
							<path class="st24" d="M407.4,626.2l-4.3,2.1c-1.3,0.6-2.4,1.8-2.9,3.2l-1.9,5.3c-0.2,0.6,0,1.4,0.6,1.7l3.3,1.8
								c0.6,0.3,1.4,0.2,1.8-0.4l3.4-4.8l3.5-5.5C410.9,629.5,409,625.4,407.4,626.2z"/>
						</g>
					</g>
				</g>
				<g>
					<polygon class="st15" points="412.4,631.5 410,631.9 407,625.5 409.2,624.5 					"/>
					<path class="st15" d="M410.8,624.6l-4.9,2.2l-0.3-0.6c-0.2-0.5,0-1,0.4-1.2l3.2-1.5c0.5-0.2,1,0,1.2,0.4L410.8,624.6z"/>
				</g>
			</g>
		</g>
	</g>
	<g>
		<g>
			<g id="_x3C_Group_x3E__2_">
				<g>
					<g>
						<polygon class="st27" points="300.8,515.6 295,519.9 284.9,508.8 277.6,500.7 277.6,500.7 277.6,500.7 285.1,495.8 
							291.9,504.3 						"/>
						<path class="st15" d="M299.8,513.8l-5.9,6c-0.3,0.2-0.3,0.6-0.1,0.9l4.6,6.3c0.5,0.6,1.4,0.7,2,0.2c0,0,0.1-0.1,0.1-0.1
							c11.4-9,14.3-13.6,15.4-14.8c3.2-3.4,0-5.4-1.3-4.6c-6,3.8-8.8,4.7-11.9,4.9C301.2,513,300.1,513.4,299.8,513.8z"/>
						<g>
							<polygon class="st10" points="283.8,511.4 295.2,503.3 293.5,499.1 280.4,507.7 							"/>
							<polygon class="st22" points="283.8,511.4 295.2,503.3 293.5,499.1 280.4,507.7 							"/>
						</g>
					</g>
					<g>
						<path class="st10" d="M305.3,509.3c-0.5,0.1-1.1,0.7-1.6,1.5c-0.3,0.4-0.5,0.8-0.7,1.1c-0.2,0.3-0.3,0.6-0.4,0.8
							c-0.2,0.3-0.3,0.6-0.4,0.7c-0.1,0.1,0,0.2,0,0.2c0,0,0,0,0.1,0.1c0.1,0,0.1,0,0.2,0c0.9-0.4,1.7-0.9,2.4-1.4
							c0.4-0.2,0.7-0.6,1-0.9c0,0,0,0,0-0.1c0.1-0.2,0.3-0.5,0.4-0.7c0.1-0.4,0-0.8-0.3-1C305.8,509.4,305.5,509.3,305.3,509.3z
							 M305.6,509.8c0.2,0.2,0.3,0.4,0.2,0.7c0,0.2-0.2,0.4-0.4,0.7c-0.2,0.2-0.5,0.5-0.8,0.7c-0.4,0.3-0.9,0.6-1.5,0.9
							c-0.1,0.1-0.3,0.1-0.4,0.2c0.4-0.8,0.8-1.5,1.3-2.1c0.3-0.4,0.6-0.7,0.9-1c0.1-0.1,0.2-0.1,0.4-0.2
							C305.5,509.7,305.5,509.8,305.6,509.8z"/>
						<path class="st10" d="M300.7,509.4c-0.3,0.3-0.4,0.7-0.4,1.2c0,0.1,0,0.3,0.1,0.4c0.3,1.2,1.6,2.4,1.9,2.6c0,0,0,0,0,0
							c0.1,0,0.1,0.1,0.2,0c0,0,0.1,0,0.1-0.1c0,0,0,0,0-0.1c0-0.2,0.1-0.4,0.1-0.7c0-0.4,0-0.9-0.1-1.3c-0.1-1-0.5-2.1-1-2.3
							C301.4,509,301.1,508.9,300.7,509.4z M301.4,509.4c0.3,0.2,0.6,1,0.8,1.9c0.1,0.6,0.1,1.2,0.1,1.7c-0.4-0.4-1.1-1.2-1.4-2
							c-0.1-0.2-0.1-0.4-0.1-0.5c0-0.3,0-0.5,0.2-0.7l0.1-0.1C301.2,509.4,301.4,509.4,301.4,509.4z"/>
					</g>
					<g>
						<g>
							<g>
								<g>
									<g>
										<path class="st15" d="M290.6,502.7l-2.3,1.5l-1.3,0.9l-3.9,2.6l-0.8,0.5c0,0-16.7-11.6-23.9-19.6
											c-4.9-5.5-5.2-7.3-5.8-6.9c-8.5,4.9-30.3,21.9-53.7,24.5c-0.4,0-0.9,0-1.3,0c-7-0.4-12.4-1.8-16.5-4
											c0.7-5.7,7.2-18.3,7.8-19.5c0,0,26.8-9.8,60-22c0.3-0.1,0.7-0.2,1-0.3c0.4-0.1,0.9-0.2,1.3-0.3c1.7-0.4,3.4-0.6,4.9-0.5
											c1.4,0.1,3,0.2,4,1.2C265.1,465.5,290.6,502.7,290.6,502.7z"/>
									</g>
								</g>
							</g>
						</g>
					</g>
					<g class="st13">
						<g>
							<g>
								<g>
									<g>
										<path d="M290.6,502.7l-2.3,1.5l-1.3,0.9l-3.9,2.6l-0.8,0.5c0,0-16.7-11.6-23.9-19.6c-4.9-5.5-5.2-7.3-5.8-6.9
											c-8.5,4.9-30.3,21.9-53.7,24.5c-0.4,0-0.9,0-1.3,0c-7-0.4-12.4-1.8-16.5-4c0.7-5.7,7.2-18.3,7.8-19.5c0,0,26.8-9.8,60-22
											c0.3-0.1,0.7-0.2,1-0.3c0.4-0.1,0.9-0.2,1.3-0.3c1.7-0.4,3.4-0.6,4.9-0.5c1.4,0.1,3,0.2,4,1.2
											C265.1,465.5,290.6,502.7,290.6,502.7z"/>
									</g>
								</g>
							</g>
						</g>
					</g>
				</g>
				<path class="st27" d="M176.5,399.9c1.2,5.6,2.4,13.7-1.4,17.5c4.7,8.4,10.3,16.2,16.8,23.3c8.5-14.5,0.6-23.6,0.6-23.6
					c-6.3-1.4-6.2-3.9-5.1-8.3L176.5,399.9z"/>
				<path class="st10" d="M171.2,418.1c0.5-1.5,1.4-2.8,2.7-3.7c1.3-1,14.3-1,17.7,0.1c2,0.6,3.6,2,4.7,3.8L171.2,418.1z"/>
				<polygon class="st27" points="302.1,516.1 307.9,511.4 291,489.8 282.6,494.7 				"/>
				<g>
					<path class="st10" d="M311.2,501.7c-0.8,0.2-1.5,1.9-2.1,3.2c-0.1,0.3-0.2,0.6-0.3,0.9l0,0c0,0.1,0,0.1,0,0.1
						c-0.1,0.3-0.2,0.5-0.2,0.6c0,0.1,0,0.2,0,0.2c0.1,0.1,0.2,0.1,0.3,0c0.7-0.5,1.3-1,1.9-1.5c0.1-0.1,0.3-0.2,0.4-0.4
						c0.5-0.4,0.8-0.9,1-1.4c0.1-0.2,0.1-0.4,0.2-0.6c0-0.4-0.2-0.8-0.5-1.1C311.7,501.7,311.5,501.7,311.2,501.7z M311.7,502.2
						c0.2,0.2,0.4,0.4,0.3,0.7c0,0.4-0.3,0.8-0.7,1.3c-0.3,0.4-0.8,0.8-1.3,1.3c-0.2,0.2-0.5,0.4-0.7,0.6c0-0.1,0.1-0.2,0.1-0.4
						c0-0.1,0.1-0.2,0.1-0.2c0.4-1.1,0.9-2.2,1.6-3.1c0.1-0.1,0.2-0.2,0.3-0.2C311.5,502.1,311.6,502.1,311.7,502.2z"/>
					<path class="st10" d="M306.5,501.7c-0.2,0.4-0.3,0.8-0.2,1.3c0.4,1.4,2.3,2.7,2.6,2.9c0,0,0,0,0,0c0,0,0,0,0,0
						c0.1,0,0.2,0,0.2,0c0,0,0.1-0.1,0.1-0.1c0,0,0-0.1,0-0.1c0,0,0,0,0,0c0-0.2,0-0.5-0.1-0.7c-0.2-1.4-0.9-3.4-1.8-3.7
						C307.1,501.1,306.8,501.1,306.5,501.7z M308.8,505.2c-0.6-0.4-1.8-1.4-2.1-2.4c-0.1-0.3,0-0.6,0.1-0.8l0.1-0.1
						c0.2-0.3,0.4-0.3,0.4-0.3C307.9,501.8,308.7,503.9,308.8,505.2z"/>
				</g>
				<path class="st15" d="M301,502.1l-7.2,7.8c0,0-30.5-26.1-33.4-33.9c-1.9,2.3-29.3,30.7-63.5,35.1c-0.4,0.1-0.9,0.1-1.3,0.1
					c-7,0.6-12.6-0.2-16.9-1.8c-10.9-4.1-13.9-13.7-13.1-21.8l0,0c0.1-3.8,0.9-10.6,0.9-10.6l39.8,0.3c11-7.3,43.3-18.9,46.8-19.8
					c0.8-0.2,1.6-0.3,2.3-0.4c0.8-0.1,1.6-0.2,2.4-0.2v0c5.4-0.2,10.2,1.8,13.3,7.3L301,502.1z"/>
				<g>
					<polygon class="st10" points="292.5,511.1 303.1,500.5 300.6,496.4 288.3,507.8 					"/>
					<polygon class="st22" points="292.5,511.1 303.1,500.5 300.6,496.4 288.3,507.8 					"/>
				</g>
				<path class="st15" d="M305.9,507.3l-5.8,7.7c-0.2,0.3-0.2,0.7,0,1l5.8,6.1c0.6,0.6,1.6,0.6,2.1,0c0,0,0.1-0.1,0.1-0.1
					c10.9-11.2,13.4-16.4,14.4-17.9c2.9-4.1-0.7-5.8-2-4.7c-5.8,4.8-8.2,5.5-11.5,6.2C307.5,506,306.2,506.8,305.9,507.3z"/>
				<g>
					<g>
						<g>
							<polygon class="st10" points="275.5,457.2 251.3,464.1 207.2,463 230,457 							"/>
							<g id="Monitor_Screen_1_">
								<g id="PC_1_">
									<g>
										<polygon class="st10" points="275.2,455.1 231.2,455.3 233.5,427.4 277.5,427.2 										"/>
										<path class="st15" d="M274.6,457.2l-43.4,0.2c-1.2,0-2.1-1-2-2.2l2.3-27.7c0.1-1.2,1.2-2.2,2.4-2.2l43.4-0.2
											c1.2,0,2.1,1,2,2.2L277,455C276.9,456.2,275.8,457.2,274.6,457.2z"/>
										<g>
											<polygon class="st10" points="275.2,455.1 231.2,455.3 233.5,427.4 277.5,427.2 											"/>
											<polygon class="st28" points="275.2,455.1 231.2,455.3 233.5,427.4 277.5,427.2 											"/>
										</g>
										<g>
											<polygon class="st29" points="239.9,425.2 231.5,457.4 234.4,457.4 242.7,425.2 											"/>
											<polygon class="st29" points="244.4,425.2 235.9,457.4 241.7,457.4 250,425.2 											"/>
										</g>
									</g>
								</g>
							</g>
							<g>
								<polygon class="st30" points="275.5,457.2 251.3,464.1 207.2,463 230,457 								"/>
								<polygon class="st10" points="207.2,463 209.7,465.2 249.8,466.3 251.3,464.1 								"/>
								<polygon class="st10" points="249.8,466.3 275,459 275.5,457.2 251.3,464.1 								"/>
							</g>
						</g>
					</g>
				</g>
				<g>
					<g>
						<path class="st27" d="M225.2,449.4l4.7,0l-2.7,6.4c0,0-2.5,0.8-4.8,0.5c-2.2-0.3-3.2-2.8-1.8-4.6l0,0
							C221.7,450.3,223.4,449.5,225.2,449.4z"/>
						<path class="st27" d="M234,453.4l-1.2,2.2c-0.4,0.7-1.2,1.1-1.9,0.9l-3.6-0.8l2.7-6.4l3.3,1.6c0.9,0.4,1.3,1.4,0.9,2.3
							C234,453.3,234,453.4,234,453.4z"/>
						<path class="st27" d="M181.8,446.5c3.6,4.4,8.6,8.2,14.6,9.8c7,1.9,20.7,1.2,27.4-0.3l0-5.2c-2.7-0.6-27.4,1.7-36.3-13.5
							c-1.6-2.8-8-14.3-11.4-15.6c-5.6-2.2-7.7,3.7-6.4,7.2C171.2,432.9,178.9,443,181.8,446.5z"/>
					</g>
					<g class="st20">
						<polygon points="230.9,449.9 230.9,449.9 230.9,449.9 						"/>
					</g>
				</g>
				<g>
					<path class="st10" d="M207.2,427.3c7.5,16.8-10.2,21.5-2.3,48.9l-38.3,0.7c0.4-14.7,5.6-11.5-1.2-39.2c-0.6-2.3-1.5-9.1,1-15.2
						c1-2.4,2.7-4.4,5-5.6c2.8-1.5,15.3-0.2,21,0.2C198.7,416.3,206.1,425.2,207.2,427.3z"/>
					<path class="st10" d="M207.2,427.3c7.5,16.8-10.2,21.5-2.3,48.9l-38.3,0.7c0.4-14.7,5.6-11.5-1.2-39.2c-0.6-2.3-1.5-9.1,1-15.2
						c1-2.4,2.7-4.4,5-5.6c2.8-1.5,15.3-0.2,21,0.2C198.7,416.3,206.1,425.2,207.2,427.3z"/>
				</g>
				<path class="st15" d="M200.1,394c-0.1,0.7,0.2,1.3,0.6,1.4c0.5,0.1,0.9-0.4,1-1.1c0.1-0.7-0.2-1.3-0.6-1.4
					C200.7,392.8,200.2,393.3,200.1,394z"/>
				<path class="st15" d="M201,392.9l1.8-0.2C202.7,392.7,201.6,393.9,201,392.9z"/>
				<path class="st31" d="M200.2,395c0,0,0.7,3.2,1.8,4.9c-1.1,0.7-2.6,0.1-2.6,0.1L200.2,395z"/>
				<path class="st15" d="M202.7,389.1c0.1-0.1,0.2-0.2,0.3-0.3c0-0.2-0.1-0.4-0.3-0.5c-1.3-0.2-2.7,0.2-3.6,1.1
					c-0.2,0.2-0.2,0.4,0,0.6c0.2,0.2,0.4,0.2,0.6,0c0,0,0,0,0.1-0.1c0.8-0.7,1.8-1,2.9-0.9C202.6,389.2,202.6,389.2,202.7,389.1z"/>
				<path class="st27" d="M177,388.1c-0.8,8.7-1.3,12.4,2.4,17.5c5.5,7.7,16.4,6.7,19.8-1.6c3-7.5,3.8-20.5-4.1-25.2
					c-5.6-3.4-13-1.6-16.4,4.1C177.7,384.4,177.1,386.2,177,388.1z"/>
				<path class="st15" d="M199.4,403.5c-0.7-0.6-1.2-1.3-1.4-2.1c0-0.1,0-0.2,0.1-0.2c0.1,0,0.2,0,0.2,0.1c0.3,0.7,0.7,1.4,1.2,1.9
					L199.4,403.5z"/>
				<g>
					<g>
						<path class="st15" d="M181.4,405.2c0,0-2.5,1.1-2.2,3.6l1.9-2.6L181.4,405.2z"/>
					</g>
					<g>
						<path class="st15" d="M181.5,405.3c0,0-1.9,2-0.7,4.2l0.8-3.1L181.5,405.3z"/>
					</g>
				</g>
				<path class="st15" d="M200.8,379.3c-0.4-1.6-3.1-1.2-4.8-1.6c-0.8-0.2-1.7-0.4-2.4,0.1c-0.7,0.4-1,1.3-1,2.1
					c0,0.8,0.3,1.6,0.6,2.3c1.1,2.9,1.6,5.9,2.3,9c0.7,2.9,0.2,6.5,0.2,6.5C196.9,397.2,203,388.8,200.8,379.3z"/>
				<path class="st15" d="M196.3,378.1c-5.1-3.1-11.5-4.1-17.2-2.3c-5.7,1.9-10.3,6.8-11.3,12.7c-0.6,3.7,0.2,7.6,1.7,11.1
					c1.5,3.5,3.6,6.6,5.8,9.8c-0.3,3.6-3.4,6.6-5.6,9.5c-2.2,3.1-3.8,6.9-3.6,10.7c0.2,3.8,2.3,7.7,5.9,9.2c1.4,0.6,1.1,3.1,0.3,4.4
					c1.1,0.1,1.9-0.9,2-2c-0.3,0.8-0.7,2-1,2.8c0.2-0.4,0.6-0.5,1-0.6c0.4,0,0.8,0,1.2-0.1c0.8-0.2,1.3-1,1.8-1.7
					c1.3-2.1,2.6-4.3,2.6-6.7c0-1.2-0.3-2.3-1-3.3c0.5-0.5,1.3-0.3,2,0.1c0.6,0.5,1,1.2,1.2,1.9c0.3,0.9,0.4,1.9,0.4,2.9
					c3-4.3,3.1-11,0.9-15.8c-0.7-1.6-1.8-3.3-1.2-4.9c0.7-1.9,0-4.3,1.4-5.8c3.5-0.3,5.7-3.5,7.3-6.5
					C195.1,395.9,196.8,386.9,196.3,378.1z"/>
				<path class="st27" d="M188.3,394.1c-0.1,2,0.6,4,1.9,5.5c1.8,2,4.1,0.7,4.8-1.7c0.6-2.2,0.4-5.9-2-6.9
					C190.7,389.8,188.4,391.6,188.3,394.1z"/>
				<path class="st11" d="M166.4,474l-0.9,3.5c-0.1,0.3,0.2,0.5,0.6,0.5l39.4-0.7c0.3,0,0.6-0.2,0.6-0.4l-1-3.6
					c0-0.2-0.3-0.4-0.7-0.4l-37.5,0.9C166.7,473.7,166.5,473.8,166.4,474z"/>
				<path class="st10" d="M201.4,477.7l-1,0.1c-0.2,0-0.4-0.1-0.4-0.2l0-4.5c0-0.1,0.2-0.3,0.4-0.3l1-0.1c0.2,0,0.4,0.1,0.4,0.2
					l0,4.5C201.8,477.5,201.6,477.7,201.4,477.7z"/>
				<g>
					<path class="st10" d="M187.3,477.8l-1,0.1c-0.2,0-0.4-0.1-0.4-0.2l0-4.5c0-0.1,0.2-0.3,0.4-0.3l1-0.1c0.2,0,0.4,0.1,0.4,0.2
						l0,4.5C187.7,477.6,187.5,477.7,187.3,477.8z"/>
					<path class="st10" d="M187.3,477.8l-1,0.1c-0.2,0-0.4-0.1-0.4-0.2l0-4.5c0-0.1,0.2-0.3,0.4-0.3l1-0.1c0.2,0,0.4,0.1,0.4,0.2
						l0,4.5C187.7,477.6,187.5,477.7,187.3,477.8z"/>
				</g>
				<path class="st13" d="M190.7,428c0,0-2.1,4.2,3.8,15.4l2.5,4.6l0,0c0.8,1.5,6.3-1.5,8-4.3l0,0C205,443.6,194.5,437.3,190.7,428z
					"/>
				<g>
					<path class="st27" d="M246.1,449.6l4.3,0.2l-2.8,5.8c0,0-6.8,1.7-7.4-2.4l1.4-1.7C242.8,450.3,244.4,449.6,246.1,449.6z"/>
					<path class="st27" d="M254.1,453.8l-1.3,2c-0.4,0.6-1.1,0.9-1.8,0.7l-3.4-0.9l2.8-5.8l3,1.6c0.8,0.4,1.1,1.4,0.7,2.2
						C254.1,453.7,254.1,453.8,254.1,453.8z"/>
					<path class="st27" d="M206.5,452c2.9,4,6.9,7.6,11.7,8.2c3.8,0.5,21.6-2.3,24.2-4.8v-4.2c0,0-18.6,0.1-21-0.2
						c-3.5-0.4-5.7-2.7-8.6-7.8c-1.5-2.5-6.2-13-8-15.3c-2.9-3.7-11.2-1.1-8,7.8C198.2,439.6,204.2,448.8,206.5,452z"/>
				</g>
				<g>
					<path class="st10" d="M203.6,421.8c5.8,5.4,8.6,15,8.6,15l-13.8,8.3c0,0-10-14.2-8.1-19.1c1.4-3.8,4.1-6.3,7.5-6.5
						C200,419.4,202.1,420.3,203.6,421.8z"/>
				</g>
				<path class="st10" d="M171.8,478.2l-1,0c-0.2,0-0.4-0.1-0.4-0.2l0.4-4.5c0-0.1,0.2-0.2,0.4-0.2l1,0c0.2,0,0.4,0.1,0.4,0.2
					l-0.4,4.5C172.1,478.1,172,478.2,171.8,478.2z"/>
			</g>
		</g>
	</g>
	<g>
		<g>
			<g>
				<g>
					<g>
						<path class="st32" d="M221.3,802.2l7.5,5.2l6.1-7.3l-5.8-0.6c-1.4-0.1-2.8-0.4-4.1-0.9l0,0L221.3,802.2z"/>
						<path class="st32" d="M234.9,800.1l-7.5,6.3l4.4,3.5c0.5,0.4,1.2,0.3,1.6-0.2l5.4-5c0.2-0.3,0.2-0.6,0-0.9L234.9,800.1z"/>
					</g>
					<path class="st32" d="M207.4,761.8l-4.2,17.9l23.3,19.5l-2.5,4.3c0,0-25.8-11.6-29.4-18.1c-3.7-6.5,4.1-30.2,4.1-30.2
						L207.4,761.8z"/>
					<path class="st15" d="M201.4,752.2c3.2,1.6,10.8,7.1,4.3,26l-13.4-1.8C193.9,764.5,196.3,750.6,201.4,752.2z"/>
					<path class="st16" d="M201.4,752.2c3.2,1.6,10.8,7.1,4.3,26l-13.4-1.8C193.9,764.5,196.3,750.6,201.4,752.2z"/>
				</g>
				<g>
					<g>
						<g>
							<g>
								<path class="st10" d="M159.3,807.3l-1.5,6.1c0,0-14.9-4.5-19.9,8c-5,12.5,8,39.1,47.6,29.9c0,0,10.7,2.9,19.8,0.6
									c13.5-3.4,30.7-11.3,32.6-23.9c3.1-21-38.7-13.6-38.7-13.6l-1.6-3.9L159.3,807.3z"/>
								<path class="st16" d="M164.5,816.2c0,0,9.4,4.7,12.8,12.7l4,1.5C181.3,830.3,178.9,819.5,164.5,816.2z"/>
								<path class="st10" d="M194.9,836.2c0,0,0.3-13.4,13.7-23.8l10.4,0l-20.1,26.3L194.9,836.2z"/>
								<path class="st10" d="M137.5,822.5c0,0-3.7,10.8,10.6,22.9c14.4,12.1,22.1-4,22.1-4l1.1-6.1l-9.8-8.8l-12.5-8.4l-6.8,0.8
									L137.5,822.5z"/>
								<path class="st32" d="M137.4,824c0,0,1.2,14.8,16.1,21.9c12.3,5.9,15.5-10.7,15.5-10.7l-22.7-14.8l-8.4,1.1L137.4,824z"/>
								<path class="st33" d="M137.4,824c0,0,1.2,14.8,16.1,21.9c12.3,5.9,15.5-10.7,15.5-10.7l-22.7-14.8l-8.4,1.1L137.4,824z"/>
								<path class="st15" d="M235.8,863.5c-3.9-6.5-8-8.5-11.7-10.1c-0.5-0.3-1-0.7-1.3-1.2c-0.1-0.2-0.2-0.4-0.3-0.6l-2.5-8.3
									c-0.1-0.1-0.1-0.3-0.1-0.5c0-0.2,0.1-0.4,0.3-0.5l7.1-4.1c0.6-0.5,1.5-0.3,1.9,0.3c0.1,0.1,0.1,0.2,0.2,0.3
									c1.4,3.4,2.6,6.6,4.4,10.8c2.2,5,2.2,3.5,4.9,9.3C240.5,862.5,236.7,864.9,235.8,863.5z"/>
								<path class="st32" d="M210.5,813.9c0,0,35.8-7.8,41.5,3.6c5.7,11.4-14.6,18.9-21.8,21.5c-12.6,4.4-56.2,18.1-56.2,18.1
									l2.8-8.9l20.8-11.8C197.7,836.4,198.6,824.4,210.5,813.9z"/>
								<path class="st15" d="M176.9,856l3.1-9.4c0.1-0.4,0-0.7-0.3-0.9l-7.1-4.2c-0.6-0.4-1.4-0.2-1.8,0.4c0,0.1-0.1,0.2-0.1,0.3
									c-1.1,3.4-1.9,6.5-3.3,10.7c-1.6,5-1.8,3.5-3.8,9.3c-1.2,3.5,2.6,5.5,3.3,4c3.1-6.6,5.4-6.6,8.7-8.4
									C176.2,857.4,176.7,856.8,176.9,856z"/>
								<path class="st33" d="M226.5,817.2c-0.3-1.3-20.2,11.3-26.3,10.6c-1,2.2-1.6,4.1-2,5.6l0,0c-0.1,0.4-0.2,0.7-0.2,1
									c0,0,0,0.1,0,0.1c0,0.1,0,0.2-0.1,0.3c0,0.1,0,0.1,0,0.2c0,0.1,0,0.2,0,0.3c0,0.1,0,0.1,0,0.2c0,0.1,0,0.1,0,0.2
									c0,0.1,0,0.1,0,0.2c0,0.1,0,0.1,0,0.1c0,0,0,0.1,0,0.1c0,0,0,0.1,0,0.1c0,0,0,0.1,0,0.1c0,0,0,0,0,0c0,0,0,0,0,0
									c0,0,0,0,0,0l-19.5,11.1l15.3,3.5c9.1-2.9,19.7-6.3,27.7-8.9l-20.2-7.6C208.5,829.7,226.8,818.3,226.5,817.2z"/>
								<path class="st32" d="M222.9,852.2c-11.1-1.4-32.1-4.1-39.3-5.7c-13.1-2.8-56.1-13.9-45.2-28.6c11.4-15.3,34.3,8,34.3,8
									l47.2,17c0,0.2,0,0.3,0.1,0.5l2.5,8.3C222.7,851.9,222.8,852.1,222.9,852.2z"/>
								<path class="st33" d="M154.5,817.3c-3.4,1.5,18.2,8.6,18.2,8.6s-3.9-3.9-9.2-7.5C160.2,817.1,156.8,816.3,154.5,817.3z"/>
							</g>
						</g>
					</g>
				</g>
				<g>
					<g>
						<g>
							<g>
								<g id="Character--inject-2_3_">
									<path class="st15" d="M191,747.9l-9-2.1l-11.4-0.1c-3.6,0-6.7,2.3-7.7,5.8c-1.9,6.7-3.5,16.4-4.6,24.8
										c-1.3,9.4,0.3,20.1,0.6,32.8l40.8,1.6c-2.2-18.6,1.5-34.8,3.9-44.6c0.5-6,0.1-13.1-3.2-14.5L191,747.9z"/>
									<path class="st18" d="M158.3,776.2c0.9-6.6,2.1-14,3.5-20.1c7.5-1.6,11.9,14.9,10,23.3c-1.9,8.4-14.2,3.8-14.2,3.8
										C157.8,780.7,158,778.3,158.3,776.2z"/>
									<path class="st10" d="M170.9,740.2c2,1.5,4,2.1,6.3,1.2c-0.8,1.1-2.3,1.9-3.6,2.2c2.4,1.5,5.7,1.4,7.9-0.2
										c-0.9,0.8-2,1.9-2.9,2.7c4.5,1.2,9.6,0.1,13.3-2.9c3.6-3,5.7-7.7,5.5-12.4c-0.1-2-3.1-3-5-3.7c-1.9-0.7-3.9-0.8-5.9-0.6
										c-2,0.3-2.7,0.9-4.6,1.5C181.9,727.7,181.3,738.6,170.9,740.2z"/>
									<path class="st32" d="M185,731.2l3.7,5.1l5,7c-0.6,0.6-1,1.4-1.4,2.2c-0.8,1.8-1.5,3.1,2.3,5.4c0.8,0.5,1.3,1.4,1.2,2.3
										c-0.2,1.1-1.2,2.3-5.2,1.7c-3.8-0.6-7.3-2.3-10.1-5.1c-1.4-1.3-1.1-2.2,0.1-3.7C184,742.3,184.9,736.1,185,731.2z"/>
									<path class="st20" d="M192.4,741.6l-3.1-5c-0.1,0.1-0.1,0.3-0.2,0.4c-0.2,0.6-0.4,1.3-0.5,2c-0.4,2.3,1.5,5.5,3.5,6.9
										l0.2-0.5c0.3-0.8,0.7-1.5,1.2-2.1c0,0,0.1-0.1,0.1-0.1L192.4,741.6z"/>
									<path class="st15" d="M198.9,731.5c4.2-6.2,4-10,7.7-13.1c1.8-0.6,4.5,3.1,1.8,8.3C205.6,731.9,198.9,731.5,198.9,731.5z"
										/>
									<path class="st32" d="M186.2,722.4c-1.4,7.6-2.5,12,0.4,16.7c4.4,7.1,14.5,5.7,18-1.4c3.2-6.4,4.8-17.8-1.8-22.4
										c-4.9-3.3-11.6-2.1-14.9,2.8C187,719.4,186.4,720.9,186.2,722.4z"/>
									<path class="st10" d="M184.4,729.1l3.8,3l1.4-6.6l3.6-1.5l4.9-5.7c0,0-8.6-3.8-11.3-4.5c-0.9-0.2-4.5,1.9-5.2,2.9
										c-1.8,2.9-1.5,6.5,0.3,9.3C182.7,727.2,183.5,728.2,184.4,729.1z"/>
									<path class="st32" d="M181.7,727.5c0,1.7,0.6,3.4,1.8,4.7c1.5,1.6,3.7,0.2,4.1-2c0.4-1.9-0.3-4.9-2.2-5.7
										C183.4,723.7,181.7,725.3,181.7,727.5z"/>
									<path class="st15" d="M197.3,728.1c-0.2,0.6,0,1.2,0.4,1.4c0.4,0.1,0.8-0.3,1-0.9c0.2-0.6,0-1.2-0.4-1.4
										C197.9,727.1,197.4,727.5,197.3,728.1z"/>
									<path class="st15" d="M204.2,730.3c-0.2,0.6,0,1.2,0.4,1.4c0.4,0.1,0.9-0.3,1-0.9c0.2-0.6,0-1.2-0.4-1.4
										C204.8,729.4,204.4,729.7,204.2,730.3z"/>
									<path class="st34" d="M201.8,730.1c0,1.8,0.3,3.6,0.9,5.4c-1.2,0.5-2.6-0.5-2.6-0.5L201.8,730.1z"/>
									<path class="st15" d="M198.5,738.4c-1.5-0.4-2.7-1.4-3.4-2.7c0-0.1,0-0.2,0.1-0.3c0.1,0,0.2,0,0.3,0.1
										c0.8,1.4,2.2,2.4,3.8,2.7c0.1,0,0.2,0.1,0.2,0.2c0,0.1-0.1,0.2-0.2,0.2c0,0,0,0,0,0C199,738.6,198.7,738.5,198.5,738.4z"/>
									<path class="st15" d="M196.5,725.5c-0.1,0-0.1-0.1-0.1-0.1c-0.1-0.2-0.1-0.4,0.1-0.5c1-0.7,2.2-0.9,3.4-0.5
										c0.2,0.1,0.3,0.3,0.2,0.5c0,0,0,0,0,0c-0.1,0.2-0.3,0.3-0.5,0.2c-0.9-0.3-1.9-0.2-2.6,0.4
										C196.8,725.6,196.6,725.6,196.5,725.5z"/>
									<path class="st15" d="M205.4,726.3c0-0.1,0-0.1,0-0.2c0.1-0.2,0.3-0.3,0.5-0.2c1.1,0.4,2,1.3,2.3,2.5
										c0,0.2-0.1,0.4-0.3,0.4c-0.2,0-0.4-0.1-0.4-0.3c-0.3-0.9-0.9-1.6-1.8-1.9C205.5,726.6,205.4,726.5,205.4,726.3z"/>
								</g>
								<g>
									<path class="st10" d="M202.6,814.2l-24.9-2.4c0,0-0.1-0.5,2.1-0.6c0.1,0,0.3,0,0.6,0c0.4,0,2.1-0.1,4.4-0.2
										c0.1,0,0.4,0,0.7,0c6.5-0.3,16.8-0.7,16.8-0.7l0.3,3.4L202.6,814.2z"/>
									<path class="st30" d="M202.6,813.5l-18.7-1.9c0,0-0.8-0.5,0.9-0.7c0.1,0,0.4,0,0.7,0c6.5-0.3,16.8-0.7,16.8-0.7
										L202.6,813.5z"/>
								</g>
								<g>
									<path class="st32" d="M190.8,803.7l3.8,1l-5,7.7c0,0-7.9-2.5-6.5-5.9l1.9-1.2C186.7,804.2,188.8,803.1,190.8,803.7z"/>
									<polygon class="st32" points="198.1,809.7 194.5,813.5 189.6,812.3 194.6,804.6 									"/>
									<g>
										<path class="st32" d="M169.1,772.3c-2.3,7.1-4.9,8-2,11.7c2.9,3.7,19.1,16.4,22.1,20.2c-1.7,1.3-3.4,2.6-5.1,3.9
											c-6-3.3-12-6.6-18.1-9.7c-4.4-2.3-9.1-4.9-11.4-9.3c-3.3-6.3-1.4-12.4,2.2-20.6C160.5,767.9,169.1,772.3,169.1,772.3z"/>
									</g>
								</g>
							</g>
							<path class="st15" d="M168.1,745.9c8-1.5,12.2,5.2,8.9,15.6c-1.7,5.7-2.7,8.6-5.4,13.9l-18.9-4.4
								C155.3,760.7,159.9,747.5,168.1,745.9z"/>
							<g>
								<g>
									<g>
										<path class="st15" d="M197.2,815.4l45.2-1.8c0.5,0,0.9-0.4,0.9-0.9l0,0c0-0.5-0.3-0.8-0.8-0.8l-45.2,1.8
											c-0.5,0-0.9,0.4-0.9,0.9l0,0C196.4,815.1,196.7,815.5,197.2,815.4z"/>
										<path class="st10" d="M175.5,813.2l21.4,2.2c0.5,0,0.9-0.3,1-0.8l0,0c0.1-0.5-0.2-0.9-0.7-0.9l-21.4-2.2
											c-0.5,0-0.9,0.3-1,0.8l0,0C174.7,812.7,175,813.2,175.5,813.2z"/>
										<path class="st19" d="M175.5,813.2l21.4,2.2c0.5,0,0.9-0.3,1-0.8l0,0c0.1-0.5-0.2-0.9-0.7-0.9l-21.4-2.2
											c-0.5,0-0.9,0.3-1,0.8l0,0C174.7,812.7,175,813.2,175.5,813.2z"/>
									</g>
									<g>
										<path class="st10" d="M198.5,813.7l42.2-1.7c1.5-0.1,2.9-1.3,3.1-2.8l2.9-21.3c0.2-1.5-0.9-2.7-2.3-2.6l-42.2,1.7
											c-1.5,0.1-2.9,1.3-3.1,2.8l-2.9,21.3C196,812.6,197,813.8,198.5,813.7z"/>
										<path class="st19" d="M198.5,813.7l42.2-1.7c1.5-0.1,2.9-1.3,3.1-2.8l2.9-21.3c0.2-1.5-0.9-2.7-2.3-2.6l-42.2,1.7
											c-1.5,0.1-2.9,1.3-3.1,2.8l-2.9,21.3C196,812.6,197,813.8,198.5,813.7z"/>
									</g>
									<g>
										<path class="st10" d="M199.8,813.6l42.2-1.7c1.5-0.1,2.9-1.3,3.1-2.8l2.9-21.3c0.2-1.5-0.9-2.7-2.3-2.6l-42.2,1.7
											c-1.5,0.1-2.9,1.3-3.1,2.8l-2.9,21.3C197.2,812.4,198.3,813.6,199.8,813.6z"/>
										<path class="st22" d="M199.8,813.6l42.2-1.7c1.5-0.1,2.9-1.3,3.1-2.8l2.9-21.3c0.2-1.5-0.9-2.7-2.3-2.6l-42.2,1.7
											c-1.5,0.1-2.9,1.3-3.1,2.8l-2.9,21.3C197.2,812.4,198.3,813.6,199.8,813.6z"/>
									</g>
								</g>
							</g>
						</g>
					</g>
				</g>
			</g>
			<path class="st15" d="M179.8,706.6c-1.1,1.4-1.8,3.1-1.4,4.8c0.2,1,1.6-1.3,1.8-0.3c0.4,2-0.4,4-0.8,6c-0.8,4,0.1,8.3,2.5,11.5
				c-0.1-0.1-0.2-0.2-0.3-0.3c4.4-3.2,9.6-5.1,14.9-6.5c2.2-0.6,4.6-1.3,6.8-0.6c5,1.7,5.1,5.4,5.1,5.4c3.4-6-0.5-14.9-5.1-20
				S180.9,705.3,179.8,706.6z"/>
		</g>
		<path class="st10" d="M206.2,716.6c0.2,1.4,0.1,2.4,0.3,3.7c-1.9-1.7-4.8-2.6-7.3-2.2c0.2-1,0-2.1-0.5-3.1
			C201.4,714.4,203.9,714.9,206.2,716.6z"/>
	</g>
	<g>
		<g>
			<g id="freepik--speech-bubbles--inject-120_1_">
				<g>
					<path class="st11" d="M392.2,446.7l108-0.6c3.1-0.1,5.8,2.3,5.9,5.5c0,0.3,0,0.6,0,0.9l-5.3,49.7c-0.5,3.6-3.6,6.4-7.2,6.5
						l-44.9,0.5c-11.6,14.3-28.5,16.6-28.5,16.6s10.3-9.5,12.8-16.5l-47.4,0.1c-3.1,0.1-5.8-2.3-5.9-5.5c0-0.3,0-0.6,0-0.9l5.3-49.7
						C385.5,449.6,388.6,446.8,392.2,446.7z"/>
					<path class="st10" d="M417.9,526.8l1.8-1.6c0.1-0.1,9.3-8.6,12.2-15.2l-46.3,0.1c-1.7,0.1-3.3-0.5-4.6-1.7
						c-1.3-1.2-2-2.8-2.1-4.5c0-0.4,0-0.7,0-1.1l5.3-49.6c0.5-4.1,3.9-7.1,8-7.2h0l108-0.6c1.7-0.1,3.3,0.5,4.6,1.7
						c1.3,1.2,2,2.8,2.1,4.5c0,0.4,0,0.7,0,1.1l-5.3,49.6c-0.5,4.1-3.9,7-8,7.1l-44.6,0.5c-11.6,14.1-28.6,16.6-28.7,16.6
						L417.9,526.8z M434,508.4l-0.3,1c-1.8,5.3-8,11.9-11.1,15c5.1-1.3,16.8-5.2,25.5-15.8l0.2-0.3l45.3-0.5
						c3.3-0.1,6.1-2.5,6.5-5.8l5.3-49.6c0-0.3,0-0.6,0-0.8c-0.1-1.3-0.6-2.5-1.6-3.4c-1-0.9-2.2-1.4-3.5-1.3l-108,0.6
						c-3.3,0.1-6.1,2.5-6.5,5.8l-5.3,49.6c0,0.3,0,0.6,0,0.8c0.1,1.3,0.6,2.5,1.6,3.4c1,0.9,2.2,1.3,3.5,1.3L434,508.4z"/>
				</g>
			</g>
			<g>
				<g>
					<line class="st11" x1="456.2" y1="457.6" x2="407.5" y2="457.6"/>
					<rect x="407.5" y="456.8" class="st10" width="48.7" height="1.5"/>
				</g>
				<g>
					<line class="st11" x1="419.9" y1="470.6" x2="393.2" y2="470.6"/>
					<rect x="393.2" y="469.8" class="st10" width="26.7" height="1.5"/>
				</g>
				<g>
					<line class="st11" x1="456.6" y1="470.6" x2="429.4" y2="470.6"/>
					<rect x="429.4" y="469.8" class="st10" width="27.2" height="1.5"/>
				</g>
				<g>
					<line class="st11" x1="459.5" y1="483.6" x2="391.7" y2="483.6"/>
					<rect x="391.7" y="482.8" class="st10" width="67.8" height="1.5"/>
				</g>
				<g>
					<line class="st11" x1="408.3" y1="496.5" x2="390.7" y2="496.5"/>
					<rect x="390.7" y="495.8" class="st10" width="17.6" height="1.5"/>
				</g>
			</g>
		</g>
		<g>
			<path class="st10" d="M493.9,469.9c-0.4,2.1-1.3,4-2.6,5.5c-1.4,1.5-3,2.8-4.9,3.9c-1.9,1.1-3.9,2-5.9,2.8
				c-2.1,0.8-4,1.5-5.8,2.2c-1.8,0.7-3.3,1.3-4.6,2c-1.2,0.7-1.9,1.5-2.1,2.4c-0.1,0.3,0.2,0.6,0.7,0.8c0.5,0.2,1.5,0.3,2.8,0.3
				c0.2,0,0.4,0.2,0.4,0.6c0.1,0.4,0,0.9-0.1,1.4c-0.1,0.5-0.2,0.9-0.4,1.3c-0.2,0.4-0.4,0.5-0.7,0.5c-1.5,0-2.7-0.1-3.5-0.4
				c-0.8-0.2-1.4-0.6-1.8-0.9c-0.4-0.4-0.6-0.8-0.6-1.3c0-0.5,0-0.9,0-1.4c0.4-2.1,1.1-3.7,2.1-5s2.3-2.3,3.7-3.2
				c1.4-0.9,2.9-1.7,4.5-2.4c1.6-0.7,3.1-1.6,4.5-2.5c1.4-1,2.7-2.1,3.7-3.6c1.1-1.4,1.8-3.3,2.2-5.6c0.3-1.5,0.2-2.7-0.1-3.8
				c-0.3-1.1-0.8-2-1.6-2.8c-0.8-0.7-1.7-1.3-2.8-1.7c-1.1-0.4-2.3-0.6-3.6-0.6c-1.6,0-3.1,0.2-4.6,0.7c-1.5,0.5-2.8,1.2-4,2
				s-2.2,2-3,3.3c-0.8,1.3-1.3,2.7-1.6,4.4c-0.1,0.6-0.1,1.2-0.1,1.8c0,0.6,0.1,1.2,0.3,1.7c0.2,0.5,0.5,1,1,1.3s1,0.5,1.8,0.5
				l2.4-0.5c0.6,0,1,0.2,1.2,0.6c0.2,0.4,0.2,0.8,0.1,1.2c-0.1,0.5-0.3,1-0.6,1.4c-0.3,0.4-0.7,0.8-1.1,1.1
				c-0.4,0.3-0.9,0.5-1.4,0.7s-1,0.3-1.4,0.3c-1.3,0-2.4-0.4-3.4-1.1c-1-0.7-1.7-1.7-2.3-2.8c-0.6-1.1-0.9-2.3-1.1-3.7
				c-0.2-1.3-0.2-2.6,0-3.8c0.3-1.9,1.1-3.6,2.4-5.2c1.2-1.5,2.7-2.8,4.4-3.9c1.7-1.1,3.5-1.9,5.4-2.5c1.9-0.6,3.7-0.9,5.3-0.9
				c2.2,0,4.4,0.3,6.6,0.9c2.2,0.6,4.1,1.5,5.7,2.7c1.6,1.2,2.9,2.7,3.8,4.5C494.1,465.3,494.3,467.4,493.9,469.9z M470.1,498.8
				c-0.1,0.8-0.5,1.5-1,2.2c-0.5,0.7-1.4,1.1-2.6,1.1c-1.1,0-1.8-0.3-2.1-0.9c-0.3-0.6-0.4-1.3-0.3-2.3c0.2-1.1,0.6-2,1.1-2.6
				c0.5-0.7,1.5-1,2.8-1c0.8,0,1.4,0.3,1.7,0.8C470.1,496.7,470.2,497.6,470.1,498.8z"/>
		</g>
	</g>
</g>
</svg>
