<?xml version="1.0" encoding="utf-8"?>
<!-- Generator: Adobe Illustrator 23.0.0, SVG Export Plug-In . SVG Version: 6.00 Build 0)  -->
<svg version="1.1" id="Layer_1" xmlns="http://www.w3.org/2000/svg" xmlns:xlink="http://www.w3.org/1999/xlink" x="0px" y="0px"
	 viewBox="0 0 848.7 453.6" style="enable-background:new 0 0 848.7 453.6;" xml:space="preserve">
<style type="text/css">
	.st0{fill:#FFFFFF;}
	.st1{fill:#664326;}
	.st2{opacity:0.2;}
	.st3{fill:#FF8A4B;}
	.st4{opacity:0.2;fill:#664326;}
	.st5{fill:#FFD052;}
	.st6{opacity:0.3;}
	.st7{fill:#FFB060;}
	.st8{fill:#F69E4E;}
	.st9{fill:#FF8585;}
	.st10{fill:#FFBA00;}
	.st11{opacity:0.1;fill:#664326;}
	.st12{fill:#4C341C;}
</style>
<g>
	<g>
		<path class="st0" d="M135.5,112.8c3,0,5.9,0,8.9,0c1.1,0,1.1-1.7,0-1.7c-3,0-5.9,0-8.9,0C134.4,111.1,134.4,112.8,135.5,112.8
			L135.5,112.8z"/>
		<path class="st0" d="M140.8,116.4c0-3,0-5.9,0-8.9c0-1.1-1.7-1.1-1.7,0c0,3,0,5.9,0,8.9C139.1,117.5,140.8,117.5,140.8,116.4
			L140.8,116.4z"/>
	</g>
	<g>
		<path class="st0" d="M724.4,155.3c3,0,5.9,0,8.9,0c1.1,0,1.1-1.7,0-1.7c-3,0-5.9,0-8.9,0C723.4,153.7,723.4,155.3,724.4,155.3
			L724.4,155.3z"/>
		<path class="st0" d="M729.7,158.9c0-3,0-5.9,0-8.9c0-1.1-1.7-1.1-1.7,0c0,3,0,5.9,0,8.9C728,160,729.7,160,729.7,158.9
			L729.7,158.9z"/>
	</g>
	<g>
		<path class="st0" d="M155.6,78.5c3,0,5.9,0,8.9,0c1.1,0,1.1-1.7,0-1.7c-3,0-5.9,0-8.9,0C154.5,76.8,154.5,78.5,155.6,78.5
			L155.6,78.5z"/>
		<path class="st0" d="M160.9,82.1c0-3,0-5.9,0-8.9c0-1.1-1.7-1.1-1.7,0c0,3,0,5.9,0,8.9C159.2,83.2,160.9,83.2,160.9,82.1
			L160.9,82.1z"/>
	</g>
	<g>
		<path class="st0" d="M655.6,311.3c3,0,5.9,0,8.9,0c1.1,0,1.1-1.7,0-1.7c-3,0-5.9,0-8.9,0C654.5,309.7,654.5,311.3,655.6,311.3
			L655.6,311.3z"/>
		<path class="st0" d="M660.9,315c0-3,0-5.9,0-8.9c0-1.1-1.7-1.1-1.7,0c0,3,0,5.9,0,8.9C659.2,316,660.9,316,660.9,315L660.9,315z"
			/>
	</g>
	<g>
		<path class="st0" d="M216.5,271.1c3,0,5.9,0,8.9,0c1.1,0,1.1-1.7,0-1.7c-3,0-5.9,0-8.9,0C215.4,269.4,215.4,271.1,216.5,271.1
			L216.5,271.1z"/>
		<path class="st0" d="M221.8,274.7c0-3,0-5.9,0-8.9c0-1.1-1.7-1.1-1.7,0c0,3,0,5.9,0,8.9C220.1,275.8,221.8,275.8,221.8,274.7
			L221.8,274.7z"/>
	</g>
	<g>
		<path class="st0" d="M574.5,207.6c3,0,5.9,0,8.9,0c1.1,0,1.1-1.7,0-1.7c-3,0-5.9,0-8.9,0C573.4,206,573.4,207.6,574.5,207.6
			L574.5,207.6z"/>
		<path class="st0" d="M579.8,211.3c0-3,0-5.9,0-8.9c0-1.1-1.7-1.1-1.7,0c0,3,0,5.9,0,8.9C578.1,212.3,579.8,212.3,579.8,211.3
			L579.8,211.3z"/>
	</g>
	<g>
		<path class="st0" d="M596.5,42.8c3,0,5.9,0,8.9,0c1.1,0,1.1-1.7,0-1.7c-3,0-5.9,0-8.9,0C595.4,41.1,595.4,42.8,596.5,42.8
			L596.5,42.8z"/>
		<path class="st0" d="M601.8,46.4c0-3,0-5.9,0-8.9c0-1.1-1.7-1.1-1.7,0c0,3,0,5.9,0,8.9C600.1,47.5,601.8,47.5,601.8,46.4
			L601.8,46.4z"/>
	</g>
	<g>
		<path class="st0" d="M259.9,159.8c3,0,5.9,0,8.9,0c1.1,0,1.1-1.7,0-1.7c-3,0-5.9,0-8.9,0C258.9,158.1,258.9,159.8,259.9,159.8
			L259.9,159.8z"/>
		<path class="st0" d="M265.2,163.4c0-3,0-5.9,0-8.9c0-1.1-1.7-1.1-1.7,0c0,3,0,5.9,0,8.9C263.6,164.5,265.2,164.5,265.2,163.4
			L265.2,163.4z"/>
	</g>
	<g>
		<path class="st0" d="M44.9,271.9c3,0,5.9,0,8.9,0c1.1,0,1.1-1.7,0-1.7c-3,0-5.9,0-8.9,0C43.8,270.2,43.8,271.9,44.9,271.9
			L44.9,271.9z"/>
		<path class="st0" d="M50.2,275.5c0-3,0-5.9,0-8.9c0-1.1-1.7-1.1-1.7,0c0,3,0,5.9,0,8.9C48.5,276.6,50.2,276.6,50.2,275.5
			L50.2,275.5z"/>
	</g>
</g>
<g>
	<g>
		<g>
			<path class="st1" d="M81.5,185.8c14.2,0,28.5,0,42.7,0c0.8,0,0.8-1.3,0-1.3c-14.2,0-28.5,0-42.7,0
				C80.7,184.5,80.7,185.8,81.5,185.8L81.5,185.8z"/>
		</g>
	</g>
	<g>
		<g>
			<path class="st1" d="M117.2,198.9c16.7,0,33.4,0,50.1,0c0.8,0,0.8-1.3,0-1.3c-16.7,0-33.4,0-50.1,0
				C116.4,197.6,116.4,198.9,117.2,198.9L117.2,198.9z"/>
		</g>
	</g>
	<g>
		<g>
			<path class="st1" d="M138.4,185.8c24.9,0,49.8,0,74.6,0c0.8,0,0.8-1.3,0-1.3c-24.9,0-49.8,0-74.6,0
				C137.6,184.5,137.6,185.8,138.4,185.8L138.4,185.8z"/>
		</g>
	</g>
	<g>
		<g>
			<path class="st1" d="M270.1,289.6c30.9,0,61.8,0,92.7,0c4.4,0,8.7,0,13.1,0c0.8,0,0.8-1.3,0-1.3c-30.9,0-61.8,0-92.7,0
				c-4.4,0-8.7,0-13.1,0C269.3,288.4,269.3,289.6,270.1,289.6L270.1,289.6z"/>
		</g>
	</g>
	<g>
		<g>
			<path class="st1" d="M209.2,289.6c16.1,0,32.1,0,48.2,0c0.8,0,0.8-1.3,0-1.3c-16.1,0-32.1,0-48.2,0
				C208.4,288.4,208.4,289.6,209.2,289.6L209.2,289.6z"/>
		</g>
	</g>
	<g>
		<g>
			<path class="st1" d="M96.1,338.1c-30.9,0-61.8,0-92.7,0c-4.4,0-8.7,0-13.1,0c-0.8,0-0.8,1.3,0,1.3c30.9,0,61.8,0,92.7,0
				c4.4,0,8.7,0,13.1,0C96.9,339.3,96.9,338.1,96.1,338.1L96.1,338.1z"/>
		</g>
	</g>
	<g>
		<g>
			<path class="st1" d="M157.1,338.1c-16.1,0-32.1,0-48.2,0c-0.8,0-0.8,1.3,0,1.3c16.1,0,32.1,0,48.2,0
				C157.9,339.3,157.9,338.1,157.1,338.1L157.1,338.1z"/>
		</g>
	</g>
	<g>
		<g>
			<path class="st1" d="M488.1,329.5c19.2,0,38.4,0,57.7,0c0.8,0,0.8-1.3,0-1.3c-19.2,0-38.4,0-57.7,0
				C487.3,328.3,487.3,329.5,488.1,329.5L488.1,329.5z"/>
		</g>
	</g>
	<g>
		<g>
			<path class="st1" d="M526.7,315.7c19.2,0,38.4,0,57.7,0c0.8,0,0.8-1.3,0-1.3c-19.2,0-38.4,0-57.7,0
				C525.9,314.5,525.9,315.7,526.7,315.7L526.7,315.7z"/>
		</g>
	</g>
	<g>
		<g>
			<path class="st1" d="M555.1,329.5c10.7,0,21.4,0,32.1,0c0.8,0,0.8-1.3,0-1.3c-10.7,0-21.4,0-32.1,0
				C554.3,328.3,554.3,329.5,555.1,329.5L555.1,329.5z"/>
		</g>
	</g>
	<g>
		<g>
			<path class="st1" d="M808.2,332c-19.2,0-38.4,0-57.7,0c-0.8,0-0.8,1.3,0,1.3c19.2,0,38.4,0,57.7,0C809,333.3,809,332,808.2,332
				L808.2,332z"/>
		</g>
	</g>
	<g>
		<g>
			<path class="st1" d="M741.3,332c-10.7,0-21.4,0-32.1,0c-0.8,0-0.8,1.3,0,1.3c10.7,0,21.4,0,32.1,0
				C742.1,333.3,742.1,332,741.3,332L741.3,332z"/>
		</g>
	</g>
	<g>
		<g>
			<path class="st1" d="M617.6,206.8c19.2,0,38.4,0,57.7,0c0.8,0,0.8-1.3,0-1.3c-19.2,0-38.4,0-57.7,0
				C616.8,205.5,616.8,206.8,617.6,206.8L617.6,206.8z"/>
		</g>
	</g>
	<g>
		<g>
			<path class="st1" d="M684.6,206.8c10.7,0,21.4,0,32.1,0c0.8,0,0.8-1.3,0-1.3c-10.7,0-21.4,0-32.1,0
				C683.8,205.5,683.8,206.8,684.6,206.8L684.6,206.8z"/>
		</g>
	</g>
</g>
<g>
	<g class="st2">
		<ellipse class="st1" cx="695.9" cy="383.8" rx="140.4" ry="34.1"/>
		<path class="st1" d="M250.4,387.4c-5.3,0.9-8.7,5.8-8.3,11.2c0,0.3,0,0.6,0,0.9c0,18.9-51.8,34.1-115.8,34.1
			c-64,0-115.8-15.3-115.8-34.1s51.9-34.1,115.8-34.1c6.2,0,12.2,0.1,18.1,0.4c2.5,0.1,4.9-0.7,6.8-2.3c9.4-7.8,34.7-13.4,64.4-13.4
			c37.7,0,68.3,9,68.3,20.1C284,377.4,270.5,383.9,250.4,387.4z"/>
		<ellipse class="st1" cx="221" cy="233.1" rx="68.3" ry="20.1"/>
		<path class="st1" d="M692.4,266.5c0,11.1-30.6,20.1-68.3,20.1c-6.8,0-13.3-0.3-19.4-0.8c-3.3-0.3-5.8,3.1-4.4,6.2
			c0.4,1,0.7,1.9,0.7,2.9c0,18.9-81.2,34.1-181.3,34.1c-100.1,0-181.3-15.3-181.3-34.1c0-18.9,81.2-34.1,181.3-34.1
			c51.5,0,98,4,131,10.5c2.9,0.6,5.3-1.7,5.3-4.6c0,0,0,0,0-0.1c0-11.1,30.6-20.1,68.3-20.1C661.9,246.4,692.4,255.4,692.4,266.5z"
			/>
	</g>
	<g>
		<g>
			<g>
				<g>
					<polygon class="st3" points="338.5,111.9 310.8,111.9 314.2,86.2 335,86.2 					"/>
					<path class="st4" d="M336.9,100.3c-3.6,2-7.8,3.1-12.3,3.1c-4.5,0-8.6-1.1-12.3-3.1l1.9-14.2H335L336.9,100.3z"/>
					<g>
						<circle class="st3" cx="324.6" cy="67.7" r="25.8"/>
						
							<ellipse transform="matrix(0.9426 -0.3339 0.3339 0.9426 -3.9868 112.2906)" class="st5" cx="324.6" cy="67.7" rx="19.6" ry="19.6"/>
						<g class="st6">
							<path class="st1" d="M341,66.6c-0.3-4.8-2.8-9.2-6.4-12c-3.6-2.8-8.4-4.2-13.2-3.4c-4.6,0.7-8.8,3.4-11.3,7.4
								c-2.6,4-3.5,9.1-2.1,14.1c1.1,4.1,4,7.6,7.6,9.7c3.7,2.1,8,2.7,12,1.8c4-0.8,7.6-3.1,10.1-6.2c2.5-3.1,4-6.9,4.1-10.9
								c0-0.2-0.1-0.3-0.2-0.4c-0.1,0-0.2,0.1-0.2,0.3c-0.1,1.6-0.4,3.2-0.9,4.7c-0.5,1.5-1.3,2.9-2.2,4.3c-0.9,1.3-2,2.5-3.2,3.5
								c-1.2,1-2.6,1.9-4.1,2.6c-4.2,2-9.1,2.1-13.4,0.3c-4.3-1.8-7.7-5.5-9.1-9.9c-1.5-4.7-0.8-9.8,1.7-13.7
								c2.4-3.9,6.5-6.6,11-7.3c6.2-0.9,12.4,1.4,16.2,6.5c0.9,1.3,1.6,2.6,2.2,4.1C340.4,63.6,340.8,65.1,341,66.6
								c-0.1,0.1,0,0.1,0,0.1C341,66.7,341,66.7,341,66.6z"/>
							<path class="st1" d="M338.7,66.6c-0.3-4.1-2.5-7.8-5.5-10.3c-3.1-2.4-7.2-3.5-11.3-3c-3.9,0.5-7.5,2.9-9.8,6.2
								c-2.3,3.4-3.1,7.9-1.9,12.2c0.9,3.6,3.4,6.7,6.6,8.5c3.2,1.8,7,2.4,10.5,1.6c3.5-0.8,6.6-2.7,8.7-5.4c2.1-2.7,3.4-6,3.6-9.5
								c0-0.2-0.1-0.3-0.2-0.3c-0.1,0-0.2,0.1-0.2,0.3c-0.3,5.6-3.9,10.6-8.9,13.1c-3.6,1.7-7.9,1.9-11.6,0.3
								c-3.7-1.5-6.7-4.8-7.8-8.6c-1.3-4.1-0.6-8.5,1.6-11.8c2.1-3.3,5.7-5.6,9.5-6.1c5.3-0.7,10.6,1.2,13.8,5.5
								c0.8,1.1,1.4,2.2,1.9,3.5C338.2,64,338.5,65.3,338.7,66.6c-0.1,0.1,0,0.1,0,0.1C338.7,66.7,338.7,66.7,338.7,66.6z"/>
							<path class="st1" d="M336.4,66.6c-0.3-3.4-2.1-6.5-4.7-8.5c-2.6-2-5.9-2.9-9.3-2.5c-3.3,0.4-6.3,2.3-8.3,5.1
								c-2,2.8-2.7,6.6-1.7,10.3c0.8,3.1,2.9,5.7,5.6,7.2c2.7,1.5,6,2,8.9,1.3c2.9-0.7,5.6-2.3,7.4-4.6c1.8-2.3,2.9-5.1,3-8
								c0-0.1-0.1-0.3-0.2-0.3c-0.1,0-0.2,0.1-0.2,0.2c-0.3,4.8-3.3,8.9-7.5,11c-3,1.5-6.6,1.7-9.8,0.4c-3.1-1.3-5.7-4-6.6-7.3
								c-1-3.5-0.4-7.2,1.4-9.9c1.8-2.8,4.8-4.6,8-5c2.2-0.2,4.3,0,6.3,0.8c2,0.8,3.8,2,5.1,3.8c0.7,0.9,1.2,1.8,1.6,2.9
								C335.9,64.5,336.2,65.6,336.4,66.6C336.4,66.7,336.4,66.7,336.4,66.6C336.4,66.7,336.4,66.7,336.4,66.6z"/>
							<path class="st1" d="M334.1,66.7c-0.3-2.8-1.8-5.2-3.9-6.7c-2.1-1.6-4.7-2.3-7.4-2.1c-2.6,0.3-5.1,1.7-6.8,4
								c-1.6,2.2-2.3,5.4-1.6,8.5c0.6,2.5,2.3,4.8,4.6,6c2.3,1.3,5,1.6,7.4,1c2.4-0.6,4.6-2,6-3.9c1.5-1.9,2.3-4.2,2.5-6.5
								c0-0.1-0.1-0.2-0.2-0.2c-0.1,0-0.2,0.1-0.2,0.2c-0.3,3.9-2.7,7.1-6.1,8.9c-2.4,1.3-5.4,1.4-8,0.4c-2.6-1-4.6-3.3-5.4-6
								c-0.8-2.8-0.2-5.8,1.3-8c1.5-2.2,3.9-3.6,6.4-3.9c1.8-0.1,3.4,0.1,5,0.6c1.5,0.6,3,1.6,4.1,2.9c0.5,0.7,1,1.4,1.3,2.2
								C333.6,64.9,333.9,65.8,334.1,66.7C334.1,66.7,334.1,66.7,334.1,66.7C334.1,66.7,334.1,66.7,334.1,66.7z"/>
						</g>
					</g>
				</g>
				<g>
					<polygon class="st3" points="521.2,111.9 493.6,111.9 497,86.2 517.8,86.2 					"/>
					<path class="st4" d="M519.7,100.3c-3.6,2-7.8,3.1-12.3,3.1c-4.5,0-8.6-1.1-12.3-3.1l1.9-14.2h20.8L519.7,100.3z"/>
					<g>
						<circle class="st3" cx="507.4" cy="67.7" r="25.8"/>
						
							<ellipse transform="matrix(0.2204 -0.9754 0.9754 0.2204 329.5174 547.7446)" class="st5" cx="507.4" cy="67.7" rx="19.6" ry="19.6"/>
						<g class="st6">
							<path class="st1" d="M523.8,66.6c-0.3-4.8-2.8-9.2-6.4-12c-3.6-2.8-8.4-4.2-13.2-3.4c-4.6,0.7-8.8,3.4-11.3,7.4
								c-2.6,4-3.5,9.1-2.1,14.1c1.1,4.1,4,7.6,7.6,9.7c3.7,2.1,8,2.7,12,1.8c4-0.8,7.6-3.1,10.1-6.2c2.5-3.1,4-6.9,4.1-10.9
								c0-0.2-0.1-0.3-0.2-0.4c-0.1,0-0.2,0.1-0.2,0.3c-0.1,1.6-0.4,3.2-0.9,4.7c-0.5,1.5-1.3,2.9-2.2,4.3c-0.9,1.3-2,2.5-3.2,3.5
								c-1.2,1-2.6,1.9-4.1,2.6c-4.2,2-9.1,2.1-13.4,0.3c-4.3-1.8-7.7-5.5-9.1-9.9c-1.5-4.7-0.8-9.8,1.7-13.7
								c2.4-3.9,6.5-6.6,11-7.3c6.2-0.9,12.4,1.4,16.2,6.5c0.9,1.3,1.6,2.6,2.2,4.1C523.2,63.6,523.5,65.1,523.8,66.6
								c-0.1,0.1,0,0.1,0,0.1C523.8,66.7,523.8,66.7,523.8,66.6z"/>
							<path class="st1" d="M521.5,66.6c-0.3-4.1-2.5-7.8-5.5-10.3c-3.1-2.4-7.2-3.5-11.3-3c-3.9,0.5-7.5,2.9-9.8,6.2
								c-2.3,3.4-3.1,7.9-1.9,12.2c0.9,3.6,3.4,6.7,6.6,8.5c3.2,1.8,7,2.4,10.5,1.6c3.5-0.8,6.6-2.7,8.7-5.4c2.1-2.7,3.4-6,3.6-9.5
								c0-0.2-0.1-0.3-0.2-0.3c-0.1,0-0.2,0.1-0.2,0.3c-0.3,5.6-3.9,10.6-8.9,13.1c-3.6,1.7-7.9,1.9-11.6,0.3
								c-3.7-1.5-6.7-4.8-7.8-8.6c-1.3-4.1-0.6-8.5,1.6-11.8c2.1-3.3,5.7-5.6,9.5-6.1c5.3-0.7,10.6,1.2,13.8,5.5
								c0.8,1.1,1.4,2.2,1.9,3.5C520.9,64,521.2,65.3,521.5,66.6c-0.1,0.1,0,0.1,0,0.1C521.5,66.7,521.5,66.7,521.5,66.6z"/>
							<path class="st1" d="M519.2,66.6c-0.3-3.4-2.1-6.5-4.7-8.5c-2.6-2-5.9-2.9-9.3-2.5c-3.3,0.4-6.3,2.3-8.3,5.1
								c-2,2.8-2.7,6.6-1.7,10.3c0.8,3.1,2.9,5.7,5.6,7.2c2.7,1.5,6,2,8.9,1.3c2.9-0.7,5.6-2.3,7.4-4.6c1.8-2.3,2.9-5.1,3-8
								c0-0.1-0.1-0.3-0.2-0.3c-0.1,0-0.2,0.1-0.2,0.2c-0.3,4.8-3.3,8.9-7.5,11c-3,1.5-6.6,1.7-9.8,0.4c-3.1-1.3-5.7-4-6.6-7.3
								c-1-3.5-0.4-7.2,1.4-9.9c1.8-2.8,4.8-4.6,8-5c2.2-0.2,4.3,0,6.3,0.8c2,0.8,3.8,2,5.1,3.8c0.7,0.9,1.2,1.8,1.6,2.9
								C518.7,64.5,518.9,65.6,519.2,66.6C519.1,66.7,519.1,66.7,519.2,66.6C519.2,66.7,519.2,66.7,519.2,66.6z"/>
							<path class="st1" d="M516.9,66.7c-0.3-2.8-1.8-5.2-3.9-6.7c-2.1-1.6-4.7-2.3-7.4-2.1c-2.6,0.3-5.1,1.7-6.7,4
								c-1.6,2.2-2.3,5.4-1.6,8.5c0.6,2.5,2.3,4.8,4.6,6c2.3,1.3,5,1.6,7.4,1c2.4-0.6,4.6-2,6-3.9c1.5-1.9,2.3-4.2,2.5-6.5
								c0-0.1-0.1-0.2-0.2-0.2c-0.1,0-0.2,0.1-0.2,0.2c-0.3,3.9-2.7,7.1-6.1,8.9c-2.4,1.3-5.4,1.4-8,0.4c-2.6-1-4.6-3.3-5.4-6
								c-0.8-2.8-0.2-5.8,1.3-8c1.5-2.2,3.9-3.6,6.4-3.9c1.8-0.1,3.4,0.1,5,0.6c1.5,0.6,3,1.6,4.1,2.9c0.5,0.7,1,1.4,1.3,2.2
								C516.4,64.9,516.6,65.8,516.9,66.7C516.8,66.7,516.9,66.7,516.9,66.7C516.9,66.7,516.9,66.7,516.9,66.7z"/>
						</g>
					</g>
				</g>
			</g>
			<g>
				<rect x="318.8" y="230.9" class="st3" width="232.5" height="33.6"/>
				<g>
					<polygon class="st0" points="366.6,230.9 349.7,264.5 319.7,264.5 336.6,230.9 					"/>
					<polygon class="st0" points="428.1,230.9 411.3,264.5 381.2,264.5 398.1,230.9 					"/>
					<polygon class="st0" points="489.7,230.9 472.8,264.5 442.8,264.5 459.6,230.9 					"/>
					<polygon class="st0" points="551.2,230.9 534.3,264.5 504.3,264.5 521.2,230.9 					"/>
				</g>
			</g>
			<polygon class="st0" points="527.2,307.1 562,307.1 536.2,148.7 501.3,148.7 			"/>
			<polygon class="st0" points="341.2,307.1 376.1,307.1 350.2,148.7 315.4,148.7 			"/>
			<polygon class="st4" points="527.2,307.1 562,307.1 536.2,148.7 501.3,148.7 			"/>
			<polygon class="st4" points="341.2,307.1 376.1,307.1 350.2,148.7 315.4,148.7 			"/>
			<polygon class="st0" points="336.5,148.7 334.3,162 332,176.4 310.6,307.1 275.8,307.1 297.1,176.4 299.4,162 301.6,148.7 			"/>
			<path class="st4" d="M331.4,148.7c-1.8,13.2-3.8,26.5-5.8,39.7l-6.1,39.6l-6.4,39.6l-3.3,19.8l-3.5,19.8l2.8-19.9l3-19.8
				l6.2-39.6l6.4-39.6C326.8,175,329,161.9,331.4,148.7z"/>
			<polygon class="st0" points="522.4,148.7 520.3,162 517.9,176.4 496.6,307.1 461.7,307.1 483.1,176.4 485.4,162 487.6,148.7 			
				"/>
			<path class="st4" d="M517.3,148.7c-1.8,13.2-3.8,26.5-5.8,39.7l-6.1,39.6l-6.4,39.6l-3.3,19.8l-3.5,19.8l2.8-19.9l3-19.8
				l6.2-39.6l6.4-39.6C512.7,175,514.9,161.9,517.3,148.7z"/>
			<g>
				<rect x="279.2" y="102" class="st3" width="274.2" height="60.1"/>
				<g>
					<polygon class="st0" points="335.6,102 315.7,162 280.3,162 300.2,102 					"/>
					<polygon class="st0" points="408.2,102 388.3,162 352.8,162 372.7,102 					"/>
					<polygon class="st0" points="480.7,102 460.8,162 425.4,162 445.3,102 					"/>
					<polygon class="st0" points="553.3,102 533.4,162 498,162 517.9,102 					"/>
				</g>
			</g>
			<g>
				<rect x="279.2" y="237" class="st3" width="232.5" height="33.6"/>
				<g>
					<polygon class="st0" points="327,237 310.1,270.5 280.1,270.5 297,237 					"/>
					<polygon class="st0" points="388.5,237 371.7,270.5 341.6,270.5 358.5,237 					"/>
					<polygon class="st0" points="450.1,237 433.2,270.5 403.2,270.5 420,237 					"/>
					<polygon class="st0" points="511.6,237 494.7,270.5 464.7,270.5 481.6,237 					"/>
				</g>
			</g>
			<polygon class="st4" points="334.3,162 332,176.4 297.1,176.4 299.4,162 			"/>
			<polygon class="st4" points="520.3,162 485.4,162 483.1,176.4 517.9,176.4 			"/>
		</g>
		<g>
			<path class="st3" d="M250.4,222.8h-67.8l0.9-3l1.4-4.8l5.9-20.6l5.3-18.5l3.5-12.2l5.3-18.5l2.9-10.2c3-8.1,14.4-8.1,17.4,0
				l1.1,3.9v0l1.8,6.2l5.3,18.5l3.5,12.2l5.3,18.5l2.2,7.7L250.4,222.8z"/>
			<path class="st3" d="M249.1,240.4h-77.4c-3.8,0-6.5-3.9-5-7.4l9.8-24.4c0.8-2,2.8-3.4,5-3.4H259c3.8,0,6.5,3.9,5,7.4l-9.8,24.4
				C253.3,239.1,251.3,240.4,249.1,240.4z"/>
			<polygon class="st0" points="233.4,163.7 199.5,163.7 204.9,145.2 228.1,145.2 			"/>
			<polygon class="st0" points="242.2,194.4 190.7,194.4 196,175.9 236.9,175.9 			"/>
			<path class="st1" d="M181.6,218.1c5.5,2.6,11.3,4.2,17.2,5.2c5.9,1,11.8,1.5,17.8,1.4c3-0.2,6-0.2,8.9-0.7c1.5-0.2,3-0.3,4.4-0.6
				c1.5-0.3,2.9-0.6,4.4-0.8c0.7-0.1,1.5-0.2,2.2-0.4l2.2-0.5l4.4-1.1c2.9-0.8,5.8-1.8,8.7-2.5c-2.7,1.3-5.5,2.6-8.3,3.7l-4.3,1.5
				L237,224c-0.7,0.2-1.5,0.4-2.2,0.6c-1.5,0.4-3,0.7-4.5,1.1c-1.5,0.3-3,0.5-4.5,0.8c-3,0.5-6.1,0.6-9.2,0.8
				c-6.1,0.1-12.3-0.5-18.3-2C192.4,223.8,186.6,221.6,181.6,218.1z"/>
			<path class="st4" d="M183.9,219.3c0,0,4,0.8,7.7,2.5c10,4.6,29.5,6.1,50.7-0.3c1.8-0.5,5-1.3,6.6-2.4l-0.9-4c0,0-44-12.8-41.5-76
				l-1.8,6.2l-5.3,18.5l-3.5,12.2l-5.3,18.5L183.9,219.3z"/>
		</g>
		<g>
			<path class="st3" d="M658.6,253h-67.8l0.9-3l1.4-4.8l5.9-20.6l5.3-18.5l3.5-12.2l5.3-18.5l2.9-10.2c3-8.1,14.4-8.1,17.4,0
				l1.1,3.9v0l1.8,6.2l5.3,18.5l3.5,12.2l5.3,18.5l2.2,7.7L658.6,253z"/>
			<path class="st3" d="M657.3,270.6h-77.4c-3.8,0-6.5-3.9-5-7.4l9.8-24.4c0.8-2,2.8-3.4,5-3.4h77.4c3.8,0,6.5,3.9,5,7.4l-9.8,24.4
				C661.5,269.3,659.5,270.6,657.3,270.6z"/>
			<polygon class="st0" points="641.6,194 607.7,194 613.1,175.5 636.3,175.5 			"/>
			<polygon class="st0" points="650.4,224.6 598.9,224.6 604.2,206.1 645.1,206.1 			"/>
			<path class="st1" d="M589.8,248.3c5.5,2.6,11.3,4.2,17.2,5.2c5.9,1,11.8,1.5,17.8,1.4c3-0.2,6-0.2,8.9-0.7c1.5-0.2,3-0.3,4.4-0.6
				c1.5-0.3,2.9-0.6,4.4-0.8c0.7-0.1,1.5-0.2,2.2-0.4l2.2-0.5l4.4-1.1c2.9-0.8,5.8-1.8,8.7-2.5c-2.7,1.3-5.5,2.6-8.3,3.7l-4.3,1.5
				l-2.2,0.7c-0.7,0.2-1.5,0.4-2.2,0.6c-1.5,0.4-3,0.7-4.5,1.1c-1.5,0.3-3,0.5-4.5,0.8c-3,0.5-6.1,0.6-9.2,0.8
				c-6.1,0.1-12.3-0.5-18.3-2C600.6,254,594.8,251.8,589.8,248.3z"/>
			<path class="st4" d="M592.1,249.5c0,0,4,0.8,7.7,2.5c10,4.6,29.5,6.1,50.7-0.3c1.8-0.5,5-1.3,6.6-2.4l-0.9-4c0,0-44-12.8-41.5-76
				l-1.8,6.2l-5.3,18.5l-3.5,12.2l-5.3,18.5L592.1,249.5z"/>
		</g>
	</g>
	<g>
		<g>
			<path class="st3" d="M241.6,366.6h-67.8l0.9-3l1.4-4.8l5.9-20.6l5.3-18.5l3.5-12.2l5.3-18.5l2.9-10.2c3-8.1,14.4-8.1,17.4,0
				l1.1,3.9v0l1.8,6.2l5.3,18.5l3.5,12.2l5.3,18.5l2.2,7.7L241.6,366.6z"/>
			<path class="st3" d="M240.4,384.2h-77.4c-3.8,0-6.5-3.9-5-7.4l9.8-24.4c0.8-2,2.8-3.4,5-3.4h77.4c3.8,0,6.5,3.9,5,7.4l-9.8,24.4
				C244.6,382.8,242.6,384.2,240.4,384.2z"/>
			<polygon class="st0" points="224.6,307.5 190.8,307.5 196.1,289 219.3,289 			"/>
			<polygon class="st0" points="233.4,338.2 181.9,338.2 187.3,319.7 228.1,319.7 			"/>
			<path class="st1" d="M172.8,361.8c5.5,2.6,11.3,4.2,17.2,5.2c5.9,1,11.8,1.5,17.8,1.4c3-0.2,6-0.2,8.9-0.7c1.5-0.2,3-0.3,4.4-0.6
				c1.5-0.3,2.9-0.6,4.4-0.8c0.7-0.1,1.5-0.2,2.2-0.4l2.2-0.5l4.4-1.1c2.9-0.8,5.8-1.8,8.7-2.5c-2.7,1.3-5.5,2.6-8.3,3.7l-4.3,1.5
				l-2.2,0.7c-0.7,0.2-1.5,0.4-2.2,0.6c-1.5,0.4-3,0.7-4.5,1.1c-1.5,0.3-3,0.5-4.5,0.8c-3,0.5-6.1,0.6-9.2,0.8
				c-6.1,0.1-12.3-0.5-18.3-2C183.7,367.6,177.8,365.4,172.8,361.8z"/>
			<path class="st4" d="M175.2,363c0,0,4,0.8,7.7,2.5c10,4.6,29.5,6.1,50.7-0.3c1.8-0.5,5-1.3,6.6-2.4l-0.9-4c0,0-44-12.8-41.5-76
				L196,289l-5.3,18.5l-3.5,12.2l-5.3,18.5L175.2,363z"/>
		</g>
		<g>
			<g>
				<path class="st1" d="M199.9,316.5c6.6-1.3,13.3-2.7,19.9-4c2-0.4,1.2-3.5-0.9-3.1c-6.6,1.3-13.3,2.7-19.9,4
					C197,313.8,197.9,316.9,199.9,316.5L199.9,316.5z"/>
				<path class="st1" d="M200.7,322.2c6.5,1,13.1,2,19.6,3c2,0.3,2.9-2.8,0.9-3.1c-6.5-1-13.1-2-19.6-3
					C199.5,318.7,198.6,321.8,200.7,322.2L200.7,322.2z"/>
			</g>
			<g>
				<path class="st7" d="M107.6,398.2V409c0,0-2.8,0.8-7.8,1.4c-4.9,0.6-11.8,0.9-20.4,0.1c-0.8-0.1-1.7-0.2-2.5-0.3
					c-1.4-0.2-2.9-0.3-4.3-0.6c-0.1,0-0.2,0-0.4-0.1c-1.8-0.3-3.6-0.7-5.3-1.3c-1.7-0.5-3.4-1.2-4.9-1.9c-1.1-0.5-2.1-1.1-3.1-1.7
					c-1.4-0.8-2.8-1.7-4-2.7c-9.1-7-13.2-17-7.6-23.2c7.2-8.1,17.6-2.4,24.7,7.9c3.6,5.2,10.8,8,18,9.5c2.9,0.6,5.8,1,8.5,1.3
					C102.1,397.9,105.4,398.1,107.6,398.2z"/>
				<path class="st4" d="M107.6,398.2V409c0,0-2.8,0.8-7.8,1.4c-4.9,0.6-11.8,0.9-20.4,0.1c1.7-6.4,6.5-11.2,10.5-14.3
					c2.9,0.6,5.8,1,8.5,1.3C102.1,397.9,105.4,398.1,107.6,398.2z"/>
			</g>
			<path class="st7" d="M170.9,359.9c0.6,5,0.4,13.4,0,21.6c-0.1,1.8-0.2,3.6-0.3,5.4c-0.1,0.9-0.1,1.7-0.2,2.6
				c-0.1,1.9-0.3,3.8-0.4,5.5c-0.1,0.9-0.1,1.7-0.2,2.5c-0.2,2.1-0.3,4-0.4,5.4c-0.1,2.1-0.2,3.4-0.1,3.5c0.4,0.8,2.2,3.7,0.4,4.2
				c-0.7,0.2-2.7,0.3-4.8,0.3c0,0,0,0,0,0c-3.1,0-6.5-0.1-6.5-0.1s0.1,0.3,0.2,0.6c0,0.1,0,0.1,0,0.1c0.2,0.8,0.3,2.1-0.5,2.5
				c-1.2,0.5-26.3,1.6-27.7,0.5c-0.2-0.2-0.4-0.4-0.5-0.6c-0.3-0.5-0.4-1.1-0.4-1.5c0-0.6,0.1-1.1,0.1-1.1s-0.4,0-1.2,0
				c-3.2,0.1-12.3,0.3-19.5,0c-3.7-0.2-7-0.5-8.8-1c-0.8-0.2-1.3-0.5-1.4-0.8c-1.8-2.9-1.5-7.3,0-12c0.8-2.7,2-5.5,3.3-8.3l0.5-1
				c0.7-1.4,1.4-2.8,2.2-4.1c0.7-1.3,1.5-2.6,2.2-3.8c1-1.6,1.9-3.1,2.8-4.4c0.6-0.9,1.2-1.7,1.7-2.4c0.3-0.4,0.5-0.8,0.8-1.1
				c1-1.6,1.7-3,2.1-4.3c1-3.2,0.4-5.2,0.2-5.7c0,0,0,0,0,0v0c0,0,0,0,0,0c-0.8-0.2-1.5-0.4-2.2-0.6c-0.1,0-0.1-0.1-0.2-0.1
				s-0.1,0-0.1,0c-2-0.6-3.8-1.3-5.4-2.1c-0.1-0.1-0.2-0.1-0.3-0.1c-11.4-5.4-12.4-13-12.4-13c-27.4,1.3-42.6-6.5-44.2-12.9
				c-1.6-6.5,18.4-31.3,35.2-41.6c12.1-7.5,24.4-13.1,36-17.5c9.6-3.6,18.8-6.3,27.1-8.3c1.6-0.4,3.1-0.7,4.6-1.1
				c1.2-0.3,2.5-0.5,3.7-0.8c1.9-0.4,3.7-0.7,5.4-1c1.3-0.2,2.5-0.4,3.7-0.6c1.6-0.3,3.1-0.5,4.6-0.7c10.7-1.5,17.2-1.7,17.2-1.7
				s12.1,24.3,17.1,44.1c1,3.8,1.7,7.3,2,10.6c0.1,1.3,0.2,2.4,0.2,3.6C206.2,342.8,170.7,358.2,170.9,359.9z"/>
			<path class="st1" d="M170.7,359.8c-2.3,1.3-4.8,2.2-7.3,2.8c-2.5,0.7-5.1,1.1-7.7,1.5c-2.6,0.3-5.2,0.5-7.8,0.6
				c-1.3,0-2.6,0-3.9,0c-1.3-0.1-2.6-0.1-3.9-0.3c2.6-0.3,5.2-0.5,7.8-0.7c2.6-0.3,5.2-0.5,7.7-0.9c2.6-0.3,5.1-0.7,7.7-1.2
				C165.7,361.2,168.2,360.7,170.7,359.8z"/>
			<g>
				<path class="st8" d="M123.3,384.1c-1.2,0.7-10.9-2-16.5-3.7c1-1.6,1.9-3.1,2.8-4.4C115.4,378.8,124.5,383.4,123.3,384.1z"/>
				<path class="st8" d="M126.4,375.3c-1.1,0.7-8.7-1.2-14.4-2.7c1-1.6,1.7-3,2.1-4.3C119.9,370.9,127.5,374.6,126.4,375.3z"/>
				<path class="st8" d="M116.2,389.6c-1,0.7-8.1-0.3-13.7-1.3c0.7-1.4,1.4-2.8,2.2-4.1C110.4,386.3,117.1,388.9,116.2,389.6z"/>
			</g>
			<path class="st1" d="M115.5,386.5c1.2,2.1,2.3,4.2,3.3,6.3l3.2,6.4c1.1,2.1,2.1,4.2,3.3,6.3c0.3,0.5,0.6,1,0.9,1.5
				c0.3,0.5,0.6,1,0.9,1.5c0.3,0.5,0.6,1,1,1.5c0.3,0.5,0.8,0.9,1.2,1.3c-0.5-0.3-1.1-0.6-1.5-1.1c-0.5-0.4-0.9-0.8-1.3-1.3
				c-0.8-0.9-1.5-1.9-2.1-2.9c-1.3-2-2.5-4.1-3.6-6.2C118.8,395.5,116.9,391.1,115.5,386.5z"/>
			<path class="st1" d="M111.5,394.4c0.7-1.4,2.4-2.2,4.1-2.1c0.8,0.1,1.6,0.4,2.2,0.9c0.3,0.2,0.6,0.5,0.9,0.8
				c0.2,0.3,0.5,0.6,0.6,1c-0.4-0.1-0.7-0.3-1-0.5c-0.3-0.1-0.6-0.3-1-0.4c-0.6-0.2-1.3-0.4-1.9-0.5c-0.6-0.1-1.3,0-1.9,0.1
				C112.9,393.9,112.2,394.2,111.5,394.4z"/>
			<path class="st1" d="M114.1,362.4c2.2,0.2,4.3,0.5,6.4,0.8c1.1,0.2,2.1,0.3,3.2,0.5c1.1,0.2,2.1,0.4,3.2,0.7
				c-2.2,0.4-4.4,0.3-6.5,0c-1.1-0.2-2.1-0.4-3.2-0.7C116,363.4,115,363,114.1,362.4z"/>
			<g>
				<path class="st1" d="M107.1,347.9c-5.2,4.3-10.4,8.6-15.7,12.9c-1.6,1.3,0.7,3.6,2.3,2.3c5.2-4.3,10.4-8.6,15.7-12.9
					C111,348.8,108.7,346.6,107.1,347.9L107.1,347.9z"/>
				<path class="st1" d="M103.8,343.3c-6.2,2.2-12.5,4.4-18.7,6.6c-1.9,0.7-1.1,3.8,0.9,3.1c6.2-2.2,12.5-4.4,18.7-6.6
					C106.6,345.7,105.7,342.6,103.8,343.3L103.8,343.3z"/>
			</g>
			<g>
				<path class="st1" d="M141.4,318.3c0,3.4-2.8,6.2-6.2,6.2c-3.4,0-6.2-2.8-6.2-6.2c0-3.4,2.8-6.2,6.2-6.2
					C138.6,312.1,141.4,314.9,141.4,318.3z"/>
				<circle class="st1" cx="192.9" cy="301.7" r="5.9"/>
				<path class="st1" d="M161.6,310.9c-0.5,1.7-1.1,3.5-1.1,5.1c0,0.8,0.2,1.5,0.6,1.8c0.4,0.3,0.9,0.3,1.5,0
					c1.3-0.6,2.6-1.9,3.7-3.1c1.2-1.2,2.3-2.7,3.3-4l0.7-1l1,0.6c1.2,0.8,2.5,1.4,3.8,2c1.3,0.5,2.7,0.9,3.7,0.6
					c0.5-0.2,0.8-0.4,0.9-0.8c0.1-0.5-0.1-1.2-0.4-1.8c-0.6-1.3-1.5-2.5-2.5-3.7c1.3,0.8,2.5,1.8,3.5,3.1c0.5,0.7,1,1.4,1,2.5
					c0,0.3,0,0.6-0.1,0.8c-0.1,0.3-0.2,0.6-0.4,0.8c-0.4,0.5-0.8,0.7-1.3,1c-1.9,0.7-3.7,0.3-5.2-0.2c-1.6-0.5-3-1.2-4.4-2.1
					l1.7-0.3c-1.1,1.5-2.3,2.9-3.6,4.3c-0.6,0.7-1.4,1.3-2.1,1.9c-0.8,0.6-1.6,1.2-2.6,1.5c-0.5,0.2-1.1,0.3-1.8,0.2
					c-0.7-0.1-1.3-0.4-1.7-0.8c-0.2-0.2-0.4-0.5-0.5-0.8c-0.1-0.3-0.2-0.6-0.2-0.9c-0.1-0.6,0-1.1,0-1.6
					C159.6,314,160.5,312.3,161.6,310.9z"/>
				<path class="st9" d="M134.3,331.8c0.7,3.2-3.7,6.8-9.7,8.1c-6.1,1.3-11.5-0.3-12.2-3.5c-0.7-3.2,3.7-6.8,9.7-8.1
					C128.1,327,133.6,328.6,134.3,331.8z"/>
				<path class="st9" d="M205.8,315c-3.9-0.1-6.9-1.6-7.4-3.9c-0.5-2.4,1.7-4.9,5.4-6.7C204.8,308.1,205.5,311.7,205.8,315z"/>
				<path class="st1" d="M173.2,305.8c0.2,0.9-2.9,3-2.9,3s-3.8-0.5-4-1.3s3.2-1.8,3.2-1.8S173,305,173.2,305.8z"/>
				<path class="st1" d="M117.6,301.5c0.8,1.6,14.7-6.2,13.5-9C129.8,289.7,115.6,297.4,117.6,301.5z"/>
				<path class="st1" d="M181.3,278.5c-0.3,1.3,12.2,3.6,12.8,1.2C194.7,277.3,182.1,275,181.3,278.5z"/>
			</g>
			<path class="st9" d="M91.5,335.3c0,0-21.7,1.8-22-4.1c-0.3-6,16.6-21.4,23.5-26.4C93,304.7,89.6,328.8,91.5,335.3z"/>
			<path class="st1" d="M70,332.7c-0.5-0.6-0.6-1.5-0.5-2.3c0.1-0.8,0.3-1.6,0.6-2.3c0.6-1.5,1.4-2.8,2.3-4.2c1.8-2.6,3.9-5,6.1-7.3
				c4.4-4.6,9.2-8.6,14.2-12.5l1.4-1.1l-0.4,1.8c-0.6,2.4-1.1,5-1.5,7.5c-0.4,2.5-0.7,5.1-0.9,7.6c-0.2,2.5-0.3,5.1-0.2,7.7
				c0,2.6,0.3,5.1,0.6,7.7c-0.6-2.5-1-5.1-1.3-7.6c-0.2-2.6-0.3-5.2-0.1-7.7c0.1-2.6,0.4-5.2,0.7-7.7c0.4-2.6,0.8-5.1,1.5-7.6l1,0.7
				c-5,3.8-9.8,7.8-14.3,12.1c-2.2,2.2-4.4,4.5-6.2,7c-0.9,1.2-1.8,2.5-2.5,3.9c-0.3,0.7-0.6,1.4-0.7,2.2
				C69.5,331.2,69.5,332,70,332.7z"/>
			<path class="st4" d="M127.8,411c0.2,0.1,0.4,0.3,0.6,0.4c-3.2,0.1-12.3,0.3-19.5,0c-3.7-0.2-7-0.5-8.8-1
				c-0.8-0.2-1.3-0.5-1.4-0.8c-1.8-2.9-1.5-7.3,0-12c0.8-2.7,2-5.5,3.3-8.3c3.1-6.4,7.1-12.5,9.4-15.7c4.6-6.5,3.2-10.7,3-11.1
				c2.2,0.6,5.6,1.4,10.3,2c0,0-10.1,15.4-10.4,22.1C114,393.3,118.6,405.5,127.8,411z"/>
			<path class="st4" d="M145.6,364.8c-8.3,0.6-20.5,0.7-31.3-2.2c-2.8-0.7-5.5-1.7-7.9-2.9c-0.1-0.1-0.2-0.1-0.3-0.1
				c-11.4-5.4-12.4-13-12.4-13c-27.4,1.3-42.6-6.5-44.2-12.9c-1.6-6.5,18.4-31.3,35.2-41.6c12.1-7.5,24.4-13.1,36-17.5
				c0,0-23.5,39.3-10.9,68.4C118,361.8,134.8,364.9,145.6,364.8z"/>
			<g>
				<path class="st8" d="M170.4,389.5c-0.1,1.9-0.3,3.8-0.4,5.5c-4.7-0.2-17-0.9-18.7-2c0.2-0.2,0.3-0.5,0.6-0.8
					C154.9,390.9,166.2,389.8,170.4,389.5z"/>
				<path class="st8" d="M169.8,397.5c-0.2,2.1-0.3,4-0.4,5.4c-4.6-0.4-16.2-1.5-15.2-2.8C155.2,398.8,165.7,397.8,169.8,397.5z"/>
				<path class="st8" d="M170.9,381.5c-0.1,1.8-0.2,3.6-0.3,5.4c-3.6-0.3-11.3-1-14.1-2c0.3-0.6,0.7-1.1,1-1.7h0
					C161,382.4,167.7,381.8,170.9,381.5z"/>
			</g>
			<path class="st1" d="M155.3,363.6c-0.5,0.1-4.4,1-9.9,1.1C151,364.3,154.8,363.7,155.3,363.6z"/>
			<path class="st4" d="M158.2,410.8c0,0-0.7-1.1-4.1-3.2c-0.7-0.4-4.3-12.6-4.3-12.6s10-14.3,13.8-22.6c0,0-3.9,31.5-4,33.7
				c-0.1,1.6,3.2,3.7,5.1,4.8C161.6,410.9,158.2,410.8,158.2,410.8z"/>
			<path class="st8" d="M148.7,390.7c0,0-18.3,7.3-19,9.2c-0.7,1.9,20.4-3.7,20.4-3.7L148.7,390.7z"/>
			<path class="st8" d="M58.8,404.7c-1.4-0.8-2.8-1.7-4-2.7c4.3-4.7,10.7-11.4,11-10.1C66.2,393.2,62,399.8,58.8,404.7z"/>
			<path class="st8" d="M66.9,408.3c-1.7-0.5-3.4-1.2-4.9-1.9c3.6-4.8,11.2-14.8,11.8-13.3C74.1,394.4,69.7,403.1,66.9,408.3z"/>
			<g>
				<path class="st8" d="M163.6,282.2c-1.5-0.6-5.9-13.2-7.5-17.8c1.9-0.4,3.7-0.7,5.4-1C162.4,268.4,165.1,282.9,163.6,282.2z"/>
				<path class="st8" d="M153.7,279.6c-1.2-0.5-4-7.8-5.9-13.3c1.6-0.4,3.1-0.7,4.6-1.1C153.5,271.4,154.9,280.1,153.7,279.6z"/>
				<path class="st8" d="M170.8,275.2c-1.1-0.5-3.7-7.1-5.6-12.5c1.6-0.3,3.1-0.5,4.6-0.7C170.8,268.1,171.9,275.7,170.8,275.2z"/>
			</g>
			<path class="st8" d="M76.9,410.2c-1.4-0.2-2.9-0.3-4.3-0.6c-0.1,0-0.2,0-0.4-0.1c3.3-5.4,7.6-12.1,8.2-11
				C80.8,399.6,78.8,405.2,76.9,410.2z"/>
			<path class="st8" d="M150.5,398.5c0,0-15,5.8-15.7,7.7c-0.7,1.9,17.1-2.2,17.1-2.2L150.5,398.5z"/>
			<path class="st8" d="M147.1,382.9c0,0-15,5.8-15.7,7.7c-0.7,1.9,17.1-2.2,17.1-2.2L147.1,382.9z"/>
			<path class="st1" d="M145.7,378.1c0.9,2.9,1.7,5.7,2.5,8.6c0.8,2.9,1.6,5.8,2.4,8.6c0.8,2.9,1.5,5.8,2.4,8.6
				c0.2,0.7,0.4,1.4,0.7,2.1c0.1,0.3,0.3,0.7,0.4,0.9c0.1,0.2,0.5,0.4,0.7,0.7c1.2,1,2.3,2,3.3,3.1c-1.2-0.9-2.4-1.8-3.7-2.5
				c-0.3-0.2-0.6-0.3-1-0.8c-0.3-0.3-0.4-0.7-0.6-1c-0.3-0.7-0.6-1.4-0.9-2.1c-1.1-2.8-1.9-5.7-2.7-8.6c-0.8-2.9-1.5-5.8-2.1-8.7
				C146.7,384.1,146.1,381.1,145.7,378.1z"/>
			<path class="st1" d="M150.7,393.8l1.6-2.7c0.5-0.9,1-1.8,1.6-2.7c1.1-1.8,2.1-3.6,3.2-5.4l0.2-0.3l0.3,0l0,0l-0.5,0.3
				c2.1-3.6,4.1-7.3,6.1-11c1-1.9,1.9-3.7,2.8-5.6c0.9-1.9,1.7-3.8,2.5-5.8c-0.4,2.1-1,4.1-1.8,6.1c-0.7,2-1.5,3.9-2.5,5.8
				c-1.8,3.8-3.9,7.5-6.1,11.1l-0.2,0.3l-0.3,0l0,0l0.5-0.3c-0.6,0.9-1.1,1.8-1.7,2.6l-1.8,2.6C153.3,390.5,152.1,392.2,150.7,393.8
				z"/>
			<g>
				<path class="st10" d="M77.7,296.8c0,0-9.1-29.9,14.2-57.9c18.2-21.8,51.8-21.4,70.5-10.6c12.6,7.3,18.9,21.5,19.9,22.1
					c0.9,0.7,7.9-0.6,9.4,0.6c1.5,1.1,5.7,8.3,5.1,9.4C196.2,261.6,142.9,262.5,77.7,296.8z"/>
				<path class="st10" d="M92.5,238.3c0,0,0.4-8.6,1.3-9.9c1-1.3,17.2-15.8,35-13.1c2.1,0.3,8,8.6,8,8.6L92.5,238.3z"/>
				<path class="st4" d="M134.8,221.1c1.2,0.9,2.4,2,3.5,3.1c1.1,1.1,2.1,2.3,3,3.6c1.9,2.5,3.5,5.2,4.8,8.1l1.5,3.4l-2.6-2.8
					c-3-3.2-6-6.5-9.2-9.6c-1.6-1.5-3.1-3.1-4.9-4.4c-0.8-0.6-1.9-0.7-3-0.7c-1.1,0-2.2,0.2-3.2,0.6c1-0.5,2.1-0.9,3.2-1
					c0.6-0.1,1.1-0.1,1.7,0c0.6,0,1.2,0.2,1.7,0.5c2,1.2,3.6,2.7,5.3,4.2c3.3,3,6.4,6.2,9.4,9.5l-1,0.7c-0.6-1.4-1.3-2.8-2-4.1
					c-0.7-1.3-1.5-2.7-2.4-3.9c-0.8-1.3-1.8-2.5-2.7-3.7C136.9,223.4,135.9,222.2,134.8,221.1z"/>
				<path class="st4" d="M94.5,236.1c1.8-1.7,3.8-3.2,5.8-4.5c2.1-1.4,4.2-2.6,6.5-3.6c2.2-1.1,4.5-2,6.9-2.8
					c2.3-0.8,4.8-1.3,7.2-1.7c-2.3,0.9-4.6,1.7-6.9,2.6c-2.3,0.9-4.5,1.9-6.7,3c-2.2,1-4.4,2.2-6.5,3.3
					C98.8,233.6,96.6,234.8,94.5,236.1z"/>
				<path class="st4" d="M177.9,251.3c-4.1,0.7-8.2,1.4-12.2,2.3c-4.1,0.8-8.1,1.7-12.1,2.6c-8.1,1.9-16.1,3.9-24,6.4
					c-7.9,2.4-15.7,5.2-23.3,8.4c-1.9,0.8-3.8,1.7-5.7,2.5l-2.8,1.3l-2.7,1.5l-2.7,1.4l-1.4,0.7l-1.3,0.8l-5.3,3.3
					c6.7-5,14-9,21.5-12.5l5.7-2.5c1.9-0.8,3.9-1.5,5.8-2.2l2.9-1.1l3-1c2-0.6,3.9-1.3,5.9-1.9c8-2.4,16-4.4,24.2-6.1
					C161.4,253.6,169.6,252.1,177.9,251.3z"/>
			</g>
		</g>
	</g>
	<g>
		<g>
			<path class="st3" d="M586.4,389.2l9.8-67.1l2.8,1.3l4.5,2.1l19.6,8.8l17.5,7.9l11.5,5.2l17.5,7.9l9.6,4.3
				c7.6,4.1,5.9,15.4-2.5,17.2l-4.1,0.6l0,0l-6.4,0.9l-19.1,2.6l-12.6,1.7l-19.1,2.6l-8,1.1L586.4,389.2z"/>
			<polygon class="st0" points="647.3,380.9 652.1,347.4 669.7,355.3 666.3,378.3 			"/>
			<polygon class="st0" points="615.6,385.2 623,334.3 640.6,342.2 634.7,382.6 			"/>
			<path class="st1" d="M600.9,321.9c-3.3,5.1-5.7,10.6-7.6,16.3c-1.9,5.7-3.1,11.5-3.9,17.4c-0.2,3-0.6,5.9-0.6,8.9
				c0,1.5-0.1,3-0.1,4.5c0.1,1.5,0.1,3,0.2,4.5c0,0.7,0,1.5,0.1,2.2l0.2,2.2l0.4,4.5c0.4,3,0.9,6,1.2,9c-0.9-2.9-1.8-5.8-2.5-8.8
				l-0.8-4.5l-0.4-2.3c-0.1-0.8-0.2-1.5-0.2-2.3c-0.2-1.5-0.3-3-0.4-4.6c-0.1-1.5-0.1-3.1-0.1-4.6c-0.1-3.1,0.3-6.1,0.5-9.2
				c0.8-6.1,2.3-12.1,4.6-17.8C593.7,331.8,596.7,326.3,600.9,321.9z"/>
			<path class="st4" d="M599.4,324c0,0-1.4,3.9-3.6,7.2c-6,9.3-10.3,28.3-7,50.2c0.3,1.9,0.6,5.1,1.4,6.9l4.1-0.3
				c0,0,19-41.7,81.2-30.1l-5.9-2.7l-17.5-7.9l-11.5-5.2l-17.5-7.9L599.4,324z"/>
			<path class="st3" d="M569.1,385.5l11.1-76.6c0.6-3.8,4.8-5.8,8.1-3.9l22.7,13.2c1.9,1.1,2.9,3.3,2.6,5.5l-11.1,76.6
				c-0.6,3.8-4.8,5.8-8.1,3.9l-22.7-13.2C569.9,389.8,568.8,387.7,569.1,385.5z"/>
			
				<ellipse transform="matrix(0.1119 -0.9937 0.9937 0.1119 172.0634 903.3463)" class="st1" cx="591.4" cy="355.4" rx="29.7" ry="9.9"/>
		</g>
		<g>
			<g>
				<path class="st0" d="M706.4,332.6c0,0-8.2,1-13.8,3c-1.3,0.5-2.4,1-3.3,1.5c-6.5,4.2-9,10.9-13.9,13.8c-4.8,2.9-7.1,0.6-9-0.5
					c-1.9-1.1-4.2,0.8-7.4,1.3c-3.2,0.5-4.8-7.4,7.9-21.6c2.5-2.8,5.1-5.1,7.8-7.1c14.7-11,30-10.2,30-10.2L706.4,332.6z"/>
				<path class="st11" d="M706.4,332.6c0,0-8.2,1-13.8,3c-2.3-8.6-11.6-11.5-18-12.6c14.7-11,30-10.2,30-10.2L706.4,332.6z"/>
			</g>
			<g>
				<path class="st0" d="M678.3,282c-1-0.6-2.1-1.3-3.2-2.2c-12.6-10.1-28.1-37.7-22.8-42.8c1.7-1.7,6.6-2.9,12.6-3.8c0,0,0,0,0,0
					c0.1,0,0.1,0,0.2,0c13.5-2,32.4-2.2,32.4-2.2C714.2,238.5,691.2,289.4,678.3,282z"/>
				<g>
					<path class="st9" d="M680.9,271.1c0,0-20.2-20.8-17.8-24.6c2.8-4.6,35.4-0.6,35.4-0.6S684.9,261.2,680.9,271.1z"/>
					<path class="st12" d="M663.3,246c2.7-1.2,5.7-1.6,8.7-1.9c3-0.3,5.9-0.4,8.9-0.3c1.5,0,3,0.1,4.4,0.2c1.5,0.1,3,0.2,4.4,0.4
						l4.4,0.6c1.5,0.3,2.9,0.5,4.4,0.8c-3-0.1-5.9-0.3-8.8-0.4c-2.9-0.1-5.9-0.3-8.8-0.4c-2.9-0.1-5.9-0.1-8.8,0
						c-1.5,0-2.9,0.1-4.4,0.3C666.2,245.5,664.7,245.6,663.3,246z"/>
				</g>
				<path class="st11" d="M678.3,282c-1-0.6-2.1-1.3-3.2-2.2c2.4-2.7,5.3-6.2,8.7-10.6c2.2-2.9,3.1-5.8,3.2-8.7
					c0.1-5.9-3.6-11.5-8-16.1c0,0-0.1-0.1-0.1-0.1c-5.2-5.4-11.2-9.3-13.3-10.6c-0.2-0.1-0.4-0.3-0.5-0.3l0.1,0l-0.1-0.2
					c13.5-2,32.4-2.2,32.4-2.2C714.2,238.5,691.2,289.4,678.3,282z"/>
			</g>
			<g>
				<path class="st1" d="M679.4,285.4c-6.5-1.7-13.1-3.4-19.6-5.2c-2-0.5-0.9-3.6,1.1-3c6.5,1.7,13.1,3.4,19.6,5.2
					C682.5,282.9,681.4,285.9,679.4,285.4L679.4,285.4z"/>
				<path class="st1" d="M678.3,291c-6.6,0.6-13.2,1.2-19.8,1.8c-2.1,0.2-2.6-3-0.5-3.2c6.6-0.6,13.2-1.2,19.8-1.8
					C679.8,287.6,680.3,290.8,678.3,291L678.3,291z"/>
			</g>
			<path class="st0" d="M831.3,301.1c-6.1,10.3-43.6,6.1-43.6,6.1s-3,7.1-9.7,10.7c-8.7,4.7-26,6.3-26,6.3s0.3,1.4,1.4,3.6
				c1.7,3.2,5,8.2,11.3,13.1c4.8,3.7,8.6,7.7,11,12c2.9,5.2,3.7,10.7,1.8,16.1c-3.4,9.9-28.5,22.5-45.5,20
				c-7.7-1.1-10.8-3.9-13.2-9.2c0,0-14.7,0-15.5-1c-0.8-1,0.2-2.3,0.2-2.3s-12.3,0-13.9,0c-1.6,0,1.6-3.1,5.5-4.8
				c0,0-10.3-22.1,7.1-32.9c0,0,2.3-18.3,0.8-21c0,0-0.1-0.1-0.1-0.2c-2.1-1.8-25.4-10.8-29-27.7c-0.2-0.7-0.3-1.3-0.3-2
				c-0.3-2.6-0.2-5.6,0.3-8.8c3.1-20,19.3-49,19.3-49s10.3,1,25,3.1c3.1,0.5,6.4,1,9.8,1.5c18.3,3,40.5,7.7,58,14.3
				c7.7,2.9,14.5,6.3,19.7,10C805.5,259,837.5,290.8,831.3,301.1z"/>
			<path class="st7" d="M731.3,291.8c-0.8-4.3,0.5-8.5,0.6-12.7c0.1-7-5.7-10.9-7.5-17.3c-4.3-15.2,10-24.4,23.6-23.1
				c19.5,1.8,31.4,18.8,27.1,38.1c-4.1,18.8-21.8,28.4-30.2,27.6C738.1,303.7,732.6,298.4,731.3,291.8z"/>
			<path class="st12" d="M728.9,322.9c3.9,0.3,7.7,0.7,11.6,0.9c3.9,0.3,7.7,0.4,11.6,0.3c-3.8,1-7.8,1.2-11.7,1
				C736.5,324.8,732.6,324.2,728.9,322.9z"/>
			<path class="st12" d="M748.2,347.6c-0.8,3.3-2,6.4-3.3,9.5c-1.3,3.1-2.7,6.1-4.5,9c0.8-3.3,2-6.4,3.3-9.5
				C745,353.5,746.4,350.5,748.2,347.6z"/>
			<path class="st12" d="M702.2,338.7c-0.3,1.5-0.6,3-0.8,4.6c-0.3,1.5-0.5,3.1-0.6,4.6c-0.3,3.1-0.5,6.1-0.2,9.2
				c0.2,3,0.8,6.1,2.1,8.8c1.3,2.7,3.6,4.9,6.4,6.3c-1.5-0.4-2.9-1.2-4.2-2.1c-1.3-1-2.3-2.3-3.1-3.7c-1.6-2.8-2.3-6-2.5-9.2
				c-0.2-3.2,0-6.3,0.6-9.4C700.3,344.7,701,341.6,702.2,338.7z"/>
			<g>
				<path class="st1" d="M774,315.4c5.5,3.9,11,7.8,16.5,11.8c1.7,1.2-0.4,3.6-2.1,2.4c-5.5-3.9-11-7.8-16.5-11.8
					C770.2,316.6,772.3,314.2,774,315.4L774,315.4z"/>
				<path class="st1" d="M777,310.6c6.4,1.8,12.8,3.5,19.2,5.3c2,0.5,1.4,3.7-0.6,3.2c-6.4-1.8-12.8-3.5-19.2-5.3
					C774.4,313.2,775,310,777,310.6L777,310.6z"/>
			</g>
			<g>
				<path class="st1" d="M737.4,288.9c0.1,3.4,3,6.1,6.5,6c3.4-0.1,6.1-3,6-6.5c-0.1-3.4-3-6.1-6.5-6
					C739.9,282.6,737.2,285.5,737.4,288.9z"/>
				<path class="st1" d="M679.4,274.7c0.1,3.2,2.9,5.8,6.1,5.6c3.2-0.1,5.8-2.9,5.6-6.1c-0.1-3.2-2.9-5.8-6.1-5.6
					C681.8,268.7,679.3,271.4,679.4,274.7z"/>
				<path class="st1" d="M716.9,282.3c0.6,1.7,1.2,3.4,1.3,5.1c0,0.8-0.2,1.5-0.6,1.8c-0.4,0.3-0.8,0.3-1.5,0
					c-1.3-0.6-2.6-1.8-3.9-3c-1.2-1.2-2.4-2.6-3.5-3.9l-0.8-0.9l-1,0.7c-1.1,0.8-2.4,1.5-3.7,2.1c-1.3,0.6-2.7,1-3.7,0.8
					c-0.5-0.2-0.8-0.4-0.9-0.8c-0.1-0.5,0.1-1.2,0.4-1.8c0.6-1.3,1.4-2.6,2.4-3.8c-1.3,0.9-2.4,1.9-3.4,3.3
					c-0.5,0.7-0.9,1.4-0.9,2.5c0,0.3,0.1,0.6,0.2,0.8c0.1,0.2,0.2,0.6,0.4,0.7c0.4,0.4,0.8,0.7,1.3,0.9c2,0.7,3.7,0.1,5.2-0.4
					c1.6-0.6,2.9-1.3,4.3-2.3l-1.7-0.3c1.1,1.5,2.4,2.8,3.8,4.1c0.7,0.6,1.4,1.2,2.2,1.8c0.8,0.5,1.6,1.1,2.7,1.4
					c0.5,0.1,1.1,0.3,1.8,0.2c0.7-0.1,1.3-0.5,1.7-0.9c0.2-0.3,0.4-0.5,0.5-0.8c0.1-0.3,0.2-0.6,0.2-0.9c0.1-0.6,0-1.1-0.1-1.6
					C719.1,285.3,718.1,283.7,716.9,282.3z"/>
				<path class="st9" d="M745,302.1c-0.5,3.2,4,6.7,10.1,7.7c6.1,1,11.5-0.7,12.1-4c0.5-3.2-4-6.7-10.1-7.7S745.6,298.9,745,302.1z"
					/>
				<path class="st9" d="M680.4,285c-0.2,2.3-2.9,4.1-6.6,4.8c-0.2-0.7-0.3-1.3-0.3-2c-0.3-2.6-0.2-5.6,0.3-8.8
					C677.9,280.2,680.6,282.6,680.4,285z"/>
				<path class="st1" d="M705.1,277.7c-0.2,0.9,3,2.9,3,2.9s3.8-0.6,3.9-1.5s-3.3-1.7-3.3-1.7S705.3,276.9,705.1,277.7z"/>
				<path class="st1" d="M760.4,271.2c-0.7,1.6-15-5.6-13.8-8.5C747.8,259.8,762.3,267,760.4,271.2z"/>
				<path class="st1" d="M695.9,250.8c0.4,1.3-12,4.1-12.7,1.7C682.5,250.2,695,247.3,695.9,250.8z"/>
			</g>
			<path class="st9" d="M789.5,300.8c0,0,28.9-2,29.7-6.5c1-5.3-26-24.1-26-24.1S793.2,290.7,789.5,300.8z"/>
			<path class="st12" d="M819.2,294.3c-0.3-1.5-1.4-2.6-2.3-3.7c-1-1.1-2-2.1-3.1-3.2c-2.2-2-4.4-3.9-6.8-5.8
				c-2.3-1.9-4.6-3.7-7-5.5c-2.4-1.8-4.8-3.5-7.2-5.3l1-0.5c0,2.6,0,5.2-0.2,7.7c-0.2,2.6-0.4,5.1-0.8,7.7c-0.4,2.5-0.8,5.1-1.4,7.6
				c-0.6,2.5-1.1,5-1.9,7.5c1-5,1.8-10.1,2.3-15.2c0.3-2.5,0.5-5.1,0.6-7.6c0.2-2.6,0.2-5.1,0.1-7.7l0-1.2l1,0.7
				c2.5,1.7,4.8,3.6,7.2,5.4c2.3,1.8,4.7,3.7,6.9,5.7c2.3,2,4.5,4,6.6,6.1c1,1.1,2,2.2,2.9,3.4C818.1,291.5,819.1,292.8,819.2,294.3
				z"/>
			<path class="st11" d="M725.2,322.5c-2-0.2-12-1.4-22.4-4.9c-2.1-1.8-25.4-10.8-29-27.7c-0.2-0.7-0.3-1.3-0.3-2
				c-0.3-2.6-0.2-5.6,0.3-8.8c3.1-20,19.3-49,19.3-49s10.3,1,25,3.1c-13.2,16.7-30.9,42.9-26.9,59.7
				C696.9,317.5,722,322,725.2,322.5z"/>
			<g>
				<path class="st10" d="M805.5,259c0,0,6.9-30.5-18.5-56.7c-19.8-20.4-53.2-17.6-71.1-5.4c-12,8.2-17.3,22.8-18.2,23.5
					s-7.9,0-9.4,1.2s-5.1,8.7-4.4,9.8C684.8,232.6,738.1,229.6,805.5,259z"/>
				<path class="st10" d="M786.5,201.7c0,0-1-8.5-2.1-9.8c-1.1-1.2-18.3-14.5-35.9-10.4c-2.1,0.5-7.3,9.2-7.3,9.2L786.5,201.7z"/>
				<path class="st4" d="M743,187.7c-1.2,1-2.2,2.2-3.2,3.4c-1,1.2-1.9,2.5-2.8,3.8c-1.7,2.6-3.1,5.4-4.2,8.4l-1.3,3.5l2.4-2.9
					c2.8-3.4,5.5-6.9,8.5-10.2c1.4-1.7,2.9-3.4,4.6-4.7c0.8-0.7,1.9-0.8,3-0.9c1.1-0.1,2.2,0,3.3,0.4c-1-0.5-2.1-0.7-3.3-0.7
					c-0.6,0-1.1,0-1.7,0.1c-0.5,0.1-1.2,0.3-1.7,0.7c-1.9,1.3-3.4,3-5,4.6c-3,3.3-5.9,6.7-8.6,10.2l1.1,0.6c0.5-1.4,1.1-2.9,1.7-4.2
					c0.6-1.4,1.3-2.8,2.1-4.1c0.7-1.3,1.6-2.6,2.5-3.9C741.1,190.2,742,188.9,743,187.7z"/>
				<path class="st4" d="M784.3,199.7c-1.9-1.6-4-2.9-6.2-4.1c-2.2-1.2-4.4-2.2-6.7-3.2c-2.3-0.9-4.7-1.7-7.1-2.2
					c-2.4-0.6-4.9-0.9-7.3-1.1c2.4,0.7,4.7,1.3,7,2.1c2.3,0.8,4.6,1.6,6.9,2.5c2.3,0.9,4.5,1.8,6.7,2.9
					C779.9,197.5,782.1,198.6,784.3,199.7z"/>
				<path class="st4" d="M702.3,221c4.1,0.4,8.3,0.8,12.4,1.4c4.1,0.5,8.2,1.1,12.3,1.7c8.2,1.3,16.3,2.7,24.4,4.6
					c8.1,1.8,16.1,4,23.9,6.6c2,0.6,3.9,1.4,5.8,2.1l2.9,1.1l2.8,1.3l2.8,1.2l1.4,0.6l1.4,0.7l5.5,2.9c-7-4.5-14.6-7.9-22.4-10.9
					l-5.9-2c-2-0.7-4-1.2-6-1.8l-3-0.9l-3-0.8c-2-0.5-4-1.1-6.1-1.5c-8.1-1.8-16.3-3.2-24.5-4.3C718.9,222,710.6,221.2,702.3,221z"
					/>
			</g>
			<path class="st7" d="M775.8,352.8c-1.7,1-3.4,1.7-5,2.2c-3.9,1.2-9.1,2.2-12.9,0c-1.5-0.9-2.5-2.3-3.5-3.6
				c-2.1-2.7-4.3-4.7-6.6-7.2c-6.1-6.7-0.9-13.5,5.8-16.5c1.7,3.2,5,8.2,11.3,13.1C769.7,344.5,773.4,348.6,775.8,352.8z"/>
			<path class="st12" d="M718.8,379.7c-0.4-2.5,0.1-5.2,1.5-7.4c1.4-2.2,3.6-3.9,6.1-4.8l1.9-0.6c0.6-0.2,1.3-0.2,1.9-0.4
				c1.3-0.2,2.5-0.3,3.8-0.5c2.5-0.3,5.1-0.5,7.6-0.7c5.1-0.4,10.2-0.6,15.1-1.4c2.4-0.4,5-0.9,6.5-3c1.5-1.9,2.2-4.5,2.3-7
				c0.2,2.5-0.3,5.2-1.8,7.4c-0.4,0.5-0.8,1-1.3,1.5c-0.3,0.2-0.5,0.4-0.8,0.6l-0.9,0.4c-1.2,0.5-2.5,0.8-3.7,1.1
				c-2.5,0.5-5.1,0.8-7.6,1.1l-7.6,0.7c-2.5,0.2-5.1,0.4-7.6,0.6c-2.5,0.2-5,0.5-7.4,1.2c-2.3,0.7-4.5,2.2-5.9,4.2
				C719.4,374.6,718.7,377.2,718.8,379.7z"/>
			<path class="st7" d="M716,369.4c-1.6,0.6-3.2,1.8-4.8,1.4c1.2-2.8,3.9-19.9,5.4-30.3c5.2,3.4,10.5,9.4,10.9,15.7
				C728,363.7,722,366.9,716,369.4z"/>
			<path class="st12" d="M703.5,376.5c0.3-0.7,0.9-1.3,1.6-1.8c0.6-0.5,1.3-0.9,1.9-1.3l2-1.2c0.7-0.4,1.3-0.8,1.8-1.3l0.1-0.1
				l-0.1,0.1c-0.1,0.1,0,0,0-0.1c0-0.1,0.1-0.2,0.1-0.3c0.1-0.2,0.1-0.4,0.2-0.5c0.1-0.4,0.2-0.8,0.3-1.2l0.5-2.4l0.8-4.8l1.6-9.6
				c0.5-3.2,1.1-6.4,1.7-9.6c0.6-3.2,1.2-6.4,1.9-9.6c-0.6,6.5-1.4,13-2.3,19.5c-0.5,3.2-1,6.5-1.6,9.7c-0.3,1.6-0.6,3.2-1,4.8
				c-0.2,0.8-0.4,1.6-0.6,2.4c-0.1,0.4-0.2,0.8-0.3,1.2c-0.1,0.2-0.1,0.4-0.2,0.6c0,0.1-0.1,0.2-0.1,0.3c-0.1,0.1-0.1,0.2-0.3,0.4
				l0,0c-0.7,0.6-1.4,0.9-2,1.3c-0.7,0.4-1.4,0.7-2.1,1.1c-0.7,0.3-1.4,0.7-2,1.1C704.6,375.4,703.9,375.8,703.5,376.5z"/>
		</g>
	</g>
</g>
</svg>
