<?xml version="1.0" encoding="utf-8"?>
<!-- Generator: Adobe Illustrator 23.0.0, SVG Export Plug-In . SVG Version: 6.00 Build 0)  -->
<svg version="1.1" id="Layer_1" xmlns="http://www.w3.org/2000/svg" xmlns:xlink="http://www.w3.org/1999/xlink" x="0px" y="0px"
	 viewBox="0 0 600 453.5" style="enable-background:new 0 0 600 453.5;" xml:space="preserve">
<style type="text/css">
	.st0{fill:#BCDFFD;}
	.st1{fill:#9DCBF2;}
	.st2{fill:#74A4CF;}
	.st3{fill:#8ABBE6;}
	.st4{fill:#FF5C5B;}
	.st5{fill:#FFFFFF;}
	.st6{fill:#C7C7C7;}
	.st7{fill:#3981BD;}
	.st8{fill:#080C1F;}
	.st9{fill:#FDB32C;}
	.st10{fill:#CC6F49;}
	.st11{fill:#C4533A;}
	.st12{fill:#FFA323;}
	.st13{fill:#522F00;}
	.st14{fill:#EB9011;}
	.st15{fill:#1C050D;}
	.st16{fill:none;stroke:#FFFFFF;stroke-width:0.4421;stroke-miterlimit:10;}
	.st17{fill:#F7BB8B;}
	.st18{fill:#EBA771;}
	.st19{fill:#55C1F2;}
	.st20{opacity:0.23;fill:#28ACE3;enable-background:new    ;}
</style>
<g>
	<path class="st0" d="M296.2,295.3c-0.6-0.6-1.2-1.3-1.9-1.9l0,0l0,0c-5.8-5.8-12.6-10.7-19-15.4c-10.7-7.8-20.9-15-27.2-26
		c-4.2-7.3-6.2-15.8-8.3-24c-0.6-2.6-1.3-5.4-2-8c-4-14.5-9.6-23.6-17.9-28.9c-6.5-4.1-14-5.4-21.4-6.7c-6.7-1.2-13.6-2.4-19.4-5.6
		c-6.1-3.5-10.8-9.2-15.4-14.7l-0.2-0.4c-5.2-6.3-10.1-11.8-16.7-15.2c-6.5-3.3-15.9-4.1-22.1,1.3c-8,6.8-6.7,19.5-2.1,28.5
		c1.9,3.6,4.1,7.1,6.3,10.3c3.2,4.7,6.3,9.5,8.2,14.8c2.8,8.2,2.4,17.5,1.8,26.6c-0.6,10.8-1.3,21.9,4,31.5
		c5.9,10.7,17,16.1,28,21.3c8.8,4.2,18,8.6,24.2,15.8c8.5,9.8,10.3,22.6,12.3,36.1c1.3,8.6,2.6,17.5,5.8,25.6
		c4.9,12.7,14.8,23.4,26.9,29.5c8.2,4.1,21.6,7.9,33,7.9c4.9,0,9.5-0.7,13.1-2.5c14.6-7.1,24.7-27.3,27.3-43.7
		C316.4,331.5,309.8,310,296.2,295.3z M291.9,294.1l-11.5,70.5l-23.9-33.2l0,0l9.4-57.5c2.6,2,5.3,3.9,7.9,5.8
		C280.1,284.3,286.5,288.9,291.9,294.1z M264.1,272.5L264.1,272.5l-9.3,56.6l-23.9-33.2l0,0l9.3-56.9c1.4,4.9,3.2,9.8,5.8,14.2
		C250.5,260.9,257,267,264.1,272.5z M235.5,220.7c0.7,2.6,1.4,5.3,2,8c0.5,1.8,0.8,3.5,1.3,5.2l-9.8,59.6l-23.9-33.2l0,0l11.2-68.4
		c0.7,0.4,1.4,0.7,2.1,1.2C226.3,198,231.7,206.7,235.5,220.7z M214.5,190.8l-10.9,66.9l-23.9-33.2l0,0l6.6-40.4
		c3.9,1.1,7.8,1.8,11.8,2.5C203.9,187.6,209.4,188.6,214.5,190.8z M161.9,165.4c4.7,5.6,9.5,11.5,16,15.2c2,1.2,4.1,2,6.3,2.8
		l-6.3,38.7L154,188.9l0,0l4.5-27.4c1.1,1.2,2,2.4,3.1,3.5L161.9,165.4z M135.8,148.1c3.5,0,6.9,0.9,9.9,2.4
		c4.1,2.1,7.6,5.2,11.1,8.8l-4.5,26.9l-25.5-35.5C129.3,148.9,132.6,148.1,135.8,148.1z M125.1,152.3l25,34.8l-22.1-3.6
		c-1.3-2.1-2.6-4.2-3.8-6.3C120.3,169.5,119,158.6,125.1,152.3z M139,202.8c-2-5.6-5.3-10.6-8.5-15.4c-0.2-0.4-0.6-0.8-0.8-1.2
		l22.2,3.6l23.8,33.2l-34.3-5.6v0.2C141.2,212.5,140.6,207.5,139,202.8z M141,230.1c0.2-3.5,0.4-7.1,0.5-10.6l36.2,5.9l23.8,33.2
		l-60.4-9.9C140.1,242.8,140.5,236.5,141,230.1z M144.6,260.4c-1.6-2.9-2.7-6.1-3.3-9.4l61.8,10.1l23.8,33.2l-42-6.9v0.4
		c-4.2-2.6-8.8-4.8-13.3-6.9C160.6,275.4,150.1,270.4,144.6,260.4z M196.6,297.1c-2.2-2.6-4.8-4.8-7.6-6.8l40,6.6l23.8,33.2l-45-7.4
		v0.2C205.8,313.4,202.9,304.4,196.6,297.1z M208,324.8l46.6,7.6l23.8,33.2L213.6,355c-2-6.7-3.1-13.8-4.1-20.7
		C209,331.2,208.5,328,208,324.8z M285.1,393.1c-10.9,5.3-33,0.1-44.1-5.4c-11.6-5.9-21-16.2-25.9-28.3c-0.2-0.7-0.5-1.3-0.7-2
		l65.7,10.8l13.5,18.8C291,389.6,288.2,391.7,285.1,393.1z M311.1,351c-1.8,11.6-7.5,25.3-15.9,34.3l-13.1-18.1l0,0l11.6-71.1
		c0.2,0.2,0.5,0.5,0.6,0.7C307.8,311.1,314.2,331.9,311.1,351z"/>
	<g>
		<g>
			<g>
				<path class="st1" d="M209.7,401.4c-15.4-8.5-27.4-21.9-38-36c-10.6-14-20.1-28.9-32.1-41.7c-12.2-12.9-26.9-23.5-43.1-30.9
					c-2.8-1.3-2-5.5,1.1-5.6c30.8-1.5,62.1,1.4,90.7,12.7c32.6,12.8,61.5,37.4,74.5,69.8c4.9,12.3,8.9,33.9-7.5,38.2
					C240.4,411.8,223,408.7,209.7,401.4z"/>
			</g>
		</g>
		<g>
			<path class="st2" d="M260.9,399.4c-0.5,0-0.8-0.2-1.1-0.7c-20.6-48.3-62.1-74.9-93.2-88.8c-33.7-14.9-63-18.6-63.4-18.6
				c-0.6-0.1-1.1-0.6-0.9-1.3c0.1-0.6,0.6-1.1,1.3-0.9c0.4,0,29.9,3.6,64,18.7c31.5,14,73.5,40.9,94.4,89.8c0.2,0.6,0,1.2-0.6,1.4
				C261.1,399.4,261,399.4,260.9,399.4z"/>
		</g>
	</g>
</g>
<g>
	<g>
		<g>
			<path class="st1" d="M311,138.9c1.6-7.8,6.3-14.2,12.9-18c10.8-6.1,26.7-5.2,34.2-14.9c7.4-9.6,3.8-26.8,13.4-34.3
				c8.7-6.8,23.8-1.9,33.9-6.9c5.1-2.5,8.2-7.3,12.8-10.6c4.5-3.3,11.5-4.6,16.6-0.5c3.9,3.2,5.2,8.6,4.2,12.8
				c-0.9,4.2-3.5,7.6-6.2,10.9c-2.6,3.3-5.4,6.6-6.5,10.8c-2.1,8.1,2,18-0.6,25.9c-2.1,6.2-8,9.9-14.1,12.5
				c-6.1,2.5-12.7,4.2-17.6,8.3c-9.5,7.9-10.9,22.2-18,32.3c-6.5,9.2-18,14.5-30.3,13.6c-9.6-0.6-23.5-5.3-30.3-14
				C309.9,160.2,309.6,145.9,311,138.9z"/>
		</g>
		<g>
			<path class="st2" d="M321.1,173.7c-0.2,0-0.6-0.1-0.8-0.4c-0.5-0.5-0.5-1.2,0-1.5L434,53c0.5-0.5,1.2-0.5,1.5,0
				c0.5,0.5,0.5,1.2,0,1.5L321.8,173.4C321.7,173.6,321.4,173.7,321.1,173.7z"/>
		</g>
	</g>
	<g>
		<g>
			<g>
				<path class="st0" d="M384.7,158.1c8.6-1.4,16.5-5.9,23.8-10.7c7.3-4.9,14.2-10.3,22-14.5c7.9-4.1,16.6-6.7,25.4-7.5
					c1.5-0.1,1.9-2.2,0.5-2.8c-14.2-5.8-29.5-9.4-44.8-8.8c-17.4,0.7-35,7.5-46.6,20.7c-4.4,4.9-9.8,14.5-2.7,19.3
					C368.6,158,377.2,159.3,384.7,158.1z"/>
			</g>
		</g>
		<g>
			<path class="st3" d="M361.2,148.8c-0.1,0-0.2,0-0.4-0.1c-0.2-0.2-0.2-0.6,0-0.8c34.1-37.6,91.8-25.4,92.3-25.3
				c0.4,0.1,0.5,0.4,0.5,0.7c-0.1,0.4-0.4,0.5-0.7,0.5c-0.6-0.1-57.6-12.1-91.2,25C361.4,148.8,361.3,148.8,361.2,148.8z"/>
		</g>
	</g>
</g>
<g>
	<g>
		<g>
			<rect x="378.1" y="138.2" class="st4" width="40.2" height="271.4"/>
			<rect x="382.3" y="148.2" class="st5" width="31.7" height="146.3"/>
			<g>
				<rect x="384.3" y="152.1" class="st4" width="27.7" height="3.3"/>
				<rect x="384.3" y="285.1" class="st4" width="27.7" height="3.3"/>
			</g>
			<g>
				<circle class="st6" cx="398.2" cy="358.8" r="14.5"/>
				<circle class="st7" cx="398.2" cy="358.8" r="12.3"/>
			</g>
		</g>
		<g>
			<g>
				<path class="st8" d="M381.6,405.1c1.2-0.4,2.2-0.5,3.4-0.5s2.2,0.1,3.4,0.5c-1.2,0.4-2.2,0.5-3.4,0.5
					C383.9,405.6,382.7,405.5,381.6,405.1z"/>
			</g>
			<g>
				<path class="st8" d="M381.6,400.1c0.7-0.4,1.3-0.5,2-0.5c0.7,0,1.3,0.1,2,0.5c-0.7,0.4-1.3,0.5-2,0.5
					C382.9,400.5,382.2,400.4,381.6,400.1z"/>
			</g>
		</g>
	</g>
	<g>
		<g>
			<rect x="340.1" y="138.2" class="st9" width="40.2" height="271.4"/>
			<rect x="344.4" y="148.2" class="st5" width="31.7" height="146.3"/>
			<g>
				<rect x="346.4" y="152.1" class="st9" width="27.7" height="3.3"/>
				<rect x="346.4" y="285.1" class="st9" width="27.7" height="3.3"/>
			</g>
			<g>
				<circle class="st6" cx="360.2" cy="358.8" r="14.5"/>
				<circle class="st7" cx="360.2" cy="358.8" r="12.3"/>
			</g>
		</g>
		<g>
			<g>
				<path class="st8" d="M370.5,400.7c-0.6,0.4-1.2,0.5-1.6,0.5c-0.6,0-1.2-0.1-1.6-0.5c0.6-0.4,1.2-0.5,1.6-0.5
					S369.9,400.3,370.5,400.7z"/>
			</g>
			<g>
				<path class="st8" d="M360.4,405.7c1.5-0.4,2.9-0.5,4.5-0.5c1.5,0,2.9,0.1,4.5,0.5c-1.5,0.4-2.9,0.5-4.5,0.5
					C363.3,406.1,361.9,406.1,360.4,405.7z"/>
			</g>
		</g>
	</g>
	<g>
		<g>
			
				<rect x="447.9" y="137" transform="matrix(0.9746 -0.2241 0.2241 0.9746 -49.214 111.806)" class="st0" width="40.2" height="271.4"/>
			
				<rect x="440.3" y="148.4" transform="matrix(0.9746 -0.2241 0.2241 0.9746 -38.0508 107.8705)" class="st5" width="31.7" height="146.3"/>
			<g>
				
					<rect x="427.2" y="154" transform="matrix(0.9746 -0.2241 0.2241 0.9746 -23.6574 102.7899)" class="st0" width="27.7" height="3.3"/>
				
					<rect x="456.9" y="283.6" transform="matrix(0.9746 -0.2241 0.2241 0.9746 -51.9379 112.7549)" class="st0" width="27.7" height="3.3"/>
			</g>
			<g>
				<ellipse class="st6" cx="486.9" cy="355.4" rx="14.5" ry="14.5"/>
				<ellipse class="st7" cx="487" cy="355.4" rx="12.3" ry="12.3"/>
			</g>
		</g>
		<g>
			<path class="st8" d="M481.6,403.5c2-0.9,4-1.5,6-2.1c2-0.6,4.1-1.1,6.2-1.3c-2,0.9-4,1.5-6,2.1
				C485.7,402.8,483.7,403.3,481.6,403.5z"/>
		</g>
	</g>
</g>
<g>
	<g>
		<g>
			<g>
				<path class="st10" d="M424.1,394.6c-0.6,3.3-0.9,5.2-0.9,5.2l9.8,6.1l2-7.8C431.5,397.1,427.5,395.7,424.1,394.6z"/>
			</g>
			<path class="st5" d="M423.1,398.2c0,0-2.8,1.3-4.9,1.4c-2.1,0.2-10.2-3.2-11.2,1.2l19,6.7l2.2-1.1l-0.7,1.9l3.8,1.3
				c0,0,2.9-3.8,2.5-6.8c0,0-3.6,1.5-6.2-0.6C425.1,400.1,423.1,398.2,423.1,398.2z"/>
		</g>
		<g>
			<g>
				<path class="st10" d="M517.4,369c-0.4,0.5-0.7,0.9-0.9,1.3c-2,2.7-3.8,5.5-5.5,8.5l5.9,3.6l4,0.7l4.2-8.7
					C525,374.4,520.1,371.2,517.4,369z"/>
			</g>
			<path class="st5" d="M516.3,382.7c0,0,0.5,3.1,0.1,5.2c-0.4,2.1-5.6,9.1-1.8,11.1l11.3-16.8l-0.5-2.5l1.6,1.1l2.2-3.3
				c0,0-2.8-3.8-5.9-4.1c0,0,0.6,3.9-2.2,5.9C518.4,381.1,516.3,382.7,516.3,382.7z"/>
		</g>
		<g>
			<path class="st5" d="M485.3,291.6c0,0,2.7,7.8,2.8,16.6c0.1,8.8,0.8,37.6,0.8,37.6l32.9,26.5l-6.6,11.5c0,0-41.5-24-43.5-28
				c-2-4.1-8-43.5-8-43.5l-29.5,88.4l-11.1-4.5L446.2,292L485.3,291.6z"/>
			<g>
				<g>
					<path class="st8" d="M483,295l1.1,12.9l0.9,12.9c0.6,8.6,1.2,17.3,1.8,25.9l-0.1-0.4c5.4,4.5,10.9,8.9,16.5,13.5
						c5.4,4.5,10.8,9.1,16.2,13.6c-5.5-4.4-11.2-8.7-16.7-13.2c-5.5-4.4-11.1-8.9-16.6-13.3l-0.1-0.1v-0.2
						c-0.6-8.6-1.1-17.3-1.6-25.9l-0.7-12.9L483,295z"/>
				</g>
				<g>
					<path class="st8" d="M464.1,312.2l-3.5-2.4h0.1c-2.1,7.4-4.4,14.9-6.6,22.3l-6.8,22.2l-6.9,22.2l-3.5,11.1l-3.6,11.1l3.3-11.2
						l3.3-11.2l6.8-22.2l6.9-22.2c2.4-7.4,4.7-14.8,7.2-22.1v-0.1h0.1L464.1,312.2z"/>
				</g>
				<g>
					<path class="st8" d="M478.1,294.6c0.1,1.3,0.1,2.6,0.4,3.8c0.1,1.3,0.4,2.5,0.7,3.6c0.4,1.2,0.8,2.4,1.5,3.3
						c0.8,0.9,2,1.4,3.3,1.5c-0.6,0.1-1.3,0.1-2-0.1c-0.7-0.1-1.3-0.5-1.8-1.1c-1.1-0.9-1.5-2.2-1.9-3.5
						C477.5,299.8,477.5,297.1,478.1,294.6z"/>
				</g>
			</g>
		</g>
	</g>
	<g>
		<g>
			<path class="st10" d="M422.8,298.3c-3.4,2.7-5.6,4.6-6,4.8l0,0c-2.9-0.4-5.2,0.4-6.3,0.6c-0.9,0.2-0.9,0.8-0.9,1.2
				c0,0.2,0.2,0.4,0.4,0.2c0.8-0.2,2.6-0.2,2.9,0.2c0.4,0.6-5.8,3.5-5.5,4.5c0.1,0.4,4.6-1.5,4.6-1.5s-4.4,2.9-3.8,3.4
				c0.6,0.4,4.7-1.8,4.7-1.8s-4,3.5-3.3,3.6c0.7,0.1,4.2-2.1,4.2-2.1c-1.3,1.4-1.6,2.2-1.8,2.6c0,0.2,0.1,0.4,0.4,0.2
				c2-1.1,5.3-5.2,6.6-6.9l0,0v0.1c2.6-0.6,5.1-1.4,7.5-2.4C425.1,303.1,423.9,300.7,422.8,298.3z"/>
			<path class="st4" d="M418.4,301.2l2.9,7.3c0,0,24.6-10.3,28.6-16.2c4-5.9,9.1-35,8.2-37.5c-0.8-2.5-6.2-6.1-8.9-5.2
				c-2.7,0.9-11.4,35-11.4,35L418.4,301.2z"/>
		</g>
		<g>
			<g>
				<path class="st10" d="M483.2,248.1c-1.4-1.3-3.3-2-5.2-2.1c-3.3-0.1-5.5-1.3-6.8-2.6c-0.9-5.3,0.4-13.3,0.6-14.5v-0.1l-13.3,7.4
					c0.2,0.4,0.4,0.8,0.4,1.4l0,0c0.1,1.2,0,2.7-0.2,4c-0.2,1.2-0.5,2.2-0.6,2.8c-1.6,2.6-4.1,3.2-7.8,5.4
					c-5.1,3.1-1.9,11.5-1.1,20.1c0.9,9.4,1.3,22.2,1.3,22.2h32c-0.8-7.9,1.2-19.6,3.4-32.6C486.9,253.3,485.2,249.8,483.2,248.1z"/>
				<path class="st11" d="M458.5,241.7c7.2,0.9,10.8-7.6,10.9-8c-1.3,2.1-3.3,3.2-5.2,3.6c-2.4,0.6-4.6,0.5-5.5,0.2l0,0
					C459,238.8,458.8,240.3,458.5,241.7z"/>
			</g>
			<g>
				<path class="st4" d="M457.5,244.8c0,0,7.4,4.2,13.9-1.5c0,0,4.5,2.4,7.6,2.1c3.2-0.2,9.2,2.8,9.4,10.2
					c0.2,7.4-4.9,26.2-3.3,28.7c1.6,2.4,3.5,5.8,2.7,8.3c-0.8,2.6-37.4,1.6-42,0.2c-2-0.6-2-2.7-1.3-4.9c1.6-5.3,2.1-10.8,1.6-16.2
					c-0.6-6.6-1.1-14.2-0.5-16.5c0.9-4.1,3.4-5.6,5.4-6.3C453.2,248.1,457.5,244.8,457.5,244.8z"/>
				<g>
					<g>
						<path class="st8" d="M457,246.9c1.3,0.6,2.6,0.9,3.9,1.3c1.3,0.2,2.7,0.4,4,0.1c1.3-0.2,2.6-0.6,3.8-1.3
							c0.6-0.2,1.2-0.7,1.6-1.1c0.6-0.4,1.1-0.9,1.6-1.3c-0.4,0.6-0.8,1.2-1.3,1.6c-0.5,0.5-1.1,1.1-1.6,1.4c-1.2,0.8-2.6,1.4-4,1.6
							C462.1,249.6,459.1,248.6,457,246.9z"/>
					</g>
					<g>
						<path class="st8" d="M457.5,276.2c0.5-1.2,1.2-2.2,2-3.2c0.8-0.9,1.6-1.9,2.7-2.6c-0.5,1.2-1.2,2.2-2,3.2
							C459.4,274.5,458.5,275.4,457.5,276.2z"/>
					</g>
				</g>
			</g>
		</g>
		<g>
			<g>
				<g>
					<g>
						
							<rect x="412.3" y="285.1" transform="matrix(8.448516e-02 -0.9964 0.9964 8.448516e-02 82.9601 707.4762)" class="st9" width="28.5" height="46.9"/>
						
							<rect x="426" y="266.9" transform="matrix(8.448329e-02 -0.9964 0.9964 8.448329e-02 100.5895 694.1017)" class="st12" width="4.1" height="50.9"/>
						
							<rect x="426.9" y="301" transform="matrix(8.448672e-02 -0.9964 0.9964 8.448672e-02 95.1908 723.1454)" class="st12" width="28.5" height="17.6"/>
						
							<rect x="440.2" y="294.7" transform="matrix(8.447845e-02 -0.9964 0.9964 8.447845e-02 105.6947 714.5821)" class="st13" width="3.1" height="10.1"/>
						
							<rect x="416.1" y="294" transform="matrix(8.447740e-02 -0.9964 0.9964 8.447740e-02 83.0348 692.5038)" class="st5" width="4.5" height="14.2"/>
						
							<rect x="440.8" y="283" transform="matrix(8.448596e-02 -0.9964 0.9964 8.448596e-02 112.9087 710.1054)" class="st14" width="4.1" height="21.2"/>
					</g>
					<g>
						<g>
							<path class="st8" d="M403.4,318.7c1.6-0.1,3.3,0,4.9,0.2c1.6,0.2,3.3,0.5,4.9,1.1c-1.6,0.1-3.3,0-4.9-0.2
								C406.6,319.5,405,319.2,403.4,318.7z"/>
						</g>
						<g>
							<path class="st8" d="M404.5,317.1c0.9-0.2,1.9-0.1,2.8-0.1c0.9,0.1,1.9,0.4,2.7,0.8c-0.9,0.2-1.9,0.1-2.8,0.1
								C406.3,317.8,405.4,317.5,404.5,317.1z"/>
						</g>
					</g>
				</g>
				<g>
					<g>
						
							<rect x="415" y="252.7" transform="matrix(8.448301e-02 -0.9964 0.9964 8.448301e-02 117.7815 680.469)" class="st9" width="28.5" height="46.9"/>
						
							<rect x="428.7" y="234.5" transform="matrix(8.448313e-02 -0.9964 0.9964 8.448313e-02 135.2842 667.1915)" class="st12" width="4.1" height="50.9"/>
						
							<rect x="429.6" y="268.6" transform="matrix(8.448047e-02 -0.9964 0.9964 8.448047e-02 129.8879 696.2366)" class="st12" width="28.5" height="17.6"/>
						
							<rect x="442.9" y="262.4" transform="matrix(8.447845e-02 -0.9964 0.9964 8.447845e-02 140.3894 687.6716)" class="st13" width="3.1" height="10.1"/>
						
							<rect x="419" y="261.5" transform="matrix(8.448582e-02 -0.9964 0.9964 8.448582e-02 117.9495 665.6199)" class="st5" width="4.5" height="14.2"/>
						
							<rect x="443.5" y="250.7" transform="matrix(8.448078e-02 -0.9964 0.9964 8.448078e-02 147.6055 683.1965)" class="st14" width="4.1" height="21.2"/>
					</g>
					<g>
						<g>
							<path class="st8" d="M406.3,286.5c1.5-0.1,3.1,0,4.5,0.1c1.5,0.2,2.9,0.5,4.5,1.1c-1.5,0.1-3.1,0-4.5-0.1
								C409.3,287.3,407.7,287.1,406.3,286.5z"/>
						</g>
						<g>
							<path class="st8" d="M407.2,284.9c0.8-0.2,1.5-0.2,2.2-0.1c0.7,0.1,1.5,0.2,2.2,0.7c-0.8,0.2-1.5,0.2-2.2,0.1
								C408.6,285.4,407.7,285.3,407.2,284.9z"/>
						</g>
					</g>
				</g>
				<g>
					<g>
						
							<rect x="421.8" y="232.6" transform="matrix(8.448179e-02 -0.9964 0.9964 8.448179e-02 147.1981 658.067)" class="st9" width="19.9" height="32.7"/>
						
							<rect x="431.3" y="219.9" transform="matrix(8.448235e-02 -0.9964 0.9964 8.448235e-02 159.4267 648.6782)" class="st12" width="2.8" height="35.4"/>
						
							<rect x="431.9" y="243.6" transform="matrix(8.448339e-02 -0.9964 0.9964 8.448339e-02 155.6425 668.8941)" class="st12" width="19.9" height="12.2"/>
						
							<rect x="441.2" y="239.2" transform="matrix(8.448201e-02 -0.9964 0.9964 8.448201e-02 163.0447 662.9647)" class="st13" width="2.1" height="7.1"/>
						
							<rect x="424.5" y="238.6" transform="matrix(8.447340e-02 -0.9964 0.9964 8.447340e-02 147.3734 647.5565)" class="st5" width="3.1" height="9.9"/>
						
							<rect x="441.7" y="231.1" transform="matrix(8.448120e-02 -0.9964 0.9964 8.448120e-02 168.081 659.7476)" class="st14" width="2.8" height="14.7"/>
					</g>
					<g>
						<g>
							<path class="st8" d="M416.2,255.8c1.1-0.2,2.1-0.1,3.2-0.1c1.1,0.1,2,0.4,3.1,0.8c-1.1,0.2-2.1,0.2-3.2,0.1
								C418.2,256.5,417.2,256.3,416.2,255.8z"/>
						</g>
						<g>
							<path class="st8" d="M416.8,254.4c0.8-0.2,1.5-0.1,2.2-0.1c0.7,0.1,1.4,0.4,2.1,0.8c-0.8,0.2-1.5,0.1-2.2,0.1
								C418.1,255,417.4,254.9,416.8,254.4z"/>
						</g>
					</g>
				</g>
			</g>
			<g>
				<path class="st10" d="M448.8,295.8c-2.1,1.8-3.5,2.9-3.9,3.2l0,0c-2.9-0.4-5.2,0.4-6.3,0.6c-0.9,0.2-0.9,0.8-0.9,1.2
					c0,0.2,0.2,0.4,0.4,0.2c0.8-0.2,2.6-0.2,2.9,0.2c0.4,0.6-5.8,3.5-5.5,4.5c0.1,0.4,4.6-1.5,4.6-1.5s-4.4,2.9-3.8,3.4
					c0.6,0.4,4.7-1.8,4.7-1.8s-4,3.5-3.3,3.6c0.7,0.1,4.2-2.1,4.2-2.1c-1.3,1.4-1.6,2.2-1.8,2.6c0,0.2,0.1,0.4,0.4,0.2
					c2-1.1,5.3-5.2,6.6-6.9l0,0v0.1c1.5-0.4,2.9-0.8,4.4-1.3C450.5,300,449.7,297.9,448.8,295.8z"/>
				<g>
					<path class="st4" d="M447,296.5c0,0,2.2,9.1,2.9,10.1c0.7,1.1,25.9-12.6,28.6-17c2.6-4.5,10-31.5,9.8-34.6
						c-0.2-3.1-3.1-10.5-10.2-9.1c-7.2,1.4-11.6,34.1-11.6,34.1L447,296.5z"/>
					<g>
						<path class="st8" d="M472.9,294.5c0,0,5.3-2.5,6.8-8c1.5-5.4,4.6-14.5,4.6-14.5S486.2,291.1,472.9,294.5z"/>
						<g>
							<path class="st8" d="M451.8,292.7c1.2-1.2,2.4-2.2,3.5-3.4c1.2-1.1,2.4-2.1,3.6-3.2c1.2-1.1,2.5-2.1,3.8-3.1
								c1.3-1.1,2.6-2,3.9-2.9l0,0l0,0c0.6,0,1.2-0.1,1.9-0.1c-0.6,0.1-1.2,0.2-1.8,0.5h0.1c-1.2,1.2-2.4,2.2-3.5,3.3
								s-2.5,2.1-3.6,3.2c-1.3,1.1-2.5,2.1-3.8,3.1C454.4,290.7,453.1,291.8,451.8,292.7z"/>
						</g>
						<g>
							<path class="st8" d="M467.1,274.9c0.2,0.9,0.2,1.8,0.2,2.7c-0.1,0.8-0.2,1.8-0.7,2.6c-0.2-0.9-0.2-1.8-0.2-2.7
								C466.5,276.6,466.7,275.7,467.1,274.9z"/>
						</g>
					</g>
				</g>
			</g>
		</g>
	</g>
	<g>
		<g>
			<path class="st10" d="M475.4,224.8c-0.4-1.1-1.5-2-2.7-1.6c-0.1,0-0.2,0.1-0.4,0.1c0.1-3.8-0.4-8-3.1-10.2
				c-5.6-4.9-13.9-3.2-15.5,1.2c-2,5.1-2.1,11.4-2,16.7c0,0.7,0,1.4,0.2,2.1c0.9,2.6,4.6,4.1,7.1,4.6c3.2,0.7,6.3-0.1,8.8-2.2
				c2-1.6,3.3-4,3.8-6.5c0.6,0,1.4-0.1,1.5-0.1c0.7-0.2,1.4-0.8,1.8-1.5C475.5,226.7,475.7,225.6,475.4,224.8z"/>
			<g>
				<g>
					<g>
						<g>
							<path class="st8" d="M456,223.1c0,0.8-0.4,1.5-0.7,1.5s-0.7-0.7-0.7-1.5c0-0.8,0.4-1.5,0.7-1.5
								C455.6,221.6,456,222.3,456,223.1z"/>
						</g>
						<g>
							<path class="st8" d="M460.8,223.1c0,0.8,0.4,1.5,0.7,1.5s0.7-0.7,0.7-1.5c0-0.8-0.4-1.5-0.7-1.5S460.8,222.3,460.8,223.1z"/>
						</g>
					</g>
					<g>
						<path class="st8" d="M455.6,227.6c0.2,0.5,0.6,0.9,1.1,1.3c0.5,0.4,1.1,0.6,1.6,0.6c0.6,0,1.2-0.2,1.6-0.6
							c0.2-0.1,0.5-0.4,0.6-0.6c0.1-0.2,0.4-0.5,0.5-0.7c-0.2,0.1-0.5,0.4-0.6,0.5c-0.2,0.1-0.5,0.4-0.7,0.5
							c-0.5,0.2-0.9,0.4-1.4,0.4s-0.9-0.1-1.4-0.4C456.4,228.3,456,228.1,455.6,227.6z"/>
						<path class="st8" d="M457.6,230.3c0.2,0.2,0.5,0.2,0.8,0.2c0.2,0,0.6-0.1,0.8-0.2c-0.2,0-0.5,0.1-0.8,0.1
							S457.8,230.3,457.6,230.3z"/>
					</g>
					<g>
						<path class="st8" d="M460.2,218c0.4-0.4,0.7-0.4,1.2-0.5c0.4,0,0.8,0,1.2,0.1s0.7,0.4,1.1,0.6c0.4,0.2,0.6,0.6,0.7,0.9
							c0.1,0.1,0,0.4-0.1,0.5c-0.1,0.1-0.4,0-0.4,0l0,0c-0.2-0.2-0.5-0.5-0.7-0.6c-0.2-0.1-0.5-0.2-0.8-0.4
							c-0.2-0.1-0.6-0.1-0.8-0.1s-0.6,0-0.9,0h-0.1c-0.2,0-0.4-0.2-0.2-0.5C460.1,218.1,460.1,218,460.2,218z"/>
						<path class="st8" d="M456.5,218c-0.4-0.4-0.7-0.4-1.2-0.5c-0.4,0-0.8,0-1.2,0.1c-0.4,0.1-0.7,0.4-1.1,0.6
							c-0.4,0.2-0.6,0.6-0.7,0.9c-0.1,0.1,0,0.4,0.1,0.5c0.1,0.1,0.4,0,0.4,0l0,0c0.2-0.2,0.5-0.5,0.7-0.6c0.2-0.1,0.5-0.2,0.8-0.4
							c0.2-0.1,0.6-0.1,0.8-0.1s0.6,0,0.9,0h0.1c0.2,0,0.4-0.2,0.2-0.5C456.7,218.1,456.5,218,456.5,218z"/>
					</g>
					<path class="st8" d="M456.9,220.7c-0.1,0.6-0.2,1.2-0.4,1.6c-0.1,0.6-0.2,1.1-0.4,1.6c0,0.1-0.1,0.2-0.1,0.4
						c0,0.1-0.1,0.4-0.1,0.5c0,0.4,0.2,0.7,0.5,0.9c0.4,0.1,0.7,0.1,0.9,0c0.2-0.1,0.6-0.2,0.7-0.5c-0.5,0.2-1.2,0.4-1.5,0.1
						c-0.2-0.1-0.2-0.4-0.2-0.6c0-0.1,0-0.1,0.1-0.4c0-0.1,0.1-0.2,0.1-0.5c0.1-0.6,0.2-1.2,0.2-1.8
						C456.9,221.8,456.9,221.2,456.9,220.7z"/>
					<path class="st8" d="M474.5,225.5c0-0.4-0.1-0.7-0.4-0.9c-0.4-0.2-0.8-0.2-1.2-0.1c-0.4,0.1-0.7,0.4-0.9,0.7
						c-0.2,0.2-0.5,0.6-0.6,0.9c0,0.1,0,0.2,0.1,0.4c0.1,0,0.2,0,0.2,0l0,0c0.2-0.2,0.6-0.5,0.8-0.6c0.1,0,0.2,0,0.4,0
						c0.1,0.1,0.2,0.2,0.2,0.4c0.1,0.4,0.2,0.7-0.1,0.8c-0.2,0.1-0.7,0.1-1.1,0.1c0.4,0.1,0.7,0.2,1.2,0.1c0.2-0.1,0.5-0.4,0.5-0.6
						c0-0.2,0-0.5-0.1-0.7s-0.1-0.5-0.4-0.6c-0.2-0.2-0.6-0.2-0.7-0.1c-0.5,0.1-0.8,0.5-1.1,0.7l0.5,0.2c0.2-0.6,0.6-1.2,1.2-1.4
						c0.2-0.1,0.6-0.2,0.8,0C474.3,224.8,474.4,225.1,474.5,225.5z"/>
				</g>
				<path class="st15" d="M454.2,228.4c0,0,1.1-2.2,3.6-2.4c2.7-0.1,4.2,1.9,4.4,2.7C462.3,228.9,457.8,229.7,454.2,228.4z"/>
			</g>
		</g>
		<path class="st15" d="M479.7,221.7c-0.2-1.9-1.8-3.3-3.2-4.4c-0.9-0.7-1.9-1.4-2.7-2.4c-0.6-0.7-0.8-1.8-0.6-2.6
			c0.4-1.4,0-3.2-1.1-4.2c-1.2-1.4-3.1-2-4.8-2c-1.8,0-3.5,0.5-5.2,0.9c-0.2,0-0.4,0.1-0.6,0.1c-1.8,0.4-3.6,0-5.2-0.9
			c-1.3-0.8-2.9-0.9-4.4-0.4c-2,0.9-3.4,3.1-3.9,5.4c-0.5,2.4-0.1,4.7,0.6,6.9c0.7,2.5,1.8,4.8,3.1,6.9c0.1-2.6,0.4-5.3,0.9-7.8
			c0.5,0.4,1.1,0.7,1.9,0.8c4.4,1.1,4.7-2.1,7.9-2.8c3.2-0.7,3.5,2,3.5,2s-0.1,8.7,1.8,8.9c1.3,0.1,3.2-1.9,4.5-3.3c0,0,0,0,0,0.1
			c0.1-0.1,0.2-0.1,0.4-0.1c1.2-0.2,2.4,0.6,2.7,1.6c0.2,0.8,0.1,1.9-0.4,2.6c-0.5,0.6-1.1,1.2-1.8,1.5c-0.2,0.1-0.9,0.2-1.5,0.1
			c-0.1,0.9-0.6,4-0.8,7.4l0,0c2.4,0.9,5.1-0.6,6.2-2.8c1.2-2.2,1.2-5.3,0-7.5C478.8,225.5,479.9,223.6,479.7,221.7z"/>
		<g>
			<path class="st16" d="M466.4,222.8c0,2.5-2,4.6-4.6,4.6c-2.5,0-4.6-2-4.6-4.6c0-2.5,2-4.6,4.6-4.6
				C464.4,218.2,466.4,220.3,466.4,222.8z"/>
			<path class="st16" d="M456.7,222.8c0,2.5-2,4.6-4.6,4.6c-2.5,0-4.6-2-4.6-4.6c0-2.5,2-4.6,4.6-4.6
				C454.5,218.2,456.7,220.3,456.7,222.8z"/>
			<line class="st16" x1="456.7" y1="222.7" x2="457.5" y2="222.7"/>
			<g>
				<path class="st5" d="M466.5,222.7c0.5-0.1,1.1-0.1,1.5-0.1c0.5,0,0.9,0.1,1.5,0.1c0.9,0.1,2,0.2,2.9,0.4l0,0c-1.1,0-2,0-2.9,0
					c-0.5,0-1.1,0-1.5-0.1C467.5,223,467,222.9,466.5,222.7L466.5,222.7z"/>
			</g>
		</g>
	</g>
</g>
<g>
	<g>
		<g>
			<path class="st17" d="M124.9,386.1l0.2,15.5l3.3,3.4l6.5-2.6c0,0,1.1-6.5,2.6-16.2h-12.6V386.1z"/>
		</g>
		<path class="st5" d="M124.5,400.5c-0.1-0.1-0.4-0.1-0.4,0.1c-0.2,0.8-0.6,2.6-1.1,4.2c-0.5,1.8,0.8,3.2,1.5,3.6
			c0.1,0.1,0.4,0.2,0.6,0.2l25.2-0.1c0,0,1.2-1.8-7.1-3.6c-8.1-1.9-5.1-4.4-7.5-4c-2.5,0.4-5.6,3.8-8.1,2
			C125.9,401.8,125,401,124.5,400.5z"/>
	</g>
	<g>
		<g>
			<path class="st17" d="M78.9,374.9c-3.2,10.3-5.4,17.4-5.4,17.4l1.6,6.7l8.3-2l9.2-17.5C88.1,377.7,83.5,376.3,78.9,374.9z"/>
		</g>
		<path class="st5" d="M73.4,392.1c-0.1-0.1-0.4-0.2-0.4,0c-0.5,0.7-1.5,2.1-2.6,3.5c-1.2,1.4-0.4,3.3,0,3.9
			c0.1,0.2,0.2,0.4,0.5,0.5l23.3,9.6c0,0,1.8-1.2-5.1-6.1c-6.7-4.9-2.9-5.9-5.4-6.6c-2.5-0.7-6.7,1.3-8.2-1.3
			C74.2,393.8,73.6,392.7,73.4,392.1z"/>
	</g>
	<g>
		<path class="st9" d="M108.4,291c0,0-10.7,18.6-12.9,28.8c-2.1,10.2-19,60.7-19,60.7l13.5,5.8l33.9-66.1l0.5,69.8l13.2,0.4
			c0,0,10.6-73.7,10.3-79.6c-0.1-5.9-3.4-19.3-3.4-19.3L108.4,291z"/>
		<g>
			<g>
				<path class="st8" d="M126.3,318.7c0.2,5.8,0.4,11.6,0.5,17.4l0.2,17.4v17.4c0,5.8-0.1,11.6-0.2,17.4c-0.2-5.8-0.4-11.6-0.5-17.4
					l-0.2-17.4v-17.4C126,330.4,126.2,324.5,126.3,318.7z"/>
			</g>
			<g>
				<path class="st8" d="M78.4,380.1c1.8-5.9,3.5-11.6,5.4-17.4l5.6-17.4l5.8-17.3c2-5.8,4-11.5,6-17.2c-1.8,5.9-3.5,11.6-5.4,17.4
					l-5.6,17.4l-5.9,17.3C82.5,368.7,80.5,374.4,78.4,380.1z"/>
			</g>
		</g>
	</g>
</g>
<g>
	<g>
		<g>
			<g>
				<path class="st4" d="M177.3,269.5c-0.1,0.2-0.2,0.4-0.4,0.6c-4.7,7.2-11.5,12.6-17.8,17.9c-0.5,0.4-0.9,0.8-1.4,1.2
					c-4.2,3.4-10.6,2.2-13.3-2.6c-0.5-0.8-0.8-1.5-1.3-2.4c-5.4-10-10.6-18.8-12.5-23.9c-1.2-3.3-1.4-5.9-1.1-7.9
					c0.8-5.1,9.5-7.2,12.5-3.1c0.8,1.2,1.8,2.8,2.6,5.1c1.9,4.7,4.9,13.9,9.4,23c7.8-4.8,14.5-9.2,17.3-10.9
					c0.9-0.6,1.5-0.9,1.5-0.9l1.2,1.1l0,0l2.6,2.4L177.3,269.5z"/>
			</g>
		</g>
	</g>
	<g>
		<g>
			<path class="st17" d="M140.4,248.1c-2.8-1.6-4.8-2.2-6.2-3.9c-0.1-0.6-0.6-1.9-0.8-3.4c-0.2-1.4-0.5-2.8-0.4-4l0,0
				c0-0.6,0.1-1.1,0.4-1.4l-13.4-7.3v0.1c0.2,1.2,2,10.8,0.5,16c-0.9,0.5-2.2,0.8-3.8,0.9c-1.6,0.1-3.2,0.7-4.4,1.9
				c-1.6,1.6-3.1,4.6-2,10c2.1,10.9,1.5,24.8,0.9,31.5l31.2,0.4c0,0,1.2-16.3,2.7-23.8C146.6,257.7,144.7,250.5,140.4,248.1z"/>
			<path class="st18" d="M133.3,240.8c-7.2,1.1-10.9-7.5-11.2-7.8c1.4,2.1,3.3,3.1,5.2,3.6c2.4,0.6,4.6,0.4,5.5,0.2l0,0
				C132.9,237.8,133,239.4,133.3,240.8z"/>
		</g>
		<g>
			<path class="st5" d="M120.4,244.2c0,0,7.8,16.7,11.6,15.2s2.1-15,2.1-15s6.5,3.2,7.6,4.2c1.2,1.1,6.7,8.3,5.2,16.3
				c-1.5,8-4.8,19.5-1.9,27c0,0-21.3,3.9-37.2,0c0,0,3.5-11.8,3.3-14.8c-0.2-3.1-2.6-23.2-1.8-25.9
				C110.3,248.3,112.2,244.4,120.4,244.2z"/>
			<g>
				<g>
					<path class="st8" d="M130.2,279c1.6-1.4,3.3-2.8,4.7-4.5c1.4-1.6,2.7-3.3,3.9-5.2c-0.6,2.1-1.8,4.1-3.2,5.8
						C134,276.7,132.3,278.2,130.2,279z"/>
				</g>
				<g>
					<path class="st8" d="M134.9,279.7c0.5-1.2,1.3-2.1,2-2.9c0.8-0.9,1.6-1.8,2.7-2.4c-0.5,1.2-1.3,2.1-2,2.9
						C136.7,278.3,135.9,279.1,134.9,279.7z"/>
				</g>
			</g>
		</g>
		<g>
			<path class="st4" d="M134.1,244.2c0,0,9.4,8.2,8.9,16.7c-0.5,8.5,1.5,31.3,1.5,31.3s3.1,11.4,2.6,16.1c-0.4,4.8-0.4,7.3-0.4,7.3
				s3.5,0.7,5.1,0c1.5-0.7-5.6-33.9-4.9-37.4c0.7-3.6,1.5-15,0.2-20.6c-1.2-5.5-6.5-13.6-13.4-14.9l0,0
				C133.8,243.1,133.9,243.7,134.1,244.2L134.1,244.2z"/>
			<g>
				<path class="st8" d="M147.3,263.1c0.2,1.5,0.4,2.9,0.4,4.5c0.1,1.5,0.1,2.9,0.1,4.5c0,1.5,0,2.9,0,4.5c0,1.5-0.1,2.9-0.2,4.5
					c-0.2-1.5-0.4-2.9-0.4-4.5c-0.1-1.5-0.1-2.9-0.1-4.5c0-1.5,0-2.9,0-4.5C147.1,266,147.1,264.6,147.3,263.1z"/>
			</g>
		</g>
	</g>
	<g>
		<path class="st4" d="M120.7,242.4l-0.4,1.8l2.4,8.2c1.9,6.3,2.5,12.9,1.8,19.5l-4.1,40.9c0.1,0.7-13.1,0.1-22-3.6
			c0,0,7.9-28.8,8.1-34.7c0.2-5.9,3.2-26,3.2-26S113,243,120.7,242.4z"/>
		<g>
			<g>
				<g>
					<path class="st19" d="M249.1,187.4c-17.9-17.9-47-17.9-64.9,0s-17.9,47,0,64.9s47,17.9,64.9,0C267,234.3,267,205.3,249.1,187.4
						z M189.3,247.1c-15-15-15-39.6,0-54.7c15-15,39.6-15,54.7,0s15,39.6,0,54.7C228.9,262.2,204.3,262.2,189.3,247.1z"/>
					<circle class="st20" cx="216.7" cy="219.8" r="38.7"/>
					<path class="st19" d="M188.7,252.5l-67.1,68.9c-2.4,2.4-6.1,2.4-8.5,0.1c-2.4-2.4-2.4-6.1-0.1-8.5c0.1-0.1,0.1-0.1,0.2-0.2
						l70.8-65.1c1.4-1.3,3.5-1.2,4.7,0.2C189.9,249.2,189.9,251.2,188.7,252.5z"/>
					
						<rect x="178.6" y="248.3" transform="matrix(0.7071 -0.7071 0.7071 0.7071 -126.6246 203.2011)" class="st5" width="6.7" height="12.2"/>
				</g>
				<path class="st17" d="M181.5,263.2c-0.1,1.2-3.6,4.4-5.1,5.6l-2.6-2.4l0,0c0.5-2.2,2.8-3.1,2.8-3.1s-0.5-3.1,0-3.4
					c0.4-0.2,1.9,1.4,2,1.6c-0.1-0.2-1.5-3.4-0.5-3.2C179.6,258.8,181.6,261.8,181.5,263.2z"/>
			</g>
			<g>
				<g>
					<path class="st17" d="M131.8,299.5c-0.2-0.2-2.2-2.1-5.3-5.1c-0.7,1.1-1.3,2-2,3.1c-0.2,0.5-0.5,0.8-0.7,1.3
						c-0.4,0.7-0.8,1.4-1.2,2.2c2.2,1.1,4.5,2,6.8,2.7l0,0L131.8,299.5L131.8,299.5z"/>
					<path class="st17" d="M129,302.8c0,0,4,6.7,6.5,8.2c0.1,0.1,0.4,0,0.4-0.2c0-0.4-0.4-1.2-1.5-2.7c0,0,3.3,2.6,4,2.5
						c0.7-0.1-2.9-3.9-2.9-3.9s4,2.5,4.6,2.1c0.6-0.4-3.5-3.6-3.5-3.6s4.2,2.4,4.4,1.9c0.4-0.9-5.5-4.4-5.2-4.9c0.4-0.5,2-0.4,2.8,0
						c0.1,0,0.4,0,0.4-0.2c0-0.4,0-0.9-0.8-1.3c-1.3-0.5-4.2-1.5-7.9-1.1L129,302.8z"/>
				</g>
				<g>
					<path class="st4" d="M113.3,245.6c0,0,9.6,3.9,9.3,7.9c-0.4,4.1-10,27.5-10,27.5l18.8,17c0,0-4.7,7.3-6.1,7.5
						c-1.5,0.2-24.9-16.5-26.6-20.1C97,281.7,101.1,250.3,113.3,245.6z"/>
					<g>
						<path class="st8" d="M121.3,303.5c0,0-10.9-7.3-18.1-13.2l-1.2,5.4L121.3,303.5z"/>
						<g>
							<path class="st8" d="M122.9,290.4c-2.4-1.6-4.5-3.4-6.5-5.3c-2.1-1.9-4.1-3.8-5.9-6c2.4,1.6,4.5,3.4,6.5,5.3
								C119,286.3,121.1,288.3,122.9,290.4z"/>
						</g>
						<g>
							<path class="st8" d="M112.4,274.6c0.2,1.1,0.2,2,0.1,2.9c-0.1,0.9-0.4,1.9-0.7,2.8c-0.2-1.1-0.2-2-0.1-2.9
								C111.8,276.5,111.9,275.6,112.4,274.6z"/>
						</g>
						<g>
							<path class="st8" d="M112.2,246.9c0.9-0.2,2,0.1,2.8,0.8c0.8,0.7,1.3,1.6,1.5,2.6c0.2,0.9,0.4,1.9,0.4,2.9
								c0,0.9-0.1,1.9-0.4,2.8c-0.2-1.9-0.4-3.8-0.8-5.5c-0.2-0.8-0.6-1.6-1.2-2.4C113.8,247.5,113.1,247,112.2,246.9z"/>
						</g>
					</g>
				</g>
			</g>
		</g>
	</g>
</g>
<g>
	<g>
		<path class="st17" d="M139.9,229.4c0-1.5,0-3.2-0.1-4.9c-0.2-3.9-0.8-7.9-2.1-11.3c-1.8-4.5-10-6-15.5-0.9
			c-2.6,2.4-3.1,6.5-2.8,10.3c-0.1-0.1-0.2-0.1-0.4-0.1c-1.2-0.2-2.4,0.6-2.6,1.8c-0.2,0.8,0,1.9,0.5,2.6c0.5,0.6,1.1,1.2,1.8,1.4
			c0.2,0.1,0.9,0.2,1.5,0.1c0.6,2.5,1.9,4.8,3.9,6.3c2.5,2,5.8,2.8,8.8,2.1c2.5-0.6,6.1-2.2,6.9-4.8c0.2-0.7,0.2-1.4,0.2-2.1
			C139.9,229.7,139.9,229.6,139.9,229.4z"/>
		<g>
			<g>
				<path class="st18" d="M139.9,229.4c-0.2,0.1-0.5,0.1-0.6,0.1c-1.4,0-2.6-1.1-2.6-2.5s1.1-2.6,2.5-2.6c0.2,0,0.4,0,0.6,0.1
					C139.9,226.2,139.9,227.8,139.9,229.4z"/>
				<path class="st18" d="M124.2,227.2c0,1.4,1.2,2.5,2.6,2.5s2.5-1.2,2.5-2.6c0-1.4-1.2-2.5-2.6-2.5
					C125.2,224.7,124.2,225.8,124.2,227.2z"/>
			</g>
			<g>
				<g>
					<path class="st8" d="M135.2,222.2c0,0.8,0.4,1.5,0.7,1.5c0.4,0,0.7-0.7,0.7-1.5c0-0.8-0.4-1.5-0.7-1.5
						C135.6,220.7,135.2,221.4,135.2,222.2z"/>
					<path class="st8" d="M137.4,220.1c-0.1,0.2-0.2,0.5-0.5,0.6c-0.2,0.2-0.5,0.4-0.7,0.4l0,0c-0.1,0-0.2,0-0.4-0.2
						c0-0.1,0-0.2,0.2-0.4c0,0,0,0,0.1,0c0.4,0,0.8-0.2,1.2-0.6l0,0C137.3,220,137.4,220,137.4,220.1L137.4,220.1z"/>
				</g>
				<g>
					<path class="st8" d="M130.4,222.2c0,0.8-0.4,1.5-0.7,1.5c-0.4,0-0.7-0.7-0.7-1.5c0-0.8,0.4-1.5,0.7-1.5
						C130,220.8,130.4,221.4,130.4,222.2z"/>
					<path class="st8" d="M128.3,220.2c0.4,0.4,0.8,0.6,1.2,0.6c0.1,0,0.2,0.1,0.2,0.2c0,0.1-0.1,0.2-0.2,0.2c0,0,0,0-0.1,0l0,0
						c-0.4-0.1-0.6-0.2-0.8-0.4c-0.2-0.2-0.4-0.4-0.5-0.6C128.2,220.3,128.2,220.2,128.3,220.2L128.3,220.2L128.3,220.2z"/>
				</g>
			</g>
			<g>
				<path class="st8" d="M135.7,226.7c-0.2,0.5-0.6,0.9-1.1,1.3c-0.5,0.4-1.1,0.6-1.6,0.6s-1.2-0.2-1.6-0.6
					c-0.2-0.1-0.5-0.4-0.6-0.6c-0.1-0.2-0.4-0.5-0.5-0.7c0.2,0.1,0.5,0.4,0.6,0.5c0.2,0.1,0.5,0.4,0.7,0.5c0.5,0.2,0.9,0.4,1.4,0.4
					c0.5,0,0.9-0.1,1.4-0.5C134.9,227.4,135.3,227,135.7,226.7z"/>
				<path class="st8" d="M133.8,229.4c-0.2,0.2-0.5,0.2-0.7,0.2c-0.2,0-0.6-0.1-0.8-0.2c0.2,0,0.5,0.1,0.8,0.1
					C133.2,229.5,133.4,229.4,133.8,229.4z"/>
			</g>
			<g>
				<path class="st8" d="M131,217c-0.4-0.4-0.7-0.4-1.2-0.4c-0.4,0-0.8,0-1.2,0.2c-0.4,0.1-0.7,0.4-1.1,0.6
					c-0.4,0.2-0.5,0.6-0.7,0.9c-0.1,0.1,0,0.4,0.1,0.5c0.1,0.1,0.4,0,0.4,0l0,0c0.2-0.2,0.5-0.5,0.7-0.6c0.2-0.1,0.5-0.2,0.8-0.4
					c0.2-0.1,0.6-0.1,0.8-0.1c0.2,0,0.6,0,0.9-0.1h0.1c0.2,0,0.4-0.2,0.2-0.5C131,217.1,131,217.1,131,217z"/>
				<path class="st8" d="M134.6,217c0.4-0.4,0.7-0.5,1.2-0.5c0.4,0,0.8,0,1.2,0.1c0.4,0.1,0.7,0.4,1.1,0.6c0.4,0.2,0.6,0.6,0.7,0.9
					c0.1,0.1,0,0.4-0.1,0.5c-0.1,0.1-0.4,0-0.4,0l0,0c-0.2-0.2-0.5-0.5-0.7-0.6c-0.2-0.1-0.5-0.2-0.8-0.4c-0.2-0.1-0.6-0.1-0.8-0.1
					c-0.2,0-0.6,0-0.9,0h-0.1c-0.2,0-0.4-0.2-0.2-0.5C134.5,217.1,134.5,217,134.6,217z"/>
			</g>
			<path class="st8" d="M133,219.8c0.1,0.6,0.2,1.1,0.4,1.6c0.1,0.6,0.2,1.1,0.4,1.6c0,0.1,0.1,0.2,0.1,0.4s0.1,0.4,0.1,0.5
				c0,0.4-0.2,0.7-0.5,0.9c-0.4,0.2-0.7,0.1-0.9,0.1c-0.2-0.1-0.6-0.2-0.7-0.5c0.5,0.2,1.2,0.4,1.5,0c0.2-0.1,0.2-0.4,0.2-0.6
				c0-0.1,0-0.1-0.1-0.4c-0.1-0.1-0.1-0.2-0.1-0.5c-0.1-0.6-0.2-1.2-0.4-1.8C132.9,221,132.9,220.4,133,219.8z"/>
			<path class="st8" d="M117.1,224.9c0-0.4,0.1-0.7,0.4-0.9c0.4-0.2,0.8-0.2,1.2-0.1c0.4,0.1,0.7,0.4,0.9,0.6
				c0.2,0.2,0.5,0.6,0.6,0.9c0,0.1,0,0.2-0.1,0.4c-0.1,0-0.2,0-0.2,0l0,0c-0.2-0.2-0.6-0.5-0.8-0.6c-0.1,0-0.2,0-0.4,0
				c-0.1,0.1-0.2,0.2-0.2,0.4c-0.1,0.4-0.2,0.7,0.1,0.8c0.4,0.1,0.7,0.1,1.1,0c-0.4,0.1-0.7,0.4-1.2,0.2c-0.2-0.1-0.5-0.4-0.5-0.6
				c0-0.2,0-0.5,0-0.7c0-0.2,0.1-0.5,0.4-0.6c0.2-0.2,0.5-0.2,0.7-0.1c0.5,0.1,0.8,0.4,1.1,0.7l-0.5,0.2c-0.2-0.6-0.6-1.2-1.2-1.4
				c-0.2-0.1-0.6-0.2-0.8,0C117.3,224.2,117.2,224.5,117.1,224.9z"/>
		</g>
	</g>
	<path class="st8" d="M143.6,231.6c-0.7-3.8-2.6-7.5-1.9-11.3c0.8-4-0.5-8.3-3.2-11.3c-2.8-2.9-7.1-4.6-11.1-4.1s-8.7,2.6-10.1,6.3
		c-1.2,3.3-4,5.8-7.1,7.5c-3.1,1.8-6.3,3.1-9.3,4.9c-2.9,1.9-5.6,4.5-6.6,7.9c-1.2,4.4,0.9,9.1,4.1,12.2c2.8,2.8,6.5,4.6,10,6.2
		c0.7-1.1,1.4-2,2.2-2.6c0.7-0.6,1.4-0.9,2.4-1.3c1.1-0.7,2.4-1.2,3.6-1.2c1.5-0.1,2.7-0.5,3.8-0.9c1.5-4.9-0.1-14.1-0.5-15.9
		c-0.6,0.1-1.4,0-1.5-0.1c-0.7-0.2-1.4-0.8-1.8-1.4c-0.5-0.7-0.7-1.8-0.5-2.6c0.4-1.1,1.5-2,2.6-1.8c0.1,0,0.1,0,0.2,0.1
		c0.8,1.1,1.9,2,3.3,1.9c4-0.1,3.6-8.9,3.6-8.9s9.5,4.4,12.9,2.6c0.4,2.1,0.6,4.2,0.7,6.3c0.1,1.6,0.1,3.3,0.1,4.9
		c0,0.1,0,0.4,0,0.5c0,0.7,0,1.4-0.2,2.1c-0.8,2.5-4.4,4.1-6.7,4.7c-0.1,1.2,0.1,2.7,0.4,4c0.4,1.5,0.7,2.9,0.8,3.4
		c1.4,1.6,3.4,2.2,6.2,3.9c0,0,0.1,0,0.1,0.1c1.8-1.8,2.9-3.9,3.5-6.2C144.8,238.5,144.3,235,143.6,231.6z"/>
</g>
<g>
	<path class="st7" d="M545.4,146.6c-2.7-0.6-5.3-1.9-7.4-3.5l0.7-0.8c2,1.6,4.5,2.8,6.9,3.3L545.4,146.6z M553.7,146.6l-0.2-1.1
		c2.5-0.6,4.9-1.8,6.9-3.3l0.7,0.8C558.8,144.7,556.2,146,553.7,146.6z M533,136.7c-1.2-2.5-1.9-5.2-1.9-8h1.1
		c0,2.6,0.6,5.2,1.8,7.5L533,136.7z M566.1,136.6l-1.1-0.5c1.2-2.4,1.8-4.8,1.8-7.5h0.8h0.4C567.9,131.4,567.3,134.1,566.1,136.6z
		 M533.9,121.2l-1.1-0.5c1.2-2.5,2.9-4.7,5.1-6.5l0.7,0.8C536.6,116.7,535,118.8,533.9,121.2z M565.1,121.1c-1.2-2.4-2.8-4.4-4.8-6
		l0.7-0.8c2.1,1.8,3.9,3.9,5.2,6.3L565.1,121.1z M545.5,111.8l-0.2-1.1c1.4-0.4,2.7-0.5,4.1-0.5l0,0c1.4,0,2.7,0.1,4,0.5l-0.2,1.1
		c-1.3-0.2-2.5-0.5-3.8-0.5l0,0C548.1,111.3,546.8,111.4,545.5,111.8z"/>
</g>
<g>
	<path class="st7" d="M66.5,102.4L66.5,102.4h-0.4v-1.1h0.4l0,0c2.5,0,4.9-0.2,7.3-0.8l0.2,1.1C71.6,102.1,69.1,102.4,66.5,102.4z
		 M58.3,101.4c-2.6-0.6-5.1-1.5-7.4-2.7l0.5-1.1c2.4,1.2,4.7,2,7.2,2.6L58.3,101.4z M81.6,99l-0.5-1.1c2.4-1.1,4.5-2.5,6.5-4
		l0.7,0.8C86.2,96.5,83.9,97.9,81.6,99z M44.2,94.4c-2-1.6-3.9-3.6-5.5-5.6l0.9-0.7c1.5,2,3.4,3.9,5.4,5.5L44.2,94.4z M93.9,89.2
		l-0.8-0.7c1.6-2,2.9-4.2,4.1-6.5l1.1,0.5C97,85,95.6,87.2,93.9,89.2z M34.6,81.9c-1.1-2.4-2-4.9-2.5-7.5l1.1-0.2
		c0.5,2.5,1.3,4.9,2.5,7.3L34.6,81.9z M100.9,75.1l-1.1-0.2c0.6-2.5,0.8-5.1,0.8-7.6h1.1C101.7,69.8,101.5,72.5,100.9,75.1z
		 M32.4,66.6h-1.1c0-2.7,0.4-5.3,1.1-7.9l1.1,0.2C32.8,61.5,32.6,64,32.4,66.6z M99.9,60.8c-0.5-2.5-1.3-4.9-2.2-7.3l1.1-0.5
		c1.1,2.5,1.9,4.9,2.4,7.5L99.9,60.8z M36.1,51.8l-0.9-0.5c1.2-2.4,2.7-4.6,4.4-6.6l0.8,0.7C38.7,47.4,37.3,49.5,36.1,51.8z
		 M93.8,46.9c-1.5-2-3.3-3.9-5.3-5.6l0.7-0.8c2,1.8,3.9,3.6,5.4,5.8L93.8,46.9z M46,40.1l-0.7-0.9c2.1-1.6,4.4-2.9,6.8-4l0.5,1.1
		C50.2,37.2,48,38.5,46,40.1z M82.2,37c-2.2-1.2-4.7-2.1-7.2-2.7l0.2-1.1c2.6,0.7,5.1,1.6,7.4,2.8L82.2,37z M59.8,33.8l-0.2-1.2
		c2.2-0.5,4.6-0.7,6.9-0.7c0.4,0,0.7,0,0.9,0V33c-0.4,0-0.7,0-0.9,0C64.3,33.1,62,33.4,59.8,33.8z"/>
</g>
<g>
	<circle class="st7" cx="99.5" cy="86.7" r="10.6"/>
</g>
<g>
	<circle class="st7" cx="522.7" cy="260.4" r="7.8"/>
</g>
<g>
	<circle class="st7" cx="441.1" cy="29.2" r="5.5"/>
</g>
<g>
	
		<ellipse transform="matrix(3.327794e-02 -0.9994 0.9994 3.327794e-02 -109.5677 207.6412)" class="st7" cx="52.6" cy="160.5" rx="8.3" ry="8.3"/>
</g>
<g>
	<path class="st7" d="M67.6,186.1c-0.7,0-1.3,0-2-0.1l0.1-1.1c2.5,0.4,5.1,0,7.4-1.1l0.5,1.1C71.7,185.7,69.7,186.1,67.6,186.1z
		 M58.3,182.9c-2.1-1.6-3.8-3.9-4.7-6.5l1.1-0.4c0.9,2.4,2.4,4.5,4.4,6L58.3,182.9z M79.8,179.9l-0.9-0.7c1.5-2,2.4-4.5,2.6-6.9
		l1.1,0.1C82.4,175.2,81.5,177.7,79.8,179.9z M53.7,171h-1.1c0-2.7,0.7-5.4,2.1-7.8l0.9,0.6C54.3,166.1,53.7,168.6,53.7,171z
		 M80.2,165c-1.1-2.2-2.8-4.2-4.9-5.6l0.6-0.9c2.2,1.5,4.1,3.5,5.3,6L80.2,165z M61,158.8l-0.6-0.9c2.4-1.3,5.2-1.9,7.8-1.8v1.1
		C65.7,157,63.3,157.6,61,158.8z"/>
</g>
<g>
	<path class="st7" d="M539.8,290.4c-2.7-0.2-5.3-0.9-7.6-2.2l0.5-0.9c2.2,1.2,4.7,1.9,7.3,2.1L539.8,290.4z M547.8,289.3l-0.4-1.1
		c2.4-0.8,4.6-2.1,6.5-3.9l0.7,0.8C552.6,287,550.2,288.4,547.8,289.3z M526,283c-1.6-2.1-2.9-4.5-3.6-7.2l1.1-0.2
		c0.7,2.5,1.8,4.7,3.4,6.7L526,283z M559.2,278.6l-1.1-0.5c1.1-2.4,1.5-4.8,1.5-7.4h1.1C560.8,273.6,560.4,276.2,559.2,278.6z
		 M559.7,268.9c-0.2-2.6-1.1-4.9-2.4-7.2l0.9-0.6c1.3,2.4,2.2,4.9,2.5,7.6L559.7,268.9z M523.1,268l-1.1-0.1
		c0.4-2.7,1.3-5.2,2.8-7.5l0.9,0.6C524.4,263.2,523.4,265.6,523.1,268z M552.2,256c-2-1.5-4.4-2.6-6.8-3.2l0.2-1.1
		c2.6,0.6,5.1,1.8,7.3,3.4L552.2,256z M531,255.6l-0.6-0.9c2.2-1.5,4.7-2.6,7.4-3.1l0.2,1.1C535.4,253.2,533.1,254.2,531,255.6z"/>
</g>
</svg>
