<?xml version="1.0" encoding="utf-8"?>
<!-- Generator: Adobe Illustrator 23.0.0, SVG Export Plug-In . SVG Version: 6.00 Build 0)  -->
<svg version="1.1" id="Layer_1" xmlns="http://www.w3.org/2000/svg" xmlns:xlink="http://www.w3.org/1999/xlink" x="0px" y="0px"
	 viewBox="0 0 600 453.5" style="enable-background:new 0 0 600 453.5;" xml:space="preserve">
<style type="text/css">
	.st0{opacity:0.4;}
	.st1{fill:#0E32AE;}
	.st2{fill:#849CF4;}
	.st3{fill:none;stroke:#4643BF;stroke-width:0.5;stroke-miterlimit:10;}
	.st4{clip-path:url(#SVGID_2_);}
	.st5{fill:url(#SVGID_3_);}
	.st6{fill:url(#SVGID_4_);}
	.st7{fill:#FFFFFF;}
	.st8{fill:#D3DBF4;}
	.st9{fill:none;stroke:#FFFFFF;stroke-width:0.5;stroke-miterlimit:10;}
	.st10{fill:#E3EAFC;}
	.st11{fill:#F0F1FF;}
	.st12{fill:#E4E9F9;}
	.st13{fill:#C2CFEF;}
	.st14{fill:none;stroke:#D3DBF4;stroke-width:0.5;stroke-miterlimit:10;}
	.st15{fill:#FFCBBD;}
	.st16{fill:#F7471E;}
	.st17{fill:none;stroke:#B22B19;stroke-width:0.5;stroke-miterlimit:10;}
	.st18{fill:none;stroke:#121649;stroke-width:0.5;stroke-miterlimit:10;}
	.st19{fill:#FFCBBB;}
	.st20{fill:none;stroke:#EF977F;stroke-width:0.5;stroke-miterlimit:10;}
	.st21{fill:#4A1A1A;}
	.st22{fill:none;stroke:#F7A794;stroke-width:0.5;stroke-miterlimit:10;}
	.st23{fill:#212237;}
	.st24{fill:none;stroke:#212237;stroke-width:0.5;stroke-linecap:round;stroke-linejoin:round;stroke-miterlimit:10;}
	.st25{fill:#ADBBF9;}
	.st26{fill:#EF977F;}
	.st27{fill:#18277A;}
	.st28{fill:#0D219B;}
	.st29{fill:none;stroke:#E88872;stroke-width:0.5;stroke-linejoin:round;stroke-miterlimit:10;}
	.st30{fill:#28364C;}
	.st31{fill:none;stroke:#28364C;stroke-width:0.5;stroke-miterlimit:10;}
	.st32{fill:none;stroke:#525BCE;stroke-width:0.5;stroke-miterlimit:10;}
	.st33{fill:#F49C8E;}
	.st34{fill:none;stroke:#0E32AE;stroke-width:0.5;stroke-miterlimit:10;}
	.st35{fill:#E23917;}
	.st36{fill:none;stroke:#28364C;stroke-width:0.5;stroke-linecap:round;stroke-miterlimit:10;}
	.st37{fill:#E88872;}
</style>
<g class="st0">
	<g>
		<path class="st1" d="M99.6,405c-11.9-17.9-36.8-63.4-15.2-78.9c11.8-8.6,27.6-0.7,35.2,18.1c7.3,17.9,10,39.2,13,60.6"/>
		<g>
			<path class="st1" d="M99.8,404.9c-5.7-8.6-10.8-17.7-14.9-27.1c-4.7-10.4-8.9-21.9-8.7-33.5c0.2-10.5,6.6-21.3,18.3-21.6
				c14.2-0.3,22.6,14.4,26.8,26c6.3,18,8.6,37.2,11.3,56c0,0.3,0.4,0.2,0.4-0.1c-2.6-18.4-4.9-37.1-10.8-54.8
				c-3.9-11.5-11.1-25.3-24.5-27.4c-9.9-1.5-18.5,5.6-20.8,14.9c-2.8,11,0.9,23.2,4.9,33.4c4.7,12,10.9,23.4,18,34.1
				C99.6,405.2,99.9,405.1,99.8,404.9L99.8,404.9z"/>
		</g>
	</g>
	<line class="st1" x1="90.6" y1="323.4" x2="118.6" y2="405"/>
	<g>
		<path class="st1" d="M51.9,405c-10.3-13.3-32.8-46.9-14.1-58.4c10.3-6.3,22.8-0.5,29.5,13.4c6.2,13.3,8.6,28.9,11.2,44.8"/>
		<g>
			<path class="st1" d="M52.1,404.9c-4.8-6.2-9.2-12.8-13-19.6c-4-7.5-8.1-16-8.2-24.6c-0.1-8.5,5.7-15.8,14.5-16.4
				c11.5-0.8,19.2,9.6,23.1,19c5.5,13.2,7.5,27.6,9.7,41.6c0,0.3,0.5,0.2,0.4-0.1c-2.3-14-4.4-28.3-9.7-41.6
				c-3.6-8.8-10.2-18.1-20.5-19.3c-7.7-0.8-15.5,4-17.3,11.7c-2,8.1,1.3,16.9,4.8,24.1c4.3,9,9.9,17.5,16,25.4
				C51.9,405.2,52.2,405,52.1,404.9L52.1,404.9z"/>
		</g>
	</g>
	<line class="st1" x1="43.1" y1="344.6" x2="67.3" y2="405"/>
	<path class="st1" d="M172,404.8c-28.1-51-46.4-101.6-23.6-125.7c22.5-23.9,46,4.5,51.8,29.5c7.1,30.6,8,63.8,7.9,96.2"/>
	<line class="st1" x1="156.7" y1="272.9" x2="190.6" y2="404.7"/>
	<g>
		<path class="st1" d="M129.8,405c-11.2-27-36.3-81.6-18.6-98.5c11.3-10.8,31.8,2.4,42.3,26c10,22.4,13,45.4,19,72.2"/>
		<g>
			<path class="st1" d="M129.9,404.9c-5.3-12.9-10.9-25.6-15.5-38.8c-4.7-13.3-9.3-27.6-9.2-41.8c0.1-5.4,0.9-11.1,4.1-15.6
				c3.6-5,9.5-6.8,15.5-5.4c7.1,1.8,13.1,6.8,17.7,12.1c6.2,7.2,10.4,15.6,13.7,24.3c8,20.8,11.1,43.1,16,64.8
				c0.1,0.3,0.5,0.2,0.4-0.1c-4.7-20.7-7.8-41.9-14.9-62c-5.3-14.9-13.9-32-29.5-38.5c-4.9-2-10.5-2.5-15.1,0.5
				c-4.3,2.7-6.5,7.4-7.6,12.1c-2.8,13.3,1.5,28,5.4,40.6c5.1,16.3,12,31.9,18.6,47.7C129.7,405.2,130,405.1,129.9,404.9
				L129.9,404.9z"/>
		</g>
	</g>
	<g>
		<path class="st1" d="M347.9,404.8c-9.4-108.7,13.6-148.4,38.9-150.2c11.9-0.8,47,6,4.7,150.1"/>
		<g>
			<path class="st1" d="M348,404.8c-2.7-35.7-4.8-73.1,4.5-108.2c4-15.2,11.6-35,28.1-40.6c6.5-2.2,13.9-1.8,19.4,2.7
				c9.7,7.9,11.2,23,11.6,34.6c0.4,12.8-1,25.5-3,38.1c-3,18.9-7.4,37.6-12.4,56.1c-1.6,5.7-3.2,11.5-4.8,17.2
				c-0.1,0.2,0.2,0.3,0.3,0.1c6.3-20.7,11.7-41.9,15.7-63.3c2.6-13.9,4.6-28,4.8-42.2c0.2-12.8-0.4-29.4-9.9-39.2
				c-4.6-4.8-10.9-6.4-17.3-5.5c-15.8,2.4-24.8,18.5-29.7,32.2c-4.6,12.8-6.8,26.4-8.1,39.9c-2,19.9-1.7,40.1-0.5,60.2
				c0.3,6,0.8,12,1.3,18C347.8,404.9,348,404.9,348,404.8L348,404.8z"/>
		</g>
	</g>
	<line class="st1" x1="391.7" y1="254.9" x2="369.4" y2="404.7"/>
	<g>
		<path class="st1" d="M422.6,404.8c7.8-64.6,33.8-101.8,57.4-91.7c19.3,8.3,9.3,44.2-20.6,91.7"/>
		<g>
			<path class="st1" d="M422.7,404.8c2.6-19,6.3-38,13.6-55.8c4.9-11.9,11.5-24.7,22.1-32.4c7.3-5.3,17.6-7.3,25.2-1.1
				c8.7,7.2,6.3,21.1,3.8,30.5c-5.5,21.1-17,40.3-28.3,58.7c-0.1,0.2,0.2,0.3,0.3,0.2c11.1-17.1,21.6-35.8,27.5-55.4
				c2.9-9.6,6.1-23.5-1-32.3c-5.6-6.8-15.9-7.3-23.3-3.5c-11,5.4-18.1,17.2-23.3,27.9c-9.4,19.6-14.5,41.8-16.7,63.3
				C422.5,404.9,422.6,405,422.7,404.8L422.7,404.8z"/>
		</g>
	</g>
	<line class="st1" x1="479.8" y1="313.1" x2="441.3" y2="404.8"/>
	<line class="st1" x1="117.3" y1="303" x2="151.8" y2="405"/>
	<g>
		<path class="st1" d="M425.4,404.9c15.2-32.3,45.9-105.9,22.8-132c-12.7-14.3-35.9,3.2-48.2,34.8c-11.7,30.1-20.4,61-27.7,96.7"/>
		<g>
			<path class="st1" d="M425.6,405c7.9-16.7,15-33.8,20.7-51.3c6-18.4,11.5-38.3,10.3-57.8c-0.8-11.7-6.5-30.6-21.8-28
				c-8.2,1.3-15.1,7.9-20.2,14c-7.7,9.2-12.7,20-16.8,31.2c-11.2,29.7-19.3,60.3-25.6,91.3c-0.1,0.3,0.4,0.4,0.4,0.1
				c5.4-26.2,12-52.2,20.6-77.6c4.1-11.9,8.2-24.2,14.8-35.1c5-8.3,11.6-16.7,20.3-21.4c6.7-3.5,14.4-3.5,19.8,2.4
				c5,5.6,7.2,13.2,7.9,20.4c2,18.4-2.9,37.4-8.3,54.8c-6,19.4-13.8,38.3-22.4,56.6C425.2,405,425.5,405.2,425.6,405L425.6,405z"/>
		</g>
	</g>
	<line class="st1" x1="441.3" y1="268.4" x2="400.7" y2="405"/>
	<g>
		<path class="st1" d="M452.2,404.8c20-40.7,37.4-51.4,53.8-48.1c12.8,2.5,14.7,21.3-12.1,48.1"/>
		<g>
			<path class="st1" d="M452.3,404.9c5.9-11.2,11.8-22.5,20.1-32.3c5.1-6,11.2-11.7,18.7-14.5c5.2-2,11.9-2.8,17.2-0.6
				c6.2,2.6,7.3,9.5,6.1,15.5c-2.6,12.4-12.1,22.8-20.6,31.7c-0.1,0.1,0.1,0.3,0.2,0.2c8.4-8.1,17-18.4,20.3-29.9
				c1.6-5.5,1.8-12.5-3.3-16.4c-4.3-3.3-11-3.2-16-2.1c-7.5,1.7-13.9,6.4-19.2,11.7c-10.1,10.3-17.7,23.5-23.8,36.5
				C452.1,404.9,452.3,405,452.3,404.9L452.3,404.9z"/>
		</g>
	</g>
	<line class="st1" x1="504.5" y1="356.9" x2="473.9" y2="404.8"/>
</g>
<g>
	<g>
		<path class="st2" d="M152,395.2c-1.4,0-2.4-1-2.4-2.4V29.1c0-1.4,1-2.4,2.4-2.4h200.4c1.4,0,2.4,1,2.4,2.4v363.7
			c0,1.4-1,2.4-2.4,2.4H152z"/>
		<path class="st2" d="M352.3,26.9c1.2,0,2.2,0.9,2.2,2.2v363.7c0,1.2-0.9,2.2-2.2,2.2H151.9c-1.2,0-2.2-0.9-2.2-2.2V29.1
			c0-1.2,0.9-2.2,2.2-2.2L352.3,26.9 M352.3,26.3H151.9c-1.5,0-2.8,1.3-2.8,2.8v363.7c0,1.5,1.3,2.8,2.8,2.8h200.4
			c1.5,0,2.8-1.3,2.8-2.8V29.1C355,27.6,353.8,26.3,352.3,26.3L352.3,26.3z"/>
	</g>
	<g>
		<path class="st3" d="M261.5,378.6c0,5.2-4.3,9.4-9.4,9.4c-5.2,0-9.4-4.3-9.4-9.4c0-5.2,4.3-9.4,9.4-9.4
			C257.4,369.2,261.5,373.5,261.5,378.6z"/>
	</g>
	<g>
		<g>
			<defs>
				<path id="SVGID_1_" d="M352.3,395.6H151.9c-1.5,0-2.8-1.3-2.8-2.8V29.1c0-1.5,1.3-2.8,2.8-2.8h200.4c1.5,0,2.8,1.3,2.8,2.8
					v363.7C355,394.3,353.8,395.6,352.3,395.6z"/>
			</defs>
			<clipPath id="SVGID_2_">
				<use xlink:href="#SVGID_1_"  style="overflow:visible;"/>
			</clipPath>
			<g class="st4">
				
					<linearGradient id="SVGID_3_" gradientUnits="userSpaceOnUse" x1="-49.5615" y1="106.3085" x2="259.0228" y2="414.8928" gradientTransform="matrix(1 0 0 -1 141.5642 456.153)">
					<stop  offset="0.2704" style="stop-color:#FFFFFF;stop-opacity:0.1"/>
					<stop  offset="1" style="stop-color:#FFFFFF;stop-opacity:0.3"/>
				</linearGradient>
				<polygon class="st5" points="300.9,-13.6 146.9,404.8 191.6,404.8 345.7,-13.6 				"/>
				
					<linearGradient id="SVGID_4_" gradientUnits="userSpaceOnUse" x1="2.6082" y1="112.7577" x2="298.2365" y2="408.3859" gradientTransform="matrix(1 0 0 -1 141.5642 456.153)">
					<stop  offset="0.2704" style="stop-color:#FFFFFF;stop-opacity:0.1"/>
					<stop  offset="1" style="stop-color:#FFFFFF;stop-opacity:0.3"/>
				</linearGradient>
				<polygon class="st6" points="359.5,-13.6 205.6,404.8 224.4,404.8 378.4,-13.6 				"/>
			</g>
		</g>
	</g>
	<rect x="150.9" y="60.8" class="st7" width="202.5" height="300.5"/>
	<g>
		<path class="st3" d="M240.6,41.7h28.6c0.6,0,1.2,0.5,1.2,1.2l0,0c0,0.6-0.5,1.2-1.2,1.2h-28.6c-0.6,0-1.2-0.5-1.2-1.2l0,0
			C239.4,42.1,240,41.7,240.6,41.7z"/>
		<path class="st3" d="M233,42.8c0-0.7,0.6-1.2,1.2-1.2c0.7,0,1.2,0.6,1.2,1.2c0,0.7-0.6,1.2-1.2,1.2S233,43.5,233,42.8z"/>
	</g>
	<g>
		<g>
			<rect x="164.8" y="177.1" class="st8" width="87.4" height="88.3"/>
			<g>
				<path class="st9" d="M226.5,208.5c0,10-8.1,18.1-18.1,18.1s-18.1-8.1-18.1-18.1c0-10,8.1-18.1,18.1-18.1
					S226.5,198.5,226.5,208.5z"/>
				<path class="st9" d="M220.9,208.5c0,10-5.5,18.1-12.4,18.1c-6.9,0-12.4-8.1-12.4-18.1c0-10,5.5-18.1,12.4-18.1
					C215.3,190.5,220.9,198.5,220.9,208.5z"/>
				<path class="st9" d="M213.3,208.5c0,10-2.2,18.1-4.8,18.1c-2.6,0-4.8-8.1-4.8-18.1c0-10,2.2-18.1,4.8-18.1
					C211.1,190.5,213.3,198.5,213.3,208.5z"/>
				<line class="st9" x1="190.4" y1="208.5" x2="226.5" y2="208.5"/>
				<path class="st9" d="M192.2,216.6c3.5-1.2,9.4-2,16.2-2c6.8,0,12.8,0.8,16.2,2"/>
				<path class="st9" d="M197.5,222.9c3.1-1.2,6.9-1.8,10.9-1.8c4,0,7.7,0.7,10.8,1.8"/>
				<path class="st9" d="M192.2,200.6c3.5,1.2,9.4,2,16.2,2c6.8,0,12.8-0.8,16.2-2"/>
				<path class="st9" d="M197.5,194.3c3.1,1.2,6.9,1.8,10.9,1.8c4,0,7.7-0.7,10.8-1.8"/>
			</g>
			<g>
				<rect x="172.2" y="244.9" class="st10" width="72.6" height="4.7"/>
				<rect x="201.4" y="236.2" class="st10" width="43.3" height="4.7"/>
				<rect x="172.2" y="236.3" class="st10" width="24.3" height="4.7"/>
				<rect x="172.2" y="253.6" class="st10" width="72.6" height="4.7"/>
			</g>
		</g>
		<g>
			<rect x="252.1" y="177.1" class="st11" width="87.4" height="88.3"/>
			<g>
				<rect x="259.5" y="192.8" class="st12" width="72.6" height="4.7"/>
				<rect x="259.5" y="201.4" class="st12" width="72.6" height="4.7"/>
				<rect x="259.5" y="210.2" class="st12" width="22.6" height="4.7"/>
				<rect x="288.2" y="210.2" class="st12" width="43.8" height="4.7"/>
				<rect x="259.5" y="218.8" class="st12" width="72.6" height="4.7"/>
				<rect x="259.5" y="227.5" class="st12" width="72.6" height="4.7"/>
				<rect x="259.5" y="236.2" class="st12" width="72.6" height="4.7"/>
				<rect x="311.1" y="244.9" class="st12" width="21" height="4.7"/>
				<rect x="259.5" y="244.9" class="st12" width="46.6" height="4.7"/>
				<rect x="259.5" y="253.6" class="st12" width="72.6" height="4.7"/>
				<rect x="312.9" y="184.1" class="st12" width="19.2" height="4.7"/>
				<rect x="259.5" y="184.1" class="st12" width="48.4" height="4.7"/>
			</g>
		</g>
		<g>
			<rect x="164.8" y="265.4" class="st11" width="87.4" height="88.3"/>
			<g>
				<rect x="172.2" y="333.3" class="st12" width="72.6" height="4.7"/>
				<rect x="172.2" y="324.6" class="st12" width="72.6" height="4.7"/>
				<rect x="226.1" y="315.9" class="st12" width="18.7" height="4.7"/>
				<rect x="172.3" y="315.9" class="st12" width="47.8" height="4.7"/>
				<rect x="172.2" y="307.2" class="st12" width="72.6" height="4.7"/>
				<rect x="172.2" y="298.6" class="st12" width="72.6" height="4.7"/>
				<rect x="172.2" y="289.8" class="st12" width="72.6" height="4.7"/>
				<rect x="172.2" y="281.2" class="st12" width="33.7" height="4.7"/>
				<rect x="210.9" y="281.2" class="st12" width="33.9" height="4.7"/>
				<rect x="172.2" y="272.5" class="st12" width="72.6" height="4.7"/>
				<rect x="172.2" y="342" class="st12" width="33.9" height="4.7"/>
				<rect x="211" y="341.9" class="st12" width="33.7" height="4.7"/>
			</g>
		</g>
		<g>
			<rect x="252.1" y="265.4" class="st8" width="87.4" height="88.3"/>
			<g>
				<g>
					<polygon class="st13" points="313.6,326.2 278.5,325.8 274.5,300.6 316.9,300.6 					"/>
					<polygon class="st13" points="316.9,300.6 274.5,300.6 295.7,283.2 					"/>
					
						<rect x="281" y="298" transform="matrix(1 -1.771755e-03 1.771755e-03 1 -0.5492 0.5239)" class="st7" width="28.9" height="24.4"/>
					<polygon class="st10" points="274.5,300.6 274.7,328.1 295.7,315.3 					"/>
					<polygon class="st10" points="316.9,300.6 316.9,328.1 295.7,315.3 					"/>
					<polygon class="st10" points="316.9,328.1 274.7,328.1 295.7,310.7 					"/>
					<polyline class="st14" points="274.7,328.1 295.7,310.7 316.9,328.1 					"/>
					<line class="st14" x1="298.8" y1="313.2" x2="316.9" y2="300.6"/>
				</g>
				<line class="st14" x1="292.7" y1="313.2" x2="274.5" y2="300.6"/>
			</g>
			<rect x="278.9" y="338.6" class="st10" width="33.9" height="4.7"/>
		</g>
		<g>
			<rect x="164.8" y="81" class="st8" width="174.8" height="88.1"/>
			<g>
				<rect x="249.7" y="93.7" class="st10" width="82.3" height="6.1"/>
				<rect x="249.7" y="105.1" class="st10" width="82.3" height="6.1"/>
				<rect x="249.7" y="116.5" class="st10" width="82.3" height="6.1"/>
				<rect x="249.7" y="127.8" class="st10" width="82.3" height="6.1"/>
				<rect x="249.7" y="150.4" class="st10" width="82.3" height="6.1"/>
				<rect x="282.8" y="139.1" class="st10" width="49.2" height="6.1"/>
				<rect x="249.7" y="139.1" class="st10" width="27.5" height="6.1"/>
			</g>
			<g>
				<rect x="174.8" y="94.1" class="st10" width="62.3" height="62.3"/>
				<polygon class="st7" points="211.7,113.5 230.7,145.9 192.8,145.9 				"/>
				<polygon class="st7" points="192.4,124.1 196.6,132 189.3,145.9 181.1,145.9 				"/>
				<path class="st7" d="M182.8,111.6c0,2,1.6,3.6,3.5,3.6c2,0,3.5-1.6,3.5-3.6c0-2-1.6-3.5-3.5-3.5
					C184.4,108.1,182.8,109.7,182.8,111.6z"/>
			</g>
		</g>
		<path class="st8" d="M202.8,73.9h98.6c1.5,0,2.8-1.3,2.8-2.8l0,0c0-1.5-1.3-2.8-2.8-2.8h-98.6c-1.5,0-2.8,1.3-2.8,2.8l0,0
			C200,72.6,201.3,73.9,202.8,73.9z"/>
		<line class="st9" x1="252.2" y1="177.1" x2="252.2" y2="353.8"/>
		<line class="st9" x1="164.8" y1="265.4" x2="339.6" y2="265.4"/>
	</g>
</g>
<g>
	<g>
		<g>
			<g>
				<path class="st15" d="M513.7,366.2l1.8,30.1l-0.9,9.4l-35.9-0.2c-0.9,0-1.6-0.7-1.6-1.6l0,0c0-0.7,0.5-1.3,1-1.5l16-7.4
					l-3.6-31.3"/>
				<path class="st16" d="M475.4,405.1c0.3-1.2,1-2.5,1.7-2.9l16.9-7.4c9.3,3.8,21.4,0.9,21.4,0.9l0.9,12.8c0,0.5-0.3,0.8-0.8,0.8
					l-40.1-0.2C474.8,409.3,475.4,405.1,475.4,405.1z"/>
				<path class="st17" d="M490.5,395.8c0.9,1.3,1.7,2.6,2.4,4"/>
				<path class="st17" d="M488.4,397.1c1,1.4,1.4,2.2,2,3.5"/>
				<path class="st17" d="M486.6,398c0.7,0.9,1.3,2.2,1.8,3.1"/>
			</g>
			<line class="st17" x1="516.3" y1="406.7" x2="475.3" y2="406.5"/>
			<path class="st17" d="M515.9,400.6c0,0-9.6,0.1-10.4,6.1"/>
			<path class="st17" d="M480.7,400.9c0,0,2.8,3.9,3.2,5.6"/>
		</g>
		<path class="st1" d="M485.5,250.6c0,0-5.2,42.4-3.2,73.1c2,30.7,4.8,66.5,4.8,66.5h31.2c0,0-4-52.9-3.6-77.5
			c0.5-27.4,8.9-62,8.9-62"/>
		<path class="st18" d="M512,390c0,0-4-52.9-3.6-77.5c0.5-27.4,8.9-62,8.9-62"/>
		<g>
			<g>
				<path class="st15" d="M554.6,325.9l28.9,9.3l8.8,3.8l-11.1,34.2c-0.2,0.8-1.2,1.4-2.1,1l0,0c-0.7-0.2-1-0.8-1.2-1.5l-2.2-17.5
					l-30.1-9.8"/>
				<path class="st16" d="M580,376.1c-1-0.7-2.1-1.8-2.2-2.5l-1.8-18.4c6.4-7.7,7.4-20.2,7.4-20.2l12.4,3c0.5,0.1,0.6,0.6,0.5,0.9
					L583.9,377C583.6,377.8,580,376.1,580,376.1z"/>
				<path class="st17" d="M575.5,358.9c1.5-0.6,3-0.9,4.6-1"/>
				<path class="st17" d="M576,361.4c1.6-0.6,2.4-0.7,3.8-0.8"/>
				<path class="st17" d="M576.4,363.3c1-0.3,2.4-0.6,3.6-0.8"/>
			</g>
			<line class="st17" x1="593.8" y1="337.5" x2="581.1" y2="376.7"/>
			<path class="st17" d="M587.8,336c0,0-2.8,9.1,2.6,11.7"/>
			<path class="st17" d="M577.4,369.8c0,0,4.5-1.4,6.4-1.4"/>
		</g>
		<path class="st1" d="M536.3,251.8c0,0,2.8,12.1,2.8,17.2c0,3.8-1.5,6.3-2.3,9.2c-0.3,1.2-0.6,2.4-0.6,3.7
			c-0.2,5.5-0.6,21.1,2.9,28.4c4.3,9.1,39.7,21.1,39.7,21.1l-9,27.1c0,0-54.4-13.6-61-30.3c-9.4-23.1-6.8-76.5-6.8-76.5"/>
		<path class="st18" d="M515.3,336c-3.1-2.5-5.4-5.1-6.6-7.7c-9.4-23.1-6.8-76.5-6.8-76.5"/>
		<path class="st18" d="M531.7,250.9c0,0,3.2,15.2,3.2,20.3c0,3.9-1.6,6.6-2.3,9.3c-0.3,1.2-0.5,2.2-0.6,3.3
			c-0.3,5.4-0.9,21.3,2.9,28.6c5.4,10,42.5,23.3,42.5,23.3"/>
		<path class="st18" d="M497.6,254.8c0,0-0.5,10.9,1,12.2s3,2.2,3,2.2"/>
		<line class="st18" x1="574.3" y1="329.9" x2="564.4" y2="357.1"/>
		<line class="st18" x1="486.7" y1="384.7" x2="517.9" y2="384.7"/>
		<path class="st18" d="M523.1,252.8c0,0,2,7,10.6,9"/>
		<path class="st18" d="M484.5,260.6c0,0,7.8-2.3,10.2-7.8"/>
	</g>
	<g>
		<path class="st19" d="M503.4,168.2L502,178c0,0-0.1,2.8,5.2,4.6c6.4,2.3,10.2-2.6,10.2-2.6l-0.5-9.9"/>
		<path class="st19" d="M502.6,155.2c0,0-6.8,11.4-2.1,15.9c4.3,4.1,13.7,1.5,14.5,0.1c0.8-1.4,6.2-14.2,3.2-15.9
			C513.2,152.2,505.4,150.4,502.6,155.2z"/>
		<path class="st20" d="M502.7,173.3c0,0,4.6,1.5,8.9-0.3"/>
		<g>
			<path class="st21" d="M501.4,147.8c0.9-6.7,9-1.7,12.3,1.4c1,0.9,6.8,2.6,7.7,3.6s1.7,2.2,2,3.5c0.2,1.2,0,2.4-0.2,3.6
				c-0.5,2.1-1.4,4-2.2,6c-0.9,2.2-2.4,6.4-5.5,6c-0.6-0.1-1.3-0.2-1.6-0.7c-0.3-0.5-0.3-1.2-0.3-1.7c0.1-0.9,0.3-2,0.8-2.8
				c-0.6,0.2-1.3,0.6-1.8,0.3c-0.2-0.1-0.3-0.2-0.5-0.5c-0.5-0.7,0.1-5,2.1-6.7c-2.9-1.4-5.2-1.5-8.2-2.8c-2.4-1-3.5-2.2-4.3-3.3
				C500.5,152.1,501.2,149.9,501.4,147.8z"/>
		</g>
		<g>
			<path class="st19" d="M513.7,166.4c0.7-1,1.8-2.2,3-1.2c0.3,0.3,0.5,1,0.6,1.6c0.1,2.1-2,4.7-3.8,3.9c-0.9-0.3-1.2-1.6-1.3-2.5"
				/>
		</g>
		<path class="st22" d="M504.1,160.3c0,0-3,2.9-3,3.9c0,1,2.2,1.6,2.2,1.6"/>
		<path class="st7" d="M500,166l5.3,2c0,0-1.3,3.1-4.4,1.7C498.6,168.7,500,166,500,166z"/>
		<g>
			<g>
				<path class="st23" d="M502,158.8c-0.1,0.2-0.2,0.5-0.5,0.7c-0.1,0.2,0.2,0.5,0.3,0.2c0.1-0.2,0.2-0.5,0.3-0.8
					C502.5,158.7,502.1,158.6,502,158.8L502,158.8z"/>
			</g>
		</g>
		<path class="st24" d="M504.2,157.6c0,0-0.7-1.5-2.2-0.8"/>
		<g>
			<g>
				<path class="st23" d="M508.6,161.9c-0.1,0.2-0.2,0.5-0.3,0.7c-0.1,0.2,0.2,0.5,0.3,0.2c0.1-0.2,0.2-0.6,0.3-0.8
					C509,161.9,508.7,161.7,508.6,161.9L508.6,161.9z"/>
			</g>
		</g>
		<path class="st24" d="M508.7,159.4c0,0,1.6-0.2,2.8,2"/>
	</g>
	<g>
		<g>
			<g>
				<path class="st15" d="M480.6,125.3c-0.5-5.8,0.3-21.9-0.7-22.2c-1-0.5-1.4,5.1-2.2,4.5c-0.8-0.5-0.7-9-1.8-9.1
					c-1.5-0.2-1.2,8.4-1.2,8.4s-0.9-9.4-2.3-9.3c-0.9,0.1-0.6,7.4-0.8,10.1c-0.1-3.1-1-8.8-2.1-8.5c-1,0.1-0.8,5.9-0.9,9.7
					c-0.1-2.4-0.6-7.6-1.6-7.5c-0.9,0.1-1.2,13.6-1.3,25"/>
			</g>
			<path class="st15" d="M479.2,182.4c0,0-6.1-12.8-9.9-27.8c-3.8-15-3.1-34.4-3.1-34.4l14.4,2.4c0,0,0.7,27.1,17,54"/>
			<path class="st22" d="M468.9,109.6c1.2,1.8,2.8,3.9,2.6,7.5"/>
			<path class="st22" d="M477.6,108.9c-1.4,1.3-2.9,4.6-2.2,6.2"/>
		</g>
		<path class="st25" d="M526.9,122.5c2.1-2.4,3.9-5.2,5.5-8.2c1.5-3,2.6-6.1,3.5-9.3l-8.5-2.9c0.7-2.9,0.9-5.9,0.7-8.9l8.9-1.5
			c-0.6-6.6-2.6-13-6.1-18.7l-8.1,4c-1.6-2.4-3.5-4.7-5.8-6.8l5.2-7.4c-2.4-2.1-5.2-3.9-8.2-5.5c-3-1.5-6.1-2.6-9.3-3.5l-2.9,8.5
			c-3-0.7-5.9-0.8-8.9-0.7l-1.5-8.9c-6.6,0.6-13,2.6-18.7,6.1l4,8.1c-2.4,1.6-4.7,3.5-6.8,5.8l-7.4-5.2c-2.1,2.4-3.9,5.2-5.5,8.2
			c-1.5,3-2.6,6.1-3.5,9.3l8.5,2.9c-0.6,3-0.8,5.9-0.7,8.9l-8.9,1.5c0.6,6.6,2.6,13,6.1,18.7l8.1-4c1.6,2.4,3.6,4.7,5.8,6.8
			l-5.2,7.4c2.4,2.1,5.2,3.9,8.2,5.5c3,1.5,6.1,2.6,9.3,3.5l2.9-8.5c3,0.6,5.9,0.8,8.9,0.7l1.5,8.9c6.6-0.6,13-2.6,18.7-6.1l-4-8.1
			c2.4-1.6,4.7-3.5,6.8-5.8L526.9,122.5z M487.4,109.6c-7.9-4-11.2-13.8-7-21.8c4-7.9,13.8-11.2,21.8-7c7.9,4,11.2,13.8,7,21.8
			C505.1,110.4,495.3,113.6,487.4,109.6z"/>
		<path class="st16" d="M502.2,176.6c-4.3,0-10.9-13.7-10.9-13.7l-17.2,12.8c0,0,5.5,17,14.9,27.9"/>
		<line class="st17" x1="492.7" y1="165.7" x2="475.2" y2="178.9"/>
		<g>
			<g>
				<path class="st15" d="M546.6,118.4c-0.9-6.2-3.3-21.1-4.4-21.3c-1-0.2-1.5,3.3-1,4.7c-0.7-2.6-2.5-8.5-3.7-8.5
					c-1.5,0,0.3,8.5,0.3,8.5s-2.5-9.2-3.9-8.8c-0.9,0.3,0.7,7.4,1,10.1c-0.7-3-2.5-8.4-3.5-8.1s0.2,5.9,0.8,9.7
					c-0.6-2.3-2-7.4-2.9-7c-0.9,0.2,1.4,11.9,2.8,23.5"/>
			</g>
			<path class="st15" d="M543.7,177.3c0,0,3.8-13.7,5-29c1.2-15.4-2.9-34.4-2.9-34.4l-13.7,4.8c0,0,4,26.8-7.4,56.2"/>
		</g>
		<path class="st16" d="M502.2,176.6c0,0,0.8,2.4,5.5,2.6c6.1,0.3,9.6-2.6,9.6-2.6s18.2,2.4,19.7,22.3c1.7,22.9,2.2,55,2.2,55h-56.8
			c0,0,0.3-36.7,1.6-54.2C485.1,183,502.2,176.6,502.2,176.6z"/>
		<path class="st16" d="M536.9,201.5c6.8-17.9,9.3-31.3,9.3-31.3l-18.2-8.9c0,0-4.4,12.1-10.7,15.4"/>
		<line class="st17" x1="526.5" y1="164.8" x2="545.4" y2="173.9"/>
		<line class="st17" x1="482.3" y1="250.9" x2="539.1" y2="250.9"/>
		<path class="st17" d="M537.3,200.2c0,0-2.3,5-2.5,7.4"/>
		<path class="st17" d="M488.1,187.1c0,0-3.5,5.9-4.3,12.7"/>
		<path class="st17" d="M500,175.8c0,0,0.9,6.7,8.4,6.7c9.1,0,10.8-6.7,10.8-6.7"/>
		<g>
			<path class="st26" d="M541.1,101.8c0-0.1,0.1,0.1,0.1,0.1l0.1,0.2l0.2,0.5c0.1,0.3,0.2,0.7,0.3,1c0.2,0.7,0.3,1.4,0.5,2.2
				c-0.2-0.3-0.5-0.7-0.6-1c-0.1-0.3-0.3-0.7-0.5-1c-0.1-0.3-0.2-0.7-0.2-1.2L541,102v-0.3L541.1,101.8
				C541.1,101.8,541.1,101.7,541.1,101.8z"/>
		</g>
	</g>
</g>
<g>
	<g>
		<g>
			<g>
				<path class="st15" d="M407,364.6l1,31.2l-1,9.8l-37.2-0.2c-0.9,0-1.7-0.8-1.7-1.7l0,0c0-0.7,0.5-1.4,1.2-1.6l16.6-7.6l-2.5-32.5
					"/>
				<path class="st27" d="M366.3,405c0.3-1.3,1.2-2.6,1.8-3l17.6-7.6c9.7,3.9,22.2,0.9,22.2,0.9l0.9,13.2c0,0.5-0.3,0.8-0.8,0.8
					l-41.6-0.2C365.7,409.3,366.3,405,366.3,405z"/>
				<path class="st18" d="M382,395.2c1,1.3,1.8,2.6,2.5,4.1"/>
				<path class="st18" d="M379.7,396.6c1,1.4,1.4,2.2,2.1,3.6"/>
				<path class="st18" d="M377.8,397.5c0.7,0.9,1.4,2.2,2,3.2"/>
			</g>
			<line class="st18" x1="408.7" y1="406.6" x2="366.1" y2="406.4"/>
			<path class="st18" d="M408.4,400.3c0,0-9.9,0.1-10.7,6.3"/>
			<path class="st18" d="M371.7,400.5c0,0,2.9,4,3.5,5.9"/>
		</g>
		<path class="st28" d="M402.6,241.8c0,0,4.5,7.6,5.9,13.4c2.1,9,0,18.3,0,18.3l-0.1,109.2h-27.6c0,0-6.1-125.8-3.5-142.1"/>
		<path class="st18" d="M385,382.7c0,0-6.1-125.8-3.5-142.1"/>
		<g>
			<g>
				<path class="st15" d="M376.3,352.3l12.6,28.6l2.8,9.4L357,404c-0.9,0.3-1.8-0.1-2.2-0.9l0,0c-0.2-0.7-0.1-1.4,0.5-1.8l12.6-13.2
					l-14.4-29.3"/>
				<path class="st1" d="M353.8,404.9c-0.1-1.3,0.1-2.9,0.6-3.5l13.5-13.6c10.5,0,21-7.5,21-7.5l5.9,12c0.1,0.5,0,0.9-0.5,1
					l-38.7,15.3C354.8,409,353.8,405,353.8,404.9z"/>
				<path class="st18" d="M364.6,390c1.4,0.8,2.6,1.8,3.9,3"/>
				<path class="st18" d="M363.1,392.1c1.5,0.9,2.2,1.5,3.2,2.5"/>
				<path class="st18" d="M361.7,393.7c1,0.6,2.1,1.5,3,2.3"/>
			</g>
			<line class="st18" x1="393.7" y1="390.6" x2="354.1" y2="406.3"/>
			<path class="st18" d="M391.1,384.9c0,0-9.1,3.8-7.6,9.8"/>
			<path class="st18" d="M357.1,398.7c0,0,4.1,2.6,5.4,4.3"/>
		</g>
		<path class="st1" d="M354.9,259.7c-14.2,34.9-14.5,38.6-16.8,55.6c-2.4,17.5,23.8,69,23.8,69l25.2-11.2c0,0-16.7-47.1-15.7-55.2
			c2-14.9,19.2-40.3,19.2-40.3s8.2-6.4,9.9-15.1c1.7-8.6-2.1-17.6-2.1-17.6"/>
		<path class="st18" d="M380.8,263.7c0.3-0.1,11.3-3.6,11.3-3.6"/>
		<line class="st18" x1="405" y1="257" x2="408.6" y2="255.9"/>
		<path class="st18" d="M363.4,258.5c0,0-17.5,38.1-19.9,55.6c-2.4,17.5,23.1,67.5,23.1,67.5"/>
		<path class="st18" d="M377.4,301.1c5.5-12,13.4-23.5,13.4-23.5s8.2-6.4,9.9-15.1"/>
	</g>
	<g>
		<path class="st15" d="M352.5,173.2l7.3,12.6c0,0-4.4,9.3-16,5l-3-6.7L352.5,173.2z"/>
		<path class="st15" d="M333.4,164.8c0,0-3.6,16.7,2.6,19.7c3.2,1.6,12.2,0.6,14.4-2.9c1.6-2.5,0.9-14.6-0.9-16.1
			C342,159.9,333.4,164.8,333.4,164.8z"/>
		<g>
			<path class="st23" d="M349.1,159.8c-2.6-4.7-8.2-3.8-17.2,1.3c-1.2,0.7-3.8,0.9-3.8,2.3c0,1.8,1.3,4.8,3.3,5.4
				c1.4,0.3,2.2,0.2,3.6-0.1c1.8-0.5,4.4,0.3,4.4,2.5c0,0.6-0.2,1.6,0.3,1.8c0.2,0.1,0.9,0,1.3,0c0.8,0,1.3,1,1.2,1.8
				c-0.1,0.8,0.5,1.4,0.3,2.3c-0.2,2,2.3,4.1,4.3,4.3c1.7,0.1,6.9-0.7,9.3-4c2.1-2.9,1.8-7.7-1.7-14.9
				C353,159.9,350,159.1,349.1,159.8z"/>
		</g>
		<path class="st15" d="M339.1,173.9c0.6-2.6,2-3,3.1-2.3c1.6,0.9,1.3,4.8,0.7,5.8c-1.2,1.8-2.6,2.4-3.5,1.2"/>
		<path class="st29" d="M341.3,185.2c1.8-1.5,1.6-4.5,1.6-4.5"/>
		<g>
			<g>
				<path class="st30" d="M334,172.7c-0.2,0.6-0.3,1.4,0.1,1.8c0.1,0.1,0.3,0.1,0.5,0C335.5,174,334.4,171.6,334,172.7z"/>
			</g>
		</g>
		<path class="st31" d="M333.2,170.9c0.7-0.1,2,0,2.8,0.6"/>
		<path class="st7" d="M336.3,178.9l-2.8-0.1c0,0-0.1,3.3,1.2,3.3C336.2,182.3,336.3,178.9,336.3,178.9z"/>
	</g>
	<g>
		<path class="st25" d="M358.1,182.9c0,0,6.3-1.6,15.2,1c7.5,2.2,17,7.8,24.3,15.4c12.4,13.2,6.7,46.2,6.7,46.2l-16.2-0.6
			c0,0,2.5-21.2-6-29.6c-8.5-8.5-20.5-10.5-20.5-10.5"/>
		<g>
			<path class="st15" d="M289.4,229.2c-5.1,1.4-20.5,3.1-20.7,4.1c-0.2,1,5.2,0.6,4.8,1.4c-0.3,0.8-8.6,2.2-8.6,3.3
				c0,1.5,8.4-0.3,8.4-0.3s-3.5,0.6-3.1,2c0.3,0.9,1.7,1.3,4.5,0.9c-1.5,0.3-2.1,1-1.7,2.1c0.3,0.9,1.8,0.9,3.3,0.7
				c-1,0.2-2,0.9-1.3,1.6c0.9,0.8,7.1,0.5,18.3-1.4"/>
		</g>
		<path class="st25" d="M342.1,187.1c0,0,4.4,1.8,9.1,0c4.8-1.8,6.9-4.3,6.9-4.3s10.9-0.8,24.2,12.6c13.4,13.4,23.8,51.4,23.8,51.4
			l-54.9,18.4c0,0-9.4-33.3-13.1-48.4C334.4,201.7,342.1,187.1,342.1,187.1z"/>
		<path class="st32" d="M381.5,192c10.9,12.8,24.5,54.8,24.5,54.8"/>
		<path class="st25" d="M342.1,187.1c-7.3,2.8-13.5,9.8-17.3,17c-6.2,11.9-10,20.4-10,20.4l-31.4,4.7l1.6,16.8
			c0,0,21.4-0.6,38.3-3.2c12.1-1.8,21.4-26.9,21.4-26.9"/>
		<path class="st32" d="M340,188c0,0,3.5,4.6,11.9,1.5c8.3-3.1,8.6-7,8.6-7"/>
		<line class="st32" x1="340.8" y1="224.5" x2="344.2" y2="217.4"/>
		<line class="st32" x1="288.2" y1="228.6" x2="289.4" y2="245.9"/>
		<line class="st32" x1="350.2" y1="261.6" x2="405" y2="243.5"/>
	</g>
</g>
<g>
	<g>
		<path class="st15" d="M134.3,215.7c0.2,0.1,0.5,0.3,0.7,0.5c2.4,1.6,5,3.1,7.7,3.9c1.6,0.5,3.3,0.7,4.7,1.7c0.6,0.5,1,0.9,1.6,1.3
			c0.1,0.1,1.7,0.7,1.6,0.5c0.2,0.6,0.8,0.8,1.4,1c0.1,0,0.1,0,0.2,0c0.1,0,0.1-0.1,0.1-0.1c0.2,0.3,0.9,0.6,1.2,0.3
			c0.2-0.2-0.3-1.2-0.3-1.2s0.3,0,0.5-0.1c0.2-0.2,0.2-0.5,0.2-0.8c0.1-2.5-0.8-5.2-2.6-6.9"/>
	</g>
	<g>
		<g>
			<path class="st33" d="M151.9,221c0.2,0.8,0.7,1.7,1,2.5c0,0.1,0.2,0,0.2-0.1C152.8,222.6,152.5,221.6,151.9,221
				C151.9,220.9,151.8,221,151.9,221L151.9,221z"/>
		</g>
	</g>
	<g>
		<g>
			<path class="st33" d="M149.2,221c0.9,1,2,2,2.8,3.1c0,0.1,0.1,0,0.1-0.1C151.5,222.7,150.3,221.9,149.2,221
				C149.2,220.9,149.1,221,149.2,221L149.2,221z"/>
		</g>
	</g>
	<g>
		<line class="st34" x1="132.2" y1="409.5" x2="113.4" y2="218.2"/>
		<polyline class="st34" points="205.1,409.5 186.3,218.2 113.4,218.2 		"/>
		<line class="st34" x1="167.7" y1="409.5" x2="186.3" y2="218.2"/>
		<polyline class="st34" points="94.7,409.5 113.4,218.2 186.3,218.2 		"/>
		<line class="st34" x1="202.1" y1="382.3" x2="97.3" y2="382.3"/>
		<line class="st34" x1="199.7" y1="358.9" x2="99.6" y2="358.9"/>
		<line class="st34" x1="197.8" y1="334.9" x2="102" y2="334.9"/>
		<line class="st34" x1="195.4" y1="312" x2="104.2" y2="312"/>
		<line class="st34" x1="193.2" y1="288" x2="106.5" y2="288"/>
		<line class="st34" x1="190.9" y1="264.3" x2="108.8" y2="264.3"/>
		<line class="st34" x1="188.2" y1="241.8" x2="111.1" y2="241.8"/>
	</g>
	<g>
		<path class="st15" d="M130.2,217.8c7.5,0,15,0,22.5,0c-0.7-1.3-1.2-2.1-2-2.9c-1-1-1.7-1.6-2.8-2.1c-3.5-1.7-7.4-2.8-11.3-2.8"/>
	</g>
	<path class="st35" d="M104.1,166.2c0,0,10.2,26.7,12.8,28.9c2.5,2.2,26.9,14.4,26.9,14.4l-7.5,15.8c0,0-29.4-11.7-33.5-15.8
		c-4.3-4.1-17.6-19.9-18.9-35.9"/>
	<g>
		<g>
			<g>
				<path class="st15" d="M84.5,340.5l-1,28.7l0.9,9.1h34.2c0.8,0,1.6-0.7,1.6-1.6l0,0c0-0.7-0.5-1.3-1-1.5L104,368l2.4-29.8"/>
				<path class="st16" d="M121.7,377.9c-0.3-1.2-1-2.4-1.7-2.6l-16.1-7c-9,3.6-20.5,0.7-20.5,0.7l-0.9,12.2c0,0.3,0.3,0.7,0.7,0.7
					h38.2C122.2,381.9,121.7,377.9,121.7,377.9z"/>
				<path class="st17" d="M107.3,368.8c-0.9,1.2-1.7,2.4-2.3,3.8"/>
				<path class="st17" d="M109.4,370.1c-0.9,1.3-1.4,2.1-1.8,3.2"/>
				<path class="st17" d="M111.1,371c-0.7,0.8-1.3,2.1-1.7,3"/>
			</g>
			<line class="st17" x1="82.7" y1="379.2" x2="121.8" y2="379.2"/>
			<path class="st17" d="M83,373.3c0,0,9.1,0.1,9.9,5.9"/>
			<path class="st17" d="M116.8,373.8c0,0-2.6,3.7-3.1,5.4"/>
		</g>
		<path class="st25" d="M76.9,232.6c0,0-3.3,14.6,3.8,32.4c0,0,3.5,18.5,3.7,39.7c0.2,21.7-2.6,49.2-2.6,59.4H110
			c0,0,3.5-29.3,3.8-58.8c0.3-33.1-2.4-70.4-2.4-80"/>
		<path class="st32" d="M105.8,364.1c0,0,3.5-29.8,3.8-59.8c0.3-32.8-2.4-69.6-2.4-79.1"/>
		<g>
			<g>
				<path class="st15" d="M132.2,317.1l-1,28.7l0.9,9h34.2c0.9,0,1.6-0.7,1.6-1.6l0,0c0-0.7-0.3-1.3-1-1.5l-15.2-7.1l2.4-29.8"/>
				<path class="st16" d="M169.4,354.6c-0.3-1.2-1-2.4-1.7-2.6l-16.1-7c-9,3.6-20.5,0.8-20.5,0.8l-0.9,12.2c0,0.3,0.3,0.7,0.7,0.7
					H169C169.9,358.5,169.4,354.6,169.4,354.6z"/>
				<path class="st17" d="M155,345.5c-0.9,1.2-1.7,2.4-2.3,3.8"/>
				<path class="st17" d="M157.1,346.7c-0.9,1.3-1.3,2.1-1.8,3.2"/>
				<path class="st17" d="M158.8,347.7c-0.7,0.8-1.3,2.1-1.7,3"/>
			</g>
			<line class="st17" x1="130.2" y1="355.8" x2="169.5" y2="355.8"/>
			<path class="st17" d="M130.7,350c0,0,9.1,0.1,9.9,5.9"/>
			<path class="st17" d="M164.3,350.4c0,0-2.6,3.7-3.1,5.4"/>
		</g>
		<path class="st25" d="M124.5,234.2c0,0,27.1,25.7,33.2,42.4c4.3,11.6-2,64.8-2,64.8h-26.9c0,0,3.3-48.4,1.6-53.4
			c-2-5.9-25.2-25.9-25.2-25.9s-9.9-2.2-14.6-12.8c-4.3-9.4-2.3-21-2.3-21"/>
		<path class="st32" d="M118.1,234.2c0,0,28.1,29.7,33.2,42.4c3.9,9.7-2,64.8-2,64.8"/>
		<path class="st32" d="M113.2,269.5c-2.1-2-5.8-5.3-6.9-6.2c-0.7-0.6-1.5-1.2-2.4-1.5c-2.8-0.9-9.7-4.1-13.4-12.3"/>
		<path class="st32" d="M98,243.4c0,0,8.1,0.2,11.4,0"/>
		<line class="st32" x1="76.2" y1="243.4" x2="82.7" y2="243.4"/>
	</g>
	<g>
		<g>
			<g>
				<g>
					<path class="st15" d="M172.8,169.3c2.9-1.3,15.7-6.9,16-6.1c0.2,0.8-3.8,3.5-3.3,3.6c0.2,0.1,3.9-0.9,5.8-1.7
						c1.6-0.8,4.4-1.8,4.8-1.2c0.8,1.3-8.2,5.5-8.2,5.5s1.6-0.7,2.4,0.2c1.2,1.4-1.3,2.8-1.3,2.8s1.4-0.7,1.8,0.5
						c0.5,1.3-1.6,2.3-1.6,2.3s1.7-0.8,1.8,0.7c0.2,2-13.1,6.7-13.1,6.7"/>
				</g>
			</g>
		</g>
		<path class="st16" d="M107.5,156.3c0,0-2.6,2.2-7,1.4c-4.3-0.7-5.3-2.8-5.3-2.8s-11.4,1.6-16.9,36.9c-3.9,24.8-2.5,44.9-2.5,44.9
			h52.2c0,0,1.6-53.9-1-63.9"/>
		<path class="st16" d="M111.6,182.2c0,0,15.4,17,29.8,17c14.4,0,41.6-15.3,41.6-15.3l-6.4-17.7L145,177.4c0,0-16.6-15.5-24.3-18.3
			c-7.7-2.9-13.2-2.9-13.2-2.9"/>
		<path class="st17" d="M128.3,195.3c0,0-9.7-7.4-14.4-10.8"/>
		<line class="st17" x1="173.5" y1="167.2" x2="179.5" y2="185.8"/>
		<line class="st17" x1="75.5" y1="232.3" x2="127.9" y2="232.3"/>
		<path class="st17" d="M119.1,188.3c0.5,15,0,48.4,0,48.4"/>
	</g>
	<g>
		<path class="st15" d="M95.3,147.2l-1.2,9.6c0,0,9.2,4.8,15.3-0.3v-5.5L95.3,147.2z"/>
		<path class="st15" d="M107.9,132.2c0,0,10.7,13.6,6.8,18.5c-2.1,2.6-8.8,2-11.9,0c-2.3-1.5-9-9.3-7.9-11.3
			C98.7,131.7,107.9,132.2,107.9,132.2z"/>
		<path class="st21" d="M106.5,134.6c0.2,5.5-0.6,10.4-0.6,10.4l-0.8,17.9c0,0-14.2,1.5-23.3-4.8c0,0,3-18.8,9.8-24.4
			c6.4-5.4,14.7-5,19-1.5c0,0-0.6,1.6-1.4,2C108.6,134.6,106.5,134.6,106.5,134.6"/>
		<path class="st15" d="M107.4,143.2c-1.3-1.6-2.4-1.4-3-0.5c-0.8,1.3,0.8,3.8,1.5,4.1c1.5,0.9,2.6,0.8,2.8-0.3"/>
		<path class="st29" d="M109.6,152.5c-1.5,0-2.1-1.3-2.1-1.3"/>
		<g>
			<g>
				<path class="st30" d="M110.7,139.1c0.5,0.3,0.9,1,0.6,1.5c-0.1,0.1-0.2,0.2-0.3,0.2C110,140.7,109.7,138.3,110.7,139.1z"/>
			</g>
		</g>
		<path class="st36" d="M110.5,137.3c-1,0-1.6,0.8-2.1,1.6"/>
		<path class="st7" d="M111.5,146l2.4-0.8c0,0,0.9,2.9-0.2,3.3C112.5,149,111.5,146,111.5,146z"/>
		<g>
			<path class="st21" d="M98.5,130.5c0.9-0.2,1.6-1.3,1.6-2.2c0-1-0.7-1.8-1.5-2.3c-0.9-0.5-2-0.5-2.9-0.2c-0.3,0.1-0.7,0.2-1,0.5
				c-1.3,0.9-1.2,2.9-0.3,4.1c0.3,0.5,0.8,0.9,1.5,1.2c0.6,0.1,1.8-0.1,2.5-0.5"/>
		</g>
	</g>
	<path class="st15" d="M111.8,138.9c0.2,0.1,3.1,1.4,3.1,2.5c0,0.7-1.6,1.4-1.6,1.4"/>
	<g>
		<path class="st15" d="M149,215.6c1.7,1.8,2.3,3.6,2.9,5.1c0,0.1,0,0.1,0.1,0.2c0,0.3-0.5,0.3-0.8,0.2c-0.7-0.2-1.4-0.7-2-1.2
			c-0.2-0.2-0.5-0.5-0.7-0.6c-0.5-0.2-1-0.3-1.6-0.3c-2.3-0.2-4.6-1.4-5.6-3.5"/>
	</g>
	<g>
		<path class="st37" d="M149,215.6c1.2,1,2,2.4,2.6,3.9l0.5,1c0,0.1,0.1,0.2,0.1,0.5c0,0.2-0.2,0.3-0.3,0.3c-0.2,0.1-0.5,0.1-0.8,0
			c-0.8-0.2-1.5-0.7-2.1-1.3c-0.3-0.2-0.6-0.6-0.9-0.7c-0.3-0.1-0.7-0.2-1-0.2c-0.8-0.1-1.6-0.2-2.3-0.6c-1.5-0.6-2.9-1.6-3.5-3.1
			c0.9,1.3,2.2,2.2,3.7,2.6c0.7,0.2,1.5,0.5,2.2,0.5c0.3,0,0.8,0.1,1.3,0.2c0.2,0.1,0.3,0.2,0.6,0.3l0.5,0.3c0.6,0.5,1.3,0.9,2,1.2
			c0.1,0,0.3,0,0.5,0l0,0v-0.1c-0.1-0.3-0.3-0.7-0.5-1C150.6,218.1,149.9,216.7,149,215.6z"/>
	</g>
</g>
</svg>
