<?xml version="1.0" encoding="utf-8"?>
<!-- Generator: Adobe Illustrator 23.0.0, SVG Export Plug-In . SVG Version: 6.00 Build 0)  -->
<svg version="1.1" id="Layer_1" xmlns="http://www.w3.org/2000/svg" xmlns:xlink="http://www.w3.org/1999/xlink" x="0px" y="0px"
	 viewBox="0 0 600 453.5" style="enable-background:new 0 0 600 453.5;" xml:space="preserve">
<style type="text/css">
	.st0{fill:none;stroke:#B6C8EF;stroke-width:0.5;stroke-linecap:round;stroke-linejoin:round;stroke-dasharray:3.0045,3.0045;}
	.st1{fill:#FFFFFF;stroke:#B6C8EF;stroke-width:0.5;stroke-miterlimit:10;}
	.st2{fill:#9FBDFD;}
	.st3{fill:#FFFFFF;}
	.st4{fill:#E3F1FC;}
	.st5{fill:none;stroke:#9FBDFD;stroke-width:0.5;stroke-linejoin:round;stroke-miterlimit:10;}
	.st6{fill:#FFFFFF;stroke:#B6C8EF;stroke-width:0.5;stroke-linecap:round;stroke-linejoin:round;stroke-miterlimit:10;}
	.st7{fill:#FFCD5C;}
	.st8{fill:#FFEE99;}
	.st9{opacity:0.55;}
	.st10{fill:#28364C;}
	.st11{fill:#475577;}
	.st12{fill:none;stroke:#B6C8EF;stroke-width:0.5;stroke-linecap:round;stroke-linejoin:round;stroke-miterlimit:10;}
	.st13{fill:#017EFE;}
	.st14{fill:#C7D2EF;}
	.st15{fill:#E3EDFF;}
	.st16{fill:none;stroke:#114093;stroke-width:0.5;stroke-miterlimit:10;}
	.st17{opacity:0.45;}
	.st18{fill:#B7C2CE;}
	.st19{fill:#F9A895;}
	.st20{fill:#FF8D27;}
	.st21{fill:none;stroke:#DD5E17;stroke-width:0.5;stroke-miterlimit:10;}
	.st22{fill:#FFCBBB;}
	.st23{fill:#FFB548;}
	.st24{fill:none;stroke:#ED841B;stroke-width:0.5;stroke-miterlimit:10;}
	.st25{fill:#1A53E2;}
	.st26{fill:none;stroke:#2A36C6;stroke-width:0.5;stroke-miterlimit:10;}
	.st27{fill:#4868EF;}
	.st28{fill:none;stroke:#1D2EA8;stroke-width:0.5;stroke-miterlimit:10;}
	.st29{fill:none;stroke:#FFCBBB;stroke-width:0.5;stroke-miterlimit:10;}
	.st30{fill:#F9BBAF;}
	.st31{fill:#00276F;}
	.st32{fill:none;stroke:#00276F;stroke-width:0.5;stroke-linecap:round;stroke-linejoin:round;stroke-miterlimit:10;}
	.st33{fill:none;stroke:#F7A794;stroke-width:0.5;stroke-miterlimit:10;}
	.st34{fill:none;stroke:#F7A794;stroke-width:0.5;stroke-linejoin:round;stroke-miterlimit:10;}
	.st35{fill:#011E3B;}
	.st36{fill:#91A9D8;}
	.st37{fill:none;stroke:#E2690E;stroke-width:0.5;stroke-miterlimit:10;}
	.st38{fill:url(#SVGID_1_);}
	.st39{fill:#E8EAEF;}
	.st40{fill:#CFDAE5;}
	.st41{fill:#F0F6FF;}
	.st42{fill:#7D97D3;}
	.st43{fill:#F49C84;}
	.st44{fill:none;stroke:#C45F47;stroke-width:0.5;stroke-miterlimit:10;}
	.st45{fill:#173789;}
	.st46{fill:#2B88F7;}
	.st47{fill:none;stroke:#1340BF;stroke-width:0.5;stroke-miterlimit:10;}
	.st48{fill:#223082;}
	.st49{fill:none;stroke:#0D1735;stroke-width:0.5;stroke-miterlimit:10;}
	.st50{fill:#FFEFAB;}
	.st51{fill:none;stroke:#273B7A;stroke-width:0.5;stroke-miterlimit:10;}
	.st52{fill:#86ADA8;}
	.st53{fill:#BCDDCB;}
	.st54{fill:#8EBCA1;}
	.st55{fill:#D6E8DD;}
	.st56{fill:none;stroke:#8EBCA1;stroke-width:0.5;stroke-miterlimit:10;}
	.st57{fill:#F2F5F9;}
	.st58{fill:#3F6D54;}
	.st59{fill:none;stroke:#91AFE5;stroke-width:0.5;stroke-linecap:round;stroke-linejoin:round;stroke-miterlimit:10;}
	.st60{fill:#AF5743;}
	.st61{fill:none;stroke:#752D21;stroke-width:0.5;stroke-miterlimit:10;}
	.st62{fill:#FF855A;}
	.st63{fill:#4A1A1A;}
	.st64{fill:none;stroke:#4A1A1A;stroke-width:0.5;stroke-linecap:round;stroke-miterlimit:10;}
	.st65{fill:none;stroke:#121E3A;stroke-width:0.5;stroke-miterlimit:10;}
	.st66{fill:#752D21;}
	.st67{fill:#B9B5B2;}
	.st68{fill:none;stroke:#846A6A;stroke-width:0.5;stroke-miterlimit:10;}
</style>
<g>
	<g>
		<g>
			<g>
				<path class="st0" d="M396.1,173c-10.9,0-19.7-8.8-19.7-19.7c0-10.9,8.8-19.7,19.7-19.7h43.7c10.9,0,20.3-8.5,20.6-19.4
					c0.4-11.5-8.8-20.9-20.2-20.9H182c-11.5,0-20.7,9.3-20.7,20.8c0,11.5,9.3,20.8,20.7,20.8h37.9c10.7,0,19.8,8.3,20.2,19
					c0.4,11.2-8.6,20.5-19.7,20.5H70.5c-17.8,0-32.3,14.5-32.3,32.3c0,17.8,14.4,32.3,32.3,32.3H315l133.7-0.4h92.1
					c18.1,0,32.7-14.6,32.7-32.7c0-18.1-14.6-32.7-32.7-32.7H396.1z"/>
			</g>
		</g>
		<g>
			<path class="st1" d="M200.5,97.4c-3.9-3.7-6.3-8.9-6.3-14.7c0-11.2,9.1-20.4,20.4-20.4c11.2,0,20.4,9.1,20.4,20.4
				c0,11.3-9.1,20.4-20.4,20.4c-3.7,0-7.1-1-10-2.6l0,0l-6.1,3.4L200.5,97.4L200.5,97.4z"/>
			<g>
				<g>
					<polygon class="st2" points="224.5,91.1 204.9,90.8 202.7,76.8 226.4,76.8 					"/>
					<polygon class="st2" points="226.4,76.8 202.7,76.8 214.5,67.1 					"/>
					
						<rect x="206.3" y="75.4" transform="matrix(1 -1.545214e-03 1.545214e-03 1 -0.1268 0.3314)" class="st3" width="16.1" height="13.6"/>
					<polygon class="st4" points="202.7,76.8 202.8,92.2 214.6,85 					"/>
					<polygon class="st4" points="226.4,76.8 226.4,92.1 214.6,85 					"/>
					<polygon class="st4" points="226.4,92.1 202.8,92.2 214.6,82.4 					"/>
					<polyline class="st5" points="202.8,92.2 214.6,82.4 226.4,92.1 					"/>
					<line class="st5" x1="216.3" y1="83.8" x2="226.4" y2="76.8"/>
				</g>
				<line class="st5" x1="212.9" y1="83.8" x2="202.7" y2="76.8"/>
			</g>
			<line class="st6" x1="214.6" y1="49.7" x2="214.6" y2="56.8"/>
			<line class="st6" x1="181.7" y1="82.5" x2="188.9" y2="82.5"/>
			<line class="st6" x1="240.3" y1="82.5" x2="247.4" y2="82.5"/>
			<line class="st6" x1="196.4" y1="64.4" x2="191.3" y2="59.3"/>
			<line class="st6" x1="232.7" y1="64.4" x2="237.8" y2="59.3"/>
		</g>
		<g>
			<path class="st1" d="M376.8,121.3c5.7-5.4,9.2-13,9.2-21.5c0-16.4-13.3-29.7-29.7-29.7c-16.4,0-29.8,13.3-29.8,29.7
				c0,16.4,13.3,29.8,29.8,29.8c5.3,0,10.3-1.4,14.6-3.9l0,0l8.9,5L376.8,121.3L376.8,121.3z"/>
			<line class="st6" x1="356.3" y1="51.5" x2="356.3" y2="62"/>
			<line class="st6" x1="404.2" y1="99.5" x2="393.8" y2="99.5"/>
			<line class="st6" x1="318.8" y1="99.5" x2="308.3" y2="99.5"/>
			<line class="st6" x1="382.8" y1="73" x2="390.2" y2="65.6"/>
			<line class="st6" x1="329.7" y1="73" x2="322.3" y2="65.6"/>
			<g>
				<g>
					<g>
						<path class="st7" d="M341.6,94.2c0-8.1,6.6-14.7,14.7-14.7c8.1,0,14.7,6.6,14.7,14.7c0,3.2-1,6.2-2.8,8.6l0,0
							c-2.1,3.2-7.5,6.7-7.5,8.9v2.4c0,0.5-0.4,0.9-0.9,0.9h-2.4h-2.2h-2.4c-0.5,0-0.9-0.4-0.9-0.9v-2.4c0-2.1-5.4-5.7-7.5-8.9l0,0
							C342.6,100.4,341.6,97.5,341.6,94.2z"/>
					</g>
					<g>
						<path class="st3" d="M357.9,114.8c0-0.4-0.3-6.3,0.2-11.4c-0.6,0.1-1.2,0.1-1.9,0.1c-0.7,0-1.3,0-1.9-0.1
							c0.5,5.2,0.2,11.1,0.2,11.4l-0.3,0c0-0.1,0.3-6.2-0.2-11.4c-4.4-0.6-6.3-3.1-6.7-5.4c-0.2-1.4,0.3-2.7,1.1-3.2
							c0.5-0.3,1.1-0.4,1.8-0.2c1,0.3,2,1.2,2.6,2.4c0.7,1.4,1.1,3.7,1.4,6.2c0.6,0.1,1.2,0.1,1.9,0.1c0.7,0,1.3,0,1.9-0.1
							c0.2-2.5,0.7-4.8,1.4-6.2c0.6-1.2,1.6-2.1,2.6-2.4c0.7-0.2,1.3-0.1,1.8,0.2c0.9,0.5,1.3,1.9,1.1,3.2c-0.3,2.3-2.3,4.8-6.7,5.4
							c-0.5,5.3-0.2,11.4-0.2,11.4L357.9,114.8z M362.9,94.7c-0.2,0-0.4,0-0.7,0.1c-1,0.3-1.9,1.1-2.5,2.3c-0.7,1.3-1.1,3.6-1.3,6
							c4.2-0.6,6-3,6.4-5.2c0.2-1.2-0.2-2.5-1-3C363.5,94.8,363.2,94.7,362.9,94.7z M349.7,94.7c-0.3,0-0.7,0.1-0.9,0.3
							c-0.7,0.4-1.2,1.7-1,3c0.3,2.2,2.2,4.6,6.4,5.2c-0.2-2.5-0.6-4.7-1.3-6c-0.6-1.1-1.5-2-2.5-2.3
							C350.1,94.7,349.9,94.7,349.7,94.7z"/>
					</g>
					<g>
						<path class="st8" d="M368.5,95.1c-0.5,0-0.8-0.4-0.8-0.8c0-5.2-3.5-9.8-8.6-11c-0.4-0.1-0.7-0.6-0.6-1c0.1-0.5,0.6-0.7,1-0.6
							c5.8,1.5,9.9,6.7,9.9,12.7C369.3,94.7,369,95.1,368.5,95.1z"/>
					</g>
					<g>
						<path class="st8" d="M356,82c0,0.5,0.4,0.8,0.8,0.8c0.5,0,0.8-0.4,0.8-0.8c0-0.5-0.4-0.8-0.8-0.8C356.4,81.1,356,81.5,356,82z
							"/>
					</g>
					<g class="st9">
						<g>
							<path class="st7" d="M370.9,95.1c-0.8,6-5.7,12.2-14.6,12.2c-9,0-13.7-6.5-14.7-12.2c0.2,2.9,1.2,5.6,2.8,7.8l0,0
								c2.1,3.2,7.5,6.7,7.5,8.9v2.4c0,0.5,0.4,0.9,0.9,0.9h2.4h2.2h2.4c0.5,0,0.9-0.4,0.9-0.9v-2.4c0-2.1,5.4-5.7,7.5-8.9l0,0
								C369.7,100.7,370.7,98,370.9,95.1z"/>
						</g>
					</g>
					<g>
						<path class="st10" d="M360.9,112.8h-9.3v4.5c0,0.7,0.2,1.4,0.6,2l0,0c0.7,1.2,2,1.9,3.4,1.9h1.4c1.4,0,2.7-0.7,3.4-1.9l0,0
							c0.4-0.6,0.6-1.3,0.6-2V112.8z"/>
					</g>
					<g>
						<g>
							<path class="st11" d="M360.9,115.8C360.9,115.8,360.9,115.8,360.9,115.8l-9.4-1.3c-0.3,0-0.5-0.3-0.5-0.7
								c0-0.3,0.3-0.5,0.7-0.5l9.3,1.3c0.3,0,0.5,0.3,0.5,0.7C361.5,115.5,361.2,115.8,360.9,115.8z"/>
						</g>
					</g>
					<g>
						<g>
							<path class="st11" d="M360.9,117.8C360.9,117.8,360.9,117.8,360.9,117.8l-9.4-1.3c-0.3,0-0.5-0.3-0.5-0.7
								c0-0.3,0.3-0.5,0.7-0.5l9.3,1.3c0.3,0,0.5,0.3,0.5,0.7C361.5,117.6,361.2,117.8,360.9,117.8z"/>
						</g>
					</g>
					<g>
						<g>
							<path class="st11" d="M360.6,119.8C360.5,119.8,360.5,119.8,360.6,119.8l-8.9-1.2c-0.3,0-0.5-0.3-0.5-0.7
								c0-0.3,0.3-0.5,0.7-0.5l8.9,1.2c0.3,0,0.5,0.3,0.5,0.7C361.1,119.6,360.9,119.8,360.6,119.8z"/>
						</g>
					</g>
				</g>
			</g>
		</g>
		<g>
			<path class="st12" d="M470.2,153.3c0,1.6-1.3,2.8-2.8,2.8s-2.8-1.3-2.8-2.8c0-1.5,1.3-2.8,2.8-2.8S470.2,151.7,470.2,153.3z"/>
			<path class="st12" d="M277.7,61.8c0,1.6-1.3,2.8-2.8,2.8c-1.5,0-2.8-1.3-2.8-2.8c0-1.6,1.3-2.8,2.8-2.8
				C276.4,59,277.7,60.3,277.7,61.8z"/>
			<path class="st12" d="M308.7,124.9c0,1.6-1.3,2.8-2.8,2.8c-1.5,0-2.8-1.3-2.8-2.8c0-1.5,1.3-2.8,2.8-2.8
				C307.4,122,308.7,123.3,308.7,124.9z"/>
			<path class="st12" d="M553.5,106.2c0,1.6-1.3,2.8-2.8,2.8c-1.6,0-2.8-1.3-2.8-2.8c0-1.6,1.3-2.8,2.8-2.8
				C552.2,103.4,553.5,104.7,553.5,106.2z"/>
			<path class="st12" d="M80.1,154.4c0,1.6-1.3,2.8-2.8,2.8s-2.8-1.3-2.8-2.8c0-1.6,1.3-2.8,2.8-2.8S80.1,152.9,80.1,154.4z"/>
			<path class="st12" d="M34.1,167.3l-7,1.9c-0.6,0.2-0.7,1.1-0.2,1.5l5,4.9c0.4,0.4,1,0.2,1.2-0.3l2-6.7
				C35.3,167.9,34.7,167.2,34.1,167.3z"/>
			<path class="st12" d="M558.4,196.6l-5.9-4.2c-0.5-0.4-1.3,0.1-1.3,0.8l-0.6,7c0,0.6,0.4,0.9,1,0.7l6.4-2.7
				C558.7,197.9,558.9,197,558.4,196.6z"/>
			<line class="st12" x1="54.9" y1="212.2" x2="79.7" y2="212.2"/>
			<line class="st12" x1="338.1" y1="149.8" x2="360" y2="149.8"/>
			<line class="st12" x1="496" y1="184.3" x2="511.5" y2="184.3"/>
			<line class="st12" x1="515.2" y1="184.3" x2="522.9" y2="184.3"/>
			<line class="st12" x1="236.4" y1="124.9" x2="251.3" y2="124.9"/>
			<line class="st12" x1="248.3" y1="131.8" x2="259.9" y2="131.8"/>
			<line class="st12" x1="124" y1="103.5" x2="136.1" y2="103.5"/>
			<line class="st12" x1="133.6" y1="99.1" x2="141.2" y2="99.1"/>
			<line class="st12" x1="71.3" y1="218.1" x2="83.3" y2="218.1"/>
			<g>
				<line class="st12" x1="21.6" y1="214.7" x2="21.6" y2="219.6"/>
				<line class="st12" x1="24.1" y1="217.2" x2="19.1" y2="217.2"/>
				<line class="st12" x1="24.1" y1="217.2" x2="19.1" y2="217.2"/>
			</g>
			<g>
				<line class="st12" x1="104.1" y1="112.6" x2="104.1" y2="117.5"/>
				<line class="st12" x1="106.6" y1="115" x2="101.6" y2="115"/>
				<line class="st12" x1="106.6" y1="115" x2="101.6" y2="115"/>
			</g>
			<g>
				<line class="st12" x1="327.7" y1="169.1" x2="327.7" y2="174"/>
				<line class="st12" x1="330.2" y1="171.6" x2="325.3" y2="171.6"/>
				<line class="st12" x1="330.2" y1="171.6" x2="325.3" y2="171.6"/>
			</g>
			<g>
				<line class="st12" x1="440.1" y1="59.9" x2="440.1" y2="64.8"/>
				<line class="st12" x1="442.6" y1="62.3" x2="437.6" y2="62.3"/>
				<line class="st12" x1="442.6" y1="62.3" x2="437.6" y2="62.3"/>
			</g>
			<g>
				<line class="st12" x1="534.4" y1="160.6" x2="534.4" y2="165.5"/>
				<line class="st12" x1="536.9" y1="163.1" x2="532" y2="163.1"/>
				<line class="st12" x1="536.9" y1="163.1" x2="532" y2="163.1"/>
			</g>
			<g>
				<line class="st12" x1="588.6" y1="249.3" x2="588.6" y2="254.2"/>
				<line class="st12" x1="591" y1="251.8" x2="586.1" y2="251.8"/>
				<line class="st12" x1="591" y1="251.8" x2="586.1" y2="251.8"/>
			</g>
		</g>
		<g>
			<path class="st13" d="M158.8,80c0,0-0.1,0-0.1,0c-6.4,0-12.9,0-19.3,0c-11.4,0-22.8,0-34.2,0c-8.4,0-11-0.3-19.4,0
				c-0.1-5.2,1.3-10.1,3.8-12.7c2-2.2,5.5-3.3,8.4-2.6c3.6,1,6.1,3.4,8.4,5.2c0.8-7.1,3.8-13.6,7-15.1c5.5-2.4,11.2,1.4,13.7,5.2
				c2.1,3.1,3.3,6.8,3.7,10.5c3.4-3.8,11.1-6.7,13.8-0.7c1.1,2.4,1,5.1,0.9,7.7C150,76.3,155,77.3,158.8,80z"/>
		</g>
		<g>
			<path class="st13" d="M462.2,141.1c1.2-4.9,12.6-12,18.6-7.7c0.3-5.8,3-12.1,9.7-15.7c8.2-4.4,16.1,4.4,17.9,10
				c1.6-5.2,9.9-12.1,16.6-6.3c6.2,5.4,6.8,14.5,6.1,19.7H462.2z"/>
		</g>
	</g>
	<g>
		<path class="st14" d="M433.8,306.2l15.3-100.7c0.4-2.5,2.5-4.3,5-4.3h67.8l-17.3,111.2c-1.2,7.5-7.5,12.8-15.2,12.8H387.6
			c-2.8,0-5.1-2.3-5.1-5.1l0,0c0-2.8,2.3-5.1,5.1-5.1h35.7C428.7,315.1,433,311.5,433.8,306.2z"/>
		<path class="st15" d="M502,306.2l15.4-101c0.3-2.3,2.2-3.9,4.6-3.9h0.1c3.3,0,6,3.1,5.5,6.3l-16.3,104.9
			c-1.2,7.5-7.5,12.8-15.2,12.8h-73.8c-2.8,0-5.1-2.3-5.1-5.1l0,0c0-2.8,2.3-5.1,5.1-5.1h69.2C496.9,315.1,501.2,311.5,502,306.2z"
			/>
		<g>
			<g>
				<g>
					<line class="st16" x1="453.2" y1="325.3" x2="453.2" y2="386.9"/>
				</g>
				<g>
					<g>
						<path class="st16" d="M485.3,392L485.3,392c0-2.8-2.3-5.1-5.1-5.1h-54.1c-2.8,0-5.1,2.3-5.1,5.1l0,0"/>
					</g>
					<g>
						<path class="st16" d="M458.8,392L458.8,392c0-2.8-2.3-5.1-5.1-5.1"/>
					</g>
					<g>
						<g>
							<path class="st15" d="M480.2,397.1c0,2.8,2.3,5.1,5.1,5.1c2.8,0,5.1-2.3,5.1-5.1c0-2.8-2.3-5.1-5.1-5.1
								C482.5,392,480.2,394.2,480.2,397.1z"/>
						</g>
						<g class="st17">
							<path class="st18" d="M483.5,397.1c0,1,0.8,1.9,1.9,1.9c1,0,1.9-0.8,1.9-1.9c0-1-0.8-1.9-1.9-1.9
								C484.3,395.2,483.5,396,483.5,397.1z"/>
						</g>
					</g>
					<g>
						<path class="st15" d="M453.6,397.1c0,2.8,2.3,5.1,5.1,5.1s5.1-2.3,5.1-5.1c0-2.8-2.3-5.1-5.1-5.1S453.6,394.2,453.6,397.1z"/>
					</g>
					<g class="st17">
						<path class="st18" d="M456.9,397.1c0,1,0.8,1.9,1.9,1.9s1.9-0.8,1.9-1.9c0-1-0.8-1.9-1.9-1.9S456.9,396,456.9,397.1z"/>
					</g>
					<g>
						<g>
							<path class="st15" d="M416,397.1c0,2.8,2.3,5.1,5.1,5.1c2.8,0,5.1-2.3,5.1-5.1c0-2.8-2.3-5.1-5.1-5.1
								C418.3,392,416,394.2,416,397.1z"/>
						</g>
						<g class="st17">
							<path class="st18" d="M419.2,397.1c0,1,0.8,1.9,1.9,1.9c1,0,1.9-0.8,1.9-1.9c0-1-0.8-1.9-1.9-1.9
								C420.1,395.2,419.2,396,419.2,397.1z"/>
						</g>
					</g>
				</g>
			</g>
		</g>
	</g>
	<g>
		<g>
			<path class="st14" d="M287.3,306.2l-15.4-100.7c-0.4-2.5-2.5-4.3-5-4.3h-67.8l17.3,111.2c1.2,7.5,7.5,12.8,15.2,12.8h101.8
				c2.8,0,5.1-2.3,5.1-5.1l0,0c0-2.8-2.3-5.1-5.1-5.1h-35.7C292.4,315.1,288.1,311.5,287.3,306.2z"/>
			<path class="st15" d="M219.1,306.2l-15.4-101c-0.4-2.3-2.2-3.9-4.6-3.9h-0.1c-3.3,0-6,3.1-5.5,6.3l16.3,104.9
				c1.2,7.5,7.4,12.8,15.2,12.8h73.8c2.8,0,5.1-2.3,5.1-5.1l0,0c0-2.8-2.3-5.1-5.1-5.1h-69.2C224.2,315.1,219.9,311.5,219.1,306.2z"
				/>
			<g>
				<g>
					<g>
						<line class="st16" x1="267.9" y1="325.3" x2="267.9" y2="386.9"/>
					</g>
					<g>
						<g>
							<path class="st16" d="M235.7,392L235.7,392c0-2.8,2.3-5.1,5.1-5.1h54.1c2.8,0,5.1,2.3,5.1,5.1l0,0"/>
						</g>
						<g>
							<path class="st16" d="M262.3,392L262.3,392c0-2.8,2.3-5.1,5.1-5.1"/>
						</g>
						<g>
							<g>
								<path class="st15" d="M240.8,397.1c0,2.8-2.3,5.1-5.1,5.1c-2.8,0-5.1-2.3-5.1-5.1c0-2.8,2.3-5.1,5.1-5.1
									C238.6,392,240.8,394.2,240.8,397.1z"/>
							</g>
							<g class="st17">
								<path class="st18" d="M237.6,397.1c0,1-0.8,1.9-1.9,1.9c-1,0-1.9-0.8-1.9-1.9c0-1,0.8-1.9,1.9-1.9
									C236.8,395.2,237.6,396,237.6,397.1z"/>
							</g>
						</g>
						<g>
							<path class="st15" d="M267.4,397.1c0,2.8-2.3,5.1-5.1,5.1c-2.8,0-5.1-2.3-5.1-5.1c0-2.8,2.3-5.1,5.1-5.1
								C265.1,392,267.4,394.2,267.4,397.1z"/>
						</g>
						<g class="st17">
							<path class="st18" d="M264.2,397.1c0,1-0.8,1.9-1.9,1.9c-1,0-1.9-0.8-1.9-1.9c0-1,0.8-1.9,1.9-1.9
								C263.3,395.2,264.2,396,264.2,397.1z"/>
						</g>
						<g>
							<g>
								<path class="st15" d="M305.1,397.1c0,2.8-2.3,5.1-5.1,5.1c-2.8,0-5.1-2.3-5.1-5.1c0-2.8,2.3-5.1,5.1-5.1
									C302.8,392,305.1,394.2,305.1,397.1z"/>
							</g>
							<g class="st17">
								<path class="st18" d="M301.8,397.1c0,1-0.8,1.9-1.9,1.9c-1,0-1.9-0.8-1.9-1.9c0-1,0.8-1.9,1.9-1.9
									C301,395.2,301.8,396,301.8,397.1z"/>
							</g>
						</g>
					</g>
				</g>
			</g>
		</g>
		<g>
			<g>
				<g>
					<g>
						<path class="st19" d="M320.9,361.3l2.3,28.4L323,399l36.6-0.2c0.9,0,1.6-0.7,1.6-1.6l0,0c0-0.7-0.4-1.3-1-1.5l-15.8-7.3
							l-0.9-29.6"/>
						<path class="st20" d="M362.8,398.5c-0.4-1.2-1.1-2.5-1.7-2.8l-16.7-7.2c-9.2,3.7-21.2,0.9-21.2,0.9L321,402
							c0,0.4,0.3,0.7,0.8,0.7h40.7C363.3,402.7,362.8,398.5,362.8,398.5z"/>
						<path class="st21" d="M347.9,389.2c-0.9,1.2-1.7,2.5-2.4,4"/>
						<path class="st21" d="M350,390.5c-1,1.3-1.4,2.1-1.9,3.4"/>
						<path class="st21" d="M351.8,391.4c-0.7,0.9-1.3,2.1-1.8,3.1"/>
					</g>
					<line class="st21" x1="321.2" y1="400" x2="363" y2="399.8"/>
					<path class="st21" d="M322.4,393.8c0,0,9.8,0.2,10.6,6.1"/>
					<path class="st21" d="M357.6,394.2c0,0-2.7,3.8-3.2,5.6"/>
				</g>
			</g>
			<g>
				<g>
					<g>
						<path class="st22" d="M303.6,361.3l0.5,28.4l-0.3,9.3l36.6-0.2c0.9,0,1.6-0.7,1.6-1.6l0,0c0-0.7-0.4-1.3-1-1.5l-15.8-7.3
							l0.9-29.6"/>
						<path class="st23" d="M343.6,398.5c-0.4-1.2-1.1-2.5-1.8-2.8l-16.7-7.2c-9.2,3.7-21.2,0.9-21.2,0.9l-2.1,12.6
							c0,0.4,0.3,0.7,0.8,0.7h40.7C344.1,402.7,343.6,398.5,343.6,398.5z"/>
						<path class="st24" d="M328.7,389.2c-0.9,1.2-1.7,2.5-2.4,4"/>
						<path class="st24" d="M330.8,390.5c-1,1.3-1.4,2.1-1.9,3.4"/>
						<path class="st24" d="M332.6,391.4c-0.7,0.9-1.3,2.1-1.8,3.1"/>
					</g>
					<line class="st24" x1="302.1" y1="400" x2="343.8" y2="399.8"/>
					<path class="st24" d="M303.2,393.8c0,0,9.8,0.2,10.6,6.1"/>
					<path class="st24" d="M338.4,394.2c0,0-2.7,3.8-3.2,5.6"/>
				</g>
			</g>
			<path class="st25" d="M246.7,271.9c0,0-6.5,25.2,2.5,37.6c4,5.5,10.7,5.6,17.3,5.6h38.6c3.2,0,6,2.5,6.2,5.7l5.2,61h31.3
				c0,0-3.1-52.5-4-62.9c-0.7-8.4-2.2-19.8-5.5-27.2c-4.4-9.9-12.7-15-21.1-15h-14.5c-0.7,0-1.3-0.6-1.3-1.3v-3.2"/>
			<line class="st26" x1="316.9" y1="375.3" x2="347.4" y2="375.3"/>
			<path class="st27" d="M228.2,271.9c0,0-6.5,25.2,2.5,37.6c4,5.5,10.7,5.6,17.3,5.6h38.6c3.2,0,6,2.5,6.2,5.7l5.2,61h31.3
				c0,0-3.4-52.5-4-62.9c-0.6-10.4-1.5-20.2-5.5-27.2c-6.3-10.9-17.5-14.8-29.7-14.8c-12.2,0-23.1,0-23.1,0v-6.1"/>
			<path class="st28" d="M233.9,273.9c0,0-4,22.8,2.3,30.2c3.4,4,9.7,4.2,14.5,4.2h41.9c3.1,0,5.7,2.4,6,5.5l5.4,68.1"/>
			<line class="st28" x1="297.4" y1="375.3" x2="328.9" y2="375.3"/>
			<path class="st29" d="M321.7,281.8"/>
			<path class="st28" d="M248.7,275.3c-3.1,7.1-15.8,6.6-15.8,6.6"/>
		</g>
		<g>
			<g>
				<path class="st30" d="M258.3,170.8c0-0.4-0.5-0.6-0.9-0.6c-0.6,0.1-1.1,0.5-1.3,1c-0.3,0.5-0.3,1.1-0.4,1.7c0,0.6,0,1.1,0.3,1.6
					c0.4,0.9,1.6,1.3,2.5,0.9"/>
			</g>
			<path class="st22" d="M259,163.7c0,0-3.4,13-1.5,15.6c2.8,4,9.5,4.3,12.3,2.4c2.3-1.5,4.3-9.8,4.3-11.9
				C274,164,262,160.7,259,163.7z"/>
			<g>
				<g>
					<g>
						<path class="st31" d="M259,168.5c-0.1,0.2-0.2,0.5-0.2,0.7c-0.1,0.2,0.3,0.3,0.4,0.1c0.1-0.3,0.1-0.5,0.2-0.8
							C259.4,168.3,259.1,168.3,259,168.5L259,168.5z"/>
					</g>
				</g>
				<path class="st32" d="M260.3,167.1c0,0-0.9-1.2-2.2-0.3"/>
				<g>
					<g>
						<path class="st31" d="M265.9,170c-0.1,0.3-0.1,0.5-0.2,0.8c-0.1,0.2,0.3,0.4,0.4,0.1c0.1-0.3,0.1-0.5,0.2-0.8
							C266.3,169.9,266,169.8,265.9,170L265.9,170z"/>
					</g>
				</g>
				<path class="st32" d="M265.5,167.7c0,0,1.4-0.5,2.9,1.2"/>
			</g>
			<path class="st22" d="M261.1,180.9l-1.2,9.8c0,0,0.5,4.3,6.9,4.3s11-4.6,11-4.6l-2.2-16.8"/>
			<path class="st33" d="M261.4,182.5c0,0,4.5,0.9,7.5-0.8c2.4-1.3,3.3-4.3,3.3-4.3"/>
			<path class="st34" d="M262.6,169.2c0,0-2.1,3-1.9,3.7c0.3,0.9,1.9,0.7,1.9,0.7"/>
			<g>
				<path class="st35" d="M269.5,172.9c-0.6,1-2,1.8-3.6,1.9c-2.9,0.3-6.1-1-9-0.6c-0.6,0.1-0.7,3-0.7,4c0,1.1,0.3,2.3,0.8,3.3
					c0.6,0.9,1.6,1.5,2.6,1.9c2.2,0.8,4.6,0.8,6.8,0.4c1.1-0.2,2.1-0.3,3-0.9c1-0.6,1.9-1.2,2.6-2.1c0.8-1,1.5-2.2,2.6-2.9
					c1.3-0.9,2.7-0.8,3.4-2.4c0.4-1,0.5-2.1,0.5-3.1c0.1-2.1,0.1-4.2-0.1-6.3c-0.3-5.2-4.5-7.5-8.8-8.1c-1.9-0.2-4.7-0.3-6.6-0.4
					c-1.5-0.1-3.7-0.7-5.1,0.1c-2.5,1.4-1.6,5.7,0.9,6.5c2.8,0.9,7-0.1,9.9,0.3c2,0.2,2,3.1,2,3.5
					C271.1,169.7,270.3,171.3,269.5,172.9z"/>
			</g>
			<path class="st3" d="M263.2,176.9l-4.3-0.5c0,0-0.7,3.1,1.9,3.3C263.2,179.9,263.2,176.9,263.2,176.9z"/>
			<g>
				<path class="st22" d="M274.1,171.4c0.5,0.2,0.9,0.6,1.1,1.1c1.2,2.3-1.5,5.4-4,4.3c-0.9-0.4-0.6-2.8,1.2-5
					C272.9,171.3,273.7,171.3,274.1,171.4z"/>
			</g>
		</g>
		<g>
			<path class="st22" d="M311,219.3c0,0,3.6,18.8,6.2,25.2c2.7,6.3,17.2,5.7,17.2,5.7l-4.6,12.7c0,0-24.2,2.3-29.3-6.2
				c-7.3-12.1-7-33.7-7-33.7"/>
			<g>
				<path class="st22" d="M324.5,250.5c0,0,18-0.7,18.4,0.1c0.4,0.8-3.1,0.9-2.6,1.5c0.5,0.6,8.4,0.2,8.6,1.2c0.3,1.2-7,1.4-7,1.4
					s7.9,0.3,7.8,1.4c-0.1,0.8-6.1,0.9-8.4,1.2c2.5,0,6.7,0.4,6.6,1.2c-0.1,0.8-4.2,1-7.4,1.3c2,0,5.6,0.2,5.5,1
					c0,0.8-14.3,1.9-23.7,2.5"/>
			</g>
			<path class="st23" d="M277.7,187.8c28.5,5,35.4,34.7,35.4,34.7l-20.3,6.6l-11.3-28.9"/>
			<path class="st23" d="M279,187.8c0,0,16.1,5.7,20.2,24.3c4,18.6,4.2,42,2.2,62.4c-33.1,4.1-74.6,1.1-74.6,1.1s-2.4-51.6,8.9-67.5
				c11.3-15.9,23-19.6,23-19.6l10.7,4L279,187.8z"/>
			<g>
				<path class="st36" d="M257.5,261.7h37.1v2.1h-39.2l0,0C255.4,262.6,256.3,261.7,257.5,261.7z"/>
				<path class="st36" d="M339.8,263.8h-52.2l10-32.1c0.5-1.6,2-2.8,3.8-2.8h47.2c1,0,1.8,1,1.5,2L339.8,263.8z"/>
				<path class="st14" d="M342.2,263.8H290l10-32.1c0.5-1.6,2-2.8,3.8-2.8h47.1c1.1,0,1.8,1,1.5,2L342.2,263.8z"/>
				<path class="st36" d="M326.8,246.9c-0.3,1.5-2.1,2.7-4,2.7c-1.9,0-3.2-1.2-2.9-2.7c0.3-1.5,2.1-2.7,4.1-2.7
					S327.1,245.4,326.8,246.9z"/>
			</g>
			<g>
				<path class="st22" d="M247.7,226c0,0-6.8,15.7-5.7,18.5c1.1,2.8,30.2,4.7,30.2,4.7l-0.9,14.3c0,0-32.5,0.3-46.6,0.3
					c-17.9,0-1.3-43.2-1.3-43.2"/>
				<g>
					<path class="st22" d="M263.2,248.5c0,0,21.6,1.2,22,2.2c0.4,1-3.8,0.7-3.3,1.5c0.5,0.8,10.1,1.2,10.2,2.4
						c0.2,1.5-8.5,0.9-8.5,0.9s9.5,1.2,9.2,2.5c-0.2,1-7.4,0.4-10.2,0.5c3.1,0.2,7.9,1.2,7.8,2.2c-0.2,1-5.1,0.7-8.9,0.7
						c2.4,0.2,6.7,0.9,6.5,1.8c-0.1,0.9-17.3,0.6-28.7,0.3"/>
				</g>
			</g>
			<path class="st23" d="M259.2,189.1c-31-1.9-38.6,34.5-38.6,34.5l28.1,5.5l4.7-19"/>
			<path class="st3" d="M260.4,186.2c3.5,3.5,8.9,6.3,8.9,6.3c0,0.1-1.8,3.5-3.6,6.7c0,0-7.1-5.6-9.6-10.2
				C256.1,189,259.4,186.7,260.4,186.2z"/>
			<path class="st3" d="M269.3,192.5l4.3,6.1c0,0,3.9-2.2,6.8-10.4c0,0-1.6-2.1-3.2-3C275.3,187.7,269.3,192.5,269.3,192.5z"/>
			<line class="st37" x1="247.9" y1="228.9" x2="253.4" y2="214.6"/>
			<path class="st37" d="M301.8,226.1c-1.5-10.4-5.7-19.5-5.7-19.5"/>
		</g>
	</g>
	<g>
		<line class="st16" x1="407.4" y1="270.1" x2="407.4" y2="403"/>
		<line class="st16" x1="193.4" y1="270.1" x2="193.4" y2="403"/>
		<g>
			<g class="st9">
				<linearGradient id="SVGID_1_" gradientUnits="userSpaceOnUse" x1="362.0916" y1="250.2099" x2="362.0916" y2="234.1414">
					<stop  offset="0" style="stop-color:#FFFFFF;stop-opacity:0.1"/>
					<stop  offset="1" style="stop-color:#FFFFFF;stop-opacity:0.4"/>
				</linearGradient>
				<path class="st38" d="M354.7,250.2c0,0,0.5-0.1,0.7-0.4c0.4-0.6-0.3-1.2-0.8-1.5c-0.6-0.4-1.4-0.5-1.7-1.2
					c-0.3-0.8,0.2-1.7,0.9-2.2c0.6-0.4,1.3-0.6,1.9-0.8c0.7-0.3,1.4-0.7,1.9-1.4c0.5-0.8,0.4-1.9,0.5-2.9c0.3-3.7,4.1-5.6,7.3-5.6
					c1.6,0,4,0.5,5.1,1.8c0.4,0.4,0.6,0.9,0.7,1.4c0.2,0.8-0.2,1.6-0.7,2.2c-0.6,0.6-1.3,1-1.9,1.6c-0.6,0.6-0.2,1.2-0.3,1.9
					c-0.2,0.8-0.7,1.1-1.3,1.5c-1.4,0.8-3.1,1-4.6,1.4c-0.5,0.1-1,0.3-1.3,0.6c-0.5,0.4-0.8,1-1.2,1.5c-0.7,1-1.8,1.6-2.9,1.9"/>
			</g>
			<g>
				<g>
					<path class="st39" d="M363.6,259.6h-3v-1.4h3c1,0,1.8-0.8,1.8-1.8v-2.5c0-1-0.8-1.8-1.8-1.8h-3v-1.4h3c1.8,0,3.2,1.4,3.2,3.2
						v2.5C366.8,258.1,365.4,259.6,363.6,259.6z"/>
				</g>
			</g>
			<path class="st39" d="M361.5,263.4h-9.6c-0.7,0-1.3-0.6-1.3-1.3v-13.5h12.3V262C362.9,262.8,362.3,263.4,361.5,263.4z"/>
			<path class="st40" d="M348.6,261.3c0,0,0.1,2.9,4.6,2.9h7c4.5,0,4.6-2.9,4.6-2.9H348.6z"/>
		</g>
		<g>
			<g>
				<rect x="183.9" y="263.8" class="st41" width="230.8" height="7.7"/>
			</g>
		</g>
		<g>
			<path class="st42" d="M372.4,263.8l-2.5,0l-11.2-33.4c-0.3-0.6,0.2-1.3,0.9-1.3l0,0c0.7,0,1.3,0.4,1.5,1L372.4,263.8z"/>
			<path class="st42" d="M412.6,261.7h-41.5v2.1h43.5l0,0C414.7,262.6,413.7,261.7,412.6,261.7z"/>
		</g>
	</g>
	<g>
		<g>
			<path class="st43" d="M150.8,146.7l1,9.9c0,0-0.8,2.8-6.3,3.4c-6.6,0.7-9.5-4.3-9.5-4.3l1.3-9.2"/>
			<path class="st43" d="M154.5,134.5c0,0,3.9,12.4-1.6,15.6c-5,3-13.4-1.6-13.9-3.2c-0.5-1.6-2.7-14.9,0.5-15.9
				C145.1,129.2,152.8,129.2,154.5,134.5z"/>
			<path class="st44" d="M151.2,151.4c0,0-5.3,1.4-9.2-2.1"/>
			<g>
				<path class="st45" d="M158.1,127.4c-0.6-1.1-1.8-2-3-2.2c-1.2-0.2-2.6,0-3.6-0.7c-0.3-0.2-0.5-0.4-0.8-0.6c-0.9-0.6-2-0.6-3-0.4
					c-1,0.3-1.9,0.9-2.7,1.5c-0.6,0.5-1.2,1-1.9,1.2c-1.3,0.5-2.8-0.1-4.2,0.1c-1.6,0.2-3,1.3-3.6,2.8c-0.6,1.5-0.2,3.3-1,4.8
					c-0.4,0.7-1.1,1.3-1.4,2.1c-0.4,1.1,0,2.3,0.6,3.3c0.5,0.9,1.1,1.8,1.4,2.8c0.2,0.7,0.3,1.5,0.6,2.3c0.5,1.4,1.4,2.8,3,2.9
					c0.6,0.1,1.2,0.1,1.7-0.3c0.5-0.3,0.6-1,0.7-1.5c0.1-0.9,0.1-1.9-0.2-2.8c0.6,0.3,1.1,0.8,1.7,0.7c0.2,0,0.4-0.2,0.5-0.3
					c1.4-1.4-0.2-3.6-0.3-5c-0.2-1.6,1.3-3.1,2.9-3c0.7,0.1,1.3,0.3,2,0.3c1.3-0.1,2.2-1.5,3.5-1.8c1.2-0.3,2.5,0,3.7,0.1
					c2.1,0,4-1.9,4.1-3.9C158.7,128.9,158.5,128.1,158.1,127.4z"/>
			</g>
			<g>
				<path class="st43" d="M141.4,142.6c-0.5-1.2-1.3-2.6-2.6-1.8c-0.5,0.3-0.7,0.9-0.9,1.5c-0.6,1.9,0.8,4.9,2.7,4.6
					c0.9-0.1,1.4-1.2,1.8-2.1"/>
			</g>
			<path class="st44" d="M150.8,139.4c0,0,1.7,3.2,1.5,3.8c-0.4,0.9-2,0.5-2,0.5"/>
			<path class="st3" d="M149.4,145.9l4.2-0.5c0,0,0.3,3-1.6,3.4C149.7,149.3,149.4,145.9,149.4,145.9z"/>
			<g>
				<g>
					<path class="st31" d="M153.5,138.7c0.1,0.3,0.1,0.5,0.2,0.8c0.1,0.2,0.5,0.1,0.4-0.1c-0.1-0.3-0.2-0.5-0.2-0.7
						C153.8,138.4,153.5,138.5,153.5,138.7L153.5,138.7z"/>
				</g>
			</g>
			<path class="st32" d="M152.6,137.3c0,0,0.9-1.2,2.2-0.3"/>
			<g>
				<g>
					<path class="st31" d="M146.6,140.3c0,0.3,0.1,0.5,0.1,0.8c0.1,0.2,0.4,0.1,0.4-0.1c-0.1-0.3-0.1-0.5-0.2-0.8
						C146.9,140,146.6,140.1,146.6,140.3L146.6,140.3z"/>
				</g>
			</g>
			<path class="st32" d="M147.4,137.9c0,0-1.4-0.5-2.9,1.2"/>
		</g>
		<g>
			<g>
				<g>
					<g>
						<path class="st43" d="M156.6,361.3l3.5,28.4l-0.2,9.3l36.6-0.2c0.9,0,1.6-0.7,1.6-1.6l0,0c0-0.7-0.4-1.3-1-1.5l-15.8-7.3
							l-2.1-29.6"/>
						<path class="st46" d="M199.6,398.5c-0.4-1.2-1.1-2.5-1.8-2.8l-16.7-7.2c-9.2,3.7-21.1,0.9-21.1,0.9l-2.1,12.6
							c0,0.4,0.3,0.7,0.8,0.7h40.7C200.1,402.7,199.6,398.5,199.6,398.5z"/>
						<path class="st47" d="M184.7,389.2c-0.9,1.2-1.7,2.5-2.4,4"/>
						<path class="st47" d="M186.8,390.5c-1,1.3-1.4,2.1-1.9,3.4"/>
						<path class="st47" d="M188.6,391.4c-0.7,0.9-1.3,2.1-1.8,3.1"/>
					</g>
					<line class="st47" x1="158" y1="400" x2="199.8" y2="399.8"/>
					<path class="st47" d="M159.2,393.8c0,0,9.8,0.2,10.7,6.1"/>
					<path class="st47" d="M194.4,394.2c0,0-2.7,3.8-3.2,5.6"/>
				</g>
			</g>
			<path class="st48" d="M173.8,238.9c6.1,43.5,10.7,146.3,10.7,146.3h-33.3c0,0-5.2-75.6-10.6-122.8c-9-17.6-12.6-29.8-11-37.1"/>
			<path class="st49" d="M155.5,385.1c0,0-5.2-75.6-10.6-122.8"/>
			<g>
				<g>
					<g>
						<path class="st43" d="M111.4,361.3l-2.1,28.4l-0.3,9.3l36.6-0.2c0.9,0,1.6-0.7,1.6-1.6l0,0c0-0.7-0.4-1.3-1-1.5l-15.8-7.3
							l3.5-29.6"/>
						<path class="st46" d="M148.7,398.5c-0.4-1.2-1.1-2.5-1.8-2.8l-16.7-7.2c-9.2,3.7-21.2,0.9-21.2,0.9L107,402
							c0,0.4,0.3,0.7,0.8,0.7h40.7C149.3,402.7,148.7,398.5,148.7,398.5z"/>
						<path class="st47" d="M133.9,389.2c-0.9,1.2-1.7,2.5-2.4,4"/>
						<path class="st47" d="M136,390.5c-1,1.3-1.4,2.1-1.9,3.4"/>
						<path class="st47" d="M137.8,391.4c-0.7,0.9-1.3,2.1-1.8,3.1"/>
					</g>
					<line class="st47" x1="107.2" y1="400" x2="148.9" y2="399.8"/>
					<path class="st47" d="M108.4,393.8c0,0,9.8,0.2,10.6,6.1"/>
					<path class="st47" d="M143.6,394.2c0,0-2.7,3.8-3.2,5.6"/>
				</g>
			</g>
			<path class="st48" d="M109.5,234.8c-2.7,7.5-3.4,20.6-0.4,33.3c0.2,0.9,0.3,1.7,0.2,2.6c-2.6,52.2-5.3,114.4-5.3,114.4H137
				c0,0,12.4-129.8,14.8-151.2"/>
			<path class="st49" d="M114.7,234.8c-2.7,7.5-3.4,20.6-0.4,33.3c0.2,0.9,0.3,1.7,0.2,2.6c-2.6,52.2-5.3,114.4-5.3,114.4"/>
			<path class="st49" d="M144.8,304.3c0,0,5-50.9,6.6-63"/>
			<path class="st49" d="M112.6,258c0,0,9.2-1.9,14-11.3"/>
			<path class="st49" d="M149.7,255.9c0,0,3.2-0.5,3.6-1.7c0.3-1.2,2.1-11.8,2.1-11.8"/>
			<path class="st49" d="M165.7,244.5c0,0,2.2,10.4,10,10.8"/>
			<line class="st49" x1="104.4" y1="378.9" x2="137.6" y2="378.9"/>
			<line class="st49" x1="150.7" y1="378.9" x2="184.2" y2="378.9"/>
		</g>
		<g>
			<g>
				<path class="st43" d="M181.9,180.5c0,0,7.4,11.3,10.1,11.6c4.3,0.5,25.4-15.4,25.4-15.4l10.7,12.3c0,0-20.2,23.8-36.9,24.9
					c-13.1,0.8-28.8-20-28.8-20"/>
				<g>
					<path class="st43" d="M210.7,181.5c0,0,18.1-14.1,19-13.8c0.9,0.3-1.6,3-0.8,3c0.8,0.1,6.5-5.8,7.4-5.3
						c1.1,0.7-4.8,6.3-4.8,6.3s6.9-5.8,7.7-4.9c0.6,0.6-6.2,7.1-6.2,7.1s6.8-5,7.4-4.3c0.6,0.7-5.4,6.4-5.4,6.4s4.7-4.1,5.5-3.4
						c0.8,0.7-9.3,13.5-18,22.2"/>
				</g>
				<path class="st44" d="M227.7,171.6c0,0-1.3,3.3-3,5.8"/>
				<path class="st44" d="M226.9,178.9c1.9-2,4.5-2.3,6.9-2.2"/>
			</g>
			<path class="st46" d="M136.3,154.4c0,0,2.6,3.3,7.6,3.7c4.9,0.4,8-2.2,8-2.2s15.6,7.9,20,40.6c4.4,32.7,4.8,49.9,4.8,49.9H107
				C107,246.4,98.2,164.5,136.3,154.4z"/>
			<path class="st46" d="M151.8,156c4.4,0,10.8,1.7,15,4.7c9,6.4,11.7,13.8,20.1,25.2l-20.2,14.2L151.8,156z"/>
			<g>
				<polygon class="st50" points="139,265.7 108.8,251 128.5,210.2 158.7,225 				"/>
				<g>
					<path class="st45" d="M152.1,223l-17-8.3l1.4-2.8c0-0.1,0.1-0.1,0.2-0.1l16.6,8.1c0.1,0,0.1,0.2,0.1,0.2L152.1,223z"/>
					<path class="st45" d="M146.9,212.1c-1.4-0.7-3.1-0.2-3.7,1.1c-0.6,1.3,0,2.9,1.4,3.6c1.4,0.7,3.1,0.2,3.7-1.1
						C148.9,214.4,148.3,212.8,146.9,212.1z M145.1,215.6c-0.7-0.3-1-1.1-0.7-1.7c0.3-0.6,1.1-0.9,1.8-0.5c0.7,0.3,1,1.1,0.7,1.7
						C146.6,215.7,145.8,215.9,145.1,215.6z"/>
				</g>
			</g>
			<g>
				<path class="st43" d="M120.7,196.9c0,0-5.9,13.1-6.3,16.8c-0.4,3.7,23.5,14.8,23.5,14.8l-6.2,14.7c0,0-38.1-9.4-41.6-20.8
					c-3.5-11.5,8.7-35.2,8.7-35.2"/>
				<g>
					<path class="st43" d="M125.7,222.3c0,0,22.4,10.2,22.5,11.4c0.1,1.2-4.1-0.5-3.9,0.5c0.2,1,10.1,4.6,9.8,5.8
						c-0.3,1.6-8.3-1.9-8.3-1.9s8.7,4.3,8,5.7c-0.5,0.9-7.9-2-10.8-2.8c3.1,1.3,7.9,3.9,7.3,4.9c-0.5,1-5.6-1-9.5-2.2
						c2.4,1,6.6,3.1,6.2,4c-0.4,0.9-18.2-5-30-9.1"/>
				</g>
			</g>
			<path class="st46" d="M136.3,154.4c-10-0.2-19.8,2.8-25.3,8.1c-8.3,7.9-16,27.7-16,27.7l26.6,10.3l11.6-22.5"/>
			<line class="st51" x1="119.7" y1="200.1" x2="128.7" y2="184.6"/>
			<line class="st51" x1="122.2" y1="195.7" x2="96.6" y2="185.4"/>
			<path class="st51" d="M171.9,196.3c-1.2-9.2-3.7-20.9-3.7-20.9"/>
			<line class="st51" x1="171.2" y1="191.8" x2="184.5" y2="182.7"/>
		</g>
	</g>
	<g>
		<g>
			<g id="XMLID_31_">
				<path class="st52" d="M514.4,300.7c-2.5-0.8-5.3-1.1-7.7-0.1c-1.3,0.5-2.4,1.4-3.5,2.2c-2.1,1.4-4.8,2.6-7.3,1.7
					c-2.2-0.8-3.3-3.3-2.7-5.4c0.6-2.1,2.6-3.7,4.8-4.4c2.3-0.7,4.8-0.7,7.2-0.4"/>
			</g>
			<g id="XMLID_29_">
				<path class="st53" d="M527.1,322.4c-12.5,0.2-12.9-16.7-18-23.4c-2.4-3-5.5-4.9-9.6-4.6c1.8-1.2,16.5-2.4,19.7-0.7
					c3.6,1.9,5.4,4.1,7.1,7.4C528.1,304.8,535,318.6,527.1,322.4"/>
			</g>
			<g id="XMLID_28_">
				<g>
					<path class="st54" d="M503.2,293.9c24.5-0.8,24,34.3,27.3,50.8c0,0.2,0.4,0.1,0.3-0.1c-1.8-12.1-2.6-25.1-7.4-36.4
						c-3.6-8.6-10.4-15.1-20.2-14.5C503,293.7,503,293.9,503.2,293.9L503.2,293.9z"/>
				</g>
			</g>
			<g>
				<path class="st55" d="M532.7,309.2c-4.6-1.8-7.2-6.8-8.1-11.7c-1.6-8.8-2.7-17.8-5.1-26.5c-2.6-9.3-7.1-17.2-11.9-25.4
					c-2.2-3.6-4.3-8.6-1.4-11.7c1.2-1.2,2.9-1.7,4.5-1.9c5.8-0.5,11.3,3.3,14.6,8.1c3.3,4.9,4.7,10.7,6,16.4
					c0.9,3.9,1.8,7.7,2.8,11.6C537.2,281.7,540.7,300.9,532.7,309.2"/>
			</g>
			<g>
				<path class="st52" d="M561.1,281c3-1.9,6.8-2.3,10.3-1.9c3.5,0.5,6.9,1.8,10.1,3.2c1.4,0.6,2.8,1.3,4.3,1.4
					c1.5,0.1,3.2-0.3,4.1-1.5c1.1-1.4,0.8-3.5-0.3-5c-1-1.4-2.7-2.3-4.4-3c-4.2-1.6-8.8-1.9-13.2-2"/>
			</g>
			<g>
				<g>
					<path class="st54" d="M573.6,275c5.5-0.6,10.2,2.4,12.3,7.6c0.1,0.1,0.3,0.1,0.2-0.1c-1.7-5.4-6.9-8.5-12.5-7.7
						C573.4,274.8,573.4,275.1,573.6,275L573.6,275z"/>
				</g>
			</g>
			<path class="st56" d="M507.2,233.2c7.4,4.5,13.5,16.4,17.3,26.6c3,8.2,5.1,16.6,6.4,25.3c2.7,18.5,4,45.4,3.3,64"/>
			<g>
				<path class="st55" d="M547.2,305c7-2.7,7.3-13,13.2-20.7c4.9-6.3,11.5-10,23.2-10.7c-5.1-1.7-10.4-3.1-15.7-3.1
					c-5.4-0.1-10.9,1.2-15.3,4.3C546.3,279.1,536.4,299.4,547.2,305"/>
			</g>
			<path class="st56" d="M577.2,271.7c-7.9-0.6-15.8,2.7-21.4,8.2c-8.7,8.5-8.5,21.7-9.4,32.9c-1.1,14.6-2,29.3-2.8,43.9"/>
			<g id="XMLID_30_">
				<path class="st53" d="M544,289c-6.2-3-5.6-11.6-5.3-16.9c0.7-12.9,3.6-28.4,11.3-39.4c5.9-8.5,14.7-13.3,25.1-10
					c3.4,1.1,9,5.3,6.8,9.5c-1.5,2.8-7.7,4.7-10.3,7c-3.3,3-5.9,6.6-8.1,10.4c-4.4,7.8-6.8,16.6-9.1,25.2
					C552.8,281.3,551.1,287.9,544,289"/>
			</g>
			<g id="XMLID_27_">
				<path class="st52" d="M574.5,304c2.3-0.6,6.3-0.9,8.7-0.5c1.1,0.6,3,1.8,4.4,4c1.6,2.6,1.8,9.8-3.1,8.5c-2-0.5-2.9-2.8-4.2-4.5
					c-1.5-2.1-3.8-3.6-6.4-4.1c-2.6-0.5-5.3,0-7.5,1.4"/>
			</g>
			<g id="XMLID_26_">
				<g>
					<path class="st54" d="M585.4,312.9c-0.2-4.2-2.9-7-6.1-9.4c-3.3-2.6-7-2.4-11-1.6c-0.1,0-0.1,0.2,0,0.2c3.8,0,7.1-1,10.5,1.5
						c3.2,2.4,6.1,5.1,6.4,9.4C585.1,313.1,585.4,313.1,585.4,312.9L585.4,312.9z"/>
				</g>
			</g>
			<g id="XMLID_25_">
				<path class="st53" d="M584.7,304.5c-5.7-1.1-13.1,1.8-17.1,6c-1.9,2-3.7,4.6-6.4,4.8c-2.8,0.2-6.3,0.5-6.4-5.4
					c-0.1-4.4,2.6-5.6,5-7.1c2.4-1.6,5.2-2.1,8-2.3C571.1,300.3,579.7,299.1,584.7,304.5"/>
			</g>
			<g id="XMLID_24_">
				<g>
					<path class="st54" d="M576.8,301.1c-9.1,0.1-16.6,5.9-20.6,13.9c-3.3,6.6-4.4,14.3-5.3,21.5c-0.9,7.9-1.4,15.9-1.4,23.8
						c0,0.2,0.3,0.2,0.3,0c0.7-13.2,0.6-26.8,4.5-39.6c3.1-10.3,11-19.2,22.4-19.5C576.9,301.3,576.9,301.1,576.8,301.1L576.8,301.1
						z"/>
				</g>
			</g>
			<g id="XMLID_8_">
				<g>
					<path class="st54" d="M567.8,227.5c-6,3.3-10.1,9.5-13.2,15.4c-3.4,6.4-5.7,13.4-7.3,20.5c-3.8,16.3-5.3,33.3-5.9,50
						c-0.4,10-0.5,20,0.2,29.9c0,0.1,0.2,0.1,0.2,0c-0.4-16.6-0.3-33.2,1.3-49.8c1.5-15.3,3.3-31.3,9.4-45.6
						C555.7,240.4,560.4,231.8,567.8,227.5C567.9,227.6,567.8,227.5,567.8,227.5L567.8,227.5z"/>
				</g>
			</g>
			<path id="XMLID_2_" class="st57" d="M567.9,341.2v13.1c0,29.1-10.9,47.8-10.9,47.8h-33.6c0,0-10.9-18.7-10.9-47.8v-13.1H567.9z"
				/>
		</g>
		<g>
			<g id="XMLID_588_">
				<path class="st52" d="M28.2,320.4c-1.5,1.3-3,2.7-4,4.5c-0.9,1.8-1.2,4.1-0.1,5.8c0.4,0.6,0.9,1.1,1.5,1.5
					c1.8,1.4,4.1,2.1,6.3,1.8c2.2-0.3,4.3-1.7,5.3-3.8c0.5-1.2,0.6-2.6,1-3.8c1.1-3.8,4.7-6.9,8.7-6.8"/>
			</g>
			<g id="XMLID_481_">
				<path class="st53" d="M60.9,333.5c-3.2,2.8-8.9,2.6-12.4,0.4c-4.8-3-7.4-8.5-12.7-10.9c-2-0.9-4.3-1.4-6.4-0.7
					c-2.1,0.6-3.9,2.2-5.8,3.3c4-9.2,14.9-12.9,19.1-12.9c7.9,0,15.6,5.3,18.8,13C62.6,328.2,63,331.7,60.9,333.5z"/>
			</g>
			<g id="XMLID_9_">
				<path class="st52" d="M98.4,301.7c3-1.1,6.3-1.4,9.2-0.1c1.6,0.7,2.9,1.9,4.3,3c2.5,2,5.8,3.6,8.7,2.4c2.7-1.1,4-4.5,3.3-7.3
					c-0.7-2.8-3.1-5-5.8-6c-2.7-1-5.7-1-8.6-0.6"/>
			</g>
			<g id="XMLID_777_">
				<path class="st53" d="M75.8,310.2c-6.2-3-5.6-11.6-5.3-16.9c0.5-8.5,0.8-17.2,2.8-25.5c2.7-11.3,10-22.1,22.6-24.2
					c3.7-0.6,7.5-0.8,11.1,0.3c3.6,1.1,6.7,3.9,7.2,7.4c0.1,0.8,0.1,1.7-0.4,2.4c-0.5,0.8-1.5,1.2-2.5,1.7
					c-9.1,4.1-16.1,12-18.6,21.1c-1.8,6.4-1.6,13.3-3.3,19.8C87.6,302.6,83,309.1,75.8,310.2"/>
			</g>
			<g id="XMLID_708_">
				<path class="st55" d="M83.2,331.1c10.3,0.2,10.2-9.2,12.7-12.4c4.4-5.6,4.9-13.4,8.9-19.3c2.8-4.1,6.6-6.6,11.5-6.3
					c-2.1-1.6-19.8-3.2-23.6-1c-4.3,2.5-6.5,5.6-8.5,10C81.9,307.2,73.6,326,83.2,331.1"/>
			</g>
			<g id="XMLID_707_">
				<g>
					<path class="st53" d="M111.8,292.2c-12.9-0.8-20.6,9.6-24.5,20.6c-5.4,15.4-6.3,32.4-8.5,48.4c0,0.2,0.3,0.3,0.3,0.1
						c2.6-15,3.2-30.3,7.5-45c3.5-12.1,11-24.6,25.2-24C112,292.4,112,292.2,111.8,292.2L111.8,292.2z"/>
				</g>
			</g>
			<g id="XMLID_710_">
				<path class="st55" d="M62,306.8c-3.9-0.3-7.1-3.6-8.7-7.2c-3.7-8.3-3-17.9-8.3-25.6c-2.7-4-6.5-7.2-9.5-11.1
					c-4.2-5.5-6.2-13.2-3-19.6c4.8-9.6,15.1-5.3,21.3,0.3c8.6,7.8,15.7,19.1,17.7,30.1C72.9,281.1,74.9,299.2,62,306.8"/>
			</g>
			<g id="XMLID_300_">
				<g>
					<path class="st53" d="M39.2,246.6c3.8,0.2,7,3.5,9.2,6.4c2.6,3.2,4.5,6.7,5.8,10.5c3.3,9.3,5.1,19.1,6.3,29
						c2.4,20.3,3.1,40.8,3.4,61.2c0,0.2,0.4,0.2,0.4,0c0-17.7-0.9-35.4-2.4-53.1c-0.7-7.8-1.6-15.5-3.2-23.2
						c-1.4-6.9-3.2-14.2-6.8-20.3c-2.6-4.4-7-10.6-12.6-10.8C39.1,246.3,39.1,246.5,39.2,246.6L39.2,246.6z"/>
				</g>
			</g>
			<g id="XMLID_586_">
				<path class="st52" d="M27.3,286.3c-3.8-0.2-10.3,0.6-13.8,2c-1.5,1.1-4.2,3.5-5.6,7.1c-1.4,3.6-0.7,8.2,2.1,10.8
					c2.2,2,5.3,2.6,8.3,2.4c1.4-0.1,2.9-0.4,4.1-1.1c3.2-1.9,3.9-6.2,5.7-9.4c2.4-4.5,7.4-7.4,12.4-7.4"/>
			</g>
			<g id="XMLID_585_">
				<g>
					<path class="st58" d="M15.7,301.4c0.2-4.1,0.7-8.2,3.5-11.4c3.3-3.8,8-5.1,12.8-5.2c0.1,0,0.1-0.1,0-0.2
						c-4.7-0.7-9.7,1.4-12.9,4.9c-3,3.3-3.6,7.7-3.7,12C15.5,301.6,15.7,301.6,15.7,301.4L15.7,301.4z"/>
				</g>
			</g>
			<g id="XMLID_584_">
				<path class="st53" d="M13.5,288.4c7-1.3,14.4,1.6,19.3,6.7c2.3,2.4,4.6,5.6,7.9,5.9c3.4,0.3,7.8,0.6,7.9-6.6
					c0.1-5.5-3.2-6.9-6.1-8.8c-2.9-1.9-6.4-2.6-9.8-2.9C28.6,282.5,18.9,282.8,13.5,288.4"/>
			</g>
			<g id="XMLID_572_">
				<g>
					<path class="st54" d="M21.6,283.8C33,284,42.4,291.7,47,301.8c3.9,8.5,5.1,18.1,6.1,27.3c0.9,9,1.1,18.1,1.6,27.2
						c0,0.2,0.3,0.2,0.3,0c0.1-14.3-0.8-29.2-3.9-43.2c-1.7-7.6-4.5-14.9-9.9-20.7c-5.1-5.5-11.9-8.8-19.5-8.8
						C21.5,283.5,21.5,283.8,21.6,283.8L21.6,283.8z"/>
				</g>
			</g>
			<g id="XMLID_660_">
				<g>
					<path class="st54" d="M37,316.1c4.6-0.5,9.4-0.1,13.3,2.7c3.7,2.6,6.2,6.6,7.6,10.9c2.8,8.3,3.6,17.2,2.4,25.9
						c0,0.1,0.2,0.2,0.2,0.1c1.8-8.9,0.6-19.3-2.9-27.7c-1.6-3.8-4.1-7.3-7.5-9.6c-3.9-2.6-8.6-3-13.2-2.3
						C36.9,316,36.9,316.1,37,316.1L37,316.1z"/>
				</g>
			</g>
			<g id="XMLID_466_">
				<g>
					<path class="st54" d="M99.6,248.7c-6,3.3-10.1,9.5-13.2,15.4c-3.4,6.4-5.7,13.4-7.3,20.5c-3.8,16.3-5.3,33.3-5.9,50
						c-0.4,10-0.5,20,0.2,29.9c0,0.1,0.2,0.1,0.2,0c-0.4-16.6-0.3-33.2,1.3-49.8c1.5-15.3,3.4-31.3,9.5-45.6
						C87.5,261.6,92.3,253,99.6,248.7C99.7,248.8,99.7,248.7,99.6,248.7L99.6,248.7z"/>
				</g>
			</g>
			<path id="XMLID_7_" class="st57" d="M43.4,351.8v8.3c0,32.8,11.5,42.1,11.5,42.1h25.3c0,0,11.5-9.3,11.5-42.1v-8.3H43.4z"/>
		</g>
	</g>
	<line class="st59" x1="32.1" y1="403" x2="575" y2="403"/>
	<g>
		<g>
			<path class="st60" d="M411.2,155l1.2,7.5c0,0,0.2,4.6,5.3,4c5.4-0.6,9.9-5.9,9.9-5.9l-4.8-13.5"/>
			<path class="st60" d="M409.3,136.8c-3.3,3.6-7.8,18.1-1.6,20.6c5.6,2.3,13.6,0.1,15.7-8.4C425.6,140,417.9,127.4,409.3,136.8z"/>
			<path class="st61" d="M411.9,158.5c0,0,4.8,0.5,8.5-3.2"/>
			<g>
				<g>
					<polygon class="st62" points="422.7,148 422.7,148 422.7,148 					"/>
				</g>
			</g>
			<g>
				<g>
					<path class="st62" d="M422.7,148C422.7,148,422.7,148,422.7,148C422.7,148.1,422.7,148.1,422.7,148
						C422.7,148,422.8,148,422.7,148C422.8,148,422.7,148,422.7,148L422.7,148z"/>
				</g>
			</g>
			<path class="st61" d="M409.8,145.6c0,0-2,2.8-1.8,3.5c0.3,0.9,1.8,0.7,1.8,0.7"/>
			<path class="st63" d="M413.4,146.5c-0.1,0.3,0.1,0.6,0.3,0.7c0.2,0.1,0.5-0.2,0.6-0.5c0.1-0.3-0.1-0.6-0.3-0.7
				C413.7,146,413.5,146.2,413.4,146.5z"/>
			<path class="st63" d="M406.8,144.3c-0.1,0.3,0.1,0.6,0.3,0.7c0.2,0.1,0.5-0.2,0.5-0.5c0.1-0.3-0.1-0.6-0.3-0.7
				C407.2,143.7,406.9,144,406.8,144.3z"/>
			<path class="st3" d="M410.6,152l-4-1.1c0,0-0.5,2.8,1.3,3.4C410.1,155,410.6,152,410.6,152z"/>
			<path class="st35" d="M420.7,150.4c-4.6-4.6-2.9-8.5-2.9-8.5s-10.4-0.3-14.1-4.1c0,0,2.7-8.3,10-5.2c4.2-2.1,10.7,0,13.4,4.3
				c4.2,6.8,0,14.4-2.5,15.8"/>
			<g>
				<path class="st35" d="M423.4,136c-0.7-1.2-0.1-3.1,0.6-4c1.2-1.6,3.5-2.2,5.3-1.3c1.8,0.9,2.8,3.1,2.3,5
					c-0.5,1.9-2.3,3.4-4.3,3.5c-0.8,0-1.7-0.2-2-0.9"/>
			</g>
			<g>
				<path class="st60" d="M418.7,148c0-0.3,0.3-1.1,1.2-1.5c1.5-0.6,2.5,1.5,2.3,3.1c-0.1,1-0.4,1.8-1.1,2.6c-0.9,1-2,1.3-2.6,0"/>
			</g>
			<path class="st64" d="M413.4,143.8c2.5-0.2,2.9,2.3,2.9,2.3"/>
			<path class="st64" d="M406.8,142.3c1.4-0.6,2.7,0.4,2.7,0.4"/>
		</g>
		<g>
			<g>
				<path class="st60" d="M425,274.2L414,389.7l-8.4,9.5c0,0,28.9-1.2,29.8-2.2c1-1-0.4-7.6-0.4-7.6L454.5,273L425,274.2z"/>
				<path class="st35" d="M430.8,396.9l5.2-4.3l-0.6-2.3l-7.6,6.6l-3.2,0l-13.1-5.6l-14.1,7.8c-1.4,0.9-0.8,3.1,0.9,3.1l20.1-0.1
					l5.3-3.7l1.5,0l0,3.7L436,402l0-5.1L430.8,396.9z"/>
			</g>
			<g>
				<path class="st60" d="M458.5,274.2l5.2,115.5l-8.4,9.5c0,0,28.9-1.2,29.8-2.2c1-1-0.4-7.6-0.4-7.6L488,273L458.5,274.2z"/>
				<path class="st35" d="M480.4,396.9l5.2-4.3l-0.6-2.3l-7.6,6.6l-3.2,0l-13.1-5.6l-14.1,7.8c-1.4,0.9-0.8,3.1,0.9,3.1l20.1-0.1
					l5.3-3.7l1.5,0l0,3.7l10.8-0.1l0-5.1L480.4,396.9z"/>
			</g>
			<path class="st48" d="M470.2,216.2c3.9,2.7,7.8,6.2,11.5,12.2c12.1,19.2,8.8,65.8,8.8,65.8H416c0,0,7.3-59.5,11.9-72.8"/>
			<path class="st65" d="M455.2,209.3c0,0,14,10.4,22.5,23.5c9.8,15.3,9.1,61.5,9.1,61.5"/>
			<path class="st65" d="M453.4,224c9.6,8.5,17.6,0,17.6,0"/>
		</g>
		<g>
			<path class="st60" d="M403.6,196.5c0,0-17.4,21.6-27.2,19.1c-9.8-2.5-24.6-35.1-24.6-35.1l11.5-5c0,0,13,17,14.9,17.1
				c1.9,0.1,14.3-13.6,14.3-13.6"/>
			<g>
				<path class="st60" d="M366.3,179.3c0,0-9.8-14.4-10.6-14.4c-0.7,0,0.5,2.6-0.1,2.5c-0.6-0.1-3.5-5.8-4.2-5.7
					c-1,0.3,1.8,5.4,1.8,5.4s-0.8-1-1.6-0.5c-0.6,0.3-0.1,1.9-0.1,1.9s-0.9-0.6-1.4-0.2c-0.6,0.4-0.1,1.7-0.1,1.7s-0.8-1.1-1.5-0.3
					c-0.6,0.8,1.9,8.4,6.4,16.9"/>
			</g>
			<path class="st61" d="M356.3,168.7c0,0,0.2,2.7,0.8,5"/>
			<g>
				<path class="st66" d="M348.6,171.4c0.4,0.6,0.8,1.3,1.3,1.9c0.2,0.3,0.5,0.6,0.7,0.9c0.1,0.1,0.3,0.3,0.4,0.4
					c0.1,0.1,0.3,0.1,0.3,0.1c0.1-0.2,0-0.6-0.1-1c-0.1-0.4-0.2-0.7-0.4-1.1c-0.3-0.7-0.6-1.4-0.9-2.1l0.4-0.2
					c0.4,0.8,0.8,1.5,1.3,2.2c0.2,0.4,0.5,0.7,0.7,1c0.1,0.2,0.3,0.3,0.4,0.4c0.1,0,0.1,0,0.1,0c0,0,0,0,0-0.1
					c0-0.7-0.2-1.6-0.5-2.4c-0.2-0.8-0.5-1.6-0.8-2.4l0.4-0.2c0.3,0.8,0.7,1.6,1.1,2.4c0.2,0.4,0.4,0.8,0.7,1.1
					c0.2,0.3,0.7,0.8,0.7,0.4c0.1-0.4,0-0.8-0.1-1.2c-0.1-0.4-0.2-0.9-0.3-1.3c-0.2-0.9-0.5-1.7-0.7-2.5c0.3,0.8,0.6,1.6,0.9,2.5
					c0.2,0.9,0.6,1.7,0.5,2.6c0,0.1-0.1,0.3-0.3,0.4c-0.2,0-0.3-0.1-0.4-0.1c-0.2-0.2-0.3-0.3-0.5-0.5c-0.3-0.4-0.5-0.7-0.7-1.1
					c-0.5-0.8-0.8-1.6-1.2-2.4l0.4-0.2c0.3,0.8,0.6,1.6,0.9,2.5c0.1,0.4,0.2,0.8,0.4,1.3c0.1,0.4,0.2,0.8,0.1,1.4
					c0,0.1,0,0.3-0.3,0.5c-0.2,0.1-0.4,0-0.5-0.1c-0.2-0.1-0.4-0.3-0.5-0.5c-0.3-0.3-0.5-0.7-0.8-1.1c-0.5-0.7-0.9-1.5-1.3-2.3
					l0.4-0.2c0.3,0.7,0.6,1.4,0.8,2.1c0.1,0.4,0.2,0.7,0.3,1.1c0,0.2,0.1,0.4,0.1,0.6c0,0.2,0.1,0.4-0.1,0.7c-0.3,0.2-0.6,0-0.7-0.1
					c-0.2-0.1-0.3-0.3-0.4-0.4c-0.3-0.3-0.5-0.6-0.7-0.9C349.3,172.8,348.9,172.1,348.6,171.4z"/>
			</g>
			<path class="st67" d="M412.5,161.3c-11.7,0-26.2,21.9-26.2,21.9l17.9,16.7l25-26.4"/>
			<path class="st67" d="M429.1,159c0,0,10.3-0.5,17,4.1c12.3,8.6,24.1,53.1,24.1,53.1c-12.4,12.9-43.2,17.8-43.2,17.8
				s-9.6-17.4-16.8-24.6c-7.2-7.2-9.2-14.1-6.3-28.9L429.1,159z"/>
			<path class="st3" d="M425.7,155.7l-8.1,9.4l5,5.4c0,0,3.5-6.1,6.4-11.5L425.7,155.7z"/>
			<path class="st3" d="M417.6,165.1l-4.7,5.3c0,0-2.6-4.4-3.1-8.8l2.2-1.4L417.6,165.1z"/>
			<path class="st68" d="M403.1,198.6c-1.5-6.4,1.1-17.6,1.1-17.6"/>
			<g>
				<path class="st60" d="M447.3,197.9c-10.3,38.9-24.8,63.4-24.8,63.4l-12.6-5.5c12.7-40,16.2-63.1,16.2-63.1"/>
				<path class="st67" d="M427.4,175.4l-4.2,19.9l25.3,4.5c0,0,2.6-9,3.7-17.2"/>
				<line class="st68" x1="448.1" y1="199.9" x2="451.4" y2="186.7"/>
				<line class="st68" x1="423.1" y1="195.4" x2="425.8" y2="181.8"/>
				<path class="st60" d="M429.2,248.3c0,0-6.2,15.3-8.8,15.3c-2.6,0-25.5,0.2-32.1,0.2c0.1-1.2,5.6-3.6,10.3-5
					c2.8-0.9,11.5-3,11.5-3l4.9-16"/>
			</g>
		</g>
	</g>
</g>
</svg>
