<?xml version="1.0" encoding="utf-8"?>
<!-- Generator: Adobe Illustrator 23.0.0, SVG Export Plug-In . SVG Version: 6.00 Build 0)  -->
<svg version="1.1" id="Layer_1" xmlns="http://www.w3.org/2000/svg" xmlns:xlink="http://www.w3.org/1999/xlink" x="0px" y="0px"
	 viewBox="0 0 869.8 707.8" style="enable-background:new 0 0 869.8 707.8;" xml:space="preserve">
<style type="text/css">
	.st0{opacity:0.35;fill:#074399;}
	.st1{fill:url(#SVGID_1_);}
	.st2{fill:url(#SVGID_2_);}
	.st3{fill:url(#SVGID_3_);}
	.st4{opacity:0.56;fill:#268F91;}
	.st5{fill:url(#SVGID_4_);}
	.st6{fill:url(#SVGID_5_);}
	.st7{fill:url(#SVGID_6_);}
	.st8{fill:url(#SVGID_7_);}
	.st9{opacity:0.41;fill:#208B8E;}
	.st10{fill:url(#SVGID_8_);}
	.st11{opacity:0.33;fill:#E58500;}
	.st12{fill:url(#SVGID_9_);}
	.st13{fill:#FFFFFF;}
	.st14{fill:url(#SVGID_10_);}
	.st15{fill:url(#SVGID_11_);}
	.st16{fill:url(#SVGID_12_);}
	.st17{fill:url(#SVGID_13_);}
	.st18{fill:url(#SVGID_14_);}
	.st19{fill:url(#SVGID_15_);}
	.st20{fill:url(#SVGID_16_);}
	.st21{fill:url(#SVGID_17_);}
	.st22{fill:url(#SVGID_18_);}
	.st23{fill:url(#SVGID_19_);}
	.st24{fill:url(#SVGID_20_);}
	.st25{fill:url(#SVGID_21_);}
	.st26{fill:url(#SVGID_22_);}
	.st27{fill:url(#SVGID_23_);}
	.st28{fill:url(#SVGID_24_);}
	.st29{fill:url(#SVGID_25_);}
	.st30{fill:url(#SVGID_26_);}
	.st31{fill:url(#SVGID_27_);}
	.st32{fill:url(#SVGID_28_);}
	.st33{fill:url(#SVGID_29_);}
	.st34{fill:url(#SVGID_30_);}
	.st35{fill:url(#SVGID_31_);}
	.st36{fill:url(#SVGID_32_);}
	.st37{opacity:0.1;}
	.st38{fill:url(#SVGID_33_);}
	.st39{fill:url(#SVGID_34_);}
	.st40{fill:url(#SVGID_35_);}
	.st41{fill:url(#SVGID_36_);}
	.st42{fill:url(#SVGID_37_);}
	.st43{fill:url(#SVGID_38_);}
	.st44{fill:url(#SVGID_39_);}
	.st45{fill:url(#SVGID_40_);}
	.st46{fill:url(#SVGID_41_);}
	.st47{fill:url(#SVGID_42_);}
	.st48{fill:url(#SVGID_43_);}
	.st49{fill:url(#SVGID_44_);}
	.st50{fill:url(#SVGID_45_);}
	.st51{fill:url(#SVGID_46_);}
	.st52{fill:#FCAF00;}
	.st53{fill:url(#SVGID_47_);}
	.st54{opacity:0.38;fill:#0B2442;}
	.st55{fill:#268F91;}
	.st56{fill:url(#SVGID_48_);}
	.st57{fill:url(#SVGID_49_);}
	.st58{fill:url(#SVGID_50_);}
	.st59{fill:url(#SVGID_51_);}
	.st60{fill:url(#SVGID_52_);}
	.st61{fill:url(#SVGID_53_);}
	.st62{fill:url(#SVGID_54_);}
	.st63{fill-rule:evenodd;clip-rule:evenodd;fill:#1D99EE;}
	.st64{fill:#FF0062;}
	.st65{fill:#1677F0;}
</style>
<g>
	<ellipse class="st0" cx="482" cy="654.7" rx="353.6" ry="28.3"/>
	<g>
		<g>
			<g>
				<linearGradient id="SVGID_1_" gradientUnits="userSpaceOnUse" x1="689.4069" y1="563.8524" x2="672.937" y2="363.1248">
					<stop  offset="0" style="stop-color:#FCAF00"/>
					<stop  offset="1" style="stop-color:#F9DB00"/>
				</linearGradient>
				<path class="st1" d="M626.2,511.2c-2.1-6-4.1-12.4-2.6-18.6c1.5-6.2,8.2-11.5,14.1-9.1c4.3,1.8,6.4,6.6,9,10.5
					c2.6,3.9,7.9,7.2,11.7,4.5c4.5-3.2,1.5-10.2-1.5-14.9c-7.7-11.8-13.4-24.8-16.7-38.4c-1.5-6-2.5-12.6,0.3-18.1
					c2.8-5.5,10.7-8.7,15.4-4.6c4,3.6,4.5,11.1,9.7,12.2c3.3,0.7,6.6-2.2,7.5-5.5c1-3.3,0.3-6.8-0.4-10.1
					c-2.7-12.9-5.2-26.6-0.4-38.8c4.8-12.2,19.9-21.3,31.4-15c8.5,4.6,11.5,17,6.1,25c5.6-5.5,16-3.2,20.4,3.3
					c4.5,6.5,3.9,15.3,0.8,22.5c-3.1,7.2-8.5,13.1-13.6,19.1c-2.9,3.4-5.8,7-6.4,11.4c-0.6,4.4,2.3,9.5,6.7,9.6
					c2.4,0.1,4.6-1.3,6.9-1.9c6.5-1.7,13.5,3,16.2,9.1c2.8,6.2,2.2,13.3,0.7,19.9c-3.6,15.2-12.2,29.2-24.2,39.2
					c-2.4,2-5.1,4-6.6,6.8c-1.5,2.8-1.2,6.8,1.4,8.6c1.8,1.2,4.2,1.1,6,2.2c4.8,3,1.3,10.4-2.4,14.7l0,0
					c-10.9,12.4-21.7,24.8-32.6,37.2c-7.9,9-18.7,27-26,9.2C645.2,572,636.6,541,626.2,511.2z"/>
			</g>
			<linearGradient id="SVGID_2_" gradientUnits="userSpaceOnUse" x1="640.4161" y1="501.384" x2="710.088" y2="501.384">
				<stop  offset="0" style="stop-color:#FCAF00"/>
				<stop  offset="1" style="stop-color:#E58500"/>
			</linearGradient>
			<path class="st2" d="M660.4,620c1.9-8.6,3.6-17,5.2-25.2c0.3-1.6,0.6-3.2,0.9-4.9l0.4-2.2c0,0-16.3-53.7-26.5-79.5
				c-0.1-0.2,0-0.3,0.2-0.4c0.1-0.1,0.3-0.1,0.4,0c0.1,0,0.2,0.1,0.2,0.2c9.9,24.8,18.5,50.5,25.7,76.3l0.6,2.3l0.2-2.4
				c6.1-32.1,11-64.8,14.6-97.3l0-0.2l-0.1-0.1l-23-35.7c-0.1-0.1-0.1-0.2-0.1-0.3c0-0.1,0.1-0.2,0.2-0.3c0.1-0.1,0.3-0.1,0.4,0.1
				l22.6,35.2l0.1-1.2c3.7-33.7,6.1-67.9,7.2-101.5c0-0.2,0.1-0.3,0.2-0.4c0.1-0.1,0.3-0.1,0.4,0c0,0,0.1,0.1,0.1,0.2
				c-0.5,15.2-1.2,30.5-2.2,45.6l0.8,0.2c5.2-8.8,11.6-16.8,18.9-23.9c0,0,0.1-0.1,0.1-0.1c0.2-0.1,0.4,0,0.5,0.2
				c0.1,0.2,0,0.3,0,0.4c-8.1,7.9-15,16.8-20.5,26.6l0,0.1l0,0.1c-0.2,3.4-0.5,6.8-0.7,10.2c-3.2,40.9-8.4,82.4-15.5,123.2l-1.3,5.6
				l2.1-5.4c9.8-25.9,22.1-50.9,36.7-74.3c0-0.1,0.1-0.1,0.2-0.2c0.2-0.1,0.4,0,0.5,0.1c0.1,0.1,0.1,0.2,0,0.3
				c-16,25.7-29.3,53.2-39.5,81.7c0,0.1-6.1,31.2-9.4,46.7L660.4,620z"/>
		</g>
		<g>
			<g>
				<linearGradient id="SVGID_3_" gradientUnits="userSpaceOnUse" x1="661.5645" y1="611.9985" x2="895.2316" y2="361.8618">
					<stop  offset="3.643770e-02" style="stop-color:#48CBFF"/>
					<stop  offset="1" style="stop-color:#76FEFF"/>
				</linearGradient>
				<path class="st3" d="M665.5,516.4c2.1-7.2,4.5-14.8,10.2-19.6c5.7-4.9,15.8-5.4,19.8,0.9c3,4.7,1.6,10.7,1.4,16.2
					c-0.1,5.5,2.7,12.4,8.2,12.4c6.5,0,8.4-8.8,8.7-15.3c0.7-16.5,4.2-33,10.3-48.4c2.7-6.8,6.3-13.8,12.7-17.2
					c6.4-3.4,16.3-1,17.9,6.1c1.4,6.2-3.4,13.7,1,18.4c2.7,2.9,7.8,2.4,11-0.1c3.2-2.5,4.9-6.3,6.5-10c6.2-14.2,13.2-29.1,26.2-37.5
					c13-8.5,33.7-6.8,40.4,7.1c4.9,10.3-0.6,24.2-11.3,28.2c9.1-1.4,17.5,7.9,17.3,17.2c-0.1,9.3-6.7,17.4-14.7,22.1
					c-7.9,4.7-17.2,6.7-26.2,9c-5.1,1.3-10.4,2.8-13.9,6.6c-3.5,3.8-4.3,10.7-0.2,13.9c2.3,1.7,5.3,1.9,7.9,3
					c7.4,2.9,10.9,12.1,9.3,19.9c-1.6,7.8-7,14.3-13,19.5c-13.9,12.2-31.7,19.7-50.1,21.1c-3.7,0.3-7.6,0.3-11,2.1
					c-3.3,1.7-5.9,5.7-4.5,9.2c0.9,2.4,3.3,3.9,4.2,6.2c2.5,6.2-5.8,10.9-12.3,12.4l0,0c-18.9,4.4-37.9,8.9-56.8,13.3
					c-13.7,3.2-36.5,13-31.3-9C642,587.7,655,552.1,665.5,516.4z"/>
			</g>
			<path class="st4" d="M623.7,644.2c7.7-6.9,15.2-13.9,22.3-20.6c1.4-1.3,2.8-2.7,4.2-4l1.9-1.8c0,0,21.2-62.6,29-94.5
				c0.1-0.2,0.2-0.3,0.4-0.3c0.1,0,0.3,0.1,0.4,0.2c0.1,0.1,0.1,0.2,0,0.3c-7.5,30.5-16.8,61.1-27.7,90.8l-1,2.6l1.9-2.1
				c27.8-26.6,54.9-54.6,80.7-83.3l0.1-0.2l0-0.2l2.4-50.1c0-0.1,0.1-0.2,0.1-0.3c0.1-0.1,0.3-0.1,0.4-0.1c0.2,0,0.3,0.1,0.3,0.4
				l-2.4,49.2l0.9-1.1c26.7-29.8,52.4-60.9,76.5-92.5c0.2-0.2,0.3-0.2,0.5-0.2c0.2,0,0.3,0.2,0.4,0.3c0,0,0,0.1-0.1,0.3
				c-10.9,14.2-22.1,28.4-33.4,42.2l0.6,0.8c11.1-4.8,22.7-8.2,34.5-10c0.1,0,0.1,0,0.2,0c0.2,0,0.4,0.3,0.4,0.5
				c0,0.2-0.2,0.3-0.3,0.3c-13.2,2-25.9,5.9-37.9,11.5l-0.1,0l-0.1,0.1c-2.6,3.1-5.1,6.2-7.7,9.3c-31.1,37.1-64.5,73.3-99.3,107.6
				l-5.1,4.5l5.7-3.7c27.1-18.1,56.1-33.6,86.2-46.1c0.1,0,0.2-0.1,0.3,0c0.2,0,0.4,0.3,0.4,0.5c0,0.1,0,0.2-0.2,0.3
				c-33,13.7-64.6,31-93.9,51.4c-0.1,0-27.2,25.8-41.1,38.3L623.7,644.2z"/>
		</g>
	</g>
	<g>
		<g>
			<linearGradient id="SVGID_4_" gradientUnits="userSpaceOnUse" x1="180.5521" y1="474.8012" x2="222.997" y2="474.8012">
				<stop  offset="3.643770e-02" style="stop-color:#48CBFF"/>
				<stop  offset="1" style="stop-color:#76FEFF"/>
			</linearGradient>
			<path class="st5" d="M218.7,580.9h3.7c-1.8-12.3-8.2-31.8-16-60.3c-11.4-41.9,26.7-62.1,13.3-105.5
				c-13.3-43.4-34.3-51.4-31.2-43.8c3,7.6,0.8,55.6-6.5,94.1c-7.2,38.5,12.2,46.9,28.6,90.7C215,567.6,217.5,575.5,218.7,580.9z"/>
			<linearGradient id="SVGID_5_" gradientUnits="userSpaceOnUse" x1="220.8467" y1="489.5257" x2="289.6382" y2="489.5257">
				<stop  offset="3.643770e-02" style="stop-color:#48CBFF"/>
				<stop  offset="1" style="stop-color:#76FEFF"/>
			</linearGradient>
			<path class="st6" d="M231.1,580.9c-2.2-4.5-6.2-15-6.2-30.9c0-21.8,12.6-21.2,44.2-47.4c31.6-26.2,18-79.2,15.5-89.3
				c-2.5-10.1-11-15.2-11-15.2c0.3,11-11.7,51.5-38.8,101.7c-23.3,43.1-11,73.3-7.1,81.1H231.1z"/>
			
				<linearGradient id="SVGID_6_" gradientUnits="userSpaceOnUse" x1="128.1376" y1="481.2549" x2="197.8602" y2="481.2549" gradientTransform="matrix(0.9923 -0.1238 0.1238 0.9923 -52.0274 57.9877)">
				<stop  offset="3.643770e-02" style="stop-color:#48CBFF"/>
				<stop  offset="1" style="stop-color:#76FEFF"/>
			</linearGradient>
			<path class="st7" d="M210.1,580.9h2.5c-0.6-4.8-3.6-12.3-13-23.9c-23-28.3-29-37.1-36-67.6c-7-30.5-29.7-40.6-29.7-40.6
				s-12.5,36.4,6.5,66.6s43.1,34.6,56.1,45.5C207.9,570.4,210,576.1,210.1,580.9z"/>
			<linearGradient id="SVGID_7_" gradientUnits="userSpaceOnUse" x1="229.5317" y1="537.126" x2="297.7468" y2="537.126">
				<stop  offset="3.643770e-02" style="stop-color:#48CBFF"/>
				<stop  offset="1" style="stop-color:#76FEFF"/>
			</linearGradient>
			<path class="st8" d="M292.1,493.4c-1.2,3.5-28.2,37.9-50.9,54.7c-17,12.6-11.6,26.6-7.8,32.8h2.5c-3.1-5.6-3.5-11.2-3-13.8
				c2.3-10.6,24.2-2.2,47.4-15.5C310.7,534.2,292.1,493.4,292.1,493.4z"/>
		</g>
		<path class="st9" d="M219.8,415.1c-10.7-34.9-26.3-46.9-30.5-46.3c7.6,10.6,23.6,44.5,22.5,66.8c-1.2,24.6-17.6,43-11.4,75.7
			c6.2,32.8,22,69.6,22,69.6c-1.8-12.3-8.2-31.8-16-60.3C195.1,478.7,233.2,458.5,219.8,415.1z"/>
		<path class="st9" d="M274.7,477.3c-13.4,20.9-18.4,26.7-34.3,40.1c-15.9,13.4-24.8,29.3-11.7,58.6c0.4,0.8,0.8,1.6,1.2,2.2
			c-2.2-5.4-5-14.9-5-28.3c0-21.8,12.6-21.2,44.2-47.4c31.6-26.2,18-79.2,15.5-89.3c-2.5-10.1-11-15.2-11-15.2
			S288.1,456.5,274.7,477.3z"/>
		<linearGradient id="SVGID_8_" gradientUnits="userSpaceOnUse" x1="185.4626" y1="612.0522" x2="259.5952" y2="612.0522">
			<stop  offset="0" style="stop-color:#FCAF00"/>
			<stop  offset="1" style="stop-color:#E58500"/>
		</linearGradient>
		<polygon class="st10" points="185.5,577.3 192.9,646.8 252.2,646.8 259.6,577.3 		"/>
		<polygon class="st11" points="242.7,577.3 235.3,646.8 252.2,646.8 259.6,577.3 		"/>
	</g>
	<g>
		
			<linearGradient id="SVGID_9_" gradientUnits="userSpaceOnUse" x1="690.7046" y1="202.2938" x2="760.8472" y2="202.2938" gradientTransform="matrix(0.876 -0.4823 0.4823 0.876 -125.2247 256.7307)">
			<stop  offset="0" style="stop-color:#FF7B7B"/>
			<stop  offset="1" style="stop-color:#F95858"/>
		</linearGradient>
		<circle class="st12" cx="608.1" cy="83.9" r="35.1"/>
		<path class="st13" d="M618.1,64.9c-6.2-1.9-12.9,2-14.7,8.2l-0.2,0.5l-0.9-0.3c-3.1-0.9-6.2-0.4-8.8,1c-2.6,1.4-4.7,3.8-5.6,6.9
			c-1.8,6.2,1.8,12.6,7.9,14.4l0.9,0.3l19.3,5.6c1.7,0.5,3.4-0.5,3.9-2.1l5.6-19.3l0.3-0.9c0.9-3.1,0.4-6.2-1-8.8
			C623.5,67.9,621.1,65.9,618.1,64.9z"/>
	</g>
	<g>
		<linearGradient id="SVGID_10_" gradientUnits="userSpaceOnUse" x1="606.8446" y1="239.0173" x2="491.5545" y2="141.7413">
			<stop  offset="3.643770e-02" style="stop-color:#48CBFF"/>
			<stop  offset="1" style="stop-color:#76FEFF"/>
		</linearGradient>
		<path class="st14" d="M593.1,154.2h-94.4c-5.9,0-10.7,4.8-10.7,10.7v45.4c0,5.9,4.8,10.7,10.7,10.7h30c2.5,0,4.8,1.3,6.1,3.4
			l8.8,9.3c1,1.7,3.5,1.7,4.5,0l9.2-9.4c1.3-2.1,3.6-3.3,6.1-3.3h29.6c5.9,0,10.7-4.8,10.7-10.7v-45.4
			C603.8,159,599,154.2,593.1,154.2z"/>
		<linearGradient id="SVGID_11_" gradientUnits="userSpaceOnUse" x1="512.8484" y1="171.062" x2="582.9849" y2="171.062">
			<stop  offset="0" style="stop-color:#19487F"/>
			<stop  offset="1" style="stop-color:#0E274C"/>
		</linearGradient>
		<path class="st15" d="M514.5,172.8c-0.9,0-1.7-0.8-1.7-1.7c0-0.9,0.8-1.7,1.7-1.7h66.8c0.9,0,1.7,0.8,1.7,1.7
			c0,0.9-0.8,1.7-1.7,1.7H514.5z"/>
		<linearGradient id="SVGID_12_" gradientUnits="userSpaceOnUse" x1="512.8484" y1="188.7657" x2="582.9849" y2="188.7657">
			<stop  offset="0" style="stop-color:#19487F"/>
			<stop  offset="1" style="stop-color:#0E274C"/>
		</linearGradient>
		<path class="st16" d="M514.5,190.5c-0.9,0-1.7-0.8-1.7-1.7c0-0.9,0.8-1.7,1.7-1.7h66.8c0.9,0,1.7,0.8,1.7,1.7
			c0,0.9-0.8,1.7-1.7,1.7H514.5z"/>
		<linearGradient id="SVGID_13_" gradientUnits="userSpaceOnUse" x1="512.8484" y1="205.9726" x2="549.3143" y2="205.9726">
			<stop  offset="0" style="stop-color:#19487F"/>
			<stop  offset="1" style="stop-color:#0E274C"/>
		</linearGradient>
		<path class="st17" d="M514.5,207.7c-0.9,0-1.7-0.8-1.7-1.7c0-0.9,0.8-1.7,1.7-1.7h33.1c0.9,0,1.7,0.8,1.7,1.7
			c0,0.9-0.8,1.7-1.7,1.7H514.5z"/>
	</g>
	<g>
		<linearGradient id="SVGID_14_" gradientUnits="userSpaceOnUse" x1="604.067" y1="284.8313" x2="710.5328" y2="284.8313">
			<stop  offset="0" style="stop-color:#FF7B7B"/>
			<stop  offset="1" style="stop-color:#F95858"/>
		</linearGradient>
		<path class="st18" d="M681.1,273.2v-6.6c0-6.8-5.6-12.4-12.4-12.4h-52.3c-6.8,0-12.4,5.6-12.4,12.4v36.5c0,6.8,5.6,12.4,12.4,12.4
			h52.3c6.8,0,12.4-5.6,12.4-12.4v-6.6l23.3,8.9v-41.1L681.1,273.2z"/>
		<linearGradient id="SVGID_15_" gradientUnits="userSpaceOnUse" x1="631.2936" y1="284.6497" x2="654.4893" y2="284.6497">
			<stop  offset="0" style="stop-color:#F4F4F4"/>
			<stop  offset="0.6269" style="stop-color:#F9F9F9"/>
			<stop  offset="1" style="stop-color:#FFFFFF"/>
		</linearGradient>
		<path class="st19" d="M652.4,286L634,298.7c-1.1,0.8-2.7,0-2.7-1.4V272c0-1.4,1.5-2.2,2.7-1.4l18.5,12.7
			C653.4,283.9,653.4,285.4,652.4,286z"/>
	</g>
	<g>
		
			<linearGradient id="SVGID_16_" gradientUnits="userSpaceOnUse" x1="836.7999" y1="398.9204" x2="746.533" y2="308.6536" gradientTransform="matrix(0.927 -0.3751 0.3751 0.927 -89.5696 288.1905)">
			<stop  offset="3.643770e-02" style="stop-color:#48CBFF"/>
			<stop  offset="1" style="stop-color:#76FEFF"/>
		</linearGradient>
		<path class="st20" d="M816,295.1l-2.4,1c-2,0.8-4.4,0.3-5.8-1.4c-1.4-1.6-2.9-3-4.5-4.4c-1.8-1.5-2.4-3.9-1.5-6.1l0.9-2.2
			c1.3-3,0-6-2.6-7.1l-5.7-2.4c-2.6-1.1-5.7,0.1-6.8,2.7l-1.3,3.2c-0.9,2.1-3,3.3-5.2,3.1c-1.9-0.1-3.8-0.1-5.7,0
			c-2.3,0.2-4.4-1.1-5.2-3.2l-1.1-2.8c-1.2-3.1-4.3-4.3-6.9-3.3l-5.8,2.3c-2.7,1.1-3.9,4.1-2.9,6.7l1.3,3.2c0.9,2.1,0.2,4.5-1.5,6
			c-1.5,1.2-2.8,2.5-4.1,4c-1.5,1.7-3.8,2.2-5.9,1.4l-2.8-1.2c-3-1.3-6.1-0.1-7.2,2.6l-2.4,5.7c-1.1,2.6,0.1,5.7,2.7,6.8l2.5,1.1
			c2.1,0.9,3.4,3.1,3.1,5.4c-0.2,2.1-0.3,4.2-0.2,6.3c0.1,2.2-1.2,4.2-3.2,5.1l-2.4,1c-2.7,1.1-3.9,4.1-2.9,6.7l2.3,5.8
			c1.1,2.7,4.1,3.9,6.7,2.9l1.5-0.6c2.2-0.9,4.6-0.2,6,1.7c1.5,1.9,3.1,3.6,4.8,5.2c1.6,1.5,2.2,3.8,1.3,5.9l-0.5,1.1
			c-1.2,2.8,0,5.9,2.7,7l5.7,2.4c2.6,1.1,5.7-0.1,6.8-2.7l0.3-0.7c0.9-2.1,3.1-3.4,5.4-3.1c2.6,0.3,5.2,0.4,7.8,0.1
			c2.2-0.2,4.2,1.1,5,3.1l0.2,0.6c1.1,2.8,4.1,4,6.8,3l5.8-2.3c2.7-1.1,3.9-4.1,2.9-6.7l-0.2-0.6c-0.8-2.1-0.2-4.5,1.5-5.9
			c2-1.7,3.8-3.5,5.5-5.5c1.4-1.8,3.9-2.4,6-1.5l0.6,0.3c2.7,1.2,5.8-0.1,6.9-2.7l2.4-5.7c1.1-2.6-0.1-5.7-2.7-6.8l-1.3-0.5
			c-2-0.9-3.3-2.9-3.1-5.1c0.2-2.3,0.1-4.7-0.1-7.1c-0.3-2.3,1-4.5,3.2-5.4l1.5-0.6c2.7-1.1,3.9-4.1,2.9-6.7l-2.3-5.8
			C821.7,295.3,818.7,294.1,816,295.1z M783.8,334.3c-8.1,3.3-17.4-0.6-20.7-8.8c-3.3-8.1,0.6-17.4,8.8-20.7
			c8.1-3.3,17.4,0.6,20.7,8.8C795.9,321.7,791.9,331,783.8,334.3z"/>
		
			<linearGradient id="SVGID_17_" gradientUnits="userSpaceOnUse" x1="863.2107" y1="306.1646" x2="823.5108" y2="247.73" gradientTransform="matrix(0.9058 -0.4237 0.4237 0.9058 -74.2036 333.1947)">
			<stop  offset="0" style="stop-color:#F4F4F4"/>
			<stop  offset="0.6269" style="stop-color:#F9F9F9"/>
			<stop  offset="1" style="stop-color:#FFFFFF"/>
		</linearGradient>
		<path class="st21" d="M826.7,207.2l-1.5,0.7c-1.3,0.6-2.8,0.3-3.8-0.7c-1-1-2-1.9-3.1-2.7c-1.2-0.9-1.7-2.4-1.2-3.9l0.5-1.5
			c0.7-2-0.2-3.9-1.9-4.5l-3.8-1.4c-1.7-0.6-3.7,0.3-4.3,2l-0.8,2.1c-0.5,1.4-1.8,2.2-3.2,2.2c-1.2,0-2.4,0-3.7,0.2
			c-1.5,0.2-2.9-0.6-3.5-1.9l-0.8-1.8c-0.9-1.9-2.9-2.7-4.6-1.9l-3.7,1.7c-1.7,0.8-2.4,2.8-1.6,4.5l1,2c0.6,1.3,0.3,2.9-0.8,3.9
			c-0.9,0.8-1.7,1.7-2.5,2.7c-0.9,1.1-2.4,1.6-3.8,1.1l-1.8-0.7c-2-0.7-3.9,0.2-4.6,1.9l-1.4,3.8c-0.6,1.7,0.3,3.7,2,4.3l1.7,0.6
			c1.4,0.5,2.3,1.9,2.2,3.4c-0.1,1.3-0.1,2.7,0.1,4c0.1,1.4-0.6,2.8-1.9,3.4l-1.5,0.7c-1.7,0.8-2.4,2.8-1.6,4.5l1.7,3.7
			c0.8,1.7,2.8,2.4,4.5,1.6l1-0.4c1.4-0.6,3-0.3,4,0.9c1,1.2,2.1,2.2,3.3,3.2c1.1,0.9,1.5,2.4,1.1,3.7l-0.3,0.7
			c-0.7,1.9,0.2,3.8,2,4.4l3.8,1.4c1.7,0.6,3.7-0.3,4.3-2l0.2-0.4c0.5-1.4,1.9-2.3,3.4-2.2c1.7,0.1,3.4,0.1,5.1-0.2
			c1.4-0.2,2.7,0.5,3.3,1.8l0.2,0.4c0.8,1.7,2.8,2.5,4.5,1.7l3.7-1.7c1.7-0.8,2.4-2.8,1.6-4.5l-0.2-0.3c-0.6-1.3-0.3-2.9,0.8-3.9
			c1.2-1.1,2.4-2.4,3.3-3.7c0.9-1.2,2.4-1.7,3.8-1.2l0.4,0.1c1.8,0.7,3.7-0.2,4.4-2l1.4-3.8c0.6-1.7-0.3-3.7-2-4.3l-0.8-0.3
			c-1.3-0.5-2.2-1.8-2.2-3.2c0-1.5-0.1-3-0.3-4.6c-0.2-1.5,0.5-3,1.9-3.6l1-0.4c1.7-0.8,2.4-2.8,1.6-4.5l-1.7-3.7
			C830.4,207.1,828.4,206.4,826.7,207.2z M807.2,233.5c-5.1,2.4-11.3,0.2-13.7-5c-2.4-5.1-0.2-11.3,5-13.7c5.1-2.4,11.3-0.2,13.7,5
			C814.6,225,812.4,231.1,807.2,233.5z"/>
	</g>
	<g>
		<linearGradient id="SVGID_18_" gradientUnits="userSpaceOnUse" x1="464.6763" y1="698.6652" x2="665.4047" y2="474.0042">
			<stop  offset="0" style="stop-color:#FCAF00"/>
			<stop  offset="1" style="stop-color:#E58500"/>
		</linearGradient>
		<polygon class="st22" points="480.7,520.3 651,520.3 651,650.6 480.7,650.6 		"/>
		<g>
			<g>
				
					<linearGradient id="SVGID_19_" gradientUnits="userSpaceOnUse" x1="479.4836" y1="724.1554" x2="532.2889" y2="724.1554" gradientTransform="matrix(-0.947 0.3214 0.3214 0.947 994.9693 -221.0467)">
					<stop  offset="0" style="stop-color:#FF7B7B"/>
					<stop  offset="1" style="stop-color:#F95858"/>
				</linearGradient>
				<path class="st23" d="M726.8,644.9l-4.5-13.2c0,0-3.3-5.7,4.3-5.3c7.6,0.5,11.9-4.8,13.7-6.3c1.8-1.5,29.7,3.3,34,4.3
					c0,0,0.1,0,0.1,0c2.2,0.5,2.3,3.6,0.2,4.4L726.8,644.9z"/>
				
					<linearGradient id="SVGID_20_" gradientUnits="userSpaceOnUse" x1="511.4585" y1="711.3495" x2="530.9816" y2="711.3495" gradientTransform="matrix(-0.947 0.3214 0.3214 0.947 994.9693 -221.0467)">
					<stop  offset="1.758850e-02" style="stop-color:#F4BD6C"/>
					<stop  offset="1" style="stop-color:#FFD49C"/>
				</linearGradient>
				<path class="st24" d="M722.2,627.5c0.6-0.8,2-1.3,4.4-1.1c7.6,0.5,11.9-4.8,13.6-6.4l-3.4-2.3l-1.4-5.8l-15.6,5.7
					C720.6,621,721.6,625,722.2,627.5z"/>
			</g>
			
				<linearGradient id="SVGID_21_" gradientUnits="userSpaceOnUse" x1="563.756" y1="628.1558" x2="583.2801" y2="628.1558" gradientTransform="matrix(-1 0 0 1 1200.6965 0)">
				<stop  offset="1.758850e-02" style="stop-color:#F4BD6C"/>
				<stop  offset="1" style="stop-color:#FFD49C"/>
			</linearGradient>
			<path class="st25" d="M617.4,632.6c0.9-0.5,2.3-0.6,4.6,0.4c7,2.9,12.8-0.7,15-1.6l-2.4-3.2l0.5-6l-16.7,0.4
				C618,626,617.6,630.1,617.4,632.6z"/>
			
				<linearGradient id="SVGID_22_" gradientUnits="userSpaceOnUse" x1="531.7791" y1="640.9619" x2="584.5877" y2="640.9619" gradientTransform="matrix(-1 0 0 1 1200.6965 0)">
				<stop  offset="0" style="stop-color:#FF7B7B"/>
				<stop  offset="1" style="stop-color:#F95858"/>
			</linearGradient>
			<path class="st26" d="M616.2,650.6v-14c0,0-1.3-6.5,5.8-3.6s12.8-0.7,15-1.6c2.2-0.9,27.1,12.6,30.9,15c0,0,0.1,0,0.1,0.1
				c1.9,1.2,1,4.2-1.3,4.2H616.2z"/>
			<linearGradient id="SVGID_23_" gradientUnits="userSpaceOnUse" x1="502.8533" y1="386.2448" x2="543.1995" y2="298.6909">
				<stop  offset="0" style="stop-color:#19487F"/>
				<stop  offset="1" style="stop-color:#0E274C"/>
			</linearGradient>
			<path class="st27" d="M521.1,370c-12.5-0.8-24.3-6.4-32.1-16.1c-5.4-6.7-8.4-14.9-2.2-22.8c14.2-18.1,3.1-28.2,12.9-36.9
				c9.8-8.8,16.7-39.8,37.5-27.5c0,0,22.5-4.4,25,8.8c2.5,13.1,2.1,21.9,0.4,28.2c-1.7,6.3-4.6,9,1.3,22.5
				c5.8,13.6,2.1,42.8-18.1,44C536.8,370.7,528,370.4,521.1,370z"/>
			
				<linearGradient id="SVGID_24_" gradientUnits="userSpaceOnUse" x1="557.423" y1="444.3249" x2="595.9864" y2="360.6399" gradientTransform="matrix(0.9482 -0.3177 0.3177 0.9482 -96.5207 222.3051)">
				<stop  offset="1.758850e-02" style="stop-color:#F4BD6C"/>
				<stop  offset="1" style="stop-color:#FFD49C"/>
			</linearGradient>
			<path class="st28" d="M610.2,452.1c-0.4,0-0.9-0.1-1.3-0.2c-6.4-1.6-57.2-16.3-61.6-25.5c-8.8-18.7-22.5-81.5-3.2-87
				c26.4-7.5,23.2,74.5,23.2,74.5l43.7,31.6c0,0,13.7,0.7,14.2,7L610.2,452.1z"/>
			<linearGradient id="SVGID_25_" gradientUnits="userSpaceOnUse" x1="693.9598" y1="580.8089" x2="622.6265" y2="506.5557">
				<stop  offset="0" style="stop-color:#19487F"/>
				<stop  offset="1" style="stop-color:#0E274C"/>
			</linearGradient>
			<path class="st29" d="M649.6,460.2c-6-1.5-65.5-1.9-87.8-2v60.6l79.4,14.3l77.9,88.9l18.6-6.5
				C737.8,615.4,663.2,463.6,649.6,460.2z"/>
			<linearGradient id="SVGID_26_" gradientUnits="userSpaceOnUse" x1="682.2142" y1="591.7924" x2="416.9045" y2="389.8897">
				<stop  offset="0" style="stop-color:#19487F"/>
				<stop  offset="1" style="stop-color:#0E274C"/>
			</linearGradient>
			<path class="st30" d="M500.1,457.6c26.1,0.3,58.3,0.7,58.3,0.7s54.5,0.1,67,6.1c6,2.9,12.6,161.4,12.6,161.4h-21.7l-43.6-102.5
				c0,0-33.1-0.4-68.6-3.4c-31.9-2.7-27.9-58.1-27.9-62.3H500.1z"/>
			
				<linearGradient id="SVGID_27_" gradientUnits="userSpaceOnUse" x1="638.4052" y1="393.0485" x2="725.6" y2="393.0485" gradientTransform="matrix(-1 0 0 1 1200.6965 0)">
				<stop  offset="0" style="stop-color:#FF7B7B"/>
				<stop  offset="1" style="stop-color:#F95858"/>
			</linearGradient>
			<path class="st31" d="M476.2,457.6c-0.7-14.1-2.9-92.5,2-106.3c7.5-21,20.9-26,48.6-22.2c0.2,0,9.3,2.4,9.3,2.4
				s13.4,4.7,16.6,9.2c4.9,7,16.3,29.2,4.4,47.8c-1.8,2.9-3.3,9-4.3,14c-0.8,4.3-1.2,8.6-1,12.9c1,17.5,7.9,42.9,7.9,42.9
				L476.2,457.6z"/>
			<linearGradient id="SVGID_28_" gradientUnits="userSpaceOnUse" x1="493.3939" y1="456.289" x2="528.515" y2="380.0741">
				<stop  offset="1.758850e-02" style="stop-color:#F4BD6C"/>
				<stop  offset="1" style="stop-color:#FFD49C"/>
			</linearGradient>
			<path class="st32" d="M539.4,446.1l-53.4-37.6c0,0,35.6-72,7.4-75.9c-19.9-2.8-32.4,66.3-30,86.8c1.3,10.8,74.6,35.5,74.6,35.5
				c0.4,0.1,0.9,0.2,1.3,0.2h20.9c0,0-3.7-7.1-16.6-7.5C542.2,447.4,540.7,446.9,539.4,446.1z"/>
			<g>
				
					<linearGradient id="SVGID_29_" gradientUnits="userSpaceOnUse" x1="671.9924" y1="336.458" x2="671.9924" y2="321.5752" gradientTransform="matrix(-1 0 0 1 1200.6965 0)">
					<stop  offset="1.758850e-02" style="stop-color:#F4BD6C"/>
					<stop  offset="1" style="stop-color:#FFD49C"/>
				</linearGradient>
				<polygon class="st33" points="519.4,308.2 519.4,328.2 533.2,340.4 538.1,332.3 538.1,320.1 				"/>
				
					<linearGradient id="SVGID_30_" gradientUnits="userSpaceOnUse" x1="650.7937" y1="330.1328" x2="664.4452" y2="300.5081" gradientTransform="matrix(-1 0 0 1 1200.6965 0)">
					<stop  offset="1.758850e-02" style="stop-color:#F4BD6C"/>
					<stop  offset="1" style="stop-color:#FFD49C"/>
				</linearGradient>
				<path class="st34" d="M557.4,297.4c0,0,3.4,22.6-13,28c-12,4-23.2-5.4-24.8-16.8c0,0-3.3,0.3-4.1-4.5c-0.8-4.8,1-10.2,6.1-6
					c0,0,16.5-0.9,19.9-5.8C541.5,292.3,547.9,297.6,557.4,297.4z"/>
			</g>
			<g>
				<g>
					<linearGradient id="SVGID_31_" gradientUnits="userSpaceOnUse" x1="523.7567" y1="456.1844" x2="579.181" y2="456.1844">
						<stop  offset="0" style="stop-color:#F4F4F4"/>
						<stop  offset="0.6269" style="stop-color:#F9F9F9"/>
						<stop  offset="1" style="stop-color:#FFFFFF"/>
					</linearGradient>
					<path class="st35" d="M521.6,451.7h82.7l-0.7,4.6c-0.4,2.5-2.5,4.3-5,4.3h-72.4c-3.1,0-5.5-2.8-5-5.9L521.6,451.7z"/>
					<linearGradient id="SVGID_32_" gradientUnits="userSpaceOnUse" x1="629.6465" y1="458.0851" x2="574.3177" y2="410.2193">
						<stop  offset="0" style="stop-color:#F4F4F4"/>
						<stop  offset="0.6269" style="stop-color:#F9F9F9"/>
						<stop  offset="1" style="stop-color:#FFFFFF"/>
					</linearGradient>
					<path class="st36" d="M567,403.4h72.4c3.1,0,5.5,2.8,5,5.9l-7.5,47c-0.4,2.5-2.5,4.3-5,4.3h-72.4c-3.1,0-5.5-2.8-5-5.9l7.5-47
						C562.4,405.2,564.5,403.4,567,403.4z"/>
					<path class="st37" d="M559.6,460.6h-4.8c-3.1,0-5.5-2.8-5-5.9l0.5-3h4.8l-0.5,3C554.1,457.8,556.4,460.6,559.6,460.6z"/>
					<path class="st37" d="M612,434c0.6-5-2.9-9.1-7.9-9.1c-5,0-9.6,4.1-10.2,9.1c-0.6,5,2.9,9.1,7.9,9.1
						C606.8,443,611.4,439,612,434z"/>
				</g>
			</g>
		</g>
	</g>
	<g>
		<linearGradient id="SVGID_33_" gradientUnits="userSpaceOnUse" x1="434.5219" y1="426.9313" x2="452.6275" y2="426.9313">
			<stop  offset="1.758850e-02" style="stop-color:#F4BD6C"/>
			<stop  offset="1" style="stop-color:#FFD49C"/>
		</linearGradient>
		<path class="st38" d="M438.8,417.6c0,0-9.8,20.4,0.4,21.7c10.3,1.4,13.3-13,13.4-21.2C452.8,410,438.8,417.6,438.8,417.6z"/>
		<linearGradient id="SVGID_34_" gradientUnits="userSpaceOnUse" x1="386.231" y1="626.3124" x2="405.1317" y2="626.3124">
			<stop  offset="1.758850e-02" style="stop-color:#F4BD6C"/>
			<stop  offset="1" style="stop-color:#FFD49C"/>
		</linearGradient>
		<path class="st39" d="M405.1,630.7c-0.8-0.5-2.2-0.5-4.4,0.4c-6.8,2.8-12.4-0.7-14.5-1.6l2.4-3.1l-0.5-5.8l16.1,0.4
			C404.6,624.2,404.9,628.2,405.1,630.7z"/>
		<linearGradient id="SVGID_35_" gradientUnits="userSpaceOnUse" x1="355.2754" y1="638.7096" x2="406.3974" y2="638.7096">
			<stop  offset="0" style="stop-color:#19487F"/>
			<stop  offset="1" style="stop-color:#0E274C"/>
		</linearGradient>
		<path class="st40" d="M406.3,648v-13.5c0,0,1.2-6.3-5.6-3.5c-6.8,2.8-12.4-0.7-14.5-1.6c-2.1-0.9-26.2,12.2-29.9,14.5
			c0,0-0.1,0-0.1,0c-1.9,1.2-1,4,1.2,4H406.3z"/>
		<linearGradient id="SVGID_36_" gradientUnits="userSpaceOnUse" x1="303.3037" y1="626.6006" x2="322.2191" y2="626.6006">
			<stop  offset="1.758850e-02" style="stop-color:#F4BD6C"/>
			<stop  offset="1" style="stop-color:#FFD49C"/>
		</linearGradient>
		<path class="st41" d="M322.2,630.7c-0.8-0.5-2.2-0.5-4.4,0.4c-6.8,2.8-12.4-0.7-14.5-1.6l2.4-3.1l-0.3-3.8l15.9-1.4
			C321.7,624.4,322,628.2,322.2,630.7z"/>
		<linearGradient id="SVGID_37_" gradientUnits="userSpaceOnUse" x1="272.3601" y1="638.7096" x2="323.482" y2="638.7096">
			<stop  offset="0" style="stop-color:#19487F"/>
			<stop  offset="1" style="stop-color:#0E274C"/>
		</linearGradient>
		<path class="st42" d="M323.4,648v-13.5c0,0,1.2-6.3-5.6-3.5c-6.8,2.8-12.4-0.7-14.5-1.6c-2.1-0.9-26.2,12.2-29.9,14.5
			c0,0-0.1,0-0.1,0c-1.9,1.2-1,4,1.2,4H323.4z"/>
		<linearGradient id="SVGID_38_" gradientUnits="userSpaceOnUse" x1="230.126" y1="737.2013" x2="390.9501" y2="445.5105">
			<stop  offset="0" style="stop-color:#19487F"/>
			<stop  offset="1" style="stop-color:#0E274C"/>
		</linearGradient>
		<path class="st43" d="M408.3,624l-23-0.5l-27.9-184.9c0,0-33.4,45.2-36.6,50.6c-3.2,5.4,4.6,133.3,4.6,133.3l-23.9,2.1
			c0,0-26-121.4-27.1-146.2c-0.9-20.7,24-73.4,32.2-90c11.3,5.8,59,27.1,110.2,1.1C427,448.2,408.3,624,408.3,624z"/>
		<linearGradient id="SVGID_39_" gradientUnits="userSpaceOnUse" x1="404.2343" y1="420.1729" x2="327.7845" y2="233.4257">
			<stop  offset="3.643770e-02" style="stop-color:#48CBFF"/>
			<stop  offset="1" style="stop-color:#76FEFF"/>
		</linearGradient>
		<path class="st44" d="M465.9,324.2c-2.1-5.8-18.9-45.5-31.1-67.1C426,241.5,418,241,418,241c-15.5-8-47.2-11.2-47.2-11.2
			l-22.7,4.1l-14.8,1.8c-1.5,0.1-16.4,0.2-26.9,1.4c-16.6,1.8-42.7-8-42.7-8l-33.4-79.7c0,0-11.2,4.7-12.3,5.6
			c-1.4,1.2,12.6,96,19.6,103.9c7.1,7.9,74.3,26.5,74.3,26.5s0.5,76.9-7.7,101.7c0,0,55,32.8,114.3,1.7c1.2-0.6-9.1-91.4-9.1-91.4
			l0.1-0.9c9.8,13.9,28.4,36.8,28.4,36.8l-1,85.4c0,0,16.6,2,17.5,0.9C455.4,418.2,469.5,334.2,465.9,324.2z"/>
		<linearGradient id="SVGID_40_" gradientUnits="userSpaceOnUse" x1="317.0187" y1="193.106" x2="380.3159" y2="193.106">
			<stop  offset="0" style="stop-color:#19487F"/>
			<stop  offset="1" style="stop-color:#0E274C"/>
		</linearGradient>
		<path class="st45" d="M368.7,219.4l-1.8-1c1.8-2.7,3.1-5.9,3.5-9.2c0,0,3.4,0.3,4.3-4.8c0.9-5.1-1-10.6-6.4-6.3
			c0,0-8.9-1.1-12.4-6.2c0,0-11.7,6.6-25,5.5c0,0,0,0.1,0,0.4c-0.9-0.4-18.6-8.1-12.5-19.6c4.8-9.1,11.9-4.8,11.9-4.8
			s15.1-10.8,24.9-4.9c0,0,15.4-4.5,21,7C381.6,187,384.1,215.7,368.7,219.4z"/>
		<linearGradient id="SVGID_41_" gradientUnits="userSpaceOnUse" x1="359.2839" y1="240.6971" x2="359.2839" y2="223.9066">
			<stop  offset="1.758850e-02" style="stop-color:#F4BD6C"/>
			<stop  offset="1" style="stop-color:#FFD49C"/>
		</linearGradient>
		<polygon class="st46" points="370.8,208.8 370.8,229.8 354.7,245.2 347.8,234.1 347.8,221.3 		"/>
		<linearGradient id="SVGID_42_" gradientUnits="userSpaceOnUse" x1="338.7801" y1="231.7888" x2="353.0779" y2="200.7616">
			<stop  offset="1.758850e-02" style="stop-color:#F4BD6C"/>
			<stop  offset="1" style="stop-color:#FFD49C"/>
		</linearGradient>
		<path class="st47" d="M330.9,197.5c0,0-3.5,23.6,13.6,29.3c12.6,4.2,24.3-5.6,26-17.6c0,0,3.4,0.3,4.3-4.7c0.9-5.1-1-10.6-6.4-6.3
			c0,0-8.9-1.1-12.4-6.2C355.9,191.9,344.3,198.5,330.9,197.5z"/>
		<path class="st13" d="M389.1,232.5l-34.9,33.7c0,0-15.2-21-21-30.5l14.5-1.8v0.2l6.9,11.1l16-15.4h0.1
			C370.7,229.8,379,230.6,389.1,232.5z"/>
		<g>
			
				<linearGradient id="SVGID_43_" gradientUnits="userSpaceOnUse" x1="184.5247" y1="196.0592" x2="196.8086" y2="196.0592" gradientTransform="matrix(0.4915 0.8709 -0.8709 0.4915 300.7511 -120.8417)">
				<stop  offset="0" style="stop-color:#FCAF00"/>
				<stop  offset="1" style="stop-color:#E58500"/>
			</linearGradient>
			<path class="st48" d="M241.7,138.1l-6-10.3l-28.9,16.7c-0.7,0.4-0.8,1.4-0.1,1.9l8.9,6c0.4,0.2,0.8,0.3,1.2,0L241.7,138.1z"/>
			
				<linearGradient id="SVGID_44_" gradientUnits="userSpaceOnUse" x1="139.5434" y1="172.944" x2="147.9345" y2="172.944" gradientTransform="matrix(0.4915 0.8709 -0.8709 0.4915 300.7511 -120.8417)">
				<stop  offset="0" style="stop-color:#FCAF00"/>
				<stop  offset="1" style="stop-color:#E58500"/>
			</linearGradient>
			<path class="st49" d="M245.5,75L245.5,75c-1.1-1.9-3.5-2.5-5.3-1.4l-42.6,24.7c-1.9,1.1-2.5,3.5-1.4,5.3l0,0
				c1.1,1.9,3.5,2.5,5.3,1.4L244,80.4C245.9,79.3,246.5,76.9,245.5,75z"/>
			<g>
				<linearGradient id="SVGID_45_" gradientUnits="userSpaceOnUse" x1="202.0261" y1="104.9338" x2="252.1904" y2="104.9338">
					<stop  offset="0" style="stop-color:#F4F4F4"/>
					<stop  offset="1" style="stop-color:#D3DADD"/>
				</linearGradient>
				<path class="st50" d="M243.9,80.5L202,104.7c9.6,1.3,26.4,24.7,26.4,24.7l23.7-13.8C252.2,115.7,240.3,89.5,243.9,80.5z"/>
				
					<linearGradient id="SVGID_46_" gradientUnits="userSpaceOnUse" x1="182.0876" y1="172.1582" x2="203.4306" y2="172.1582" gradientTransform="matrix(0.4915 0.8709 -0.8709 0.4915 300.7511 -120.8417)">
					<stop  offset="0" style="stop-color:#FCAF00"/>
					<stop  offset="1" style="stop-color:#E58500"/>
				</linearGradient>
				<path class="st51" d="M256.6,137.5c3.4-2,4.6-6.3,2.6-9.8l-7-12.1l-23.7,13.8l0,0l7,12.1c2,3.4,6.3,4.6,9.8,2.6L256.6,137.5z"/>
			</g>
			<path class="st52" d="M212.9,81.8c-2.1,2.5-2.7,5.8-1.8,8.7l15.6-9c-0.2-0.2-0.5-0.5-0.7-0.7C222,77.4,216.2,77.9,212.9,81.8z"/>
		</g>
		<linearGradient id="SVGID_47_" gradientUnits="userSpaceOnUse" x1="213.7316" y1="143.6409" x2="229.3978" y2="143.6409">
			<stop  offset="1.758850e-02" style="stop-color:#F4BD6C"/>
			<stop  offset="1" style="stop-color:#FFD49C"/>
		</linearGradient>
		<path class="st53" d="M229.4,149.8c0,0-3.9-18.8-11.4-17.4c-7.5,1.4-3.6,15-0.1,22.7L229.4,149.8z"/>
		<path class="st54" d="M312.2,486.6c-6.4,8.6,3.6,109.9,6.1,136.5l7.1-0.6c0,0-7.9-127.9-4.6-133.3c3.2-5.4,36.6-50.6,36.6-50.6
			S333.5,458,312.2,486.6z"/>
		<path class="st54" d="M408.3,624l-3.1-0.1c10.1-56.2,4.1-194-1.4-228.8c4.3-1.6,8.7-3.4,13.1-5.7C427,448.2,408.3,624,408.3,624z"
			/>
		<g>
			<path class="st55" d="M357.2,276.9c0,2-1.6,3.7-3.7,3.7s-3.7-1.6-3.7-3.7c0-2,1.6-3.7,3.7-3.7S357.2,274.9,357.2,276.9z"/>
			<path class="st55" d="M357.2,292.9c0,2-1.6,3.7-3.7,3.7s-3.7-1.6-3.7-3.7c0-2,1.6-3.7,3.7-3.7S357.2,290.9,357.2,292.9z"/>
		</g>
		<path class="st4" d="M399,283.3c1.7,6.6,4.8,110.7,4.8,111.8c4.8-1.8,9.7-3.9,14.6-6.4c1.2-0.6-9.1-91.4-9.1-91.4
			S397.4,276.7,399,283.3z"/>
	</g>
	<linearGradient id="SVGID_48_" gradientUnits="userSpaceOnUse" x1="228.2258" y1="398.3252" x2="269.0928" y2="317.4609">
		<stop  offset="0" style="stop-color:#F4F4F4"/>
		<stop  offset="0.6269" style="stop-color:#F9F9F9"/>
		<stop  offset="1" style="stop-color:#FFFFFF"/>
	</linearGradient>
	<path class="st56" d="M286.6,334.4H285c-1.4,0-2.7-0.9-3.2-2.3c-0.5-1.3-1-2.5-1.6-3.7c-0.7-1.3-0.5-2.9,0.5-4l1.1-1.1
		c1.5-1.5,1.5-3.6,0.2-4.9l-2.9-2.9c-1.3-1.3-3.4-1.3-4.7,0l-1.6,1.6c-1,1-2.6,1.3-3.9,0.6c-1.1-0.5-2.2-1-3.4-1.4
		c-1.4-0.4-2.4-1.7-2.4-3.2v-2c0-2.1-1.5-3.6-3.3-3.6h-4c-1.8,0-3.3,1.5-3.3,3.3v2.3c0,1.5-1,2.7-2.4,3.2c-1.2,0.4-2.3,0.8-3.4,1.4
		c-1.3,0.6-2.8,0.4-3.9-0.6l-1.4-1.4c-1.5-1.5-3.6-1.5-4.9-0.2l-2.9,2.9c-1.3,1.3-1.3,3.4,0,4.7l1.3,1.3c1.1,1.1,1.3,2.7,0.5,4
		c-0.6,1.2-1.2,2.4-1.6,3.7c-0.5,1.3-1.7,2.3-3.2,2.3H229c-1.8,0-3.3,1.5-3.3,3.3v4c0,1.8,1.5,3.3,3.3,3.3h1.1c1.5,0,2.8,1,3.2,2.5
		c0.4,1.5,1,2.9,1.6,4.3c0.6,1.3,0.4,2.8-0.6,3.8l-0.5,0.5c-1.4,1.4-1.4,3.5-0.1,4.8l2.9,2.9c1.3,1.3,3.4,1.3,4.7,0l0.3-0.3
		c1.1-1.1,2.7-1.3,4-0.6c1.5,0.8,3,1.5,4.7,2c1.3,0.4,2.2,1.7,2.2,3.1v0.4c0,1.9,1.5,3.4,3.3,3.4h4c1.8,0,3.3-1.5,3.3-3.3v-0.4
		c0-1.5,0.9-2.7,2.3-3.2c1.6-0.5,3.1-1.2,4.6-2c1.3-0.7,2.9-0.5,3.9,0.5l0.3,0.3c1.4,1.4,3.5,1.4,4.8,0.1l2.9-2.9
		c1.3-1.3,1.3-3.4,0-4.7l-0.6-0.6c-1-1-1.3-2.5-0.6-3.8c0.7-1.4,1.2-2.8,1.6-4.3c0.4-1.5,1.7-2.5,3.2-2.5h1.1c1.8,0,3.3-1.5,3.3-3.3
		v-4C290,335.9,288.5,334.4,286.6,334.4z M257.8,350.1c-5.7,0-10.3-4.6-10.3-10.3s4.6-10.3,10.3-10.3c5.7,0,10.3,4.6,10.3,10.3
		S263.5,350.1,257.8,350.1z"/>
	<g>
		<g>
			
				<linearGradient id="SVGID_49_" gradientUnits="userSpaceOnUse" x1="199.2803" y1="217.312" x2="157.6934" y2="157.0301" gradientTransform="matrix(0.9754 -0.2205 0.2205 0.9754 -49.8035 134.5168)">
				<stop  offset="0" style="stop-color:#FCAF00"/>
				<stop  offset="1" style="stop-color:#E58500"/>
			</linearGradient>
			<polygon class="st57" points="214.5,295.8 130.8,314.7 118.8,261.7 202.5,242.8 			"/>
			
				<linearGradient id="SVGID_50_" gradientUnits="userSpaceOnUse" x1="210.0769" y1="223.1515" x2="157.4257" y2="163.6328" gradientTransform="matrix(0.9754 -0.2205 0.2205 0.9754 -49.8035 134.5168)">
				<stop  offset="0" style="stop-color:#FCAF00"/>
				<stop  offset="1" style="stop-color:#F9DB00"/>
			</linearGradient>
			<polygon class="st58" points="118.8,261.7 167.3,280.6 202.5,242.8 214.5,295.8 130.8,314.7 			"/>
		</g>
		
			<linearGradient id="SVGID_51_" gradientUnits="userSpaceOnUse" x1="222.5388" y1="181.7462" x2="143.6585" y2="102.8658" gradientTransform="matrix(0.9745 -0.2244 0.2244 0.9745 -45.2895 147.1243)">
			<stop  offset="0" style="stop-color:#F4F4F4"/>
			<stop  offset="0.6269" style="stop-color:#F9F9F9"/>
			<stop  offset="1" style="stop-color:#FFFFFF"/>
		</linearGradient>
		<polygon class="st59" points="189.2,216.7 196.7,249 167.3,280.7 130.6,266.3 122.7,232 		"/>
		
			<linearGradient id="SVGID_52_" gradientUnits="userSpaceOnUse" x1="199.7712" y1="152.2596" x2="163.8231" y2="116.3115" gradientTransform="matrix(0.9745 -0.2244 0.2244 0.9745 -45.2895 147.1243)">
			<stop  offset="0" style="stop-color:#19487F"/>
			<stop  offset="1" style="stop-color:#0E274C"/>
		</linearGradient>
		<path class="st60" d="M179.6,229.4l-41.1,9.5c-0.8,0.2-1.3,1-1.1,1.7l0,0c0.2,0.8,1,1.3,1.7,1.1l41.1-9.5c0.8-0.2,1.3-1,1.1-1.7
			l0,0C181.2,229.7,180.4,229.2,179.6,229.4z"/>
		
			<linearGradient id="SVGID_53_" gradientUnits="userSpaceOnUse" x1="199.7716" y1="163.1898" x2="163.8234" y2="127.2416" gradientTransform="matrix(0.9745 -0.2244 0.2244 0.9745 -45.2895 147.1243)">
			<stop  offset="0" style="stop-color:#19487F"/>
			<stop  offset="1" style="stop-color:#0E274C"/>
		</linearGradient>
		<path class="st61" d="M182.1,240.1l-41.1,9.5c-0.8,0.2-1.3,1-1.1,1.7l0,0c0.2,0.8,1,1.3,1.7,1.1l41.1-9.5c0.8-0.2,1.3-1,1.1-1.7
			l0,0C183.6,240.4,182.8,239.9,182.1,240.1z"/>
		
			<linearGradient id="SVGID_54_" gradientUnits="userSpaceOnUse" x1="190.51" y1="168.4815" x2="167.5671" y2="145.5386" gradientTransform="matrix(0.9745 -0.2244 0.2244 0.9745 -45.2895 147.1243)">
			<stop  offset="0" style="stop-color:#19487F"/>
			<stop  offset="1" style="stop-color:#0E274C"/>
		</linearGradient>
		<path class="st62" d="M174.8,254.6l-24.8,5.7c-0.8,0.2-1.3,1-1.1,1.7l0,0c0.2,0.8,1,1.3,1.7,1.1l24.8-5.7c0.8-0.2,1.3-1,1.1-1.7
			l0,0C176.4,254.9,175.6,254.5,174.8,254.6z"/>
	</g>
	<g>
		<circle class="st63" cx="710.1" cy="163.8" r="35.9"/>
		<g>
			<g>
				<path class="st13" d="M702.8,184.5c17.5,0,27.1-14.5,27.1-27.1c0-0.4,0-0.8,0-1.2c1.9-1.3,3.5-3,4.8-4.9
					c-1.7,0.8-3.5,1.3-5.5,1.5c2-1.2,3.5-3,4.2-5.3c-1.8,1.1-3.9,1.9-6.1,2.3c-1.7-1.9-4.2-3-7-3c-5.3,0-9.5,4.3-9.5,9.5
					c0,0.7,0.1,1.5,0.2,2.2c-7.9-0.4-15-4.2-19.7-10c-0.8,1.4-1.3,3-1.3,4.8c0,3.3,1.7,6.2,4.2,7.9c-1.6,0-3-0.5-4.3-1.2
					c0,0,0,0.1,0,0.1c0,4.6,3.3,8.5,7.6,9.3c-0.8,0.2-1.6,0.3-2.5,0.3c-0.6,0-1.2-0.1-1.8-0.2c1.2,3.8,4.7,6.5,8.9,6.6
					c-3.3,2.6-7.4,4.1-11.8,4.1c-0.8,0-1.5,0-2.3-0.1C692.4,182.9,697.4,184.5,702.8,184.5"/>
			</g>
		</g>
	</g>
	<g>
		<circle class="st64" cx="389.6" cy="108.1" r="35.9"/>
		<g>
			<g>
				<path class="st13" d="M389.6,89.5c6,0,6.8,0,9.1,0.1c2.2,0.1,3.4,0.5,4.2,0.8c1.1,0.4,1.8,0.9,2.6,1.7c0.8,0.8,1.3,1.5,1.7,2.6
					c0.3,0.8,0.7,2,0.8,4.2c0.1,2.4,0.1,3.1,0.1,9.1c0,6,0,6.8-0.1,9.1c-0.1,2.2-0.5,3.4-0.8,4.2c-0.4,1.1-0.9,1.8-1.7,2.6
					c-0.8,0.8-1.5,1.3-2.6,1.7c-0.8,0.3-2,0.7-4.2,0.8c-2.4,0.1-3.1,0.1-9.1,0.1s-6.8,0-9.1-0.1c-2.2-0.1-3.4-0.5-4.2-0.8
					c-1.1-0.4-1.8-0.9-2.6-1.7c-0.8-0.8-1.3-1.5-1.7-2.6c-0.3-0.8-0.7-2-0.8-4.2c-0.1-2.4-0.1-3.1-0.1-9.1c0-6,0-6.8,0.1-9.1
					c0.1-2.2,0.5-3.4,0.8-4.2c0.4-1.1,0.9-1.8,1.7-2.6c0.8-0.8,1.5-1.3,2.6-1.7c0.8-0.3,2-0.7,4.2-0.8
					C382.8,89.6,383.6,89.5,389.6,89.5 M389.6,85.5c-6.1,0-6.9,0-9.3,0.1c-2.4,0.1-4.1,0.5-5.5,1.1c-1.5,0.6-2.7,1.4-4,2.6
					c-1.3,1.3-2,2.5-2.6,4c-0.6,1.4-0.9,3.1-1.1,5.5c-0.1,2.4-0.1,3.2-0.1,9.3c0,6.1,0,6.9,0.1,9.3c0.1,2.4,0.5,4.1,1.1,5.5
					c0.6,1.5,1.4,2.7,2.6,4c1.3,1.3,2.5,2,4,2.6c1.4,0.6,3.1,0.9,5.5,1.1c2.4,0.1,3.2,0.1,9.3,0.1s6.9,0,9.3-0.1
					c2.4-0.1,4.1-0.5,5.5-1.1c1.5-0.6,2.7-1.4,4-2.6c1.3-1.3,2-2.5,2.6-4c0.6-1.4,0.9-3.1,1.1-5.5c0.1-2.4,0.1-3.2,0.1-9.3
					s0-6.9-0.1-9.3c-0.1-2.4-0.5-4.1-1.1-5.5c-0.6-1.5-1.4-2.7-2.6-4c-1.3-1.3-2.5-2-4-2.6c-1.4-0.6-3.1-0.9-5.5-1.1
					C396.5,85.5,395.7,85.5,389.6,85.5L389.6,85.5z"/>
				<path class="st13" d="M389.6,96.5c-6.4,0-11.6,5.2-11.6,11.6c0,6.4,5.2,11.6,11.6,11.6c6.4,0,11.6-5.2,11.6-11.6
					C401.2,101.7,396,96.5,389.6,96.5z M389.6,115.6c-4.2,0-7.5-3.4-7.5-7.5s3.4-7.5,7.5-7.5c4.2,0,7.5,3.4,7.5,7.5
					S393.8,115.6,389.6,115.6z"/>
				<circle class="st13" cx="401.7" cy="96" r="2.7"/>
			</g>
		</g>
	</g>
	<g>
		<path class="st65" d="M538.3,71.9c0-19.8-16.1-35.9-35.9-35.9s-35.9,16.1-35.9,35.9c0,17.9,13.1,32.8,30.3,35.5V82.3h-9.1V71.9
			h9.1V64c0-9,5.4-14,13.6-14c3.9,0,8,0.7,8,0.7v8.8h-4.5c-4.5,0-5.9,2.8-5.9,5.6v6.7h10l-1.6,10.4H508v25.1
			C525.2,104.7,538.3,89.8,538.3,71.9z"/>
		<path class="st13" d="M516.4,82.3l1.6-10.4h-10v-6.7c0-2.8,1.4-5.6,5.9-5.6h4.5v-8.8c0,0-4.1-0.7-8-0.7c-8.2,0-13.6,5-13.6,14v7.9
			h-9.1v10.4h9.1v25.1c1.8,0.3,3.7,0.4,5.6,0.4s3.8-0.1,5.6-0.4V82.3H516.4z"/>
	</g>
</g>
</svg>
