<?xml version="1.0" encoding="utf-8"?>
<!-- Generator: Adobe Illustrator 23.0.0, SVG Export Plug-In . SVG Version: 6.00 Build 0)  -->
<svg version="1.1" id="Layer_1" xmlns="http://www.w3.org/2000/svg" xmlns:xlink="http://www.w3.org/1999/xlink" x="0px" y="0px"
	 viewBox="0 0 36.9 36.9" style="enable-background:new 0 0 36.9 36.9;" xml:space="preserve">
<style type="text/css">
	.st0{fill:#0D6EFD;}
	.st1{fill:#FFFFFF;}
</style>
<g>
	<path class="st0" d="M27,33.7H9.9c-3.7,0-6.7-3-6.7-6.7V9.9c0-3.7,3-6.7,6.7-6.7H27c3.7,0,6.7,3,6.7,6.7V27
		C33.7,30.7,30.7,33.7,27,33.7z"/>
	<g>
		<path class="st0" d="M28.6,36.9H8.3c-4.6,0-8.3-3.7-8.3-8.3V8.3C0,3.7,3.7,0,8.3,0h20.2c4.6,0,8.3,3.7,8.3,8.3v20.2
			C36.9,33.2,33.2,36.9,28.6,36.9z M8.3,0.9c-4.1,0-7.5,3.3-7.5,7.5v20.2c0,4.1,3.3,7.5,7.5,7.5h20.2c4.1,0,7.5-3.3,7.5-7.5V8.3
			c0-4.1-3.3-7.5-7.5-7.5L8.3,0.9L8.3,0.9z"/>
	</g>
	<g>
		<g>
			<polygon class="st1" points="18.4,18.4 7,12.9 18.4,7.7 29.9,12.9 			"/>
			<polygon class="st1" points="18.4,20.3 11.6,17.2 7,19.2 18.4,24.6 29.9,19.2 25.3,17.2 			"/>
			<polygon class="st1" points="18.4,26.1 11.6,23 7,25.1 18.4,30.3 29.9,25.1 25.3,23 			"/>
		</g>
	</g>
</g>
</svg>
