<?xml version="1.0" encoding="utf-8"?>
<!-- Generator: Adobe Illustrator 23.0.0, SVG Export Plug-In . SVG Version: 6.00 Build 0)  -->
<svg version="1.1" id="Layer_1" xmlns="http://www.w3.org/2000/svg" xmlns:xlink="http://www.w3.org/1999/xlink" x="0px" y="0px"
	 viewBox="0 0 177.8 44.1" style="enable-background:new 0 0 177.8 44.1;" xml:space="preserve">
<style type="text/css">
	.st0{fill:#0D6EFD;}
	.st1{fill:#FFFFFF;}
</style>
<g>
	<path class="st0" d="M31.9,39.6H12.3c-4.2,0-7.7-3.5-7.7-7.7V12.2C4.6,8,8,4.5,12.3,4.5H32c4.2,0,7.7,3.5,7.7,7.7v19.7
		C39.6,36.2,36.2,39.6,31.9,39.6z"/>
	<g>
		<path class="st0" d="M33.7,43.3H10.4c-5.3,0-9.6-4.3-9.6-9.6V10.4c0-5.3,4.3-9.6,9.6-9.6h23.3c5.3,0,9.6,4.3,9.6,9.6v23.3
			C43.3,39,39,43.3,33.7,43.3z M10.4,1.8c-4.7,0-8.6,3.9-8.6,8.6v23.3c0,4.7,3.9,8.6,8.6,8.6h23.3c4.7,0,8.6-3.9,8.6-8.6V10.4
			c0-4.7-3.9-8.6-8.6-8.6C33.7,1.8,10.4,1.8,10.4,1.8z"/>
	</g>
	<g>
		<g>
			<polygon class="st1" points="22,21.9 8.9,15.7 22,9.6 35.3,15.7 			"/>
			<polygon class="st1" points="22,24.2 14.3,20.6 8.9,23 22,29.1 35.3,23 29.9,20.6 			"/>
			<polygon class="st1" points="22,30.9 14.3,27.3 8.9,29.7 22,35.8 35.3,29.7 29.9,27.3 			"/>
		</g>
	</g>
</g>
<g>
	<path class="st0" d="M69.3,21.1v12.3h-1.8V21.1h-2.9v-1.6h2.9v-4l1.8-0.9v4.9h3.3v1.6H69.3z"/>
	<path class="st0" d="M86,33.3v-2.4l0,0c-1.2,1.9-3,2.8-5.4,2.8c-2.1,0-3.9-0.7-5.3-2.1s-2.2-3.1-2.2-5.2s0.7-3.8,2.2-5.2
		c1.4-1.4,3.2-2.1,5.3-2.1c2.4,0,4.2,0.9,5.4,2.8l0,0v-1.6l1.8-0.9v13.9H86z M84.5,22.4c-1.1-1.1-2.4-1.7-4-1.7s-3,0.5-4.1,1.6
		s-1.6,2.5-1.6,4.1s0.5,3,1.6,4c1.1,1.1,2.4,1.6,4.1,1.6c1.6,0,2.9-0.6,4-1.7s1.6-2.4,1.6-4C86.1,24.8,85.6,23.5,84.5,22.4z"/>
	<path class="st0" d="M112,33.3l-5.4-6v6h-1.8V10.6l1.8-0.9v16.2l0,0l4.2-6.8h2.2l-4.7,7.5l5.9,6.7C114.2,33.3,112,33.3,112,33.3z"
		/>
	<path class="st0" d="M128.6,31.6c-1.4,1.4-3.2,2.1-5.3,2.1c-2.3,0-4.1-0.9-5.4-2.8l0,0v12.2h-1.8V20.4l1.8-0.9v2.4l0,0
		c1.3-1.9,3.1-2.8,5.4-2.8c2.1,0,3.8,0.7,5.3,2.1s2.2,3.1,2.2,5.2C130.8,28.4,130.1,30.2,128.6,31.6z M127.4,22.3
		c-1.1-1.1-2.4-1.6-4.1-1.6c-1.6,0-2.9,0.6-4,1.7s-1.6,2.5-1.6,4c0,1.6,0.5,2.9,1.6,4s2.4,1.7,4,1.7s3-0.5,4.1-1.6s1.6-2.4,1.6-4
		C129,24.8,128.5,23.4,127.4,22.3z"/>
	<path class="st0" d="M144.6,31.5c-1.4,1.4-3.1,2.2-5.1,2.2s-3.7-0.7-5.1-2.1c-1.4-1.4-2.2-3.1-2.2-5.1s0.7-3.7,2.1-5.2
		c1.4-1.5,3.1-2.2,5.1-2.2s3.7,0.7,5.1,2.2c1.4,1.4,2.2,3.1,2.2,5.1S146,30.1,144.6,31.5z M143.4,22.4c-1.1-1.1-2.4-1.7-3.9-1.7
		c-1.6,0-2.9,0.6-3.9,1.7s-1.6,2.5-1.6,4s0.5,2.8,1.6,3.9s2.4,1.7,3.9,1.7c1.6,0,2.9-0.6,3.9-1.7s1.5-2.5,1.5-4.1
		C145,24.8,144.4,23.5,143.4,22.4z"/>
	<path class="st0" d="M162.5,21.1v12.3h-1.8V21.1h-2.9v-1.6h2.9v-4l1.8-0.9v4.9h3.3v1.6H162.5z"/>
	<path class="st0" d="M61.7,22.3c-1-1-2.3-1.8-4.1-2.4l-1.8-0.5c-0.7-0.2-1.3-0.5-1.8-0.7c-1.2-0.7-1.9-1.7-1.9-3.1
		c0-1.2,0.4-2.1,1.2-2.9c0.8-0.8,1.8-1.1,2.9-1.1c1.1,0,2.1,0.4,2.9,1.2c0.2,0.2,0.3,0.4,0.5,0.6l1.7-1.6c-0.2-0.2-0.3-0.4-0.5-0.6
		c-1.2-1.2-2.7-1.8-4.5-1.8S53,10,51.7,11.1c-1.3,1.2-1.9,2.7-1.9,4.5s0.6,3.2,1.8,4.2c0.5,0.4,1.1,0.8,1.9,1.1
		c0.6,0.3,1.3,0.5,2.3,0.8c0.8,0.2,1.4,0.4,1.9,0.6c0.7,0.3,1.2,0.6,1.6,0.9c1.1,0.8,1.6,2,1.6,3.3s-0.5,2.4-1.4,3.3s-2,1.3-3.3,1.3
		c-2.7,0-4.3-1.3-4.7-3.8c-0.7,0.3-1.5,0.7-2.1,1c0.3,1.2,0.9,2.2,1.8,3c1.3,1.3,3,1.9,5.1,1.9c1.9,0,3.5-0.6,4.9-1.9
		c1.4-1.3,2.1-2.9,2.1-4.8C63.3,24.9,62.8,23.4,61.7,22.3z"/>
	<path class="st0" d="M155.9,26.9c-0.6-0.6-1.4-1.1-2.5-1.4l-1.1-0.3c-0.4-0.1-0.8-0.3-1.1-0.4c-0.8-0.4-1.1-1-1.1-1.9
		c0-0.7,0.2-1.3,0.7-1.8s1.1-0.7,1.8-0.7s1.3,0.3,1.8,0.8c0.1,0.1,0.2,0.2,0.3,0.4l1-1c-0.1-0.1-0.2-0.2-0.3-0.3
		c-0.7-0.7-1.7-1.1-2.8-1.1s-2,0.4-2.8,1.1s-1.2,1.6-1.2,2.7s0.4,2,1.1,2.6c0.3,0.2,0.7,0.5,1.2,0.7c0.4,0.2,0.8,0.3,1.4,0.5
		c0.5,0.1,0.8,0.3,1.1,0.4c0.4,0.2,0.7,0.4,1,0.6c0.7,0.5,1,1.2,1,2s-0.3,1.5-0.8,2s-1.2,0.8-2,0.8c-1.7,0-2.6-0.8-2.9-2.3
		c-0.4,0.2-0.9,0.4-1.3,0.6c0.2,0.7,0.6,1.3,1.1,1.8c0.8,0.8,1.8,1.2,3.1,1.2c1.2,0,2.2-0.4,3-1.2s1.3-1.8,1.3-2.9
		C156.9,28.5,156.6,27.6,155.9,26.9z"/>
	<path class="st0" d="M173.9,26.9c-0.6-0.6-1.4-1.1-2.5-1.4l-1.1-0.3c-0.4-0.1-0.8-0.3-1.1-0.4c-0.8-0.4-1.1-1-1.1-1.9
		c0-0.7,0.2-1.3,0.7-1.8s1.1-0.7,1.8-0.7s1.3,0.3,1.8,0.8c0.1,0.1,0.2,0.2,0.3,0.4l1-1c-0.1-0.1-0.2-0.2-0.3-0.3
		c-0.7-0.7-1.7-1.1-2.8-1.1s-2,0.4-2.8,1.1s-1.2,1.6-1.2,2.7s0.4,2,1.1,2.6c0.3,0.2,0.7,0.5,1.2,0.7c0.4,0.2,0.8,0.3,1.4,0.5
		c0.5,0.1,0.8,0.3,1.1,0.4c0.4,0.2,0.7,0.4,1,0.6c0.7,0.5,1,1.2,1,2s-0.3,1.5-0.8,2s-1.2,0.8-2,0.8c-1.7,0-2.6-0.8-2.9-2.3
		c-0.4,0.2-0.9,0.4-1.3,0.6c0.2,0.7,0.6,1.3,1.1,1.8c0.8,0.8,1.8,1.2,3.1,1.2c1.2,0,2.2-0.4,3-1.2s1.3-1.8,1.3-2.9
		C174.9,28.5,174.6,27.6,173.9,26.9z"/>
	<path class="st0" d="M101.5,29.9c-1,1.4-2.5,2.2-4.5,2.2c-1.6,0-3-0.5-4.1-1.6s-1.7-2.5-1.7-4.1s0.6-2.9,1.7-4s2.5-1.6,4.1-1.6
		c2,0,3.5,0.8,4.5,2.4l1.3-1.1c-0.5-0.6-1.1-1.2-1.8-1.6c-1.2-0.8-2.6-1.2-4.2-1.2c-2,0-3.8,0.7-5.3,2.1s-2.2,3.2-2.2,5.2
		s0.7,3.8,2.2,5.2c1.4,1.4,3.2,2.1,5.3,2.1c2.4,0,4.3-0.9,5.8-2.6L101.5,29.9z"/>
</g>
</svg>
