<?xml version="1.0" encoding="utf-8"?>
<!-- Generator: Adobe Illustrator 23.0.0, SVG Export Plug-In . SVG Version: 6.00 Build 0)  -->
<svg version="1.1" id="Layer_1" xmlns="http://www.w3.org/2000/svg" xmlns:xlink="http://www.w3.org/1999/xlink" x="0px" y="0px"
	 viewBox="0 0 36.9 36.9" style="enable-background:new 0 0 36.9 36.9;" xml:space="preserve">
<style type="text/css">
	.st0{fill:#0D6EFD;}
	.st1{fill:#FFFFFF;}
</style>
<path class="st0" d="M28.8,36.9H8.1c-4.4,0-8.1-3.6-8.1-8.1V8.1C0,3.7,3.6,0,8.1,0h20.7c4.4,0,8.1,3.6,8.1,8.1v20.7
	C36.9,33.3,33.2,36.9,28.8,36.9z"/>
<g>
	<g>
		<polygon class="st1" points="18.4,18.5 9.1,14.1 18.4,9.8 27.8,14.1 		"/>
		<polygon class="st1" points="18.4,20.1 12.9,17.5 9.1,19.2 18.4,23.6 27.8,19.2 24,17.5 		"/>
		<polygon class="st1" points="18.4,24.8 12.9,22.3 9.1,24 18.4,28.3 27.8,24 24,22.3 		"/>
	</g>
</g>
</svg>
