<?xml version="1.0" encoding="utf-8"?>
<!-- Generator: Adobe Illustrator 23.0.0, SVG Export Plug-In . SVG Version: 6.00 Build 0)  -->
<svg version="1.1" id="Layer_1" xmlns="http://www.w3.org/2000/svg" xmlns:xlink="http://www.w3.org/1999/xlink" x="0px" y="0px"
	 viewBox="0 0 158.6 37" style="enable-background:new 0 0 158.6 37;" xml:space="preserve">
<style type="text/css">
	.st0{stroke:#000000;stroke-miterlimit:10;}
	.st1{fill:#FFFFFF;}
</style>
<g>
	<path class="st0" d="M63.4,17.4v10.9h-1.6V17.4h-2.6V16h2.6v-3.5l1.6-0.8V16h2.9v1.4H63.4z"/>
	<path class="st0" d="M78.2,28.3v-2.2h0c-1.1,1.6-2.7,2.5-4.8,2.5c-1.9,0-3.4-0.6-4.7-1.9c-1.3-1.2-1.9-2.8-1.9-4.6
		c0-1.8,0.6-3.4,1.9-4.6c1.3-1.2,2.8-1.8,4.7-1.8c2.1,0,3.7,0.8,4.8,2.5h0v-1.4l1.6-0.8v12.3H78.2z M76.9,18.6c-1-1-2.1-1.5-3.5-1.5
		c-1.5,0-2.7,0.5-3.6,1.5c-1,1-1.4,2.2-1.4,3.6c0,1.4,0.5,2.6,1.4,3.6c1,0.9,2.2,1.4,3.6,1.4c1.4,0,2.6-0.5,3.5-1.5
		c0.9-1,1.4-2.2,1.4-3.5C78.3,20.7,77.8,19.5,76.9,18.6z"/>
	<path class="st0" d="M101.2,28.3l-4.8-5.3v5.3h-1.6V8.1l1.6-0.8v14.4h0l3.8-6h2L98,22.3l5.3,5.9H101.2z"/>
	<path class="st0" d="M116,26.7c-1.3,1.2-2.8,1.9-4.7,1.9c-2.1,0-3.7-0.8-4.8-2.5h0v10.8h-1.6V16.8l1.6-0.8v2.2h0
		c1.2-1.6,2.8-2.5,4.8-2.5c1.8,0,3.4,0.6,4.7,1.8c1.3,1.2,2,2.8,2,4.6C117.9,23.9,117.2,25.5,116,26.7z M114.9,18.5
		c-1-1-2.2-1.5-3.6-1.5c-1.4,0-2.6,0.5-3.5,1.5c-0.9,1-1.4,2.2-1.4,3.6c0,1.4,0.5,2.6,1.4,3.5c1,1,2.1,1.5,3.5,1.5
		c1.4,0,2.6-0.5,3.6-1.4c1-1,1.4-2.1,1.4-3.6C116.3,20.7,115.8,19.5,114.9,18.5z"/>
	<path class="st0" d="M130.1,26.6c-1.3,1.3-2.8,1.9-4.5,1.9c-1.7,0-3.2-0.6-4.5-1.9c-1.3-1.3-1.9-2.8-1.9-4.5c0-1.8,0.6-3.3,1.9-4.6
		c1.3-1.3,2.8-1.9,4.5-1.9c1.8,0,3.3,0.6,4.5,1.9c1.3,1.3,1.9,2.8,1.9,4.5C132,23.9,131.4,25.4,130.1,26.6z M129,18.5
		c-1-1-2.1-1.5-3.4-1.5c-1.4,0-2.5,0.5-3.5,1.5c-0.9,1-1.4,2.2-1.4,3.6c0,1.3,0.5,2.5,1.4,3.5c1,1,2.1,1.5,3.4,1.5
		c1.4,0,2.6-0.5,3.5-1.5c0.9-1,1.4-2.2,1.4-3.6C130.4,20.7,130,19.5,129,18.5z"/>
	<path class="st0" d="M146,17.4v10.9h-1.6V17.4h-2.6V16h2.6v-3.5l1.6-0.8V16h2.9v1.4H146z"/>
	<path class="st0" d="M56.6,18.5c-0.8-0.9-2-1.6-3.6-2.1l-1.6-0.5c-0.6-0.2-1.2-0.4-1.6-0.6c-1.1-0.6-1.6-1.5-1.6-2.7
		c0-1,0.4-1.9,1.1-2.5c0.7-0.7,1.6-1,2.6-1c1,0,1.9,0.4,2.6,1.1c0.2,0.2,0.3,0.4,0.4,0.5l1.5-1.4c-0.1-0.2-0.3-0.3-0.5-0.5
		c-1.1-1.1-2.4-1.6-4-1.6c-1.6,0-3,0.5-4.1,1.5c-1.1,1-1.7,2.4-1.7,3.9c0,1.6,0.5,2.8,1.6,3.7c0.4,0.4,1,0.7,1.7,1
		c0.5,0.2,1.2,0.5,2,0.7c0.7,0.2,1.2,0.4,1.7,0.6c0.6,0.3,1.1,0.5,1.5,0.8c1,0.7,1.4,1.7,1.4,3c0,1.1-0.4,2.1-1.2,2.9
		C54,26,53,26.4,51.9,26.4c-2.4,0-3.8-1.1-4.2-3.3c-0.6,0.3-1.3,0.6-1.9,0.9c0.3,1,0.8,1.9,1.6,2.7c1.2,1.1,2.7,1.7,4.5,1.7
		c1.7,0,3.1-0.6,4.3-1.7c1.2-1.2,1.8-2.6,1.8-4.3C58,20.7,57.6,19.5,56.6,18.5z"/>
	<path class="st0" d="M140.1,22.6c-0.5-0.6-1.2-1-2.2-1.3l-1-0.3c-0.4-0.1-0.7-0.3-1-0.4c-0.7-0.4-1-0.9-1-1.7
		c0-0.6,0.2-1.1,0.7-1.6c0.4-0.4,1-0.6,1.6-0.6c0.6,0,1.1,0.2,1.6,0.7c0.1,0.1,0.2,0.2,0.3,0.3l0.9-0.9c-0.1-0.1-0.2-0.2-0.3-0.3
		c-0.7-0.6-1.5-1-2.4-1c-1,0-1.8,0.3-2.5,0.9c-0.7,0.6-1,1.4-1,2.4c0,1,0.3,1.7,1,2.3c0.3,0.2,0.6,0.4,1,0.6
		c0.3,0.1,0.7,0.3,1.3,0.4c0.4,0.1,0.7,0.2,1,0.3c0.4,0.2,0.7,0.3,0.9,0.5c0.6,0.5,0.9,1.1,0.9,1.8c0,0.7-0.2,1.3-0.7,1.8
		c-0.5,0.5-1.1,0.7-1.8,0.7c-1.5,0-2.3-0.7-2.5-2c-0.4,0.2-0.8,0.4-1.2,0.5c0.2,0.6,0.5,1.2,1,1.6c0.7,0.7,1.6,1,2.7,1
		c1,0,1.9-0.4,2.7-1.1c0.7-0.7,1.1-1.6,1.1-2.6C141,24,140.7,23.2,140.1,22.6z"/>
	<path class="st0" d="M156.1,22.6c-0.5-0.6-1.2-1-2.2-1.3l-1-0.3c-0.4-0.1-0.7-0.3-1-0.4c-0.7-0.4-1-0.9-1-1.7
		c0-0.6,0.2-1.1,0.7-1.6c0.4-0.4,1-0.6,1.6-0.6c0.6,0,1.1,0.2,1.6,0.7c0.1,0.1,0.2,0.2,0.3,0.3l0.9-0.9c-0.1-0.1-0.2-0.2-0.3-0.3
		c-0.7-0.6-1.5-1-2.4-1c-1,0-1.8,0.3-2.5,0.9c-0.7,0.6-1,1.4-1,2.4c0,1,0.3,1.7,1,2.3c0.3,0.2,0.6,0.4,1,0.6
		c0.3,0.1,0.7,0.3,1.3,0.4c0.4,0.1,0.7,0.2,1,0.3c0.4,0.2,0.7,0.3,0.9,0.5c0.6,0.5,0.9,1.1,0.9,1.8c0,0.7-0.2,1.3-0.7,1.8
		c-0.5,0.5-1.1,0.7-1.8,0.7c-1.5,0-2.3-0.7-2.5-2c-0.4,0.2-0.8,0.4-1.2,0.5c0.2,0.6,0.5,1.2,1,1.6c0.7,0.7,1.6,1,2.7,1
		c1,0,1.9-0.4,2.7-1.1c0.7-0.7,1.1-1.6,1.1-2.6C157,24,156.7,23.2,156.1,22.6z"/>
	<path class="st0" d="M91.9,25.2c-0.9,1.3-2.2,1.9-4,1.9c-1.4,0-2.6-0.5-3.6-1.5c-1-1-1.5-2.2-1.5-3.6c0-1.4,0.5-2.6,1.5-3.6
		c1-1,2.2-1.5,3.6-1.5c1.8,0,3.1,0.7,4,2.1l1.2-1c-0.4-0.6-0.9-1-1.6-1.4c-1.1-0.7-2.3-1.1-3.7-1.1c-1.8,0-3.4,0.6-4.7,1.9
		c-1.3,1.3-2,2.8-2,4.6c0,1.8,0.6,3.3,1.9,4.6c1.3,1.2,2.8,1.8,4.7,1.8c2.1,0,3.8-0.8,5.1-2.3L91.9,25.2z"/>
</g>
<path d="M30.2,37H9.5c-4.4,0-8.1-3.6-8.1-8.1V8.2c0-4.4,3.6-8.1,8.1-8.1h20.7c4.4,0,8.1,3.6,8.1,8.1v20.7C38.3,33.4,34.6,37,30.2,37
	z"/>
<polygon class="st1" points="19.8,18.6 10.5,14.2 19.8,9.9 29.2,14.2 "/>
<polygon class="st1" points="19.8,20.2 14.3,17.6 10.5,19.3 19.8,23.7 29.2,19.3 25.4,17.6 "/>
<polygon class="st1" points="19.8,24.9 14.3,22.4 10.5,24.1 19.8,28.4 29.2,24.1 25.4,22.4 "/>
</svg>
