<?xml version="1.0" encoding="utf-8"?>
<!-- Generator: Adobe Illustrator 23.0.0, SVG Export Plug-In . SVG Version: 6.00 Build 0)  -->
<svg version="1.1" id="Layer_1" xmlns="http://www.w3.org/2000/svg" xmlns:xlink="http://www.w3.org/1999/xlink" x="0px" y="0px"
	 viewBox="0 0 155.8 36.9" style="enable-background:new 0 0 155.8 36.9;" xml:space="preserve">
<style type="text/css">
	.st0{fill:#0D6EFD;}
	.st1{fill:#FFFFFF;}
</style>
<g>
	<g>
		<path class="st0" d="M62,17.3v10.9h-1.6V17.3h-2.6v-1.4h2.6v-3.5l1.6-0.8v4.3h2.9v1.4H62z"/>
		<path class="st0" d="M76.8,28.2V26l0,0c-1.1,1.6-2.7,2.5-4.8,2.5c-1.9,0-3.4-0.6-4.7-1.9c-1.3-1.2-1.9-2.8-1.9-4.6
			c0-1.8,0.6-3.4,1.9-4.6s2.8-1.8,4.7-1.8c2.1,0,3.7,0.8,4.8,2.5l0,0v-1.4l1.6-0.8v12.3C78.4,28.2,76.8,28.2,76.8,28.2z M75.5,18.5
			c-1-1-2.1-1.5-3.5-1.5c-1.5,0-2.7,0.5-3.6,1.5c-1,1-1.4,2.2-1.4,3.6s0.5,2.6,1.4,3.6c1,0.9,2.2,1.4,3.6,1.4s2.6-0.5,3.5-1.5
			s1.4-2.2,1.4-3.5C76.9,20.6,76.4,19.4,75.5,18.5z"/>
		<path class="st0" d="M99.8,28.2L95,22.9v5.3h-1.6V8L95,7.2v14.4l0,0l3.8-6h2l-4.2,6.6l5.3,5.9h-2.1V28.2z"/>
		<path class="st0" d="M114.6,26.6c-1.3,1.2-2.8,1.9-4.7,1.9c-2.1,0-3.7-0.8-4.8-2.5l0,0v10.8h-1.6V16.7l1.6-0.8v2.2l0,0
			c1.2-1.6,2.8-2.5,4.8-2.5c1.8,0,3.4,0.6,4.7,1.8c1.3,1.2,2,2.8,2,4.6C116.5,23.8,115.8,25.4,114.6,26.6z M113.5,18.4
			c-1-1-2.2-1.5-3.6-1.5s-2.6,0.5-3.5,1.5S105,20.6,105,22s0.5,2.6,1.4,3.5c1,1,2.1,1.5,3.5,1.5s2.6-0.5,3.6-1.4
			c1-1,1.4-2.1,1.4-3.6C114.9,20.6,114.4,19.4,113.5,18.4z"/>
		<path class="st0" d="M128.7,26.5c-1.3,1.3-2.8,1.9-4.5,1.9s-3.2-0.6-4.5-1.9s-1.9-2.8-1.9-4.5c0-1.8,0.6-3.3,1.9-4.6
			c1.3-1.3,2.8-1.9,4.5-1.9c1.8,0,3.3,0.6,4.5,1.9c1.3,1.3,1.9,2.8,1.9,4.5C130.6,23.8,130,25.3,128.7,26.5z M127.6,18.4
			c-1-1-2.1-1.5-3.4-1.5c-1.4,0-2.5,0.5-3.5,1.5c-0.9,1-1.4,2.2-1.4,3.6c0,1.3,0.5,2.5,1.4,3.5c1,1,2.1,1.5,3.4,1.5
			c1.4,0,2.6-0.5,3.5-1.5c0.9-1,1.4-2.2,1.4-3.6C129,20.6,128.6,19.4,127.6,18.4z"/>
		<path class="st0" d="M144.6,17.3v10.9H143V17.3h-2.6v-1.4h2.6v-3.5l1.6-0.8v4.3h2.9v1.4H144.6z"/>
		<path class="st0" d="M55.2,18.4c-0.8-0.9-2-1.6-3.6-2.1L50,15.8c-0.6-0.2-1.2-0.4-1.6-0.6c-1.1-0.6-1.6-1.5-1.6-2.7
			c0-1,0.4-1.9,1.1-2.5c0.7-0.7,1.6-1,2.6-1s1.9,0.4,2.6,1.1c0.2,0.2,0.3,0.4,0.4,0.5L55,9.2c-0.1-0.2-0.3-0.3-0.5-0.5
			c-1.1-1.1-2.4-1.6-4-1.6s-3,0.5-4.1,1.5s-1.7,2.4-1.7,3.9c0,1.6,0.5,2.8,1.6,3.7c0.4,0.4,1,0.7,1.7,1c0.5,0.2,1.2,0.5,2,0.7
			c0.7,0.2,1.2,0.4,1.7,0.6c0.6,0.3,1.1,0.5,1.5,0.8c1,0.7,1.4,1.7,1.4,3c0,1.1-0.4,2.1-1.2,2.9c-0.8,0.7-1.8,1.1-2.9,1.1
			c-2.4,0-3.8-1.1-4.2-3.3c-0.6,0.3-1.3,0.6-1.9,0.9c0.3,1,0.8,1.9,1.6,2.7c1.2,1.1,2.7,1.7,4.5,1.7c1.7,0,3.1-0.6,4.3-1.7
			c1.2-1.2,1.8-2.6,1.8-4.3C56.6,20.6,56.2,19.4,55.2,18.4z"/>
		<path class="st0" d="M138.7,22.5c-0.5-0.6-1.2-1-2.2-1.3l-1-0.3c-0.4-0.1-0.7-0.3-1-0.4c-0.7-0.4-1-0.9-1-1.7
			c0-0.6,0.2-1.1,0.7-1.6c0.4-0.4,1-0.6,1.6-0.6s1.1,0.2,1.6,0.7c0.1,0.1,0.2,0.2,0.3,0.3l0.9-0.9c-0.1-0.1-0.2-0.2-0.3-0.3
			c-0.7-0.6-1.5-1-2.4-1c-1,0-1.8,0.3-2.5,0.9c-0.7,0.6-1,1.4-1,2.4s0.3,1.7,1,2.3c0.3,0.2,0.6,0.4,1,0.6c0.3,0.1,0.7,0.3,1.3,0.4
			c0.4,0.1,0.7,0.2,1,0.3c0.4,0.2,0.7,0.3,0.9,0.5c0.6,0.5,0.9,1.1,0.9,1.8c0,0.7-0.2,1.3-0.7,1.8s-1.1,0.7-1.8,0.7
			c-1.5,0-2.3-0.7-2.5-2c-0.4,0.2-0.8,0.4-1.2,0.5c0.2,0.6,0.5,1.2,1,1.6c0.7,0.7,1.6,1,2.7,1c1,0,1.9-0.4,2.7-1.1
			c0.7-0.7,1.1-1.6,1.1-2.6C139.6,23.9,139.3,23.1,138.7,22.5z"/>
		<path class="st0" d="M154.7,22.5c-0.5-0.6-1.2-1-2.2-1.3l-1-0.3c-0.4-0.1-0.7-0.3-1-0.4c-0.7-0.4-1-0.9-1-1.7
			c0-0.6,0.2-1.1,0.7-1.6c0.4-0.4,1-0.6,1.6-0.6s1.1,0.2,1.6,0.7c0.1,0.1,0.2,0.2,0.3,0.3l0.9-0.9c-0.1-0.1-0.2-0.2-0.3-0.3
			c-0.7-0.6-1.5-1-2.4-1c-1,0-1.8,0.3-2.5,0.9c-0.7,0.6-1,1.4-1,2.4s0.3,1.7,1,2.3c0.3,0.2,0.6,0.4,1,0.6c0.3,0.1,0.7,0.3,1.3,0.4
			c0.4,0.1,0.7,0.2,1,0.3c0.4,0.2,0.7,0.3,0.9,0.5c0.6,0.5,0.9,1.1,0.9,1.8c0,0.7-0.2,1.3-0.7,1.8s-1.1,0.7-1.8,0.7
			c-1.5,0-2.3-0.7-2.5-2c-0.4,0.2-0.8,0.4-1.2,0.5c0.2,0.6,0.5,1.2,1,1.6c0.7,0.7,1.6,1,2.7,1c1,0,1.9-0.4,2.7-1.1
			c0.7-0.7,1.1-1.6,1.1-2.6C155.6,23.9,155.3,23.1,154.7,22.5z"/>
		<path class="st0" d="M90.5,25.1c-0.9,1.3-2.2,1.9-4,1.9c-1.4,0-2.6-0.5-3.6-1.5s-1.5-2.2-1.5-3.6s0.5-2.6,1.5-3.6s2.2-1.5,3.6-1.5
			c1.8,0,3.1,0.7,4,2.1l1.2-1c-0.4-0.6-0.9-1-1.6-1.4c-1.1-0.7-2.3-1.1-3.7-1.1c-1.8,0-3.4,0.6-4.7,1.9c-1.3,1.3-2,2.8-2,4.6
			c0,1.8,0.6,3.3,1.9,4.6c1.3,1.2,2.8,1.8,4.7,1.8c2.1,0,3.8-0.8,5.1-2.3L90.5,25.1z"/>
	</g>
</g>
<path class="st0" d="M28.8,36.9H8.1c-4.4,0-8.1-3.6-8.1-8.1V8.1C0,3.7,3.6,0,8.1,0h20.7c4.4,0,8.1,3.6,8.1,8.1v20.7
	C36.9,33.3,33.2,36.9,28.8,36.9z"/>
<g>
	<g>
		<polygon class="st1" points="18.4,18.5 9.1,14.1 18.4,9.8 27.8,14.1 		"/>
		<polygon class="st1" points="18.4,20.1 12.9,17.5 9.1,19.2 18.4,23.6 27.8,19.2 24,17.5 		"/>
		<polygon class="st1" points="18.4,24.8 12.9,22.3 9.1,24 18.4,28.3 27.8,24 24,22.3 		"/>
	</g>
</g>
</svg>
