<?xml version="1.0" encoding="utf-8"?>
<!-- Generator: Adobe Illustrator 23.0.0, SVG Export Plug-In . SVG Version: 6.00 Build 0)  -->
<svg version="1.1" id="a90b5256-b423-42d1-825d-5fdc0dc55c5f"
	 xmlns="http://www.w3.org/2000/svg" xmlns:xlink="http://www.w3.org/1999/xlink" x="0px" y="0px" viewBox="0 0 883 684.5"
	 style="enable-background:new 0 0 883 684.5;" xml:space="preserve">
<style type="text/css">
	.st0{fill:none;stroke:#9DD4F9;stroke-width:0.5;stroke-linejoin:round;stroke-miterlimit:10;stroke-dasharray:3.5;}
	.st1{fill:none;stroke:#9DD4F9;stroke-width:0.5;stroke-linejoin:round;stroke-miterlimit:10;}
	.st2{fill:#CFE7FF;}
	.st3{fill:#FFFFFF;stroke:#418BE5;stroke-width:0.5;stroke-linejoin:round;stroke-miterlimit:10;}
	.st4{fill:none;stroke:#77BAFC;stroke-width:0.5;stroke-linejoin:round;stroke-miterlimit:10;}
	.st5{fill:#FDD305;}
	.st6{fill:none;stroke:#FFFFFF;stroke-width:0.5;stroke-miterlimit:10;}
	.st7{fill:none;stroke:#FFEE99;stroke-width:0.5;stroke-linecap:round;stroke-linejoin:bevel;stroke-miterlimit:10;}
	.st8{fill:#FFEE99;}
	.st9{opacity:0.55;fill:#FFC043;}
	.st10{fill:#28364C;}
	.st11{fill:#475577;}
	.st12{fill:none;stroke:#418BE5;stroke-linejoin:round;stroke-miterlimit:10;}
	.st13{fill:#418BE5;}
	.st14{fill:#FFDAC5;}
	.st15{fill:#FF5E4D;}
	.st16{fill:none;stroke:#313131;stroke-width:0.75;stroke-miterlimit:10;}
	.st17{fill:#313131;}
	.st18{fill:none;stroke:#696C70;stroke-width:0.75;stroke-miterlimit:10;}
	.st19{fill:#1465DB;}
	.st20{fill:none;stroke:#1135CC;stroke-width:0.75;stroke-miterlimit:10;}
	.st21{fill:#FFFFFF;}
	.st22{fill:#00276F;}
	.st23{fill:none;stroke:#00276F;stroke-width:0.5;stroke-linecap:round;stroke-linejoin:round;stroke-miterlimit:10;}
	.st24{fill:#0B0B3A;}
	.st25{fill:#BA3E35;}
	.st26{fill:none;stroke:#F2A486;stroke-width:0.75;stroke-linejoin:round;stroke-miterlimit:10;}
	.st27{fill:#437CF9;}
	.st28{fill:#FFFFFF;stroke:#77BAFC;stroke-width:0.5;stroke-linejoin:round;stroke-miterlimit:10;}
	.st29{fill:none;stroke:#77BAFC;stroke-linejoin:round;stroke-miterlimit:10;}
	.st30{fill:#F9C5AC;}
	.st31{fill:none;stroke:#418BE5;stroke-width:0.5;stroke-linejoin:round;stroke-miterlimit:10;}
	.st32{fill:none;stroke:#313131;stroke-width:0.5;stroke-miterlimit:10;}
	.st33{fill:none;stroke:#696C70;stroke-width:0.5;stroke-miterlimit:10;}
	.st34{fill:none;stroke:#1135CC;stroke-width:0.5;stroke-miterlimit:10;}
	.st35{fill:none;stroke:#F2A486;stroke-width:0.5;stroke-linejoin:round;stroke-miterlimit:10;}
	.st36{fill:#212237;}
</style>
<g>
	<g>
		<path class="st0" d="M844,273.8c-14.1-12-32.6-20.1-54.3-23.1c-44.3-6-83.9,22.3-127.7,17.2c-31.8-3.7-51.7-20.9-61.4-48.3
			c-24.6-69.3-67.3-95.8-114.7-99.1c-16-1.1-39.1,6.4-55.9,17.5c-20.5,13.6-35.4,9.9-57.3,3.9c-45.7-12.5-93-25.4-137-0.1
			c-36.4,21-40.9,53.3-44,92.1c-3,37.2-25.6,64.2-54.2,86c-27.3,20.8-64.5,38.5-83,68.6c-28.7,46.6,5.3,106.8,52.8,123.8
			c67.3,24.1,121.1,10.8,189.8-0.6c27.4-4.5,55.8-7.7,83.3-2.4c26.4,5.2,51.5,19.4,79.2,15.9c30-3.8,49.3-34.2,77.5-45.2
			c26.6-10.3,54.3-1.5,80.7,4.7c54.5,12.8,131.8-2.9,181-30.7c33.4-18.9,62.2-48.9,71.8-86.9C880.1,328.9,869.1,295.2,844,273.8z"/>
		<g>
			<line class="st1" x1="803.8" y1="222.3" x2="803.8" y2="228.4"/>
			<line class="st1" x1="806.9" y1="225.3" x2="800.8" y2="225.3"/>
		</g>
		<g>
			<line class="st1" x1="853.9" y1="485.5" x2="853.9" y2="491.6"/>
			<line class="st1" x1="857" y1="488.5" x2="850.9" y2="488.5"/>
		</g>
		<g>
			<line class="st1" x1="685.7" y1="431.3" x2="685.7" y2="437.4"/>
			<line class="st1" x1="688.7" y1="434.3" x2="682.7" y2="434.3"/>
		</g>
		<g>
			<line class="st1" x1="336.9" y1="181" x2="336.9" y2="187.1"/>
			<line class="st1" x1="339.9" y1="184" x2="333.9" y2="184"/>
		</g>
		<g>
			<line class="st1" x1="206" y1="130.6" x2="206" y2="136.7"/>
			<line class="st1" x1="209.1" y1="133.6" x2="203" y2="133.6"/>
		</g>
		<g>
			<line class="st1" x1="38.2" y1="297" x2="38.2" y2="303.1"/>
			<line class="st1" x1="41.3" y1="300" x2="35.2" y2="300"/>
		</g>
		<g>
			<line class="st1" x1="71.5" y1="519.7" x2="71.5" y2="525.8"/>
			<line class="st1" x1="74.5" y1="522.8" x2="68.5" y2="522.8"/>
		</g>
		<g>
			<line class="st1" x1="445.1" y1="131.4" x2="445.1" y2="137.5"/>
			<line class="st1" x1="448.1" y1="134.5" x2="442.1" y2="134.5"/>
		</g>
		<path class="st1" d="M332.3,77c0,1.6-1.3,2.9-2.9,2.9c-1.6,0-2.9-1.3-2.9-2.9c0-1.6,1.3-2.9,2.9-2.9C331,74.1,332.3,75.4,332.3,77
			z"/>
		<path class="st1" d="M594.2,110c0,1.6-1.3,2.9-2.9,2.9c-1.6,0-2.9-1.3-2.9-2.9c0-1.6,1.3-2.9,2.9-2.9
			C592.9,107.1,594.2,108.4,594.2,110z"/>
		<path class="st1" d="M165.3,212.6c0,1.6-1.3,2.9-2.9,2.9c-1.6,0-2.9-1.3-2.9-2.9c0-1.6,1.3-2.9,2.9-2.9
			C164,209.7,165.3,211,165.3,212.6z"/>
		<path class="st1" d="M737.3,190c0,1.6-1.3,2.9-2.9,2.9c-1.6,0-2.9-1.3-2.9-2.9c0-1.6,1.3-2.9,2.9-2.9
			C736,187.1,737.3,188.4,737.3,190z"/>
		<path class="st1" d="M842.1,306.9c0,1.6-1.3,2.9-2.9,2.9c-1.6,0-2.9-1.3-2.9-2.9c0-1.6,1.3-2.9,2.9-2.9
			C840.8,304,842.1,305.3,842.1,306.9z"/>
		<path class="st1" d="M19.7,385.3c0,1.6-1.3,2.9-2.9,2.9c-1.6,0-2.9-1.3-2.9-2.9c0-1.6,1.3-2.9,2.9-2.9
			C18.4,382.4,19.7,383.7,19.7,385.3z"/>
		<path class="st1" d="M237.2,334.9c0,1.6-1.3,2.9-2.9,2.9c-1.6,0-2.9-1.3-2.9-2.9c0-1.6,1.3-2.9,2.9-2.9
			C235.9,331.9,237.2,333.3,237.2,334.9z"/>
		<g>
			<line class="st1" x1="71.5" y1="225.3" x2="104.3" y2="225.3"/>
			<line class="st1" x1="114.3" y1="225.3" x2="129" y2="225.3"/>
		</g>
		<g>
			<line class="st1" x1="675.4" y1="231.2" x2="708.2" y2="231.2"/>
			<line class="st1" x1="718.2" y1="231.2" x2="732.9" y2="231.2"/>
		</g>
		<g>
			<line class="st1" x1="296.9" y1="98.4" x2="274.6" y2="98.4"/>
			<line class="st1" x1="267.3" y1="98.4" x2="255.2" y2="98.4"/>
		</g>
		<line class="st1" x1="645.5" y1="198.3" x2="669.5" y2="198.3"/>
		<line class="st1" x1="822.1" y1="355.2" x2="846.1" y2="355.2"/>
		<line class="st1" x1="839.2" y1="346.5" x2="855" y2="346.5"/>
	</g>
	<g>
		<g>
			<path class="st2" d="M627,273.7c2.2-3.8,3.9-7.9,5.2-12.3c1.3-4.4,2-8.8,2.2-13.2l-12.1-1.7c0.1-4.1-0.4-8.1-1.3-11.9l11.4-4.3
				c-2.4-8.7-6.8-16.7-12.8-23.3l-9.7,7.4c-2.7-2.9-5.9-5.4-9.4-7.5l5.1-11.1c-3.8-2.2-7.9-3.9-12.3-5.2c-4.4-1.3-8.8-2-13.2-2.2
				l-1.7,12.1c-4.1-0.1-8.1,0.4-11.9,1.3l-4.3-11.4c-8.7,2.4-16.7,6.8-23.3,12.8l7.4,9.7c-2.9,2.7-5.4,5.9-7.5,9.4l-11.1-5.1
				c-2.2,3.8-3.9,7.9-5.2,12.3c-1.3,4.4-2,8.8-2.2,13.2l12.1,1.7c-0.1,4.1,0.4,8.1,1.3,11.9l-11.4,4.3c2.4,8.7,6.8,16.7,12.8,23.3
				l9.7-7.4c2.7,2.9,5.9,5.4,9.4,7.5l-5.1,11.1c3.8,2.2,7.9,3.9,12.3,5.2c4.4,1.3,8.8,2,13.2,2.2l1.7-12.1c4.1,0.1,8.1-0.4,11.9-1.3
				l4.3,11.4c8.7-2.4,16.7-6.8,23.3-12.8l-7.4-9.7c2.9-2.7,5.4-5.9,7.5-9.4L627,273.7z M569.2,273.1c-15.3-4.4-24.1-20.5-19.7-35.8
				c4.4-15.3,20.5-24.1,35.8-19.7c15.3,4.4,24.1,20.5,19.7,35.8C600.6,268.7,584.5,277.5,569.2,273.1z M571.4,265.8
				c-11.3-3.3-17.8-15.1-14.5-26.4c3.3-11.3,15.1-17.8,26.4-14.5c11.3,3.3,17.8,15.1,14.5,26.4C594.5,262.6,582.7,269.1,571.4,265.8
				z"/>
		</g>
		<g>
			<path class="st2" d="M650.1,153.8c-0.2-2.3-0.7-4.6-1.4-6.8c-0.7-2.3-1.8-4.4-3-6.3l-5.6,2.8c-1.2-1.8-2.5-3.3-4.1-4.7l3.6-5.2
				c-3.6-3-7.8-5.1-12.4-6.2l-2,6c-2-0.4-4.1-0.6-6.2-0.5l-1.1-6.2c-2.3,0.2-4.6,0.7-6.8,1.4c-2.3,0.8-4.4,1.8-6.3,3l2.8,5.7
				c-1.8,1.2-3.4,2.5-4.7,4.1l-5.2-3.6c-3,3.6-5.1,7.8-6.2,12.4l6,2c-0.4,2-0.6,4.1-0.4,6.2l-6.2,1.1c0.2,2.3,0.7,4.6,1.4,6.8
				c0.8,2.3,1.8,4.4,3,6.3l5.7-2.8c1.2,1.8,2.5,3.3,4.1,4.7l-3.6,5.2c3.6,3,7.8,5.1,12.4,6.2l2-6c2,0.4,4.1,0.6,6.2,0.4l1.1,6.2
				c2.3-0.2,4.6-0.7,6.8-1.4c2.3-0.8,4.4-1.8,6.3-3l-2.8-5.7c1.8-1.1,3.3-2.5,4.7-4.1l5.2,3.6c3-3.6,5.1-7.8,6.2-12.4l-6-2
				c0.4-2,0.6-4.1,0.5-6.2L650.1,153.8z M624.5,168.3c-6.6,2.2-13.7-1.4-15.9-8c-2.2-6.6,1.4-13.7,8-15.9c6.6-2.2,13.7,1.4,15.9,8
				C634.6,159,631.1,166.1,624.5,168.3z"/>
		</g>
		<g>
			<path class="st2" d="M586.7,134.8c-0.3-3.5-1-7-2.2-10.4c-1.1-3.5-2.7-6.7-4.5-9.6l-8.6,4.4c-1.8-2.7-3.9-5.1-6.3-7.2l5.5-7.9
				c-5.5-4.6-12-7.8-18.9-9.5l-3,9.2c-3.1-0.7-6.3-0.9-9.5-0.7l-1.7-9.5c-3.5,0.3-7,1-10.4,2.2c-3.5,1.1-6.7,2.7-9.6,4.5l4.4,8.6
				c-2.7,1.8-5.1,3.9-7.2,6.3l-7.9-5.6c-4.6,5.5-7.8,12-9.5,18.9l9.2,3c-0.6,3.1-0.9,6.3-0.7,9.5l-9.5,1.7c0.3,3.5,1,7,2.2,10.4
				c1.1,3.5,2.7,6.7,4.5,9.6l8.6-4.3c1.8,2.7,3.9,5.1,6.3,7.2l-5.6,7.9c5.5,4.6,12,7.8,18.9,9.5l3-9.2c3.1,0.6,6.3,0.9,9.5,0.7
				l1.7,9.5c3.5-0.3,7-1,10.4-2.1c3.4-1.2,6.7-2.7,9.6-4.5l-4.4-8.6c2.7-1.8,5.1-3.9,7.2-6.3l7.9,5.6c4.6-5.5,7.8-12,9.5-18.9
				l-9.2-3c0.6-3.1,0.9-6.3,0.7-9.5L586.7,134.8z M547.5,157.1c-10.1,3.4-21-2.1-24.4-12.2s2.1-21,12.2-24.4
				c10.1-3.4,21,2.1,24.4,12.2C563.1,142.8,557.7,153.7,547.5,157.1z"/>
		</g>
		<g>
			<path class="st2" d="M403.7,299.9c1.3-2.3,2.4-4.7,3.1-7.4c0.8-2.6,1.2-5.3,1.3-7.9l-7.2-1c0.1-2.4-0.2-4.8-0.8-7.1l6.8-2.5
				c-1.4-5.2-4-9.9-7.6-13.9l-5.8,4.4c-1.6-1.7-3.5-3.2-5.6-4.5l3-6.6c-2.3-1.3-4.7-2.3-7.3-3.1c-2.6-0.8-5.3-1.2-7.9-1.3l-1,7.2
				c-2.4-0.1-4.8,0.2-7.1,0.8l-2.5-6.8c-5.2,1.4-9.9,4-13.9,7.6l4.4,5.8c-1.7,1.6-3.2,3.5-4.5,5.6l-6.6-3c-1.3,2.3-2.4,4.7-3.1,7.4
				c-0.8,2.6-1.2,5.3-1.3,7.9l7.2,1c-0.1,2.4,0.2,4.8,0.8,7.1l-6.8,2.5c1.4,5.2,4,9.9,7.6,13.9l5.8-4.4c1.6,1.7,3.5,3.2,5.6,4.5
				l-3,6.6c2.3,1.3,4.7,2.3,7.3,3.1c2.6,0.7,5.3,1.2,7.9,1.3l1-7.2c2.4,0.1,4.8-0.2,7.1-0.8l2.5,6.8c5.2-1.4,9.9-4,13.9-7.6
				l-4.4-5.8c1.7-1.6,3.2-3.5,4.5-5.6L403.7,299.9z M369.3,299.6c-9.1-2.6-14.4-12.2-11.7-21.3c2.6-9.1,12.2-14.4,21.3-11.7
				c9.1,2.6,14.4,12.2,11.7,21.3C387.9,297,378.4,302.2,369.3,299.6z M370.5,295.2c-6.7-1.9-10.6-9-8.6-15.7c2-6.7,9-10.6,15.7-8.6
				c6.7,2,10.6,9,8.6,15.7C384.3,293.3,377.3,297.2,370.5,295.2z"/>
		</g>
	</g>
	<g>
		<g>
			<path class="st3" d="M710.5,509.1h-90.6c-0.4,0-0.8-0.4-0.8-0.8v-40.1c0-0.4,0.4-0.8,0.8-0.8h90.6c0.4,0,0.8,0.4,0.8,0.8v40.1
				C711.3,508.7,710.9,509.1,710.5,509.1z"/>
			<g>
				<path class="st4" d="M635.2,479.7c0,1.7-1.4,3.1-3.1,3.1c-1.7,0-3.1-1.4-3.1-3.1c0-1.7,1.4-3.1,3.1-3.1
					C633.8,476.6,635.2,478,635.2,479.7z"/>
				<path class="st4" d="M652.4,479.7c0,1.7-1.4,3.1-3.1,3.1c-1.7,0-3.1-1.4-3.1-3.1c0-1.7,1.4-3.1,3.1-3.1
					C651,476.6,652.4,478,652.4,479.7z"/>
				<path class="st4" d="M669.6,479.7c0,1.7-1.4,3.1-3.1,3.1c-1.7,0-3.1-1.4-3.1-3.1c0-1.7,1.4-3.1,3.1-3.1
					C668.2,476.6,669.6,478,669.6,479.7z"/>
				<path class="st4" d="M686.7,479.7c0,1.7-1.4,3.1-3.1,3.1c-1.7,0-3.1-1.4-3.1-3.1c0-1.7,1.4-3.1,3.1-3.1
					C685.3,476.6,686.7,478,686.7,479.7z"/>
				<path class="st4" d="M703.9,479.7c0,1.7-1.4,3.1-3.1,3.1c-1.7,0-3.1-1.4-3.1-3.1c0-1.7,1.4-3.1,3.1-3.1
					C702.5,476.6,703.9,478,703.9,479.7z"/>
			</g>
			<path class="st4" d="M464,327.5V506c0,9.2,7.5,16.8,16.8,16.8H684c9.3,0,16.8-7.5,16.8-16.8l0,0v-26.3"/>
			<path class="st4" d="M453.6,327.5v201.8c0,9.2,7.5,16.8,16.8,16.8h162.2c9.2,0,16.8-7.5,16.8-16.8v-49.6"/>
			<path class="st3" d="M412.3,377h-75.9c-0.4,0-0.8-0.4-0.8-0.8v-41.1c0-0.4,0.4-0.8,0.8-0.8h75.9c0.4,0,0.8,0.4,0.8,0.8v41.1
				C413,376.6,412.7,377,412.3,377z"/>
			<g>
				<path class="st4" d="M351.7,355.5c0,1.7-1.4,3.1-3.1,3.1c-1.7,0-3.1-1.4-3.1-3.1c0-1.7,1.4-3.1,3.1-3.1
					C350.3,352.4,351.7,353.8,351.7,355.5z"/>
				<path class="st4" d="M368.9,355.5c0,1.7-1.4,3.1-3.1,3.1c-1.7,0-3.1-1.4-3.1-3.1c0-1.7,1.4-3.1,3.1-3.1
					C367.5,352.4,368.9,353.8,368.9,355.5z"/>
				<path class="st4" d="M386,355.5c0,1.7-1.4,3.1-3.1,3.1c-1.7,0-3.1-1.4-3.1-3.1c0-1.7,1.4-3.1,3.1-3.1
					C384.6,352.4,386,353.8,386,355.5z"/>
				<path class="st4" d="M403.2,355.5c0,1.7-1.4,3.1-3.1,3.1c-1.7,0-3.1-1.4-3.1-3.1c0-1.7,1.4-3.1,3.1-3.1
					C401.8,352.4,403.2,353.8,403.2,355.5z"/>
			</g>
			<path class="st3" d="M272.2,421.8h-75.9c-0.4,0-0.8-0.4-0.8-0.8v-41.1c0-0.4,0.4-0.8,0.8-0.8h75.9c0.4,0,0.8,0.4,0.8,0.8V421
				C273,421.5,272.7,421.8,272.2,421.8z"/>
			<g>
				<path class="st4" d="M211.7,400.4c0,1.7-1.4,3.1-3.1,3.1c-1.7,0-3.1-1.4-3.1-3.1c0-1.7,1.4-3.1,3.1-3.1
					C210.3,397.3,211.7,398.6,211.7,400.4z"/>
				<path class="st4" d="M228.8,400.4c0,1.7-1.4,3.1-3.1,3.1c-1.7,0-3.1-1.4-3.1-3.1c0-1.7,1.4-3.1,3.1-3.1
					C227.4,397.3,228.8,398.6,228.8,400.4z"/>
				<path class="st4" d="M246,400.4c0,1.7-1.4,3.1-3.1,3.1c-1.7,0-3.1-1.4-3.1-3.1c0-1.7,1.4-3.1,3.1-3.1
					C244.6,397.3,246,398.6,246,400.4z"/>
				<path class="st4" d="M263.2,400.4c0,1.7-1.4,3.1-3.1,3.1c-1.7,0-3.1-1.4-3.1-3.1c0-1.7,1.4-3.1,3.1-3.1
					C261.8,397.3,263.2,398.6,263.2,400.4z"/>
			</g>
			<path class="st4" d="M430,323.1V463c0,9.3-7.5,16.8-16.8,16.8H225.3c-9.3,0-16.8-7.5-16.8-16.8v-62.6"/>
			<path class="st4" d="M382.9,355.5v95.1c0,9.3,7.5,16.8,16.8,16.8h25c9.3,0,16.8-7.5,16.8-16.8v-123"/>
		</g>
		<g>
			<path class="st5" d="M351.7,156.9c0-52.8,42.8-95.6,95.6-95.6c52.8,0,95.6,42.8,95.6,95.6c0,21.1-6.8,40.5-18.3,56.3h0
				c-13.7,20.6-49.1,43.8-49.1,57.7v15.9c0,3.2-2.6,5.7-5.7,5.7h-15.4h-14.1h-15.4c-3.2,0-5.7-2.6-5.7-5.7v-15.9
				c0-13.9-35.5-37.1-49.1-57.7l0,0C358.5,197.4,351.7,177.9,351.7,156.9z"/>
			<path class="st6" d="M461.2,317.6c0,0-4.2-116.4,18.6-139.8c9-9.1,17.1-1.9,16.9,4.6c-0.4,12-10.9,27-26.7,32.7
				c-17,6.1-31.5-13.3-37.8-32.7c-5.2-16.3-1.3-37.6,15.1-37.6h0c16.4,0,20.4,21.3,15.1,37.6c-6.2,19.4-20.8,38.8-37.8,32.7
				c-15.9-5.7-26.3-20.7-26.7-32.7c-0.2-6.5,7.9-13.7,16.9-4.6c22.9,23.3,18.6,139.8,18.6,139.8"/>
			<path class="st7" d="M466.9,79.6c34.5,8.7,60.1,40,60.1,77.3"/>
			<path class="st8" d="M445.4,77c0,3,2.5,5.5,5.5,5.5c3,0,5.5-2.5,5.5-5.5c0-3-2.5-5.5-5.5-5.5C447.9,71.6,445.4,74,445.4,77z"/>
			<path class="st9" d="M542.7,162.5c-5.3,39.2-36.9,79.8-95.4,79.8c-58.5,0-89-42.5-95.4-79.8c1.1,18.9,7.7,36.3,18.1,50.6l0,0
				c13.6,20.6,49.1,43.8,49.1,57.7v15.9c0,3.2,2.6,5.7,5.7,5.7h15.4h14.1h15.4c3.2,0,5.7-2.6,5.7-5.7v-15.9
				c0-13.9,35.5-37.1,49.1-57.7h0C535,198.8,541.6,181.4,542.7,162.5z"/>
			<path class="st10" d="M477.7,277.7h-60.9v29c0,4.7,1.3,9.4,3.9,13.4l0,0c4.8,7.6,13.1,12.1,22.1,12.1h8.9c9,0,17.3-4.6,22.1-12.1
				l0,0c2.5-4,3.9-8.6,3.9-13.4V277.7z"/>
			<g>
				<g>
					<path class="st11" d="M477.7,299.1c-0.2,0-0.3,0-0.5,0l-60.9-8.4c-2.1-0.3-3.5-2.2-3.2-4.3c0.3-2.1,2.2-3.5,4.3-3.2l60.9,8.4
						c2.1,0.3,3.5,2.2,3.2,4.3C481.2,297.7,479.6,299.1,477.7,299.1z"/>
				</g>
			</g>
			<g>
				<g>
					<path class="st11" d="M477.7,312.3c-0.2,0-0.3,0-0.5,0l-60.9-8.4c-2.1-0.3-3.5-2.2-3.2-4.3c0.3-2.1,2.2-3.5,4.3-3.2l60.9,8.4
						c2.1,0.3,3.5,2.2,3.2,4.3C481.2,311,479.6,312.3,477.7,312.3z"/>
				</g>
			</g>
			<g>
				<g>
					<path class="st11" d="M475.3,325.4c-0.2,0-0.4,0-0.5,0l-57.7-8c-2.1-0.3-3.5-2.2-3.2-4.3c0.3-2.1,2.2-3.5,4.3-3.2l57.7,8
						c2.1,0.3,3.5,2.2,3.2,4.3C478.8,324,477.1,325.4,475.3,325.4z"/>
				</g>
			</g>
		</g>
	</g>
	<g>
		<g>
			<g>
				<g>
					<g>
						<line class="st12" x1="330.7" y1="462.9" x2="309.8" y2="580.1"/>
						<line class="st12" x1="255.3" y1="462.9" x2="234.3" y2="580.1"/>
						<line class="st12" x1="327.7" y1="479.7" x2="252.3" y2="479.7"/>
						<line class="st12" x1="323.8" y1="502" x2="248.3" y2="502"/>
						<line class="st12" x1="319.8" y1="524.2" x2="244.3" y2="524.2"/>
						<line class="st12" x1="315.8" y1="546.5" x2="240.3" y2="546.5"/>
						<line class="st12" x1="311.8" y1="568.7" x2="236.3" y2="568.7"/>
					</g>
				</g>
				<g>
					<g>
						<line class="st12" x1="255.3" y1="462.9" x2="276.3" y2="580.1"/>
						<line class="st12" x1="330.7" y1="462.9" x2="351.7" y2="580.1"/>
						<line class="st12" x1="258.3" y1="479.7" x2="333.8" y2="479.7"/>
						<line class="st12" x1="262.3" y1="502" x2="337.7" y2="502"/>
						<line class="st12" x1="266.3" y1="524.2" x2="341.7" y2="524.2"/>
						<line class="st12" x1="270.3" y1="546.5" x2="345.7" y2="546.5"/>
						<line class="st12" x1="274.3" y1="568.7" x2="349.7" y2="568.7"/>
					</g>
				</g>
			</g>
			<rect x="238.8" y="458.7" class="st13" width="108.5" height="5.8"/>
		</g>
		<g>
			<g>
				<g>
					<g>
						<g>
							<path class="st14" d="M295.9,407.9l4.6,34.9l-0.3,11.5l44.9-0.2c1.1,0,2-0.9,2-2l0,0c0-0.8-0.5-1.6-1.3-1.8l-19.4-8.9
								l-2.9-36.4"/>
							<path class="st15" d="M349.1,453.5c-0.5-1.4-1.3-3.1-2.1-3.4l-20.5-8.8c-11.3,4.6-26,1.1-26,1.1l-2.6,15.5
								c0,0.5,0.4,0.9,0.9,0.9l50-0.3C349.7,458.5,349.1,453.6,349.1,453.5z"/>
							<path class="st16" d="M330.8,442.1c-1.2,1.5-2.1,3.1-2.9,4.9"/>
							<path class="st16" d="M333.4,443.7c-1.2,1.6-1.7,2.6-2.4,4.1"/>
							<path class="st16" d="M335.6,444.8c-0.8,1.1-1.6,2.6-2.2,3.8"/>
						</g>
						<line class="st16" x1="298.1" y1="455.4" x2="349.3" y2="455.1"/>
						<path class="st16" d="M299.5,447.8c0,0,12,0.2,13.1,7.5"/>
						<path class="st16" d="M342.7,448.3c0,0-3.3,4.7-4,6.9"/>
					</g>
				</g>
				<g>
					<g>
						<g>
							<path class="st14" d="M251.2,407.9l-4,34.9l-0.3,11.5l44.9-0.2c1.1,0,2-0.9,2-2l0,0c0-0.8-0.5-1.6-1.3-1.8l-19.4-8.9
								l5.8-36.4"/>
							<path class="st15" d="M295.8,453.5c-0.5-1.4-1.3-3.1-2.1-3.4l-20.5-8.8c-11.3,4.6-26,1.1-26,1.1l-2.6,15.5
								c0,0.5,0.4,0.9,0.9,0.9l50-0.3C296.4,458.5,295.8,453.6,295.8,453.5z"/>
							<path class="st16" d="M277.5,442.1c-1.1,1.5-2.1,3.1-2.9,4.9"/>
							<path class="st16" d="M280.1,443.7c-1.2,1.6-1.7,2.6-2.4,4.1"/>
							<path class="st16" d="M282.3,444.8c-0.8,1.1-1.6,2.6-2.2,3.8"/>
						</g>
						<line class="st16" x1="244.8" y1="455.4" x2="296" y2="455.1"/>
						<path class="st16" d="M246.2,447.8c0,0,12,0.2,13.1,7.5"/>
						<path class="st16" d="M289.4,448.3c0,0-3.3,4.7-4,6.9"/>
					</g>
				</g>
				<path class="st17" d="M293,263.6l-12.2,171.9h-34.9l8.2-136.2c0,0-4.7-9.2-2.5-32"/>
				<line class="st18" x1="275.2" y1="435.5" x2="286.4" y2="291.4"/>
				<path class="st17" d="M317.3,263.6l13.2,171.9h-34.9l-14.4-129.7c-0.4-3.8-0.1-7.4-2.1-10.6c-2.8-4.4-6.7-13.2-6.9-28"/>
				<path class="st18" d="M318.7,435.5c0,0-11.7-150.4-13.8-171.9"/>
				<path class="st18" d="M286.4,352.4l-5.5-49.3c-0.2-2.3-1.1-4.6-2.4-6.5c-1.8-2.5-4.5-7.2-6.2-14.7"/>
				<line class="st18" x1="282.2" y1="279.8" x2="293.8" y2="278.7"/>
				<line class="st18" x1="251.1" y1="283.2" x2="259.3" y2="282.5"/>
				<path class="st18" d="M306.3,279.2c0,0,7-2.2,7.9-8.1"/>
			</g>
			<g>
				<g>
					<path class="st14" d="M300.5,178.4c0,0,26.8-28.9,56.7-55.5l-14-13.1c-31,22.3-63.4,57.3-63.4,57.3"/>
					<path class="st19" d="M250,202.9c3.7-20.9,14.2-31.2,51.3-58.3l17.5,18l-22.5,22.2"/>
					<line class="st20" x1="296.6" y1="147.8" x2="315" y2="166.4"/>
					<g>
						<path class="st14" d="M352.9,126.7c5-5,21.7-17.1,21.3-18.5c-0.4-1.4-6.4,2.8-6.5,1.6c-0.1-1.2,8.6-8.3,7.8-9.5
							c-1.1-1.7-9.6,6-9.6,6s8.9-8.9,7.6-10.1c-1-0.9-8.1,5.6-11.1,7.8c3-2.7,7.3-7.7,6.3-8.6c-1-0.9-6,3.4-9.9,6.5
							c2.3-2.2,6.3-6.3,5.4-7.2c-0.9-0.9-16.7,10.3-29.8,22.2"/>
					</g>
				</g>
				<path class="st14" d="M307.9,193.1c0,0,14.2,12.3,29.4,20.5c6.7,3.6,37.8-0.3,37.8-0.3s9.8,9.3,7.1,17.9
					c-5.7,1.9-41,7.9-51.7,3.1c-20.3-9.1-40.8-26.3-40.8-26.3"/>
				<g>
					<path class="st14" d="M368.1,214.1c7-0.7,28.8-5.9,29.6-4.7c0.8,1.2-6.2,3.2-5.3,4c0.9,0.8,11.8-1.5,12.3-0.1
						c0.7,1.9-10.7,3.7-10.7,3.7s12.6-1.3,12.7,0.5c0.1,1.3-9.5,2.7-13,3.8c4-0.6,10.6-0.8,10.7,0.5c0.1,1.3-6.4,2.5-11.3,3.6
						c3.1-0.4,8.9-0.9,9,0.4c0.1,1.2-15.1,5.8-34.2,8.2"/>
				</g>
				<g>
					<path class="st14" d="M272.1,162.1l-3.5,17.7c0,0,9.9,10,20.3,0.7l-0.1-11.8L272.1,162.1z"/>
					<path class="st14" d="M290.8,145.5c0,0,8.4,16.9,3.2,22.5c-2.7,2.9-6.7,4-10.3,1.3c-2.7-2-12.9-14.1-11.4-16.4
						C277.7,144,290.8,145.5,290.8,145.5z"/>
					<path class="st14" d="M294.2,155c0,0,3.1,3.1,3.1,5.2c0,0.9-3.1,1-3.1,1"/>
					<path class="st21" d="M294,162.9l-5.5-0.8C288.3,164.2,292.4,169.4,294,162.9z"/>
					<g>
						<g>
							<path class="st22" d="M290.1,154.7c-0.1,0.5,0,1.1,0.4,1.4c0.2,0.1,0.5,0.1,0.5-0.2c0-0.4-0.2-0.8-0.3-1.3
								C290.6,154.4,290.2,154.4,290.1,154.7L290.1,154.7z"/>
						</g>
					</g>
					<path class="st23" d="M287.4,153.7c0.6-0.9,1.6-1.5,2.6-1.5c0.4,0,0.9,0,1.3,0.3"/>
					<g>
						<path class="st24" d="M270.3,146.7c-0.5-0.1,1.5-3.5,1.7-3.7c1-1,2.4-1.7,3.8-2c2-0.5,4-0.6,6-0.5c1.3,0.1,2.6,0.2,3.8,0.3
							c1.4,0.2,2.5,0.7,3.8,1.3c0.4,0.2,0.7,0.3,1,0.5c0.9,0.6,1.4,1.6,1.7,2.6c0.5,1.4,0.9,3.5-0.8,4.2c-1.6,0.7-3.5,0.2-5.1,0.8
							c-3.1,1.1-1.5,4-3.2,6.2c-2.7,3.6-0.9,8.9-5.4,11.6c-2.5,1.6-5.8,1.1-8.7,0.6c-0.4-0.1-0.7-0.1-1-0.4c-1-0.8-0.6-3.5-0.9-4.7
							c-0.9-3.8-1.7-9.3-1.4-13.2C267.7,146.2,269.1,146.4,270.3,146.7z"/>
					</g>
					<g>
						<path class="st25" d="M281.7,147c0,0,3.2,3.4,7.4,3.9c2.6,0.3,10.7,0.1,12.9-1.5c1-0.8-6.7-2.4-6.7-2.4l-10-2.3"/>
						<path class="st25" d="M279.2,138.4c-0.2,0.7-0.9,1.1-1.6,0.8c-0.7-0.2-1-0.9-0.8-1.6c0.2-0.7,0.9-1.1,1.6-0.9
							C279.1,137,279.4,137.7,279.2,138.4z"/>
						<path class="st15" d="M265.8,150.3l29.5-3.4c0,0-2.6-8.7-14.7-9.1C267.7,137.4,265.8,150.3,265.8,150.3z"/>
					</g>
					<path class="st14" d="M283.3,157.3c-0.6-3.5-3.2-2.3-4.2-1.1c-1.3,1.6,0.6,5.5,1.6,6.2c2,1.4,3.7,1.5,4-0.2"/>
					<path class="st26" d="M288.5,171c-3.8-1.2-6.2-3.1-6.2-3.1"/>
				</g>
				<g>
					<path class="st27" d="M268.5,174.4c0,0-13.7,4.3-18.5,28.5c-2.1,10.8,0.3,71,0.3,71c33.2,6.5,69-3.1,69-3.1s-6.3-48.4-8.2-62.6
						c-4.3-32.9-24.7-32.7-24.7-32.7L268.5,174.4z"/>
				</g>
				<path class="st27" d="M280.6,175.1c15.2-0.7,18.2,5.8,25.4,11.3c8.5,6.4,23,18.5,23,18.5l-17.5,23.9l-29.2-19.5"/>
				<line class="st20" x1="311.5" y1="228.8" x2="287.4" y2="212.6"/>
				<line class="st20" x1="324.6" y1="202" x2="307.1" y2="225.3"/>
				<path class="st20" d="M250,269.7c0,0,25.3,6.3,68.7-2.5"/>
			</g>
		</g>
	</g>
	<g>
		<path class="st28" d="M196.4,580.3c0,0-31.5-56.9-22.6-78.3c6.9-16.6,25.4-13.1,34.5-2.2c18.9,22.9,18.9,80.4,18.9,80.4"/>
		<path class="st4" d="M185.2,491c0,0,14.8,19.8,27.3,89"/>
		<path class="st28" d="M241.2,580.3c0,0,21-45.1,11.6-62.1c-7.3-13.2-21.7-10.4-27.7-1.7c-12.5,18.2-6,63.8-6,63.8"/>
		<path class="st4" d="M242.5,509.5c0,0-12.2,15.7-14.4,70.6"/>
		<path class="st28" d="M726.5,580.3c0,0,25.9-46.9,18.6-64.5c-5.7-13.7-21-10.8-28.4-1.8c-15.6,18.9-15.6,66.3-15.6,66.3"/>
		<path class="st4" d="M735.7,506.8c0,0-12.2,16.3-22.5,73.3"/>
		<path class="st28" d="M681.1,580.3c0,0-26.1-56-14.3-77.1c9.1-16.4,26.9-12.9,34.3-2.1c15.5,22.6,7.5,79.2,7.5,79.2"/>
		<path class="st4" d="M679.5,492.4c0,0,15.1,19.5,17.9,87.7"/>
		<path class="st28" d="M639.8,580.3c0,0-19.6-42.2-10.8-58.1c6.9-12.3,20.3-9.7,25.9-1.6c11.6,17,5.6,59.7,5.6,59.7"/>
		<path class="st4" d="M638.6,514.1c0,0,11.4,14.7,13.5,66"/>
		<path class="st28" d="M379.1,580.3c0,0-26.2-56.3-15.6-77.5c8.2-16.4,26.3-13,34.3-2.1c16.7,22.7,11.7,79.6,11.7,79.6"/>
		<path class="st4" d="M375.8,491.9c0,0,12.9,19.6,19.3,88.1"/>
		<path class="st28" d="M447.7,580.3c0,0,39.2-84.3,21.6-116.1c-13.7-24.7-40.6-19.4-51.7-3.2c-23.3,34-11.3,119.3-11.3,119.3"/>
		<path class="st4" d="M450,447.9c0,0-22.7,29.4-26.9,132.1"/>
		<path class="st28" d="M471.2,580.3c0,0,38.4-61.6,29.2-84.7c-7.1-18-27.4-14.2-37.4-2.3c-20.9,24.8-22,87.1-22,87.1"/>
		<path class="st4" d="M490.8,484.7c0,0-26.2,32-37.5,95.3"/>
		<path class="st28" d="M494.8,580.3c0,0,31.8-37.2,24.2-51.2c-5.9-10.9-21.2-10.6-30.9-1.4c-13.8,13-18.2,52.6-18.2,52.6"/>
		<path class="st4" d="M511,522.6c0,0-21.7,19.3-31,57.6"/>
	</g>
	<line class="st29" x1="60.2" y1="580.1" x2="834.3" y2="580.1"/>
	<g>
		<g>
			<path class="st30" d="M761.4,344.7c0,0-15.1,11.7-28.7,15.1c-22.4,5.7-45.5,5.1-45.5,5.1l-5.4-17.7c0,0,15.1,0.6,37.5-5
				c13.5-3.4,28.7-15.1,28.7-15.1"/>
			<g>
				<path class="st30" d="M693.8,346.8c-6.3,0.6-26.3-0.4-26.9,0.8c-0.5,1.2,6,1.7,5.4,2.6c-0.6,0.9-10.7,0.7-10.9,2
					c-0.3,1.8,10,1.4,10,1.4s-11.3,0.9-11,2.6c0.1,1.1,9,1,12.3,1.3c-3.6,0.1-10.2,0.3-10.1,1.5c0.2,1.2,6.7,2.2,11.2,2.3
					c-2.8,0.2-8.1,0.2-8,1.3c0.1,1.1,14.6,3.3,32.7,2"/>
			</g>
			<path class="st19" d="M767.4,308.5c-7.8,2.8-25.6,21.3-25.6,21.3l17.9,21.4l22.4-18.5"/>
		</g>
		<g>
			<path class="st3" d="M607.5,399.8c-27-12.3-38.9-44.3-26.6-71.3c12.3-27,44.3-38.9,71.3-26.6c10.8,4.9,19.1,12.9,24.5,22.5l0,0
				c7.3,11.8,10.9,35.4,18,38.6l8.1,3.7c1.6,0.7,2.3,2.7,1.6,4.3l-3.6,7.9l-3.3,7.2l-3.6,7.9c-0.7,1.6-2.7,2.3-4.3,1.6l-8.1-3.7
				c-7.1-3.3-27.3,9.4-41,11.6l0,0C629.8,405.8,618.2,404.7,607.5,399.8z"/>
			<path class="st31" d="M715.3,381.3c0,0-60.6-25.1-67.2-42.2c-2.6-6.7,3-9.2,6.3-7.5c6,3,11.3,11.9,10.5,21.3
				c-0.9,10.1-14.2,13-25.6,11.7c-9.6-1.1-19.6-8.1-15.7-16.5h0c3.8-8.4,15.7-5.4,22.8,1.1c8.5,7.7,15,19.7,7.9,27
				c-6.6,6.8-16.8,8.6-23,6c-3.4-1.4-5.2-7.3,1.6-9.7c17.3-6.2,75.9,23.1,75.9,23.1"/>
			<path class="st10" d="M698.7,363.5l-14.2,31.1l14.8,6.8c2.4,1.1,5.1,1.5,7.8,1.1l0,0c5-0.7,9.3-3.9,11.4-8.5l2.1-4.6
				c2.1-4.6,1.7-9.9-1-14.1l0,0c-1.4-2.2-3.5-4-5.9-5.1L698.7,363.5z"/>
			<g>
				<g>
					<path class="st11" d="M709.7,368.5c0,0.1-0.1,0.2-0.1,0.3L691,398c-0.6,1-2,1.3-3,0.7c-1-0.6-1.3-2-0.7-3l18.6-29.2
						c0.6-1,2-1.3,3-0.7C709.8,366.4,710.1,367.6,709.7,368.5z"/>
				</g>
			</g>
			<g>
				<g>
					<path class="st11" d="M716.5,371.6c0,0.1-0.1,0.2-0.1,0.3l-18.5,29.2c-0.6,1-2,1.3-3,0.6c-1-0.6-1.3-2-0.7-3l18.5-29.2
						c0.6-1,2-1.3,2.9-0.6C716.6,369.5,716.9,370.7,716.5,371.6z"/>
				</g>
			</g>
			<g>
				<g>
					<path class="st11" d="M722.6,375.9c0,0.1-0.1,0.2-0.1,0.3l-17.6,27.6c-0.6,1-2,1.3-3,0.6c-1-0.6-1.3-1.9-0.7-2.9l17.6-27.6
						c0.6-1,2-1.3,3-0.7C722.7,373.8,723,375,722.6,375.9z"/>
				</g>
			</g>
		</g>
		<g>
			<g>
				<g>
					<g>
						<g>
							<path class="st14" d="M584.8,539.8l4.9,34.9l0.3,11.4l-44.9-0.2c-1.1,0-2-0.9-2-2l0,0c0-0.8,0.5-1.6,1.3-1.8l19.4-8.9
								l-8.9-36.4"/>
							<path class="st15" d="M541.1,585.5c0.5-1.4,1.3-3.1,2.1-3.4l20.5-8.9c11.3,4.6,26,1.1,26,1.1l2.6,15.5c0,0.5-0.4,0.9-0.9,0.9
								l-50-0.3C540.5,590.4,541.1,585.5,541.1,585.5z"/>
							<path class="st32" d="M559.4,574.1c1.2,1.5,2.1,3.1,2.9,4.9"/>
							<path class="st32" d="M556.8,575.7c1.2,1.7,1.7,2.6,2.4,4.1"/>
							<path class="st32" d="M554.6,576.8c0.8,1.1,1.6,2.6,2.2,3.8"/>
						</g>
						<line class="st32" x1="592.1" y1="587.3" x2="540.9" y2="587.1"/>
						<path class="st32" d="M590.7,579.8c0,0-12,0.3-13.1,7.5"/>
						<path class="st32" d="M547.5,580.3c0,0,3.3,4.7,4,6.9"/>
					</g>
				</g>
				<path class="st17" d="M531,392.9c0,0,9.4,110.1,25.5,173.7h37.8c-15.1-77.8-20.8-142.8-20.8-142.8s2.6-19.3-2.3-31"/>
				<path class="st33" d="M566.5,566.8c0,0-19-91.8-23.5-130.3"/>
				<g>
					<g>
						<g>
							<path class="st14" d="M528.6,539.8l-6.9,34.9l0.3,11.4l-44.9-0.2c-1.1,0-2-0.9-2-2l0,0c0-0.8,0.5-1.6,1.3-1.8l19.4-8.9
								l2.9-36.4"/>
							<path class="st15" d="M473.2,585.5c0.5-1.4,1.3-3.1,2.1-3.4l20.5-8.9c11.3,4.6,26,1.1,26,1.1l2.6,15.5c0,0.5-0.4,0.9-0.9,0.9
								l-50-0.3C472.5,590.4,473.2,585.5,473.2,585.5z"/>
							<path class="st32" d="M491.4,574.1c1.2,1.5,2.1,3.1,2.9,4.9"/>
							<path class="st32" d="M488.8,575.7c1.2,1.7,1.7,2.6,2.4,4.1"/>
							<path class="st32" d="M486.7,576.8c0.8,1.1,1.6,2.6,2.2,3.8"/>
						</g>
						<line class="st32" x1="524.2" y1="587.3" x2="473" y2="587.1"/>
						<path class="st32" d="M522.8,579.8c0,0-12,0.3-13.1,7.5"/>
						<path class="st32" d="M479.5,580.3c0,0,3.3,4.7,4,6.9"/>
					</g>
				</g>
				<path class="st17" d="M510.7,392.9c0,0-10.5,79.9-18.6,173.7h38c6.4-65.6,14.6-140.3,14.6-140.3s9.7-10.4,7.9-31.4"/>
				<path class="st33" d="M539.8,472.1l4.1-38.1c0.3-3.2,1.4-6.2,3.1-8.9c2.5-4,5.9-10.2,5.8-14.6"/>
				<line class="st33" x1="501.9" y1="566.6" x2="522.5" y2="393.2"/>
				<path class="st33" d="M532.8,411.3c0,0,7.8,0.5,12.5,0"/>
				<path class="st33" d="M564.2,410.5c0,0,6.8,0.4,10,0"/>
			</g>
			<g>
				<path class="st14" d="M597.2,399.2c0,0,7.1,8.2,14.3,9.6c7.2,1.4,19.4-1.4,19.4-2.8c0-2.1-4.2-2-7.6-2.5
					c-3.1-0.5-5.5-2.6-5.5-2.6s-5-7.8-9.8-9.1"/>
				<path class="st27" d="M548.8,308l-17.8-1.6c0,0-15.3,6.1-18.2,28.1c-3.1,23.1-4.5,66-4.5,66c31.5,5.9,66.9,1.6,66.9,1.6
					C571.5,357.8,573.3,323,548.8,308z"/>
				<path class="st27" d="M535.6,306.9c11.8,0,19.2,0.6,30.3,12.9c7.5,8.4,20.9,25.7,26.5,34.6c11,17.5,21.7,39.1,21.7,39.1
					l-19.4,13.1l-24.9-41.5L539.5,332"/>
				<polyline class="st34" points="573.5,371.3 569.8,365.2 539.5,332 				"/>
				<path class="st34" d="M527.7,308.4c0,0,10,3.7,23,0.2"/>
			</g>
			<g>
				<path class="st14" d="M551,288.5l-2.2,19.5c0,0-9.8,1.4-17.8-1.6l1.7-10L551,288.5z"/>
				<path class="st14" d="M534.7,275.1c0,0-11.3,14.6-7.4,21c2.1,3.3,5.7,5.1,9.6,3.2c2.9-1.4,15-11.1,14.1-13.6
					C547.6,276.2,534.7,275.1,534.7,275.1z"/>
				<path class="st14" d="M529.7,283.6c0,0-3.6,2.4-4,4.4c-0.2,0.9,2.8,1.6,2.8,1.6"/>
				<path class="st21" d="M528.3,291.2l5.4,0.3C533.6,293.5,528.7,297.8,528.3,291.2z"/>
				<g>
					<g>
						<path class="st22" d="M533.2,284.1c-0.1,0.4-0.3,0.7-0.5,1c-0.1,0.1,0.1,0.3,0.2,0.2c0.3-0.3,0.5-0.7,0.6-1.1
							C533.5,284,533.3,283.9,533.2,284.1L533.2,284.1z"/>
					</g>
				</g>
				<path class="st23" d="M536.4,283.6c-0.4-1-1.2-1.7-2.2-2c-0.4-0.1-0.9-0.2-1.3,0.1"/>
				<g>
					<path class="st24" d="M555.5,278.6c-0.1-0.1-0.3-0.2-0.4-0.3c-1.1-0.8-1-2.2-2-3.1c-0.5-0.5-1.2-0.7-1.7-1.1
						c-0.8-0.5-1.3-1.3-1.9-1.9c-1.4-1.4-3.4-2.1-5.4-2.3c-2-0.2-4,0.2-5.9,0.9c-1.4,0.5-2.8,1.2-3.8,2.2c-1.5,1.5-2.2,4-0.8,5.8
						c1.1,1.5,3.3,1.7,4.4,3.2c1.3,1.7,0.4,4.1,1.2,6c0.6,1.4,1.9,2.4,2.4,3.8c0.3,0.9,0.2,1.9,0.5,2.8c0.9,2.9,4.8,4.6,7.7,4.5
						c1.4,0,1.7-0.7,2.5-1.8c1.7-2.6,3.2-5.4,4.2-8.3c0.8-2.4,1.5-5.1,0.9-7.6C557,280.3,556.4,279.4,555.5,278.6z"/>
				</g>
				<g>
					<path class="st25" d="M543.7,278c0,0-4.1,2.8-8.1,1.6c-2.5-0.7-10.3-3.3-11.6-5.7c-0.6-1.1,7.3-1.3,7.3-1.3l10.1,1.8"/>
					<path class="st25" d="M549.4,271.1c-0.1,0.7,0.4,1.4,1.1,1.4c0.7,0.1,1.3-0.5,1.4-1.2c0.1-0.7-0.4-1.3-1.1-1.4
						C550.1,269.8,549.5,270.4,549.4,271.1z"/>
					<path class="st15" d="M557,287.3l-25.7-14.8c0,0,6-7.2,17.1-2.5C562.3,275.8,557,287.3,557,287.3z"/>
				</g>
				<path class="st14" d="M538.6,289c1-2.5,4.1-1.4,4.3,0.1c0.3,1.8-1.5,4.6-2.5,5.1c-2,0.9-3.4,0.6-3.4-0.9"/>
				<path class="st35" d="M532.2,300.1c4.2,1,6.7-1.1,6.7-1.1"/>
			</g>
		</g>
		<g>
			<g>
				<g>
					<g>
						<g>
							<path class="st14" d="M768.8,539.8l-6.9,34.9l0.3,11.4l-44.9-0.2c-1.1,0-2-0.9-2-2l0,0c0-0.8,0.5-1.6,1.3-1.8l19.4-8.9
								l2.9-36.4"/>
							<path class="st15" d="M713.3,585.5c0.5-1.4,1.3-3.1,2.2-3.4l20.5-8.9c11.3,4.6,26,1.1,26,1.1l2.6,15.5c0,0.5-0.4,0.9-0.9,0.9
								l-50-0.3C712.7,590.4,713.3,585.5,713.3,585.5z"/>
							<path class="st32" d="M731.6,574.1c1.1,1.5,2.1,3.1,2.9,4.9"/>
							<path class="st32" d="M729,575.7c1.2,1.7,1.7,2.6,2.4,4.1"/>
							<path class="st32" d="M726.8,576.8c0.8,1.1,1.6,2.6,2.2,3.8"/>
						</g>
						<line class="st32" x1="764.3" y1="587.3" x2="713.1" y2="587.1"/>
						<path class="st32" d="M762.9,579.8c0,0-12,0.3-13.1,7.5"/>
						<path class="st32" d="M719.7,580.3c0,0,3.3,4.7,4,6.9"/>
					</g>
				</g>
				<path class="st17" d="M750.8,392.9c0,0-10.5,79.9-18.6,173.7h38c6.4-65.6,14.6-140.3,14.6-140.3s9.7-10.4,7.9-31.4"/>
				<line class="st33" x1="764.3" y1="566.6" x2="780.4" y2="429.8"/>
				<g>
					<g>
						<g>
							<path class="st14" d="M841.9,515.1l19.7,30.3l6.4,9.5l-38.1,23.8c-0.9,0.6-2.2,0.3-2.7-0.6l0,0c-0.4-0.7-0.4-1.6,0.1-2.2
								l11.6-17.9L815,528.5"/>
							<path class="st15" d="M826.3,580.4c-0.4-1.5-0.5-3.3,0-4l12.7-18.4c12-2.2,22.5-12.9,22.5-12.9l10.5,11.7
								c0.3,0.4,0.1,1-0.3,1.3l-42.4,26.4C828.4,584.9,826.3,580.4,826.3,580.4z"/>
							<path class="st32" d="M835.7,561c1.8,0.7,3.5,1.5,5,2.6"/>
							<path class="st32" d="M834.3,563.7c1.9,0.8,2.8,1.3,4.2,2.2"/>
							<path class="st32" d="M833.1,565.8c1.3,0.5,2.7,1.3,3.9,2"/>
						</g>
						<line class="st32" x1="870.5" y1="554.8" x2="827" y2="581.8"/>
						<path class="st32" d="M865.2,549.1c0,0-10.1,6.6-7.1,13.3"/>
						<path class="st32" d="M828.9,572.6c0,0,5.3,2.2,7,3.7"/>
					</g>
				</g>
				<path class="st17" d="M771.2,392.9c0,0,0.6,50.7,15.7,97.1c6.2,18.9,40.4,63.5,40.4,63.5l30.3-16.7c0,0-21-34.6-31.5-54.8
					c-8.5-16.3-12.3-58.2-12.3-58.2s2.6-19.3-2.3-31"/>
				<path class="st33" d="M852,540.1c0,0-21-34.6-31.5-54.7c-7.7-14.7-11.6-50.6-12.2-57.2c-0.1-0.7-0.1-1.3,0-2
					c0.4-4,1.8-19.9-2.4-30"/>
				<path class="st33" d="M780.4,468.1c0,0-7.7-42-8.9-63.3"/>
				<path class="st33" d="M808.8,417.2c0,0-15.4-2.6-20.2-10"/>
				<path class="st33" d="M766.5,408c0,0,0.7,14.3,2,15.6c1.3,1.3,5.1,1.5,5.1,1.5"/>
				<path class="st33" d="M748.2,413.6c0,0,9.7-2.3,11.1-6.3"/>
			</g>
			<g>
				<path class="st27" d="M771.1,303.7l-3.7,4.8c0,0-18.8,16.5-18.8,38c0,21.5-0.4,61.3-0.4,61.3s34.4,6,69.8,0
					c0,0-5.8-39.6-12.3-71c-4.1-20.1-20.6-30.3-20.6-30.3"/>
				<path class="st14" d="M770.6,349.2c0,0-11.5,15.3-23.6,22.2c-20.1,11.4-42.5,17-42.5,17l-9.9-15.7c0,0,14.7-3.4,34.8-14.8
					c12.1-6.9,23.6-22.2,23.6-22.2"/>
				<g>
					<path class="st14" d="M706,369.2c-5.9,2.2-25.5,6.6-25.7,7.9c-0.2,1.3,6.2,0.1,5.9,1.1c-0.4,1-10.1,3.5-9.9,4.8
						c0.2,1.8,10-1.3,10-1.3s-10.6,3.9-10,5.4c0.4,1.1,8.9-1.4,12.2-2c-3.5,1.1-9.8,3-9.3,4.1c0.5,1.1,7.1,0.3,11.4-0.7
						c-2.7,0.9-7.7,2.3-7.3,3.4c0.4,1,14.9-0.7,32.1-6.8"/>
				</g>
				<polyline class="st27" points="765.4,313.8 747.7,340 770.6,355.9 787.3,332.1 				"/>
				<path class="st34" d="M751,335.1c0,0,11.3-16.8,11.3-16.8"/>
				<line class="st34" x1="769.3" y1="355" x2="783.6" y2="334.4"/>
			</g>
			<g>
				<path class="st14" d="M761.1,283.7c0,0-3,3-3,5c0,0.9,3.1,1,3.1,1"/>
				<path class="st14" d="M782.9,284.4l2.2,22.2c0,0-9.3,3.3-17.7,2l-0.8-12.7L782.9,284.4z"/>
				<path class="st14" d="M764.4,274.4c0,0-8.2,16.5-3.1,22c2.7,2.8,6.6,3.9,10.1,1.3c2.6-2,12.6-13.8,11.2-16.1
					C777.2,273,764.4,274.4,764.4,274.4z"/>
				<g>
					<g>
						<path class="st22" d="M764.6,283.6c0,0.4-0.2,0.7-0.3,1.1c0,0.1,0.1,0.2,0.2,0.1c0.3-0.3,0.4-0.8,0.3-1.2
							C764.9,283.4,764.6,283.4,764.6,283.6L764.6,283.6z"/>
					</g>
				</g>
				<path class="st23" d="M767.7,282.5c-0.6-0.9-1.5-1.4-2.6-1.5c-0.4,0-0.9,0-1.3,0.3"/>
				<g>
					<path class="st24" d="M787.6,285.4c1.6-4.2,1.1-9.4-2-12.8l-1.6,0.2c-0.5-0.6-0.9-1.4-1.6-1.9c-0.6-0.4-1.3-0.5-1.9-0.8
						c-0.8-0.4-1.5-1-2.3-1.5c-1.7-1.1-3.7-1.4-5.7-1.2c-2,0.2-3.9,1-5.6,2c-1.3,0.8-2.5,1.7-3.3,3c-1.3,2-1.6,5.2,0.8,6.5
						c1.3,0.7,3,0.6,4.4,1.4c2,1.1,1.1,3.3,2.4,4.9c0.8,0.9,2.2,1.1,2.9,2.1c0.6,0.8,0.6,1.8,0.7,2.8c0.2,0.9,0.5,1.9,1.1,2.6
						c0.6,0.7,1.5,1.2,2.5,1.2c0.3,0,0.7-0.1,1-0.1c0.9,0.1,1.6,0.9,2.5,1.3c0.9,0.4,1.9,0.3,2.7-0.2c0.8-0.5,1.3-1.4,1.5-2.4
						c0.1-0.8,0-1.6,0-2.4C786.2,288.4,787,286.9,787.6,285.4z"/>
				</g>
				<path class="st14" d="M771.9,287.3c0.5-2.6,3.7-2.2,4.3-0.8c0.6,1.7-0.5,4.8-1.4,5.5c-1.7,1.3-3.3,1.3-3.5-0.2"/>
				<g>
					<path class="st25" d="M773.7,275.5c0,0-3.5,3.5-7.7,3.2c-2.6-0.2-10.8-1.2-12.5-3.3c-0.8-1,6.9-2.7,6.9-2.7l10.3-0.2"/>
					<path class="st25" d="M778,267.6c0.1,0.7,0.7,1.2,1.4,1.2c0.7-0.1,1.2-0.7,1.1-1.4c-0.1-0.7-0.7-1.2-1.4-1.2
						C778.4,266.3,777.9,266.9,778,267.6z"/>
					<path class="st15" d="M788.6,282l-28.1-9.5c0,0,4.4-8.2,16.3-5.8C791.5,269.7,788.6,282,788.6,282z"/>
				</g>
				<g>
					<path class="st24" d="M771.4,284.6c-0.3,1.1-0.6,2.4-1.5,3.1c-0.8,0.7-1.8,0.9-2.9,1.1c-2.4,0.4-4.8,0.7-7.2,1
						c-0.3,0-0.5,0.1-0.7,0.3c-0.1,0.1-0.1,0.2-0.1,0.3c-0.2,2.5-0.4,5,0.1,7.5c0.1,0.5,0.2,1,0.6,1.3c0.4,0.5,1.1,0.7,1.7,0.8
						c2.8,0.5,5.8,0.1,8.5-1c0.6-0.3,1.2-0.6,1.7-1c0.9-0.9,1.3-2.2,1.3-3.4c0.1-1.3-0.2-2.5-0.2-3.7c-0.1-2.2,0.2-4.4,1-6.4"/>
				</g>
				<path class="st21" d="M761.2,291.5l5.4-0.8C766.9,292.7,762.9,297.8,761.2,291.5z"/>
			</g>
		</g>
	</g>
	<g>
		<g>
			<g>
				<g>
					<g>
						<path class="st14" d="M136.7,539.8l2.6,34.9l-0.3,11.4l44.9-0.2c1.1,0,2-0.9,2-2l0,0c0-0.8-0.5-1.6-1.3-1.8l-19.4-8.9
							l-0.8-36.4"/>
						<path class="st15" d="M187.8,585.5c-0.5-1.4-1.3-3.1-2.1-3.4l-20.5-8.9c-11.3,4.6-26,1.1-26,1.1l-2.6,15.5
							c0,0.5,0.4,0.9,0.9,0.9l50-0.3C188.5,590.4,187.8,585.5,187.8,585.5z"/>
						<path class="st32" d="M169.6,574.1c-1.1,1.5-2.1,3.1-2.9,4.9"/>
						<path class="st32" d="M172.2,575.7c-1.2,1.7-1.7,2.6-2.4,4.1"/>
						<path class="st32" d="M174.4,576.8c-0.8,1.1-1.6,2.6-2.2,3.8"/>
					</g>
					<line class="st32" x1="136.8" y1="587.3" x2="188" y2="587.1"/>
					<path class="st32" d="M138.3,579.8c0,0,12,0.3,13.1,7.5"/>
					<path class="st32" d="M181.5,580.3c0,0-3.3,4.7-4,6.9"/>
				</g>
			</g>
			<g>
				<g>
					<g>
						<path class="st14" d="M83.7,539.8l-5.7,34.9l-0.3,11.4l44.9-0.2c1.1,0,2-0.9,2-2l0,0c0-0.8-0.5-1.6-1.3-1.8l-19.4-8.9
							l7.4-36.4"/>
						<path class="st15" d="M126.6,585.5c-0.5-1.4-1.3-3.1-2.2-3.4l-20.5-8.9c-11.3,4.6-26,1.1-26,1.1l-2.6,15.5
							c0,0.5,0.4,0.9,0.9,0.9l50-0.3C127.3,590.4,126.6,585.5,126.6,585.5z"/>
						<path class="st32" d="M108.4,574.1c-1.2,1.5-2.1,3.1-2.9,4.9"/>
						<path class="st32" d="M111,575.7c-1.2,1.7-1.7,2.6-2.4,4.1"/>
						<path class="st32" d="M113.2,576.8c-0.8,1.1-1.6,2.6-2.2,3.8"/>
					</g>
					<line class="st32" x1="75.6" y1="587.3" x2="126.8" y2="587.1"/>
					<path class="st32" d="M77,579.8c0,0,12,0.3,13.1,7.5"/>
					<path class="st32" d="M120.3,580.3c0,0-3.3,4.7-4,6.9"/>
				</g>
			</g>
			<path class="st17" d="M155.3,396.2c0,0,12.8,84.6,16.1,169.1h-35.2c-6.1-84.4-20.4-167.5-22-169.1"/>
			<path class="st33" d="M142.7,565.3c-6.1-84.4-20.4-167.5-22-169.1"/>
			<path class="st17" d="M133.4,396.6c-3.9,76.2-22.9,168.9-22.9,168.9h-37c8-46.5,16.1-121.4,17.6-135.7c0.1-1.4,0.1-2.9-0.3-4.3
				c-1.1-4.3-3.2-15.5,0-29.4"/>
			<path class="st33" d="M78.7,565.5c8-46.5,16.1-121.4,17.6-135.7c0.1-1.4,0.1-2.9-0.3-4.3c-1.1-4.3-3.2-15.5,0-29.4"/>
			<path class="st33" d="M126.3,469.3c0,0,6.3-54.4,6.9-70"/>
			<path class="st33" d="M94.3,409.3c0,0,14.5-0.6,18.4-9.9"/>
			<path class="st33" d="M132.2,412.9c0,0,2.8,0.5,3.7-1.1c0.9-1.7,1.6-13.3,1.6-13.3"/>
			<path class="st33" d="M146.7,398.5c0,0,2.5,7.9,10.1,8.1"/>
		</g>
		<g>
			<g>
				<path class="st14" d="M181.4,316.6c0,0,11.4-16.2,12.5-16c1.1,0.2-1.3,3.6-0.4,3.6c0.9,0,6.2-8,7.2-7.5c1.4,0.6-3.6,7.7-3.6,7.7
					s5.8-7.5,6.9-6.6c0.7,0.6-3.5,6.6-4.8,9c1.8-2.5,5.1-6.2,5.9-5.5c0.7,0.7-2,4.8-4,8c1.4-1.9,4.2-5.3,4.9-4.7
					c0.7,0.6-7.5,14.7-13.6,24.4"/>
			</g>
			<path class="st35" d="M199.4,311.1c0,0-3.4,0.9-5.6,4.5"/>
			<path class="st27" d="M122.9,316.6c0,0,27.5,43.8,41.7,43.8c14.2,0,37.1-38.6,37.1-38.6l-17.9-12.7L165,330.5
				c0,0-11.6-16-17.1-20c-6.1-4.5-12.5-7.9-24.9-7.5"/>
			<line class="st34" x1="199.4" y1="325.5" x2="181.2" y2="313.2"/>
			<path class="st35" d="M192.9,306.1c0,0,1.4,3.6,0.8,6.7"/>
		</g>
		<g>
			<path class="st27" d="M148.8,328.9L123,303l-15.7,0.2c0,0-3.1,0.4-7.7,2.2c-4.2,1.6-16.4,20.9-16.4,20.9s4.8,71.8,4.8,74
				c14.4,2.7,45.7,3,73,0C157.6,376.4,148.8,328.9,148.8,328.9z"/>
		</g>
		<path class="st34" d="M104.6,305.2c0,0,2.7,5.7,11.5,5.7s11.1-6.5,11.1-6.5"/>
		<g>
			<path class="st3" d="M173,335.2c22.1,7.2,45.8-4.9,53-26.9c7.2-22.1-4.8-45.8-26.9-53c-8.8-2.9-17.8-2.7-26,0l0,0
				c-10.4,2.9-25,14.5-30.8,12.6l-6.6-2.2c-1.3-0.4-2.7,0.3-3.2,1.6l-2.1,6.4l-1.9,5.9l-2.1,6.4c-0.4,1.3,0.3,2.7,1.6,3.2l6.6,2.2
				c5.8,1.9,10.7,19.9,17.4,28.4l0,0C157,326.8,164.2,332.3,173,335.2z"/>
			<path class="st31" d="M119.5,266.1c0,0,55.7,20.4,70.6,13.1c5.8-2.9,3.6-8,0.4-8.9c-5.9-1.7-14.8,1-20.1,7.8
				c-5.6,7.3,1.4,17.4,9.9,23.5c7.1,5.1,18,6.6,20.6-1.4v0c2.6-8-7.1-13.2-15.8-13.3c-10.4,0-22.1,3.9-21.8,13.1
				c0.3,8.6,5.9,16,11.6,18.1c3.1,1.1,7.9-1.7,4.9-7.5c-7.7-14.8-64.7-31.1-64.7-31.1"/>
			<path class="st10" d="M141.4,264.4l-9.6,29.5l-14.1-4.6c-2.3-0.8-4.3-2.1-5.9-4l0,0c-2.9-3.5-3.8-8.3-2.4-12.6l1.4-4.3
				c1.4-4.3,4.9-7.6,9.4-8.8l0,0c2.3-0.6,4.8-0.5,7.1,0.2L141.4,264.4z"/>
		</g>
		<line class="st34" x1="153.3" y1="354.4" x2="147.8" y2="323.1"/>
		<g>
			<path class="st14" d="M124.2,271.1c0,0,8.2,15.7,5,22.6c-1.7,3.6-9.3,5.3-13.3,3.6c-2.9-1.2-10.1-11.9-9.5-14.5
				C109,272.8,124.2,271.1,124.2,271.1z"/>
			<path class="st14" d="M109.5,293.5l-2.8,11.2c0,0,9.8,6.9,18-0.2l0.7-11.3L109.5,293.5z"/>
			<path class="st36" d="M104.1,290.9c-1.6-3.3-2.1-4.7-3-8.8c-0.9-4.3,2.2-5.8,2.2-5.8s-0.5,0.5,0.9-3.4c1.3-3.7,6.9-4,10.3-4.9
				c4.3-1.1,2.9-0.3,5.6,1.4c1.2,0.7,7.3,1.9,3.9,4.4c-2,1.4-0.2,3.1-2.6,3.7c-4.4,1.1-8.5,1.3-9.6,4.3c-0.6,1.6-0.4,2.1-0.2,3.5
				c0.1,0.6,0.5,1.8,0.6,2.2l-1.6,1.5c0.4,1.9,1.7,3.7,1.5,5.8c-0.1,1.1-3.7,2.5-3.7,2.5S105.8,294.5,104.1,290.9z"/>
			<path class="st14" d="M111.8,289.2c-2.2-2-3.5-1.4-4.1,0.1c-0.7,2,2,5.2,3.1,5.6c2.2,0.9,3.7,0.4,3.6-1.3"/>
			<path class="st35" d="M124.8,297.3c-3.8,0.6-9.6,0.1-9.6,0.1"/>
			<path class="st35" d="M123.1,282.7c0,0,3,3.7,2.9,4.8c-0.1,1.1-2.7,1.5-2.7,1.5"/>
			<path class="st21" d="M126.5,290l-7,1.8c0,0,1.8,3.5,5.5,2.3C127.7,293.2,126.5,290,126.5,290z"/>
			<g>
				<g>
					<path class="st22" d="M125.9,281.3c0.1,0.3,0.2,0.6,0.3,0.9c0.1,0.2,0.5,0.1,0.4-0.1c-0.1-0.3-0.3-0.6-0.4-0.9
						C126.1,281,125.8,281.2,125.9,281.3L125.9,281.3z"/>
				</g>
			</g>
			<path class="st23" d="M124.5,279.7c0,0,0.9-1.6,2.6-0.6"/>
			<g>
				<g>
					<path class="st22" d="M117.6,284.1c0.1,0.3,0.2,0.6,0.3,0.9c0.1,0.2,0.5,0.1,0.4-0.1c-0.1-0.3-0.2-0.6-0.3-0.9
						C117.9,283.9,117.6,283.9,117.6,284.1L117.6,284.1z"/>
				</g>
			</g>
			<path class="st23" d="M118.2,281.1c0,0-1.8-0.4-3.4,1.9"/>
		</g>
		<g>
			<g>
				<path class="st14" d="M139.2,325.7c0,0,16.4-14.8,17.5-14.5c1.1,0.3-1.6,3.4-0.7,3.5c0.9,0.1,6.9-7.4,7.9-6.9
					c1.3,0.7-4.3,7.4-4.3,7.4s6.5-7,7.4-6c0.7,0.7-4,6.2-5.6,8.6c2-2.3,5.6-5.7,6.3-5c0.7,0.7-2.4,4.6-4.7,7.6
					c1.6-1.8,4.6-4.9,5.3-4.2c0.7,0.6-8.8,14-15.7,23.1"/>
			</g>
			<path class="st27" d="M99.5,305.4c-7.2,2.5-17.4,7.1-20,15c-5.4,16.4,25.3,46.8,40.1,46.8c14.8,0,42-36.5,42-36.5L148,317.3
				l-26.5,25.1L103,325.5"/>
			<polyline class="st34" points="148,317.3 121.5,342.3 103,325.5 			"/>
			<path class="st34" d="M84.2,340.1c8.9,11.8,26.3,27.1,35.4,27.1c14.8,0,42-36.5,42-36.5"/>
			<line class="st34" x1="145.4" y1="319.7" x2="159.7" y2="333.7"/>
		</g>
		<g>
			<path class="st25" d="M115.3,275.6c0,0,3.7,3.2,7.9,2.6c2.6-0.4,10.6-2,12.2-4.3c0.7-1-7.1-2.2-7.1-2.2l-10.3,0.6"/>
			<path class="st25" d="M110.4,268.1c0,0.7-0.6,1.3-1.3,1.3c-0.7,0-1.2-0.6-1.2-1.3c0-0.7,0.6-1.3,1.3-1.3
				C109.9,266.8,110.4,267.4,110.4,268.1z"/>
			<path class="st15" d="M101,283.3l27.3-11.6c0,0-5.1-7.8-16.7-4.6C97.1,271.2,101,283.3,101,283.3z"/>
		</g>
	</g>
</g>
</svg>
