<?xml version="1.0" encoding="utf-8"?>
<!-- Generator: Adobe Illustrator 23.0.0, SVG Export Plug-In . SVG Version: 6.00 Build 0)  -->
<svg version="1.1" id="a90b5256-b423-42d1-825d-5fdc0dc55c5f"
	 xmlns="http://www.w3.org/2000/svg" xmlns:xlink="http://www.w3.org/1999/xlink" x="0px" y="0px" viewBox="0 0 883 684.5"
	 style="enable-background:new 0 0 883 684.5;" xml:space="preserve">
<style type="text/css">
	.st0{opacity:0.7;}
	.st1{fill:#9FB7FF;}
	.st2{fill:#B7C9FF;}
	.st3{fill:none;stroke:#B7C9FF;stroke-width:1.8891;stroke-miterlimit:10;}
	.st4{fill:#BFCFFF;}
	.st5{fill:#DBE4FF;}
	.st6{fill:#E4EAFF;}
	.st7{fill:#9DB5FF;}
	.st8{fill:#7FD0FF;}
	.st9{fill:#E6EDFF;}
	.st10{clip-path:url(#SVGID_3_);}
	.st11{fill-rule:evenodd;clip-rule:evenodd;fill:#C2D2FF;}
	.st12{opacity:0.6;fill:#0D6EFD;enable-background:new    ;}
	.st13{fill:#F3F6FF;}
	.st14{opacity:0.5;fill:#0D6EFD;enable-background:new    ;}
	.st15{opacity:0.5;fill:#F15330;enable-background:new    ;}
	.st16{fill:#FFCC38;}
	.st17{fill:#FFDA6D;}
	.st18{fill:#FFE28F;}
	.st19{fill:#0D6EFD;}
	.st20{fill:#378DF4;}
	.st21{fill:url(#SVGID_4_);}
	.st22{fill:url(#SVGID_5_);}
	.st23{fill:#FFFFFF;}
	.st24{fill:url(#SVGID_6_);}
	.st25{fill:url(#SVGID_7_);}
	.st26{fill:url(#SVGID_8_);}
	.st27{fill:url(#SVGID_9_);}
	.st28{fill:url(#SVGID_10_);}
	.st29{fill:#FC8DB2;}
</style>
<g class="st0">
	<g>
		<path class="st1" d="M539.3,584.9l-98.4-99.7C440.8,485.2,478,609.7,539.3,584.9z"/>
		<path class="st2" d="M539.3,584.9l-98.4-99.7C440.8,485.2,564.8,523.8,539.3,584.9z"/>
	</g>
	<line class="st3" x1="581.8" y1="597.9" x2="426.4" y2="549.5"/>
	<g>
		<path class="st4" d="M466.9,560.4l-139.8-43.5C327.2,516.9,420.7,619.5,466.9,560.4z"/>
		<path class="st5" d="M466.9,560.4l-139.8-43.5C327.2,516.9,459.5,494.8,466.9,560.4z"/>
	</g>
	<g>
		<path class="st4" d="M537.8,584.4l-134.6,39.1C403.2,623.5,530.3,650.3,537.8,584.4z"/>
		<path class="st5" d="M537.8,584.4l-134.6,39.1C403.2,623.5,496.3,532.9,537.8,584.4z"/>
	</g>
</g>
<g>
	<g>
		<g>
			<path class="st6" d="M126.2,426.4L126.2,426.4c0-13.7,11.1-24.7,24.7-24.7h60.3l36.2,49.5h-96.5
				C137.2,451.2,126.2,440.1,126.2,426.4z"/>
			<path class="st6" d="M110.5,474.9L110.5,474.9c0-13.2,10.5-23.7,23.7-23.8l108.6-1.5v47.8l-108.2,1.5
				C121.4,499,110.5,488.2,110.5,474.9z"/>
			<path class="st6" d="M115.8,521.2L115.8,521.2c0-13.2,10.7-23.9,23.8-23.9h103.2v47.8H139.6C126.4,545.1,115.8,534.4,115.8,521.2
				z"/>
			<path class="st6" d="M131.4,569.1L131.4,569.1c0-13.2,10.7-23.8,23.8-23.8h87.5L228.5,593h-73.4
				C142.1,592.9,131.4,582.2,131.4,569.1z"/>
			<path class="st6" d="M214.9,592.9h20.2c0.1,0,0.4,0,0.6,0c24.7-0.1,48.5-9.2,68.6-23.3l0.8-0.6l1.4-121.3l-1.8-2.1
				c-27.9-30.4-57.3-44-94.2-44L214.9,592.9z"/>
		</g>
		<path class="st6" d="M225.3,421.9c-6.5,1.1-13.3-1-18.2-6.1l-20.4-21.8c-11.2-11.9-18.7-26.9-21.4-43.1l-1.7-13.7
			c-1.9-11,8.3-21.9,19.4-23.8c11-1.9,24.3,5,26.2,16.1l0,0c2.8,17.5,10.4,33.8,22.2,47.1c7.9,8.9,16.1,17.7,20,21.1
			c27.5,23.3,55.2,50.1,55.2,50.1S229,421.2,225.3,421.9z"/>
	</g>
	<rect x="305.2" y="439.7" class="st2" width="49.9" height="137.1"/>
	<rect x="332.6" y="426.4" class="st7" width="63.2" height="163.8"/>
</g>
<g>
	<ellipse class="st8" cx="623.8" cy="468.9" rx="162.4" ry="162.4"/>
	<g>
		<g>
			<ellipse id="SVGID_1_" class="st9" cx="623.8" cy="468.9" rx="162.4" ry="162.4"/>
		</g>
		<g>
			<g>
				<defs>
					<circle id="SVGID_2_" cx="623.8" cy="468.9" r="162.4"/>
				</defs>
				<clipPath id="SVGID_3_">
					<use xlink:href="#SVGID_2_"  style="overflow:visible;"/>
				</clipPath>
				<g class="st10">
					<g>
						<g>
							<path class="st11" d="M483,357.1c-3.9,0.5-8.4-0.8-10.3-2.9c-1.7-2.1-5.1-4.9-7.4-6.4s-5.8-4-7.9-5.7s-8.2-1.4-13.6,0.4
								l-0.8,0.3c-5.5,1.8-9.7,6-9.3,9.2c0.3,3.2-0.6,5.7-1.9,5.5c-1.4-0.3-3.4-1.2-4.5-1.9c-1.2-0.8-3.1-0.3-4.4,1.3
								c-1.3,1.6-0.9,3.9,0.8,5.3s4,2.3,5.3,2.2c1.2-0.3,1.8,1.2,1.3,3.1c-0.5,1.9-3,3.4-5.6,3.4c-2.6-0.1-5.6,1-6.8,2.5
								s-1.6,4.4-1,6.8c0.6,2.3,2.7,5.3,4.7,6.9c1.9,1.6,6.6,1.3,10.4-0.4s9.1-1.3,11.9,0.9c2.9,2.2,7.1,8.3,9.5,13.5l3.5,7.8
								c2.3,5.2,4.2,14.3,4.2,20v1.4c-0.1,5.7-0.5,14-0.9,18.4s0.9,11.2,2.9,15.2c1.9,4,5.7,11.4,8.2,16.5c2.6,5.1,3.9,5.6,3.1,1.2
								c-0.9-4.4,0.4-4.5,2.9-0.4c2.5,4.2,5.5,9.7,6.6,12.5c1.2,2.7,6.6,6.5,12.1,8.3l1,0.4c5.5,1.8,13.2,6.4,17.4,9.9
								c4.2,3.5,9.2,6.5,11.3,6.5c2.1,0,3.1,3.5,2.1,7.8c-1,4.3-1.9,10.4-2.2,13.5c-0.3,3.1,1.4,8.4,3.8,11.8
								c2.3,3.4,6.5,7.8,9.2,9.7c2.7,1.9,5.1,8.2,5.2,14l0.3,8.2c0.1,5.7,0.4,15.2,0.5,20.9l0.1,5.1c0.1,5.7,1,14.5,2.1,19.5
								c1,4.9,4.3,10.4,7.1,12.1c2.9,1.7,7.1,2.6,9.5,2.1c2.3-0.5,1.6-2.9-1.6-5.1c-3.1-2.3-5.2-6.5-4.7-9.5c0.5-3,1.4-8.6,1.8-12.6
								c0.5-4,4.2-9.9,8.2-12.7c4-3,9.1-9.6,11.4-14.9l0.8-1.7c2.3-5.3,6.8-10.4,10-11.3c3.2-1,7-6.4,8.4-11.9l0.3-1.2
								c1.4-5.6,3.4-12.6,4.2-15.5c0.9-3-2.1-8.2-6.8-11.7l-12.3-9.3c-4.5-3.5-13-7.4-18.6-8.7l-13.5-3.1
								c-5.6-1.3-12.6-1.4-15.5-0.3c-2.9,1.2-6.8,2.1-8.6,2.1s-4.2-0.9-5.1-1.9c-1-1-1.6-3.6-1.3-5.6c0.3-1.9-2.1-3.6-5.1-3.6
								s-6.8-1.4-7.9-3.1c-1.2-1.7-4-4.3-6.2-5.8c-2.1-1.6-3.4-5.7-2.7-9.3s4.2-7.5,7.9-8.6c3.8-1,10.4-2.2,14.7-2.7
								c0,0,0,0,1.3,1.7c1.3,1.7,1.3,1.7,1.3,1.7c0.6,4.7,2.3,7.9,3.6,7.1c1.4-0.8,2.2-3.4,1.7-5.7c-0.5-2.3,1.2-7,3.8-10.1
								c2.6-3.1,6.4-8.2,8.3-11.2c1.9-3,6.6-6.6,10.4-8.2c3.8-1.4,8.8-3.8,11.4-5.1c2.5-1.3,1.4-3.9-2.3-5.6c-3.8-1.7-5.6-4.5-4-6.2
								c1.6-1.7,5.8-2.3,9.3-1.4s7.4,0.4,8.6-1c1.2-1.4,0.4-5.2-1.7-8.2c-2.1-3-4-8-4.5-11.2c-0.4-3.1-2.1-3.8-3.6-1.6
								c-1.6,2.2-3.1,1.8-3.5-0.9c-0.4-2.7-2.9-6.5-5.7-8.2c-2.7-1.8-6.2-0.5-7.8,2.7c-1.6,3.4-2.5,7.5-2.1,9.2
								c0.4,1.7-0.8,4.2-2.5,5.3c-1.7,1.2-3.5,4.4-4.2,7.1s-1.7,3.8-2.5,2.1c-0.8-1.6-1.2-4.3-0.9-6.1c0.4-1.7-2.7-5.8-6.9-9.1
								c-4.2-3.2-7-7.5-6.4-9.3c0.6-1.8,3.4-4.9,6.1-6.9c2.7-1.9,6.9-5.1,9.1-7s5.7-4.2,7.7-5.1c1.9-0.8,3-3.2,2.3-5.3
								c-0.6-2.2-4.2-3.9-7.9-3.8c-3.8,0-8.2,1.3-9.9,2.7c-1.7,1.4-6,1.4-9.5,0.1c-3.5-1.4-8.7-3.9-11.6-5.5
								c-2.9-1.7-8.2-5.8-11.9-9.3C493.2,358.9,486.9,356.6,483,357.1z"/>
						</g>
						<g>
							<path class="st11" d="M593,417.7c-1.3-0.9-3.6-6.1-5.3-11.4c-1.7-5.3-1.6-11.7,0.4-14s2.1-5.8,0.5-7.7
								c-1.6-1.8-2.5-7.1-1.9-11.9s0-9.5-1.4-10.6c-1.3-1-4.5-1.8-7.1-1.8c0,0,0,0,0.1-0.3c0.1-0.3,0.1-0.3,0.1-0.3
								c-1.7-3.2-3-7.1-3-8.8c0-1.6,2.1-3.5,4.8-4.2c2.6-0.6,5.1-2.5,5.3-4c0.3-1.6,4.8-4.8,10-7.4l0,0c5.2-2.5,11-3.4,13.1-1.8
								c2.1,1.6,5.3,0.8,7.1-1.7s6.1-4.5,9.5-4.8s7.8,1.3,10,3.5c2.2,2.2,2.9,5.7,1.4,7.7c-1.3,1.9,0.3,3.5,3.5,3.5
								c3.2-0.1,4,3,1.7,6.8c-2.3,3.9-4.8,10.6-5.7,15.2c-0.8,4.5-2.6,12.2-4,17.1c-1.4,4.9-6.6,11.4-11.6,14.3l-2.2,1.3
								c-4.9,3-11.9,9-15.6,13.5l-1,1.3C598.2,415.8,594.2,418.6,593,417.7z"/>
						</g>
						<g>
							<path class="st11" d="M560.2,348.1c1.9,2.3,6.2,0.6,9.5-3.9c3.2-4.5,9.7-10.4,14.3-13c4.5-2.6,10.3-6.8,12.6-9.3
								c2.3-2.5,2.6-5.8,0.5-7.4c-2.1-1.6-6.4-3-9.5-3c-3.1,0-9.6,1.2-14.3,2.7c-4.7,1.6-10.3,5.1-12.3,7.5
								c-2.1,2.5-3.8,8.4-3.9,13.2C556.8,339.8,558.2,345.7,560.2,348.1z"/>
						</g>
						<g>
							<path class="st11" d="M538.3,345.7c1,0.3,3.1-1.3,4.4-3.2c1.3-1.9,0.3-4.3-2.3-5.1s-4.5,0.8-4.4,3.2
								C536.1,343.2,537.3,345.4,538.3,345.7z"/>
						</g>
						<g>
							<path class="st11" d="M545,367.1c-0.4-1.2,0.3-4.4,1.7-7.3c1.3-2.7,6-4,10.1-2.7s9.5,6.2,11.7,11c2.2,4.8,4.4,11.7,4.9,15.5
								c0.5,3.6-0.9,7.1-3,7.7c-2.1,0.5-5.5-0.5-7.4-2.6c-1.9-2.1-2.2-5.1-0.9-6.6c1.4-1.6,1.8-4.8,0.9-7.3
								c-0.9-2.3-5.2-4.5-9.5-4.9C549.3,369.6,545.4,368.3,545,367.1z"/>
						</g>
						<g>
							<path class="st11" d="M521.2,366.6c2.9-0.5,4.7-2.2,4-3.8c-0.6-1.4-0.3-4.4,0.9-6.5c1.2-2.1,1.3-4.3,0.3-4.8
								c-0.9-0.5-2.5,0.5-3.5,2.2c-0.9,1.8-2.9,1.7-4.3-0.1c-1.4-1.8-3.1-5.1-3.9-7.1s-2.7-4.3-4.4-4.8c-1.7-0.5-4.7,0.6-6.6,2.6
								c-1.9,2.1-3.8,4.9-4,6.5c-0.3,1.6,0.9,2.9,2.9,3c1.9,0.1,3.4,1.3,3.5,2.6c0,1.3-0.4,2.9-0.9,3.5c-0.5,0.6,1.7,2.7,5.1,4.5
								C513.3,366,518.4,367.1,521.2,366.6z"/>
						</g>
						<g>
							<path class="st11" d="M518.1,343.5L518.1,343.5c0.3-3.2,1.4-6.9,2.7-8s3-1.6,3.9-0.9s1.9,2.7,2.2,4.7c0.4,1.9,1.7,1.7,3-0.5
								c1.3-2.2,2.7-2.5,3.2-0.3c0.5,2.1-0.1,5.1-1.4,6.5c-1.3,1.4-6.6,0.8-11.8-1.6C520,343.3,517.8,342.4,518.1,343.5z"/>
						</g>
						<g>
							<path class="st11" d="M535.7,362.3c0.8,0.8,0.8,0.8,0.8,0.8c1.3-3.2,2.3-7.5,2.5-9.3c0.1-1.8-1.2-3.4-2.7-3.5
								c-1.6-0.1-4.2,1.3-5.7,3c-1.4,1.7-2.3,4.9-1.8,7c0.5,2.1,2.2,3.8,3.9,3.5c1.7-0.3,3-0.4,3-0.4"/>
						</g>
						<g>
							<path class="st11" d="M843.1,599c-1.2-1.3-1.9-3.5-1.6-5.1c0.4-1.6,0.5-4.9,0.3-7.8c-0.3-2.7-0.5-9.6-0.6-15.2c0,0,0,0,1-0.3
								c1-0.3,9.1-1.8,10-2.1c0.9-0.1,0.9-0.1,0.9-0.1c4.3-3.8,10.6-9,14-11.8c0,0,0,0,0.6,0.8s0.6,0.8,0.6,0.8
								c2.1,1,5.2,0.3,6.9-1.8c1.7-2.1,4-3.5,5.2-3.2c1.2,0.3,2.1,1.8,2.1,3.4c0,1.7,1.8,4.3,4,5.8c2.2,1.6,5.1,0.1,6.4-3.4
								c1.3-3.4,3.1-4.3,4.2-1.9c1,2.3,2.5,9,3.2,14.7c0,0,0.1,1.4,0.9,1.4c0.8,0,0.8,0,0.8,0c4.3,1,7.7,5.3,7.4,9.5
								c-0.3,4.2-2.3,11.4-4.4,16.1c-2.2,4.7-5.7,9.6-7.9,10.9s-6.5,1.3-9.6,0.1c-3.1-1.3-6.5-4.7-7.4-7.5c-1-3-2.7-5.5-3.9-5.7
								c-1.2-0.3-4-1-6.5-1.7c-2.5-0.6-7.4-0.3-11,0.9c-3.6,1.2-8,2.9-9.9,3.8C846.7,600.5,844.2,600.3,843.1,599z"/>
						</g>
						<g>
							<path class="st11" d="M904.1,359.7c-1.4-0.8-1.9-1.8-1-2.1c0.8-0.4,1.4-1.6,1.4-2.6c-0.1-1.2,1.3-2.1,3.1-2.1
								c1.8,0,3.1-2.1,3-4.5c-0.1-2.5-2.5-5.8-5.2-7.7c0,0,0,0,0-0.5c0-0.5-11-3.1-11.4-3.2c-0.4-0.1-14.8-0.5-15.7-0.4
								c-0.9,0.1-0.9,0.1-0.9,0.1c-0.5,2.9-3.8,6-7.1,7s-7.9,0.3-9.9-1.6c-2.1-1.9-6.9-1.7-10.9,0.6c0,0,0,0-0.3,0.5
								c-0.3,0.5-0.3,0.5-0.3,0.5c-3.6-2.7-9.1-4.8-12.2-4.7c-3.1,0.1-6.4,0.9-7.1,1.6s-1.3,2.6-1,4c0.3,1.4-1.7,2.7-4.3,2.7
								s-4.4,1.2-4.2,2.6c0.3,1.4-0.6,1.9-2.3,1c-1.6-0.8-3.5-2.6-4.2-4s-3.2-2.6-5.6-2.6c-2.3,0-4.9,0.8-5.6,1.8s-1.9,1.3-2.6,0.6
								c-0.8-0.6-3.8-0.8-6.6-0.3c-2.9,0.5-6.4,2.2-7.8,3.6c-1.4,1.4-2.2-0.6-1.8-4.7s-1.4-9.1-4-11.4c0,0,0,0-0.4-0.3
								c-0.4-0.3-0.4-0.3-0.4-0.3c-3.5-0.8-7.4,0.1-8.8,2.1c-1.4,1.9-5.1,5.3-8,7.4c-3,2.2-5.5,5.8-5.5,8.2s-1.7,4.8-3.8,5.5
								c-2.1,0.6-1.6,3.2,1.3,5.7s4.5,5.2,3.8,6c-0.8,0.8-2.5,0.1-3.8-1.6s-4.3-2.6-6.5-2.1c-2.2,0.5-2.5,3.4-0.5,6.2
								s2.3,9.9,0.9,15.5c0,0,0,0.1-0.4,0.3c-0.3,0.1-0.3,0.1-0.3,0.1c-1.2-2.1-4.3-5.1-6.9-6.5s-7.1-2.1-10.1-1.2
								c-3,0.9-9.2,2.6-13.8,3.8c-4.5,1.2-9.7,4.7-11.4,7.9c-1.7,3.2-4.7,7-6.6,8.4c0,0,0,0-0.4,0s-0.4,0-0.4,0
								c-1.2-2.1-0.6-4.7,1.2-5.7c1.7-1,2.3-3.4,1.4-5.3c-0.9-1.8-4-3.6-6.6-4c-2.7-0.4-6.4-3.4-8-6.8c0,0,0,0,0.3,0.1s-1,0.3-1,0.3
								c-5.7,0.5-12.2,3.2-14.4,6.1c-2.2,2.9-6.1,8.3-8.6,12.1c-2.5,3.8-5.2,7.7-6,8.6c-0.8,0.9-1.4,3.2-1.7,5.1
								c-0.1,1.8,0.4,4,1,4.8c0.8,0.8,2.7,1.2,4.4,1c1.7-0.3,3.6,1,4.3,2.9s1.8,3.4,2.5,3.6s2.5-1.2,3.9-3.1
								c1.3-1.9,2.3-4.7,2.2-6.1c-0.1-1.4-0.6-3.6-1.3-4.9c-0.5-1.3-0.1-3.2,1-4.4c1.2-1.2,2.3-3.5,2.9-5.5c0.4-1.8,2.2-3.4,3.9-3.4
								c1.7,0,1.9,1.6,0.5,3.5c-1.4,1.9-2.5,4.7-2.5,6.2c0.1,1.6,0.9,3.8,1.8,4.9c0.9,1.2,3.6,1.7,6.1,1.2c2.5-0.5,4.2-0.5,3.8,0
								c-0.4,0.5-2.3,2.3-4.4,4s-4.4,4.8-5.5,6.9c-1,2.2-3.1,3.9-4.7,3.9c-1.6,0-3.9,0.4-5.1,0.8c-1.3,0.4-3.6,0.5-5.2,0.1
								c-1.7-0.4-2.9-2.5-2.9-4.7c0-2.2-0.4-3.4-1.2-2.7c-0.6,0.8-1.3,2.9-1.4,4.8c0,1.9-1.7,3.9-3.8,4.4c0,0,0,0-0.4,0.1
								c-0.4,0.1-0.4,0.1-0.4,0.1c-0.8,2.5-2.7,5.2-4.4,6.2c-1.7,1-3.4,2.3-3.9,2.9c-0.5,0.5-2.7,0.9-4.9,0.8c0,0,0,0,0.3,0.4
								s0.3,0.4,0.3,0.4c-1,0.5-0.6,2.1,0.8,3.4c1.4,1.3,2.3,3.5,1.9,4.8c-0.4,1.3-2.3,2.3-4.4,2.3c-2.1-0.1-4.7,0-5.7,0.3
								c-1,0.3-2.1,2.3-2.3,4.8s-0.4,5.3-0.3,6.5c0.1,1.2,0.9,2.1,1.8,2.1c0.9,0,2.2,0.3,2.9,0.8c0.6,0.5,1.8,0.4,2.5-0.1
								c0.6-0.5,1.9-0.9,2.9-0.9c0.9,0,2.2-0.3,2.9-0.5s1.3-1,1.3-1.8c0-0.8,0.5-1.9,1-2.9c0.5-0.9,1.8-2.3,2.7-3.4
								c0.9-1,2.2-2.3,2.9-3.1s2.1-0.9,3-0.4c0.9,0.5,2.3,0.4,3-0.4c0.6-0.8,1.6-1.6,2.1-1.8c0.5-0.3,1.6,0.3,2.5,1.2
								c0.9,0.9,2.3,2.5,3.4,3.2s2.6,1.8,3.5,2.2s1.8,1.8,1.8,3.1c0,1.3-0.3,2.5-0.6,2.6c-0.4,0.1-0.8,0.5-1,1
								c-0.3,0.4,0.5,0.4,1.6-0.1c1-0.5,1.9-1.9,2.1-3.2c0.1-1.3,0.6-2.1,1.4-1.6c0.6,0.5,1.3,0.4,1.3-0.1c0-0.5-1-1.4-2.5-1.9
								c-1.4-0.5-3.6-2.2-4.9-3.9c-1.3-1.6-2.3-3.5-2.3-4.3c0-0.8,0.5-1,1.3-0.6s1.8,1.2,2.5,1.7s2.3,1.8,3.9,2.9
								c1.6,1,3.1,2.6,3.4,3.6c0.3,1,1.7,3.6,3.1,5.7c1.4,2.1,3.2,3.6,3.9,3.4s1.2-1.3,0.9-2.3s-0.5-2.6-0.9-3.4
								c-0.3-0.8,0.3-1.9,1.2-2.6c0.9-0.6,2.2-0.6,2.7-0.1c0.5,0.6,1,2.2,1.3,3.5c0.3,1.3,1.4,3.2,2.6,4.2c1.2,0.9,3.1,1.9,4,2.1
								c0.9,0.1,2.7-0.1,3.9-0.8s3.1-1.3,4.3-1.3s1.7,2.7,0.9,6c0,0,0,0-0.3,0.5c-0.3,0.5-0.3,0.5-0.3,0.5c-2.2,2.2-6.2,4.2-9.1,4.4
								s-6.4-0.3-8-1c-1.7-0.8-4.3-0.9-5.7-0.3c-1.4,0.6-2.5,2.2-2.3,3.6c0.1,1.4-0.5,2.5-1.6,2.5c-1,0-2.9-1.2-4.2-2.6
								c-1.3-1.4-3.4-3-4.8-3.6s-3.8-1.6-5.2-2.2s-2.1-2.5-1.4-4c0.6-1.6-1.2-2.9-3.9-2.9c-2.9,0-6.9,0.8-9,1.7
								c-2.1,0.9-5.2,1.8-6.9,1.8c-1.7,0.1-3.8,0-4.7-0.4c-0.9-0.3-2.9,0.6-4.2,2.1c-1.4,1.4-2.5,3.2-2.5,4.2c0,0.9-0.5,2.9-1.2,4.5
								c-0.6,1.7-2.2,3.1-3.5,3.4c-1.3,0.3-4,2.9-6.1,5.7c0,0,0,0-0.5,0.6c-0.5,0.6-0.5,0.6-0.5,0.6c-1.3,2.7-1.9,5.5-1.4,6.2
								c0.5,0.8,0.9,2.7,0.8,4.4c-0.1,1.7-1.6,4-3.4,5.3c0,0,0,0,0.1,0.6c0.1,0.6,0.1,0.6,0.1,0.6c2.2,3.1,4.7,6.1,5.5,6.5
								c0.8,0.5,1.7,1.7,2.1,2.9c0.4,1,2.7,3.6,5.3,5.7c2.6,2.1,5.2,3.4,6,2.9c0.8-0.5,2.3-0.8,3.5-0.6c1.2,0.1,3.2,0,4.5-0.1
								c1.3-0.3,3.5-1,5.1-1.8s3.4-1.2,4.3-0.9c0.9,0.3,2.5,1.3,3.4,2.2c0.9,1,2.7,1.7,4,1.7c1.3,0,2.6,0.8,2.9,1.9
								c0.3,1.2,0.3,3.2-0.1,4.9c-0.4,1.6,0,3.8,0.8,4.8c0.8,1,3,5.2,4.7,9.1c1.7,3.9,2.5,7.8,1.8,8.6c-0.6,0.8-2.2,3.2-3.2,5.3
								c0,0,0,0-0.3,0.8c-0.3,0.8,2.3,9.3,2.3,9.3c1.7,5.5,3.9,12.2,5.1,14.8c1,2.7,2.6,6.1,3.5,7.7c0.8,1.6,5.1,1.6,9.3,0.1
								c4.3-1.4,9.6-5.2,11.7-8.2c2.1-3,4.9-6,6.4-6.8s2.3-3.1,2.1-5.5c-0.3-2.3,1.7-6.4,4.4-9.1s4.9-6.8,4.9-9.1
								c0-2.3-0.1-6.5-0.3-9.1c-0.1-2.7,2.2-7.4,5.1-10.5c3-3.1,7.7-9.5,10.4-14.2c2.7-4.7,2.5-8-0.6-7.7c0,0,0,0-0.4,0.3
								s-0.4,0.3-0.4,0.3c-2.7,0.9-5.6,0.8-6.5-0.3c-0.9-1-4-4.3-6.9-7.3c-2.9-3-6.1-7.4-7.1-9.9c-1-2.5-2.6-6.1-3.6-8
								c-1-1.9-1.4-4-0.8-4.5s1.6-0.4,2.2,0.3c0.5,0.6,3.4,5.1,6.2,9.6c0,0,0,0,0,0.6s4.3,7.1,4.3,7.1c3.1,4.8,8.6,7.8,11.9,6.8
								c3.4-1,8.4-3.2,11.2-4.8c2.7-1.6,5.8-3.8,6.8-4.9c1-1.2,1.3-3.2,0.6-4.4c-0.6-1.3-2.1-3.4-3.1-4.8c-1-1.4-3.8-1.8-5.8-1
								s-4.9,0.1-6.1-1.6c-1.2-1.7-3-3.6-4-4.4c-0.9-0.8-0.8-1.8,0.3-2.5c1.2-0.6,3.6,0.4,5.7,2.2c2.1,1.8,4.8,3.2,6.2,3
								c1.4-0.1,2.9,0.1,3.2,0.8c0.4,0.5,4,1,8,1.2c4,0.1,8.3,1.3,9.6,2.7c1.3,1.4,3.1,3.5,4.2,4.5c1,1,2.5,1.6,3.5,0.9
								c0.9-0.5,3.6,3.2,6.1,8.4l2.5,5.3c2.5,5.2,5.2,8.2,6,6.8c0.9-1.4,2.2-4.8,3.1-7.3c0.9-2.6,3.5-6.8,5.7-9.5
								c2.2-2.7,5.8-5.1,7.8-5.5c1.9-0.4,4.9,1.9,6.8,5.2c1.7,3.2,4.4,5.5,6.1,4.9c1.6-0.5,3.1,1,3.5,3.5c0.3,2.5,0.5,5.8,0.6,7.5
								c0,1.7,0.9,4.3,1.9,5.6c1,1.4,2.2,3.5,2.7,4.8c0.4,1.2,1.9,3.1,3.5,4.2c1.4,1,2.3,0.1,1.9-1.9c-0.4-2.1-1.9-4.8-3.2-5.8
								c-1.4-1-3.1-2.9-3.8-3.9c-0.6-1-0.6-3.2-0.1-4.8c0.6-1.6,2.9-1.2,4.9,1s4.9,3.6,6.4,3.1c1.4-0.5,3-3.4,3.6-6.6
								c0.5-3.1-0.3-6.6-1.7-7.7c-1.4-1-2.6-3.2-2.3-4.9c0.1-1.7,2.1-3.2,4.2-3.5c2.1-0.3,6.5-2.3,9.9-4.4c3.4-2.2,6.8-4.9,7.5-6.2
								s1.3-4.2,1.2-6.4c-0.1-2.2-1.6-6.4-3-9.1s-1.9-6.1-0.9-7.4c0.9-1.3,0.6-1.9-0.6-1.6c-1.3,0.4-3.2,0-4.3-0.9
								c-1-0.9-0.1-3.9,1.9-6.5c0,0,0,0,0.3-0.6c0.3-0.6,0.3-0.6,0.3-0.6c0.9,0.9,1.9,2.2,2.2,2.9c0.4,0.6,1.6,1,2.9,0.8
								c1.2-0.3,2.9,0.3,3.6,1c0.8,0.8,1.7,2.1,2.1,2.9c0.3,0.8,1,2.6,1.7,4s1.9,2.5,2.7,2.1c0.8-0.3,1.6-1.4,1.7-2.6
								c0.1-1.2-0.5-3.4-1.4-4.9c-0.9-1.6-1.7-4-1.7-5.6s0.5-3.8,1.2-5.1c0.6-1.2,2.1-2.1,3-1.8c0.9,0.3,3.1-2.9,4.8-6.9
								c1.7-4,2.2-11.6,1.2-16.7c-1-5.2-4.7-9.9-8.2-10.5c-3.5-0.5-5.1-4.4-3.6-8.6c1.4-4.2,7.1-9.2,12.5-11.3c0,0,2.5-0.9,2.3-0.9
								l0,0c1.6,1.2,3.8,1.3,5.2,0.3c1.3-1,1.9-1.8,1.3-1.9c-0.6,0-1.3-1.6-1.6-3.5s0.4-3.9,1.3-4.4c0.9-0.5,2.7-0.3,4,0.5
								c1.3,0.8,2.3,0.5,2.3-0.8c0-1.2,0.5-3,1.3-4c0.6-1,1.4-0.8,1.8,0.4c0.4,1.2,0.4,3.4,0.3,4.7c-0.1,1.4-1.2,7.1-2.2,12.7
								c0,0-0.3,1.2-0.5,0.8c-0.3-0.4,0.3,1.2,0.3,1.2c1.8,5.5,4.8,11.9,6.8,14.4c1.9,2.5,3.6,0.5,3.9-4.3
								c0.3-4.8-0.8-11.2-2.3-13.9s-2.5-6.1-1.9-7.4c0.4-1.3,1.7-2.6,2.7-2.9c1-0.3,2.9-0.3,4,0c1.2,0.3,3-3.9,4.3-9.3
								c0,0,0,0,0.1-0.4c0.1-0.4,0.1-0.4,0.1-0.4c2.9-1.9,4.4-4.7,3.4-6C907.6,362.2,905.5,360.5,904.1,359.7z M702.5,456
								c-4.5-0.8-9-2.1-9.7-2.9c-0.8-0.8-0.8-3,0-4.7c0.8-1.7,3.1-4.3,5.3-5.5c2.1-1.3,5.1-0.8,6.5,1c1.4,1.8,3.5,5.6,4.4,8.4
								C710,455.1,707.1,456.8,702.5,456z M732.6,462.6c-1.9-0.3-3.8-0.6-4.2-0.8c-0.4-0.1-1.9-3.8-3.5-8c-1.6-4.3-1.8-9.7-0.6-12.1
								c1.2-2.5,2.5-2.2,3,0.5s1.7,6.4,3,8c1.2,1.7,3,5.3,4,8C735.2,461,734.4,462.9,732.6,462.6z"/>
						</g>
					</g>
				</g>
			</g>
		</g>
	</g>
</g>
<g>
	<path class="st5" d="M368.7,212.1l-1.8-12.8c-16.9,2.4-31.8,13.1-39.7,28.1l-8.6-3.7l5.1,27.6l23.6-15l-8.3-3.6
		C345.2,221.5,356.2,213.8,368.7,212.1z"/>
	<path class="st5" d="M410.2,337.6l-1.1-28l-25.5,11.5l7.7,4.9c-7.6,10-19.6,16.2-32.2,16.2c-0.1,0-0.1,0-0.1,0l-0.1,12.7
		c0.1,0,0.1,0,0.1,0c17.1,0,33.2-8.4,43.2-22.1L410.2,337.6z"/>
	<path class="st12" d="M357.9,325.3h-54.3c-4.9,0-8.9-4-8.9-8.9v-38.2c0-4.9,4-8.9,8.9-8.9h54.3c4.9,0,8.9,4,8.9,8.9v38.2
		C366.8,321.3,362.8,325.3,357.9,325.3z"/>
	<polyline class="st12" points="310.2,325.3 310.2,332.8 326.8,325.3 	"/>
	<g>
		<rect x="308.7" y="285.9" class="st13" width="44.1" height="3.7"/>
		<rect x="308.7" y="295.5" class="st13" width="44.1" height="3.7"/>
		<rect x="308.7" y="305" class="st13" width="28.5" height="3.7"/>
	</g>
	<path class="st14" d="M376,279.5h50.9c4.9,0,8.9-4,8.9-8.9v-35.5c0-4.9-4-8.9-8.9-8.9H376c-4.9,0-8.9,4-8.9,8.9v35.5
		C367.1,275.5,371.1,279.5,376,279.5z"/>
	<polyline class="st14" points="421.3,279.6 421.3,286.6 405.4,279.5 	"/>
	<g>
		<rect x="380.4" y="242" class="st13" width="42" height="3.5"/>
		<rect x="380.4" y="251.1" class="st13" width="42" height="3.5"/>
		<rect x="380.4" y="260.2" class="st13" width="42" height="3.5"/>
	</g>
	<path class="st15" d="M276.1,200.5c-4.9,0-8.9,4-8.9,8.9c0-4.9-4-8.9-8.9-8.9c-4.9,0-8.9,4-8.9,8.9c0,2,0.7,3.9,1.8,5.4
		c1.6,2.1,15.9,16.9,15.9,16.9s14.3-14.8,15.9-16.9c1.2-1.5,1.8-3.4,1.8-5.4C285,204.4,281.1,200.5,276.1,200.5z"/>
	<path class="st15" d="M468,216.9c-2.1,0-3.8,1.7-3.8,3.8c0-2.1-1.7-3.8-3.8-3.8c-2.1,0-3.8,1.7-3.8,3.8c0,0.9,0.3,1.7,0.8,2.3
		c0.7,0.9,6.8,7.2,6.8,7.2s6.2-6.4,6.8-7.2c0.5-0.6,0.8-1.4,0.8-2.3C471.8,218.6,470.1,216.9,468,216.9z"/>
	<path class="st15" d="M259.4,314.8c-1.4,0-2.4,1.1-2.4,2.4c0-1.4-1.1-2.4-2.4-2.4s-2.4,1.1-2.4,2.4c0,0.5,0.2,1.1,0.5,1.5
		c0.5,0.6,4.4,4.7,4.4,4.7s4-4.1,4.4-4.7c0.3-0.4,0.5-0.9,0.5-1.5C261.9,315.9,260.7,314.8,259.4,314.8z"/>
	<path class="st15" d="M378.7,153.8c-2.8,0-5,2.2-5,5c0-2.8-2.2-5-5-5s-5,2.2-5,5c0,1.2,0.4,2.2,1,3c0.9,1.2,9,9.5,9,9.5
		s8.1-8.4,9-9.5c0.7-0.8,1-1.9,1-3C383.8,156,381.5,153.8,378.7,153.8z"/>
	<path class="st15" d="M384.3,384.4c-1.7,0-3,1.4-3,3c0-1.7-1.4-3-3-3c-1.6,0-3,1.4-3,3c0,0.7,0.2,1.4,0.6,1.8
		c0.5,0.7,5.4,5.8,5.4,5.8s4.9-5,5.4-5.8c0.4-0.5,0.6-1.2,0.6-1.8C387.3,385.7,385.9,384.4,384.3,384.4z"/>
	<polygon class="st16" points="430.3,164.8 435.5,174.2 446.2,176.4 438.9,184.4 440.1,195.1 430.3,190.6 420.4,195.1 421.7,184.4 
		414.3,176.4 424.9,174.2 	"/>
	<polygon class="st17" points="248.4,257.6 251.9,264 259,265.4 254,270.7 254.9,277.9 248.4,274.9 241.7,277.9 242.6,270.7 
		237.7,265.4 244.8,264 	"/>
	<polygon class="st18" points="314.9,164.1 318.2,169.8 324.7,171.1 320.1,176 320.9,182.5 314.9,179.8 308.9,182.5 309.6,176 
		305.2,171.1 311.7,169.8 	"/>
	<polygon class="st18" points="432.1,353.8 435.1,359.2 441.1,360.4 437,364.9 437.6,370.9 432.1,368.4 426.5,370.9 427.2,364.9 
		423,360.4 429,359.2 	"/>
	<polygon class="st18" points="478.3,263.5 480.4,267.2 484.6,268 481.6,271.2 482.1,275.4 478.3,273.6 474.4,275.4 474.9,271.2 
		472,268 476.2,267.2 	"/>
</g>
<path d="M523.9,341.8l5.5,14.3l-40.9,21.8l0,0c-1.4-5.6,1.7-11.4,7.1-13.4l5.3-1.8c3.4-1.8,11.9-11,9-13.5L523.9,341.8z"/>
<path class="st19" d="M628.7,348.5L559.8,298l-26.4,52.1l-28.7,1.6l38.2-83.2c4.4-9.7,16.2-13.8,25.7-8.7l76.6,41.3L628.7,348.5z"/>
<path d="M644.8,539l11,13L610,563.7l0,0c0-5.8,4.4-10.9,10.4-11.4l5.7-0.5c3.8-0.9,5.5-5.6,3.1-8.7l0,0L644.8,539z"/>
<path class="st20" d="M707.8,322.8v5.8c0,18.2-14.8,33-33,33l0,0l-50.6,64l25.4,111.5l-26.1,7.1L589,423.6
	c-1.7-5.7-1.2-11.8,1.4-17.3l39.6-83.5H707.8z"/>
<path class="st16" d="M628.6,192.1h53.2c13.9,0,26.7,7.4,33.5,19.5l20.6,45.6c3.2,7.1,4.9,14.8,4.9,22.6v68.8h-24.7v-70.6l-8.4-23.5
	v75.3h-81.5l-5.8-96.1l-38,35.7c-8.3,8.4-22.6,6.4-28-4.2l-33.6-65l16.7-10.4l29.7,48.3l34-34.4
	C608.5,196.2,618.3,192.1,628.6,192.1z"/>
<linearGradient id="SVGID_4_" gradientUnits="userSpaceOnUse" x1="615.9871" y1="-507.1964" x2="690.6359" y2="-507.1964" gradientTransform="matrix(1 0 0 1 0 655.9999)">
	<stop  offset="0" style="stop-color:#F7BE86"/>
	<stop  offset="0.3293" style="stop-color:#F7BC83"/>
	<stop  offset="0.5448" style="stop-color:#F7B67B"/>
	<stop  offset="0.7276" style="stop-color:#F7AC6C"/>
	<stop  offset="0.8912" style="stop-color:#F79E57"/>
	<stop  offset="1" style="stop-color:#F79244"/>
</linearGradient>
<path class="st21" d="M616.4,131.8c-0.3-14.8,15.3-32.6,36.2-32.7c13-0.1,24.9,7.1,31.7,18.2l0.8,1.3c5.5,8.8,6.9,19.7,3.9,29.7
	l-10.6,26.2l-0.6,17.7l-0.5,0.5c-8.6,7.9-21.8,7.7-30-0.5l0,0l0.6-19.1h-14c-9.9-0.1-17.8-8.2-17.8-18v-0.1v-8.2L616.4,131.8z"/>
<path d="M671.7,138.2l-11.4-19.3l-42.6,0.4l0,0c0-13.8,11.9-26.2,19.5-30c8.4-4.3,18.3-5.6,28.2-3.1l0,0c23.6,5.8,36.7,31,28,53.8
	c-2.9,7.5-6.5,17.8-12.1,27.1L671.7,138.2z"/>
<linearGradient id="SVGID_5_" gradientUnits="userSpaceOnUse" x1="661.8544" y1="-514.4356" x2="680.0313" y2="-514.4356" gradientTransform="matrix(1 0 0 1 0 655.9999)">
	<stop  offset="0" style="stop-color:#F7BE86"/>
	<stop  offset="0.3293" style="stop-color:#F7BC83"/>
	<stop  offset="0.5448" style="stop-color:#F7B67B"/>
	<stop  offset="0.7276" style="stop-color:#F7AC6C"/>
	<stop  offset="0.8912" style="stop-color:#F79E57"/>
	<stop  offset="1" style="stop-color:#F79244"/>
</linearGradient>
<path class="st22" d="M661.8,141.6c0,5.1,4,9.1,9.1,9.1c5.1,0,9.1-4,9.1-9.1s-4-9.1-9.1-9.1C666,132.5,661.8,136.5,661.8,141.6z"/>
<path class="st23" d="M631.2,153.8c0,4.4,3.5,7.9,7.9,7.9c4.4,0,7.9-3.5,7.9-7.9"/>
<g>
	<g>
		
			<linearGradient id="SVGID_6_" gradientUnits="userSpaceOnUse" x1="713.3082" y1="-284.5636" x2="720.9597" y2="-284.5636" gradientTransform="matrix(1 0 0 1 0 655.9999)">
			<stop  offset="0" style="stop-color:#F7BE86"/>
			<stop  offset="0.3293" style="stop-color:#F7BC83"/>
			<stop  offset="0.5448" style="stop-color:#F7B67B"/>
			<stop  offset="0.7276" style="stop-color:#F7AC6C"/>
			<stop  offset="0.8912" style="stop-color:#F79E57"/>
			<stop  offset="1" style="stop-color:#F79244"/>
		</linearGradient>
		<path class="st24" d="M717.1,384.5L717.1,384.5c-2.1,0-3.8-1.7-3.8-3.8V364l7.7-5.6v22.3C721,382.8,719.2,384.5,717.1,384.5z"/>
		
			<linearGradient id="SVGID_7_" gradientUnits="userSpaceOnUse" x1="720.6984" y1="-283.3302" x2="728.86" y2="-283.3302" gradientTransform="matrix(1 0 0 1 0 655.9999)">
			<stop  offset="0" style="stop-color:#F7BE86"/>
			<stop  offset="0.3293" style="stop-color:#F7BC83"/>
			<stop  offset="0.5448" style="stop-color:#F7B67B"/>
			<stop  offset="0.7276" style="stop-color:#F7AC6C"/>
			<stop  offset="0.8912" style="stop-color:#F79E57"/>
			<stop  offset="1" style="stop-color:#F79244"/>
		</linearGradient>
		<path class="st25" d="M724.9,388L724.9,388c-2.2,0-3.9-1.7-3.9-3.9l-0.3-26.7h7.9l0.3,26.7C728.9,386.2,727.1,388,724.9,388z"/>
		
			<linearGradient id="SVGID_8_" gradientUnits="userSpaceOnUse" x1="728.6108" y1="-284.5637" x2="736.2631" y2="-284.5637" gradientTransform="matrix(1 0 0 1 0 655.9999)">
			<stop  offset="0" style="stop-color:#F7BE86"/>
			<stop  offset="0.3293" style="stop-color:#F7BC83"/>
			<stop  offset="0.5448" style="stop-color:#F7B67B"/>
			<stop  offset="0.7276" style="stop-color:#F7AC6C"/>
			<stop  offset="0.8912" style="stop-color:#F79E57"/>
			<stop  offset="1" style="stop-color:#F79244"/>
		</linearGradient>
		<path class="st26" d="M732.4,384.5L732.4,384.5c-2.1,0-3.8-1.7-3.8-3.8v-22.3h7.7v22.3C736.2,382.8,734.5,384.5,732.4,384.5z"/>
		
			<linearGradient id="SVGID_9_" gradientUnits="userSpaceOnUse" x1="736.2631" y1="-289.9518" x2="743.9138" y2="-289.9518" gradientTransform="matrix(1 0 0 1 0 655.9999)">
			<stop  offset="0" style="stop-color:#F7BE86"/>
			<stop  offset="0.3293" style="stop-color:#F7BC83"/>
			<stop  offset="0.5448" style="stop-color:#F7B67B"/>
			<stop  offset="0.7276" style="stop-color:#F7AC6C"/>
			<stop  offset="0.8912" style="stop-color:#F79E57"/>
			<stop  offset="1" style="stop-color:#F79244"/>
		</linearGradient>
		<path class="st27" d="M740.1,373.8L740.1,373.8c-2.1,0-3.8-1.7-3.8-3.8v-11.8h7.7v11.8C743.9,372.2,742.2,373.8,740.1,373.8z"/>
	</g>
	
		<linearGradient id="SVGID_10_" gradientUnits="userSpaceOnUse" x1="713.3008" y1="-299.1051" x2="743.9138" y2="-299.1051" gradientTransform="matrix(1 0 0 1 0 655.9999)">
		<stop  offset="0" style="stop-color:#F7BE86"/>
		<stop  offset="0.3293" style="stop-color:#F7BC83"/>
		<stop  offset="0.5448" style="stop-color:#F7B67B"/>
		<stop  offset="0.7276" style="stop-color:#F7AC6C"/>
		<stop  offset="0.8912" style="stop-color:#F79E57"/>
		<stop  offset="1" style="stop-color:#F79244"/>
	</linearGradient>
	<path class="st28" d="M743.9,362.8v-5.6c0-1.3-0.3-2.6-0.8-3.8l-2.2-4.8l-20.3-0.5l-0.3,0.3c-4.8,4.4-7,10.6-7,17.3L743.9,362.8z"
		/>
</g>
<path class="st29" d="M536.9,190.3l-2.1-14.7v-11.8c0-1.9-1.6-3.4-3.4-3.4l0,0c-1.9,0-3.5,1.7-3.4,3.6l0.9,13.1l-22.7,15.1l14.5,7.9
	L536.9,190.3z"/>
<g>
	<path d="M526.1,192.1h-20.9c-1.6,0-2.9-1.3-2.9-2.9v-5.1l2.9-17l-2.9-15.2v-3.5c0-1.6,1.3-2.9,2.9-2.9h20.9c1.6,0,2.9,1.3,2.9,2.9
		v3.5l-3.4,15.2l3.4,17.3v4.8C529,190.9,527.7,192.1,526.1,192.1z"/>
	<g>
		<path class="st23" d="M519.5,184.3c0,2.1-1.7,3.8-3.8,3.8c-2.1,0-3.8-1.7-3.8-3.8s1.7-3.8,3.8-3.8S519.5,182.2,519.5,184.3z"/>
	</g>
	<rect x="502.5" y="152.1" class="st5" width="26.5" height="32.2"/>
</g>
<rect x="659.4" y="109" width="8.7" height="29.2"/>
<path class="st15" d="M520.3,160.3c-2.5,0-4.4,1.9-4.4,4.4c0-2.5-1.9-4.4-4.4-4.4s-4.4,1.9-4.4,4.4c0,1,0.4,1.9,0.9,2.7
	c0.8,1,7.9,8.4,7.9,8.4s7.1-7.4,7.9-8.4c0.5-0.8,0.9-1.7,0.9-2.7C524.8,162.3,522.8,160.3,520.3,160.3z"/>
</svg>
