<?xml version="1.0" encoding="utf-8"?>
<!-- Generator: Adobe Illustrator 23.0.0, SVG Export Plug-In . SVG Version: 6.00 Build 0)  -->
<svg version="1.1" id="a90b5256-b423-42d1-825d-5fdc0dc55c5f"
	 xmlns="http://www.w3.org/2000/svg" xmlns:xlink="http://www.w3.org/1999/xlink" x="0px" y="0px" viewBox="0 0 883 684.5"
	 style="enable-background:new 0 0 883 684.5;" xml:space="preserve">
<style type="text/css">
	.st0{fill:#2A1DA4;}
	.st1{fill:#148CE5;}
	.st2{fill:#2D56D0;}
	.st3{fill:#FAC400;}
	.st4{fill:#FFFFFF;}
	.st5{clip-path:url(#SVGID_2_);}
	.st6{clip-path:url(#SVGID_4_);}
	.st7{clip-path:url(#SVGID_6_);}
	.st8{clip-path:url(#SVGID_8_);}
	.st9{clip-path:url(#SVGID_10_);}
	.st10{clip-path:url(#SVGID_12_);}
	.st11{fill:#FFE5D2;}
	.st12{opacity:0.1;enable-background:new    ;}
	.st13{fill:#26EDED;}
	.st14{fill:#003777;}
	.st15{opacity:0.2;enable-background:new    ;}
</style>
<g>
	<path class="st0" d="M75.7,453.7c-6.4-8.6-12.1-17.7-16.8-27.2c20.9,10.7,42,22.4,56.7,40.2c2.2,2.7,5.3,6.4,8.1,10.4
		c-1.5-2.7-2.6-5.6-3.6-8.7c-3.4,1.4-20.7-20.6-23.4-24c-7.6-9.5-14.5-19.5-20.7-29.8c-3.2-5.3-6.2-10.8-9-16.3
		c-0.9-1.6-6.3-15.8-7.4-15.9c9.4,0.7,17.6,6,24.4,12.7c-0.6-1.2-1.2-2.4-1.8-3.6c-7.2-14.9-11.9-30.9-16.6-46.7
		c13.4,10.7,25.9,22.8,35.1,36.9c0.6,0.9,1.2,1.8,1.7,2.7c0-0.5,0-1.2,0.1-1.7c0.3-8.7,1.4-17.3,3.3-25.8c1-4.4,2.2-8.7,3.6-13
		c0.5-1.7,4.9-10.1,4.2-11.3c8,14.1,8.3,31.1,5.8,47c-1.3,8.7-2.2,20.1-6.5,28.2c0.1,0.2,0.2,0.5,0.2,0.7c0.8,2.9,5.8,20,1.2,22.1
		c-1.6,0.8-4.3-0.9-7-3.6c1.5,2.9,3,5.9,4.3,8.9c0.9,1.9,3.4,7.4,5.7,13.2c-0.3-7.7,0.1-15.2,0.6-21.8c1.6-18.7,6.4-36.9,11.3-55
		c7.4,17.1,8.8,36.1,7,54.6c-0.9,9.1-2.5,18.2-4.5,27.1c-1.2,5.1-2.6,21.5-7.2,24.3c1.9,2.9,3.6,5.9,4.6,8.7
		c0.8-13.9,3.2-27.6,7.1-40.9c1.9-6.7,4.3-13.2,7-19.6c1.4-3.3,2.9-6.7,4.6-9.9c0.7-1.3,4.8-7,4.4-8.4c3.5,14.4,4.1,29.4,1.9,44.1
		c-1.9,12.8-5.7,25.4-11.6,37.1c-1.6,3.3-5.5,13.8-10.1,13.5c-3.1-0.2-4-3.3-4.1-6.8c-1.9,1.4-4.9,1.2-7.7,0.3
		c-0.2,0.9-0.8,1.6-1.9,2.2c-4.8,2.6-20.5-3.1-25.4-4.8c-12.2-4.3-23.6-12.8-27.9-24.7c10.9,1.5,21.6,4.7,31.6,9.1
		C89.2,470.5,82,462.3,75.7,453.7z"/>
	<path class="st0" d="M97.8,373.3c-6.1-4.6-11.2-11-15.3-17.3c-4.3-6.4-7.5-13.4-9.8-20.7c-0.6-2-3.3-22.1-3.3-22
		c7.3,2.2,11.2,9.4,14.5,16.1c2.2,4.6,4.4,9.1,6.7,13.6c-0.3-2-0.5-3.9-0.8-5.7c-1.5-12.7-0.7-25.9,3.9-37.9
		c-0.9,2.5,5.6,14.9,6.3,18c1.6,6.3,2.6,12.8,2.9,19.3c0.5,9,0.5,19.7-1.9,29C103.1,371.9,104.3,378.2,97.8,373.3z"/>
</g>
<g>
	<path class="st1" d="M32.6,469.5c5.3,27.1,17.7,53.3,38.4,73.2c18,17.4,42.5,29.4,68.2,31.8c8.9,0.9,27.6,2.6,33.4-5.5
		c1.4-1.9,1.6-4.3,1.5-6.7c-0.1-1.6-0.2-3.3-0.3-4.7c-0.3-5.5-0.2-11-1.3-16.5c-2.5-12.3-8.8-24-17.6-33.5
		c-14.9-16.2-35.9-26.5-57.5-33c-18.5-5.7-37.7-8.9-56.7-12.5c-0.9-0.2-1.6-0.2-2.4-0.1C34.6,462.5,31.9,465.8,32.6,469.5z"/>
	<path class="st2" d="M32.6,469.5c5.3,27.1,17.7,53.3,38.4,73.2c18,17.4,42.5,29.4,68.2,31.8c8.9,0.9,27.6,2.6,33.4-5.5
		c1.4-1.9,1.6-4.3,1.5-6.7c-8.5-8.2-24.6-5.7-33.5-13.9c-7.4-6.7-7.2-18.5-14.6-25.2c-4.6-4.3-11.4-5.7-17.8-6.3
		c-6.4-0.6-13-0.7-19-2.9c-7.7-2.8-13.5-8.9-18-15.3c-4.6-6.4-8-13.5-12.9-19.7c-5.3-6.9-12.2-12.7-20.1-17
		C34.6,462.5,31.9,465.8,32.6,469.5z"/>
</g>
<g>
	<path class="st3" d="M315.4,128.3c-12.5-10.7-29.6-16-46.3-20.2c-16.7-4.2-33.9-7.9-48.8-15.9c1.2,14,2.2,28.3,6.2,42.1
		c4,13.9,10.9,27.2,22.2,37.6c11.4,10.4,27.6,17.4,43.8,16.5C330.3,186.9,341.4,150.6,315.4,128.3z"/>
	<path class="st1" d="M345.4,129.7c4.3-10.5,6.2-22.4,2.5-33.3C343.7,83.7,332.7,73.3,320,66c-12.7-7.4-27.1-12-41.5-16.5
		c-0.5,9.2-6.2,17.4-9.9,25.9c-12.4,28.9,2,65.2,32.6,82.1c8.2,4.5,20.9,9,27.6,1.3C335.7,150.7,341.5,138.9,345.4,129.7z"/>
	<g>
		<g>
			<path class="st4" d="M246.7,121.8c14.7,26.6,36.1,48.3,61.5,64.7c0.5,0.3,0.8-0.5,0.5-0.8c-25.4-16.2-46.6-37.8-61.2-64.4
				C247.2,121,246.4,121.3,246.7,121.8L246.7,121.8z"/>
		</g>
	</g>
	<g>
		<g>
			<path class="st4" d="M311.4,85.7c22.9,25.7,26.1,59.3,27.8,92.4c0,0.5,0.8,0.5,0.8,0c-1.7-33.3-5-67-27.9-92.9
				C311.6,84.7,310.9,85.4,311.4,85.7L311.4,85.7z"/>
		</g>
	</g>
</g>
<g>
	<g>
		<g>
			<path id="XMLID_1_" class="st3" d="M224.1,533.6c2.3-7.8,2.9-17.2-2.9-23.1c-5.3-5.3-14.9-6.5-18.3-13.2
				c-3.4-6.8,1.8-14.3,5.1-21.2c4.2-8.6,5.5-18.5,3.6-27.9c-0.7-3.6-1.9-7.1-4.5-9.9c-2.6-2.8-6.5-4.5-10.1-3.6
				c-4.4,1.1-7.4,5.5-11.8,6.4c-5.9,1.3-11.3-4.2-12.8-9.8c-1.5-5.7-0.5-11.6-1.4-17.3c-1.2-7.6-6.8-15.3-14.8-16
				c-7-0.7-13.8,4.5-16.3,10.8c-2.6,6.3-1.7,13.5,0.3,20.1c1.2,3.9,2.9,7.8,3.3,11.8c0.5,4.1-0.3,8.6-3.3,11.5c-2.1,2-4.9,3-7.4,4.4
				c-6.6,3.7-11.1,10.4-12,17.7c-0.9,7.3,2,14.9,7.6,19.8c3.4,3,7.6,5.1,11.3,7.8c3.7,2.6,7.1,6.2,7.8,10.6c0.8,5.1-2.2,10-3.2,15
				c-1.2,6.5,0.9,13.3,4.5,19c6.6,10.4,20.6,25.6,33.6,28.5c11.8,2.6,22.1-8.5,28.5-16.5C216.8,551.1,221.4,542.6,224.1,533.6z"/>
		</g>
		<g>
			<defs>
				<path id="SVGID_1_" d="M224.1,533.6c2.3-7.8,2.9-17.2-2.9-23.1c-5.3-5.3-14.9-6.5-18.3-13.2c-3.4-6.8,1.8-14.3,5.1-21.2
					c4.2-8.6,5.5-18.5,3.6-27.9c-0.7-3.6-1.9-7.1-4.5-9.9c-2.6-2.8-6.5-4.5-10.1-3.6c-4.4,1.1-7.4,5.5-11.8,6.4
					c-5.9,1.3-11.3-4.2-12.8-9.8c-1.5-5.7-0.5-11.6-1.4-17.3c-1.2-7.6-6.8-15.3-14.8-16c-7-0.7-13.8,4.5-16.3,10.8
					c-2.6,6.3-1.7,13.5,0.3,20.1c1.2,3.9,2.9,7.8,3.3,11.8c0.5,4.1-0.3,8.6-3.3,11.5c-2.1,2-4.9,3-7.4,4.4
					c-6.6,3.7-11.1,10.4-12,17.7c-0.9,7.3,2,14.9,7.6,19.8c3.4,3,7.6,5.1,11.3,7.8c3.7,2.6,7.1,6.2,7.8,10.6c0.8,5.1-2.2,10-3.2,15
					c-1.2,6.5,0.9,13.3,4.5,19c6.6,10.4,20.6,25.6,33.6,28.5c11.8,2.6,22.1-8.5,28.5-16.5C216.8,551.1,221.4,542.6,224.1,533.6z"/>
			</defs>
			<clipPath id="SVGID_2_">
				<use xlink:href="#SVGID_1_"  style="overflow:visible;"/>
			</clipPath>
			<g class="st5">
				<g>
					<path class="st4" d="M188.1,591.6c4.1-57.4-29.3-107.7-34.8-163.5c-1.5-14.9-0.2-30.3,7.6-43.3c0.2-0.3-0.3-0.6-0.5-0.3
						c-13.1,22-8.1,49.4-2.2,72.8c7.1,28.4,18.3,55.7,24.8,84.2c3.7,16.5,5.7,33.3,4.6,50.2C187.5,592,188,592,188.1,591.6
						L188.1,591.6z"/>
				</g>
			</g>
		</g>
		<g>
			<defs>
				<path id="SVGID_3_" d="M224.1,533.6c2.3-7.8,2.9-17.2-2.9-23.1c-5.3-5.3-14.9-6.5-18.3-13.2c-3.4-6.8,1.8-14.3,5.1-21.2
					c4.2-8.6,5.5-18.5,3.6-27.9c-0.7-3.6-1.9-7.1-4.5-9.9c-2.6-2.8-6.5-4.5-10.1-3.6c-4.4,1.1-7.4,5.5-11.8,6.4
					c-5.9,1.3-11.3-4.2-12.8-9.8c-1.5-5.7-0.5-11.6-1.4-17.3c-1.2-7.6-6.8-15.3-14.8-16c-7-0.7-13.8,4.5-16.3,10.8
					c-2.6,6.3-1.7,13.5,0.3,20.1c1.2,3.9,2.9,7.8,3.3,11.8c0.5,4.1-0.3,8.6-3.3,11.5c-2.1,2-4.9,3-7.4,4.4
					c-6.6,3.7-11.1,10.4-12,17.7c-0.9,7.3,2,14.9,7.6,19.8c3.4,3,7.6,5.1,11.3,7.8c3.7,2.6,7.1,6.2,7.8,10.6c0.8,5.1-2.2,10-3.2,15
					c-1.2,6.5,0.9,13.3,4.5,19c6.6,10.4,20.6,25.6,33.6,28.5c11.8,2.6,22.1-8.5,28.5-16.5C216.8,551.1,221.4,542.6,224.1,533.6z"/>
			</defs>
			<clipPath id="SVGID_4_">
				<use xlink:href="#SVGID_3_"  style="overflow:visible;"/>
			</clipPath>
			<g class="st6">
				<g>
					<path class="st4" d="M215,424.8c-0.2-0.7-0.4-1.4-0.5-2.1c-0.1-0.3-0.5-0.3-0.5,0c-7,27.2-22.7,51.5-44.1,69.7
						c-0.3,0.2,0.2,0.7,0.4,0.4c10.9-9.3,20.4-20.1,28.1-32.3c3.8-6.1,7.1-12.5,9.9-19.1c1.2-2.9,2.3-5.7,3.3-8.7
						c0.6-1.7,1.2-3.5,1.7-5.3c0.3-1.1,0.6-5,1.3-2.6C214.5,425.3,215,425.1,215,424.8L215,424.8z"/>
				</g>
			</g>
		</g>
		<g>
			<defs>
				<path id="SVGID_5_" d="M224.1,533.6c2.3-7.8,2.9-17.2-2.9-23.1c-5.3-5.3-14.9-6.5-18.3-13.2c-3.4-6.8,1.8-14.3,5.1-21.2
					c4.2-8.6,5.5-18.5,3.6-27.9c-0.7-3.6-1.9-7.1-4.5-9.9c-2.6-2.8-6.5-4.5-10.1-3.6c-4.4,1.1-7.4,5.5-11.8,6.4
					c-5.9,1.3-11.3-4.2-12.8-9.8c-1.5-5.7-0.5-11.6-1.4-17.3c-1.2-7.6-6.8-15.3-14.8-16c-7-0.7-13.8,4.5-16.3,10.8
					c-2.6,6.3-1.7,13.5,0.3,20.1c1.2,3.9,2.9,7.8,3.3,11.8c0.5,4.1-0.3,8.6-3.3,11.5c-2.1,2-4.9,3-7.4,4.4
					c-6.6,3.7-11.1,10.4-12,17.7c-0.9,7.3,2,14.9,7.6,19.8c3.4,3,7.6,5.1,11.3,7.8c3.7,2.6,7.1,6.2,7.8,10.6c0.8,5.1-2.2,10-3.2,15
					c-1.2,6.5,0.9,13.3,4.5,19c6.6,10.4,20.6,25.6,33.6,28.5c11.8,2.6,22.1-8.5,28.5-16.5C216.8,551.1,221.4,542.6,224.1,533.6z"/>
			</defs>
			<clipPath id="SVGID_6_">
				<use xlink:href="#SVGID_5_"  style="overflow:visible;"/>
			</clipPath>
			<g class="st7">
				<g>
					<path class="st4" d="M112.5,455.8c14.8,25.5,36.7,46.1,62.8,59.7c0.3,0.2,0.6-0.3,0.3-0.5c-25.9-13.5-47.8-34.1-62.5-59.4
						C112.9,455.2,112.3,455.5,112.5,455.8L112.5,455.8z"/>
				</g>
			</g>
		</g>
		<g>
			<defs>
				<path id="SVGID_7_" d="M224.1,533.6c2.3-7.8,2.9-17.2-2.9-23.1c-5.3-5.3-14.9-6.5-18.3-13.2c-3.4-6.8,1.8-14.3,5.1-21.2
					c4.2-8.6,5.5-18.5,3.6-27.9c-0.7-3.6-1.9-7.1-4.5-9.9c-2.6-2.8-6.5-4.5-10.1-3.6c-4.4,1.1-7.4,5.5-11.8,6.4
					c-5.9,1.3-11.3-4.2-12.8-9.8c-1.5-5.7-0.5-11.6-1.4-17.3c-1.2-7.6-6.8-15.3-14.8-16c-7-0.7-13.8,4.5-16.3,10.8
					c-2.6,6.3-1.7,13.5,0.3,20.1c1.2,3.9,2.9,7.8,3.3,11.8c0.5,4.1-0.3,8.6-3.3,11.5c-2.1,2-4.9,3-7.4,4.4
					c-6.6,3.7-11.1,10.4-12,17.7c-0.9,7.3,2,14.9,7.6,19.8c3.4,3,7.6,5.1,11.3,7.8c3.7,2.6,7.1,6.2,7.8,10.6c0.8,5.1-2.2,10-3.2,15
					c-1.2,6.5,0.9,13.3,4.5,19c6.6,10.4,20.6,25.6,33.6,28.5c11.8,2.6,22.1-8.5,28.5-16.5C216.8,551.1,221.4,542.6,224.1,533.6z"/>
			</defs>
			<clipPath id="SVGID_8_">
				<use xlink:href="#SVGID_7_"  style="overflow:visible;"/>
			</clipPath>
			<g class="st8">
				<g>
					<path class="st4" d="M224.2,486.5c-5.3,24.1-19,45.4-38.1,60.8c-0.3,0.2,0.2,0.6,0.4,0.4c19.2-15.5,32.9-37,38.2-61.1
						C224.8,486.3,224.3,486.1,224.2,486.5L224.2,486.5z"/>
				</g>
			</g>
		</g>
		<g>
			<defs>
				<path id="SVGID_9_" d="M224.1,533.6c2.3-7.8,2.9-17.2-2.9-23.1c-5.3-5.3-14.9-6.5-18.3-13.2c-3.4-6.8,1.8-14.3,5.1-21.2
					c4.2-8.6,5.5-18.5,3.6-27.9c-0.7-3.6-1.9-7.1-4.5-9.9c-2.6-2.8-6.5-4.5-10.1-3.6c-4.4,1.1-7.4,5.5-11.8,6.4
					c-5.9,1.3-11.3-4.2-12.8-9.8c-1.5-5.7-0.5-11.6-1.4-17.3c-1.2-7.6-6.8-15.3-14.8-16c-7-0.7-13.8,4.5-16.3,10.8
					c-2.6,6.3-1.7,13.5,0.3,20.1c1.2,3.9,2.9,7.8,3.3,11.8c0.5,4.1-0.3,8.6-3.3,11.5c-2.1,2-4.9,3-7.4,4.4
					c-6.6,3.7-11.1,10.4-12,17.7c-0.9,7.3,2,14.9,7.6,19.8c3.4,3,7.6,5.1,11.3,7.8c3.7,2.6,7.1,6.2,7.8,10.6c0.8,5.1-2.2,10-3.2,15
					c-1.2,6.5,0.9,13.3,4.5,19c6.6,10.4,20.6,25.6,33.6,28.5c11.8,2.6,22.1-8.5,28.5-16.5C216.8,551.1,221.4,542.6,224.1,533.6z"/>
			</defs>
			<clipPath id="SVGID_10_">
				<use xlink:href="#SVGID_9_"  style="overflow:visible;"/>
			</clipPath>
			<g class="st9">
				<g>
					<path class="st4" d="M134.2,522.3c11.1,19.4,30.2,33.3,51.9,38.5c0.4,0.1,0.5-0.5,0.2-0.5c-21.5-5.2-40.5-18.9-51.5-38.2
						C134.6,521.6,134,521.9,134.2,522.3L134.2,522.3z"/>
				</g>
			</g>
		</g>
		<g>
			<defs>
				<path id="SVGID_11_" d="M224.1,533.6c2.3-7.8,2.9-17.2-2.9-23.1c-5.3-5.3-14.9-6.5-18.3-13.2c-3.4-6.8,1.8-14.3,5.1-21.2
					c4.2-8.6,5.5-18.5,3.6-27.9c-0.7-3.6-1.9-7.1-4.5-9.9c-2.6-2.8-6.5-4.5-10.1-3.6c-4.4,1.1-7.4,5.5-11.8,6.4
					c-5.9,1.3-11.3-4.2-12.8-9.8c-1.5-5.7-0.5-11.6-1.4-17.3c-1.2-7.6-6.8-15.3-14.8-16c-7-0.7-13.8,4.5-16.3,10.8
					c-2.6,6.3-1.7,13.5,0.3,20.1c1.2,3.9,2.9,7.8,3.3,11.8c0.5,4.1-0.3,8.6-3.3,11.5c-2.1,2-4.9,3-7.4,4.4
					c-6.6,3.7-11.1,10.4-12,17.7c-0.9,7.3,2,14.9,7.6,19.8c3.4,3,7.6,5.1,11.3,7.8c3.7,2.6,7.1,6.2,7.8,10.6c0.8,5.1-2.2,10-3.2,15
					c-1.2,6.5,0.9,13.3,4.5,19c6.6,10.4,20.6,25.6,33.6,28.5c11.8,2.6,22.1-8.5,28.5-16.5C216.8,551.1,221.4,542.6,224.1,533.6z"/>
			</defs>
			<clipPath id="SVGID_12_">
				<use xlink:href="#SVGID_11_"  style="overflow:visible;"/>
			</clipPath>
			<g class="st10">
				<g>
					<path class="st4" d="M175,395.3c-5,11.8-11.8,22.7-20.5,32.1c-0.2,0.3,0.2,0.7,0.4,0.4c8.7-9.6,15.7-20.4,20.7-32.4
						C175.7,395.2,175,395,175,395.3L175,395.3z"/>
				</g>
			</g>
		</g>
	</g>
</g>
<g>
	<polygon class="st1" points="590.3,599.4 145.3,599.4 187.7,219.8 543.3,219.8 	"/>
	<path class="st0" d="M543.3,219.8L664.2,563c-30.3,1-48.8,14-73.9,36.4L543.3,219.8z"/>
	<g>
		<path class="st4" d="M294.1,335.6h-67.2c-0.5,0-1-0.5-1-1v-45.1c0-0.5,0.5-1,1-1h67.2c0.5,0,1,0.5,1,1v45.1
			C295.1,335.1,294.6,335.6,294.1,335.6z"/>
		<path class="st4" d="M398,335.6h-67.2c-0.5,0-1-0.5-1-1v-45.1c0-0.5,0.5-1,1-1H398c0.5,0,1,0.5,1,1v45.1
			C399,335.1,398.7,335.6,398,335.6z"/>
		<path class="st4" d="M502,335.6h-67.2c-0.5,0-1-0.5-1-1v-45.1c0-0.5,0.5-1,1-1H502c0.5,0,1,0.5,1,1v45.1
			C503.2,335.1,502.7,335.6,502,335.6z"/>
		<path class="st4" d="M294.1,410.7h-67.2c-0.5,0-1-0.5-1-1v-45.1c0-0.5,0.5-1,1-1h67.2c0.5,0,1,0.5,1,1v45.1
			C295.1,410.4,294.6,410.7,294.1,410.7z"/>
		<path class="st3" d="M398,410.7h-67.2c-0.5,0-1-0.5-1-1v-45.1c0-0.5,0.5-1,1-1H398c0.5,0,1,0.5,1,1v45.1
			C399,410.4,398.7,410.7,398,410.7z"/>
		<path class="st4" d="M502,410.7h-67.2c-0.5,0-1-0.5-1-1v-45.1c0-0.5,0.5-1,1-1H502c0.5,0,1,0.5,1,1v45.1
			C503.2,410.4,502.7,410.7,502,410.7z"/>
		<path class="st4" d="M294.1,485.8h-67.2c-0.5,0-1-0.5-1-1v-45.1c0-0.5,0.5-1,1-1h67.2c0.5,0,1,0.5,1,1v45.1
			C295.1,485.4,294.6,485.8,294.1,485.8z"/>
		<path class="st4" d="M398,485.8h-67.2c-0.5,0-1-0.5-1-1v-45.1c0-0.5,0.5-1,1-1H398c0.5,0,1,0.5,1,1v45.1
			C399,485.4,398.7,485.8,398,485.8z"/>
		<path class="st4" d="M502,485.8h-67.2c-0.5,0-1-0.5-1-1v-45.1c0-0.5,0.5-1,1-1H502c0.5,0,1,0.5,1,1v45.1
			C503.2,485.4,502.7,485.8,502,485.8z"/>
		<path class="st4" d="M294.1,558.8h-67.2c-0.5,0-1-0.5-1-1v-45.1c0-0.5,0.5-1,1-1h67.2c0.5,0,1,0.5,1,1v45.1
			C295.1,558.3,294.6,558.8,294.1,558.8z"/>
		<path class="st4" d="M398,558.8h-67.2c-0.5,0-1-0.5-1-1v-45.1c0-0.5,0.5-1,1-1H398c0.5,0,1,0.5,1,1v45.1
			C399,558.3,398.7,558.8,398,558.8z"/>
		<path class="st3" d="M502,558.8h-67.2c-0.5,0-1-0.5-1-1v-45.1c0-0.5,0.5-1,1-1H502c0.5,0,1,0.5,1,1v45.1
			C503.2,558.3,502.7,558.8,502,558.8z"/>
	</g>
	<g>
		<path class="st0" d="M245.9,194.2c-14.5,0-26.2,11.4-26.2,25.2c0,0.5,0,1,0,1.7h9c0-0.5-0.2-1-0.2-1.7c0-9.2,7.7-16.5,17.4-16.5
			c9.5,0,17.4,7.5,17.4,16.5c0,9.2-7.9,16.5-17.4,16.5c-2,0-3.8-0.3-5.7-1l-6.7,6.5c3.7,2,8,3,12.5,3c14.5,0,26.2-11.4,26.2-25.2
			C272.2,205.4,260.3,194.2,245.9,194.2z"/>
	</g>
	<g>
		<path class="st0" d="M326.3,194.2c-14.5,0-26.2,11.4-26.2,25.2c0,0.5,0,1,0,1.7h9c0-0.5-0.2-1-0.2-1.7c0-9.2,7.7-16.5,17.4-16.5
			c9.5,0,17.4,7.5,17.4,16.5c0,9.2-7.9,16.5-17.4,16.5c-2,0-3.8-0.3-5.7-1l-6.7,6.5c3.7,2,8,3,12.5,3c14.5,0,26.2-11.4,26.2-25.2
			C352.6,205.4,340.9,194.2,326.3,194.2z"/>
	</g>
	<g>
		<path class="st0" d="M406.9,194.2c-14.5,0-26.2,11.4-26.2,25.2c0,0.5,0,1,0,1.7h9c0-0.5-0.2-1-0.2-1.7c0-9.2,7.7-16.5,17.4-16.5
			c9.5,0,17.4,7.5,17.4,16.5c0,9.2-7.9,16.5-17.4,16.5c-2,0-3.8-0.3-5.7-1l-6.7,6.5c3.7,2,8,3,12.5,3c14.5,0,26.2-11.4,26.2-25.2
			C433.1,205.4,421.4,194.2,406.9,194.2z"/>
	</g>
	<g>
		<path class="st0" d="M487.5,194.2c-14.5,0-26.2,11.4-26.2,25.2c0,0.5,0,1,0,1.7h9c0-0.5-0.2-1-0.2-1.7c0-9.2,7.7-16.5,17.4-16.5
			c9.5,0,17.4,7.5,17.4,16.5c0,9.2-7.9,16.5-17.4,16.5c-2,0-3.8-0.3-5.7-1l-6.7,6.5c3.7,2,8,3,12.5,3c14.5,0,26.2-11.4,26.2-25.2
			C513.7,205.4,501.8,194.2,487.5,194.2z"/>
	</g>
</g>
<g>
	<g>
		<path class="st11" d="M757.2,405.9l-14.7,40.6l-47.1,129.6l-12.7-4.2c0,0,15.5-74.4,25.6-125c5-25.2,8.5-44.6,8.2-45.5
			L757.2,405.9z"/>
		<path class="st11" d="M833.5,575.8l-11.2,1.7l-34.9-118.7l-18.4-62.4l41-5.9c0.5,3,3.7,28.8,7.7,60
			C824.6,504.7,833.5,575.8,833.5,575.8z"/>
		<path class="st2" d="M808.6,581.3c-1.5,1-3.2,2.7-2.2,4.2c0.7,1,2.2,1.2,3.3,1.2c4.3-0.2,8.5-0.7,12.9-1.5c3-0.7,6.2-1.5,8.4-3.7
			c3.2-3.3,5.7-13.5-2-12.7c-3.3,0.3-7,4-9.7,5.9C815.6,576.8,812.1,579,808.6,581.3z"/>
		<path class="st2" d="M671.6,575.1c-1.7,0.7-3.7,2.2-3,3.7c0.5,1.2,1.8,1.5,3.2,1.7c4.2,0.7,8.5,0.8,12.9,0.7
			c3.2-0.2,6.4-0.5,8.9-2.3c3.7-2.7,8-12.5,0.3-12.9c-3.3-0.2-7.7,2.8-10.7,4.2C679.3,571.8,675.5,573.4,671.6,575.1z"/>
		<path class="st12" d="M716.3,401.4l41,4.7l-14.7,40.6c-10.7-2.8-21.9-4-32.3-0.5c-0.7,0.2-1.3,0.5-2,0.8
			C713.1,421.6,716.8,402.3,716.3,401.4z"/>
		<path class="st12" d="M817.7,450.6c-6,4.3-13.2,7.4-20.7,8.2c-3.2,0.3-6.4,0.3-9.5,0.2l-18.4-62.4l41-5.9
			C810.4,393.6,813.7,419.3,817.7,450.6z"/>
	</g>
	<g>
		<path class="st13" d="M834,405.8c0,0-133.1,37.6-154.3,17.4c0,0,31.3-64,38.8-101.6c1.5-7.5,2-14,1.2-18.9l62.9-1.3
			c0,0,5.5,12,13,28.4C807,354.6,823.9,389.5,834,405.8z"/>
		<path class="st12" d="M795.3,329.7c-4.8,3.2-11.5,2.5-17.6,1.8c-14.9-1.8-29.8-3.7-44.6-5.3c-5.2-0.7-11-1.5-14.9-4.7
			c1.5-7.5,2-14,1.2-18.9l62.9-1.3C782.3,301.3,787.7,313.3,795.3,329.7z"/>
	</g>
	<g>
		<path class="st1" d="M723,231.1c-5.5,5.7-53,46.3-53,46.3l-19.7,10l1.3,19.7l29.3-12.9l58.5-39L723,231.1z"/>
		<path class="st12" d="M723,231.1c-5.5,5.7-53,46.3-53,46.3l-19.7,10l1.3,19.7l29.3-12.9l58.5-39L723,231.1z"/>
	</g>
	<g>
		<path class="st12" d="M654.6,354.9h-105c-2.5,0-4.5-2-4.5-4.5v-96c0-2.5,2-4.5,4.5-4.5h105c2.5,0,4.5,2,4.5,4.5v96
			C659.3,352.9,657.1,354.9,654.6,354.9z"/>
		<path class="st3" d="M654.6,348.4h-105c-2.5,0-4.5-2-4.5-4.5v-96c0-2.5,2-4.5,4.5-4.5h105c2.5,0,4.5,2,4.5,4.5v96
			C659.3,346.4,657.1,348.4,654.6,348.4z"/>
	</g>
	<path class="st11" d="M623.2,303.8c-1-0.5-2.3-0.8-3.2-0.2c-0.8,0.7-0.7,1.8,0,2.7c0.7,0.8,1.7,1.2,2.5,1.5
		c-3.8-0.5-7.7-0.8-11.5-1.3c-0.7-0.2-1.5-0.2-2.2,0.2c-1,0.5-1.3,1.7-1.2,2.7c0.2,1,0.8,2,1.7,2.7c6.9,7.5,17.7,11.4,28.1,9.7
		c1.7-0.3,3.3-0.7,4.5-1.8c3.3-3.3,1-9.7-3.2-11c-1.8-0.7-4-0.2-6-0.8C629.5,307,626.3,305.1,623.2,303.8z"/>
	<path class="st14" d="M731.2,208.8c-0.5,7.2-2.2,14.2-5.5,20.7c-4.8,9-13.2,16.5-23.4,19.2c-5.7,1.5-11.7,1.3-17.4-0.3
		c-4.5-1.3-8.7-3.8-11.9-7.2c-8.2-8.9-5.7-18.1-2-27.8c-9.7-2.5-17.6-5.5-21.9-15.2c-6.4-14,5.2-13,6.5-12.9
		c-9-1.5-10.7-15-8.9-21.6c1.3-4.5,4.3-8.7,8.4-11.7c3.8-2.8,8.5-4.7,13.4-4.2c0.2,0,0.2,0,0.3,0c5.7,0.5,11.2,3.5,16.9,3
		c5.2-0.5,10-3,15-4c4.3-0.8,8.7-1.7,13.2-2.3c-0.3,0,11.9,40.8,12.9,44.5C729.3,196,731.7,201.7,731.2,208.8z"/>
	<path class="st15" d="M731.2,208.8c-0.5,7.2-2.2,14.2-5.5,20.7c-4.8,9-13.2,16.5-23.4,19.2c-5.7,1.5-11.7,1.3-17.4-0.3
		c0.3-1.3,0.7-2.7,1.3-3.8c2.2-4.5,6.2-7.9,10.5-10.5c1.8-1.2,3.8-2.2,5.2-3.8s1.7-4.3,0.3-5.9c-1.2-1.3-3.2-1.5-4.8-2.3
		c-3.8-2.2-4-7.5-2.5-11.5c1.7-4,4.5-7.7,5.2-11.9c1.2-7.4-4.5-14-10.9-18.4c-6.2-4.3-13.5-7.9-17.9-13.9
		c-4.2-5.7-4.5-12.2-2.7-18.2c5.7,0.5,11.2,3.5,16.9,3c5.2-0.5,10-3,15-4c4.3-0.8,8.7-1.7,13.2-2.3c-0.3,0,11.9,40.8,12.9,44.5
		C729.3,196,731.7,201.7,731.2,208.8z"/>
	<path class="st11" d="M747.5,208l-15.7,6.4c0,0-4.3-8.9-7.4-17.2c-1.8-5.2-3.2-10.4-2.3-12.7h17.7l5.2,15.7L747.5,208z"/>
	<path class="st12" d="M744.9,200.1c-5.9-2-12-3-18.2-2.8c-0.8,0-1.5,0-2.2,0c-1.8-5.2-3.2-10.4-2.3-12.7h17.7L744.9,200.1z"/>
	<path class="st1" d="M737.2,211.3c6.4-1.5,14.4-1.8,18.9,0c4.3,1.8,8.7,7.7,11.5,11.2c7.9,9.9,10.4,22.4,10.9,34.6
		c0.5,10.4,0,20.7,1.8,30.9c0.8,4.8,2.2,9.9,4.3,14.4c1.3,2.8,6.9,8.2,6.7,11.2c-0.5,6.2-39.1,4.7-45,4.8
		c-6.9,0.3-13.7,0.5-20.7,0.8c-4.7,0.2-13.9,2.7-11.4-4.7c2-6,6.9-11,8.9-17.4c4-12.5-3.3-22.9-10-32.8c-4.2-6.2-7.7-13.9-5.5-20.9
		c1.3-4.5,4.7-8,8-11.4c3.7-3.8,6.4-7.2,9-11.7c1.7-2.8,3.7-5.7,6.9-7.2C733,212.5,735,211.8,737.2,211.3z"/>
	<path class="st11" d="M707.2,150.2c0,0-13.4,2.2-9,17.2c4.5,15,6.7,23.6,17.9,23.6c11.2,0,15.7,2.2,20.1-6.4c4.5-8.5,0-23.6,0-27.9
		C736.3,152.2,707.2,150.2,707.2,150.2z"/>
	<path class="st12" d="M750.9,220.7c0,0,26.2-2.3,22.2,19.1c-3.8,21.4-11.5,66.7-38.4,68.5c-21.9,1.5-24.2-0.5-24.2-0.5l6.7-17.2
		l-0.5-0.2C716.9,290.4,731.7,223,750.9,220.7z"/>
	<path class="st1" d="M747.2,216.9c0,0,26.2-2.2,22.1,19.4s-13.5,60.2-39.3,68c-25.6,7.9-89.3,18.4-89.3,18.4l-2.7-13.9l74.2-22.6
		C712.3,286.2,728,219,747.2,216.9z"/>
	<path class="st14" d="M691.7,160c-1.2-0.2-2.3,0-4.2,0c-5.3,0.2-10.9-1.7-14.5-5.5c-4.8-5-6-12.7-3.2-18.9c3-6.2,10-10.2,17.2-10
		c0.2,0,2.2-8.9,2.5-9.7c1.3-4.5,3.8-8.5,7.5-11.7c9.5-8.2,26.7-8.4,38.1-3.7c1,0.3,5.5-1.5,6.5-1.7c4.5-1,9.4-1.5,13.9-1
		c2.2,0.3,4.5,0.8,6.5,1.8c2,1.2,4,4.5,6.2,4.8c2.5,0.5,6-2.3,8.7-3c3.2-0.7,6.7-0.7,9.9,0.3c5.7,1.8,9,5.9,11.5,10.7
		c2.8,5.9,6.2,3.5,11.5,6.7c3.8,2.2,6.4,6,7.5,10.2c1.8,6-0.8,12.2,3.7,17.1c5.5,5.7,7.9,14,5.9,21.6c-2.5,8.9-11.2,16-20.9,17.1
		c5.2,3,7.9,9.4,7,15c-0.8,5.9-4.7,10.9-9.7,14.2c-5,3.3-11.2,4.8-17.4,5.2c3.7,3.5,4.7,9.4,2.3,13.9c-4,7.9-13.5,8.9-21.2,5.3
		c-8-3.7-16.4-7-21.7-14.2c-4.7-6.4-6.7-14.5-5.3-22.4c-7.9-3-13.9-9.5-16.5-17.1c-1.3-3.5-2-7.4-1.2-11.2c0.2-0.8,2-8,1.5-8
		c-4.7,0.3-9.7,0.2-14.4-0.5c-3-0.3-6-1-8.9-1.7c-2.5-0.7-4.2-2.3-6.5-3.3C693,160.4,692.4,160.2,691.7,160z"/>
</g>
</svg>
