<?xml version="1.0" encoding="utf-8"?>
<!-- Generator: Adobe Illustrator 23.0.0, SVG Export Plug-In . SVG Version: 6.00 Build 0)  -->
<svg version="1.1" id="a90b5256-b423-42d1-825d-5fdc0dc55c5f"
	 xmlns="http://www.w3.org/2000/svg" xmlns:xlink="http://www.w3.org/1999/xlink" x="0px" y="0px" viewBox="0 0 883 684.5"
	 style="enable-background:new 0 0 883 684.5;" xml:space="preserve">
<style type="text/css">
	.st0{fill:#CDE1ED;}
	.st1{fill:#154B66;}
	.st2{fill:#7AABC8;}
	.st3{fill:#FFFFFF;}
	.st4{fill:#7AABFD;}
	.st5{fill:#FFBE8A;}
	.st6{fill:url(#SVGID_1_);}
	.st7{fill:#0D6EFD;}
	.st8{fill:url(#SVGID_2_);}
	.st9{fill:#8428B9;}
	.st10{fill:#E39161;}
	.st11{fill:#FF7830;}
	.st12{fill:#0B2633;}
</style>
<g>
	<g>
		<path class="st0" d="M732.8,563.5H107.7c-3.3,0-5.8-2.7-5.8-5.8V146.1c0-3.3,2.7-5.8,5.8-5.8h625.1c3.3,0,5.8,2.7,5.8,5.8v411.6
			C738.6,560.8,736.1,563.5,732.8,563.5z"/>
	</g>
	<rect x="134.8" y="172.7" class="st1" width="571.7" height="332.9"/>
	<g>
		<rect x="134" y="172.7" class="st2" width="572.4" height="31.5"/>
	</g>
	<g>
		<g>
			<path class="st0" d="M662.9,188.5c0,2.7-2.2,4.9-4.9,4.9c-2.7,0-4.9-2.2-4.9-4.9s2.2-4.9,4.9-4.9
				C660.8,183.6,662.9,185.8,662.9,188.5z"/>
		</g>
		<g>
			<path class="st0" d="M679.4,188.5c0,2.7-2.2,4.9-4.9,4.9c-2.7,0-4.9-2.2-4.9-4.9s2.2-4.9,4.9-4.9
				C677.3,183.6,679.4,185.8,679.4,188.5z"/>
		</g>
		<g>
			<path class="st0" d="M695.8,188.5c0,2.7-2.2,4.9-4.9,4.9s-4.9-2.2-4.9-4.9s2.2-4.9,4.9-4.9C693.7,183.6,695.8,185.8,695.8,188.5z
				"/>
		</g>
	</g>
	<g>
		<path class="st2" d="M754.2,591.8H85.7c-20.3,0-36.7-16.4-36.7-36.7l0,0h741.9l0,0C790.9,575.5,774.5,591.8,754.2,591.8z"/>
	</g>
	<g>
		<path class="st1" d="M370.2,557.9c0,7,8.5,12.7,18.9,12.7h66c10.4,0,18.9-5.7,18.9-12.7c0-1-0.2-1.8-0.4-2.8H370.6
			C370.4,556.1,370.2,556.9,370.2,557.9z"/>
	</g>
	<g>
		<path class="st3" d="M496.3,445c21.6-1.2,38.8-19,38.8-41c0-22.7-18.4-41.1-41.1-41.1c-4.1,0-8.1,0.6-11.9,1.8
			c-7-28.6-32.7-50-63.5-50c-30.6,0-56,20.9-63.2,49.2c-2.9-0.6-5.9-1.1-9-1.1c-22.7,0-41.1,18.4-41.1,41.1
			c0,21.5,16.7,39.2,37.8,40.9L496.3,445z"/>
		<path class="st4" d="M446.5,373.4L421,347.9c-0.4-0.4-1.2-0.4-1.6,0L394,373.4c-1.8,1.8-1.6,5,0.6,6.5c1.7,1.1,3.9,0.7,5.3-0.6
			l16.1-16.1v50.5c0,2,1.4,3.8,3.3,4.2c2.7,0.5,5.1-1.5,5.1-4v-50.6l16.2,16.2c0.7,0.7,1.8,1.2,3,1.2c1.1,0,2.1-0.4,3-1.2
			c0.7-0.7,1.3-1.8,1.3-3S447.3,374.1,446.5,373.4z"/>
	</g>
	<g>
		<polygon class="st4" points="583.1,483.3 579.5,483.3 579.5,482.3 582.1,482.3 582.1,479.8 583.1,479.8 		"/>
		<path class="st4" d="M573.5,483.3h-6v-1h6V483.3z M561.5,483.3h-6v-1h6V483.3z M549.5,483.3h-6v-1h6V483.3z M537.5,483.3h-6v-1h6
			V483.3z M525.4,483.3h-6v-1h6V483.3z M513.4,483.3h-6v-1h6V483.3z M501.5,483.3h-6v-1h6V483.3z M489.4,483.3h-6v-1h6V483.3z
			 M477.4,483.3h-6v-1h6V483.3z M465.4,483.3h-6v-1h6V483.3z M453.3,483.3h-6v-1h6V483.3z M441.3,483.3h-6v-1h6V483.3z M429.3,483.3
			h-6v-1h6V483.3z M417.2,483.3h-6v-1h6V483.3z M405.2,483.3h-6v-1h6V483.3z M393.2,483.3h-6v-1h6V483.3z M381.1,483.3h-6v-1h6
			V483.3z M369.1,483.3h-6v-1h6V483.3z M357.1,483.3h-6v-1h6V483.3z M345.1,483.3h-6v-1h6V483.3z M333.1,483.3h-5.9v-1h6v1H333.1z
			 M321.1,483.3h-6v-1h6V483.3z M309.1,483.3h-6v-1h6V483.3z M297,483.3H291v-1h6v1H297z M285,483.3h-6v-1h6V483.3z M273,483.3h-6
			v-1h6V483.3z"/>
		<polygon class="st4" points="260.9,483.3 257.4,483.3 257.4,479.8 258.5,479.8 258.5,482.3 260.9,482.3 		"/>
		<path class="st4" d="M258.5,473.9h-1v-5.8h1V473.9z M258.5,462.2h-1v-5.8h1V462.2z M258.5,450.5h-1v-5.8h1V450.5z M258.5,438.8h-1
			V433h1V438.8z M258.5,427h-1v-5.8h1V427z M258.5,415.4h-1v-5.8h1V415.4z M258.5,403.6h-1v-5.8h1V403.6z M258.5,391.9h-1v-5.8h1
			V391.9z M258.5,380.3h-1v-5.8h1V380.3z M258.5,368.5h-1v-5.8h1V368.5z M258.5,356.8h-1V351h1V356.8z M258.5,345h-1v-5.8h1V345z
			 M258.5,333.4h-1v-5.8h1V333.4z M258.5,321.7h-1v-5.8h1V321.7z M258.5,309.9h-1v-5.8h1V309.9z M258.5,298.2h-1v-5.8h1V298.2z
			 M258.5,286.5h-1v-5.8h1V286.5z M258.5,274.8h-1v-5.8h1V274.8z M258.5,263h-1v-5.8h1V263z M258.5,251.3h-1v-5.8h1V251.3z"/>
		<polygon class="st4" points="258.5,239.7 257.4,239.7 257.4,236.2 260.9,236.2 260.9,237.1 258.5,237.1 		"/>
		<path class="st4" d="M573.5,237.1h-6v-1h6V237.1z M561.5,237.1h-6v-1h6V237.1z M549.5,237.1h-6v-1h6V237.1z M537.5,237.1h-6v-1h6
			V237.1z M525.4,237.1h-6v-1h6V237.1z M513.4,237.1h-6v-1h6V237.1z M501.5,237.1h-6v-1h6V237.1z M489.4,237.1h-6v-1h6V237.1z
			 M477.4,237.1h-6v-1h6V237.1z M465.4,237.1h-6v-1h6V237.1z M453.3,237.1h-6v-1h6V237.1z M441.3,237.1h-6v-1h6V237.1z M429.3,237.1
			h-6v-1h6V237.1z M417.2,237.1h-6v-1h6V237.1z M405.2,237.1h-6v-1h6V237.1z M393.2,237.1h-6v-1h6V237.1z M381.1,237.1h-6v-1h6
			V237.1z M369.1,237.1h-6v-1h6V237.1z M357.1,237.1h-6v-1h6V237.1z M345.1,237.1h-6v-1h6V237.1z M333.1,237.1h-5.9v-1h6v1H333.1z
			 M321.1,237.1h-6v-1h6V237.1z M309.1,237.1h-6v-1h6V237.1z M297,237.1H291v-1h6v1H297z M285,237.1h-6v-1h6V237.1z M273,237.1h-6
			v-1h6V237.1z"/>
		<polygon class="st4" points="583.1,239.7 582.1,239.7 582.1,237.1 579.5,237.1 579.5,236.2 583.1,236.2 		"/>
		<path class="st4" d="M583.1,473.9h-1v-5.8h1V473.9z M583.1,462.2h-1v-5.8h1V462.2z M583.1,450.5h-1v-5.8h1V450.5z M583.1,438.8h-1
			V433h1V438.8z M583.1,427h-1v-5.8h1V427z M583.1,415.4h-1v-5.8h1V415.4z M583.1,403.6h-1v-5.8h1V403.6z M583.1,391.9h-1v-5.8h1
			V391.9z M583.1,380.3h-1v-5.8h1V380.3z M583.1,368.5h-1v-5.8h1V368.5z M583.1,356.8h-1V351h1V356.8z M583.1,345h-1v-5.8h1V345z
			 M583.1,333.4h-1v-5.8h1V333.4z M583.1,321.7h-1v-5.8h1V321.7z M583.1,309.9h-1v-5.8h1V309.9z M583.1,298.2h-1v-5.8h1V298.2z
			 M583.1,286.5h-1v-5.8h1V286.5z M583.1,274.8h-1v-5.8h1V274.8z M583.1,263h-1v-5.8h1V263z M583.1,251.3h-1v-5.8h1V251.3z"/>
	</g>
</g>
<g>
	<g>
		<g>
			<polygon class="st5" points="581.7,399.5 603.6,402.4 634.9,350.3 669.8,278.3 637.3,260.2 607.2,336.8 			"/>
		</g>
	</g>
	<path class="st3" d="M664.9,256.9l-5.2-3.2c-7.5-4.6-17.6-2.4-22.2,5.3l-23.5,44.1l32.2,20.6l23.8-44.5
		C674.8,271.6,672.5,261.7,664.9,256.9z"/>
	<path class="st5" d="M769.7,523.7c7.8,9.8,22.2,30.8,24.6,34.6c1.8,3-19.4,17.4-20.5,16.3c-5.9-6.6-22.2-24.6-26.6-29.2
		c-7.3-7.9-15.9-17.4-24-27.5l29.2-21.1C758.7,507.4,765.6,518.5,769.7,523.7z"/>
	
		<linearGradient id="SVGID_1_" gradientUnits="userSpaceOnUse" x1="749.8684" y1="98.2107" x2="812.6122" y2="98.2107" gradientTransform="matrix(1 0 0 -1 0 684.3464)">
		<stop  offset="0.2416" style="stop-color:#68DB73"/>
		<stop  offset="0.734" style="stop-color:#68DB73"/>
	</linearGradient>
	<path class="st6" d="M769.4,569.9l-19.2,45.3c-2,4.9,3.8,9.1,7.8,5.8l54.2-44c4-3.4-24.3-27-24.3-27l-0.1,4.1
		C787.4,563.7,778.9,571,769.4,569.9L769.4,569.9z"/>
	<path class="st7" d="M748.2,620.4l4.5,5.5c0.5,0.7,1.5,0.8,2.1,0.3l60.6-49c0.7-0.5,0.8-1.5,0.3-2.1l-4.5-5.5
		c-0.5-0.7-1.5-0.8-2.1-0.3l-60.6,49C747.8,618.8,747.6,619.7,748.2,620.4z"/>
	<path class="st7" d="M774.7,579.9c0.9,0,1.7-0.7,2-1.6c0.4-1.2-0.4-2.4-1.5-2.6l-7.8-2.2c-1.2-0.3-2.4,0.4-2.6,1.5
		c-0.4,1.2,0.4,2.4,1.5,2.6l7.8,2.2C774.2,579.9,774.4,579.9,774.7,579.9z"/>
	<path class="st7" d="M771.7,587.7c0.9,0,1.7-0.7,2-1.6c0.4-1.2-0.4-2.4-1.5-2.6l-7.8-2.2c-1.2-0.3-2.4,0.4-2.6,1.5
		c-0.4,1.2,0.3,2.4,1.5,2.6l7.8,2.2C771.1,587.7,771.4,587.7,771.7,587.7z"/>
	<path class="st7" d="M768.4,595.9c0.9,0,1.7-0.7,2-1.6c0.4-1.2-0.3-2.4-1.5-2.6l-7.8-2.2c-1.2-0.4-2.4,0.4-2.6,1.5
		c-0.4,1.2,0.4,2.4,1.5,2.6l7.8,2.2C767.8,595.9,768.1,595.9,768.4,595.9z"/>
	<path class="st7" d="M660,393.5l48.2-43.1c0,0,31.7,41.2,23.3,76.5c-5.7,23.9,19.8,62.5,39.1,77.6l-51.5,37.7
		c-11.2-13.6-19.7-30.5-23.9-41.7C682.8,467.4,660,393.5,660,393.5z"/>
	<path class="st5" d="M659.5,551.5c0,12.8-1.8,38.7-2.4,43.3c-0.4,3.7-26.7,1.6-26.8-0.1c-0.7-9-2.1-33.7-2.6-40.2
		c-0.8-11-1.5-24-1.7-37.3l36.7,1.7C661.1,531.6,659.5,544.8,659.5,551.5z"/>
	
		<linearGradient id="SVGID_2_" gradientUnits="userSpaceOnUse" x1="584.4116" y1="84.2634" x2="662.7635" y2="84.2634" gradientTransform="matrix(1 0 0 -1 0 684.3464)">
		<stop  offset="0.2416" style="stop-color:#68DB73"/>
		<stop  offset="0.734" style="stop-color:#68DB73"/>
	</linearGradient>
	<path class="st8" d="M631.2,585.2l-44.1,24c-4.8,2.5-2.8,9.8,2.5,9.6l71.2-0.7c5.4-0.3-2.2-37-2.2-37l-2.8,3.2
		C649.6,591.8,638.2,592.2,631.2,585.2L631.2,585.2z"/>
	<path class="st7" d="M580.6,614.9v7.4c0,0.8,0.7,1.5,1.5,1.5l79.7-0.7c0.8,0,1.5-0.7,1.5-1.5v-7.4c0-0.8-0.7-1.5-1.5-1.5l-79.7,0.7
		C581.3,613.5,580.6,614.2,580.6,614.9z"/>
	<path class="st7" d="M628.7,600c0.4,0,0.9-0.1,1.3-0.4c1.1-0.7,1.2-2.1,0.5-3l-4.8-6.7c-0.7-1.1-2.1-1.2-3-0.5
		c-1.1,0.7-1.2,2.1-0.5,3l4.8,6.7C627.4,599.8,628.1,600,628.7,600z"/>
	<path class="st7" d="M621.5,604.4c0.4,0,0.9-0.1,1.3-0.4c1.1-0.7,1.2-2.1,0.5-3l-4.8-6.7c-0.7-1.1-2.1-1.2-3-0.5
		c-1.1,0.7-1.2,2.1-0.5,3l4.8,6.7C620.1,604,620.8,604.4,621.5,604.4z"/>
	<path class="st7" d="M613.7,608.7c0.4,0,0.9-0.1,1.3-0.4c1.1-0.7,1.2-2.1,0.5-3l-4.8-6.7c-0.7-1.1-2.1-1.2-3-0.5
		c-1.1,0.7-1.2,2.1-0.5,3l4.8,6.7C612.2,608.5,612.9,608.7,613.7,608.7z"/>
	<path class="st7" d="M645.5,378.6l62.6-10.2c0,0,16.3,56.5-12.3,78.9c-19.3,15.1-28.3,73.5-22.5,97.4l-63.9-2.8
		c-0.3-17.6,9-57.9,12.7-69.4C633.1,439.1,645.5,378.6,645.5,378.6z"/>
	<path class="st9" d="M683.3,466.6c-0.3,0-0.5-0.1-0.5-0.4l-9.2-27.7c-0.1-0.3,0-0.7,0.4-0.8c0.3-0.1,0.7,0,0.8,0.4l9.2,27.7
		c0.1,0.3,0,0.7-0.4,0.8C683.3,466.6,683.3,466.6,683.3,466.6z"/>
	<path class="st3" d="M651.3,251.4l51.5,1.2c22.3,2.1,29.5,15.3,29.3,27.6l-0.9,58.1l9.9,60.4l-107.3,6.2l-2.8-104.2
		c-2.9-14.5,0.8-29.3,8.2-42.1c1.3-2.4,2.9-3.8,4.8-5C646.2,251.9,648.7,251.4,651.3,251.4z"/>
	<path class="st5" d="M682.4,224.7l3.4,26.8c0.5,3.6-6.6,14.1-15.6,17.8c-5.3,2.2-11.2-1.6-11.5-7.3l-1.5-25.8L682.4,224.7z"/>
	<path class="st10" d="M657.8,247.4l-0.7-11.6l18.1-13.3l0.3,4.6C675.5,227.1,674.2,235.1,657.8,247.4z"/>
	<path class="st5" d="M683.4,233l-32,7.3c-4.6,1.1-9.2-0.4-12.4-3.4c-2.5-2.4-3.7-5.9-3.7-9.4l1.7-30l41.7-9.8L683.4,233z"/>
	<path class="st11" d="M631.5,190.5c3.8,20.9,35.4,2,36.1,11.1c1.6,23.3,14.4,18,14.4,18s16.5-34.7-4.1-35.1
		C657.4,183.9,625.8,159.7,631.5,190.5z"/>
	<path class="st5" d="M688.2,211.5c1.1,4.6-1.8,9.4-6.5,10.4c-4.6,1.1-9.4-1.8-10.4-6.5c-1.1-4.6,1.8-9.4,6.5-10.4
		C682.4,203.8,687,206.7,688.2,211.5z"/>
	<path class="st5" d="M638.2,203.7l-6.6,11.5c-0.9,1.7,0.4,3.4,2.6,3.3l4.6-0.5L638.2,203.7z"/>
	<path class="st12" d="M644.8,209.9c0.1,0.7-0.3,1.3-0.9,1.5c-0.7,0.1-1.3-0.3-1.5-0.9s0.3-1.3,0.9-1.5
		C644,208.8,644.7,209.2,644.8,209.9z"/>
	<path class="st12" d="M645.2,222.6c1.2-0.7,2.2-1.8,3.3-3.7c0.1-0.1,0-0.3-0.1-0.4c-0.1-0.1-0.3,0-0.4,0.1
		c-3.2,5.8-7.9,4.4-8.1,4.4s-0.3,0-0.3,0.1s0,0.3,0.1,0.3C639.8,223.5,642.5,224.3,645.2,222.6z"/>
	<g>
		
			<rect x="635.7" y="284.8" transform="matrix(7.190187e-02 -0.9974 0.9974 7.190187e-02 296.611 1055.459)" class="st4" width="159.5" height="167.1"/>
		<g>
			
				<rect x="645.7" y="294.8" transform="matrix(7.190172e-02 -0.9974 0.9974 7.190172e-02 297.0069 1055.6779)" class="st3" width="140.2" height="146.9"/>
		</g>
		<g>
			<polygon class="st4" points="784.4,444.1 702.4,438.3 747.5,383.2 			"/>
			<polygon class="st4" points="733.1,440.6 636.8,433.6 690.7,357.8 			"/>
			<path class="st4" d="M744.7,347.5c-0.7,9.6-9,17-18.6,16.4c-9.6-0.7-17-9-16.4-18.6c0.7-9.6,9-17,18.6-16.4
				C738,329.6,745.4,337.9,744.7,347.5z"/>
		</g>
	</g>
	<g>
		<path class="st5" d="M759.3,390.3l-5.3-48.6l-55.8-55.2c-5.9-6.6-3.7-8.7,3-14.8l4.5-4.1c6.6-5.9,11.5-10.7,17.6-4.1l58.9,65.5
			l-3.2,64.3"/>
		<path class="st3" d="M700.7,259l-4.4,4.1c-6.5,6.1-6.9,16.3-0.8,22.7l33.6,36.7l28.4-25.6l-12.8-14.5l-21.1-22.7
			C717.4,253.3,707.2,252.9,700.7,259z"/>
	</g>
	<g>
		<g>
			<g>
				<path class="st5" d="M775.8,409l-2.8,16.8c0,0.5,0,1.1,0.3,1.5c0.7,1.5,3.3,4.8,4.2,3.6c1.3-1.6,3.4-20.2,3.4-20.2"/>
				<path class="st5" d="M757.9,399.5l2.6,4.8c0.4,0.8,0.8,1.7,0.9,2.8l1.1,13.3c0.1,1.8,1.2,3.6,2.8,4.4c0.8,0.4,1.6,0.5,2.1,0
					c1.7-1.5,2.2-17.2,2.2-17.2l-2,20.1c0,0.4,0,0.8,0.3,1.2c0.7,1.5,2.5,5.2,3.7,3.7c1.5-1.7,4-23.1,4-23.1"/>
				<path class="st5" d="M780.4,426.9c-0.5-0.7-1.1-2-1.3-3.6L780,412l-11.1-4.1l-11-8.6l0.7-10.7c0,0,10.6-7.3,23.5,7.9
					c0.9,1.1,1.5,2.4,1.7,3.7l1.7,11.6c0,0.3,0,0.4-0.1,0.7c-0.5,2.2-2.2,14.3-2.8,15.1C782.2,428,780.9,427.6,780.4,426.9z"/>
			</g>
			<path class="st5" d="M761.2,406.3l-2.1-4.2c-0.4-0.9-1.6-1.5-2.5-1.1c-1.1,0.4-2.1,1.3-3.2,2l-4.8,3.6c-0.7,0.5-1.5,0.1-1.7-0.5
				c-0.4-1.5,0.3-5.7,3-8.3l8.5-8.9L761.2,406.3z"/>
		</g>
		<path class="st12" d="M770.1,407.1L770,407c-0.1,0-0.3,0.1-0.3,0.3l-1.7,15.6c0,0.1,0.1,0.3,0.3,0.3c0.1,0,0.3-0.1,0.3-0.3
			l1.7-15.6C770.2,407.3,770.2,407.1,770.1,407.1z"/>
		<path class="st12" d="M775.4,408.8l-0.1-0.1c-0.1,0-0.3,0.1-0.3,0.3l-1.8,17.8c0,0.1,0.1,0.3,0.3,0.3c0.1,0,0.3-0.1,0.3-0.3
			l1.8-17.8C775.5,409,775.5,409,775.4,408.8z"/>
		<path class="st12" d="M780.8,410.6l-0.1-0.1c-0.1,0-0.3,0.1-0.3,0.3l-1.5,13.3c0,0.1,0.1,0.3,0.3,0.3c0.1,0,0.3-0.1,0.3-0.3
			l1.5-13.3C780.9,410.7,780.9,410.7,780.8,410.6z"/>
	</g>
	<path class="st5" d="M583.5,394.6l-7.5,20.2c-0.3,0.7-0.4,1.3-0.3,2l2.1,19.9c0.3,2,1.7,3.6,3.6,3.8l0,0c2,0.4,4.1-0.7,4.9-2.6
		l6.9-15.5l10.8-21.3L583.5,394.6z"/>
	<path class="st12" d="M578.8,438.4c0,0-0.1,0-0.3,0c-0.1,0-0.3-0.3-0.1-0.4l4.2-14.3c0-0.1,0.3-0.3,0.4-0.1c0.1,0,0.3,0.3,0.1,0.4
		l-4.2,14.3C578.9,438.4,578.8,438.4,578.8,438.4z"/>
	<path class="st12" d="M577.7,430.1c0,0-0.1,0-0.3,0c-0.1,0-0.3-0.3-0.1-0.4l2.9-10c0-0.1,0.3-0.3,0.4-0.1c0.1,0,0.3,0.3,0.1,0.4
		l-2.9,10C577.9,430,577.9,430,577.7,430.1z"/>
	<path class="st12" d="M576.9,421.9c0,0-0.1,0-0.3,0c-0.1,0-0.3-0.3-0.1-0.4l2.2-7.8c0-0.1,0.3-0.3,0.4-0.1c0.1,0,0.3,0.3,0.1,0.4
		l-2.2,7.8C577.1,421.8,577.1,421.8,576.9,421.9z"/>
	<path class="st5" d="M601.8,402.2v19.4c0,1.1-1.2,1.6-2,1.1c-1.6-1.2-3.7-3.8-4.9-9.8C593.1,402.9,601.8,402.2,601.8,402.2z"/>
	<path class="st12" d="M679.5,212C679.5,211.9,679.5,211.9,679.5,212c0.1-0.1,0.3-0.1,0.3-0.1c1.7-0.7,3.6,0.8,3.6,0.8
		c0.1,0.1,0.1,0.1,0,0.3c0,0.1-0.1,0.1-0.3,0c0,0-1.5-1.1-2.9-0.9c1.7,0.8,1.5,2.5,1.5,2.5c0,0.1-0.1,0.1-0.3,0.1l0,0
		c-0.1,0-0.1-0.1-0.1-0.3c0-0.1,0.3-1.7-1.7-2.2c-0.8,0.4-1.3,1.3-1.7,2.8c0,0.1-0.1,0.1-0.3,0.1l0,0c-0.1,0-0.1-0.1-0.1-0.3
		C677.9,213.3,678.5,212.4,679.5,212z"/>
</g>
</svg>
