<?xml version="1.0" encoding="utf-8"?>
<!-- Generator: Adobe Illustrator 23.0.0, SVG Export Plug-In . SVG Version: 6.00 Build 0)  -->
<svg version="1.1" id="a90b5256-b423-42d1-825d-5fdc0dc55c5f"
	 xmlns="http://www.w3.org/2000/svg" xmlns:xlink="http://www.w3.org/1999/xlink" x="0px" y="0px" viewBox="0 0 883 684.5"
	 style="enable-background:new 0 0 883 684.5;" xml:space="preserve">
<style type="text/css">
	.st0{fill:#0D6EFD;}
	.st1{fill:#FFCA46;}
	.st2{fill:#DDDFFD;}
	.st3{fill:#F7AF79;}
	.st4{fill:#0A3753;}
	.st5{fill:#274EAF;}
	.st6{fill:#F46800;}
	.st7{fill:#F29F5C;}
	.st8{fill:#121947;}
	.st9{fill:#F79200;}
	.st10{fill:#FFFFFF;}
	.st11{fill:#4395F7;}
	.st12{fill:#4A5CA8;}
	.st13{fill:#283D7F;}
</style>
<rect x="297.7" y="488.1" class="st0" width="48.2" height="120.5"/>
<rect x="225.6" y="532" class="st1" width="48.2" height="76.7"/>
<rect x="162.8" y="559.2" class="st0" width="48.2" height="49.4"/>
<rect x="100.5" y="577.8" class="st1" width="48.2" height="30.7"/>
<rect x="484.1" y="367.3" class="st2" width="193.5" height="20.7"/>
<polyline class="st2" points="472.8,384.9 666.3,384.9 666.3,364.2 472.8,364.2 "/>
<rect x="472.8" y="431.8" class="st2" width="193.5" height="20.7"/>
<rect x="473.4" y="490.4" class="st2" width="140.2" height="20.7"/>
<path class="st3" d="M562.7,589.1c0,1-0.1,2-0.1,3.2c-0.4,3.7-4.2,5.7-5.1,6c0.4,0,0.9,0.1,1.3,0.3c6.3,2.8,9.8,3.4,15.9,0.9
	c0.4-0.1,1-0.1,1.5,0c-0.3-3.1-0.9-7.3-1.3-10.4H562.7z"/>
<path class="st4" d="M577,608c0.1-2.3,0.1-5,0-6.9c0-1.2-1.3-2.1-2.5-1.6c-5.5,2.3-8.6,1.7-14.2-0.8c-4.3-1.8-18.2,5.9-21.6,8.2l0,0
	c-1.8,1.2-0.9,3.9,1.3,3.9h33.9C575.4,611,576.9,609.7,577,608z"/>
<path class="st3" d="M610.6,589.1c0,1-0.1,2-0.1,3.2c-0.4,3.7-4.2,5.7-5.1,6c0.4,0,0.9,0.1,1.3,0.3c6.3,2.8,9.8,3.4,15.9,0.9
	c0.4-0.1,1-0.1,1.5,0c-0.3-3.1-0.9-7.3-1.3-10.4H610.6z"/>
<path class="st4" d="M624,608c0.1-2.3,0.1-5,0-6.9c0-1.2-1.3-2.1-2.5-1.6c-5.5,2.3-8.6,1.7-14.2-0.8c-4.3-1.8-18.2,5.9-21.6,8.2l0,0
	c-1.8,1.2-0.9,3.9,1.3,3.9h33.9C622.6,611,624,609.7,624,608z"/>
<path class="st5" d="M639.3,344.2c0.7,4.2-2.2,66-6.3,80.3c-4.1,14.3-8.2,164.4-8.2,164.4h-22.1l-12-169.5l-10.5-70.2L639.3,344.2z"
	/>
<path class="st0" d="M633.6,352.7c0,0-4.1,31.1-25.1,52.6c-18.4,18.7-51,55.9-51,55.9l23.2,129h-20.3c0,0-44.8-130.8-44.8-135.7
	c0-4.8,47.2-101.8,47.2-101.8L633.6,352.7z"/>
<polygon class="st6" points="633.2,219.3 515.8,165.6 504.2,175.7 601.8,246.6 "/>
<rect x="594.8" y="183.5" class="st7" width="17.2" height="25.4"/>
<path class="st8" d="M581.8,165.3c0,0,1.9-10.2,10.1-15.6c8.9-5.8,24.7-6.6,33.4,6.6c8.2,12,4.8,35.2-8.2,39.6c0,0-8.8,3.5-13.6-3.9
	C596,180.3,581.8,165.3,581.8,165.3z"/>
<path class="st7" d="M606.5,170.4c0,0,2.8-4.1,6.4-0.9c4.2,3.7,3.1,12.4-3.1,13c0,0-5.8,17.5-18.7,15.5c-12.9-2.2-16.1-20-9.3-32.7
	c0,0,7.4,0,15-2.3C596.7,163,601.9,168.9,606.5,170.4z"/>
<path class="st9" d="M618.9,208.1c-18.3-1.5-40.7-0.4-58,6l-42.8,46.7L459,248.7l-7.9,14.7l76.7,28.8l39.4-33.2
	c1.9,1-3.4,38.7-6,57.4c-2.6,18.7-7.2,39.3-7.2,39.3s53.6,8.9,89.4-3.4c0,0,9.1-75.5-1.9-124.7C639,216.8,629.8,209,618.9,208.1z"/>
<circle class="st0" cx="445.5" cy="144.3" r="104"/>
<ellipse transform="matrix(0.7071 -0.7071 0.7071 0.7071 28.4892 357.295)" class="st10" cx="445.5" cy="144.3" rx="86.2" ry="86.2"/>
<path class="st0" d="M445.5,80.4c-35.2,0-63.8,28.6-63.8,63.8s28.6,63.8,63.8,63.8s63.8-28.6,63.8-63.8S480.7,80.4,445.5,80.4z
	 M445.5,126.1c-10.1,0-18.1,8.2-18.1,18.1c0,10.1,8.2,18.1,18.1,18.1c10.1,0,18.1-8.2,18.1-18.1
	C463.6,134.3,455.5,126.1,445.5,126.1z M445.5,188.7c-24.5,0-44.4-19.9-44.4-44.4s19.9-44.4,44.4-44.4s44.4,19.9,44.4,44.4
	C489.8,168.8,469.9,188.7,445.5,188.7z"/>
<path class="st7" d="M458.8,248.7c0,0-14.3-9.9-15.2-7.2c-1,2.9,4.8,8.6,4.8,8.6s-24.4-12-24.8-8.6c-0.4,3.4,19.6,20.4,27.5,21.9
	L458.8,248.7z"/>
<path class="st6" d="M523.8,282.3c-2.9,0.9-55.1-16.8-71-22.3l-1.9,3.5l76.7,28.8L567,259c1.9,1-3.4,38.7-6,57.4s-7.2,39.3-7.2,39.3
	s6.6,1,16.5,2c14.2-51.7,1.6-112.2,1.6-112.2S527.2,281.2,523.8,282.3z"/>
<g>
	<path class="st9" d="M413.7,317c13.9,42.4-9.1,87.9-51.4,101.8c-42.4,13.9-87.9-9.1-101.8-51.3c-13.9-42.4,9.1-87.9,51.4-101.8
		C354.2,251.7,399.8,274.8,413.7,317z"/>
	<path class="st0" d="M413.7,317l-76.5,25.3l-25.3-76.5C354.2,251.7,399.8,274.8,413.7,317z"/>
</g>
<g>
	<path class="st11" d="M679.5,468.5L679.5,468.5c-1.6-2-3.4-4.4-3.8-7s0.6-5.7,3.2-6.6c2.5-0.9,5.1,0.7,7.6,0.3
		c4.2-0.7,5.7-6.6,3.8-10.4c-1.9-3.8-6-6-9.8-8c-3.8-2-7.7-4.5-9.2-8.5c-1.6-3.9,0.9-9.6,5.1-9.5c1.8,0,3.4,1,5.1,0.9
		c3.5-0.4,4.5-5.1,3.4-8.3c-1.2-3.2-3.8-5.8-4.8-9.2c-1.5-4.8,1-10.5,5.5-12.6c4.5-2,10.5-0.3,13.1,3.9c1.9,3.1,2,6.9,3.4,10.4
		c1.2,3.4,4.4,6.9,7.9,6.1c3.5-0.7,5-4.7,7.9-6.7c5.5-3.9,13.7,1,15.8,7.6c2,6.6,0,13.4-1.5,20.2c-1.5,6.7-1.9,14.3,2.3,19.6
		c1.5-5,8-7.3,12.9-5.4s8,6.9,9.1,12c1,5.1,0.3,10.5-0.4,15.6c-1.6,10.7-5.7,65.1-24.7,60.2c-8.9-2.3-19.6-22.8-25-29.9
		C697.5,491.5,688.5,480,679.5,468.5z"/>
</g>
<path class="st12" d="M738.2,459.6c-3.5,19.1-5.3,38.4-5.1,57.8c-6.1-22.2-13.1-44.2-21.2-65.9c1.3-6.7,2.6-13.4,3.9-20.2
	c0.1-0.7-1-1.2-1.2-0.4c-1.2,6.1-2.3,12.3-3.7,18.3c-3.9-10.7-8.2-21.3-12.6-31.8c-0.3-0.7-1.3-0.1-1,0.6c2.5,6,5,12.1,7.4,18.3
	c-4.8-2.5-9.5-5-14.3-7.6c-0.7-0.3-1.3,0.7-0.6,1c5,2.6,10.1,5.3,15,7.9c0.1,0.1,0.3,0.1,0.4,0c1.8,4.7,3.5,9.2,5.3,13.9
	c0,0.1,0,0.3,0.1,0.4c4.4,11.8,8.5,23.8,12.3,35.9c-7.6-8.2-16.5-15-26.3-20.6c-0.7-0.4-1.3,0.6-0.6,1c10.2,5.7,19.4,13.1,27.3,21.8
	c0.1,0.1,0.1,0.1,0.3,0.1c3.4,10.5,6.4,21.2,9.2,31.8l0,0c0,0.1,0,0.3,0.1,0.3c1.2,4.4,2.3,8.6,3.4,13c2.9,11.4,5.4,22.6,7.9,34.2
	c0.1,0.7,1.3,0.4,1.2-0.3c-3.4-15.9-7-31.7-11.2-47.3c-0.4-20.9,1.3-41.9,5-62.5C739.7,458.8,738.3,458.8,738.2,459.6z"/>
<g>
	<path class="st5" d="M741,491.5c1.5-14,3.1-29.1,12.4-39.6c1.9-2,4.1-4.1,6.9-4.8c2.8-0.7,6,0,7.6,2.3c2.6,3.8,0.6,10.2,4.5,12.3
		c3.4-14.3,16.4-25.8,31-27.5c4.2-0.4,8.8-0.1,12.6,1.6c3.9,1.9,7.2,5.3,7.9,9.5c1.5,7.3-4.4,14-10.2,18.8
		c-4.8,4.1-10.1,7.9-15.3,11.4c-2.3,1.6-5.3,3.9-4.5,6.7c0.6,2.2,3.1,3.2,4.7,4.8c2.6,2.8,2.5,7.4,0.4,10.7
		c-1.9,3.4-5.3,5.5-8.6,7.4l0,0c-15.8,9.3-33,15.6-50.4,21.2c-2,0.6-7.7,3.5-8.9,0.1c-0.6-1.5,4.4-8.6,5-10.4
		C739.2,508.5,740.2,499.9,741,491.5z"/>
</g>
<path class="st13" d="M772.1,502.9c0.9-0.4,0.4-1.8-0.4-1.5c-11,4.7-21.3,10.4-31.1,17.1c18.7-20.3,38-40,58.1-59
	c0.7-0.7-0.4-1.6-1-1c-12.4,11.7-24.5,23.7-36.4,35.9c2-7.7,2.9-15.6,2.6-23.7c0-1-1.6-0.9-1.5,0c0.4,8.6-0.7,17.2-3.2,25.6
	c0,0.1,0,0.1,0,0.3c-15.3,15.9-30.2,32.3-44.7,49.1c-0.6,0.7,0.4,1.8,1,1c6.7-7.9,13.6-15.6,20.4-23.2c0,0,0.1,0,0.3-0.1
	C747.3,515.2,759.4,508.3,772.1,502.9z"/>
<path class="st0" d="M787,518h-85.6c-5.1,0-8.9,4.7-7.9,9.6l14.9,74.5c1,5.1,5.5,8.9,10.8,8.9H769c5.3,0,9.8-3.7,10.8-8.9l14.9-74.5
	C795.9,522.6,792.1,518,787,518z"/>
<path class="st5" d="M794.7,523.8c-1-3.4-3.9-5.8-7.7-5.8h-85.6c-3.8,0-6.7,2.5-7.7,5.8H794.7z"/>
<path class="st5" d="M787,518h-26.7c5.1,0,8.9,4.7,7.9,9.6l-14.9,74.5c-1,5.1-5.5,8.9-10.8,8.9h26.7c5.3,0,9.8-3.7,10.8-8.9
	l14.9-74.5C795.9,522.6,792.1,518,787,518z"/>
<path class="st9" d="M218.5,228.8c-12.7-29.8-46.9-44.2-77.2-32.2c-30.7,12.2-45.7,47-33.5,77.7c12.2,30.7,47,45.7,77.7,33.5
	c30.7-12.2,45.7-47,33.5-77.7C218.9,229.7,218.7,229.2,218.5,228.8z M176.1,284.2c-17.6,7-37.6-1.7-44.7-19.3
	c-7-17.6,1.7-37.6,19.3-44.7c17.2-6.9,36.6,1.2,44.1,17.9c0.2,0.4,0.4,0.9,0.6,1.3C202.4,257.1,193.8,277.1,176.1,284.2z"/>
<path class="st0" d="M218.5,228.8l-23.7,9.4c-7.4-16.7-26.9-24.7-44.1-17.9l-9.4-23.7C171.6,184.6,205.8,199,218.5,228.8z"/>
</svg>
