<?xml version="1.0" encoding="utf-8"?>
<!-- Generator: Adobe Illustrator 23.0.0, SVG Export Plug-In . SVG Version: 6.00 Build 0)  -->
<svg version="1.1" id="a90b5256-b423-42d1-825d-5fdc0dc55c5f"
	 xmlns="http://www.w3.org/2000/svg" xmlns:xlink="http://www.w3.org/1999/xlink" x="0px" y="0px" viewBox="0 0 883 612.1"
	 style="enable-background:new 0 0 883 612.1;" xml:space="preserve">
<style type="text/css">
	.st0{opacity:0.5;}
	.st1{fill:#2352BB;}
	.st2{fill:#FFFFFF;}
	.st3{fill:#F3F4F4;}
	.st4{fill:#FEFEFE;}
	.st5{fill:#FDFEFE;}
	.st6{fill:#0F2E66;}
	.st7{fill-rule:evenodd;clip-rule:evenodd;fill:#FFFFFF;}
	.st8{fill:none;stroke:#2352BB;stroke-width:5;stroke-miterlimit:10;}
	.st9{fill:none;stroke:#2352BB;stroke-width:4.5532;stroke-linecap:round;stroke-linejoin:round;stroke-miterlimit:10;}
	.st10{opacity:0.5;fill:url(#SVGID_1_);}
</style>
<g class="st0">
	<g>
		
			<ellipse transform="matrix(0.9324 -0.3616 0.3616 0.9324 -113.1335 96.0923)" class="st1" cx="200.2" cy="350.4" rx="54" ry="54"/>
		<path class="st2" d="M185.9,366.7c-6.2-1-11.1-3.9-13.6-9.7c0,0,3.3,0.7,6.5-0.2c-6.8-3.1-10.4-7.6-10.9-14.3c2.3,1.6,6,1.9,6,1.9
			c-6.4-5.6-6.6-12.5-3.9-18.6c15,15.4,29.5,14.4,29.5,14.4c-0.4-8.1,1.8-13.2,7.4-16c5.5-2.7,12.9-2,17.1,3c4,0.1,8.6-2.5,8.6-2.5
			s-1.2,2.7-5.2,6.3c2.6,0.6,7.4-1.1,7.4-1.1s-2,3.3-6.7,6.3c0.2,24-18.5,43.3-41.6,43c-6.8-0.1-15.1-3.1-21-6.7
			C165.6,372.6,180.4,373.4,185.9,366.7z"/>
	</g>
	<g>
		<path class="st2" d="M674.6,236.1c-2.9-0.4-5.1-1.8-6.3-4.5c0,0,1.5,0.3,3-0.1c-3.1-1.4-4.8-3.5-5-6.6c1.1,0.7,2.8,0.9,2.8,0.9
			c-2.9-2.6-3-5.8-1.8-8.6c6.9,7.1,13.6,6.7,13.6,6.7c-0.2-3.7,0.8-6.1,3.4-7.4c2.5-1.2,6-0.9,7.9,1.4c1.8,0,4-1.1,4-1.1
			s-0.5,1.3-2.4,2.9c1.2,0.3,3.4-0.5,3.4-0.5s-0.9,1.5-3.1,2.9c0.1,11.1-8.5,20-19.2,19.9c-3.1,0-7-1.4-9.7-3.1
			C665.2,238.8,672,239.2,674.6,236.1z"/>
	</g>
	<g>
		<circle class="st1" cx="337.6" cy="164.3" r="54"/>
		<g>
			<path class="st2" d="M368.5,178.1c0,8.3-6.7,14.9-14.9,14.9h-29.5c-8.3,0-14.9-6.7-14.9-14.9v-29.5c0-8.3,6.7-14.9,14.9-14.9
				h29.5c8.3,0,14.9,6.7,14.9,14.9V178.1z M361.6,148.9c0-4.5-3.7-8.2-8.2-8.2h-29c-4.5,0-8.2,3.7-8.2,8.2v29c0,4.5,3.7,8.2,8.2,8.2
				h29c4.5,0,8.2-3.7,8.2-8.2V148.9z"/>
			<path class="st2" d="M356.9,147.2c0,2.3-1.8,4.1-4.1,4.1s-4.1-1.8-4.1-4.1c0-2.3,1.8-4.1,4.1-4.1S356.9,144.9,356.9,147.2z"/>
			<path class="st2" d="M337.4,180.2c-8.6,0-15.7-7-15.7-15.7c0-8.6,7-15.7,15.7-15.7c8.6,0,15.7,7,15.7,15.7
				C353.1,173.2,346,180.2,337.4,180.2z M337.4,155.6c-4.9,0-8.9,4-8.9,8.9c0,4.9,4,8.9,8.9,8.9c4.9,0,8.9-4,8.9-8.9
				C346.3,159.6,342.3,155.6,337.4,155.6z"/>
		</g>
	</g>
	<g>
		<g>
			<path class="st2" d="M576.5,297.6c0,7.9-6.4,14.4-14.4,14.4h-28.9c-7.9,0-14.4-6.4-14.4-14.4v-28.9c0-7.9,6.4-14.4,14.4-14.4
				h28.9c7.9,0,14.4,6.4,14.4,14.4V297.6z M569.5,269.1c0-4.3-3.5-7.9-7.9-7.9h-27.9c-4.3,0-7.9,3.5-7.9,7.9v27.9
				c0,4.3,3.5,7.9,7.9,7.9h27.9c4.3,0,7.9-3.5,7.9-7.9V269.1z"/>
			<path class="st2" d="M564.8,267.8c0,2.2-1.8,3.9-3.9,3.9c-2.2,0-3.9-1.8-3.9-3.9c0-2.2,1.8-3.9,3.9-3.9
				C563,263.9,564.8,265.6,564.8,267.8z"/>
			<path class="st2" d="M546,299.5c-8.3,0-15.1-6.8-15.1-15.1c0-8.3,6.8-15.1,15.1-15.1c8.3,0,15.1,6.8,15.1,15.1
				C561.1,292.8,554.3,299.5,546,299.5z M546,275.9c-4.7,0-8.6,3.8-8.6,8.6c0,4.7,3.8,8.6,8.6,8.6c4.7,0,8.6-3.8,8.6-8.6
				C554.6,279.7,550.7,275.9,546,275.9z"/>
		</g>
	</g>
	<g>
		
			<ellipse transform="matrix(0.1587 -0.9873 0.9873 0.1587 305.1986 774.0282)" class="st1" cx="606.8" cy="207.9" rx="54" ry="54"/>
		<path class="st3" d="M634.3,197.7c-0.6-4.2-2.5-6.2-6.6-6.6c-6.8-0.7-13.6-1.1-20.5-1.1c-7.1-0.1-14.3,0.3-21.4,1.1
			c-4.2,0.5-6,2.5-6.5,6.7c-1,7.9-0.9,15.7,0.1,23.6c0.4,3.6,2.1,5.6,5.6,6.1c14.5,1.7,29.1,1.7,43.7,0c3.3-0.4,5.1-2.3,5.5-5.7
			C635.1,213.7,635.4,205.7,634.3,197.7z M601.7,218.8l0-18.7l14.1,9.3L601.7,218.8z"/>
	</g>
	<g>
		<path class="st3" d="M554.8,134.9c-0.5-3.8-2.3-5.7-6.1-6.1c-6.3-0.7-12.6-1.1-18.9-1c-6.6-0.1-13.2,0.3-19.7,1
			c-3.8,0.4-5.6,2.3-6,6.2c-0.9,7.3-0.8,14.5,0,21.8c0.4,3.3,1.9,5.2,5.2,5.6c13.4,1.6,26.8,1.6,40.3,0c3-0.4,4.7-2.1,5.1-5.2
			C555.6,149.7,555.8,142.4,554.8,134.9z M524.8,154.4l0-17.3l13,8.5L524.8,154.4z"/>
	</g>
	<g>
		
			<ellipse transform="matrix(0.9268 -0.3756 0.3756 0.9268 -60.0604 287.7627)" class="st1" cx="708.1" cy="297.9" rx="54" ry="54"/>
		<path class="st2" d="M701.4,299.2l-9.4,0l0-10.7l9.4-0.1c-1.3-18,5.4-21.1,17.8-21.1l6,0v10.4l-4.5,0.1c-0.9,0-8-0.5-6.6,10.5
			l9.1,0.1l-0.1,10.5L714,299l0,29h-12.5L701.4,299.2z"/>
	</g>
	<g>
		<g>
			
				<ellipse transform="matrix(0.7071 -0.7071 0.7071 0.7071 -16.3478 391.9523)" class="st1" cx="465" cy="215.7" rx="37.6" ry="37.6"/>
		</g>
		<g>
			<path class="st4" d="M482.9,230.8h-6.8c-2.4-15.8-13.1-26.5-29.1-28.6v-7.4C463.8,195.1,482.9,209.3,482.9,230.8z"/>
			<path class="st5" d="M463.9,230.8c-2.3-10.4-7.5-14.3-16.9-15.7v-7.2c11.9,1.3,21.8,8.4,23.9,22.9H463.9z"/>
			<path class="st5" d="M456.9,225.7c0,2.7-2.2,5-5,5c-2.7,0-5-2.2-5-5s2.2-5,5-5C454.7,220.7,456.9,223,456.9,225.7z"/>
		</g>
	</g>
	<g>
		<g>
			<g>
				
					<ellipse transform="matrix(0.7762 -0.6305 0.6305 0.7762 -109.2295 370.5798)" class="st1" cx="467.4" cy="339.2" rx="40.7" ry="40.7"/>
			</g>
		</g>
		<g>
			<g>
				<polygon class="st2" points="489.1,326.1 489.1,324.2 447.2,324.2 447.2,326.7 467.6,339.1 				"/>
				<path class="st2" d="M467.9,342.6c-0.3,0.2-0.5,0.2-0.8,0.2c-0.3,0,0-0.1-0.3-0.2l-19.7-11.8v23.1h41.9v-23.8L467.9,342.6z"/>
			</g>
		</g>
	</g>
	<g>
		<g>
			<g>
				
					<ellipse transform="matrix(0.2321 -0.9727 0.9727 0.2321 125.8502 906.4525)" class="st1" cx="637" cy="373.5" rx="40.7" ry="40.7"/>
			</g>
		</g>
		<path class="st5" d="M658.4,378.7c2.6-17.5-9.9-27.2-24.2-25.9c0,0-9-5.2-16.5,2.2c-5.7,7.1-1.6,14.7-1.6,14.7
			c-1.1,13.9,7.2,26.9,25.8,24.8c0,0,8.1,4.4,14.3-2.1C661.6,386.8,658.4,378.7,658.4,378.7z M650,380.4c-0.3,2.5-1.6,4.3-3.6,5.6
			c-4.3,3-12.7,3.1-17,0.3c-1.3-0.8-2.4-1.9-3.1-3.2c-1.1-2-2.1-4.2,0.6-5.7c2.5-1.4,3.7,0.5,4.8,2.4c2,3.6,5.7,4.8,9.3,3.1
			c1.4-0.7,2.6-1.6,2.5-3.3c-0.1-1.5-1.2-2.4-2.6-2.9c-2.3-0.7-4.6-1.3-7-1.9c-1.7-0.4-3.3-1-4.7-2c-4.6-3-4.5-9,0.1-12
			c2.5-1.6,5.3-2,9-2c3.5,0.1,7.6,0.7,9.9,4.9c0.9,1.6,1.1,3.5-0.8,4.6c-1.7,1-3.3,0.5-4.4-1.3c-0.2-0.3-0.4-0.6-0.6-0.9
			c-1.9-2.6-4.9-3.5-7.9-2.3c-1.1,0.4-2.1,1-2.3,2.3c-0.1,1.6,1,2.3,2.2,2.7c3.5,1.1,7.1,1.9,10.5,3.2
			C648.9,373.5,650.4,376.3,650,380.4z"/>
	</g>
	<g>
		<g>
			<g>
				<g>
					
						<ellipse transform="matrix(0.2275 -0.9738 0.9738 0.2275 -47.2913 445.7231)" class="st1" cx="257.3" cy="252.7" rx="40.7" ry="40.7"/>
				</g>
			</g>
		</g>
		<path class="st2" d="M270.6,259.6c-1.7,0-3.4,0.6-4.6,1.6l-15.3-8.3c0-0.2,0-0.5,0-0.7c0-0.5-0.1-1.1-0.2-1.6l14.5-7.2
			c1.4,1.6,3.4,2.6,5.6,2.6c4.1,0,7.4-3.3,7.4-7.4c0-4.1-3.3-7.4-7.4-7.4c-4.1,0-7.4,3.3-7.4,7.4c0,0.2,0,0.3,0,0.5l-15.1,7.5
			c-1.3-1.1-3-1.8-4.8-1.8c-4.1,0-7.4,3.3-7.4,7.4c0,4.1,3.3,7.4,7.4,7.4c2.1,0,4.1-0.9,5.4-2.4l14.7,8c-0.1,0.6-0.2,1.2-0.2,1.8
			c0,4.1,3.3,7.4,7.4,7.4c4.1,0,7.4-3.3,7.4-7.4C278,262.9,274.7,259.6,270.6,259.6z"/>
	</g>
	<g>
		<circle class="st1" cx="326.1" cy="254.1" r="19.1"/>
		<path class="st2" d="M321,259.9c-2.2-0.3-3.9-1.4-4.8-3.4c0,0,1.2,0.2,2.3-0.1c-2.4-1.1-3.7-2.7-3.8-5c0.8,0.6,2.1,0.7,2.1,0.7
			c-2.2-2-2.3-4.4-1.4-6.6c5.3,5.4,10.4,5.1,10.4,5.1c-0.2-2.9,0.6-4.7,2.6-5.6c1.9-0.9,4.6-0.7,6,1.1c1.4,0,3-0.9,3-0.9
			s-0.4,1-1.8,2.2c0.9,0.2,2.6-0.4,2.6-0.4s-0.7,1.2-2.4,2.2c0.1,8.5-6.5,15.3-14.7,15.2c-2.4,0-5.3-1.1-7.4-2.4
			C313.8,261.9,319,262.2,321,259.9z"/>
	</g>
	<g>
		
			<ellipse transform="matrix(0.1596 -0.9872 0.9872 0.1596 246.3501 687.7684)" class="st1" cx="527.1" cy="199.2" rx="19.1" ry="19.1"/>
		<path class="st3" d="M536.8,195.6c-0.2-1.5-0.9-2.2-2.3-2.3c-2.4-0.3-4.8-0.4-7.2-0.4c-2.5,0-5,0.1-7.5,0.4
			c-1.5,0.2-2.1,0.9-2.3,2.4c-0.3,2.8-0.3,5.6,0,8.3c0.2,1.3,0.7,2,2,2.1c5.1,0.6,10.3,0.6,15.4,0c1.2-0.1,1.8-0.8,2-2
			C537.1,201.2,537.2,198.4,536.8,195.6z M525.8,203v-6.6l5,3.3L525.8,203z"/>
	</g>
	<g>
		<circle class="st1" cx="431.2" cy="282.9" r="15.3"/>
		<path class="st2" d="M429.3,283.2l-2.7,0l0-3l2.7,0c-0.4-5.1,1.5-6,5.1-6l1.7,0v3l-1.3,0c-0.3,0-2.3-0.1-1.9,3l2.6,0l0,3l-2.6,0
			l0,8.2h-3.6L429.3,283.2z"/>
	</g>
	<g>
		<circle class="st1" cx="537.8" cy="108.1" r="11.8"/>
		<path class="st2" d="M536.3,108.4l-2.1,0l0-2.3l2.1,0c-0.3-3.9,1.2-4.6,3.9-4.6l1.3,0v2.3l-1,0c-0.2,0-1.8-0.1-1.5,2.3l2,0l0,2.3
			l-2,0l0,6.4h-2.7L536.3,108.4z"/>
	</g>
	<g>
		<circle class="st1" cx="221.5" cy="202.5" r="15.3"/>
		<path class="st2" d="M219.6,202.9l-2.7,0l0-3l2.7,0c-0.4-5.1,1.5-6,5.1-6l1.7,0v3l-1.3,0c-0.3,0-2.3-0.1-1.9,3l2.6,0l0,3l-2.6,0
			l0,8.2h-3.6L219.6,202.9z"/>
	</g>
	<g>
		<g>
			<circle class="st1" cx="347.6" cy="42.3" r="14.4"/>
		</g>
		<g>
			<path class="st4" d="M354.4,48.1h-2.6c-0.9-6-5-10.1-11.1-10.9v-2.8C347.1,34.4,354.4,39.9,354.4,48.1z"/>
			<path class="st5" d="M347.1,48.1c-0.9-4-2.9-5.5-6.4-6v-2.8c4.6,0.5,8.3,3.2,9.1,8.8H347.1z"/>
			<path class="st5" d="M344.5,46.1c0,1-0.8,1.9-1.9,1.9c-1,0-1.9-0.8-1.9-1.9c0-1,0.8-1.9,1.9-1.9
				C343.6,44.2,344.5,45.1,344.5,46.1z"/>
		</g>
	</g>
	<g>
		<g>
			<g>
				
					<ellipse transform="matrix(0.247 -0.969 0.969 0.247 -14.4015 594.978)" class="st1" cx="375.6" cy="306.8" rx="14.4" ry="14.4"/>
			</g>
		</g>
		<g>
			<g>
				<polygon class="st2" points="382.5,302.1 382.5,301.4 368.5,301.4 368.5,302.4 375.3,306.7 				"/>
				<path class="st2" d="M375.4,308C375.3,308,375.5,308.1,375.4,308C375.2,308.1,375.5,308,375.4,308l-6.9-4.2v8.1h14v-8.4
					L375.4,308z"/>
			</g>
		</g>
	</g>
	<g>
		<g>
			<g>
				<path class="st1" d="M290.4,105.8c0,6-4.9,10.9-10.9,10.9c-6,0-10.9-4.9-10.9-10.9c0-6,4.9-10.9,10.9-10.9
					C285.5,94.9,290.4,99.8,290.4,105.8z"/>
			</g>
		</g>
		<g>
			<g>
				<polygon class="st2" points="284.7,102.3 284.7,102.2 274.2,102.2 274.2,102.5 279.3,105.8 				"/>
				<path class="st2" d="M279.3,106.7C279.3,106.8,279.4,106.8,279.3,106.7C279.2,106.8,279.4,106.8,279.3,106.7l-5.1-3.2v5.7h10.5
					v-5.8L279.3,106.7z"/>
			</g>
		</g>
	</g>
	<g>
		<g>
			<g>
				
					<ellipse transform="matrix(0.2306 -0.9731 0.9731 0.2306 320.2102 667.5336)" class="st1" cx="582.2" cy="131.3" rx="14.4" ry="14.4"/>
			</g>
		</g>
		<path class="st5" d="M589.7,133.1c0.9-6.2-3.5-9.6-8.5-9.1c0,0-3.2-1.8-5.8,0.8c-2,2.5-0.5,5.2-0.5,5.2c-0.4,4.9,2.5,9.5,9.1,8.8
			c0,0,2.9,1.6,5-0.7C590.9,136,589.7,133.1,589.7,133.1z M586.8,133.7c-0.1,0.9-0.6,1.5-1.3,2c-1.5,1.1-4.5,1.1-6,0.1
			c-0.4-0.3-0.8-0.7-1.1-1.1c-0.4-0.7-0.7-1.5,0.2-2c0.9-0.5,1.3,0.2,1.7,0.9c0.7,1.3,2,1.7,3.3,1.1c0.5-0.2,0.9-0.6,0.9-1.2
			c0-0.5-0.4-0.9-0.9-1c-0.8-0.2-1.6-0.5-2.5-0.7c-0.6-0.1-1.2-0.4-1.7-0.7c-1.6-1.1-1.6-3.2,0-4.2c0.9-0.6,1.9-0.7,3.2-0.7
			c1.2,0.1,2.7,0.3,3.5,1.7c0.3,0.6,0.4,1.2-0.3,1.6c-0.6,0.4-1.2,0.2-1.6-0.4c-0.1-0.1-0.1-0.2-0.2-0.3c-0.7-0.9-1.7-1.2-2.8-0.8
			c-0.4,0.2-0.8,0.4-0.8,0.8c-0.1,0.6,0.4,0.8,0.8,0.9c1.2,0.4,2.5,0.7,3.7,1.1C586.4,131.3,586.9,132.3,586.8,133.7z"/>
	</g>
	<g>
		<g>
			<g>
				<g>
					
						<ellipse transform="matrix(0.7071 -0.7071 0.7071 0.7071 -164.5068 180.7934)" class="st1" cx="136" cy="289" rx="14.4" ry="14.4"/>
				</g>
			</g>
		</g>
		<path class="st2" d="M140.7,291.4c-0.6,0-1.2,0.2-1.6,0.6l-5.4-2.9c0-0.1,0-0.2,0-0.3c0-0.2,0-0.4-0.1-0.6l5.1-2.6
			c0.5,0.6,1.2,0.9,2,0.9c1.4,0,2.6-1.2,2.6-2.6c0-1.4-1.2-2.6-2.6-2.6c-1.4,0-2.6,1.2-2.6,2.6c0,0.1,0,0.1,0,0.2l-5.3,2.7
			c-0.5-0.4-1-0.6-1.7-0.6c-1.4,0-2.6,1.2-2.6,2.6s1.2,2.6,2.6,2.6c0.8,0,1.4-0.3,1.9-0.8l5.2,2.8c-0.1,0.2-0.1,0.4-0.1,0.6
			c0,1.4,1.2,2.6,2.6,2.6c1.4,0,2.6-1.2,2.6-2.6C143.3,292.6,142.1,291.4,140.7,291.4z"/>
	</g>
	<g>
		<circle class="st6" cx="375.7" cy="374.7" r="35.7"/>
		<path class="st7" d="M375.7,357.4c-9.2,0-16.6,7.4-16.6,16.6c0,9.2,7.4,16.6,16.6,16.6c9.2,0,16.6-7.4,16.6-16.6
			C392.3,364.8,384.9,357.4,375.7,357.4z M384.5,381.3c-0.3,0.5-0.7,0.9-1.2,1.2c-0.6,0.3-1.3,0.6-2,0.8c-0.7,0.1-1.3,0.1-2,0
			c-1.3-0.3-2.6-0.8-3.8-1.4c-1.3-0.6-2.4-1.5-3.4-2.4c-1.2-1.1-2.3-2.3-3.2-3.6c-0.7-1.1-1.3-2.2-1.7-3.5c-0.2-0.7-0.5-1.3-0.6-2
			c-0.2-0.9-0.1-1.8,0.3-2.7c0.2-0.6,0.5-1.1,0.9-1.6c0.3-0.3,0.6-0.7,1-0.8c0.5-0.1,1-0.3,1.4-0.4c0,0,0,0,0,0.1
			c0.4-0.1,0.7,0.1,0.9,0.5c0.5,0.9,1,1.8,1.5,2.6c0.2,0.3,0.3,0.5,0.5,0.8c0.3,0.5,0.3,0.8-0.1,1.2c-0.5,0.4-1,0.8-1.4,1.2
			c-0.2,0.2-0.4,0.3-0.5,0.6c-0.1,0.1-0.1,0.4,0,0.5c0.1,0.4,0.3,0.7,0.5,1c0.6,1.1,1.3,2,2.2,2.9c0.6,0.6,1.3,1.2,2,1.7
			c0.6,0.4,1.2,0.7,1.8,1.1c0.5,0.3,0.7,0.2,1.1-0.2c0.5-0.5,0.9-1,1.4-1.6c0.1-0.1,0.2-0.2,0.2-0.2c0.3-0.2,0.5-0.3,0.8-0.1
			c0.7,0.4,1.4,0.8,2.1,1.2c0.6,0.3,1.1,0.7,1.7,1c0.2,0.1,0.3,0.3,0.3,0.6C385,380,384.8,380.7,384.5,381.3z"/>
	</g>
	<g>
		<circle class="st6" cx="307.5" cy="318.7" r="35.7"/>
		<g>
			<path class="st2" d="M316.4,312.6c-0.9-1-1.9-1.9-3.1-2.5c-0.8-0.4-1.7-0.7-2.6-0.9c-2.1-0.3-4.1,0-5.9,1
				c-1.4,0.8-2.6,1.8-3.5,3.2c-0.6,0.9-1,1.9-1.3,3c-0.2,0.8-0.3,1.7-0.2,2.6c0,0.9,0.2,1.7,0.5,2.5c0.3,0.8,0.7,1.6,1.2,2.3
				c0.1,0.1,0.1,0.2,0,0.3c-0.3,0.9-0.6,1.8-0.9,2.7c-0.1,0.2-0.1,0.4-0.2,0.6c0.2-0.1,0.3-0.1,0.4-0.1c1-0.3,1.9-0.6,2.9-0.9
				c0.2-0.1,0.4,0,0.5,0.1c0.9,0.6,1.9,1,2.9,1.2c1,0.2,2.1,0.3,3.2,0.1c1-0.1,1.9-0.4,2.8-0.8c0.7-0.3,1.4-0.7,2-1.2
				c0.8-0.7,1.5-1.5,2.1-2.4c0.6-1,1-2.1,1.2-3.3c0.2-1.4,0.1-2.7-0.3-4.1C317.8,314.6,317.2,313.6,316.4,312.6z M314.6,322.3
				c-0.2,0.4-0.5,0.6-0.8,0.8c-0.5,0.3-1,0.5-1.5,0.5c-0.4,0-0.8-0.1-1.2-0.2c-0.7-0.2-1.3-0.4-1.9-0.7c-0.7-0.3-1.3-0.7-1.8-1.1
				c-1.1-0.9-1.9-1.9-2.7-3c-0.4-0.6-0.8-1.3-0.9-2c-0.2-1,0-1.9,0.7-2.7c0.1-0.1,0.3-0.3,0.4-0.4c0.2-0.2,0.5-0.2,0.8-0.1
				c0.1,0,0.1,0,0.2,0c0.4-0.1,0.5,0.1,0.7,0.4c0.3,0.7,0.5,1.3,0.8,2c0.1,0.3,0.1,0.5-0.1,0.8c-0.2,0.2-0.4,0.5-0.6,0.7
				c-0.2,0.2-0.2,0.3-0.1,0.5c0.5,0.9,1.2,1.6,2,2.3c0.5,0.4,1.1,0.7,1.7,0.9c0.3,0.2,0.5,0.1,0.7-0.2c0.3-0.3,0.5-0.6,0.8-0.9
				c0.2-0.2,0.3-0.3,0.6-0.2c0.8,0.3,1.5,0.7,2.3,1.1c0.1,0.1,0.2,0.2,0.2,0.3C314.8,321.6,314.7,322,314.6,322.3z"/>
			<path class="st2" d="M308.9,302.2c-9.2,0-16.6,7.4-16.6,16.6c0,9.2,7.4,16.6,16.6,16.6c9.2,0,16.6-7.4,16.6-16.6
				C325.5,309.6,318.1,302.2,308.9,302.2z M320.3,319.1c0,0.1,0,0.1,0,0.2c-0.1,0.7-0.2,1.5-0.4,2.2c-0.3,1-0.7,2-1.3,2.9
				c-0.7,1.1-1.6,2.1-2.7,2.9c-1,0.7-2.1,1.3-3.3,1.7c-1,0.3-2.1,0.5-3.2,0.5c-2,0-3.8-0.4-5.5-1.3c-0.1,0-0.2-0.1-0.2,0
				c-0.9,0.3-1.8,0.6-2.7,0.9c-0.7,0.2-1.4,0.4-2.1,0.7c-0.4,0.1-0.8,0.3-1.1,0.4c0,0,0,0-0.1-0.1c0-0.1,0.1-0.2,0.1-0.2
				c0.1-0.3,0.2-0.7,0.3-1c0.5-1.5,1-3,1.5-4.5c0-0.1,0-0.3,0-0.4c-0.5-0.9-0.9-1.8-1.1-2.8c-0.3-1.4-0.4-2.7-0.3-4.1
				c0.2-2,1-3.7,2.1-5.3c0.9-1.2,2-2.2,3.3-2.9c1.3-0.7,2.7-1.2,4.2-1.4c0.3,0,0.5-0.1,0.8-0.1c0.5,0,0.9,0,1.4,0
				c0.3,0,0.5,0.1,0.8,0.1c1.7,0.2,3.3,0.8,4.7,1.8c1,0.7,1.9,1.5,2.6,2.4c1.2,1.5,1.9,3.2,2.2,5c0.1,0.4,0.1,0.7,0.1,1.1
				C320.3,318.2,320.3,318.7,320.3,319.1z"/>
		</g>
	</g>
	<g>
		<circle class="st6" cx="552.2" cy="360.7" r="35.7"/>
		<path class="st2" d="M552.2,344.1c-9.2,0-16.6,7.4-16.6,16.6s7.4,16.6,16.6,16.6c9.2,0,16.6-7.4,16.6-16.6
			S561.4,344.1,552.2,344.1z M559.5,361.4c-1.3,2.3-3.9,6.4-6.5,7.2c-1.4,0.5-2.8,0.2-3.6-1.1c-0.8-1.3-0.9-2.8-1.1-4.3
			c-0.2-1.5-0.5-3.3-1.4-4.6c-1-1.4-2.4-1.3-3.9-0.8c0.6-2,5.6-7.6,7.7-2c0.7,1.9,0.8,4.1,1.6,6c0.9,2.4,2.4-0.1,3.1-1.2
			c0.6-0.9,2.1-3.3,0.8-4.2c-0.8-0.5-2.1,0.1-2.9,0.2c1.1-4,3.9-4.4,5.9-4c1.3,0.3,2,1.1,2.3,2.5
			C561.8,357.2,560.4,359.7,559.5,361.4z"/>
	</g>
	<g>
		<circle class="st6" cx="429.9" cy="126.5" r="35.7"/>
		<path class="st2" d="M430.3,109.2c-9.2,0-16.6,7.4-16.6,16.6s7.4,16.6,16.6,16.6c9.2,0,16.6-7.4,16.6-16.6
			S439.4,109.2,430.3,109.2z M439.7,126.1c-0.6,4-5.4,7.7-12,6.6c0,0-0.8,1.3-3.7,1.8c1.4-2.3,1.2-2.8,1.2-2.8
			c-2.7-1.6-4-5.3-3.2-8.2c0.8-3.2,3.9-5.9,10-5.6C438,118.5,440.2,122.4,439.7,126.1z"/>
	</g>
	<g>
		<circle class="st6" cx="386.2" cy="247.1" r="35.7"/>
		<g>
			<path class="st2" d="M388.7,250.5l-5.7,0c-0.8,0-1.4,0.5-1.4,1.1c0,0.6,0.6,1.1,1.4,1.1l5.7,0c0.8,0,1.4-0.5,1.4-1.1
				C390.1,251,389.5,250.5,388.7,250.5z"/>
			<path class="st2" d="M382.5,246l3.5,0c0.5,0,0.9-0.5,0.9-1.1c0-0.6-0.4-1.1-0.9-1.1l-3.5,0c-0.5,0-0.9,0.5-0.9,1.1
				C381.6,245.5,382,246,382.5,246z"/>
			<path class="st2" d="M386.3,232.1c-9.2,0-16.6,7.4-16.6,16.6c0,9.2,7.4,16.6,16.6,16.6c9.2,0,16.6-7.4,16.6-16.6
				C402.9,239.5,395.5,232.1,386.3,232.1z M386.9,257.2c-0.3,0-0.6,0-0.8,0c-1.2,0-2.4,0.1-3.6,0c-3.1-0.2-5.3-2.4-5.5-5.5
				c-0.1-2.3-0.1-4.6,0-6.9c0.2-3.2,2.2-5.3,6.4-5.6c8.6-0.5,8,4.5,8.3,6.5c0.7,0,1.4,0,2,0c0.2,0,0.9,0.5,0.8,1l0,5.5
				C394.5,256.1,393.2,257.2,386.9,257.2z"/>
		</g>
	</g>
	<g>
		<circle class="st6" cx="237.6" cy="145.7" r="35.7"/>
		<path class="st2" d="M238.2,129.1c-9.2,0-16.6,7.4-16.6,16.6c0,9.2,7.4,16.6,16.6,16.6c9.2,0,16.6-7.4,16.6-16.6
			C254.8,136.6,247.4,129.1,238.2,129.1z M248.5,150c-2.5,6-9,8-13.6,6.4c0.2-0.4,0.4-0.8,0.6-1.2c0.5-1,0.8-2,1.1-3.1
			c0.1-0.4,0.2-0.8,0.3-1.3c1.1,1.3,2.5,1.4,4,1c1.3-0.4,2.3-1.2,3.1-2.3c1.2-1.8,1.6-3.7,1.2-5.7c-0.5-2.4-2-4-4.2-4.8
			c-2.3-0.8-4.6-0.6-6.7,0.6c-1.8,1.1-2.9,2.7-3.1,4.8c-0.2,1.6,0.2,3.1,1.2,4.3c0.3,0.4,0.6,0.6,1,0.8c0.2,0.1,0.3,0.1,0.4-0.2
			c0.1-0.4,0.2-0.8,0.3-1.1c0-0.1,0-0.3-0.1-0.4c-0.9-1.4-1.1-2.9-0.5-4.4c0.7-1.7,2-2.7,3.9-3c1.2-0.2,2.3,0,3.3,0.6
			c1.3,0.7,2,1.9,2.1,3.3c0.1,1.4-0.1,2.7-0.7,3.9c-0.5,0.9-1.1,1.5-2.1,1.8c-0.4,0.1-0.8,0.1-1.1,0c-0.9-0.3-1.4-1.1-1.1-2
			c0.2-0.9,0.5-1.7,0.7-2.6c0.1-0.4,0.2-0.9,0.2-1.4c-0.1-1.4-1.5-1.6-2.2-1.1c-0.7,0.4-1,1.1-1.1,1.9c-0.1,0.7,0,1.4,0.2,2.1
			c0,0.1,0,0.2,0,0.3c-0.4,1.8-0.8,3.6-1.3,5.4c-0.2,0.9-0.2,1.7-0.1,2.6c0,0.2,0,0.4,0,0.5c-4.7-1.7-8.4-7.2-6.7-13.4
			c1.7-6.2,8.2-9.6,14.3-7.6C247.9,137.2,251,144,248.5,150z"/>
	</g>
	<g>
		<circle class="st6" cx="618.6" cy="297.8" r="28.7"/>
		<path class="st5" d="M619.9,284.4c-7.4,0-13.3,6-13.3,13.3c0,7.4,6,13.3,13.3,13.3c7.4,0,13.3-6,13.3-13.3
			C633.2,290.4,627.3,284.4,619.9,284.4z M618.6,305.7c-0.8-0.3-2.1-1.3-2.1-2.7l0-6.8h-3.3V294c1.7-0.8,4.6-3.1,4.5-4.8h2.3
			c0,0,0,3.4,0,4.3l4.3,0l0,2.6l-4.3,0l0,5.8c0.4,1.5,1.8,1.3,2.7,1.1c0.7-0.1,1.9-0.6,1.9-0.6l0,2.7
			C624,305.5,620.9,306.6,618.6,305.7z"/>
	</g>
	<path class="st7" d="M319.4,59.2c-12.9,0-23.4,10.5-23.4,23.4s10.5,23.4,23.4,23.4c12.9,0,23.4-10.5,23.4-23.4
		S332.3,59.2,319.4,59.2z M331.9,92.8c-0.4,0.7-1,1.2-1.7,1.6c-0.9,0.5-1.8,0.9-2.8,1.1c-0.9,0.2-1.9,0.2-2.8-0.1
		c-1.9-0.5-3.7-1.2-5.4-2c-1.8-0.9-3.4-2.1-4.9-3.4c-1.7-1.5-3.2-3.2-4.5-5.1c-1.1-1.5-1.9-3.2-2.5-4.9c-0.3-0.9-0.7-1.9-0.9-2.8
		c-0.3-1.3-0.1-2.6,0.4-3.8c0.3-0.8,0.7-1.6,1.2-2.3c0.4-0.5,0.8-0.9,1.4-1.1c0.7-0.2,1.3-0.4,2-0.5c0,0,0,0.1,0,0.1
		c0.6-0.2,1,0.2,1.3,0.7c0.7,1.2,1.4,2.5,2.1,3.7c0.2,0.4,0.5,0.7,0.7,1.1c0.4,0.7,0.4,1.1-0.2,1.7c-0.6,0.6-1.3,1.2-2,1.7
		c-0.3,0.2-0.5,0.5-0.7,0.8c-0.1,0.2-0.1,0.5-0.1,0.7c0.2,0.5,0.5,1,0.7,1.5c0.8,1.5,1.8,2.9,3,4.1c0.9,0.9,1.8,1.7,2.8,2.3
		c0.8,0.5,1.7,1,2.5,1.5c0.7,0.4,1,0.3,1.5-0.3c0.7-0.7,1.3-1.5,2-2.2c0.1-0.1,0.2-0.2,0.3-0.3c0.4-0.3,0.8-0.4,1.2-0.1
		c1,0.6,1.9,1.1,2.9,1.7c0.8,0.5,1.6,0.9,2.4,1.4c0.3,0.2,0.5,0.4,0.4,0.8C332.5,91.1,332.3,92,331.9,92.8z"/>
	<g>
		<path class="st2" d="M417,184.8c-0.8-0.9-1.7-1.7-2.8-2.2c-0.8-0.4-1.6-0.6-2.4-0.8c-1.9-0.3-3.7,0-5.4,0.9
			c-1.3,0.7-2.3,1.6-3.1,2.9c-0.5,0.8-0.9,1.7-1.2,2.7c-0.2,0.8-0.2,1.5-0.2,2.3c0,0.8,0.2,1.5,0.4,2.3c0.3,0.8,0.6,1.5,1.1,2.1
			c0.1,0.1,0.1,0.2,0,0.3c-0.3,0.8-0.5,1.6-0.8,2.4c-0.1,0.2-0.1,0.4-0.2,0.6c0.2,0,0.3-0.1,0.4-0.1c0.9-0.3,1.8-0.6,2.6-0.8
			c0.2-0.1,0.3,0,0.5,0.1c0.8,0.5,1.7,0.9,2.7,1.1c0.9,0.2,1.9,0.2,2.9,0.1c0.9-0.1,1.7-0.4,2.5-0.7c0.6-0.3,1.2-0.7,1.8-1.1
			c0.8-0.6,1.4-1.4,1.9-2.2c0.6-0.9,0.9-1.9,1.1-3c0.2-1.2,0.1-2.5-0.2-3.7C418.3,186.6,417.8,185.6,417,184.8z M415.4,193.6
			c-0.1,0.3-0.4,0.5-0.7,0.7c-0.4,0.3-0.9,0.5-1.4,0.5c-0.4,0-0.7-0.1-1.1-0.2c-0.6-0.2-1.2-0.4-1.7-0.6c-0.6-0.2-1.2-0.6-1.7-1
			c-1-0.8-1.7-1.7-2.4-2.7c-0.4-0.6-0.7-1.2-0.8-1.8c-0.2-0.9,0-1.7,0.6-2.4c0.1-0.1,0.2-0.2,0.4-0.3c0.2-0.2,0.5-0.2,0.7-0.1
			c0.1,0,0.1,0,0.2,0c0.3,0,0.5,0.1,0.6,0.4c0.3,0.6,0.5,1.2,0.8,1.8c0.1,0.3,0.1,0.5-0.1,0.7c-0.2,0.2-0.3,0.4-0.5,0.7
			c-0.1,0.2-0.2,0.3-0.1,0.5c0.5,0.8,1.1,1.5,1.8,2c0.5,0.4,1,0.6,1.5,0.8c0.3,0.1,0.4,0.1,0.7-0.2c0.2-0.3,0.5-0.6,0.7-0.8
			c0.2-0.2,0.3-0.3,0.5-0.2c0.7,0.3,1.4,0.6,2.1,1c0.1,0.1,0.2,0.2,0.2,0.3C415.6,192.9,415.5,193.3,415.4,193.6z"/>
		<path class="st2" d="M410.3,175.3c-8.3,0-15.1,6.7-15.1,15.1s6.7,15.1,15.1,15.1c8.3,0,15.1-6.7,15.1-15.1
			S418.6,175.3,410.3,175.3z M420.6,190.7c0,0.1,0,0.1,0,0.2c-0.1,0.7-0.2,1.3-0.4,2c-0.3,0.9-0.7,1.8-1.2,2.7
			c-0.7,1-1.5,1.9-2.4,2.6c-0.9,0.7-1.9,1.2-3,1.5c-0.9,0.3-1.9,0.5-2.9,0.5c-1.8,0-3.4-0.4-5-1.2c-0.1,0-0.2,0-0.2,0
			c-0.8,0.3-1.7,0.5-2.5,0.8c-0.6,0.2-1.3,0.4-1.9,0.6c-0.3,0.1-0.7,0.2-1,0.4c0,0,0,0-0.1-0.1c0-0.1,0.1-0.1,0.1-0.2
			c0.1-0.3,0.2-0.6,0.3-0.9c0.5-1.3,0.9-2.7,1.4-4c0-0.1,0-0.2,0-0.3c-0.5-0.8-0.8-1.6-1-2.5c-0.3-1.2-0.4-2.5-0.2-3.7
			c0.2-1.8,0.9-3.4,1.9-4.8c0.8-1.1,1.8-2,3-2.7c1.2-0.7,2.4-1.1,3.8-1.3c0.2,0,0.5-0.1,0.7-0.1c0.4,0,0.9,0,1.3,0
			c0.2,0,0.5,0.1,0.7,0.1c1.6,0.2,3,0.7,4.3,1.6c0.9,0.6,1.7,1.3,2.4,2.2c1,1.3,1.7,2.9,2,4.5c0.1,0.3,0.1,0.7,0.1,1
			C420.6,189.9,420.6,190.3,420.6,190.7z"/>
	</g>
	<g>
		<path class="st7" d="M383.9,69.2c-0.9,0-1.7,0-2.6,0c-0.9,0-1.9,0-2.8,0c-0.3,0-0.3,0-0.3,0.3c0,1.6,0,3.2,0,4.8
			c0,0.3,0,0.3,0.3,0.3c1.7,0,3.4,0,5.1,0c0.2,0,0.4,0,0.6,0c0.9-0.1,1.6-0.6,1.9-1.5c0.2-0.6,0.2-1.2,0.1-1.9
			C386.1,70,385.2,69.2,383.9,69.2z"/>
		<path class="st7" d="M400.9,66.4c-0.8-0.4-1.6-0.4-2.5-0.2c-1.5,0.4-2.3,1.7-2.6,2.9c0,0.2,0.1,0.1,0.2,0.1c1.1,0,2.1,0,3.2,0
			c0,0,0.1,0,0.1,0c1,0,2,0,3,0c0.1,0,0.2,0,0.2-0.2c0-0.1,0-0.3,0-0.4C402.3,67.7,401.8,66.8,400.9,66.4z"/>
		<path class="st7" d="M378.5,66.1c1.8,0,3.7,0,5.5,0c0.8,0,1.3-0.4,1.5-1.1c0.2-0.6,0.2-1.2,0.1-1.7c0-0.3-0.1-0.6-0.2-0.8
			c-0.3-0.6-0.7-0.9-1.4-0.9c-0.9,0-1.8,0-2.7,0v0c-1,0-1.9,0-2.8,0c-0.2,0-0.3,0-0.2,0.2c0,1.4,0,2.7,0,4.1
			C378.2,66.1,378.3,66.1,378.5,66.1z"/>
		<path class="st7" d="M390,45c-12.9,0-23.4,10.5-23.4,23.4c0,12.9,10.5,23.4,23.4,23.4c12.9,0,23.4-10.5,23.4-23.4
			C413.4,55.4,402.9,45,390,45z M394.9,59.4c0-0.2,0.1-0.3,0.3-0.3c2.6,0,5.3,0,7.9,0c0.2,0,0.3,0.1,0.3,0.3c0,0.6,0,1.3,0,1.9
			c0,0.2-0.1,0.3-0.3,0.3c-1.3,0-2.6,0-3.9,0c-1.3,0-2.6,0-3.9,0c-0.2,0-0.3-0.1-0.3-0.3C394.9,60.7,394.9,60,394.9,59.4z M390.1,75
			c-0.6,1.3-1.6,2.1-2.9,2.7c-1,0.4-2,0.6-3,0.6c-3.4,0-6.9,0-10.3,0c-0.3,0-0.3,0-0.3-0.3c0-6.6,0-13.1,0-19.7c0-0.3,0-0.3,0.3-0.3
			c3.6,0,7.2,0,10.8,0c1.5,0,2.8,0.5,3.8,1.6c0.8,0.8,1.2,1.8,1.3,2.9c0.1,0.8,0.1,1.7-0.2,2.5c-0.4,1.2-1.3,2-2.5,2.3
			c0,0-0.1,0-0.1,0.1c1.6,0.1,2.6,0.9,3.1,2.3c0.4,1.1,0.5,2.2,0.4,3.3C390.6,73.6,390.4,74.4,390.1,75z M406.2,72c-1.7,0-3.4,0-5,0
			c-1.7,0-3.3,0-5,0c-0.3,0-0.3-0.1-0.3,0.3c0,0.9,0.3,1.7,1,2.4c0.5,0.5,1.1,0.7,1.7,0.8c1,0.2,1.9,0.1,2.8-0.3
			c0.7-0.3,1.1-0.8,1.2-1.6c0-0.2,0.1-0.2,0.3-0.2c1,0,2.1,0,3.1,0c0.2,0,0.3,0.1,0.2,0.3c-0.1,2.2-1.2,3.7-3.3,4.5
			c-0.8,0.3-1.7,0.5-2.6,0.6c-1.4,0.1-2.8,0-4.1-0.4c-2.3-0.7-3.7-2.3-4.4-4.6c-0.8-2.8-0.4-5.4,1.3-7.8c0.9-1.4,2.3-2.2,3.9-2.6
			c1.5-0.4,3.1-0.4,4.6,0c2.2,0.6,3.6,2,4.3,4.2c0.5,1.4,0.5,2.8,0.5,4.2C406.4,72,406.3,72,406.2,72z"/>
	</g>
	<path class="st2" d="M683.7,175.7c-6.1,0-11.1,5-11.1,11.1c0,6.1,5,11.1,11.1,11.1c6.1,0,11.1-5,11.1-11.1
		C694.8,180.7,689.9,175.7,683.7,175.7z M688.6,187.3c-0.9,1.6-2.6,4.3-4.3,4.8c-0.9,0.3-1.9,0.2-2.4-0.7c-0.5-0.8-0.6-1.9-0.8-2.9
		c-0.2-1-0.3-2.2-1-3.1c-0.7-0.9-1.6-0.8-2.6-0.5c0.4-1.3,3.8-5.1,5.2-1.3c0.5,1.3,0.5,2.7,1.1,4c0.6,1.6,1.6-0.1,2.1-0.8
		c0.4-0.6,1.4-2.2,0.5-2.8c-0.5-0.4-1.4,0.1-2,0.2c0.8-2.7,2.6-3,4-2.7c0.9,0.2,1.3,0.8,1.5,1.7
		C690.1,184.5,689.2,186.2,688.6,187.3z"/>
	<path class="st2" d="M489.4,257.7c-7.4,0-13.5,6-13.5,13.5c0,7.4,6,13.5,13.5,13.5c7.4,0,13.5-6,13.5-13.5
		C502.8,263.7,496.8,257.7,489.4,257.7z M495.2,271.7c-1.1,1.9-3.2,5.2-5.2,5.9c-1.1,0.4-2.3,0.2-2.9-0.9c-0.6-1-0.7-2.3-0.9-3.5
		c-0.2-1.3-0.4-2.7-1.2-3.7c-0.8-1.1-1.9-1-3.1-0.6c0.5-1.6,4.6-6.2,6.3-1.6c0.6,1.6,0.7,3.3,1.3,4.9c0.8,1.9,2-0.1,2.5-1
		c0.5-0.8,1.7-2.7,0.6-3.4c-0.6-0.4-1.7,0.1-2.4,0.2c0.9-3.2,3.2-3.6,4.8-3.3c1,0.2,1.6,0.9,1.8,2
		C497.1,268.3,496,270.3,495.2,271.7z"/>
	<path class="st2" d="M708.4,358.6c-12.9,0-23.4,10.5-23.4,23.4c0,12.9,10.5,23.4,23.4,23.4c12.9,0,23.4-10.5,23.4-23.4
		C731.8,369.1,721.3,358.6,708.4,358.6z M721.6,382.5c-0.8,5.7-7.6,10.8-16.9,9.2c0,0-1.1,1.9-5.2,2.5c2-3.3,1.7-4,1.7-4
		c-3.8-2.2-5.6-7.4-4.5-11.6c1.2-4.5,5.5-8.3,14.1-7.9C719.4,371.8,722.4,377.2,721.6,382.5z"/>
	<g>
		<path class="st2" d="M289.2,387.2l-8,0c-1.1,0-2,0.7-2,1.6c0,0.8,0.9,1.6,2,1.6l8,0c1.1,0,2-0.7,2-1.6
			C291.2,387.9,290.3,387.2,289.2,387.2z"/>
		<path class="st2" d="M280.5,380.9l5,0c0.7,0,1.2-0.7,1.2-1.6c0-0.8-0.6-1.6-1.2-1.6l-5,0c-0.7,0-1.2,0.7-1.2,1.6
			C279.3,380.2,279.8,380.9,280.5,380.9z"/>
		<path class="st2" d="M285.9,361.3c-12.9,0-23.4,10.5-23.4,23.4c0,12.9,10.5,23.4,23.4,23.4c12.9,0,23.4-10.5,23.4-23.4
			C309.2,371.8,298.8,361.3,285.9,361.3z M286.6,396.7c-0.4,0-0.8,0-1.2,0c-1.7,0-3.4,0.1-5.1,0c-4.4-0.3-7.5-3.4-7.8-7.8
			c-0.2-3.2-0.2-6.5,0-9.8c0.2-4.5,3.1-7.5,9-7.8c12.1-0.7,11.2,6.4,11.7,9.1c1,0,1.9-0.1,2.9,0c0.3,0,1.2,0.7,1.1,1.4l0,7.7
			C297.3,395.1,295.6,396.7,286.6,396.7z"/>
	</g>
	<g>
		<path class="st2" d="M268.2,71l-6.6,0c-0.9,0-1.6,0.6-1.6,1.3c0,0.7,0.7,1.3,1.6,1.3l6.6,0c0.9,0,1.6-0.6,1.6-1.3
			C269.9,71.6,269.1,71,268.2,71z"/>
		<path class="st2" d="M261.1,65.8l4.1,0c0.6,0,1-0.6,1-1.3c0-0.7-0.5-1.3-1-1.3l-4.1,0c-0.6,0-1,0.6-1,1.3
			C260,65.2,260.5,65.8,261.1,65.8z"/>
		<path class="st2" d="M265.5,49.7c-10.6,0-19.3,8.6-19.3,19.3s8.6,19.3,19.3,19.3c10.6,0,19.3-8.6,19.3-19.3S276.1,49.7,265.5,49.7
			z M266.1,78.9c-0.3,0-0.6,0-1,0c-1.4,0-2.8,0.1-4.2,0c-3.6-0.2-6.2-2.8-6.4-6.4c-0.1-2.7-0.2-5.4,0-8.1c0.2-3.7,2.6-6.2,7.4-6.5
			c9.9-0.6,9.3,5.3,9.6,7.5c0.8,0,1.6,0,2.4,0c0.2,0,1,0.6,0.9,1.2l0,6.4C274.9,77.6,273.5,78.9,266.1,78.9z"/>
	</g>
	<path class="st2" d="M182.8,242.1c-12.9,0-23.4,10.5-23.4,23.4c0,12.9,10.5,23.4,23.4,23.4c12.9,0,23.4-10.5,23.4-23.4
		C206.1,252.6,195.7,242.1,182.8,242.1z M197.3,271.5c-3.5,8.5-12.6,11.2-19.1,9c0.3-0.5,0.6-1.1,0.9-1.6c0.8-1.4,1.1-2.9,1.5-4.4
		c0.1-0.6,0.3-1.2,0.5-1.8c1.5,1.8,3.5,2,5.6,1.4c1.8-0.5,3.3-1.6,4.3-3.2c1.6-2.5,2.2-5.2,1.6-8.1c-0.7-3.4-2.8-5.6-6-6.7
		c-3.2-1.1-6.4-0.8-9.4,0.9c-2.6,1.5-4,3.8-4.4,6.8c-0.3,2.3,0.2,4.3,1.6,6.1c0.4,0.5,0.9,0.9,1.5,1.2c0.3,0.2,0.5,0.1,0.6-0.3
		c0.1-0.5,0.3-1.1,0.4-1.6c0-0.2,0-0.4-0.1-0.5c-1.3-1.9-1.5-4-0.6-6.2c1-2.4,2.9-3.8,5.5-4.2c1.6-0.2,3.2,0,4.7,0.8
		c1.8,1,2.8,2.6,3,4.6c0.2,1.9-0.1,3.7-1,5.4c-0.7,1.2-1.6,2.2-3,2.5c-0.5,0.1-1.1,0.2-1.6,0c-1.2-0.4-1.9-1.5-1.6-2.8
		c0.3-1.2,0.7-2.4,1-3.6c0.2-0.6,0.3-1.3,0.2-1.9c-0.2-2-2.1-2.2-3.2-1.5c-1,0.6-1.4,1.6-1.6,2.7c-0.2,1,0,2,0.3,3
		c0,0.1,0,0.3,0,0.4c-0.6,2.5-1.2,5-1.8,7.5c-0.3,1.2-0.2,2.5-0.1,3.7c0,0.3,0,0.5,0.1,0.8c-6.6-2.4-11.8-10.1-9.4-18.8
		c2.4-8.7,11.5-13.6,20.2-10.7C196.4,253.5,200.8,263.1,197.3,271.5z"/>
	<path class="st5" d="M438.1,383.9c-12.9,0-23.4,10.5-23.4,23.4c0,12.9,10.5,23.4,23.4,23.4c12.9,0,23.4-10.5,23.4-23.4
		C461.5,394.3,451,383.9,438.1,383.9z M435.9,421.1c-1.3-0.5-3.7-1.4-3.7-3.9l0-10.9h-5.9v-5.6c3.5-1.5,8.2-4.8,8.2-6.6h3.9
		c0,0,0,5.1,0,6.7l7.5-0.4l0,4.4l-7.5,0l0,10c0.7,2.6,3.1,2.2,4.6,2c1.3-0.2,3.4-1.1,3.4-1.1l0,4.7
		C445.3,420.8,440,422.6,435.9,421.1z"/>
	<path class="st5" d="M125.1,318.4c-6.5,0-11.7,5.2-11.7,11.7c0,6.5,5.2,11.7,11.7,11.7c6.5,0,11.7-5.2,11.7-11.7
		C136.8,323.6,131.6,318.4,125.1,318.4z M124,337.1c-0.7-0.2-1.9-0.8-1.9-2.1l0-5.6h-1.7v-2.6c1.7-0.7,2.9-2.7,2.9-2.7h2
		c0,0,0,2.2,0,3l3.8-0.3l0,2.1l-3.8-0.1l0,5c0.3,1.3,1.6,1.1,2.3,1c0.6-0.1,1.7-0.6,1.7-0.6l0,2.4
		C128.7,336.9,126.1,337.8,124,337.1z"/>
	<path class="st8" d="M178,394.6c-45-1.6-80.9-38.5-80.9-83.8c0-46.3,37.6-83.9,83.9-83.9c16.2,0,31.4,4.6,44.2,12.6"/>
	<path class="st8" d="M623.2,172.2c14.6-8.2,31.5-12.9,49.4-12.9c55.7,0,100.8,45.1,100.8,100.8c0,23.7-8.1,45.4-21.8,62.6"/>
	<path class="st8" d="M202.7,228c-9.4-19.5-14.7-41.4-14.7-64.6c0-82,66.5-148.5,148.5-148.5S485,81.3,485,163.4
		c0,8.3-0.7,16.3-2,24.2"/>
	<path class="st8" d="M479.4,121.4c13.5-21.3,37.3-35.4,64.5-35.4c42.1,0,76.3,34.2,76.3,76.3"/>
	<g>
		<path class="st2" d="M729.6,216.9l-6.9,0c-1,0-1.7,0.7-1.7,1.4c0,0.7,0.8,1.4,1.7,1.4l6.9,0c1,0,1.7-0.7,1.7-1.4
			C731.3,217.5,730.5,216.9,729.6,216.9z"/>
		<path class="st2" d="M722,211.4l4.3,0c0.6,0,1.1-0.6,1.1-1.4c0-0.7-0.5-1.4-1.1-1.4l-4.3,0c-0.6,0-1.1,0.6-1.1,1.4
			C720.9,210.8,721.4,211.4,722,211.4z"/>
		<path class="st2" d="M726.7,194.4c-11.2,0-20.3,9.1-20.3,20.3c0,11.2,9.1,20.3,20.3,20.3c11.2,0,20.3-9.1,20.3-20.3
			C747,203.5,737.9,194.4,726.7,194.4z M727.3,225.2c-0.3,0-0.7,0-1,0c-1.5,0-2.9,0.1-4.4,0c-3.8-0.3-6.5-2.9-6.8-6.8
			c-0.2-2.8-0.2-5.7,0-8.5c0.2-3.9,2.7-6.5,7.8-6.8c10.5-0.6,9.8,5.5,10.1,7.9c0.8,0,1.7,0,2.5,0c0.3,0,1.1,0.6,1,1.2l0,6.7
			C736.7,223.8,735.1,225.2,727.3,225.2z"/>
	</g>
	
		<ellipse transform="matrix(0.7071 -0.7071 0.7071 0.7071 -164.8834 514.9576)" class="st9" cx="539.2" cy="456.5" rx="48.9" ry="48.9"/>
	<circle class="st9" cx="611.2" cy="513.8" r="26.2"/>
</g>
<radialGradient id="SVGID_1_" cx="443.6862" cy="559.6328" r="287.6394" fx="627.7606" fy="550.6155" gradientTransform="matrix(1 0 0 6.075500e-02 0 525.6323)" gradientUnits="userSpaceOnUse">
	<stop  offset="0" style="stop-color:#0F2E66;stop-opacity:0.4"/>
	<stop  offset="0.2082" style="stop-color:#435C87;stop-opacity:0.3167"/>
	<stop  offset="0.7586" style="stop-color:#C9D0DD;stop-opacity:9.656397e-02"/>
	<stop  offset="1" style="stop-color:#FFFFFF;stop-opacity:0"/>
</radialGradient>
<ellipse class="st10" cx="434.3" cy="559.1" rx="327.9" ry="22.6"/>
</svg>
