<?xml version="1.0" encoding="utf-8"?>
<!-- Generator: Adobe Illustrator 23.0.0, SVG Export Plug-In . SVG Version: 6.00 Build 0)  -->
<svg version="1.1" id="Layer_1" xmlns="http://www.w3.org/2000/svg" xmlns:xlink="http://www.w3.org/1999/xlink" x="0px" y="0px"
	 viewBox="0 0 110.5 110.6" style="enable-background:new 0 0 110.5 110.6;" xml:space="preserve">
<style type="text/css">
	.st0{fill:#F5F9FF;}
</style>
<g>
	<path class="st0" d="M55.2,0.9c-0.3-0.9-1.4-0.8-1.7,0c-0.7,1.7-0.4,3.7-0.4,5.5c0,2-0.1,4.1,0.1,6.1c0.2,1.4,2.1,1.4,2.2,0
		c0.2-2,0.1-4.1,0.1-6.1C55.5,4.6,55.8,2.6,55.2,0.9z"/>
	<path class="st0" d="M63.7,1.6c-0.2-0.9-1.2-1-1.7-0.3c-0.9,1.5-1,3.6-1.3,5.4c-0.3,2-0.7,4.1-0.8,6.1c-0.1,1.4,1.8,1.7,2.2,0.3
		c0.5-2,0.7-4,1-6.1C63.4,5.3,64,3.4,63.7,1.6z"/>
	<path class="st0" d="M72,3.6c0-0.9-1.1-1.2-1.6-0.5c-1.2,1.4-1.6,3.4-2.1,5.1c-0.7,1.9-1.4,3.9-1.8,5.9c-0.3,1.4,1.5,2,2.1,0.7
		c0.8-1.9,1.3-3.9,2-5.8C71.2,7.2,72.1,5.4,72,3.6z"/>
	<path class="st0" d="M79.9,6.9c0.1-0.9-0.9-1.3-1.5-0.8c-1.4,1.2-2.1,3.1-2.9,4.7c-0.9,1.8-2,3.6-2.7,5.5c-0.5,1.3,1.2,2.2,2,1
		c1.1-1.7,1.9-3.6,2.9-5.4C78.5,10.3,79.7,8.7,79.9,6.9z"/>
	<path class="st0" d="M87.2,11.3c0.3-0.9-0.6-1.5-1.4-1c-1.5,1-2.5,2.8-3.6,4.2c-1.2,1.6-2.5,3.3-3.5,5.1c-0.7,1.2,0.8,2.4,1.8,1.3
		c1.3-1.5,2.5-3.3,3.7-4.9C85.3,14.5,86.7,13.1,87.2,11.3z"/>
	<path class="st0" d="M93.7,16.9c0.4-0.8-0.4-1.5-1.2-1.2c-1.7,0.7-2.9,2.3-4.2,3.6c-1.5,1.4-3,2.8-4.2,4.5
		c-0.9,1.1,0.4,2.5,1.6,1.6c1.6-1.3,3-2.8,4.4-4.3C91.3,19.7,92.9,18.5,93.7,16.9z"/>
	<path class="st0" d="M99.3,23.4c0.5-0.7-0.2-1.6-1-1.4c-1.7,0.4-3.3,1.8-4.7,2.9c-1.7,1.2-3.4,2.3-4.9,3.7c-1,1,0.1,2.5,1.3,1.8
		c1.8-1,3.4-2.4,5-3.6C96.5,25.8,98.2,24.9,99.3,23.4z"/>
	<path class="st0" d="M103.7,30.7c0.6-0.7,0.1-1.6-0.8-1.5c-1.8,0.2-3.5,1.3-5.1,2.1c-1.8,0.9-3.7,1.8-5.4,2.9c-1.2,0.8-0.3,2.5,1,2
		c1.9-0.8,3.7-1.8,5.5-2.7C100.6,32.6,102.5,32,103.7,30.7z"/>
	<path class="st0" d="M107,38.6c0.7-0.6,0.3-1.5-0.5-1.6c-1.8-0.1-3.7,0.7-5.4,1.3c-1.9,0.6-3.9,1.2-5.8,2c-1.3,0.6-0.7,2.4,0.7,2.1
		c2-0.5,3.9-1.2,5.9-1.8C103.6,40,105.5,39.7,107,38.6z"/>
	<path class="st0" d="M109,46.9c0.8-0.4,0.6-1.5-0.3-1.7c-1.8-0.4-3.7,0.2-5.5,0.4c-2,0.3-4.1,0.5-6,1.1c-1.3,0.4-1.1,2.3,0.3,2.2
		c2-0.1,4.1-0.6,6.1-0.9C105.4,47.8,107.4,47.8,109,46.9z"/>
	<path class="st0" d="M109.7,55.5c0.9-0.3,0.8-1.4,0-1.7c-1.7-0.7-3.7-0.4-5.5-0.4c-2,0-4.1-0.1-6.1,0.1c-1.4,0.2-1.4,2.1,0,2.2
		c2,0.2,4.1,0.1,6.1,0.1C106,55.7,107.9,56.1,109.7,55.5z"/>
	<path class="st0" d="M109,64c0.9-0.2,1-1.2,0.3-1.7c-1.5-0.9-3.6-1-5.4-1.3c-2-0.3-4.1-0.7-6.1-0.8c-1.4-0.1-1.7,1.8-0.3,2.2
		c2,0.5,4,0.7,6.1,1C105.3,63.7,107.2,64.3,109,64z"/>
	<path class="st0" d="M107,72.3c0.9,0,1.2-1.1,0.5-1.6c-1.4-1.2-3.4-1.6-5.1-2.1c-1.9-0.7-3.9-1.4-5.9-1.8c-1.4-0.3-2,1.5-0.7,2.1
		c1.9,0.8,3.9,1.3,5.8,2C103.4,71.4,105.1,72.4,107,72.3z"/>
	<path class="st0" d="M103.7,80.2c0.9,0.1,1.3-0.9,0.8-1.5c-1.2-1.4-3.1-2.1-4.7-2.9c-1.8-0.9-3.6-2-5.5-2.7c-1.3-0.5-2.2,1.2-1,2
		c1.7,1.1,3.6,1.9,5.4,2.9C100.3,78.8,101.9,80,103.7,80.2z"/>
	<path class="st0" d="M99.2,87.5c0.9,0.3,1.5-0.6,1-1.4c-1-1.5-2.8-2.5-4.2-3.6C94.4,81.3,92.7,80,91,79c-1.2-0.7-2.4,0.8-1.3,1.8
		c1.5,1.3,3.3,2.5,4.9,3.7C96.1,85.6,97.5,87,99.2,87.5z"/>
	<path class="st0" d="M93.6,94c0.8,0.4,1.5-0.4,1.2-1.2c-0.7-1.7-2.3-2.9-3.6-4.2c-1.4-1.5-2.8-3-4.5-4.2c-1.1-0.9-2.5,0.4-1.6,1.6
		c1.3,1.6,2.8,3,4.3,4.4C90.8,91.6,92,93.2,93.6,94z"/>
	<path class="st0" d="M87.1,99.5c0.7,0.5,1.6-0.2,1.4-1c-0.4-1.7-1.8-3.3-2.9-4.7c-1.2-1.7-2.3-3.4-3.7-4.9c-1-1-2.5,0.1-1.8,1.3
		c1,1.8,2.4,3.4,3.6,5C84.7,96.7,85.6,98.5,87.1,99.5z"/>
	<path class="st0" d="M79.8,104c0.7,0.6,1.6,0.1,1.5-0.8c-0.2-1.8-1.3-3.5-2.1-5.1c-0.9-1.8-1.8-3.7-2.9-5.4c-0.8-1.2-2.5-0.3-2,1
		c0.8,1.9,1.8,3.7,2.7,5.5C77.9,100.9,78.5,102.8,79.8,104z"/>
	<path class="st0" d="M71.9,107.3c0.6,0.7,1.5,0.3,1.6-0.5c0.1-1.8-0.7-3.7-1.3-5.4c-0.6-1.9-1.2-3.9-2-5.8
		c-0.6-1.3-2.4-0.7-2.1,0.7c0.5,2,1.2,3.9,1.8,5.9C70.5,103.9,70.8,105.8,71.9,107.3z"/>
	<path class="st0" d="M63.6,109.3c0.4,0.8,1.5,0.6,1.7-0.3c0.4-1.8-0.2-3.7-0.4-5.5c-0.3-2-0.5-4.1-1.1-6c-0.4-1.3-2.3-1.1-2.2,0.3
		c0.1,2,0.6,4.1,0.9,6.1C62.8,105.7,62.8,107.7,63.6,109.3z"/>
	<path class="st0" d="M55.1,109.9c0.3,0.9,1.4,0.8,1.7,0c0.7-1.7,0.4-3.7,0.4-5.5c0-2,0.1-4.1-0.1-6.1c-0.2-1.4-2.1-1.4-2.2,0
		c-0.2,2-0.1,4.1-0.1,6.1C54.8,106.2,54.5,108.2,55.1,109.9z"/>
	<path class="st0" d="M46.6,109.3c0.2,0.9,1.2,1,1.7,0.3c0.9-1.5,1-3.6,1.3-5.4c0.3-2,0.7-4.1,0.8-6.1c0.1-1.4-1.8-1.7-2.2-0.3
		c-0.5,2-0.7,4-1,6.1C46.9,105.6,46.2,107.5,46.6,109.3z"/>
	<path class="st0" d="M38.2,107.2c0,0.9,1.1,1.2,1.6,0.5c1.2-1.4,1.6-3.4,2.1-5.1c0.7-1.9,1.4-3.9,1.8-5.9c0.3-1.4-1.5-2-2.1-0.7
		c-0.8,1.9-1.3,3.9-2,5.8C39.1,103.6,38.2,105.4,38.2,107.2z"/>
	<path class="st0" d="M30.3,104c-0.1,0.9,0.9,1.3,1.5,0.8c1.4-1.2,2.1-3.1,2.9-4.7c0.9-1.8,2-3.6,2.7-5.5c0.5-1.3-1.2-2.2-2-1
		c-1.1,1.7-1.9,3.6-2.9,5.4C31.8,100.5,30.6,102.2,30.3,104z"/>
	<path class="st0" d="M23.1,99.5c-0.3,0.9,0.6,1.5,1.4,1c1.5-1,2.5-2.8,3.6-4.2c1.2-1.6,2.5-3.3,3.5-5.1c0.7-1.2-0.8-2.4-1.8-1.3
		c-1.3,1.5-2.5,3.3-3.7,4.9C25,96.3,23.6,97.7,23.1,99.5z"/>
	<path class="st0" d="M16.6,93.9c-0.4,0.8,0.4,1.5,1.2,1.2c1.7-0.7,2.9-2.3,4.2-3.6c1.5-1.4,3-2.8,4.2-4.5c0.9-1.1-0.4-2.5-1.6-1.6
		c-1.6,1.3-3,2.8-4.4,4.3C19,91.1,17.3,92.3,16.6,93.9z"/>
	<path class="st0" d="M11,87.4c-0.5,0.7,0.2,1.6,1,1.4c1.7-0.4,3.3-1.8,4.7-2.9c1.7-1.2,3.4-2.3,4.9-3.7c1-1-0.1-2.5-1.3-1.8
		c-1.8,1-3.4,2.4-5,3.6C13.8,85,12,85.9,11,87.4z"/>
	<path class="st0" d="M6.5,80.1c-0.6,0.7-0.1,1.6,0.8,1.5c1.8-0.2,3.5-1.3,5.1-2.1c1.8-0.9,3.7-1.8,5.4-2.9c1.2-0.8,0.3-2.5-1-2
		c-1.9,0.8-3.7,1.8-5.5,2.7C9.7,78.2,7.8,78.8,6.5,80.1z"/>
	<path class="st0" d="M3.3,72.2c-0.7,0.6-0.3,1.5,0.5,1.6c1.8,0.1,3.7-0.7,5.4-1.3c1.9-0.6,3.9-1.2,5.8-2c1.3-0.6,0.7-2.4-0.7-2.1
		c-2,0.5-3.9,1.2-5.9,1.8C6.7,70.8,4.7,71.1,3.3,72.2z"/>
	<path class="st0" d="M1.3,63.9c-0.8,0.4-0.6,1.5,0.3,1.7c1.8,0.4,3.7-0.2,5.5-0.4c2-0.3,4.1-0.5,6-1.1c1.3-0.4,1.1-2.3-0.3-2.2
		c-2,0.1-4.1,0.6-6.1,0.9C4.9,63,2.9,63,1.3,63.9z"/>
	<path class="st0" d="M0.6,55.4c-0.9,0.3-0.8,1.4,0,1.7c1.7,0.7,3.7,0.4,5.5,0.4c2,0,4.1,0.1,6.1-0.1c1.4-0.2,1.4-2.1,0-2.2
		c-2-0.2-4.1-0.1-6.1-0.1C4.3,55.1,2.3,54.8,0.6,55.4z"/>
	<path class="st0" d="M1.3,46.8c-0.9,0.2-1,1.2-0.3,1.7c1.5,0.9,3.6,1,5.4,1.3c2,0.3,4.1,0.7,6.1,0.8c1.4,0.1,1.7-1.8,0.3-2.2
		c-2-0.5-4-0.7-6.1-1C5,47.1,3.1,46.5,1.3,46.8z"/>
	<path class="st0" d="M3.3,38.5c-0.9,0-1.2,1.1-0.5,1.6c1.4,1.2,3.4,1.6,5.1,2.1c1.9,0.7,3.9,1.4,5.9,1.8c1.4,0.3,2-1.5,0.7-2.1
		c-1.9-0.8-3.9-1.3-5.8-2C6.9,39.4,5.1,38.5,3.3,38.5z"/>
	<path class="st0" d="M6.6,30.6c-0.9-0.1-1.3,0.9-0.8,1.5c1.2,1.4,3.1,2.1,4.7,2.9c1.8,0.9,3.6,2,5.5,2.7c1.3,0.5,2.2-1.2,1-2
		c-1.7-1.1-3.6-1.9-5.4-2.9C10,32,8.4,30.9,6.6,30.6z"/>
	<path class="st0" d="M11.1,23.3c-0.9-0.3-1.5,0.6-1,1.4c1,1.5,2.8,2.5,4.2,3.6c1.6,1.2,3.3,2.5,5.1,3.5c1.2,0.7,2.4-0.8,1.3-1.8
		c-1.5-1.3-3.3-2.5-4.9-3.7C14.2,25.3,12.8,23.9,11.1,23.3z"/>
	<path class="st0" d="M16.6,16.8c-0.8-0.4-1.5,0.4-1.2,1.2c0.7,1.7,2.3,2.9,3.6,4.2c1.4,1.5,2.8,3,4.5,4.2c1.1,0.9,2.5-0.4,1.6-1.6
		c-1.3-1.6-2.8-3-4.3-4.4C19.4,19.2,18.3,17.6,16.6,16.8z"/>
	<path class="st0" d="M23.1,11.3c-0.7-0.5-1.6,0.2-1.4,1c0.4,1.7,1.8,3.3,2.9,4.7c1.2,1.7,2.3,3.4,3.7,4.9c1,1,2.5-0.1,1.8-1.3
		c-1-1.8-2.4-3.4-3.6-5C25.5,14.1,24.6,12.3,23.1,11.3z"/>
	<path class="st0" d="M30.4,6.8c-0.7-0.6-1.6-0.1-1.5,0.8c0.2,1.8,1.3,3.5,2.1,5.1c0.9,1.8,1.8,3.7,2.9,5.4c0.8,1.2,2.5,0.3,2-1
		c-0.8-1.9-1.8-3.7-2.7-5.5C32.4,10,31.7,8.1,30.4,6.8z"/>
	<path class="st0" d="M38.3,3.6c-0.6-0.7-1.5-0.3-1.6,0.5c-0.1,1.8,0.7,3.7,1.3,5.4c0.6,1.9,1.2,3.9,2,5.8c0.6,1.3,2.4,0.7,2.1-0.7
		c-0.5-2-1.2-3.9-1.8-5.9C39.7,7,39.4,5,38.3,3.6z"/>
	<path class="st0" d="M46.7,1.6C46.2,0.8,45.2,1,45,1.8c-0.4,1.8,0.2,3.7,0.4,5.5c0.3,2,0.5,4.1,1.1,6c0.4,1.3,2.3,1.1,2.2-0.3
		C48.5,11,48.1,9,47.8,7C47.5,5.2,47.5,3.2,46.7,1.6z"/>
</g>
</svg>
